M48
METRIC,LZ,000.000
;FILE_FORMAT=3:3
;TYPE=PLATED
;Layer: PTH_Through
;EasyEDA v6.5.38, 2023-12-09 12:24:54
;bf440a20a08f4097bebf48ea32ac6b6d,9a5be75d700b4a6385dc1106f27949ae,10
;Gerber Generator version 0.2
;Holesize 1 = 0.310 mm
T01C0.310
;Holesize 2 = 0.411 mm
T02C0.411
;Holesize 3 = 0.762 mm
T03C0.762
;Holesize 4 = 0.889 mm
T04C0.889
;Holesize 5 = 1.101 mm
T05C1.101
;Holesize 6 = 1.301 mm
T06C1.301
;Holesize 7 = 1.501 mm
T07C1.501
;Holesize 8 = 3.501 mm
T08C3.501
%
G05
G90
T01
X020066Y-017780
X025146Y-013716
X033020Y-004318
X009906Y-032512
X012446Y-032512
X014986Y-032512
X017526Y-032512
X027686Y-032512
X030226Y-032512
X039116Y-008382
X052324Y-008890
X053594Y-014732
X058674Y-010414
X061976Y-008890
X012446Y-003302
X017780Y-012954
X024892Y-007874
X030480Y-011176
X046482Y-011938
X056896Y-003048
X054356Y-005080
X056896Y-020574
X016510Y-005080
X016256Y-006858
X028702Y-007112
X030226Y-005842
X024384Y-013208
X026416Y-013716
X033020Y-003302
X003810Y-017780
X005842Y-017780
X004064Y-018796
X037338Y-011938
X038862Y-007620
X040132Y-008890
X054356Y-010160
X055118Y-008382
X053340Y-009144
X057912Y-009906
X061214Y-009398
X062738Y-008382
X052578Y-014732
X054102Y-013970
X051308Y-008890
X031242Y-047244
X028702Y-047244
X026162Y-047244
X023622Y-047244
X021082Y-047244
X018542Y-047244
X026416Y-037084
X026416Y-038100
X028702Y-036576
X028702Y-037338
X009906Y-031496
X012446Y-031496
X014986Y-031496
X017526Y-031496
X027686Y-031496
X030226Y-031496
X039370Y-005334
X039878Y-006350
X041656Y-004318
X055372Y-009906
X034544Y-013716
X034544Y-012700
X034544Y-011684
X034544Y-010668
X034544Y-009652
X034544Y-008636
X034544Y-007620
X034544Y-006604
X034544Y-005588
X035560Y-005588
X036576Y-005588
X043688Y-010160
X044704Y-010160
X045720Y-010160
X046736Y-010160
X047752Y-010668
X048768Y-011176
X048768Y-012192
X048768Y-013208
X052324Y-016510
X033274Y-040640
X033274Y-041656
X033274Y-042672
X033147Y-043688
X033147Y-044704
X033528Y-045720
X034036Y-046736
X034036Y-047752
X034036Y-048768
X031750Y-040640
X030734Y-040640
X028448Y-039116
X031496Y-036322
X036068Y-038608
X037084Y-038608
X038100Y-038608
X039116Y-038608
X040132Y-038608
X041148Y-038608
X045212Y-039116
X046228Y-038100
X047752Y-037592
X049276Y-037592
X050800Y-037592
X052324Y-037592
X053848Y-037592
X054864Y-036576
X065024Y-029972
X064008Y-030988
X062992Y-032004
X059944Y-035560
X060960Y-035560
X066040Y-025400
X061468Y-027432
X062484Y-027432
X065024Y-025908
X058420Y-020828
X055372Y-020574
X053848Y-020574
X052324Y-020574
X052324Y-018796
X022098Y-009906
X021844Y-011938
X021844Y-010922
X021844Y-012954
X022606Y-008890
X020828Y-006096
X045212Y-042164
X045212Y-043180
X045212Y-044196
X044450Y-040132
X042164Y-046736
X041148Y-046736
X040132Y-046736
X039116Y-046736
X038100Y-046736
X037084Y-046736
X036068Y-046736
X035052Y-046736
X043180Y-046736
X044196Y-046736
X021336Y-017780
X006604Y-000762
X008636Y-000762
X010668Y-000762
X012700Y-000762
X020828Y-000762
X018796Y-000762
X016764Y-000762
X014732Y-000762
X028956Y-000762
X026924Y-000762
X024892Y-000762
X022860Y-000762
X037084Y-000762
X035052Y-000762
X033020Y-000762
X030988Y-000762
X041148Y-000762
X043180Y-000762
X045212Y-000762
X047244Y-000762
X039116Y-000762
X051308Y-000762
X053340Y-000762
X055372Y-000762
X057404Y-000762
X049276Y-000762
X063500Y-000762
X061468Y-000762
X059436Y-000762
X059436Y-049276
X061468Y-049276
X063500Y-049276
X049276Y-049276
X057404Y-049276
X055372Y-049276
X053340Y-049276
X051308Y-049276
X039116Y-049276
X047244Y-049276
X045212Y-049276
X043180Y-049276
X041148Y-049276
X030988Y-049276
X033020Y-049276
X035052Y-049276
X037084Y-049276
X022860Y-049276
X024892Y-049276
X026924Y-049276
X028956Y-049276
X014732Y-049276
X016764Y-049276
X018796Y-049276
X020828Y-049276
X012700Y-049276
X010668Y-049276
X008636Y-049276
X006604Y-049276
X000762Y-035306
X000762Y-037338
X000762Y-039370
X000762Y-041402
X000762Y-043434
X000762Y-021082
X000762Y-023114
X000762Y-025146
X000762Y-027178
X000762Y-029210
X000762Y-031242
X000762Y-033274
X000762Y-006858
X000762Y-008890
X000762Y-010922
X000762Y-012954
X000762Y-014986
X000762Y-017018
X000762Y-019050
X070104Y-006604
X070104Y-008636
X070104Y-010668
X070104Y-012700
X070104Y-014732
X070104Y-016764
X070104Y-018796
X070104Y-020828
X070104Y-022860
X070104Y-024892
X070104Y-026924
X070104Y-028956
X070104Y-030988
X070104Y-033020
X070104Y-035052
X070104Y-037084
X070104Y-039116
X070104Y-041148
X070104Y-043180
X000762Y-002794
X000762Y-004826
X002540Y-000762
X004572Y-000762
X001270Y-001270
X067564Y-000762
X065532Y-000762
X070104Y-002540
X070104Y-004572
X069596Y-000762
X065532Y-049276
X067564Y-049276
X069596Y-049276
X070104Y-047244
X070104Y-045212
X004572Y-049276
X000762Y-047498
X000762Y-045466
X002540Y-049276
X001270Y-048768
T02
X007366Y-017780
X017526Y-017780
X032766Y-017780
X045466Y-017780
X007366Y-032512
X020066Y-032512
X032766Y-032512
X045466Y-032512
X048768Y-025146
X027940Y-005334
X016764Y-006096
X037846Y-011176
X054356Y-009144
X061214Y-010414
X027432Y-036830
X004826Y-017780
X009906Y-007874
X018542Y-006350
X020574Y-013208
X027178Y-009652
X033782Y-005334
X036576Y-011176
X043180Y-010922
X057404Y-012700
X065786Y-013208
X059436Y-017018
X034036Y-036830
X026416Y-042926
X018542Y-037592
X017018Y-042164
X040132Y-042164
X041910Y-039370
X054356Y-047244
X058674Y-040132
X057150Y-034798
T03
X049530Y-039370
X052070Y-039370
X046990Y-039370
X043434Y-005334
X045974Y-005334
X040894Y-005334
T04
X007366Y-011430
X004826Y-011430
X002286Y-011430
T05
X067564Y-028956
X067564Y-026416
X067564Y-023876
X067564Y-021336
X032512Y-047752
X029972Y-047752
X027432Y-047752
X024892Y-047752
X022352Y-047752
X019812Y-047752
X017272Y-047752
X014732Y-047752
X012192Y-047752
X009652Y-047752
T06
X065024Y-036576
X061976Y-025146
T07
X062484Y-034036
X067564Y-034036
X062484Y-039116
X067564Y-039116
X059436Y-022606
X064516Y-022606
X059436Y-027686
X064516Y-027686
T08
X003556Y-003556
X067056Y-003556
X067056Y-046482
X003556Y-046482
M30
