M48
METRIC,LZ,000.000
;FILE_FORMAT=3:3
;TYPE=PLATED
;Layer: PTH_Through
;EasyEDA v6.5.44, 2024-08-29 13:08:05
;16ae97f49be74552a1a67efb210d0a0d,9a5be75d700b4a6385dc1106f27949ae,10
;Gerber Generator version 0.2
;Holesize 1 = 0.310 mm
T01C0.310
;Holesize 2 = 0.411 mm
T02C0.411
;Holesize 3 = 0.762 mm
T03C0.762
;Holesize 4 = 0.889 mm
T04C0.889
;Holesize 5 = 1.101 mm
T05C1.101
;Holesize 6 = 1.301 mm
T06C1.301
;Holesize 7 = 1.501 mm
T07C1.501
;Holesize 8 = 3.400 mm
T08C3.400
%
G05
G90
T01
X020000Y-017750
X025250Y-013500
X033000Y-004500
X010000Y-032500
X012500Y-032500
X015000Y-032500
X017500Y-032500
X027750Y-032500
X030250Y-032500
X039250Y-009500
X050750Y-009000
X051250Y-017750
X058250Y-010000
X009750Y-002250
X017750Y-012750
X025000Y-007750
X028500Y-012000
X055500Y-002250
X053000Y-005250
X016000Y-005750
X016000Y-007250
X023500Y-013500
X026250Y-013500
X004000Y-017750
X006000Y-017750
X004250Y-018500
X051500Y-018750
X026500Y-037000
X028500Y-036500
X010000Y-031500
X012500Y-031500
X015000Y-031500
X017500Y-031500
X027750Y-031500
X030250Y-031500
X050000Y-011500
X031000Y-045500
X033500Y-045500
X034500Y-046500
X029000Y-039000
X031496Y-036322
X036000Y-037000
X045500Y-037500
X054500Y-036000
X021500Y-013500
X044250Y-042000
X021000Y-017750
X006604Y-000762
X008636Y-000762
X010668Y-000762
X012700Y-000762
X020828Y-000762
X018796Y-000762
X016764Y-000762
X014732Y-000762
X028956Y-000762
X026924Y-000762
X024892Y-000762
X022860Y-000762
X037084Y-000762
X035052Y-000762
X033020Y-000762
X030988Y-000762
X041148Y-000762
X043180Y-000762
X045212Y-000762
X047244Y-000762
X039116Y-000762
X051308Y-000762
X053340Y-000762
X055372Y-000762
X057404Y-000762
X049276Y-000762
X063500Y-000762
X061468Y-000762
X059436Y-000762
X059436Y-049276
X061468Y-049276
X063500Y-049276
X049276Y-049276
X057404Y-049276
X055372Y-049276
X053340Y-049276
X051308Y-049276
X039116Y-049276
X047244Y-049276
X045212Y-049276
X043180Y-049276
X041148Y-049276
X030988Y-049276
X033020Y-049276
X035052Y-049276
X037084Y-049276
X022860Y-049276
X024892Y-049276
X026924Y-049276
X028956Y-049276
X014732Y-049276
X016764Y-049276
X018796Y-049276
X020828Y-049276
X012700Y-049276
X010668Y-049276
X008636Y-049276
X006604Y-049276
X000762Y-035306
X000762Y-037338
X000762Y-039370
X000762Y-041402
X000762Y-043434
X000762Y-021082
X000762Y-023114
X000762Y-025146
X000762Y-027178
X000762Y-029210
X000762Y-031242
X000762Y-033274
X000762Y-006858
X000762Y-008890
X000762Y-010922
X000762Y-012954
X000762Y-014986
X000762Y-017018
X000762Y-019050
X070104Y-006604
X070104Y-008636
X070104Y-010668
X070104Y-012700
X070104Y-014732
X070104Y-016764
X070104Y-018796
X070104Y-020828
X070104Y-022860
X070104Y-024892
X070104Y-026924
X070104Y-028956
X070104Y-030988
X070104Y-033020
X070104Y-035052
X070104Y-037084
X070104Y-039116
X070104Y-041148
X070104Y-043180
X000762Y-002794
X000762Y-004826
X002540Y-000762
X004572Y-000762
X001270Y-001270
X067564Y-000762
X065532Y-000762
X070104Y-002540
X070104Y-004572
X069596Y-000762
X065532Y-049276
X067564Y-049276
X069596Y-049276
X070104Y-047244
X070104Y-045212
X004572Y-049276
X000762Y-047498
X000762Y-045466
X002540Y-049276
X001270Y-048768
X038500Y-009000
X041000Y-004500
X043500Y-004500
X023500Y-011500
X024500Y-010000
X029750Y-012000
X030250Y-006500
X030250Y-004750
X029000Y-007250
X033500Y-003750
X034500Y-048000
X050000Y-010000
X051500Y-010000
X059500Y-039500
X061000Y-039500
X059750Y-036000
X061000Y-035000
X064500Y-029000
X064000Y-030500
X068500Y-032000
X050500Y-041000
X050500Y-044500
X049500Y-045250
X050250Y-017750
X051500Y-011500
X053000Y-011500
X054500Y-011500
X053000Y-010000
X055750Y-013250
X055750Y-014250
X055750Y-015250
X057750Y-016250
X059250Y-016750
X059250Y-017750
X059250Y-018750
X061500Y-020500
X051500Y-020500
X054000Y-022500
X053000Y-013000
X054250Y-008500
X056750Y-016250
X056750Y-011500
X057750Y-011500
X057000Y-010000
X059500Y-010000
X055750Y-021750
X047500Y-037500
X049500Y-037500
X051500Y-037500
X053500Y-037500
X048500Y-041000
X046500Y-041000
X037500Y-039000
X039500Y-039000
X041500Y-039000
X031000Y-043500
X031000Y-041500
X054250Y-016500
X052500Y-016500
X059500Y-020500
X057500Y-020500
X048500Y-011500
X047000Y-011500
X045500Y-011500
X043000Y-009500
X045000Y-009500
X021500Y-011500
X022000Y-010000
X023750Y-004750
X025250Y-004749
X044250Y-046750
X031750Y-003500
X035500Y-003750
T02
X007250Y-017750
X017500Y-017750
X032750Y-017750
X045500Y-017750
X007250Y-032500
X020000Y-032500
X032750Y-032500
X045500Y-032500
X048750Y-025000
X028000Y-005500
X016500Y-006500
X037500Y-011500
X053500Y-009000
X057250Y-012250
X027500Y-036750
X005000Y-017750
X009906Y-007874
X018000Y-006500
X018250Y-010750
X027250Y-010000
X033750Y-005500
X036000Y-011500
X040500Y-011500
X065500Y-007000
X034036Y-036830
X026416Y-042926
X040000Y-042250
X042000Y-040250
X054000Y-046750
X057250Y-041500
X057000Y-034750
X043000Y-011500
X032750Y-013250
X053500Y-025000
X020000Y-036500
X007250Y-036500
X031750Y-002500
T03
X049500Y-039250
X052040Y-039250
X046960Y-039250
X043500Y-006000
X046040Y-006000
X040960Y-006000
T04
X007330Y-011501
X002250Y-011501
X004790Y-011501
T05
X032431Y-047501
X029891Y-047501
X027351Y-047501
X024811Y-047501
X022271Y-047501
X019731Y-047501
X017191Y-047501
X014651Y-047501
X012111Y-047501
X009571Y-047501
X066749Y-028811
X066749Y-026271
X066749Y-023731
X066749Y-021191
T06
X065499Y-036500
X065499Y-013500
T07
X062959Y-033960
X068039Y-033960
X062959Y-039040
X068039Y-039040
X062959Y-010960
X068039Y-010960
X062959Y-016040
X068039Y-016040
T08
X003500Y-003500
X067000Y-003500
X067000Y-046500
X003500Y-046500
M30
