M48
METRIC,LZ,000.000
;FILE_FORMAT=3:3
;TYPE=PLATED
;Layer: PTH_Through
;EasyEDA v6.5.22, 2023-03-08 13:12:16
;37ab446038db4d519e82eb444407bca9,9a5be75d700b4a6385dc1106f27949ae,10
;Gerber Generator version 0.2
;Holesize 1 = 0.762 mm
T01C0.762
;Holesize 2 = 0.889 mm
T02C0.889
;Holesize 3 = 1.000 mm
T03C1.000
;Holesize 4 = 1.101 mm
T04C1.101
;Holesize 5 = 3.501 mm
T05C3.501
%
G05
G90
T01
X056134Y-039624
X058634Y-039624
X053634Y-039624
X058674Y-026670
X056174Y-026670
X061174Y-026670
T02
X007366Y-011430
X004826Y-011430
X002286Y-011430
T03
X032258Y-047752
X034798Y-047752
T04
X019558Y-047752
X017018Y-047752
X014478Y-047752
X011938Y-047752
X067564Y-029210
X067564Y-026670
X067564Y-024130
X067564Y-021590
X029718Y-047752
X027178Y-047752
X024638Y-047752
X022098Y-047752
T05
X003556Y-003556
X067056Y-003556
X067056Y-046482
X003556Y-046482
M30
