M48
METRIC,LZ,000.000
;FILE_FORMAT=3:3
;TYPE=PLATED
;Layer: PTH_Through_Via
;EasyEDA v6.5.22, 2023-03-08 13:12:16
;37ab446038db4d519e82eb444407bca9,9a5be75d700b4a6385dc1106f27949ae,10
;Gerber Generator version 0.2
;Holesize 1 = 0.310 mm
T01C0.310
;Holesize 2 = 0.411 mm
T02C0.411
%
G05
G90
T01
X020066Y-017526
X017526Y-017526
X016002Y-012700
X060706Y-020574
X011430Y-001778
X033528Y-009652
X020828Y-003302
X023622Y-010414
X029464Y-009652
X056642Y-016002
X045212Y-006920
X052832Y-008698
T02
X007366Y-017780
X032766Y-017780
X045466Y-017780
X007366Y-032512
X020066Y-032512
X045466Y-032512
X032766Y-032512
X047870Y-043250
X008636Y-023114
X008636Y-026416
X060960Y-046482
X065024Y-036322
X055880Y-020066
X030988Y-008890
X047244Y-020066
X049276Y-018288
X053594Y-017272
X058420Y-017272
X044196Y-009714
X047752Y-008382
X047752Y-010984
M30
