M48
METRIC,LZ,000.000
;FILE_FORMAT=3:3
;TYPE=PLATED
;Layer: PTH_Through
;EasyEDA v6.4.31, 2022-02-22 16:37:49
;daaedd2a32134c9ca592902a83472a49,9a5be75d700b4a6385dc1106f27949ae,10
;Gerber Generator version 0.2
;Holesize 1 = 0.305 mm
T01C0.305
;Holesize 2 = 0.306 mm
T02C0.306
;Holesize 3 = 0.400 mm
T03C0.400
;Holesize 4 = 0.762 mm
T04C0.762
;Holesize 5 = 0.850 mm
T05C0.850
;Holesize 6 = 0.889 mm
T06C0.889
;Holesize 7 = 0.915 mm
T07C0.915
;Holesize 8 = 1.101 mm
T08C1.101
%
G05
G90
T01
X024130Y-114935
X022860Y-134620
X045085Y-136525
X020320Y-139700
X059690Y-106045
X037465Y-093345
X029210Y-094615
T02
X008184Y-089972
X008184Y-095052
X008184Y-100132
X008184Y-115372
X008184Y-120452
X008184Y-125532
X008184Y-130612
X008184Y-135692
X008184Y-140772
X013264Y-089972
X013264Y-095052
X013264Y-100132
X013264Y-105212
X013264Y-115372
X013264Y-130612
X013264Y-135692
X013264Y-140772
X013264Y-145852
X018344Y-089972
X018344Y-095052
X018344Y-100132
X018344Y-115372
X018344Y-120452
X018344Y-130612
X018344Y-145852
X023424Y-089972
X023424Y-145852
X028504Y-089972
X028504Y-115372
X028504Y-120452
X028504Y-125532
X028504Y-130612
X028504Y-135692
X028504Y-145852
X033584Y-089972
X033584Y-105212
X033584Y-115372
X033584Y-120452
X033584Y-125532
X033584Y-130612
X033584Y-135692
X033584Y-145852
X038664Y-089972
X038664Y-115372
X038664Y-120452
X038664Y-130612
X038664Y-145852
X043744Y-089972
X043744Y-095052
X043744Y-100132
X043744Y-105212
X043744Y-145852
X048824Y-089972
X048824Y-095052
X048824Y-100132
X048824Y-115372
X048824Y-120452
X048824Y-125532
X048824Y-145852
X053904Y-089972
X053904Y-115372
X053904Y-120452
X053904Y-125532
X053904Y-130612
X053904Y-145852
X058984Y-089972
X058984Y-095052
X058984Y-100132
X058984Y-115372
X058984Y-120452
X058984Y-125532
X058984Y-130612
X058984Y-135692
X058984Y-140772
X058984Y-145852
X064064Y-095052
X064064Y-100132
X064064Y-105212
X064064Y-130612
X064064Y-135692
X064064Y-140772
T03
X024130Y-100965
X021590Y-100965
X020320Y-114935
X045720Y-097155
X053340Y-098425
X058420Y-107950
X031115Y-100965
T04
X040348Y-135255
X040348Y-132715
X040348Y-137795
T05
X008890Y-127000
X011430Y-127000
X013970Y-127000
X052070Y-127000
X054610Y-127000
X057150Y-127000
X057150Y-109220
X054610Y-109220
X052070Y-109220
X049530Y-109220
X046990Y-109220
X044450Y-109220
X041910Y-109220
X039370Y-109220
X036830Y-109220
X034290Y-109220
X031750Y-109220
X029210Y-109220
X026670Y-109220
X024130Y-109220
X021590Y-109220
X019050Y-109220
X016510Y-109220
X013970Y-109220
X011430Y-109220
X008890Y-109220
X056920Y-120650
X056920Y-118110
X056920Y-115570
T06
X061595Y-099060
X044450Y-093345
X055245Y-132080
X049530Y-139700
X029210Y-104775
X066675Y-120650
X061595Y-112395
T07
X016510Y-127000
X019050Y-127000
X021590Y-127000
X024130Y-127000
X026670Y-127000
X029210Y-127000
X031750Y-127000
X034290Y-127000
X036830Y-127000
X039370Y-127000
X041910Y-127000
X044450Y-127000
X046990Y-127000
X049530Y-127000
T08
X063500Y-120650
X060960Y-120650
X063500Y-118110
X060960Y-118110
X063500Y-115570
X060960Y-115570
M30
