M48
METRIC,LZ,000.000
;FILE_FORMAT=3:3
;TYPE=PLATED
;Layer: PTH_Through
;EasyEDA v6.5.5, 2022-07-05 02:26:19
;677f26d251d643acb481b5c6e2656a11,9a5be75d700b4a6385dc1106f27949ae,10
;Gerber Generator version 0.2
;Holesize 1 = 0.310 mm
T01C0.310
;Holesize 2 = 0.411 mm
T02C0.411
;Holesize 3 = 0.762 mm
T03C0.762
;Holesize 4 = 0.800 mm
T04C0.800
;Holesize 5 = 0.889 mm
T05C0.889
;Holesize 6 = 1.101 mm
T06C1.101
%
G05
G90
T01
X014986Y-012700
X020066Y-012446
X058420Y-048768
X024892Y-006350
X020574Y-004572
X028194Y-009652
X037338Y-010160
X039878Y-003810
X053086Y-009398
X058674Y-007112
X024638Y-003048
X035560Y-005334
X057912Y-013970
X052832Y-017526
X056896Y-019812
X054102Y-025146
X021590Y-010414
X022860Y-018796
X042418Y-019116
X051915Y-019116
X051054Y-041656
X022606Y-024638
T02
X007366Y-018034
X025146Y-013208
X032766Y-012954
X045466Y-012954
X045466Y-032258
X032766Y-032258
X020066Y-032258
X007366Y-032258
X037084Y-043434
X039116Y-048768
X058166Y-033020
X012446Y-027432
X012446Y-031242
X049276Y-019812
X049276Y-017526
T03
X058420Y-027178
X055920Y-027178
X060920Y-027178
X045466Y-040132
X042966Y-040132
X047966Y-040132
X055372Y-040132
X052872Y-040132
X057872Y-040132
T04
X046776Y-003556
X049276Y-003556
X051776Y-003556
T05
X002286Y-011176
X004826Y-011176
X007366Y-011176
T06
X020066Y-047752
X017526Y-047752
X014986Y-047752
X012446Y-047752
X067564Y-029210
X067564Y-026670
X067564Y-024130
X067564Y-021590
M30
