G04 Layer: TopPasteMaskLayer*
G04 EasyEDA v6.5.22, 2023-04-19 13:10:23*
G04 d9ab40036a7b475d96d55dd14afd0624,9a5be75d700b4a6385dc1106f27949ae,10*
G04 Gerber Generator version 0.2*
G04 Scale: 100 percent, Rotated: No, Reflected: No *
G04 Dimensions in millimeters *
G04 leading zeros omitted , absolute positions ,4 integer and 5 decimal *
%FSLAX45Y45*%
%MOMM*%

%AMMACRO1*21,1,$1,$2,0,0,$3*%
%ADD10R,0.8000X0.9000*%
%ADD11R,0.9000X0.8000*%
%ADD12R,3.5000X1.6000*%
%ADD13R,0.5500X1.0000*%
%ADD14C,1.0000*%
%ADD15R,0.5320X1.0375*%
%ADD16R,1.0700X0.6000*%
%ADD17R,0.6000X1.0700*%
%ADD18R,0.9500X1.1500*%
%ADD19R,0.8000X0.8000*%
%ADD20R,1.0720X0.5320*%
%ADD21MACRO1,0.532X1.0375X90.0000*%
%ADD22R,1.6000X3.2000*%
%ADD23R,3.2000X1.6000*%
%ADD24R,1.0000X0.5500*%
%ADD25R,1.0000X0.6000*%
%ADD26R,1.0000X0.8000*%
%ADD27R,0.0130X0.8000*%

%LPD*%
G36*
X5446369Y-923086D02*
G01*
X5441391Y-928116D01*
X5441391Y-1008075D01*
X5446369Y-1013104D01*
X5469178Y-1013104D01*
X5469178Y-976071D01*
X5502198Y-976071D01*
X5502198Y-1013104D01*
X5526379Y-1013104D01*
X5531408Y-1008075D01*
X5531408Y-928116D01*
X5526379Y-923086D01*
G37*
G36*
X5446369Y-1083106D02*
G01*
X5441391Y-1088085D01*
X5441391Y-1167079D01*
X5446369Y-1172108D01*
X5526379Y-1172108D01*
X5531408Y-1167079D01*
X5531408Y-1088085D01*
X5526379Y-1083106D01*
X5502198Y-1083106D01*
X5502198Y-1121105D01*
X5469178Y-1121105D01*
X5469178Y-1083106D01*
G37*
G36*
X4713071Y-469188D02*
G01*
X4708093Y-474218D01*
X4708093Y-496976D01*
X4745075Y-496976D01*
X4745075Y-529996D01*
X4708093Y-529996D01*
X4708093Y-554177D01*
X4713071Y-559206D01*
X4793081Y-559206D01*
X4798110Y-554177D01*
X4798110Y-474218D01*
X4793081Y-469188D01*
G37*
G36*
X4554118Y-469188D02*
G01*
X4549089Y-474218D01*
X4549089Y-554177D01*
X4554118Y-559206D01*
X4633112Y-559206D01*
X4638090Y-554177D01*
X4638090Y-529996D01*
X4600092Y-529996D01*
X4600092Y-496976D01*
X4638090Y-496976D01*
X4638090Y-474218D01*
X4633112Y-469188D01*
G37*
G36*
X4992471Y-469188D02*
G01*
X4987493Y-474218D01*
X4987493Y-496976D01*
X5024475Y-496976D01*
X5024475Y-529996D01*
X4987493Y-529996D01*
X4987493Y-554177D01*
X4992471Y-559206D01*
X5072481Y-559206D01*
X5077510Y-554177D01*
X5077510Y-474218D01*
X5072481Y-469188D01*
G37*
G36*
X4833518Y-469188D02*
G01*
X4828489Y-474218D01*
X4828489Y-554177D01*
X4833518Y-559206D01*
X4912512Y-559206D01*
X4917490Y-554177D01*
X4917490Y-529996D01*
X4879492Y-529996D01*
X4879492Y-496976D01*
X4917490Y-496976D01*
X4917490Y-474218D01*
X4912512Y-469188D01*
G37*
G36*
X6030569Y-1761693D02*
G01*
X6025591Y-1766722D01*
X6025591Y-1846681D01*
X6030569Y-1851710D01*
X6110579Y-1851710D01*
X6115608Y-1846681D01*
X6115608Y-1766722D01*
X6110579Y-1761693D01*
X6087770Y-1761693D01*
X6087770Y-1798675D01*
X6054801Y-1798675D01*
X6054801Y-1761693D01*
G37*
G36*
X6030569Y-1602689D02*
G01*
X6025591Y-1607718D01*
X6025591Y-1686712D01*
X6030569Y-1691690D01*
X6054801Y-1691690D01*
X6054801Y-1653692D01*
X6087770Y-1653692D01*
X6087770Y-1691690D01*
X6110579Y-1691690D01*
X6115608Y-1686712D01*
X6115608Y-1607718D01*
X6110579Y-1602689D01*
G37*
G36*
X6360769Y-1602689D02*
G01*
X6355791Y-1607718D01*
X6355791Y-1687677D01*
X6360769Y-1692706D01*
X6383578Y-1692706D01*
X6383578Y-1655673D01*
X6416598Y-1655673D01*
X6416598Y-1692706D01*
X6440779Y-1692706D01*
X6445808Y-1687677D01*
X6445808Y-1607718D01*
X6440779Y-1602689D01*
G37*
G36*
X6360769Y-1762709D02*
G01*
X6355791Y-1767687D01*
X6355791Y-1846681D01*
X6360769Y-1851710D01*
X6440779Y-1851710D01*
X6445808Y-1846681D01*
X6445808Y-1767687D01*
X6440779Y-1762709D01*
X6416598Y-1762709D01*
X6416598Y-1800707D01*
X6383578Y-1800707D01*
X6383578Y-1762709D01*
G37*
G36*
X5271871Y-469188D02*
G01*
X5266893Y-474218D01*
X5266893Y-496976D01*
X5303875Y-496976D01*
X5303875Y-529996D01*
X5266893Y-529996D01*
X5266893Y-554177D01*
X5271871Y-559206D01*
X5351881Y-559206D01*
X5356910Y-554177D01*
X5356910Y-474218D01*
X5351881Y-469188D01*
G37*
G36*
X5112918Y-469188D02*
G01*
X5107889Y-474218D01*
X5107889Y-554177D01*
X5112918Y-559206D01*
X5191912Y-559206D01*
X5196890Y-554177D01*
X5196890Y-529996D01*
X5158892Y-529996D01*
X5158892Y-496976D01*
X5196890Y-496976D01*
X5196890Y-474218D01*
X5191912Y-469188D01*
G37*
G36*
X6513169Y-1602689D02*
G01*
X6508191Y-1607718D01*
X6508191Y-1687677D01*
X6513169Y-1692706D01*
X6535978Y-1692706D01*
X6535978Y-1655673D01*
X6568998Y-1655673D01*
X6568998Y-1692706D01*
X6593179Y-1692706D01*
X6598208Y-1687677D01*
X6598208Y-1607718D01*
X6593179Y-1602689D01*
G37*
G36*
X6513169Y-1762709D02*
G01*
X6508191Y-1767687D01*
X6508191Y-1846681D01*
X6513169Y-1851710D01*
X6593179Y-1851710D01*
X6598208Y-1846681D01*
X6598208Y-1767687D01*
X6593179Y-1762709D01*
X6568998Y-1762709D01*
X6568998Y-1800707D01*
X6535978Y-1800707D01*
X6535978Y-1762709D01*
G37*
G36*
X2731922Y-437591D02*
G01*
X2726893Y-442620D01*
X2726893Y-465378D01*
X2763875Y-465378D01*
X2763875Y-498398D01*
X2726893Y-498398D01*
X2726893Y-522579D01*
X2731922Y-527608D01*
X2811881Y-527608D01*
X2816910Y-522579D01*
X2816910Y-442620D01*
X2811881Y-437591D01*
G37*
G36*
X2572918Y-437591D02*
G01*
X2567889Y-442620D01*
X2567889Y-522579D01*
X2572918Y-527608D01*
X2651912Y-527608D01*
X2656890Y-522579D01*
X2656890Y-498398D01*
X2618892Y-498398D01*
X2618892Y-465378D01*
X2656890Y-465378D01*
X2656890Y-442620D01*
X2651912Y-437591D01*
G37*
G36*
X4865522Y-4018991D02*
G01*
X4860493Y-4024020D01*
X4860493Y-4046778D01*
X4897475Y-4046778D01*
X4897475Y-4079798D01*
X4860493Y-4079798D01*
X4860493Y-4103979D01*
X4865522Y-4109008D01*
X4945481Y-4109008D01*
X4950510Y-4103979D01*
X4950510Y-4024020D01*
X4945481Y-4018991D01*
G37*
G36*
X4706518Y-4018991D02*
G01*
X4701489Y-4024020D01*
X4701489Y-4103979D01*
X4706518Y-4109008D01*
X4785512Y-4109008D01*
X4790490Y-4103979D01*
X4790490Y-4079798D01*
X4752492Y-4079798D01*
X4752492Y-4046778D01*
X4790490Y-4046778D01*
X4790490Y-4024020D01*
X4785512Y-4018991D01*
G37*
G36*
X899820Y-669493D02*
G01*
X894791Y-674522D01*
X894791Y-754481D01*
X899820Y-759510D01*
X979779Y-759510D01*
X984808Y-754481D01*
X984808Y-674522D01*
X979779Y-669493D01*
X957021Y-669493D01*
X957021Y-706526D01*
X924001Y-706526D01*
X924001Y-669493D01*
G37*
G36*
X899820Y-510489D02*
G01*
X894791Y-515518D01*
X894791Y-594512D01*
X899820Y-599490D01*
X924001Y-599490D01*
X924001Y-561492D01*
X957021Y-561492D01*
X957021Y-599490D01*
X979779Y-599490D01*
X984808Y-594512D01*
X984808Y-515518D01*
X979779Y-510489D01*
G37*
G36*
X5138267Y-1078788D02*
G01*
X5133289Y-1083767D01*
X5133289Y-1163777D01*
X5138267Y-1168806D01*
X5218277Y-1168806D01*
X5223306Y-1163777D01*
X5223306Y-1140968D01*
X5186273Y-1140968D01*
X5186273Y-1107998D01*
X5223306Y-1107998D01*
X5223306Y-1083767D01*
X5218277Y-1078788D01*
G37*
G36*
X5298287Y-1078788D02*
G01*
X5293309Y-1083767D01*
X5293309Y-1107998D01*
X5331307Y-1107998D01*
X5331307Y-1140968D01*
X5293309Y-1140968D01*
X5293309Y-1163777D01*
X5298287Y-1168806D01*
X5377281Y-1168806D01*
X5382310Y-1163777D01*
X5382310Y-1083767D01*
X5377281Y-1078788D01*
G37*
G36*
X5344769Y-4581093D02*
G01*
X5339791Y-4586071D01*
X5339791Y-4666081D01*
X5344769Y-4671110D01*
X5424779Y-4671110D01*
X5429808Y-4666081D01*
X5429808Y-4586071D01*
X5424779Y-4581093D01*
X5401970Y-4581093D01*
X5401970Y-4618075D01*
X5369001Y-4618075D01*
X5369001Y-4581093D01*
G37*
G36*
X5344769Y-4422089D02*
G01*
X5339791Y-4427118D01*
X5339791Y-4506112D01*
X5344769Y-4511090D01*
X5369001Y-4511090D01*
X5369001Y-4473092D01*
X5401970Y-4473092D01*
X5401970Y-4511090D01*
X5424779Y-4511090D01*
X5429808Y-4506112D01*
X5429808Y-4427118D01*
X5424779Y-4422089D01*
G37*
G36*
X2623718Y-767791D02*
G01*
X2618689Y-772820D01*
X2618689Y-852779D01*
X2623718Y-857808D01*
X2703677Y-857808D01*
X2708706Y-852779D01*
X2708706Y-830021D01*
X2671673Y-830021D01*
X2671673Y-797001D01*
X2708706Y-797001D01*
X2708706Y-772820D01*
X2703677Y-767791D01*
G37*
G36*
X2783687Y-767791D02*
G01*
X2778709Y-772820D01*
X2778709Y-797001D01*
X2816707Y-797001D01*
X2816707Y-830021D01*
X2778709Y-830021D01*
X2778709Y-852779D01*
X2783687Y-857808D01*
X2862681Y-857808D01*
X2867710Y-852779D01*
X2867710Y-772820D01*
X2862681Y-767791D01*
G37*
G36*
X5852769Y-2066493D02*
G01*
X5847791Y-2071471D01*
X5847791Y-2151481D01*
X5852769Y-2156510D01*
X5932779Y-2156510D01*
X5937808Y-2151481D01*
X5937808Y-2071471D01*
X5932779Y-2066493D01*
X5909970Y-2066493D01*
X5909970Y-2103475D01*
X5877001Y-2103475D01*
X5877001Y-2066493D01*
G37*
G36*
X5852769Y-1907489D02*
G01*
X5847791Y-1912518D01*
X5847791Y-1991512D01*
X5852769Y-1996490D01*
X5877001Y-1996490D01*
X5877001Y-1958492D01*
X5909970Y-1958492D01*
X5909970Y-1996490D01*
X5932779Y-1996490D01*
X5937808Y-1991512D01*
X5937808Y-1912518D01*
X5932779Y-1907489D01*
G37*
G36*
X6157569Y-4047693D02*
G01*
X6152591Y-4052671D01*
X6152591Y-4132681D01*
X6157569Y-4137710D01*
X6237579Y-4137710D01*
X6242608Y-4132681D01*
X6242608Y-4052671D01*
X6237579Y-4047693D01*
X6214770Y-4047693D01*
X6214770Y-4084675D01*
X6181801Y-4084675D01*
X6181801Y-4047693D01*
G37*
G36*
X6157569Y-3888689D02*
G01*
X6152591Y-3893718D01*
X6152591Y-3972712D01*
X6157569Y-3977690D01*
X6181801Y-3977690D01*
X6181801Y-3939692D01*
X6214770Y-3939692D01*
X6214770Y-3977690D01*
X6237579Y-3977690D01*
X6242608Y-3972712D01*
X6242608Y-3893718D01*
X6237579Y-3888689D01*
G37*
G36*
X4065778Y-3919677D02*
G01*
X4038346Y-3949039D01*
X4038346Y-3976674D01*
X4065778Y-4006087D01*
X4116120Y-4006087D01*
X4122521Y-3999687D01*
X4122521Y-3926078D01*
X4116120Y-3919677D01*
G37*
G36*
X3909060Y-3920794D02*
G01*
X3902659Y-3927195D01*
X3902659Y-4000804D01*
X3909060Y-4007205D01*
X3959351Y-4007205D01*
X3986784Y-3977792D01*
X3986784Y-3950157D01*
X3959351Y-3920794D01*
G37*
G36*
X1230274Y-1193546D02*
G01*
X1200912Y-1220978D01*
X1200912Y-1271320D01*
X1207312Y-1277721D01*
X1280922Y-1277721D01*
X1287322Y-1271320D01*
X1287322Y-1220978D01*
X1257960Y-1193546D01*
G37*
G36*
X1206195Y-1057859D02*
G01*
X1199794Y-1064260D01*
X1199794Y-1114552D01*
X1229156Y-1141984D01*
X1256842Y-1141984D01*
X1286205Y-1114552D01*
X1286205Y-1064260D01*
X1279804Y-1057859D01*
G37*
G36*
X5653278Y-4437278D02*
G01*
X5646877Y-4443679D01*
X5646877Y-4494022D01*
X5676239Y-4521403D01*
X5703874Y-4521403D01*
X5733288Y-4494022D01*
X5733288Y-4443679D01*
X5726836Y-4437278D01*
G37*
G36*
X5677357Y-4573016D02*
G01*
X5647994Y-4600397D01*
X5647994Y-4650740D01*
X5654395Y-4657140D01*
X5728004Y-4657140D01*
X5734405Y-4650740D01*
X5734405Y-4600397D01*
X5704992Y-4573016D01*
G37*
G36*
X6473698Y-3361994D02*
G01*
X6468668Y-3366973D01*
X6469176Y-3408984D01*
X6513169Y-3408984D01*
X6513169Y-3453993D01*
X6468211Y-3453993D01*
X6468668Y-3494989D01*
X6473698Y-3500018D01*
X6588709Y-3500018D01*
X6593687Y-3494989D01*
X6593687Y-3366973D01*
X6588709Y-3361994D01*
G37*
G36*
X6258712Y-3361994D02*
G01*
X6253683Y-3366973D01*
X6253683Y-3494989D01*
X6258712Y-3500018D01*
X6373672Y-3500018D01*
X6378702Y-3494989D01*
X6378194Y-3453993D01*
X6334201Y-3453993D01*
X6334201Y-3408984D01*
X6378702Y-3408984D01*
X6378702Y-3366973D01*
X6373672Y-3361994D01*
G37*
G36*
X5930392Y-4570222D02*
G01*
X5889396Y-4570679D01*
X5884367Y-4575708D01*
X5884367Y-4690719D01*
X5889396Y-4695698D01*
X6017361Y-4695698D01*
X6022390Y-4690719D01*
X6022390Y-4575708D01*
X6017361Y-4570679D01*
X5975400Y-4571187D01*
X5975400Y-4615180D01*
X5930392Y-4615180D01*
G37*
G36*
X5889396Y-4355693D02*
G01*
X5884367Y-4360722D01*
X5884367Y-4475683D01*
X5889396Y-4480712D01*
X5930392Y-4480204D01*
X5930392Y-4436211D01*
X5975400Y-4436211D01*
X5975400Y-4480712D01*
X6017361Y-4480712D01*
X6022390Y-4475683D01*
X6022390Y-4360722D01*
X6017361Y-4355693D01*
G37*
G36*
X5131358Y-4360672D02*
G01*
X5126380Y-4365701D01*
X5126380Y-4480712D01*
X5131358Y-4485690D01*
X5173370Y-4485182D01*
X5173370Y-4441190D01*
X5218379Y-4441190D01*
X5218379Y-4486198D01*
X5259374Y-4485690D01*
X5264404Y-4480712D01*
X5264404Y-4365701D01*
X5259374Y-4360672D01*
G37*
G36*
X5131358Y-4575708D02*
G01*
X5126380Y-4580686D01*
X5126380Y-4695698D01*
X5131358Y-4700676D01*
X5259374Y-4700676D01*
X5264404Y-4695698D01*
X5264404Y-4580686D01*
X5259374Y-4575708D01*
X5218379Y-4576216D01*
X5218379Y-4620209D01*
X5173370Y-4620209D01*
X5173370Y-4575708D01*
G37*
G36*
X2627020Y-916889D02*
G01*
X2621991Y-921918D01*
X2621991Y-1001877D01*
X2627020Y-1006906D01*
X2649778Y-1006906D01*
X2649778Y-969873D01*
X2682798Y-969873D01*
X2682798Y-1006906D01*
X2706979Y-1006906D01*
X2712008Y-1001877D01*
X2712008Y-921918D01*
X2706979Y-916889D01*
G37*
G36*
X2627020Y-1076909D02*
G01*
X2621991Y-1081887D01*
X2621991Y-1160881D01*
X2627020Y-1165910D01*
X2706979Y-1165910D01*
X2712008Y-1160881D01*
X2712008Y-1081887D01*
X2706979Y-1076909D01*
X2682798Y-1076909D01*
X2682798Y-1114907D01*
X2649778Y-1114907D01*
X2649778Y-1076909D01*
G37*
G36*
X5576671Y-1428191D02*
G01*
X5571693Y-1433220D01*
X5571693Y-1455978D01*
X5608675Y-1455978D01*
X5608675Y-1488998D01*
X5571693Y-1488998D01*
X5571693Y-1513179D01*
X5576671Y-1518208D01*
X5656681Y-1518208D01*
X5661710Y-1513179D01*
X5661710Y-1433220D01*
X5656681Y-1428191D01*
G37*
G36*
X5417718Y-1428191D02*
G01*
X5412689Y-1433220D01*
X5412689Y-1513179D01*
X5417718Y-1518208D01*
X5496712Y-1518208D01*
X5501690Y-1513179D01*
X5501690Y-1488998D01*
X5463692Y-1488998D01*
X5463692Y-1455978D01*
X5501690Y-1455978D01*
X5501690Y-1433220D01*
X5496712Y-1428191D01*
G37*
D10*
G01*
X6203797Y-3632200D03*
G01*
X6343802Y-3632200D03*
D11*
G01*
X4267200Y-838098D03*
G01*
X4267200Y-698093D03*
D10*
G01*
X2356002Y-330200D03*
G01*
X2215997Y-330200D03*
G01*
X5721197Y-2286000D03*
G01*
X5861202Y-2286000D03*
G01*
X5708802Y-1727200D03*
G01*
X5568797Y-1727200D03*
G01*
X1238402Y-558800D03*
G01*
X1098397Y-558800D03*
D11*
G01*
X2463800Y-971397D03*
G01*
X2463800Y-1111402D03*
G01*
X4419600Y-698195D03*
G01*
X4419600Y-838200D03*
D12*
G01*
X4318000Y-4310379D03*
G01*
X4318000Y-4630394D03*
D13*
G01*
X4870195Y-984402D03*
G01*
X4775200Y-984402D03*
G01*
X4680204Y-984402D03*
G01*
X4680204Y-704392D03*
G01*
X4775200Y-704392D03*
G01*
X4870195Y-704392D03*
D14*
G01*
X3886200Y-1092200D03*
D15*
G01*
X5276595Y-759663D03*
G01*
X5086604Y-759663D03*
G01*
X5181600Y-979906D03*
D16*
G01*
X6074079Y-1962404D03*
G01*
X6074079Y-2152395D03*
G01*
X6321094Y-2057400D03*
D10*
G01*
X3358997Y-584200D03*
G01*
X3499002Y-584200D03*
G01*
X1098397Y-914400D03*
G01*
X1238402Y-914400D03*
G01*
X1098397Y-736600D03*
G01*
X1238402Y-736600D03*
G01*
X4069486Y-3791712D03*
G01*
X3929481Y-3791712D03*
D11*
G01*
X4253484Y-3823309D03*
G01*
X4253484Y-3963314D03*
D17*
G01*
X1505204Y-1241094D03*
G01*
X1695195Y-1241094D03*
G01*
X1600200Y-994105D03*
D18*
G01*
X4668545Y-4629785D03*
G01*
X5007025Y-4629785D03*
D13*
G01*
X2457195Y-800404D03*
G01*
X2362200Y-800404D03*
G01*
X2267204Y-800404D03*
G01*
X2267204Y-520395D03*
G01*
X2362200Y-520395D03*
G01*
X2457195Y-520395D03*
D19*
G01*
X1270355Y-333933D03*
G01*
X1269644Y-174040D03*
G01*
X5812840Y-1473555D03*
G01*
X5972733Y-1472844D03*
D20*
G01*
X4901895Y-4420006D03*
G01*
X4901895Y-4325010D03*
G01*
X4901895Y-4230014D03*
G01*
X4672075Y-4230014D03*
G01*
X4672075Y-4325010D03*
G01*
X4672075Y-4420006D03*
D21*
G01*
X3158120Y-602999D03*
G01*
X3158120Y-413000D03*
G01*
X2937869Y-508000D03*
D22*
G01*
X228600Y-3483584D03*
G01*
X482600Y-3483584D03*
G01*
X736600Y-3483584D03*
G01*
X990600Y-3483584D03*
G01*
X1244600Y-3483584D03*
G01*
X1498600Y-3483584D03*
G01*
X1752600Y-3483584D03*
G01*
X2006600Y-3483584D03*
G01*
X2260600Y-3483584D03*
G01*
X2514600Y-3483584D03*
G01*
X2768600Y-3483584D03*
G01*
X3022600Y-3483584D03*
G01*
X3276600Y-3483584D03*
G01*
X3530600Y-3483584D03*
G01*
X3784600Y-3483584D03*
G01*
X4038600Y-3483584D03*
G01*
X4292600Y-3483584D03*
G01*
X4546600Y-3483584D03*
G01*
X4800600Y-3483584D03*
G01*
X5054600Y-3483584D03*
G01*
X5054600Y-1545589D03*
G01*
X4800600Y-1545589D03*
G01*
X4546600Y-1545589D03*
G01*
X4292600Y-1545589D03*
G01*
X4038600Y-1545589D03*
G01*
X3784600Y-1545589D03*
G01*
X3530600Y-1545589D03*
G01*
X3276600Y-1545589D03*
G01*
X3022600Y-1545589D03*
G01*
X2768600Y-1545589D03*
G01*
X2514600Y-1545589D03*
G01*
X2260600Y-1545589D03*
G01*
X2006600Y-1545589D03*
G01*
X1752600Y-1545589D03*
G01*
X1498600Y-1545589D03*
G01*
X1244600Y-1545589D03*
G01*
X990600Y-1545589D03*
G01*
X736600Y-1545589D03*
G01*
X482600Y-1545589D03*
G01*
X228600Y-1545589D03*
D23*
G01*
X5111597Y-2768600D03*
G01*
X5111597Y-2514600D03*
G01*
X5111597Y-2260600D03*
D24*
G01*
X3212795Y-958595D03*
G01*
X3212795Y-863600D03*
G01*
X3212795Y-768604D03*
G01*
X3492804Y-768604D03*
G01*
X3492804Y-863600D03*
G01*
X3492804Y-958595D03*
D25*
G01*
X5717997Y-1911604D03*
G01*
X5717997Y-2101595D03*
G01*
X5457977Y-2101595D03*
G01*
X5457977Y-2006600D03*
G01*
X5457977Y-1911604D03*
D26*
G01*
X3061385Y-1022604D03*
G01*
X2831388Y-1117600D03*
G01*
X3061385Y-1212595D03*
M02*
