G04 Layer: BottomSilkscreenLayer*
G04 EasyEDA v6.5.22, 2023-04-19 13:10:23*
G04 d9ab40036a7b475d96d55dd14afd0624,9a5be75d700b4a6385dc1106f27949ae,10*
G04 Gerber Generator version 0.2*
G04 Scale: 100 percent, Rotated: No, Reflected: No *
G04 Dimensions in millimeters *
G04 leading zeros omitted , absolute positions ,4 integer and 5 decimal *
%FSLAX45Y45*%
%MOMM*%

%ADD10C,0.2500*%
%ADD11C,0.2000*%
%ADD12C,0.3000*%
%ADD13C,0.1524*%
%ADD14C,0.2540*%
%ADD15C,0.0122*%

%LPD*%
G36*
X1167384Y-3835654D02*
G01*
X1156716Y-3836162D01*
X1153464Y-3836720D01*
X1152296Y-3837381D01*
X1165098Y-3897629D01*
X1228140Y-4189577D01*
X1239520Y-4243578D01*
X1240688Y-4244340D01*
X1243939Y-4244644D01*
X1248664Y-4244492D01*
X1254455Y-4243882D01*
X1257503Y-4243222D01*
X1260297Y-4242155D01*
X1262786Y-4240580D01*
X1265072Y-4238294D01*
X1267256Y-4235145D01*
X1269390Y-4231081D01*
X1271524Y-4225899D01*
X1273708Y-4219448D01*
X1276045Y-4211675D01*
X1281277Y-4191508D01*
X1290320Y-4154220D01*
X1297076Y-4128160D01*
X1301191Y-4114495D01*
X1301648Y-4113580D01*
X1302105Y-4113885D01*
X1303782Y-4118000D01*
X1306271Y-4126229D01*
X1309471Y-4137964D01*
X1317142Y-4169460D01*
X1322476Y-4192828D01*
X1327861Y-4215028D01*
X1330147Y-4223308D01*
X1332280Y-4229912D01*
X1334312Y-4234992D01*
X1336344Y-4238802D01*
X1338427Y-4241444D01*
X1340662Y-4243070D01*
X1343152Y-4243933D01*
X1345895Y-4244086D01*
X1351026Y-4243476D01*
X1354480Y-4242206D01*
X1356055Y-4241139D01*
X1357528Y-4239717D01*
X1358900Y-4237888D01*
X1360220Y-4235500D01*
X1361490Y-4232605D01*
X1364030Y-4224731D01*
X1366621Y-4213758D01*
X1369466Y-4199077D01*
X1376324Y-4156557D01*
X1385112Y-4097629D01*
X1391208Y-4054297D01*
X1392834Y-4039717D01*
X1393596Y-4028948D01*
X1393698Y-4024833D01*
X1393545Y-4021429D01*
X1393190Y-4018737D01*
X1392631Y-4016552D01*
X1391869Y-4014876D01*
X1390904Y-4013657D01*
X1389735Y-4012742D01*
X1386890Y-4011676D01*
X1380083Y-4010609D01*
X1375562Y-4010456D01*
X1372108Y-4010710D01*
X1370228Y-4011472D01*
X1369517Y-4013708D01*
X1367028Y-4027678D01*
X1363522Y-4051808D01*
X1359306Y-4083151D01*
X1353870Y-4126433D01*
X1349908Y-4156151D01*
X1346758Y-4177842D01*
X1344574Y-4189272D01*
X1343964Y-4188409D01*
X1341424Y-4179976D01*
X1337614Y-4164177D01*
X1332941Y-4142892D01*
X1327861Y-4118051D01*
X1323390Y-4098086D01*
X1321460Y-4090670D01*
X1319580Y-4084675D01*
X1317701Y-4080001D01*
X1315770Y-4076446D01*
X1313688Y-4073906D01*
X1311402Y-4072229D01*
X1308811Y-4071213D01*
X1305864Y-4070705D01*
X1302512Y-4070553D01*
X1295247Y-4071467D01*
X1289710Y-4074210D01*
X1285798Y-4078935D01*
X1283309Y-4085691D01*
X1266240Y-4160164D01*
X1262684Y-4174185D01*
X1258874Y-4187037D01*
X1258214Y-4188358D01*
X1257655Y-4187444D01*
X1255268Y-4178757D01*
X1251204Y-4161891D01*
X1239164Y-4107789D01*
X1223467Y-4033824D01*
X1202690Y-3934104D01*
X1194612Y-3897172D01*
X1188313Y-3870858D01*
X1185621Y-3861104D01*
X1183182Y-3853332D01*
X1180896Y-3847337D01*
X1178763Y-3842816D01*
X1176680Y-3839667D01*
X1174546Y-3837584D01*
X1172311Y-3836365D01*
X1169974Y-3835806D01*
G37*
G36*
X1118717Y-3888486D02*
G01*
X1081786Y-3892702D01*
X1078280Y-4345736D01*
X2071725Y-4345736D01*
X2071624Y-4072128D01*
X2071014Y-4000449D01*
X2069998Y-3943299D01*
X2069338Y-3921861D01*
X2068626Y-3906012D01*
X2067814Y-3896461D01*
X2067204Y-3893769D01*
X2064664Y-3893362D01*
X2058060Y-3892905D01*
X2033625Y-3892143D01*
X1945589Y-3891076D01*
X1885289Y-3890822D01*
X1740560Y-3890721D01*
X1256284Y-3892702D01*
X1252067Y-3929532D01*
X2028139Y-3932986D01*
X2031695Y-4305452D01*
X1118717Y-4305452D01*
G37*
G36*
X1879295Y-4003954D02*
G01*
X1872843Y-4004411D01*
X1866595Y-4005326D01*
X1860651Y-4006748D01*
X1855012Y-4008628D01*
X1849780Y-4011066D01*
X1845005Y-4013911D01*
X1841144Y-4016806D01*
X1837537Y-4019854D01*
X1834134Y-4023156D01*
X1830984Y-4026611D01*
X1827987Y-4030319D01*
X1822754Y-4038447D01*
X1820418Y-4042918D01*
X1818284Y-4047642D01*
X1814677Y-4057954D01*
X1813102Y-4063593D01*
X1810613Y-4075785D01*
X1808784Y-4089400D01*
X1807667Y-4104436D01*
X1807159Y-4121099D01*
X1807159Y-4128973D01*
X1839112Y-4128973D01*
X1839315Y-4114850D01*
X1840026Y-4100931D01*
X1841347Y-4087672D01*
X1843176Y-4075429D01*
X1845614Y-4064558D01*
X1848561Y-4055465D01*
X1850237Y-4051655D01*
X1852117Y-4048455D01*
X1855317Y-4044086D01*
X1858822Y-4040327D01*
X1862582Y-4037126D01*
X1866544Y-4034485D01*
X1870710Y-4032402D01*
X1874977Y-4030929D01*
X1879346Y-4030065D01*
X1883714Y-4029710D01*
X1888134Y-4029964D01*
X1892452Y-4030827D01*
X1896719Y-4032250D01*
X1900885Y-4034231D01*
X1904847Y-4036822D01*
X1908556Y-4039971D01*
X1912061Y-4043679D01*
X1915261Y-4047998D01*
X1917242Y-4051604D01*
X1919071Y-4055872D01*
X1920748Y-4060850D01*
X1922221Y-4066387D01*
X1924710Y-4078986D01*
X1926488Y-4093159D01*
X1927555Y-4108348D01*
X1927910Y-4124096D01*
X1927606Y-4139844D01*
X1926589Y-4155033D01*
X1924862Y-4169156D01*
X1922475Y-4181754D01*
X1921002Y-4187291D01*
X1919376Y-4192219D01*
X1917547Y-4196486D01*
X1915566Y-4200042D01*
X1911553Y-4205274D01*
X1907082Y-4209592D01*
X1902155Y-4213047D01*
X1896872Y-4215638D01*
X1891334Y-4217365D01*
X1885645Y-4218178D01*
X1879904Y-4218127D01*
X1874113Y-4217111D01*
X1868474Y-4215231D01*
X1862988Y-4212437D01*
X1857806Y-4208729D01*
X1852980Y-4204106D01*
X1851101Y-4201617D01*
X1849374Y-4198518D01*
X1847799Y-4194860D01*
X1846325Y-4190644D01*
X1843786Y-4180738D01*
X1841804Y-4169257D01*
X1840382Y-4156557D01*
X1839468Y-4142994D01*
X1839112Y-4128973D01*
X1807159Y-4128973D01*
X1807362Y-4138828D01*
X1808327Y-4155135D01*
X1810105Y-4169968D01*
X1811274Y-4176877D01*
X1814271Y-4189628D01*
X1816049Y-4195470D01*
X1820265Y-4206138D01*
X1822704Y-4210964D01*
X1825345Y-4215434D01*
X1828241Y-4219600D01*
X1831289Y-4223461D01*
X1834591Y-4226966D01*
X1838147Y-4230166D01*
X1841855Y-4233011D01*
X1845868Y-4235602D01*
X1850034Y-4237837D01*
X1854454Y-4239768D01*
X1859127Y-4241393D01*
X1864055Y-4242714D01*
X1869186Y-4243781D01*
X1874520Y-4244492D01*
X1880158Y-4244949D01*
X1891233Y-4244949D01*
X1896211Y-4244492D01*
X1901037Y-4243781D01*
X1905660Y-4242765D01*
X1910080Y-4241444D01*
X1914296Y-4239818D01*
X1918360Y-4237888D01*
X1922170Y-4235704D01*
X1925828Y-4233214D01*
X1929231Y-4230370D01*
X1932482Y-4227271D01*
X1935581Y-4223867D01*
X1938426Y-4220159D01*
X1941118Y-4216095D01*
X1943607Y-4211777D01*
X1945893Y-4207154D01*
X1949907Y-4196943D01*
X1953209Y-4185462D01*
X1954580Y-4179265D01*
X1955749Y-4172762D01*
X1957527Y-4158742D01*
X1958644Y-4143451D01*
X1959000Y-4126890D01*
X1958593Y-4108653D01*
X1958086Y-4100118D01*
X1956409Y-4084167D01*
X1953971Y-4069740D01*
X1952396Y-4063085D01*
X1948688Y-4050893D01*
X1946503Y-4045356D01*
X1944116Y-4040225D01*
X1941525Y-4035399D01*
X1938680Y-4030979D01*
X1935683Y-4026915D01*
X1932432Y-4023207D01*
X1928977Y-4019854D01*
X1925320Y-4016908D01*
X1921459Y-4014266D01*
X1917395Y-4011980D01*
X1911451Y-4009390D01*
X1905254Y-4007307D01*
X1898853Y-4005681D01*
X1892350Y-4004614D01*
X1885797Y-4004056D01*
G37*
G36*
X1679143Y-4006240D02*
G01*
X1665579Y-4006850D01*
X1653133Y-4008272D01*
X1647647Y-4009288D01*
X1642770Y-4010558D01*
X1638604Y-4011980D01*
X1635353Y-4013606D01*
X1632813Y-4016298D01*
X1630730Y-4020515D01*
X1629308Y-4025747D01*
X1628800Y-4031437D01*
X1629359Y-4037787D01*
X1631289Y-4041190D01*
X1634896Y-4041901D01*
X1640535Y-4040124D01*
X1647952Y-4037228D01*
X1655368Y-4034891D01*
X1662684Y-4033012D01*
X1669846Y-4031742D01*
X1676857Y-4030929D01*
X1683664Y-4030675D01*
X1690217Y-4030878D01*
X1696466Y-4031640D01*
X1702307Y-4032808D01*
X1707794Y-4034536D01*
X1712823Y-4036720D01*
X1717344Y-4039362D01*
X1721357Y-4042460D01*
X1724761Y-4045965D01*
X1727555Y-4049979D01*
X1729689Y-4054449D01*
X1731314Y-4059224D01*
X1732381Y-4063695D01*
X1732940Y-4068013D01*
X1732889Y-4072026D01*
X1732330Y-4075836D01*
X1731162Y-4079443D01*
X1729384Y-4082897D01*
X1727047Y-4086098D01*
X1724101Y-4089196D01*
X1720494Y-4092143D01*
X1716278Y-4094937D01*
X1711401Y-4097629D01*
X1705864Y-4100169D01*
X1699666Y-4102658D01*
X1692757Y-4105046D01*
X1676501Y-4110075D01*
X1668424Y-4112971D01*
X1660906Y-4116019D01*
X1654048Y-4119270D01*
X1647748Y-4122674D01*
X1642008Y-4126331D01*
X1636877Y-4130141D01*
X1632305Y-4134154D01*
X1628292Y-4138422D01*
X1624838Y-4142892D01*
X1621891Y-4147616D01*
X1619554Y-4152544D01*
X1617726Y-4157726D01*
X1616405Y-4163161D01*
X1615643Y-4168800D01*
X1615389Y-4174744D01*
X1615490Y-4179874D01*
X1616557Y-4190492D01*
X1618437Y-4200550D01*
X1619605Y-4204970D01*
X1620875Y-4208780D01*
X1622298Y-4211878D01*
X1624533Y-4215536D01*
X1627327Y-4218990D01*
X1630578Y-4222242D01*
X1634236Y-4225290D01*
X1638249Y-4228134D01*
X1642668Y-4230776D01*
X1647393Y-4233164D01*
X1652371Y-4235348D01*
X1657604Y-4237329D01*
X1663090Y-4239107D01*
X1674418Y-4241952D01*
X1686204Y-4243882D01*
X1698091Y-4244898D01*
X1709724Y-4245051D01*
X1715414Y-4244746D01*
X1726285Y-4243425D01*
X1731365Y-4242409D01*
X1736242Y-4241139D01*
X1740763Y-4239666D01*
X1744980Y-4237939D01*
X1748789Y-4235907D01*
X1752244Y-4233672D01*
X1755190Y-4231182D01*
X1757680Y-4228439D01*
X1759661Y-4225442D01*
X1761083Y-4222191D01*
X1761947Y-4218686D01*
X1762607Y-4210558D01*
X1761083Y-4206494D01*
X1756664Y-4205833D01*
X1748485Y-4207916D01*
X1740814Y-4210253D01*
X1726184Y-4213910D01*
X1719173Y-4215282D01*
X1706016Y-4217060D01*
X1699768Y-4217466D01*
X1693875Y-4217568D01*
X1688236Y-4217365D01*
X1682902Y-4216806D01*
X1677873Y-4215993D01*
X1673148Y-4214876D01*
X1668729Y-4213402D01*
X1664665Y-4211675D01*
X1660956Y-4209592D01*
X1657553Y-4207256D01*
X1654556Y-4204614D01*
X1651914Y-4201617D01*
X1649628Y-4198366D01*
X1647748Y-4194810D01*
X1645869Y-4190034D01*
X1644751Y-4185361D01*
X1644294Y-4180840D01*
X1644548Y-4176420D01*
X1645462Y-4172102D01*
X1647037Y-4167886D01*
X1649323Y-4163872D01*
X1652270Y-4159961D01*
X1655876Y-4156201D01*
X1660143Y-4152595D01*
X1665071Y-4149191D01*
X1670659Y-4145889D01*
X1676857Y-4142790D01*
X1683715Y-4139895D01*
X1691233Y-4137151D01*
X1707083Y-4132173D01*
X1714855Y-4129328D01*
X1722424Y-4126280D01*
X1729587Y-4123080D01*
X1736089Y-4119778D01*
X1741779Y-4116527D01*
X1746453Y-4113428D01*
X1749856Y-4110583D01*
X1753412Y-4106519D01*
X1756359Y-4102049D01*
X1758746Y-4097223D01*
X1760626Y-4092143D01*
X1761947Y-4086758D01*
X1762709Y-4081170D01*
X1763014Y-4075480D01*
X1762810Y-4069689D01*
X1762099Y-4063847D01*
X1760982Y-4058005D01*
X1759356Y-4052265D01*
X1757273Y-4046626D01*
X1754784Y-4041190D01*
X1751838Y-4035958D01*
X1748536Y-4031030D01*
X1744827Y-4026408D01*
X1740712Y-4022191D01*
X1736242Y-4018432D01*
X1731416Y-4015130D01*
X1726285Y-4012437D01*
X1722221Y-4010914D01*
X1717395Y-4009593D01*
X1711960Y-4008475D01*
X1699615Y-4006951D01*
X1686052Y-4006240D01*
G37*
G36*
X1420723Y-4010151D02*
G01*
X1420723Y-4246016D01*
X1439113Y-4243273D01*
X1441856Y-4242511D01*
X1444193Y-4241292D01*
X1446123Y-4239514D01*
X1447698Y-4237075D01*
X1448968Y-4233722D01*
X1449984Y-4229354D01*
X1450797Y-4223766D01*
X1451457Y-4216806D01*
X1452422Y-4198264D01*
X1454810Y-4130954D01*
X1541526Y-4130954D01*
X1541576Y-4200194D01*
X1541881Y-4219143D01*
X1542288Y-4226204D01*
X1542846Y-4231843D01*
X1543608Y-4236262D01*
X1544675Y-4239564D01*
X1545996Y-4241952D01*
X1547622Y-4243527D01*
X1549654Y-4244492D01*
X1552092Y-4244949D01*
X1558493Y-4244848D01*
X1559966Y-4244441D01*
X1561338Y-4243679D01*
X1562506Y-4242612D01*
X1563573Y-4241038D01*
X1564487Y-4238955D01*
X1565960Y-4232859D01*
X1566976Y-4223715D01*
X1567688Y-4210812D01*
X1568094Y-4193641D01*
X1568399Y-4143756D01*
X1568246Y-4072026D01*
X1567942Y-4052417D01*
X1567383Y-4037482D01*
X1566519Y-4026509D01*
X1565960Y-4022394D01*
X1564487Y-4016298D01*
X1563573Y-4014165D01*
X1562506Y-4012641D01*
X1561338Y-4011523D01*
X1559966Y-4010812D01*
X1556816Y-4010202D01*
X1554988Y-4010151D01*
X1550924Y-4010456D01*
X1547723Y-4011523D01*
X1545386Y-4013809D01*
X1543710Y-4017721D01*
X1542592Y-4023614D01*
X1541932Y-4031894D01*
X1541627Y-4042918D01*
X1541526Y-4104132D01*
X1454302Y-4104132D01*
X1454251Y-4042054D01*
X1453946Y-4030573D01*
X1453286Y-4022242D01*
X1452016Y-4016552D01*
X1449984Y-4012996D01*
X1446987Y-4011117D01*
X1442923Y-4010304D01*
G37*
G36*
X1863140Y-4459833D02*
G01*
X1849221Y-4459935D01*
X1837740Y-4460290D01*
X1828546Y-4460849D01*
X1821484Y-4461713D01*
X1816354Y-4462830D01*
X1813153Y-4464304D01*
X1811578Y-4466082D01*
X1811629Y-4468215D01*
X1814372Y-4471670D01*
X1819808Y-4474768D01*
X1827174Y-4477258D01*
X1835657Y-4478731D01*
X1856993Y-4480814D01*
X1856993Y-4556302D01*
X1857400Y-4575911D01*
X1858264Y-4590034D01*
X1858924Y-4595266D01*
X1859737Y-4599432D01*
X1860753Y-4602581D01*
X1861972Y-4604867D01*
X1863445Y-4606391D01*
X1865122Y-4607255D01*
X1867052Y-4607509D01*
X1868982Y-4607204D01*
X1870659Y-4606391D01*
X1872081Y-4604867D01*
X1873300Y-4602581D01*
X1874316Y-4599381D01*
X1875180Y-4595164D01*
X1875840Y-4589932D01*
X1876704Y-4575708D01*
X1877060Y-4555947D01*
X1877110Y-4479950D01*
X1897227Y-4479950D01*
X1906066Y-4479340D01*
X1912366Y-4477461D01*
X1916125Y-4474311D01*
X1917395Y-4469892D01*
X1916836Y-4467148D01*
X1915058Y-4464913D01*
X1911756Y-4463135D01*
X1906676Y-4461814D01*
X1899513Y-4460900D01*
X1890064Y-4460290D01*
X1878025Y-4459935D01*
G37*
G36*
X1118158Y-4459833D02*
G01*
X1107948Y-4459935D01*
X1099413Y-4460290D01*
X1092555Y-4460900D01*
X1087272Y-4461764D01*
X1083462Y-4462881D01*
X1081024Y-4464354D01*
X1079957Y-4466132D01*
X1080109Y-4468215D01*
X1083360Y-4471670D01*
X1090269Y-4474768D01*
X1099769Y-4477207D01*
X1110843Y-4478680D01*
X1119530Y-4479391D01*
X1126236Y-4480306D01*
X1131163Y-4481576D01*
X1134618Y-4483404D01*
X1136853Y-4486046D01*
X1138123Y-4489602D01*
X1138732Y-4494377D01*
X1138732Y-4506366D01*
X1138224Y-4510938D01*
X1137158Y-4514392D01*
X1135481Y-4516932D01*
X1132941Y-4518609D01*
X1129385Y-4519625D01*
X1124712Y-4520082D01*
X1118717Y-4520234D01*
X1113028Y-4520641D01*
X1107338Y-4521860D01*
X1101801Y-4523740D01*
X1096416Y-4526229D01*
X1091387Y-4529277D01*
X1086713Y-4532833D01*
X1082497Y-4536744D01*
X1078890Y-4541012D01*
X1075893Y-4545533D01*
X1073658Y-4550206D01*
X1072235Y-4554982D01*
X1071727Y-4559757D01*
X1072184Y-4565599D01*
X1073556Y-4571187D01*
X1075740Y-4576470D01*
X1078687Y-4581448D01*
X1082497Y-4586071D01*
X1086967Y-4590237D01*
X1092200Y-4594047D01*
X1098042Y-4597400D01*
X1104544Y-4600244D01*
X1111605Y-4602632D01*
X1119225Y-4604410D01*
X1127353Y-4605680D01*
X1136142Y-4606544D01*
X1143203Y-4607001D01*
X1148689Y-4607001D01*
X1152855Y-4606493D01*
X1155801Y-4605426D01*
X1157681Y-4603800D01*
X1158697Y-4601565D01*
X1159002Y-4598670D01*
X1157427Y-4593742D01*
X1152550Y-4590084D01*
X1143914Y-4587595D01*
X1124864Y-4585360D01*
X1119124Y-4584344D01*
X1113942Y-4582972D01*
X1109319Y-4581347D01*
X1105306Y-4579416D01*
X1101801Y-4577283D01*
X1098854Y-4574946D01*
X1096518Y-4572457D01*
X1094689Y-4569866D01*
X1093419Y-4567224D01*
X1092708Y-4564481D01*
X1092504Y-4561738D01*
X1092911Y-4559046D01*
X1093825Y-4556353D01*
X1095298Y-4553813D01*
X1097330Y-4551375D01*
X1099921Y-4549038D01*
X1103020Y-4546955D01*
X1106678Y-4545076D01*
X1110843Y-4543501D01*
X1115568Y-4542180D01*
X1120851Y-4541215D01*
X1126642Y-4540605D01*
X1132992Y-4540351D01*
X1159002Y-4540351D01*
X1159002Y-4459833D01*
G37*
G36*
X1615287Y-4460087D02*
G01*
X1609801Y-4460290D01*
X1604365Y-4461052D01*
X1598980Y-4462322D01*
X1593697Y-4464100D01*
X1588617Y-4466488D01*
X1585366Y-4468622D01*
X1582318Y-4471416D01*
X1579422Y-4474819D01*
X1576679Y-4478782D01*
X1574190Y-4483201D01*
X1571904Y-4488129D01*
X1570242Y-4492345D01*
X1592580Y-4492345D01*
X1592935Y-4489754D01*
X1595882Y-4485944D01*
X1601165Y-4482846D01*
X1608074Y-4480763D01*
X1615846Y-4479950D01*
X1621282Y-4480356D01*
X1626260Y-4481423D01*
X1630781Y-4483252D01*
X1634845Y-4485741D01*
X1638350Y-4488891D01*
X1641398Y-4492650D01*
X1643888Y-4497019D01*
X1645818Y-4501946D01*
X1647139Y-4507433D01*
X1647952Y-4513478D01*
X1648104Y-4519980D01*
X1647647Y-4526991D01*
X1645564Y-4546549D01*
X1617370Y-4523028D01*
X1611172Y-4517644D01*
X1605788Y-4512513D01*
X1601266Y-4507687D01*
X1597660Y-4503166D01*
X1594967Y-4499102D01*
X1593291Y-4495444D01*
X1592580Y-4492345D01*
X1570242Y-4492345D01*
X1568043Y-4499051D01*
X1566468Y-4504944D01*
X1565249Y-4511090D01*
X1564284Y-4517390D01*
X1563674Y-4523790D01*
X1563370Y-4530242D01*
X1563410Y-4535373D01*
X1581810Y-4535373D01*
X1581962Y-4532020D01*
X1582572Y-4529429D01*
X1583740Y-4527600D01*
X1585366Y-4526534D01*
X1587550Y-4526229D01*
X1590294Y-4526737D01*
X1593545Y-4527956D01*
X1597304Y-4529937D01*
X1601673Y-4532680D01*
X1606550Y-4536135D01*
X1611985Y-4540351D01*
X1619605Y-4546701D01*
X1625955Y-4552645D01*
X1630984Y-4558182D01*
X1634693Y-4563262D01*
X1637131Y-4567834D01*
X1638249Y-4572000D01*
X1638096Y-4575657D01*
X1636623Y-4578756D01*
X1633880Y-4581398D01*
X1629765Y-4583480D01*
X1624380Y-4585055D01*
X1617675Y-4586071D01*
X1611274Y-4586528D01*
X1606143Y-4586427D01*
X1602028Y-4585614D01*
X1598676Y-4583887D01*
X1595932Y-4581042D01*
X1593494Y-4576978D01*
X1591157Y-4571441D01*
X1586331Y-4556912D01*
X1584452Y-4550308D01*
X1583080Y-4544568D01*
X1582216Y-4539589D01*
X1581810Y-4535373D01*
X1563410Y-4535373D01*
X1563827Y-4543094D01*
X1564640Y-4549394D01*
X1565808Y-4555591D01*
X1567281Y-4561433D01*
X1569059Y-4566920D01*
X1571091Y-4572101D01*
X1573377Y-4576927D01*
X1575866Y-4581398D01*
X1578610Y-4585512D01*
X1581505Y-4589272D01*
X1584604Y-4592726D01*
X1587855Y-4595825D01*
X1591259Y-4598517D01*
X1594764Y-4600905D01*
X1598371Y-4602988D01*
X1602028Y-4604664D01*
X1605788Y-4605985D01*
X1609598Y-4607001D01*
X1613458Y-4607610D01*
X1617268Y-4607915D01*
X1621129Y-4607814D01*
X1624939Y-4607407D01*
X1628698Y-4606645D01*
X1632407Y-4605528D01*
X1636014Y-4604004D01*
X1639519Y-4602175D01*
X1642922Y-4599990D01*
X1646174Y-4597450D01*
X1649272Y-4594555D01*
X1652219Y-4591253D01*
X1654962Y-4587646D01*
X1657451Y-4583684D01*
X1659788Y-4579315D01*
X1661820Y-4574641D01*
X1663598Y-4569561D01*
X1665122Y-4564176D01*
X1666290Y-4558385D01*
X1667205Y-4552238D01*
X1668068Y-4542942D01*
X1668525Y-4534255D01*
X1668576Y-4526127D01*
X1668170Y-4518507D01*
X1667357Y-4511395D01*
X1666087Y-4504740D01*
X1664360Y-4498543D01*
X1662175Y-4492752D01*
X1659534Y-4487367D01*
X1656435Y-4482287D01*
X1652828Y-4477562D01*
X1648764Y-4473092D01*
X1644954Y-4469739D01*
X1640687Y-4466894D01*
X1636064Y-4464507D01*
X1631188Y-4462627D01*
X1626057Y-4461256D01*
X1620723Y-4460443D01*
G37*
G36*
X1366977Y-4460087D02*
G01*
X1361490Y-4460290D01*
X1356055Y-4461052D01*
X1350619Y-4462322D01*
X1345387Y-4464100D01*
X1340307Y-4466488D01*
X1337056Y-4468622D01*
X1334008Y-4471416D01*
X1331112Y-4474819D01*
X1328369Y-4478782D01*
X1325880Y-4483201D01*
X1323543Y-4488129D01*
X1321921Y-4492345D01*
X1344269Y-4492345D01*
X1344574Y-4489754D01*
X1347571Y-4485944D01*
X1352854Y-4482846D01*
X1359763Y-4480763D01*
X1367536Y-4479950D01*
X1372971Y-4480356D01*
X1377950Y-4481423D01*
X1382471Y-4483252D01*
X1386535Y-4485741D01*
X1390040Y-4488891D01*
X1393088Y-4492650D01*
X1395526Y-4497019D01*
X1397457Y-4501946D01*
X1398828Y-4507433D01*
X1399590Y-4513478D01*
X1399794Y-4519980D01*
X1399336Y-4526991D01*
X1397254Y-4546549D01*
X1369060Y-4523028D01*
X1362862Y-4517644D01*
X1357477Y-4512513D01*
X1352956Y-4507687D01*
X1349349Y-4503166D01*
X1346657Y-4499102D01*
X1344930Y-4495444D01*
X1344269Y-4492345D01*
X1321921Y-4492345D01*
X1319733Y-4499051D01*
X1318158Y-4504944D01*
X1316939Y-4511090D01*
X1315974Y-4517390D01*
X1315313Y-4523790D01*
X1315059Y-4530242D01*
X1315099Y-4535373D01*
X1333500Y-4535373D01*
X1333652Y-4532020D01*
X1334262Y-4529429D01*
X1335379Y-4527600D01*
X1337056Y-4526534D01*
X1339240Y-4526229D01*
X1341932Y-4526737D01*
X1345184Y-4527956D01*
X1348994Y-4529937D01*
X1353362Y-4532680D01*
X1358239Y-4536135D01*
X1363675Y-4540351D01*
X1371295Y-4546701D01*
X1377645Y-4552645D01*
X1382674Y-4558182D01*
X1386382Y-4563262D01*
X1388821Y-4567834D01*
X1389938Y-4572000D01*
X1389786Y-4575657D01*
X1388313Y-4578756D01*
X1385519Y-4581398D01*
X1381455Y-4583480D01*
X1376070Y-4585055D01*
X1369364Y-4586071D01*
X1362964Y-4586528D01*
X1357833Y-4586427D01*
X1353718Y-4585614D01*
X1350365Y-4583887D01*
X1347622Y-4581042D01*
X1345184Y-4576978D01*
X1342847Y-4571441D01*
X1338021Y-4556912D01*
X1336141Y-4550308D01*
X1334770Y-4544568D01*
X1333906Y-4539589D01*
X1333500Y-4535373D01*
X1315099Y-4535373D01*
X1315516Y-4543094D01*
X1316278Y-4549394D01*
X1317498Y-4555591D01*
X1318971Y-4561433D01*
X1320698Y-4566920D01*
X1322730Y-4572101D01*
X1325016Y-4576927D01*
X1327556Y-4581398D01*
X1330248Y-4585512D01*
X1333195Y-4589272D01*
X1336294Y-4592726D01*
X1339545Y-4595825D01*
X1342898Y-4598517D01*
X1346403Y-4600905D01*
X1350010Y-4602988D01*
X1353718Y-4604664D01*
X1357477Y-4605985D01*
X1361287Y-4607001D01*
X1365097Y-4607610D01*
X1368958Y-4607915D01*
X1372819Y-4607814D01*
X1376578Y-4607407D01*
X1380388Y-4606645D01*
X1384046Y-4605528D01*
X1387703Y-4604004D01*
X1391208Y-4602175D01*
X1394612Y-4599990D01*
X1397863Y-4597450D01*
X1400962Y-4594555D01*
X1403908Y-4591253D01*
X1406601Y-4587646D01*
X1409141Y-4583684D01*
X1411478Y-4579315D01*
X1413510Y-4574641D01*
X1415288Y-4569561D01*
X1416812Y-4564176D01*
X1417980Y-4558385D01*
X1418894Y-4552238D01*
X1419758Y-4542942D01*
X1420215Y-4534255D01*
X1420266Y-4526127D01*
X1419860Y-4518507D01*
X1419047Y-4511395D01*
X1417777Y-4504740D01*
X1416050Y-4498543D01*
X1413865Y-4492752D01*
X1411224Y-4487367D01*
X1408125Y-4482287D01*
X1404518Y-4477562D01*
X1400454Y-4473092D01*
X1396593Y-4469739D01*
X1392377Y-4466894D01*
X1387754Y-4464507D01*
X1382877Y-4462627D01*
X1377746Y-4461256D01*
X1372412Y-4460443D01*
G37*
G36*
X1242720Y-4460087D02*
G01*
X1238453Y-4460240D01*
X1234236Y-4460849D01*
X1230172Y-4461865D01*
X1226159Y-4463338D01*
X1222298Y-4465116D01*
X1218590Y-4467352D01*
X1215034Y-4469892D01*
X1211630Y-4472787D01*
X1208379Y-4476038D01*
X1205331Y-4479594D01*
X1202537Y-4483404D01*
X1199896Y-4487570D01*
X1197508Y-4491939D01*
X1196240Y-4494784D01*
X1217777Y-4494784D01*
X1218387Y-4491888D01*
X1220114Y-4489145D01*
X1224991Y-4484827D01*
X1230884Y-4481982D01*
X1237488Y-4480509D01*
X1244295Y-4480407D01*
X1251000Y-4481626D01*
X1257147Y-4484116D01*
X1262329Y-4487926D01*
X1266139Y-4492955D01*
X1268831Y-4499660D01*
X1271066Y-4508296D01*
X1272540Y-4517745D01*
X1273098Y-4526940D01*
X1273098Y-4547971D01*
X1234694Y-4516374D01*
X1228293Y-4510582D01*
X1223518Y-4505706D01*
X1220216Y-4501540D01*
X1218336Y-4497933D01*
X1217777Y-4494784D01*
X1196240Y-4494784D01*
X1193546Y-4501489D01*
X1191971Y-4506620D01*
X1190650Y-4511903D01*
X1189685Y-4517440D01*
X1188974Y-4523130D01*
X1188669Y-4528972D01*
X1188669Y-4534966D01*
X1189024Y-4541113D01*
X1190090Y-4549089D01*
X1212697Y-4549089D01*
X1213104Y-4540504D01*
X1214170Y-4533544D01*
X1215745Y-4528820D01*
X1217726Y-4527194D01*
X1221689Y-4528870D01*
X1228699Y-4533392D01*
X1237843Y-4540046D01*
X1248105Y-4548073D01*
X1254861Y-4553813D01*
X1260195Y-4558690D01*
X1264107Y-4562856D01*
X1266748Y-4566462D01*
X1268120Y-4569663D01*
X1268374Y-4572609D01*
X1267561Y-4575352D01*
X1265732Y-4578096D01*
X1261516Y-4581855D01*
X1256233Y-4584598D01*
X1250188Y-4586325D01*
X1243736Y-4587036D01*
X1237234Y-4586681D01*
X1231036Y-4585309D01*
X1225397Y-4582820D01*
X1220724Y-4579315D01*
X1217625Y-4574438D01*
X1215034Y-4567123D01*
X1213307Y-4558334D01*
X1212697Y-4549089D01*
X1190090Y-4549089D01*
X1190904Y-4553712D01*
X1192479Y-4560163D01*
X1194562Y-4566970D01*
X1197051Y-4573270D01*
X1199946Y-4579061D01*
X1203147Y-4584344D01*
X1206652Y-4589068D01*
X1210462Y-4593285D01*
X1214526Y-4596993D01*
X1218793Y-4600092D01*
X1223314Y-4602632D01*
X1227937Y-4604613D01*
X1232763Y-4605985D01*
X1237640Y-4606747D01*
X1242618Y-4606899D01*
X1247698Y-4606493D01*
X1252728Y-4605375D01*
X1257808Y-4603699D01*
X1262837Y-4601311D01*
X1267815Y-4598314D01*
X1272743Y-4594606D01*
X1277518Y-4590237D01*
X1284224Y-4583074D01*
X1286764Y-4579721D01*
X1288796Y-4576318D01*
X1290421Y-4572762D01*
X1291590Y-4568799D01*
X1292352Y-4564380D01*
X1292809Y-4559249D01*
X1292961Y-4553305D01*
X1292453Y-4538319D01*
X1290980Y-4516628D01*
X1289862Y-4506417D01*
X1288440Y-4497933D01*
X1286662Y-4491024D01*
X1284376Y-4485284D01*
X1281480Y-4480458D01*
X1277975Y-4476242D01*
X1273657Y-4472381D01*
X1269187Y-4469079D01*
X1264767Y-4466285D01*
X1260297Y-4464050D01*
X1255826Y-4462322D01*
X1251407Y-4461103D01*
X1247038Y-4460341D01*
G37*
G36*
X1741068Y-4460392D02*
G01*
X1735734Y-4460595D01*
X1730451Y-4461560D01*
X1725168Y-4463237D01*
X1719986Y-4465624D01*
X1714906Y-4468723D01*
X1709877Y-4472533D01*
X1704898Y-4477054D01*
X1698193Y-4484268D01*
X1695653Y-4487621D01*
X1693621Y-4491024D01*
X1692622Y-4493209D01*
X1717751Y-4493209D01*
X1718310Y-4490466D01*
X1721053Y-4486351D01*
X1725472Y-4483252D01*
X1731060Y-4481220D01*
X1737461Y-4480306D01*
X1744167Y-4480458D01*
X1750720Y-4481830D01*
X1756714Y-4484319D01*
X1761693Y-4488027D01*
X1763725Y-4490872D01*
X1765503Y-4494936D01*
X1766976Y-4499914D01*
X1768144Y-4505502D01*
X1769008Y-4511446D01*
X1769567Y-4517491D01*
X1769719Y-4523333D01*
X1769516Y-4528718D01*
X1768906Y-4533392D01*
X1767941Y-4536998D01*
X1766519Y-4539335D01*
X1764690Y-4540097D01*
X1760931Y-4538472D01*
X1754479Y-4534204D01*
X1746148Y-4527956D01*
X1736953Y-4520438D01*
X1731822Y-4515815D01*
X1727454Y-4511395D01*
X1723898Y-4507230D01*
X1721154Y-4503267D01*
X1719173Y-4499610D01*
X1718056Y-4496257D01*
X1717751Y-4493209D01*
X1692622Y-4493209D01*
X1691995Y-4494580D01*
X1690827Y-4498492D01*
X1690065Y-4502962D01*
X1689607Y-4508093D01*
X1689455Y-4513986D01*
X1689912Y-4528972D01*
X1691446Y-4548987D01*
X1710385Y-4548987D01*
X1710588Y-4540351D01*
X1712671Y-4520793D01*
X1741424Y-4544720D01*
X1749145Y-4551375D01*
X1755241Y-4556963D01*
X1759762Y-4561687D01*
X1762810Y-4565751D01*
X1764538Y-4569256D01*
X1764944Y-4572355D01*
X1764233Y-4575251D01*
X1762404Y-4578045D01*
X1757425Y-4582464D01*
X1751431Y-4585411D01*
X1744827Y-4586884D01*
X1737969Y-4586986D01*
X1731264Y-4585614D01*
X1725066Y-4582922D01*
X1719834Y-4578908D01*
X1715871Y-4573625D01*
X1713179Y-4566767D01*
X1711299Y-4558182D01*
X1710385Y-4548987D01*
X1691446Y-4548987D01*
X1692249Y-4555490D01*
X1693570Y-4563059D01*
X1695145Y-4569968D01*
X1697126Y-4576267D01*
X1699361Y-4581906D01*
X1702003Y-4586986D01*
X1704949Y-4591405D01*
X1708251Y-4595317D01*
X1711960Y-4598619D01*
X1716074Y-4601413D01*
X1720545Y-4603648D01*
X1725422Y-4605324D01*
X1730705Y-4606544D01*
X1736445Y-4607255D01*
X1742592Y-4607509D01*
X1747266Y-4607204D01*
X1751787Y-4606290D01*
X1756105Y-4604867D01*
X1760220Y-4602886D01*
X1764131Y-4600448D01*
X1767789Y-4597552D01*
X1771294Y-4594199D01*
X1774494Y-4590491D01*
X1777492Y-4586427D01*
X1780286Y-4582007D01*
X1782775Y-4577334D01*
X1785061Y-4572406D01*
X1788820Y-4561890D01*
X1790293Y-4556353D01*
X1791462Y-4550714D01*
X1792376Y-4544974D01*
X1792986Y-4539183D01*
X1793341Y-4533341D01*
X1793087Y-4521758D01*
X1792478Y-4516069D01*
X1791614Y-4510430D01*
X1790344Y-4504994D01*
X1788769Y-4499711D01*
X1786889Y-4494580D01*
X1784654Y-4489754D01*
X1782064Y-4485132D01*
X1779066Y-4480864D01*
X1775764Y-4476902D01*
X1772107Y-4473346D01*
X1768043Y-4470146D01*
X1762658Y-4466742D01*
X1757273Y-4464050D01*
X1751838Y-4462119D01*
X1746453Y-4460900D01*
G37*
G36*
X1492758Y-4460392D02*
G01*
X1487424Y-4460595D01*
X1482140Y-4461560D01*
X1476857Y-4463237D01*
X1471676Y-4465624D01*
X1466545Y-4468723D01*
X1461516Y-4472533D01*
X1456588Y-4477054D01*
X1449882Y-4484268D01*
X1447342Y-4487621D01*
X1445260Y-4491024D01*
X1444292Y-4493209D01*
X1469440Y-4493209D01*
X1469948Y-4490466D01*
X1472742Y-4486351D01*
X1477162Y-4483252D01*
X1482750Y-4481220D01*
X1489151Y-4480306D01*
X1495806Y-4480458D01*
X1502410Y-4481830D01*
X1508404Y-4484319D01*
X1513332Y-4488027D01*
X1515414Y-4490872D01*
X1517192Y-4494936D01*
X1518666Y-4499914D01*
X1519834Y-4505502D01*
X1520698Y-4511446D01*
X1521206Y-4517491D01*
X1521409Y-4523333D01*
X1521206Y-4528718D01*
X1520596Y-4533392D01*
X1519631Y-4536998D01*
X1518208Y-4539335D01*
X1516380Y-4540097D01*
X1512620Y-4538472D01*
X1506169Y-4534204D01*
X1497838Y-4527956D01*
X1488643Y-4520438D01*
X1483512Y-4515815D01*
X1479143Y-4511395D01*
X1475587Y-4507230D01*
X1472793Y-4503267D01*
X1470863Y-4499610D01*
X1469694Y-4496257D01*
X1469440Y-4493209D01*
X1444292Y-4493209D01*
X1443685Y-4494580D01*
X1442516Y-4498492D01*
X1441704Y-4502962D01*
X1441246Y-4508093D01*
X1441246Y-4520946D01*
X1442161Y-4538370D01*
X1443085Y-4548987D01*
X1462074Y-4548987D01*
X1462278Y-4540351D01*
X1464360Y-4520793D01*
X1493113Y-4544720D01*
X1500835Y-4551375D01*
X1506931Y-4556963D01*
X1511452Y-4561687D01*
X1514500Y-4565751D01*
X1516227Y-4569256D01*
X1516634Y-4572355D01*
X1515922Y-4575251D01*
X1514094Y-4578045D01*
X1509115Y-4582464D01*
X1503121Y-4585411D01*
X1496517Y-4586884D01*
X1489659Y-4586986D01*
X1482953Y-4585614D01*
X1476756Y-4582922D01*
X1471523Y-4578908D01*
X1467561Y-4573625D01*
X1464868Y-4566767D01*
X1462989Y-4558182D01*
X1462074Y-4548987D01*
X1443085Y-4548987D01*
X1443888Y-4555490D01*
X1445209Y-4563059D01*
X1446834Y-4569968D01*
X1448765Y-4576267D01*
X1451051Y-4581906D01*
X1453692Y-4586986D01*
X1456639Y-4591405D01*
X1459941Y-4595317D01*
X1463649Y-4598619D01*
X1467713Y-4601413D01*
X1472184Y-4603648D01*
X1477060Y-4605324D01*
X1482394Y-4606544D01*
X1488084Y-4607255D01*
X1494282Y-4607509D01*
X1498955Y-4607204D01*
X1503476Y-4606290D01*
X1507794Y-4604867D01*
X1511909Y-4602886D01*
X1515821Y-4600448D01*
X1519478Y-4597552D01*
X1522933Y-4594199D01*
X1526184Y-4590491D01*
X1529181Y-4586427D01*
X1531975Y-4582007D01*
X1534464Y-4577334D01*
X1536750Y-4572406D01*
X1538732Y-4567224D01*
X1540459Y-4561890D01*
X1541932Y-4556353D01*
X1543151Y-4550714D01*
X1544066Y-4544974D01*
X1544675Y-4539183D01*
X1545031Y-4533341D01*
X1544777Y-4521758D01*
X1544167Y-4516069D01*
X1543253Y-4510430D01*
X1542034Y-4504994D01*
X1540459Y-4499711D01*
X1538579Y-4494580D01*
X1536293Y-4489754D01*
X1533702Y-4485132D01*
X1530756Y-4480864D01*
X1527454Y-4476902D01*
X1523796Y-4473346D01*
X1519732Y-4470146D01*
X1514348Y-4466742D01*
X1508912Y-4464050D01*
X1503527Y-4462119D01*
X1498142Y-4460900D01*
G37*
G36*
X1992274Y-4460900D02*
G01*
X1989429Y-4461154D01*
X1986788Y-4461764D01*
X1984298Y-4462932D01*
X1981860Y-4464659D01*
X1979472Y-4466996D01*
X1977136Y-4470095D01*
X1974748Y-4473905D01*
X1972259Y-4478629D01*
X1969668Y-4484217D01*
X1964080Y-4498340D01*
X1957628Y-4516882D01*
X1948638Y-4544060D01*
X1971954Y-4544060D01*
X1972106Y-4539945D01*
X1972868Y-4534865D01*
X1974291Y-4528718D01*
X1978863Y-4512614D01*
X1981098Y-4505553D01*
X1983232Y-4499660D01*
X1985264Y-4494987D01*
X1987245Y-4491431D01*
X1989124Y-4489043D01*
X1990902Y-4487875D01*
X1992630Y-4487824D01*
X1994306Y-4488992D01*
X1995881Y-4491278D01*
X1997405Y-4494733D01*
X1998878Y-4499356D01*
X2006600Y-4531360D01*
X2008581Y-4538675D01*
X2010206Y-4546701D01*
X2008632Y-4551273D01*
X2002942Y-4553305D01*
X1991969Y-4553813D01*
X1986635Y-4553712D01*
X1982165Y-4553356D01*
X1978558Y-4552645D01*
X1975764Y-4551476D01*
X1973732Y-4549698D01*
X1972513Y-4547260D01*
X1971954Y-4544060D01*
X1948638Y-4544060D01*
X1941931Y-4565040D01*
X1937308Y-4580991D01*
X1934565Y-4592421D01*
X1933905Y-4596688D01*
X1933702Y-4600092D01*
X1933905Y-4602734D01*
X1934514Y-4604664D01*
X1935480Y-4606036D01*
X1936851Y-4606899D01*
X1938578Y-4607356D01*
X1940610Y-4607509D01*
X1944827Y-4606137D01*
X1948942Y-4602581D01*
X1952447Y-4597247D01*
X1954885Y-4590694D01*
X1956358Y-4585665D01*
X1958136Y-4581753D01*
X1960473Y-4578807D01*
X1963724Y-4576724D01*
X1968093Y-4575302D01*
X1973986Y-4574438D01*
X1981555Y-4574032D01*
X2000808Y-4574032D01*
X2008428Y-4574438D01*
X2014270Y-4575302D01*
X2018690Y-4576724D01*
X2021941Y-4578807D01*
X2024278Y-4581753D01*
X2026056Y-4585665D01*
X2027529Y-4590694D01*
X2029968Y-4597247D01*
X2033625Y-4602581D01*
X2037892Y-4606137D01*
X2042363Y-4607509D01*
X2046274Y-4606848D01*
X2049018Y-4605020D01*
X2050288Y-4602378D01*
X2049932Y-4599076D01*
X2016709Y-4500219D01*
X2010105Y-4482592D01*
X2007260Y-4476089D01*
X2004669Y-4470908D01*
X2002180Y-4466996D01*
X1999792Y-4464151D01*
X1997405Y-4462322D01*
X1994916Y-4461256D01*
G37*
G36*
X3854297Y-1764588D02*
G01*
X3854297Y-2273503D01*
X3907891Y-2273503D01*
X3907891Y-2219960D01*
X3961434Y-2219960D01*
X3961434Y-1898548D01*
X4015028Y-1898548D01*
X4015028Y-1952091D01*
X4068622Y-1952091D01*
X4068622Y-2005685D01*
X4175760Y-2005685D01*
X4175760Y-2059228D01*
X4282897Y-2059228D01*
X4282897Y-2112822D01*
X4336440Y-2112822D01*
X4336440Y-2166366D01*
X4443577Y-2166366D01*
X4443577Y-2219960D01*
X4390034Y-2219960D01*
X4390034Y-2273503D01*
X4229303Y-2273503D01*
X4229303Y-2380640D01*
X4122165Y-2380640D01*
X4122165Y-2273503D01*
X3907891Y-2273503D01*
X3907891Y-2327097D01*
X3747160Y-2327097D01*
X3747160Y-2487828D01*
X4550765Y-2487828D01*
X4550765Y-2380640D01*
X4711446Y-2380640D01*
X4711446Y-2327097D01*
X4818583Y-2327097D01*
X4818583Y-2273503D01*
X4872177Y-2273503D01*
X4872177Y-2327097D01*
X4818583Y-2327097D01*
X4818583Y-2434234D01*
X4925720Y-2434234D01*
X4925720Y-2487828D01*
X4979314Y-2487828D01*
X4979314Y-2541371D01*
X4925720Y-2541371D01*
X4925720Y-2594965D01*
X4765040Y-2594965D01*
X4765040Y-2702102D01*
X4711446Y-2702102D01*
X4711446Y-2648508D01*
X4657902Y-2648508D01*
X4657902Y-2541371D01*
X4604308Y-2541371D01*
X4604308Y-2487828D01*
X3747160Y-2487828D01*
X3747160Y-2594965D01*
X3800754Y-2594965D01*
X3800754Y-2648508D01*
X4122165Y-2648508D01*
X4122165Y-2702102D01*
X4175760Y-2702102D01*
X4175760Y-2755646D01*
X4229303Y-2755646D01*
X4229303Y-2809240D01*
X4443577Y-2809240D01*
X4443577Y-2916377D01*
X4390034Y-2916377D01*
X4390034Y-2862783D01*
X4336440Y-2862783D01*
X4336440Y-2916377D01*
X4282897Y-2916377D01*
X4282897Y-2969971D01*
X4175760Y-2969971D01*
X4175760Y-3023514D01*
X4015028Y-3023514D01*
X4015028Y-3077108D01*
X3961434Y-3077108D01*
X3961434Y-2702102D01*
X3854297Y-2702102D01*
X3854297Y-3264611D01*
X3961434Y-3264611D01*
X3961434Y-3237788D01*
X4068622Y-3237788D01*
X4068622Y-3184245D01*
X4122165Y-3184245D01*
X4122165Y-3130651D01*
X4229303Y-3130651D01*
X4229303Y-3077108D01*
X4336440Y-3077108D01*
X4336440Y-3023514D01*
X4390034Y-3023514D01*
X4390034Y-2969971D01*
X4443577Y-2969971D01*
X4443577Y-2916377D01*
X4497171Y-2916377D01*
X4497171Y-2969971D01*
X4604308Y-2969971D01*
X4604308Y-3023514D01*
X4765040Y-3023514D01*
X4765040Y-2969971D01*
X4872177Y-2969971D01*
X4872177Y-2916377D01*
X4925720Y-2916377D01*
X4925720Y-2755646D01*
X4765040Y-2755646D01*
X4765040Y-2702102D01*
X4979314Y-2702102D01*
X4979314Y-2648508D01*
X5086451Y-2648508D01*
X5086451Y-2594965D01*
X5140045Y-2594965D01*
X5140045Y-2541371D01*
X5193588Y-2541371D01*
X5193588Y-2487828D01*
X5140045Y-2487828D01*
X5140045Y-2434234D01*
X5086451Y-2434234D01*
X5086451Y-2380640D01*
X4979314Y-2380640D01*
X4979314Y-2327097D01*
X4925720Y-2327097D01*
X4925720Y-2273503D01*
X4872177Y-2273503D01*
X4872177Y-2166366D01*
X4925720Y-2166366D01*
X4925720Y-2005685D01*
X4818583Y-2005685D01*
X4818583Y-2059228D01*
X4765040Y-2059228D01*
X4765040Y-2112822D01*
X4711446Y-2112822D01*
X4711446Y-2166366D01*
X4443577Y-2166366D01*
X4443577Y-2112822D01*
X4550765Y-2112822D01*
X4550765Y-2059228D01*
X4443577Y-2059228D01*
X4443577Y-2005685D01*
X4336440Y-2005685D01*
X4336440Y-1952091D01*
X4229303Y-1952091D01*
X4229303Y-1898548D01*
X4175760Y-1898548D01*
X4175760Y-1844954D01*
X4068622Y-1844954D01*
X4068622Y-1791360D01*
X3961434Y-1791360D01*
X3961434Y-1764588D01*
G37*
G36*
X2283612Y-3791000D02*
G01*
X2283206Y-3793591D01*
X2283053Y-3808831D01*
X2402535Y-3930040D01*
X2402224Y-3947820D01*
X2417521Y-3947820D01*
X2419197Y-3948023D01*
X2420518Y-3948887D01*
X2425852Y-3954068D01*
X2437688Y-3967378D01*
X2437688Y-3974744D01*
X2417521Y-3974744D01*
X2417521Y-3947820D01*
X2402224Y-3947820D01*
X2401519Y-3988155D01*
X2437790Y-3988155D01*
X2438714Y-3990695D01*
X2455570Y-3990695D01*
X2455773Y-3989679D01*
X2456180Y-3988917D01*
X2456840Y-3988358D01*
X2457602Y-3988155D01*
X2459939Y-3990035D01*
X2473909Y-4003395D01*
X2496769Y-4026204D01*
X2560980Y-4091736D01*
X2560642Y-4092092D01*
X2578608Y-4092092D01*
X2641346Y-4026154D01*
X2659888Y-4007053D01*
X2669489Y-3997553D01*
X2670098Y-3997147D01*
X2670454Y-3997960D01*
X2670403Y-4003649D01*
X2666593Y-4044594D01*
X2659430Y-4128160D01*
X2656738Y-4154932D01*
X2655214Y-4165701D01*
X2653792Y-4167327D01*
X2578608Y-4092092D01*
X2560642Y-4092092D01*
X2493822Y-4162907D01*
X2474061Y-4184192D01*
X2471724Y-4164228D01*
X2459431Y-4034383D01*
X2455570Y-3990695D01*
X2438714Y-3990695D01*
X2439517Y-3996537D01*
X2444496Y-4046016D01*
X2451303Y-4118254D01*
X2457805Y-4193286D01*
X2457856Y-4200550D01*
X2443876Y-4215282D01*
X2476906Y-4215282D01*
X2476906Y-4199585D01*
X2540660Y-4132173D01*
X2559507Y-4112615D01*
X2569819Y-4102455D01*
X2573629Y-4105757D01*
X2596540Y-4128160D01*
X2654655Y-4186478D01*
X2647188Y-4267149D01*
X2518765Y-4268368D01*
X2517241Y-4258767D01*
X2516276Y-4254347D01*
X2513177Y-4244289D01*
X2506980Y-4230674D01*
X2494483Y-4222242D01*
X2486456Y-4218127D01*
X2483307Y-4217009D01*
X2476906Y-4215282D01*
X2443876Y-4215282D01*
X2314295Y-4351832D01*
X2319629Y-4357624D01*
X2322423Y-4359808D01*
X2323236Y-4360164D01*
X2330704Y-4353052D01*
X2348839Y-4334408D01*
X2422855Y-4256430D01*
X2423843Y-4260799D01*
X2446782Y-4260799D01*
X2447798Y-4255719D01*
X2450287Y-4250436D01*
X2453944Y-4244238D01*
X2460142Y-4240580D01*
X2465476Y-4237990D01*
X2470404Y-4237177D01*
X2475636Y-4237990D01*
X2481783Y-4240530D01*
X2488895Y-4244035D01*
X2496261Y-4259529D01*
X2493416Y-4272432D01*
X2481986Y-4283862D01*
X2466949Y-4286656D01*
X2451862Y-4277360D01*
X2449271Y-4271568D01*
X2447290Y-4265980D01*
X2446782Y-4260799D01*
X2423843Y-4260799D01*
X2426716Y-4272584D01*
X2428494Y-4277766D01*
X2430424Y-4282592D01*
X2432354Y-4286453D01*
X2436774Y-4294022D01*
X2444292Y-4299102D01*
X2447899Y-4301236D01*
X2452217Y-4303369D01*
X2456637Y-4305198D01*
X2460650Y-4306519D01*
X2469540Y-4308906D01*
X2486863Y-4306011D01*
X2499664Y-4297172D01*
X2503322Y-4294174D01*
X2506370Y-4291279D01*
X2508402Y-4288891D01*
X2511856Y-4283964D01*
X2625902Y-4283964D01*
X2625902Y-4308602D01*
X2655011Y-4308602D01*
X2655011Y-4286046D01*
X2663494Y-4273854D01*
X2667203Y-4225696D01*
X2668981Y-4206849D01*
X2669438Y-4203801D01*
X2675940Y-4209846D01*
X2711348Y-4245203D01*
X2827629Y-4363313D01*
X2837434Y-4353509D01*
X2695448Y-4209694D01*
X2670505Y-4183938D01*
X2688590Y-3976065D01*
X2750159Y-3911396D01*
X2847746Y-3808323D01*
X2847746Y-3793236D01*
X2846070Y-3793236D01*
X2844190Y-3794861D01*
X2827528Y-3811676D01*
X2775966Y-3865524D01*
X2691993Y-3954170D01*
X2691434Y-3949344D01*
X2691333Y-3946042D01*
X2691942Y-3933901D01*
X2694228Y-3908602D01*
X2713278Y-3907231D01*
X2713278Y-3891787D01*
X2695905Y-3891787D01*
X2690317Y-3878326D01*
X2679039Y-3868572D01*
X2672029Y-3863644D01*
X2669336Y-3862171D01*
X2664002Y-3859733D01*
X2664002Y-3849217D01*
X2648000Y-3849217D01*
X2640228Y-3849014D01*
X2621127Y-3847642D01*
X2592273Y-3843934D01*
X2592273Y-3838041D01*
X2514396Y-3838041D01*
X2512212Y-3846423D01*
X2501392Y-3847998D01*
X2496108Y-3848963D01*
X2482951Y-3852164D01*
X2477372Y-3853738D01*
X2576576Y-3853738D01*
X2576576Y-3860444D01*
X2529535Y-3860444D01*
X2529535Y-3853738D01*
X2477372Y-3853738D01*
X2462631Y-3858260D01*
X2439517Y-3873855D01*
X2429967Y-3867150D01*
X2415032Y-3867150D01*
X2404211Y-3877970D01*
X2401316Y-3889654D01*
X2402212Y-3891838D01*
X2448306Y-3891838D01*
X2454960Y-3881729D01*
X2463647Y-3876649D01*
X2467508Y-3874617D01*
X2476703Y-3870807D01*
X2487320Y-3867404D01*
X2498648Y-3864762D01*
X2513838Y-3862273D01*
X2513838Y-3878376D01*
X2592273Y-3878376D01*
X2592273Y-3860444D01*
X2605735Y-3861968D01*
X2614777Y-3863289D01*
X2637332Y-3867505D01*
X2635961Y-3890670D01*
X2456835Y-3891787D01*
X2664002Y-3891787D01*
X2664104Y-3882491D01*
X2664663Y-3878884D01*
X2665069Y-3878376D01*
X2666085Y-3878884D01*
X2670556Y-3882440D01*
X2680817Y-3891686D01*
X2402212Y-3891838D01*
X2406904Y-3903218D01*
X2415164Y-3907485D01*
X2678023Y-3907485D01*
X2675737Y-3938778D01*
X2674061Y-3956761D01*
X2671826Y-3975100D01*
X2570988Y-4081881D01*
X2535326Y-4046474D01*
X2516682Y-4027271D01*
X2511602Y-4021277D01*
X2511602Y-4019550D01*
X2594508Y-4019550D01*
X2594508Y-3988155D01*
X2495956Y-3988155D01*
X2495956Y-4007104D01*
X2457856Y-3969207D01*
X2457856Y-3933951D01*
X2448864Y-3931615D01*
X2448864Y-3907485D01*
X2415164Y-3907485D01*
X2420315Y-3910177D01*
X2430729Y-3908145D01*
X2431948Y-3911396D01*
X2432456Y-3913327D01*
X2433066Y-3919728D01*
X2433167Y-3932174D01*
X2422347Y-3932174D01*
X2309266Y-3816807D01*
G37*
G36*
X2467406Y-4245864D02*
G01*
X2455570Y-4255160D01*
X2455570Y-4266895D01*
X2465324Y-4277258D01*
X2475992Y-4277258D01*
X2486964Y-4266234D01*
X2486964Y-4256887D01*
X2475992Y-4245864D01*
G37*
G36*
X2334564Y-4476699D02*
G01*
X2334564Y-4590948D01*
X2800705Y-4590948D01*
X2800705Y-4476699D01*
G37*
D10*
X3656187Y-3555969D02*
G01*
X3465278Y-3555969D01*
X3656187Y-3555969D02*
G01*
X3465278Y-3428697D01*
X3656187Y-3428697D02*
G01*
X3465278Y-3428697D01*
X3592550Y-3368697D02*
G01*
X3501641Y-3368697D01*
X3474369Y-3359607D01*
X3465278Y-3341423D01*
X3465278Y-3314151D01*
X3474369Y-3295970D01*
X3501641Y-3268698D01*
X3592550Y-3268698D02*
G01*
X3465278Y-3268698D01*
X3565278Y-3099607D02*
G01*
X3583459Y-3117789D01*
X3592550Y-3135970D01*
X3592550Y-3163242D01*
X3583459Y-3181423D01*
X3565278Y-3199607D01*
X3538006Y-3208698D01*
X3519822Y-3208698D01*
X3492550Y-3199607D01*
X3474369Y-3181423D01*
X3465278Y-3163242D01*
X3465278Y-3135970D01*
X3474369Y-3117789D01*
X3492550Y-3099607D01*
X3656187Y-3039607D02*
G01*
X3465278Y-3039607D01*
X3538006Y-2979607D02*
G01*
X3538006Y-2870517D01*
X3556187Y-2870517D01*
X3574369Y-2879608D01*
X3583459Y-2888698D01*
X3592550Y-2906880D01*
X3592550Y-2934152D01*
X3583459Y-2952333D01*
X3565278Y-2970517D01*
X3538006Y-2979607D01*
X3519822Y-2979607D01*
X3492550Y-2970517D01*
X3474369Y-2952333D01*
X3465278Y-2934152D01*
X3465278Y-2906880D01*
X3474369Y-2888698D01*
X3492550Y-2870517D01*
X3592550Y-2701424D02*
G01*
X3465278Y-2701424D01*
X3565278Y-2701424D02*
G01*
X3583459Y-2719608D01*
X3592550Y-2737789D01*
X3592550Y-2765061D01*
X3583459Y-2783243D01*
X3565278Y-2801424D01*
X3538006Y-2810517D01*
X3519822Y-2810517D01*
X3492550Y-2801424D01*
X3474369Y-2783243D01*
X3465278Y-2765061D01*
X3465278Y-2737789D01*
X3474369Y-2719608D01*
X3492550Y-2701424D01*
X3592550Y-2641424D02*
G01*
X3465278Y-2641424D01*
X3538006Y-2641424D02*
G01*
X3565278Y-2632334D01*
X3583459Y-2614152D01*
X3592550Y-2595971D01*
X3592550Y-2568699D01*
X3656187Y-2508699D02*
G01*
X3465278Y-2508699D01*
X3656187Y-2508699D02*
G01*
X3656187Y-2426881D01*
X3647097Y-2399609D01*
X3638006Y-2390518D01*
X3619822Y-2381425D01*
X3592550Y-2381425D01*
X3574369Y-2390518D01*
X3565278Y-2399609D01*
X3556187Y-2426881D01*
X3556187Y-2508699D01*
X3656187Y-2321425D02*
G01*
X3465278Y-2321425D01*
X3556187Y-2321425D02*
G01*
X3583459Y-2294153D01*
X3592550Y-2275972D01*
X3592550Y-2248700D01*
X3583459Y-2230518D01*
X3556187Y-2221425D01*
X3465278Y-2221425D01*
X3592550Y-2115972D02*
G01*
X3583459Y-2134153D01*
X3565278Y-2152335D01*
X3538006Y-2161425D01*
X3519822Y-2161425D01*
X3492550Y-2152335D01*
X3474369Y-2134153D01*
X3465278Y-2115972D01*
X3465278Y-2088700D01*
X3474369Y-2070519D01*
X3492550Y-2052335D01*
X3519822Y-2043244D01*
X3538006Y-2043244D01*
X3565278Y-2052335D01*
X3583459Y-2070519D01*
X3592550Y-2088700D01*
X3592550Y-2115972D01*
X3538006Y-1983244D02*
G01*
X3538006Y-1874154D01*
X3556187Y-1874154D01*
X3574369Y-1883244D01*
X3583459Y-1892335D01*
X3592550Y-1910519D01*
X3592550Y-1937791D01*
X3583459Y-1955972D01*
X3565278Y-1974154D01*
X3538006Y-1983244D01*
X3519822Y-1983244D01*
X3492550Y-1974154D01*
X3474369Y-1955972D01*
X3465278Y-1937791D01*
X3465278Y-1910519D01*
X3474369Y-1892335D01*
X3492550Y-1874154D01*
X3592550Y-1814154D02*
G01*
X3465278Y-1814154D01*
X3556187Y-1814154D02*
G01*
X3583459Y-1786882D01*
X3592550Y-1768701D01*
X3592550Y-1741426D01*
X3583459Y-1723245D01*
X3556187Y-1714154D01*
X3465278Y-1714154D01*
X3656187Y-1654154D02*
G01*
X3647097Y-1645064D01*
X3656187Y-1635973D01*
X3665278Y-1645064D01*
X3656187Y-1654154D01*
X3592550Y-1645064D02*
G01*
X3465278Y-1645064D01*
X3592550Y-1575973D02*
G01*
X3465278Y-1475973D01*
X3592550Y-1475973D02*
G01*
X3465278Y-1575973D01*
D11*
X3575484Y-4470354D02*
G01*
X3575484Y-4464443D01*
X3569573Y-4452627D01*
X3563665Y-4446717D01*
X3551847Y-4440809D01*
X3528209Y-4440809D01*
X3516393Y-4446717D01*
X3510483Y-4452627D01*
X3504575Y-4464443D01*
X3504575Y-4476262D01*
X3510483Y-4488080D01*
X3522301Y-4505807D01*
X3581392Y-4564898D01*
X3498664Y-4564898D01*
X3424212Y-4440809D02*
G01*
X3441938Y-4446717D01*
X3453757Y-4464443D01*
X3459665Y-4493988D01*
X3459665Y-4511718D01*
X3453757Y-4541263D01*
X3441938Y-4558990D01*
X3424212Y-4564898D01*
X3412393Y-4564898D01*
X3394664Y-4558990D01*
X3382848Y-4541263D01*
X3376937Y-4511718D01*
X3376937Y-4493988D01*
X3382848Y-4464443D01*
X3394664Y-4446717D01*
X3412393Y-4440809D01*
X3424212Y-4440809D01*
X3332030Y-4470354D02*
G01*
X3332030Y-4464443D01*
X3326119Y-4452627D01*
X3320211Y-4446717D01*
X3308393Y-4440809D01*
X3284755Y-4440809D01*
X3272937Y-4446717D01*
X3267029Y-4452627D01*
X3261121Y-4464443D01*
X3261121Y-4476262D01*
X3267029Y-4488080D01*
X3278847Y-4505807D01*
X3337938Y-4564898D01*
X3255210Y-4564898D01*
X3204392Y-4440809D02*
G01*
X3139394Y-4440809D01*
X3174847Y-4488080D01*
X3157120Y-4488080D01*
X3145302Y-4493988D01*
X3139394Y-4499899D01*
X3133483Y-4517626D01*
X3133483Y-4529444D01*
X3139394Y-4547171D01*
X3151210Y-4558990D01*
X3168939Y-4564898D01*
X3186666Y-4564898D01*
X3204392Y-4558990D01*
X3210303Y-4553079D01*
X3216211Y-4541263D01*
D10*
X3046597Y-3399823D02*
G01*
X3037507Y-3418006D01*
X3019325Y-3436188D01*
X3001142Y-3445278D01*
X2973870Y-3454369D01*
X2928416Y-3454369D01*
X2901142Y-3445278D01*
X2882960Y-3436188D01*
X2864779Y-3418006D01*
X2855688Y-3399823D01*
X2855688Y-3363460D01*
X2864779Y-3345279D01*
X2882960Y-3327097D01*
X2901142Y-3318007D01*
X2928416Y-3308916D01*
X2973870Y-3308916D01*
X3001142Y-3318007D01*
X3019325Y-3327097D01*
X3037507Y-3345279D01*
X3046597Y-3363460D01*
X3046597Y-3399823D01*
X2982960Y-3248916D02*
G01*
X2792051Y-3248916D01*
X2955688Y-3248916D02*
G01*
X2973870Y-3230732D01*
X2982960Y-3212551D01*
X2982960Y-3185279D01*
X2973870Y-3167098D01*
X2955688Y-3148916D01*
X2928416Y-3139823D01*
X2910232Y-3139823D01*
X2882960Y-3148916D01*
X2864779Y-3167098D01*
X2855688Y-3185279D01*
X2855688Y-3212551D01*
X2864779Y-3230732D01*
X2882960Y-3248916D01*
X2928416Y-3079823D02*
G01*
X2928416Y-2970733D01*
X2946598Y-2970733D01*
X2964779Y-2979823D01*
X2973870Y-2988917D01*
X2982960Y-3007098D01*
X2982960Y-3034370D01*
X2973870Y-3052551D01*
X2955688Y-3070732D01*
X2928416Y-3079823D01*
X2910232Y-3079823D01*
X2882960Y-3070732D01*
X2864779Y-3052551D01*
X2855688Y-3034370D01*
X2855688Y-3007098D01*
X2864779Y-2988917D01*
X2882960Y-2970733D01*
X2982960Y-2910733D02*
G01*
X2855688Y-2910733D01*
X2946598Y-2910733D02*
G01*
X2973870Y-2883461D01*
X2982960Y-2865280D01*
X2982960Y-2838008D01*
X2973870Y-2819824D01*
X2946598Y-2810733D01*
X2855688Y-2810733D01*
X3001142Y-2474371D02*
G01*
X3019325Y-2483462D01*
X3037507Y-2501643D01*
X3046597Y-2519824D01*
X3046597Y-2556189D01*
X3037507Y-2574371D01*
X3019325Y-2592552D01*
X3001142Y-2601643D01*
X2973870Y-2610733D01*
X2928416Y-2610733D01*
X2901142Y-2601643D01*
X2882960Y-2592552D01*
X2864779Y-2574371D01*
X2855688Y-2556189D01*
X2855688Y-2519824D01*
X2864779Y-2501643D01*
X2882960Y-2483462D01*
X2901142Y-2474371D01*
X2928416Y-2474371D01*
X2928416Y-2519824D02*
G01*
X2928416Y-2474371D01*
X2982960Y-2305281D02*
G01*
X2855688Y-2305281D01*
X2955688Y-2305281D02*
G01*
X2973870Y-2323462D01*
X2982960Y-2341643D01*
X2982960Y-2368918D01*
X2973870Y-2387099D01*
X2955688Y-2405280D01*
X2928416Y-2414371D01*
X2910232Y-2414371D01*
X2882960Y-2405280D01*
X2864779Y-2387099D01*
X2855688Y-2368918D01*
X2855688Y-2341643D01*
X2864779Y-2323462D01*
X2882960Y-2305281D01*
X2982960Y-2245281D02*
G01*
X2855688Y-2245281D01*
X2946598Y-2245281D02*
G01*
X2973870Y-2218009D01*
X2982960Y-2199825D01*
X2982960Y-2172553D01*
X2973870Y-2154372D01*
X2946598Y-2145281D01*
X2855688Y-2145281D01*
X2946598Y-2145281D02*
G01*
X2973870Y-2118009D01*
X2982960Y-2099825D01*
X2982960Y-2072553D01*
X2973870Y-2054372D01*
X2946598Y-2045281D01*
X2855688Y-2045281D01*
X2982960Y-1985281D02*
G01*
X2855688Y-1985281D01*
X2946598Y-1985281D02*
G01*
X2973870Y-1958009D01*
X2982960Y-1939825D01*
X2982960Y-1912553D01*
X2973870Y-1894372D01*
X2946598Y-1885281D01*
X2855688Y-1885281D01*
X2946598Y-1885281D02*
G01*
X2973870Y-1858010D01*
X2982960Y-1839826D01*
X2982960Y-1812554D01*
X2973870Y-1794372D01*
X2946598Y-1785282D01*
X2855688Y-1785282D01*
X2982960Y-1616191D02*
G01*
X2855688Y-1616191D01*
X2955688Y-1616191D02*
G01*
X2973870Y-1634373D01*
X2982960Y-1652554D01*
X2982960Y-1679826D01*
X2973870Y-1698010D01*
X2955688Y-1716191D01*
X2928416Y-1725282D01*
X2910232Y-1725282D01*
X2882960Y-1716191D01*
X2864779Y-1698010D01*
X2855688Y-1679826D01*
X2855688Y-1652554D01*
X2864779Y-1634373D01*
X2882960Y-1616191D01*
X2690997Y-3022579D02*
G01*
X2500088Y-3022579D01*
X2690997Y-3022579D02*
G01*
X2690997Y-2940761D01*
X2681907Y-2913489D01*
X2672816Y-2904398D01*
X2654632Y-2895307D01*
X2627360Y-2895307D01*
X2609179Y-2904398D01*
X2600088Y-2913489D01*
X2590998Y-2940761D01*
X2590998Y-3022579D01*
X2627360Y-2835308D02*
G01*
X2500088Y-2835308D01*
X2572816Y-2835308D02*
G01*
X2600088Y-2826217D01*
X2618270Y-2808033D01*
X2627360Y-2789852D01*
X2627360Y-2762580D01*
X2627360Y-2657127D02*
G01*
X2618270Y-2675308D01*
X2600088Y-2693489D01*
X2572816Y-2702580D01*
X2554632Y-2702580D01*
X2527360Y-2693489D01*
X2509179Y-2675308D01*
X2500088Y-2657127D01*
X2500088Y-2629852D01*
X2509179Y-2611671D01*
X2527360Y-2593489D01*
X2554632Y-2584399D01*
X2572816Y-2584399D01*
X2600088Y-2593489D01*
X2618270Y-2611671D01*
X2627360Y-2629852D01*
X2627360Y-2657127D01*
X2690997Y-2488034D02*
G01*
X2681907Y-2478943D01*
X2690997Y-2469852D01*
X2700088Y-2478943D01*
X2690997Y-2488034D01*
X2627360Y-2478943D02*
G01*
X2472816Y-2478943D01*
X2445542Y-2488034D01*
X2436451Y-2506218D01*
X2436451Y-2524399D01*
X2572816Y-2409852D02*
G01*
X2572816Y-2300762D01*
X2590998Y-2300762D01*
X2609179Y-2309853D01*
X2618270Y-2318943D01*
X2627360Y-2337127D01*
X2627360Y-2364399D01*
X2618270Y-2382580D01*
X2600088Y-2400762D01*
X2572816Y-2409852D01*
X2554632Y-2409852D01*
X2527360Y-2400762D01*
X2509179Y-2382580D01*
X2500088Y-2364399D01*
X2500088Y-2337127D01*
X2509179Y-2318943D01*
X2527360Y-2300762D01*
X2600088Y-2131672D02*
G01*
X2618270Y-2149853D01*
X2627360Y-2168034D01*
X2627360Y-2195309D01*
X2618270Y-2213490D01*
X2600088Y-2231671D01*
X2572816Y-2240762D01*
X2554632Y-2240762D01*
X2527360Y-2231671D01*
X2509179Y-2213490D01*
X2500088Y-2195309D01*
X2500088Y-2168034D01*
X2509179Y-2149853D01*
X2527360Y-2131672D01*
X2690997Y-2044400D02*
G01*
X2536451Y-2044400D01*
X2509179Y-2035309D01*
X2500088Y-2017128D01*
X2500088Y-1998944D01*
X2627360Y-2071672D02*
G01*
X2627360Y-2008035D01*
D11*
X5257789Y-132910D02*
G01*
X5257789Y-247454D01*
X5257789Y-192910D02*
G01*
X5241427Y-176545D01*
X5230517Y-171091D01*
X5214152Y-171091D01*
X5203243Y-176545D01*
X5197789Y-192910D01*
X5197789Y-247454D01*
X5145425Y-132910D02*
G01*
X5145425Y-225635D01*
X5139971Y-242001D01*
X5129062Y-247454D01*
X5118153Y-247454D01*
X5161790Y-171091D02*
G01*
X5123609Y-171091D01*
X5065791Y-132910D02*
G01*
X5065791Y-225635D01*
X5060335Y-242001D01*
X5049426Y-247454D01*
X5038516Y-247454D01*
X5082153Y-171091D02*
G01*
X5043972Y-171091D01*
X5002517Y-171091D02*
G01*
X5002517Y-285635D01*
X5002517Y-187454D02*
G01*
X4991608Y-176545D01*
X4980698Y-171091D01*
X4964336Y-171091D01*
X4953426Y-176545D01*
X4942517Y-187454D01*
X4937064Y-203817D01*
X4937064Y-214726D01*
X4942517Y-231091D01*
X4953426Y-242001D01*
X4964336Y-247454D01*
X4980698Y-247454D01*
X4991608Y-242001D01*
X5002517Y-231091D01*
X4841062Y-187454D02*
G01*
X4846518Y-176545D01*
X4862880Y-171091D01*
X4879246Y-171091D01*
X4895608Y-176545D01*
X4901062Y-187454D01*
X4895608Y-198363D01*
X4884699Y-203817D01*
X4857427Y-209273D01*
X4846518Y-214726D01*
X4841062Y-225635D01*
X4841062Y-231091D01*
X4846518Y-242001D01*
X4862880Y-247454D01*
X4879246Y-247454D01*
X4895608Y-242001D01*
X4901062Y-231091D01*
X4799609Y-182001D02*
G01*
X4805062Y-187454D01*
X4799609Y-192910D01*
X4794153Y-187454D01*
X4799609Y-182001D01*
X4799609Y-220182D02*
G01*
X4805062Y-225635D01*
X4799609Y-231091D01*
X4794153Y-225635D01*
X4799609Y-220182D01*
X4659972Y-111091D02*
G01*
X4758154Y-285635D01*
X4525792Y-111091D02*
G01*
X4623973Y-285635D01*
X4424337Y-171091D02*
G01*
X4424337Y-258363D01*
X4429790Y-274726D01*
X4435246Y-280182D01*
X4446155Y-285635D01*
X4462518Y-285635D01*
X4473427Y-280182D01*
X4424337Y-187454D02*
G01*
X4435246Y-176545D01*
X4446155Y-171091D01*
X4462518Y-171091D01*
X4473427Y-176545D01*
X4484336Y-187454D01*
X4489790Y-203817D01*
X4489790Y-214726D01*
X4484336Y-231091D01*
X4473427Y-242001D01*
X4462518Y-247454D01*
X4446155Y-247454D01*
X4435246Y-242001D01*
X4424337Y-231091D01*
X4388337Y-132910D02*
G01*
X4382881Y-138363D01*
X4377428Y-132910D01*
X4382881Y-127454D01*
X4388337Y-132910D01*
X4382881Y-171091D02*
G01*
X4382881Y-247454D01*
X4325063Y-132910D02*
G01*
X4325063Y-225635D01*
X4319610Y-242001D01*
X4308701Y-247454D01*
X4297791Y-247454D01*
X4341428Y-171091D02*
G01*
X4303245Y-171091D01*
X4261792Y-132910D02*
G01*
X4261792Y-247454D01*
X4261792Y-192910D02*
G01*
X4245427Y-176545D01*
X4234520Y-171091D01*
X4218155Y-171091D01*
X4207245Y-176545D01*
X4201792Y-192910D01*
X4201792Y-247454D01*
X4165793Y-171091D02*
G01*
X4165793Y-225635D01*
X4160337Y-242001D01*
X4149427Y-247454D01*
X4133065Y-247454D01*
X4122155Y-242001D01*
X4105793Y-225635D01*
X4105793Y-171091D02*
G01*
X4105793Y-247454D01*
X4069791Y-132910D02*
G01*
X4069791Y-247454D01*
X4069791Y-187454D02*
G01*
X4058881Y-176545D01*
X4047975Y-171091D01*
X4031609Y-171091D01*
X4020700Y-176545D01*
X4009791Y-187454D01*
X4004337Y-203817D01*
X4004337Y-214726D01*
X4009791Y-231091D01*
X4020700Y-242001D01*
X4031609Y-247454D01*
X4047975Y-247454D01*
X4058881Y-242001D01*
X4069791Y-231091D01*
X3962882Y-220182D02*
G01*
X3968338Y-225635D01*
X3962882Y-231091D01*
X3957429Y-225635D01*
X3962882Y-220182D01*
X3855974Y-187454D02*
G01*
X3866883Y-176545D01*
X3877792Y-171091D01*
X3894155Y-171091D01*
X3905064Y-176545D01*
X3915973Y-187454D01*
X3921429Y-203817D01*
X3921429Y-214726D01*
X3915973Y-231091D01*
X3905064Y-242001D01*
X3894155Y-247454D01*
X3877792Y-247454D01*
X3866883Y-242001D01*
X3855974Y-231091D01*
X3792702Y-171091D02*
G01*
X3803611Y-176545D01*
X3814521Y-187454D01*
X3819974Y-203817D01*
X3819974Y-214726D01*
X3814521Y-231091D01*
X3803611Y-242001D01*
X3792702Y-247454D01*
X3776337Y-247454D01*
X3765428Y-242001D01*
X3754521Y-231091D01*
X3749065Y-214726D01*
X3749065Y-203817D01*
X3754521Y-187454D01*
X3765428Y-176545D01*
X3776337Y-171091D01*
X3792702Y-171091D01*
X3713065Y-171091D02*
G01*
X3713065Y-247454D01*
X3713065Y-192910D02*
G01*
X3696703Y-176545D01*
X3685793Y-171091D01*
X3669428Y-171091D01*
X3658519Y-176545D01*
X3653066Y-192910D01*
X3653066Y-247454D01*
X3653066Y-192910D02*
G01*
X3636703Y-176545D01*
X3625794Y-171091D01*
X3609428Y-171091D01*
X3598519Y-176545D01*
X3593066Y-192910D01*
X3593066Y-247454D01*
X3458883Y-111091D02*
G01*
X3557066Y-285635D01*
X3390158Y-132910D02*
G01*
X3401065Y-138363D01*
X3411974Y-149273D01*
X3417430Y-160182D01*
X3422883Y-176545D01*
X3422883Y-203817D01*
X3417430Y-220182D01*
X3411974Y-231091D01*
X3401065Y-242001D01*
X3390158Y-247454D01*
X3368339Y-247454D01*
X3357430Y-242001D01*
X3346521Y-231091D01*
X3341065Y-220182D01*
X3335611Y-203817D01*
X3335611Y-176545D01*
X3341065Y-160182D01*
X3346521Y-149273D01*
X3357430Y-138363D01*
X3368339Y-132910D01*
X3390158Y-132910D01*
X3299612Y-171091D02*
G01*
X3299612Y-285635D01*
X3299612Y-187454D02*
G01*
X3288703Y-176545D01*
X3277793Y-171091D01*
X3261431Y-171091D01*
X3250521Y-176545D01*
X3239612Y-187454D01*
X3234156Y-203817D01*
X3234156Y-214726D01*
X3239612Y-231091D01*
X3250521Y-242001D01*
X3261431Y-247454D01*
X3277793Y-247454D01*
X3288703Y-242001D01*
X3299612Y-231091D01*
X3198157Y-203817D02*
G01*
X3132703Y-203817D01*
X3132703Y-192910D01*
X3138157Y-182001D01*
X3143613Y-176545D01*
X3154522Y-171091D01*
X3170885Y-171091D01*
X3181794Y-176545D01*
X3192703Y-187454D01*
X3198157Y-203817D01*
X3198157Y-214726D01*
X3192703Y-231091D01*
X3181794Y-242001D01*
X3170885Y-247454D01*
X3154522Y-247454D01*
X3143613Y-242001D01*
X3132703Y-231091D01*
X3096704Y-171091D02*
G01*
X3096704Y-247454D01*
X3096704Y-192910D02*
G01*
X3080339Y-176545D01*
X3069429Y-171091D01*
X3053067Y-171091D01*
X3042158Y-176545D01*
X3036704Y-192910D01*
X3036704Y-247454D01*
X2918884Y-160182D02*
G01*
X2924340Y-149273D01*
X2935249Y-138363D01*
X2946158Y-132910D01*
X2967977Y-132910D01*
X2978884Y-138363D01*
X2989793Y-149273D01*
X2995249Y-160182D01*
X3000702Y-176545D01*
X3000702Y-203817D01*
X2995249Y-220182D01*
X2989793Y-231091D01*
X2978884Y-242001D01*
X2967977Y-247454D01*
X2946158Y-247454D01*
X2935249Y-242001D01*
X2924340Y-231091D01*
X2918884Y-220182D01*
X2918884Y-203817D01*
X2946158Y-203817D02*
G01*
X2918884Y-203817D01*
X2817431Y-171091D02*
G01*
X2817431Y-247454D01*
X2817431Y-187454D02*
G01*
X2828340Y-176545D01*
X2839250Y-171091D01*
X2855612Y-171091D01*
X2866522Y-176545D01*
X2877431Y-187454D01*
X2882884Y-203817D01*
X2882884Y-214726D01*
X2877431Y-231091D01*
X2866522Y-242001D01*
X2855612Y-247454D01*
X2839250Y-247454D01*
X2828340Y-242001D01*
X2817431Y-231091D01*
X2781432Y-171091D02*
G01*
X2781432Y-247454D01*
X2781432Y-192910D02*
G01*
X2765066Y-176545D01*
X2754157Y-171091D01*
X2737794Y-171091D01*
X2726885Y-176545D01*
X2721432Y-192910D01*
X2721432Y-247454D01*
X2721432Y-192910D02*
G01*
X2705066Y-176545D01*
X2694157Y-171091D01*
X2677795Y-171091D01*
X2666885Y-176545D01*
X2661432Y-192910D01*
X2661432Y-247454D01*
X2625430Y-171091D02*
G01*
X2625430Y-247454D01*
X2625430Y-192910D02*
G01*
X2609067Y-176545D01*
X2598158Y-171091D01*
X2581795Y-171091D01*
X2570886Y-176545D01*
X2565430Y-192910D01*
X2565430Y-247454D01*
X2565430Y-192910D02*
G01*
X2549067Y-176545D01*
X2538158Y-171091D01*
X2521795Y-171091D01*
X2510886Y-176545D01*
X2505430Y-192910D01*
X2505430Y-247454D01*
X2403977Y-171091D02*
G01*
X2403977Y-247454D01*
X2403977Y-187454D02*
G01*
X2414887Y-176545D01*
X2425796Y-171091D01*
X2442159Y-171091D01*
X2453068Y-176545D01*
X2463977Y-187454D01*
X2469431Y-203817D01*
X2469431Y-214726D01*
X2463977Y-231091D01*
X2453068Y-242001D01*
X2442159Y-247454D01*
X2425796Y-247454D01*
X2414887Y-242001D01*
X2403977Y-231091D01*
X2367978Y-132910D02*
G01*
X2367978Y-247454D01*
X2367978Y-132910D02*
G01*
X2318885Y-132910D01*
X2302522Y-138363D01*
X2297069Y-143817D01*
X2291613Y-154726D01*
X2291613Y-171091D01*
X2297069Y-182001D01*
X2302522Y-187454D01*
X2318885Y-192910D01*
X2367978Y-192910D01*
X2255613Y-171091D02*
G01*
X2255613Y-247454D01*
X2255613Y-203817D02*
G01*
X2250160Y-187454D01*
X2239251Y-176545D01*
X2228341Y-171091D01*
X2211976Y-171091D01*
X2148705Y-171091D02*
G01*
X2159614Y-176545D01*
X2170523Y-187454D01*
X2175977Y-203817D01*
X2175977Y-214726D01*
X2170523Y-231091D01*
X2159614Y-242001D01*
X2148705Y-247454D01*
X2132342Y-247454D01*
X2121433Y-242001D01*
X2110524Y-231091D01*
X2105068Y-214726D01*
X2105068Y-203817D01*
X2110524Y-187454D01*
X2121433Y-176545D01*
X2132342Y-171091D01*
X2148705Y-171091D01*
X2047250Y-132910D02*
G01*
X2041796Y-138363D01*
X2036340Y-132910D01*
X2041796Y-127454D01*
X2047250Y-132910D01*
X2041796Y-171091D02*
G01*
X2041796Y-263817D01*
X2047250Y-280182D01*
X2058159Y-285635D01*
X2069068Y-285635D01*
X2000341Y-203817D02*
G01*
X1934888Y-203817D01*
X1934888Y-192910D01*
X1940341Y-182001D01*
X1945797Y-176545D01*
X1956706Y-171091D01*
X1973069Y-171091D01*
X1983978Y-176545D01*
X1994888Y-187454D01*
X2000341Y-203817D01*
X2000341Y-214726D01*
X1994888Y-231091D01*
X1983978Y-242001D01*
X1973069Y-247454D01*
X1956706Y-247454D01*
X1945797Y-242001D01*
X1934888Y-231091D01*
X1833432Y-187454D02*
G01*
X1844342Y-176545D01*
X1855251Y-171091D01*
X1871614Y-171091D01*
X1882523Y-176545D01*
X1893432Y-187454D01*
X1898886Y-203817D01*
X1898886Y-214726D01*
X1893432Y-231091D01*
X1882523Y-242001D01*
X1871614Y-247454D01*
X1855251Y-247454D01*
X1844342Y-242001D01*
X1833432Y-231091D01*
X1781068Y-132910D02*
G01*
X1781068Y-225635D01*
X1775614Y-242001D01*
X1764705Y-247454D01*
X1753796Y-247454D01*
X1797433Y-171091D02*
G01*
X1759252Y-171091D01*
X5257789Y-386910D02*
G01*
X5257789Y-501454D01*
X5257789Y-446910D02*
G01*
X5241427Y-430545D01*
X5230517Y-425091D01*
X5214152Y-425091D01*
X5203243Y-430545D01*
X5197789Y-446910D01*
X5197789Y-501454D01*
X5145425Y-386910D02*
G01*
X5145425Y-479635D01*
X5139971Y-496001D01*
X5129062Y-501454D01*
X5118153Y-501454D01*
X5161790Y-425091D02*
G01*
X5123609Y-425091D01*
X5065791Y-386910D02*
G01*
X5065791Y-479635D01*
X5060335Y-496001D01*
X5049426Y-501454D01*
X5038516Y-501454D01*
X5082153Y-425091D02*
G01*
X5043972Y-425091D01*
X5002517Y-425091D02*
G01*
X5002517Y-539635D01*
X5002517Y-441454D02*
G01*
X4991608Y-430545D01*
X4980698Y-425091D01*
X4964336Y-425091D01*
X4953426Y-430545D01*
X4942517Y-441454D01*
X4937064Y-457817D01*
X4937064Y-468726D01*
X4942517Y-485091D01*
X4953426Y-496001D01*
X4964336Y-501454D01*
X4980698Y-501454D01*
X4991608Y-496001D01*
X5002517Y-485091D01*
X4841062Y-441454D02*
G01*
X4846518Y-430545D01*
X4862880Y-425091D01*
X4879246Y-425091D01*
X4895608Y-430545D01*
X4901062Y-441454D01*
X4895608Y-452363D01*
X4884699Y-457817D01*
X4857427Y-463273D01*
X4846518Y-468726D01*
X4841062Y-479635D01*
X4841062Y-485091D01*
X4846518Y-496001D01*
X4862880Y-501454D01*
X4879246Y-501454D01*
X4895608Y-496001D01*
X4901062Y-485091D01*
X4799609Y-436001D02*
G01*
X4805062Y-441454D01*
X4799609Y-446910D01*
X4794153Y-441454D01*
X4799609Y-436001D01*
X4799609Y-474182D02*
G01*
X4805062Y-479635D01*
X4799609Y-485091D01*
X4794153Y-479635D01*
X4799609Y-474182D01*
X4659972Y-365091D02*
G01*
X4758154Y-539635D01*
X4525792Y-365091D02*
G01*
X4623973Y-539635D01*
X4489790Y-425091D02*
G01*
X4489790Y-501454D01*
X4489790Y-446910D02*
G01*
X4473427Y-430545D01*
X4462518Y-425091D01*
X4446155Y-425091D01*
X4435246Y-430545D01*
X4429790Y-446910D01*
X4429790Y-501454D01*
X4393791Y-425091D02*
G01*
X4393791Y-479635D01*
X4388337Y-496001D01*
X4377428Y-501454D01*
X4361063Y-501454D01*
X4350156Y-496001D01*
X4333791Y-479635D01*
X4333791Y-425091D02*
G01*
X4333791Y-501454D01*
X4232338Y-441454D02*
G01*
X4243245Y-430545D01*
X4254154Y-425091D01*
X4270519Y-425091D01*
X4281429Y-430545D01*
X4292338Y-441454D01*
X4297791Y-457817D01*
X4297791Y-468726D01*
X4292338Y-485091D01*
X4281429Y-496001D01*
X4270519Y-501454D01*
X4254154Y-501454D01*
X4243245Y-496001D01*
X4232338Y-485091D01*
X4196336Y-386910D02*
G01*
X4196336Y-501454D01*
X4160337Y-457817D02*
G01*
X4094883Y-457817D01*
X4094883Y-446910D01*
X4100337Y-436001D01*
X4105793Y-430545D01*
X4116702Y-425091D01*
X4133065Y-425091D01*
X4143974Y-430545D01*
X4154883Y-441454D01*
X4160337Y-457817D01*
X4160337Y-468726D01*
X4154883Y-485091D01*
X4143974Y-496001D01*
X4133065Y-501454D01*
X4116702Y-501454D01*
X4105793Y-496001D01*
X4094883Y-485091D01*
X3993428Y-425091D02*
G01*
X3993428Y-501454D01*
X3993428Y-441454D02*
G01*
X4004337Y-430545D01*
X4015247Y-425091D01*
X4031609Y-425091D01*
X4042519Y-430545D01*
X4053428Y-441454D01*
X4058881Y-457817D01*
X4058881Y-468726D01*
X4053428Y-485091D01*
X4042519Y-496001D01*
X4031609Y-501454D01*
X4015247Y-501454D01*
X4004337Y-496001D01*
X3993428Y-485091D01*
X3957429Y-425091D02*
G01*
X3957429Y-501454D01*
X3957429Y-457817D02*
G01*
X3951973Y-441454D01*
X3941063Y-430545D01*
X3930157Y-425091D01*
X3913792Y-425091D01*
X3877792Y-425091D02*
G01*
X3877792Y-539635D01*
X3877792Y-441454D02*
G01*
X3866883Y-430545D01*
X3855974Y-425091D01*
X3839611Y-425091D01*
X3828702Y-430545D01*
X3817792Y-441454D01*
X3812339Y-457817D01*
X3812339Y-468726D01*
X3817792Y-485091D01*
X3828702Y-496001D01*
X3839611Y-501454D01*
X3855974Y-501454D01*
X3866883Y-496001D01*
X3877792Y-485091D01*
X3776337Y-386910D02*
G01*
X3776337Y-501454D01*
X3776337Y-446910D02*
G01*
X3759974Y-430545D01*
X3749065Y-425091D01*
X3732702Y-425091D01*
X3721793Y-430545D01*
X3716337Y-446910D01*
X3716337Y-501454D01*
X3653066Y-425091D02*
G01*
X3663975Y-430545D01*
X3674884Y-441454D01*
X3680338Y-457817D01*
X3680338Y-468726D01*
X3674884Y-485091D01*
X3663975Y-496001D01*
X3653066Y-501454D01*
X3636703Y-501454D01*
X3625794Y-496001D01*
X3614884Y-485091D01*
X3609428Y-468726D01*
X3609428Y-457817D01*
X3614884Y-441454D01*
X3625794Y-430545D01*
X3636703Y-425091D01*
X3653066Y-425091D01*
X3573429Y-457817D02*
G01*
X3507976Y-457817D01*
X3507976Y-446910D01*
X3513429Y-436001D01*
X3518882Y-430545D01*
X3529792Y-425091D01*
X3546157Y-425091D01*
X3557066Y-430545D01*
X3567976Y-441454D01*
X3573429Y-457817D01*
X3573429Y-468726D01*
X3567976Y-485091D01*
X3557066Y-496001D01*
X3546157Y-501454D01*
X3529792Y-501454D01*
X3518882Y-496001D01*
X3507976Y-485091D01*
X3471974Y-425091D02*
G01*
X3471974Y-501454D01*
X3471974Y-446910D02*
G01*
X3455611Y-430545D01*
X3444702Y-425091D01*
X3428339Y-425091D01*
X3417430Y-430545D01*
X3411974Y-446910D01*
X3411974Y-501454D01*
X3375974Y-386910D02*
G01*
X3370521Y-392363D01*
X3365065Y-386910D01*
X3370521Y-381454D01*
X3375974Y-386910D01*
X3370521Y-425091D02*
G01*
X3370521Y-501454D01*
X3329066Y-425091D02*
G01*
X3269066Y-501454D01*
X3269066Y-425091D02*
G01*
X3329066Y-501454D01*
X3227611Y-474182D02*
G01*
X3233066Y-479635D01*
X3227611Y-485091D01*
X3222157Y-479635D01*
X3227611Y-474182D01*
X3186158Y-425091D02*
G01*
X3126158Y-501454D01*
X3126158Y-425091D02*
G01*
X3186158Y-501454D01*
X3084702Y-425091D02*
G01*
X3051975Y-501454D01*
X3019249Y-425091D02*
G01*
X3051975Y-501454D01*
X3062884Y-523273D01*
X3073793Y-534182D01*
X3084702Y-539635D01*
X3090158Y-539635D01*
X2923247Y-425091D02*
G01*
X2983247Y-501454D01*
X2983247Y-425091D02*
G01*
X2923247Y-425091D01*
X2983247Y-501454D02*
G01*
X2923247Y-501454D01*
D12*
X7954147Y-2987832D02*
G01*
X7972331Y-2996923D01*
X7990512Y-3015104D01*
X7999602Y-3033285D01*
X7999602Y-3069648D01*
X7990512Y-3087832D01*
X7972331Y-3106013D01*
X7954147Y-3115104D01*
X7926875Y-3124194D01*
X7881421Y-3124194D01*
X7854147Y-3115104D01*
X7835966Y-3106013D01*
X7817784Y-3087832D01*
X7808694Y-3069648D01*
X7808694Y-3033285D01*
X7817784Y-3015104D01*
X7835966Y-2996923D01*
X7854147Y-2987832D01*
X7999602Y-2927832D02*
G01*
X7863238Y-2927832D01*
X7835966Y-2918741D01*
X7817784Y-2900558D01*
X7808694Y-2873286D01*
X7808694Y-2855104D01*
X7817784Y-2827832D01*
X7835966Y-2809648D01*
X7863238Y-2800558D01*
X7999602Y-2800558D01*
X7999602Y-2676923D02*
G01*
X7808694Y-2676923D01*
X7999602Y-2740558D02*
G01*
X7999602Y-2613286D01*
X7999602Y-2358743D02*
G01*
X7990512Y-2376924D01*
X7972331Y-2395105D01*
X7954147Y-2404196D01*
X7926875Y-2413287D01*
X7881421Y-2413287D01*
X7854147Y-2404196D01*
X7835966Y-2395105D01*
X7817784Y-2376924D01*
X7808694Y-2358743D01*
X7808694Y-2322377D01*
X7817784Y-2304196D01*
X7835966Y-2286015D01*
X7854147Y-2276924D01*
X7881421Y-2267833D01*
X7926875Y-2267833D01*
X7954147Y-2276924D01*
X7972331Y-2286015D01*
X7990512Y-2304196D01*
X7999602Y-2322377D01*
X7999602Y-2358743D01*
X7999602Y-2207834D02*
G01*
X7808694Y-2207834D01*
X7999602Y-2207834D02*
G01*
X7999602Y-2089650D01*
X7908693Y-2207834D02*
G01*
X7908693Y-2135106D01*
X7999602Y-2029650D02*
G01*
X7808694Y-2029650D01*
X7999602Y-2029650D02*
G01*
X7999602Y-1911469D01*
X7908693Y-2029650D02*
G01*
X7908693Y-1956925D01*
X7720202Y-2870194D02*
G01*
X7529294Y-2870194D01*
X7720202Y-2742923D02*
G01*
X7529294Y-2742923D01*
X7629293Y-2870194D02*
G01*
X7629293Y-2742923D01*
X7720202Y-2682923D02*
G01*
X7529294Y-2682923D01*
X7720202Y-2682923D02*
G01*
X7720202Y-2564742D01*
X7629293Y-2682923D02*
G01*
X7629293Y-2610195D01*
X7529294Y-2682923D02*
G01*
X7529294Y-2564742D01*
X7720202Y-2504742D02*
G01*
X7529294Y-2504742D01*
X7720202Y-2504742D02*
G01*
X7720202Y-2422923D01*
X7711112Y-2395649D01*
X7702021Y-2386558D01*
X7683837Y-2377467D01*
X7665656Y-2377467D01*
X7647475Y-2386558D01*
X7638384Y-2395649D01*
X7629293Y-2422923D01*
X7629293Y-2504742D01*
X7629293Y-2441105D02*
G01*
X7529294Y-2377467D01*
X7720202Y-2317468D02*
G01*
X7529294Y-2317468D01*
X7720202Y-2317468D02*
G01*
X7720202Y-2199286D01*
X7629293Y-2317468D02*
G01*
X7629293Y-2244742D01*
X7529294Y-2317468D02*
G01*
X7529294Y-2199286D01*
X7453365Y-2590794D02*
G01*
X7326094Y-2536248D01*
X7453365Y-2481704D02*
G01*
X7326094Y-2536248D01*
D13*
X2223538Y-2056244D02*
G01*
X2140412Y-2056244D01*
X2124824Y-2061441D01*
X2119629Y-2066635D01*
X2114435Y-2077026D01*
X2114435Y-2087417D01*
X2119629Y-2097808D01*
X2124824Y-2103005D01*
X2140412Y-2108200D01*
X2150803Y-2108200D01*
X2223538Y-2021954D02*
G01*
X2114435Y-2021954D01*
X2223538Y-2021954D02*
G01*
X2223538Y-1975195D01*
X2218344Y-1959610D01*
X2213147Y-1954415D01*
X2202756Y-1949218D01*
X2187171Y-1949218D01*
X2176779Y-1954415D01*
X2171585Y-1959610D01*
X2166388Y-1975195D01*
X2166388Y-2021954D01*
X2202756Y-1914928D02*
G01*
X2207953Y-1904537D01*
X2223538Y-1888952D01*
X2114435Y-1888952D01*
D12*
X7162784Y-76200D02*
G01*
X7162782Y-4927589D01*
X7061184Y-4927589D02*
G01*
X7061184Y-76200D01*
D14*
X2077720Y-2080260D02*
G01*
X2077720Y-1869119D01*
X1935960Y-1869119D02*
G01*
X1935960Y-2080171D01*
G75*
G01*
X2047240Y-1849120D02*
G02*
X2077240Y-1869120I5007J-24990D01*
G75*
G01*
X2077720Y-2080260D02*
G02*
X2047720Y-2100260I-24993J4990D01*
G75*
G01*
X1965960Y-1849120D02*
G03*
X1935960Y-1869120I-5007J-24990D01*
G75*
G01*
X1935719Y-2080171D02*
G03*
X1965719Y-2100171I24987J4981D01*
M02*
