G04 Layer: BottomSilkscreenLayer*
G04 EasyEDA v6.5.5, 2022-07-05 02:26:19*
G04 677f26d251d643acb481b5c6e2656a11,9a5be75d700b4a6385dc1106f27949ae,10*
G04 Gerber Generator version 0.2*
G04 Scale: 100 percent, Rotated: No, Reflected: No *
G04 Dimensions in millimeters *
G04 leading zeros omitted , absolute positions ,4 integer and 5 decimal *
%FSLAX45Y45*%
%MOMM*%

%ADD39C,0.1524*%

%LPD*%
D39*
X2248905Y-1117594D02*
G01*
X2139939Y-1117594D01*
X2248905Y-1117594D02*
G01*
X2248905Y-1070858D01*
X2243825Y-1055364D01*
X2238491Y-1050030D01*
X2228077Y-1044950D01*
X2217663Y-1044950D01*
X2207249Y-1050030D01*
X2202169Y-1055364D01*
X2197089Y-1070858D01*
X2197089Y-1117594D01*
X2197089Y-1081272D02*
G01*
X2139939Y-1044950D01*
X2228077Y-1010660D02*
G01*
X2233411Y-1000246D01*
X2248905Y-984498D01*
X2139939Y-984498D01*
X2248905Y-924300D02*
G01*
X2243825Y-939794D01*
X2233411Y-945128D01*
X2222997Y-945128D01*
X2212583Y-939794D01*
X2207249Y-929634D01*
X2202169Y-908806D01*
X2197089Y-893058D01*
X2186675Y-882644D01*
X2176261Y-877564D01*
X2160513Y-877564D01*
X2150099Y-882644D01*
X2145019Y-887978D01*
X2139939Y-903472D01*
X2139939Y-924300D01*
X2145019Y-939794D01*
X2150099Y-945128D01*
X2160513Y-950208D01*
X2176261Y-950208D01*
X2186675Y-945128D01*
X2197089Y-934714D01*
X2202169Y-919220D01*
X2207249Y-898392D01*
X2212583Y-887978D01*
X2222997Y-882644D01*
X2233411Y-882644D01*
X2243825Y-887978D01*
X2248905Y-903472D01*
X2248905Y-924300D01*
X1701794Y-722881D02*
G01*
X1701794Y-800859D01*
X1696714Y-816353D01*
X1686300Y-826767D01*
X1670552Y-831847D01*
X1660138Y-831847D01*
X1644644Y-826767D01*
X1634230Y-816353D01*
X1629150Y-800859D01*
X1629150Y-722881D01*
X1589526Y-748789D02*
G01*
X1589526Y-743709D01*
X1584446Y-733295D01*
X1579112Y-727961D01*
X1568698Y-722881D01*
X1548124Y-722881D01*
X1537710Y-727961D01*
X1532376Y-733295D01*
X1527296Y-743709D01*
X1527296Y-754123D01*
X1532376Y-764537D01*
X1542790Y-780031D01*
X1594860Y-831847D01*
X1521962Y-831847D01*
X1914885Y-942977D02*
G01*
X1914885Y-814484D01*
X2098304Y-814484D01*
X2098304Y-942977D01*
X1914885Y-1038217D02*
G01*
X1914885Y-1166710D01*
X2098304Y-1166710D01*
X2098304Y-1038217D01*
X1537990Y-862378D02*
G01*
X1713229Y-862378D01*
X1713229Y-966538D01*
X1537990Y-1169616D02*
G01*
X1713229Y-1169616D01*
X1713229Y-1065456D01*
X1537990Y-970457D02*
G01*
X1537990Y-1061537D01*
M02*
