G04 Layer: BottomSolderMaskLayer*
G04 EasyEDA v6.5.44, 2024-08-29 13:08:05*
G04 16ae97f49be74552a1a67efb210d0a0d,9a5be75d700b4a6385dc1106f27949ae,10*
G04 Gerber Generator version 0.2*
G04 Scale: 100 percent, Rotated: No, Reflected: No *
G04 Dimensions in millimeters *
G04 leading zeros omitted , absolute positions ,4 integer and 5 decimal *
%FSLAX45Y45*%
%MOMM*%

%AMMACRO1*4,1,47,-0.4572,-0.6033,-0.4608,-0.603,-0.4644,-0.6022,-0.4677,-0.601,-0.4709,-0.5992,-0.4738,-0.5971,-0.4764,-0.5945,-0.4786,-0.5916,-0.4803,-0.5884,-0.4816,-0.585,-0.4823,-0.5815,-0.4826,-0.5779,-0.4826,0.1588,-0.4822,0.1629,-0.4812,0.167,-0.4795,0.1709,-0.4772,0.1744,-0.4744,0.1775,-0.0172,0.5966,-0.0142,0.5989,-0.0109,0.6008,-0.0074,0.6021,-0.0038,0.603,0,0.6033,0.0038,0.603,0.0074,0.6021,0.0109,0.6008,0.0142,0.5989,0.0172,0.5966,0.4744,0.1775,0.4772,0.1744,0.4795,0.1709,0.4812,0.167,0.4822,0.1629,0.4826,0.1588,0.4826,-0.5779,0.4823,-0.5815,0.4816,-0.585,0.4803,-0.5884,0.4786,-0.5916,0.4764,-0.5945,0.4738,-0.5971,0.4709,-0.5992,0.4677,-0.601,0.4644,-0.6022,0.4608,-0.603,0.4572,-0.6033,-0.4572,-0.6033,0*%
%AMMACRO2*4,1,8,-0.8085,-0.8382,-0.8382,-0.8084,-0.8382,0.8085,-0.8085,0.8382,0.8084,0.8382,0.8382,0.8085,0.8382,-0.8084,0.8084,-0.8382,-0.8085,-0.8382,0*%
%AMMACRO3*4,1,8,-0.8085,-0.9008,-0.8382,-0.871,-0.8382,0.8711,-0.8085,0.9008,0.8084,0.9008,0.8382,0.8711,0.8382,-0.871,0.8084,-0.9008,-0.8085,-0.9008,0*%
%AMMACRO4*4,1,8,-0.8711,-0.9008,-0.9008,-0.871,-0.9008,0.8711,-0.8711,0.9008,0.871,0.9008,0.9008,0.8711,0.9008,-0.871,0.871,-0.9008,-0.8711,-0.9008,0*%
%ADD10C,0.7016*%
%ADD11MACRO1*%
%ADD12MACRO2*%
%ADD13C,1.8016*%
%ADD14MACRO3*%
%ADD15MACRO4*%
%ADD16C,2.3000*%
%ADD17C,2.1000*%
%ADD18C,1.6256*%
%ADD19C,5.6016*%

%LPD*%
G36*
X177800Y-76200D02*
G01*
X127000Y-127000D01*
X127000Y-149199D01*
X76200Y-199999D01*
X76200Y-254000D01*
X99974Y-249986D01*
X249986Y-99974D01*
X254000Y-76200D01*
G37*
G36*
X76200Y-4749800D02*
G01*
X76200Y-4799990D01*
X150114Y-4873904D01*
X150114Y-4899863D01*
X177850Y-4927600D01*
X300024Y-4927600D01*
X300024Y-4849977D01*
X150012Y-4750003D01*
G37*
G36*
X7010349Y-4674971D02*
G01*
X6949998Y-4700016D01*
X6757771Y-4927600D01*
X6925005Y-4927600D01*
X7010349Y-4842205D01*
G37*
G36*
X6756400Y-76200D02*
G01*
X6749999Y-99974D01*
X6949998Y-300024D01*
X7010349Y-330149D01*
X7010349Y-126949D01*
X6959600Y-76200D01*
G37*
G36*
X6999986Y-99974D02*
G01*
X6999986Y-4999990D01*
X7049973Y-4999990D01*
X7049973Y-99974D01*
G37*
G36*
X0Y0D02*
G01*
X0Y-99974D01*
X7049973Y-99974D01*
X7049973Y0D01*
G37*
G36*
X0Y-49987D02*
G01*
X0Y-4950002D01*
X99974Y-4950002D01*
X99974Y-49987D01*
G37*
G36*
X0Y-4899964D02*
G01*
X0Y-4999990D01*
X7049973Y-4999990D01*
X7049973Y-4899964D01*
G37*
D10*
X76200Y-4749800D02*
G01*
X76200Y-279400D01*
X76200Y-4749800D02*
G01*
X76200Y-279400D01*
X6959600Y-4927600D02*
G01*
X254000Y-4927600D01*
X254000Y-4927600D02*
G01*
X177825Y-4927600D01*
X127000Y-4876774D01*
X76200Y-4749800D02*
G01*
X76200Y-4825974D01*
X127000Y-4876774D01*
X76200Y-279400D02*
G01*
X76200Y-177800D01*
X127000Y-127000D01*
X254000Y-76200D02*
G01*
X177800Y-76200D01*
X127000Y-127000D01*
X7010374Y-254000D02*
G01*
X7010374Y-126974D01*
X6959600Y-76200D01*
X7010374Y-4724400D02*
G01*
X7010374Y-4876825D01*
X6959600Y-4927600D01*
X6959600Y-4927600D02*
G01*
X254000Y-4927600D01*
X7010374Y-254000D02*
G01*
X7010374Y-4724400D01*
X254000Y-76200D02*
G01*
X6959600Y-76200D01*
D11*
G01*
X1999996Y-1601431D03*
G36*
X1954433Y-1563961D02*
G01*
X1954088Y-1563959D01*
X1953745Y-1563911D01*
X1953412Y-1563817D01*
X1953097Y-1563677D01*
X1952802Y-1563496D01*
X1952536Y-1563278D01*
X1952302Y-1563024D01*
X1952101Y-1562742D01*
X1951944Y-1562435D01*
X1951829Y-1562110D01*
X1951758Y-1561772D01*
X1951736Y-1561426D01*
X1951736Y-1450936D01*
X1951761Y-1450576D01*
X1951840Y-1450220D01*
X1951964Y-1449882D01*
X1952139Y-1449562D01*
X1952355Y-1449273D01*
X1952612Y-1449016D01*
X1952901Y-1448800D01*
X1953221Y-1448625D01*
X1953559Y-1448501D01*
X1953915Y-1448422D01*
X1954275Y-1448396D01*
X2045715Y-1448396D01*
X2046076Y-1448422D01*
X2046432Y-1448501D01*
X2046770Y-1448625D01*
X2047090Y-1448800D01*
X2047379Y-1449016D01*
X2047636Y-1449273D01*
X2047852Y-1449562D01*
X2048027Y-1449882D01*
X2048151Y-1450220D01*
X2048230Y-1450576D01*
X2048256Y-1450936D01*
X2048256Y-1561426D01*
X2048233Y-1561772D01*
X2048162Y-1562110D01*
X2048047Y-1562435D01*
X2047890Y-1562742D01*
X2047689Y-1563024D01*
X2047455Y-1563278D01*
X2047189Y-1563496D01*
X2046894Y-1563677D01*
X2046579Y-1563817D01*
X2046246Y-1563911D01*
X2045903Y-1563959D01*
X2045558Y-1563961D01*
X2045218Y-1563918D01*
X2044882Y-1563827D01*
X2044565Y-1563692D01*
X2044268Y-1563514D01*
X2043998Y-1563298D01*
X1999995Y-1522963D01*
X1955993Y-1563298D01*
X1955723Y-1563514D01*
X1955426Y-1563692D01*
X1955109Y-1563827D01*
X1954773Y-1563918D01*
G37*
D12*
G01*
X733043Y-1150111D03*
D13*
G01*
X3243072Y-4750054D03*
G01*
X2989072Y-4750054D03*
G01*
X2735072Y-4750054D03*
G01*
X2481072Y-4750054D03*
G01*
X2227072Y-4750054D03*
G01*
X1973072Y-4750054D03*
G01*
X1719071Y-4750054D03*
G01*
X1465071Y-4750054D03*
G01*
X1211071Y-4750054D03*
D14*
G01*
X957072Y-4750054D03*
D15*
G01*
X6674865Y-2881122D03*
D13*
G01*
X6674865Y-2627121D03*
G01*
X6674865Y-2373121D03*
G01*
X6674865Y-2119121D03*
D16*
G01*
X6295897Y-3395979D03*
G01*
X6803897Y-3395979D03*
G01*
X6295897Y-3903979D03*
G01*
X6803897Y-3903979D03*
D17*
G01*
X6549897Y-3649979D03*
D16*
G01*
X6295897Y-1096010D03*
G01*
X6803897Y-1096010D03*
G01*
X6295897Y-1604010D03*
G01*
X6803897Y-1604010D03*
D17*
G01*
X6549897Y-1350010D03*
D12*
G01*
X225043Y-1150111D03*
G01*
X479043Y-1150111D03*
D18*
G01*
X4949977Y-3925011D03*
G01*
X5203977Y-3925011D03*
G01*
X4695977Y-3925011D03*
G01*
X4349978Y-600024D03*
G01*
X4603978Y-600024D03*
G01*
X4095978Y-600024D03*
D19*
G01*
X350012Y-350012D03*
G01*
X6699986Y-350012D03*
G01*
X6699986Y-4650003D03*
G01*
X350012Y-4650003D03*
M02*
