G04 Layer: TopSolderMaskLayer*
G04 EasyEDA v6.5.5, 2022-07-05 02:26:19*
G04 677f26d251d643acb481b5c6e2656a11,9a5be75d700b4a6385dc1106f27949ae,10*
G04 Gerber Generator version 0.2*
G04 Scale: 100 percent, Rotated: No, Reflected: No *
G04 Dimensions in millimeters *
G04 leading zeros omitted , absolute positions ,4 integer and 5 decimal *
%FSLAX45Y45*%
%MOMM*%

%ADD46C,1.5016*%
%ADD53C,1.2032*%
%ADD60C,1.8016*%
%ADD63C,1.6256*%
%ADD65R,1.8032X3.4032*%

%LPD*%
D46*
X4677613Y-338099D02*
G01*
X4677613Y-373100D01*
X4927600Y-338099D02*
G01*
X4927600Y-373100D01*
X5177612Y-338099D02*
G01*
X5177612Y-373100D01*
G36*
X2600197Y-1242313D02*
G01*
X2600197Y-1094486D01*
X2723641Y-1094486D01*
X2723641Y-1242313D01*
G37*
G36*
X2407158Y-1242313D02*
G01*
X2407158Y-1094486D01*
X2530602Y-1094486D01*
X2530602Y-1242313D01*
G37*
G36*
X3837686Y-4374642D02*
G01*
X3837686Y-4251197D01*
X3985513Y-4251197D01*
X3985513Y-4374642D01*
G37*
G36*
X3837686Y-4181602D02*
G01*
X3837686Y-4058157D01*
X3985513Y-4058157D01*
X3985513Y-4181602D01*
G37*
G36*
X2593086Y-625602D02*
G01*
X2593086Y-502157D01*
X2740913Y-502157D01*
X2740913Y-625602D01*
G37*
G36*
X2593086Y-818642D02*
G01*
X2593086Y-695197D01*
X2740913Y-695197D01*
X2740913Y-818642D01*
G37*
G36*
X3796284Y-957071D02*
G01*
X3796284Y-846836D01*
X3861308Y-846836D01*
X3861308Y-957071D01*
G37*
G36*
X3701288Y-957071D02*
G01*
X3701288Y-846836D01*
X3766311Y-846836D01*
X3766311Y-957071D01*
G37*
G36*
X3606291Y-957071D02*
G01*
X3606291Y-846836D01*
X3671315Y-846836D01*
X3671315Y-957071D01*
G37*
G36*
X3606291Y-677163D02*
G01*
X3606291Y-566928D01*
X3671315Y-566928D01*
X3671315Y-677163D01*
G37*
G36*
X3701288Y-677163D02*
G01*
X3701288Y-566928D01*
X3766311Y-566928D01*
X3766311Y-677163D01*
G37*
G36*
X3796284Y-677163D02*
G01*
X3796284Y-566928D01*
X3861308Y-566928D01*
X3861308Y-677163D01*
G37*
G36*
X2424684Y-830071D02*
G01*
X2424684Y-719836D01*
X2489708Y-719836D01*
X2489708Y-830071D01*
G37*
G36*
X2329688Y-830071D02*
G01*
X2329688Y-719836D01*
X2394711Y-719836D01*
X2394711Y-830071D01*
G37*
G36*
X2234691Y-830071D02*
G01*
X2234691Y-719836D01*
X2299715Y-719836D01*
X2299715Y-830071D01*
G37*
G36*
X2234691Y-550163D02*
G01*
X2234691Y-439928D01*
X2299715Y-439928D01*
X2299715Y-550163D01*
G37*
G36*
X2329688Y-550163D02*
G01*
X2329688Y-439928D01*
X2394711Y-439928D01*
X2394711Y-550163D01*
G37*
G36*
X2424684Y-550163D02*
G01*
X2424684Y-439928D01*
X2489708Y-439928D01*
X2489708Y-550163D01*
G37*
G36*
X144779Y-1201420D02*
G01*
X144779Y-1033779D01*
X312420Y-1033779D01*
X312420Y-1201420D01*
G37*
G36*
X398779Y-1201420D02*
G01*
X398779Y-1033779D01*
X566420Y-1033779D01*
X566420Y-1201420D01*
G37*
G36*
X3510534Y-4343145D02*
G01*
X3510534Y-4279645D01*
X3627881Y-4279645D01*
X3627881Y-4343145D01*
G37*
G36*
X3510534Y-4248150D02*
G01*
X3510534Y-4184650D01*
X3627881Y-4184650D01*
X3627881Y-4248150D01*
G37*
G36*
X3510534Y-4153154D02*
G01*
X3510534Y-4089654D01*
X3627881Y-4089654D01*
X3627881Y-4153154D01*
G37*
G36*
X3280918Y-4153154D02*
G01*
X3280918Y-4089654D01*
X3398265Y-4089654D01*
X3398265Y-4153154D01*
G37*
G36*
X3280918Y-4248150D02*
G01*
X3280918Y-4184650D01*
X3398265Y-4184650D01*
X3398265Y-4248150D01*
G37*
G36*
X3280918Y-4343145D02*
G01*
X3280918Y-4279645D01*
X3398265Y-4279645D01*
X3398265Y-4343145D01*
G37*
G36*
X4869434Y-1069847D02*
G01*
X4869434Y-999744D01*
X4979670Y-999744D01*
X4979670Y-1069847D01*
G37*
G36*
X4869434Y-879855D02*
G01*
X4869434Y-809752D01*
X4979670Y-809752D01*
X4979670Y-879855D01*
G37*
G36*
X5129529Y-879855D02*
G01*
X5129529Y-809752D01*
X5239765Y-809752D01*
X5239765Y-879855D01*
G37*
G36*
X5129529Y-974852D02*
G01*
X5129529Y-904747D01*
X5239765Y-904747D01*
X5239765Y-974852D01*
G37*
G36*
X5129529Y-1069847D02*
G01*
X5129529Y-999744D01*
X5239765Y-999744D01*
X5239765Y-1069847D01*
G37*
D53*
G01*
X1752600Y-1016000D03*
G01*
X4673625Y-838225D03*
G01*
X5613425Y-1701800D03*
G01*
X2260625Y-1295425D03*
G01*
X6400800Y-3403600D03*
G01*
X6756400Y-1778000D03*
G36*
X5846063Y-1591563D02*
G01*
X5846063Y-1456436D01*
X5956300Y-1456436D01*
X5956300Y-1591563D01*
G37*
G36*
X5626100Y-1591563D02*
G01*
X5626100Y-1456436D01*
X5736336Y-1456436D01*
X5736336Y-1591563D01*
G37*
G36*
X4650231Y-1114044D02*
G01*
X4650231Y-968755D01*
X4801361Y-968755D01*
X4801361Y-1114044D01*
G37*
G36*
X4444238Y-1114044D02*
G01*
X4444238Y-968755D01*
X4595368Y-968755D01*
X4595368Y-1114044D01*
G37*
G36*
X3761231Y-453644D02*
G01*
X3761231Y-308355D01*
X3912361Y-308355D01*
X3912361Y-453644D01*
G37*
G36*
X3555238Y-453644D02*
G01*
X3555238Y-308355D01*
X3706368Y-308355D01*
X3706368Y-453644D01*
G37*
G36*
X2592831Y-1037844D02*
G01*
X2592831Y-892555D01*
X2743961Y-892555D01*
X2743961Y-1037844D01*
G37*
G36*
X2386838Y-1037844D02*
G01*
X2386838Y-892555D01*
X2537968Y-892555D01*
X2537968Y-1037844D01*
G37*
G36*
X5667756Y-4595368D02*
G01*
X5667756Y-4444237D01*
X5813043Y-4444237D01*
X5813043Y-4595368D01*
G37*
G36*
X5667756Y-4801362D02*
G01*
X5667756Y-4650231D01*
X5813043Y-4650231D01*
X5813043Y-4801362D01*
G37*
G36*
X3838956Y-4595368D02*
G01*
X3838956Y-4444237D01*
X3984243Y-4444237D01*
X3984243Y-4595368D01*
G37*
G36*
X3838956Y-4801362D02*
G01*
X3838956Y-4650231D01*
X3984243Y-4650231D01*
X3984243Y-4801362D01*
G37*
G36*
X3250438Y-3984244D02*
G01*
X3250438Y-3838955D01*
X3401568Y-3838955D01*
X3401568Y-3984244D01*
G37*
G36*
X3456431Y-3984244D02*
G01*
X3456431Y-3838955D01*
X3607561Y-3838955D01*
X3607561Y-3984244D01*
G37*
G36*
X5896356Y-4595368D02*
G01*
X5896356Y-4444237D01*
X6041643Y-4444237D01*
X6041643Y-4595368D01*
G37*
G36*
X5896356Y-4801362D02*
G01*
X5896356Y-4650231D01*
X6041643Y-4650231D01*
X6041643Y-4801362D01*
G37*
G36*
X4853431Y-1317244D02*
G01*
X4853431Y-1171955D01*
X5004561Y-1171955D01*
X5004561Y-1317244D01*
G37*
G36*
X4647438Y-1317244D02*
G01*
X4647438Y-1171955D01*
X4798568Y-1171955D01*
X4798568Y-1317244D01*
G37*
G36*
X2186431Y-377444D02*
G01*
X2186431Y-232155D01*
X2337561Y-232155D01*
X2337561Y-377444D01*
G37*
G36*
X1980438Y-377444D02*
G01*
X1980438Y-232155D01*
X2131568Y-232155D01*
X2131568Y-377444D01*
G37*
G36*
X5769356Y-2185162D02*
G01*
X5769356Y-2034031D01*
X5914643Y-2034031D01*
X5914643Y-2185162D01*
G37*
G36*
X5769356Y-1979168D02*
G01*
X5769356Y-1828037D01*
X5914643Y-1828037D01*
X5914643Y-1979168D01*
G37*
G36*
X5564631Y-2384044D02*
G01*
X5564631Y-2238755D01*
X5715761Y-2238755D01*
X5715761Y-2384044D01*
G37*
G36*
X5358638Y-2384044D02*
G01*
X5358638Y-2238755D01*
X5509768Y-2238755D01*
X5509768Y-2384044D01*
G37*
G36*
X3256534Y-4586223D02*
G01*
X3256534Y-4456176D01*
X3406902Y-4456176D01*
X3406902Y-4586223D01*
G37*
G36*
X3603497Y-4586223D02*
G01*
X3603497Y-4456176D01*
X3753865Y-4456176D01*
X3753865Y-4586223D01*
G37*
G36*
X3146297Y-623823D02*
G01*
X3146297Y-493776D01*
X3296665Y-493776D01*
X3296665Y-623823D01*
G37*
G36*
X2799334Y-623823D02*
G01*
X2799334Y-493776D01*
X2949702Y-493776D01*
X2949702Y-623823D01*
G37*
G36*
X3363975Y-985265D02*
G01*
X3363975Y-834897D01*
X3494024Y-834897D01*
X3494024Y-985265D01*
G37*
G36*
X3363975Y-638302D02*
G01*
X3363975Y-487934D01*
X3494024Y-487934D01*
X3494024Y-638302D01*
G37*
G36*
X1916429Y-4865370D02*
G01*
X1916429Y-4685029D01*
X2096770Y-4685029D01*
X2096770Y-4865370D01*
G37*
D60*
G01*
X1752600Y-4775200D03*
G01*
X1498600Y-4775200D03*
G01*
X1244600Y-4775200D03*
G36*
X6666229Y-3011170D02*
G01*
X6666229Y-2830829D01*
X6846570Y-2830829D01*
X6846570Y-3011170D01*
G37*
G01*
X6756374Y-2667000D03*
G01*
X6756374Y-2413000D03*
G01*
X6756374Y-2159000D03*
G36*
X2679445Y-4229354D02*
G01*
X2679445Y-4006595D01*
X3111754Y-4006595D01*
X3111754Y-4229354D01*
G37*
G36*
X2679445Y-4629150D02*
G01*
X2679445Y-4406645D01*
X3111754Y-4406645D01*
X3111754Y-4629150D01*
G37*
G36*
X3031743Y-1118362D02*
G01*
X3031743Y-1028192D01*
X3141979Y-1028192D01*
X3141979Y-1118362D01*
G37*
G36*
X2801620Y-1213357D02*
G01*
X2801620Y-1123187D01*
X2911856Y-1123187D01*
X2911856Y-1213357D01*
G37*
G36*
X3031743Y-1308354D02*
G01*
X3031743Y-1218437D01*
X3141979Y-1218437D01*
X3141979Y-1308354D01*
G37*
G36*
X6174486Y-2368042D02*
G01*
X6174486Y-2244597D01*
X6322313Y-2244597D01*
X6322313Y-2368042D01*
G37*
G36*
X6174486Y-2175002D02*
G01*
X6174486Y-2051557D01*
X6322313Y-2051557D01*
X6322313Y-2175002D01*
G37*
G36*
X5607558Y-1318513D02*
G01*
X5607558Y-1170686D01*
X5730747Y-1170686D01*
X5730747Y-1318513D01*
G37*
G36*
X5800597Y-1318513D02*
G01*
X5800597Y-1170686D01*
X5924041Y-1170686D01*
X5924041Y-1318513D01*
G37*
G36*
X5361686Y-1733042D02*
G01*
X5361686Y-1609597D01*
X5509513Y-1609597D01*
X5509513Y-1733042D01*
G37*
G36*
X5361686Y-1540002D02*
G01*
X5361686Y-1416557D01*
X5509513Y-1416557D01*
X5509513Y-1540002D01*
G37*
G36*
X2930397Y-404113D02*
G01*
X2930397Y-256286D01*
X3053841Y-256286D01*
X3053841Y-404113D01*
G37*
G36*
X2737358Y-404113D02*
G01*
X2737358Y-256286D01*
X2860802Y-256286D01*
X2860802Y-404113D01*
G37*
G36*
X5978397Y-3121913D02*
G01*
X5978397Y-2974086D01*
X6101841Y-2974086D01*
X6101841Y-3121913D01*
G37*
G36*
X5785358Y-3121913D02*
G01*
X5785358Y-2974086D01*
X5908547Y-2974086D01*
X5908547Y-3121913D01*
G37*
G36*
X5971286Y-2368042D02*
G01*
X5971286Y-2244597D01*
X6119113Y-2244597D01*
X6119113Y-2368042D01*
G37*
G36*
X5971286Y-2175002D02*
G01*
X5971286Y-2051557D01*
X6119113Y-2051557D01*
X6119113Y-2175002D01*
G37*
G36*
X5717286Y-3714242D02*
G01*
X5717286Y-3590797D01*
X5865113Y-3590797D01*
X5865113Y-3714242D01*
G37*
G36*
X5717286Y-3520947D02*
G01*
X5717286Y-3397757D01*
X5865113Y-3397757D01*
X5865113Y-3520947D01*
G37*
G36*
X5514086Y-3714242D02*
G01*
X5514086Y-3590797D01*
X5661913Y-3590797D01*
X5661913Y-3714242D01*
G37*
G36*
X5514086Y-3520947D02*
G01*
X5514086Y-3397757D01*
X5661913Y-3397757D01*
X5661913Y-3520947D01*
G37*
G36*
X5488686Y-1098042D02*
G01*
X5488686Y-974597D01*
X5636513Y-974597D01*
X5636513Y-1098042D01*
G37*
G36*
X5488686Y-905002D02*
G01*
X5488686Y-781557D01*
X5636513Y-781557D01*
X5636513Y-905002D01*
G37*
G36*
X4606797Y-4595113D02*
G01*
X4606797Y-4447286D01*
X4730241Y-4447286D01*
X4730241Y-4595113D01*
G37*
G36*
X4413758Y-4595113D02*
G01*
X4413758Y-4447286D01*
X4536947Y-4447286D01*
X4536947Y-4595113D01*
G37*
G36*
X5317997Y-4595113D02*
G01*
X5317997Y-4447286D01*
X5441441Y-4447286D01*
X5441441Y-4595113D01*
G37*
G36*
X5124958Y-4595113D02*
G01*
X5124958Y-4447286D01*
X5248147Y-4447286D01*
X5248147Y-4595113D01*
G37*
D63*
G01*
X5842000Y-2717800D03*
G01*
X5591987Y-2717800D03*
G01*
X6091986Y-2717800D03*
G01*
X4546600Y-4013200D03*
G01*
X4296587Y-4013200D03*
G01*
X4796586Y-4013200D03*
G01*
X5537200Y-4013200D03*
G01*
X5287187Y-4013200D03*
G01*
X5787186Y-4013200D03*
G36*
X5488686Y-422402D02*
G01*
X5488686Y-298957D01*
X5636513Y-298957D01*
X5636513Y-422402D01*
G37*
G36*
X5488686Y-615442D02*
G01*
X5488686Y-491997D01*
X5636513Y-491997D01*
X5636513Y-615442D01*
G37*
G36*
X5709158Y-632713D02*
G01*
X5709158Y-484886D01*
X5832347Y-484886D01*
X5832347Y-632713D01*
G37*
G36*
X5902197Y-632713D02*
G01*
X5902197Y-484886D01*
X6025641Y-484886D01*
X6025641Y-632713D01*
G37*
G36*
X5793486Y-1098042D02*
G01*
X5793486Y-974597D01*
X5941313Y-974597D01*
X5941313Y-1098042D01*
G37*
G36*
X5793486Y-905002D02*
G01*
X5793486Y-781557D01*
X5941313Y-781557D01*
X5941313Y-905002D01*
G37*
G36*
X5597143Y-2166365D02*
G01*
X5597143Y-2056129D01*
X5667247Y-2056129D01*
X5667247Y-2166365D01*
G37*
G36*
X5407152Y-2166365D02*
G01*
X5407152Y-2056129D01*
X5477256Y-2056129D01*
X5477256Y-2166365D01*
G37*
G36*
X5407152Y-1906270D02*
G01*
X5407152Y-1796034D01*
X5477256Y-1796034D01*
X5477256Y-1906270D01*
G37*
G36*
X5502147Y-1906270D02*
G01*
X5502147Y-1796034D01*
X5572252Y-1796034D01*
X5572252Y-1906270D01*
G37*
G36*
X5597143Y-1906270D02*
G01*
X5597143Y-1796034D01*
X5667247Y-1796034D01*
X5667247Y-1906270D01*
G37*
D65*
G01*
X228600Y-3483584D03*
G01*
X482600Y-3483584D03*
G01*
X736600Y-3483584D03*
G01*
X990600Y-3483584D03*
G01*
X1244600Y-3483584D03*
G01*
X1498600Y-3483584D03*
G01*
X1752600Y-3483584D03*
G01*
X2006600Y-3483584D03*
G01*
X2260600Y-3483584D03*
G01*
X2514600Y-3483584D03*
G01*
X2768600Y-3483584D03*
G01*
X3022600Y-3483584D03*
G01*
X3276600Y-3483584D03*
G01*
X3530600Y-3483584D03*
G01*
X3784600Y-3483584D03*
G01*
X4038600Y-3483584D03*
G01*
X4292600Y-3483584D03*
G01*
X4546600Y-3483584D03*
G01*
X4800600Y-3483584D03*
G01*
X5054600Y-3483584D03*
G01*
X5054600Y-1545589D03*
G01*
X4800600Y-1545589D03*
G01*
X4546600Y-1545589D03*
G01*
X4292600Y-1545589D03*
G01*
X4038600Y-1545589D03*
G01*
X3784600Y-1545589D03*
G01*
X3530600Y-1545589D03*
G01*
X3276600Y-1545589D03*
G01*
X3022600Y-1545589D03*
G01*
X2768600Y-1545589D03*
G01*
X2514600Y-1545589D03*
G01*
X2260600Y-1545589D03*
G01*
X2006600Y-1545589D03*
G01*
X1752600Y-1545589D03*
G01*
X1498600Y-1545589D03*
G01*
X1244600Y-1545589D03*
G01*
X990600Y-1545589D03*
G01*
X736600Y-1545589D03*
G01*
X482600Y-1545589D03*
G01*
X228600Y-1545589D03*
G36*
X4941315Y-2858770D02*
G01*
X4941315Y-2678429D01*
X5281675Y-2678429D01*
X5281675Y-2858770D01*
G37*
G36*
X4941315Y-2604770D02*
G01*
X4941315Y-2424429D01*
X5281675Y-2424429D01*
X5281675Y-2604770D01*
G37*
G36*
X4941315Y-2350770D02*
G01*
X4941315Y-2170429D01*
X5281675Y-2170429D01*
X5281675Y-2350770D01*
G37*
G36*
X652779Y-1201420D02*
G01*
X652779Y-1033779D01*
X820420Y-1033779D01*
X820420Y-1201420D01*
G37*
M02*
