G04 Layer: TopLayer*
G04 EasyEDA v6.5.5, 2022-07-05 02:26:19*
G04 677f26d251d643acb481b5c6e2656a11,9a5be75d700b4a6385dc1106f27949ae,10*
G04 Gerber Generator version 0.2*
G04 Scale: 100 percent, Rotated: No, Reflected: No *
G04 Dimensions in millimeters *
G04 leading zeros omitted , absolute positions ,4 integer and 5 decimal *
%FSLAX45Y45*%
%MOMM*%

%ADD11C,0.2100*%
%ADD12C,0.4000*%
%ADD13C,0.5000*%
%ADD14C,0.3000*%
%ADD15C,0.8200*%
%ADD16C,0.6200*%
%ADD18R,1.3770X1.1325*%
%ADD19R,0.5500X1.0000*%
%ADD20R,1.0720X0.5320*%
%ADD22C,1.0000*%
%ADD25R,1.3500X1.4100*%
%ADD26R,1.4000X1.2000*%
%ADD27R,1.2000X1.4000*%
%ADD28R,4.2200X2.1240*%
%ADD29R,1.0000X0.8000*%
%ADD30R,0.6000X1.0000*%
%ADD31R,1.6000X3.2000*%
%ADD32R,3.2000X1.6000*%
%ADD33R,1.5748X1.5748*%
%ADD34R,1.7000X1.7000*%
%ADD35C,1.7000*%
%ADD36C,1.5240*%
%ADD37C,1.4000*%

%LPD*%
G36*
X6924040Y-4976266D02*
G01*
X200863Y-4974082D01*
X182422Y-4973116D01*
X165557Y-4970576D01*
X148996Y-4966411D01*
X132943Y-4960569D01*
X117500Y-4953254D01*
X102870Y-4944414D01*
X89204Y-4934204D01*
X76606Y-4922723D01*
X65125Y-4910023D01*
X55016Y-4896256D01*
X46278Y-4881575D01*
X39014Y-4866132D01*
X33324Y-4850028D01*
X29209Y-4833467D01*
X26771Y-4816551D01*
X25908Y-4799126D01*
X25908Y-200863D01*
X26873Y-182422D01*
X29413Y-165557D01*
X33578Y-148996D01*
X39420Y-132943D01*
X46736Y-117500D01*
X55575Y-102870D01*
X65786Y-89204D01*
X77266Y-76606D01*
X89966Y-65125D01*
X103733Y-55016D01*
X118414Y-46278D01*
X133858Y-39014D01*
X149961Y-33324D01*
X166522Y-29209D01*
X183438Y-26771D01*
X200863Y-25908D01*
X6924040Y-25908D01*
X6927900Y-26670D01*
X6931202Y-28905D01*
X6933438Y-32156D01*
X6934200Y-36068D01*
X6934200Y-4966106D01*
X6933438Y-4970018D01*
X6931202Y-4973320D01*
X6927900Y-4975504D01*
G37*

%LPC*%
G36*
X1922170Y-4886096D02*
G01*
X1957730Y-4886096D01*
X1957730Y-4824018D01*
X1895703Y-4824018D01*
X1895703Y-4859629D01*
X1896414Y-4865928D01*
X1898294Y-4871415D01*
X1901393Y-4876292D01*
X1905507Y-4880406D01*
X1910384Y-4883454D01*
X1915871Y-4885385D01*
G37*
G36*
X2055469Y-4886096D02*
G01*
X2091029Y-4886096D01*
X2097328Y-4885385D01*
X2102815Y-4883454D01*
X2107692Y-4880406D01*
X2111806Y-4876292D01*
X2114905Y-4871415D01*
X2116785Y-4865928D01*
X2117496Y-4859629D01*
X2117496Y-4824018D01*
X2055469Y-4824018D01*
G37*
G36*
X1749043Y-4885994D02*
G01*
X1763268Y-4885588D01*
X1777288Y-4883302D01*
X1790903Y-4879238D01*
X1803907Y-4873498D01*
X1816049Y-4866132D01*
X1827123Y-4857292D01*
X1837029Y-4847082D01*
X1845513Y-4835702D01*
X1852523Y-4823307D01*
X1857857Y-4810150D01*
X1861464Y-4796383D01*
X1863242Y-4782312D01*
X1863242Y-4768088D01*
X1861464Y-4754016D01*
X1857857Y-4740249D01*
X1852523Y-4727092D01*
X1845513Y-4714697D01*
X1837029Y-4703318D01*
X1827123Y-4693107D01*
X1816049Y-4684268D01*
X1803907Y-4676902D01*
X1795068Y-4672990D01*
X1791868Y-4670755D01*
X1789734Y-4667504D01*
X1789023Y-4663694D01*
X1789023Y-3679647D01*
X1789785Y-3675786D01*
X1791970Y-3672484D01*
X1795272Y-3670300D01*
X1799183Y-3669487D01*
X1832000Y-3669487D01*
X1838350Y-3668776D01*
X1843786Y-3666896D01*
X1848713Y-3663797D01*
X1852777Y-3659682D01*
X1855876Y-3654806D01*
X1857806Y-3649370D01*
X1858518Y-3643020D01*
X1858518Y-3324148D01*
X1857806Y-3317849D01*
X1855876Y-3312363D01*
X1852777Y-3307486D01*
X1848713Y-3303371D01*
X1843786Y-3300323D01*
X1838350Y-3298393D01*
X1832000Y-3297682D01*
X1673148Y-3297682D01*
X1666849Y-3298393D01*
X1661363Y-3300323D01*
X1656486Y-3303371D01*
X1652371Y-3307486D01*
X1649323Y-3312363D01*
X1647393Y-3317849D01*
X1646682Y-3324148D01*
X1646682Y-3643020D01*
X1647393Y-3649370D01*
X1649323Y-3654806D01*
X1652371Y-3659682D01*
X1656486Y-3663797D01*
X1661363Y-3666896D01*
X1666849Y-3668776D01*
X1673148Y-3669487D01*
X1706016Y-3669487D01*
X1709928Y-3670300D01*
X1713230Y-3672484D01*
X1715414Y-3675786D01*
X1716176Y-3679647D01*
X1716176Y-4663592D01*
X1715363Y-4667605D01*
X1713026Y-4670958D01*
X1709521Y-4673142D01*
X1707692Y-4673803D01*
X1695094Y-4680356D01*
X1683461Y-4688484D01*
X1672945Y-4698034D01*
X1663750Y-4708855D01*
X1655978Y-4720793D01*
X1649831Y-4733594D01*
X1645361Y-4747056D01*
X1642618Y-4761026D01*
X1641703Y-4775200D01*
X1642618Y-4789373D01*
X1645361Y-4803292D01*
X1649831Y-4816805D01*
X1655978Y-4829606D01*
X1663750Y-4841494D01*
X1672945Y-4852314D01*
X1683461Y-4861864D01*
X1695094Y-4869992D01*
X1707692Y-4876596D01*
X1721053Y-4881473D01*
X1734921Y-4884674D01*
G37*
G36*
X1495044Y-4885994D02*
G01*
X1509268Y-4885588D01*
X1523288Y-4883302D01*
X1536903Y-4879238D01*
X1549908Y-4873498D01*
X1562049Y-4866132D01*
X1573123Y-4857292D01*
X1583029Y-4847082D01*
X1591513Y-4835702D01*
X1598523Y-4823307D01*
X1603857Y-4810150D01*
X1607464Y-4796383D01*
X1609242Y-4782312D01*
X1609242Y-4768088D01*
X1607464Y-4754016D01*
X1603857Y-4740249D01*
X1598523Y-4727092D01*
X1591513Y-4714697D01*
X1583029Y-4703318D01*
X1573123Y-4693107D01*
X1562049Y-4684268D01*
X1549908Y-4676902D01*
X1541068Y-4672990D01*
X1537868Y-4670755D01*
X1535734Y-4667504D01*
X1535023Y-4663694D01*
X1535023Y-3679647D01*
X1535785Y-3675786D01*
X1537970Y-3672484D01*
X1541272Y-3670300D01*
X1545183Y-3669487D01*
X1578000Y-3669487D01*
X1584350Y-3668776D01*
X1589786Y-3666896D01*
X1594713Y-3663797D01*
X1598777Y-3659682D01*
X1601876Y-3654806D01*
X1603806Y-3649370D01*
X1604518Y-3643020D01*
X1604518Y-3324148D01*
X1603806Y-3317849D01*
X1601876Y-3312363D01*
X1598777Y-3307486D01*
X1594713Y-3303371D01*
X1589786Y-3300323D01*
X1584350Y-3298393D01*
X1578000Y-3297682D01*
X1419148Y-3297682D01*
X1412849Y-3298393D01*
X1407363Y-3300323D01*
X1402486Y-3303371D01*
X1398371Y-3307486D01*
X1395323Y-3312363D01*
X1393393Y-3317849D01*
X1392682Y-3324148D01*
X1392682Y-3643020D01*
X1393393Y-3649370D01*
X1395323Y-3654806D01*
X1398371Y-3659682D01*
X1402486Y-3663797D01*
X1407363Y-3666896D01*
X1412849Y-3668776D01*
X1419148Y-3669487D01*
X1452016Y-3669487D01*
X1455928Y-3670300D01*
X1459230Y-3672484D01*
X1461414Y-3675786D01*
X1462176Y-3679647D01*
X1462176Y-4663592D01*
X1461363Y-4667605D01*
X1459026Y-4670958D01*
X1455521Y-4673142D01*
X1453692Y-4673803D01*
X1441094Y-4680356D01*
X1429461Y-4688484D01*
X1418945Y-4698034D01*
X1409750Y-4708855D01*
X1401978Y-4720793D01*
X1395831Y-4733594D01*
X1391361Y-4747056D01*
X1388618Y-4761026D01*
X1387703Y-4775200D01*
X1388618Y-4789373D01*
X1391361Y-4803292D01*
X1395831Y-4816805D01*
X1401978Y-4829606D01*
X1409750Y-4841494D01*
X1418945Y-4852314D01*
X1429461Y-4861864D01*
X1441094Y-4869992D01*
X1453692Y-4876596D01*
X1467053Y-4881473D01*
X1480921Y-4884674D01*
G37*
G36*
X1241044Y-4885994D02*
G01*
X1255268Y-4885588D01*
X1269288Y-4883302D01*
X1282903Y-4879238D01*
X1295908Y-4873498D01*
X1308049Y-4866132D01*
X1319123Y-4857292D01*
X1329029Y-4847082D01*
X1337513Y-4835702D01*
X1344523Y-4823307D01*
X1349857Y-4810150D01*
X1353464Y-4796383D01*
X1355242Y-4782312D01*
X1355242Y-4768088D01*
X1353464Y-4754016D01*
X1349857Y-4740249D01*
X1344523Y-4727092D01*
X1337513Y-4714697D01*
X1329029Y-4703318D01*
X1319123Y-4693107D01*
X1308049Y-4684268D01*
X1295908Y-4676902D01*
X1282903Y-4671110D01*
X1269288Y-4667097D01*
X1255268Y-4664811D01*
X1241044Y-4664354D01*
X1226921Y-4665726D01*
X1208176Y-4669891D01*
X1204417Y-4669078D01*
X1201267Y-4666945D01*
X1166469Y-4632147D01*
X1164285Y-4628845D01*
X1163523Y-4624984D01*
X1163523Y-3679647D01*
X1164285Y-3675786D01*
X1166469Y-3672484D01*
X1169771Y-3670300D01*
X1173683Y-3669487D01*
X1324000Y-3669487D01*
X1330350Y-3668776D01*
X1335786Y-3666896D01*
X1340713Y-3663797D01*
X1344777Y-3659682D01*
X1347876Y-3654806D01*
X1349806Y-3649370D01*
X1350518Y-3643020D01*
X1350518Y-3324148D01*
X1349806Y-3317849D01*
X1347876Y-3312363D01*
X1344777Y-3307486D01*
X1340713Y-3303371D01*
X1335786Y-3300323D01*
X1330350Y-3298393D01*
X1324000Y-3297682D01*
X1173683Y-3297682D01*
X1169771Y-3296920D01*
X1166469Y-3294735D01*
X1164285Y-3291433D01*
X1163523Y-3287522D01*
X1163523Y-3274415D01*
X1164285Y-3270554D01*
X1166469Y-3267252D01*
X1239926Y-3193796D01*
X1243025Y-3191662D01*
X1246682Y-3190849D01*
X1252677Y-3190595D01*
X1263192Y-3188411D01*
X1273251Y-3184601D01*
X1282598Y-3179216D01*
X1290929Y-3172409D01*
X1298041Y-3164382D01*
X1303832Y-3155289D01*
X1308049Y-3145383D01*
X1310589Y-3134918D01*
X1311452Y-3124200D01*
X1310589Y-3113481D01*
X1308049Y-3103016D01*
X1303832Y-3093110D01*
X1298041Y-3084017D01*
X1290929Y-3075990D01*
X1282598Y-3069183D01*
X1273251Y-3063798D01*
X1263192Y-3059988D01*
X1252677Y-3057804D01*
X1241907Y-3057398D01*
X1231239Y-3058668D01*
X1220876Y-3061665D01*
X1211173Y-3066288D01*
X1202283Y-3072384D01*
X1194562Y-3079851D01*
X1188059Y-3088436D01*
X1183081Y-3097987D01*
X1179677Y-3108198D01*
X1177950Y-3118815D01*
X1177950Y-3121710D01*
X1177188Y-3125622D01*
X1174953Y-3128924D01*
X1083919Y-3220008D01*
X1078585Y-3227070D01*
X1074826Y-3234639D01*
X1072489Y-3242767D01*
X1071676Y-3251657D01*
X1071676Y-3287522D01*
X1070914Y-3291433D01*
X1068730Y-3294735D01*
X1065428Y-3296920D01*
X1061516Y-3297682D01*
X911148Y-3297682D01*
X904849Y-3298393D01*
X899363Y-3300323D01*
X894486Y-3303371D01*
X890371Y-3307486D01*
X887323Y-3312363D01*
X885393Y-3317849D01*
X884682Y-3324148D01*
X884682Y-3643020D01*
X885393Y-3649370D01*
X887323Y-3654806D01*
X890371Y-3659682D01*
X894486Y-3663797D01*
X899363Y-3666896D01*
X904849Y-3668776D01*
X911148Y-3669487D01*
X1061516Y-3669487D01*
X1065428Y-3670300D01*
X1068730Y-3672484D01*
X1070914Y-3675786D01*
X1071676Y-3679647D01*
X1071727Y-4649978D01*
X1072946Y-4658715D01*
X1075639Y-4666742D01*
X1079754Y-4674108D01*
X1085443Y-4681016D01*
X1136446Y-4731969D01*
X1138529Y-4735017D01*
X1139393Y-4738674D01*
X1138885Y-4742332D01*
X1137361Y-4747056D01*
X1134618Y-4761026D01*
X1133703Y-4775200D01*
X1134618Y-4789373D01*
X1137361Y-4803292D01*
X1141831Y-4816805D01*
X1147978Y-4829606D01*
X1155750Y-4841494D01*
X1164945Y-4852314D01*
X1175461Y-4861864D01*
X1187094Y-4869992D01*
X1199692Y-4876596D01*
X1213053Y-4881473D01*
X1226921Y-4884674D01*
G37*
G36*
X360476Y-4874412D02*
G01*
X379831Y-4873040D01*
X398932Y-4869738D01*
X417677Y-4864658D01*
X435813Y-4857750D01*
X453237Y-4849164D01*
X469747Y-4838903D01*
X485140Y-4827117D01*
X499364Y-4813909D01*
X512216Y-4799380D01*
X523646Y-4783683D01*
X533501Y-4766970D01*
X541680Y-4749342D01*
X548132Y-4731054D01*
X552754Y-4712208D01*
X555548Y-4692954D01*
X556514Y-4673600D01*
X555548Y-4654194D01*
X552754Y-4634992D01*
X548132Y-4616145D01*
X541680Y-4597857D01*
X533501Y-4580229D01*
X523646Y-4563516D01*
X512216Y-4547768D01*
X499364Y-4533239D01*
X485140Y-4520031D01*
X469747Y-4508246D01*
X453237Y-4498035D01*
X435813Y-4489399D01*
X417677Y-4482541D01*
X398932Y-4477410D01*
X379831Y-4474159D01*
X360476Y-4472736D01*
X341071Y-4473244D01*
X321767Y-4475581D01*
X302818Y-4479747D01*
X284378Y-4485741D01*
X266547Y-4493514D01*
X249580Y-4502912D01*
X233629Y-4513986D01*
X218795Y-4526483D01*
X205232Y-4540351D01*
X193090Y-4555490D01*
X182422Y-4571746D01*
X173431Y-4588916D01*
X166116Y-4606899D01*
X160528Y-4625492D01*
X156819Y-4644542D01*
X154940Y-4663897D01*
X154940Y-4683302D01*
X156819Y-4702606D01*
X160528Y-4721656D01*
X166116Y-4740249D01*
X173431Y-4758232D01*
X182422Y-4775454D01*
X193090Y-4791659D01*
X205232Y-4806797D01*
X218795Y-4820716D01*
X233629Y-4833213D01*
X249580Y-4844237D01*
X266547Y-4853686D01*
X284378Y-4861407D01*
X302818Y-4867452D01*
X321767Y-4871618D01*
X341071Y-4873955D01*
G37*
G36*
X6710425Y-4874412D02*
G01*
X6729780Y-4873040D01*
X6748932Y-4869738D01*
X6767677Y-4864658D01*
X6785813Y-4857750D01*
X6803237Y-4849164D01*
X6819696Y-4838903D01*
X6835140Y-4827117D01*
X6849364Y-4813909D01*
X6862216Y-4799380D01*
X6873646Y-4783683D01*
X6883450Y-4766970D01*
X6891629Y-4749342D01*
X6898081Y-4731054D01*
X6902754Y-4712208D01*
X6905548Y-4692954D01*
X6906463Y-4673600D01*
X6905548Y-4654194D01*
X6902754Y-4634992D01*
X6898081Y-4616145D01*
X6891629Y-4597857D01*
X6883450Y-4580229D01*
X6873646Y-4563516D01*
X6862216Y-4547768D01*
X6849364Y-4533239D01*
X6835140Y-4520031D01*
X6819696Y-4508246D01*
X6803237Y-4498035D01*
X6785813Y-4489399D01*
X6767677Y-4482541D01*
X6748932Y-4477410D01*
X6729780Y-4474159D01*
X6710425Y-4472736D01*
X6691020Y-4473244D01*
X6671767Y-4475581D01*
X6652818Y-4479747D01*
X6634327Y-4485741D01*
X6616547Y-4493514D01*
X6599580Y-4502912D01*
X6583629Y-4513986D01*
X6568795Y-4526483D01*
X6555231Y-4540351D01*
X6543040Y-4555490D01*
X6532422Y-4571746D01*
X6523380Y-4588916D01*
X6516065Y-4606899D01*
X6510528Y-4625492D01*
X6506819Y-4644542D01*
X6504940Y-4663897D01*
X6504940Y-4683302D01*
X6506819Y-4702606D01*
X6510528Y-4721656D01*
X6516065Y-4740249D01*
X6523380Y-4758232D01*
X6532422Y-4775454D01*
X6543040Y-4791659D01*
X6555231Y-4806797D01*
X6568795Y-4820716D01*
X6583629Y-4833213D01*
X6599580Y-4844237D01*
X6616547Y-4853686D01*
X6634327Y-4861407D01*
X6652818Y-4867452D01*
X6671767Y-4871618D01*
X6691020Y-4873955D01*
G37*
G36*
X5673445Y-4822190D02*
G01*
X5700268Y-4822190D01*
X5700268Y-4767376D01*
X5646978Y-4767376D01*
X5646978Y-4795723D01*
X5647690Y-4802022D01*
X5649620Y-4807508D01*
X5652668Y-4812385D01*
X5656783Y-4816500D01*
X5661660Y-4819599D01*
X5667146Y-4821478D01*
G37*
G36*
X5902045Y-4822190D02*
G01*
X5928868Y-4822190D01*
X5928868Y-4767376D01*
X5875578Y-4767376D01*
X5875578Y-4795723D01*
X5876290Y-4802022D01*
X5878220Y-4807508D01*
X5881268Y-4812385D01*
X5885383Y-4816500D01*
X5890260Y-4819599D01*
X5895746Y-4821478D01*
G37*
G36*
X3951681Y-4822190D02*
G01*
X3978503Y-4822190D01*
X3984853Y-4821478D01*
X3990289Y-4819599D01*
X3995216Y-4816500D01*
X3999280Y-4812385D01*
X4002379Y-4807508D01*
X4004310Y-4802022D01*
X4005021Y-4795723D01*
X4005021Y-4767376D01*
X3951681Y-4767376D01*
G37*
G36*
X3844645Y-4822190D02*
G01*
X3871468Y-4822190D01*
X3871468Y-4767376D01*
X3818178Y-4767376D01*
X3818178Y-4795723D01*
X3818890Y-4802022D01*
X3820820Y-4807508D01*
X3823868Y-4812385D01*
X3827983Y-4816500D01*
X3832860Y-4819599D01*
X3838346Y-4821478D01*
G37*
G36*
X5780481Y-4822190D02*
G01*
X5807303Y-4822190D01*
X5813653Y-4821478D01*
X5819089Y-4819599D01*
X5824016Y-4816500D01*
X5828080Y-4812385D01*
X5831179Y-4807508D01*
X5833059Y-4802022D01*
X5833821Y-4795723D01*
X5833821Y-4767376D01*
X5780481Y-4767376D01*
G37*
G36*
X6009081Y-4822190D02*
G01*
X6035903Y-4822190D01*
X6042253Y-4821478D01*
X6047689Y-4819599D01*
X6052616Y-4816500D01*
X6056680Y-4812385D01*
X6059779Y-4807508D01*
X6061659Y-4802022D01*
X6062421Y-4795723D01*
X6062421Y-4767376D01*
X6009081Y-4767376D01*
G37*
G36*
X1895703Y-4726330D02*
G01*
X1957730Y-4726330D01*
X1957730Y-4664303D01*
X1922170Y-4664303D01*
X1915871Y-4665014D01*
X1910384Y-4666894D01*
X1905507Y-4669993D01*
X1901393Y-4674057D01*
X1898294Y-4678984D01*
X1896414Y-4684420D01*
X1895703Y-4690770D01*
G37*
G36*
X2055469Y-4726330D02*
G01*
X2117496Y-4726330D01*
X2117496Y-4690770D01*
X2116785Y-4684420D01*
X2114905Y-4678984D01*
X2111806Y-4674057D01*
X2107692Y-4669993D01*
X2102815Y-4666894D01*
X2097328Y-4665014D01*
X2091029Y-4664303D01*
X2055469Y-4664303D01*
G37*
G36*
X3818178Y-4684166D02*
G01*
X3871468Y-4684166D01*
X3871468Y-4650943D01*
X3872280Y-4647082D01*
X3874465Y-4643780D01*
X3877767Y-4641596D01*
X3881628Y-4640783D01*
X3941521Y-4640783D01*
X3945432Y-4641596D01*
X3948734Y-4643780D01*
X3950919Y-4647082D01*
X3951681Y-4650943D01*
X3951681Y-4684166D01*
X4005021Y-4684166D01*
X4005021Y-4655870D01*
X4004310Y-4649520D01*
X4002481Y-4644339D01*
X4001922Y-4640021D01*
X4003294Y-4635855D01*
X4006240Y-4632655D01*
X4011523Y-4628946D01*
X4017772Y-4622749D01*
X4022801Y-4615535D01*
X4026509Y-4607560D01*
X4028744Y-4599228D01*
X4030776Y-4595317D01*
X4034282Y-4592675D01*
X4038549Y-4591710D01*
X4359351Y-4591710D01*
X4363618Y-4592675D01*
X4367123Y-4595317D01*
X4369155Y-4599228D01*
X4371289Y-4607306D01*
X4375048Y-4615281D01*
X4380077Y-4622495D01*
X4386275Y-4628692D01*
X4393488Y-4633772D01*
X4401464Y-4637481D01*
X4409998Y-4639767D01*
X4419193Y-4640529D01*
X4531563Y-4640529D01*
X4540758Y-4639767D01*
X4549241Y-4637481D01*
X4557217Y-4633772D01*
X4568088Y-4626102D01*
X4572000Y-4625340D01*
X4575860Y-4626102D01*
X4586782Y-4633772D01*
X4594707Y-4637481D01*
X4603242Y-4639767D01*
X4612436Y-4640529D01*
X4724806Y-4640529D01*
X4734001Y-4639767D01*
X4742484Y-4637481D01*
X4750460Y-4633772D01*
X4757674Y-4628692D01*
X4763922Y-4622495D01*
X4768951Y-4615281D01*
X4772660Y-4607306D01*
X4774844Y-4599228D01*
X4776876Y-4595317D01*
X4780330Y-4592675D01*
X4784648Y-4591710D01*
X5070551Y-4591710D01*
X5074818Y-4592675D01*
X5078323Y-4595317D01*
X5080355Y-4599228D01*
X5082489Y-4607306D01*
X5086248Y-4615281D01*
X5091277Y-4622495D01*
X5097475Y-4628692D01*
X5104688Y-4633772D01*
X5112664Y-4637481D01*
X5121148Y-4639767D01*
X5130393Y-4640529D01*
X5242763Y-4640529D01*
X5251958Y-4639767D01*
X5260441Y-4637481D01*
X5268417Y-4633772D01*
X5279288Y-4626102D01*
X5283200Y-4625340D01*
X5287060Y-4626102D01*
X5297932Y-4633772D01*
X5305907Y-4637481D01*
X5314442Y-4639767D01*
X5323636Y-4640529D01*
X5436006Y-4640529D01*
X5445201Y-4639767D01*
X5453684Y-4637481D01*
X5461660Y-4633772D01*
X5468874Y-4628692D01*
X5475122Y-4622495D01*
X5480151Y-4615281D01*
X5483860Y-4607306D01*
X5486146Y-4598822D01*
X5488178Y-4594961D01*
X5491632Y-4592269D01*
X5495899Y-4591304D01*
X5613146Y-4590897D01*
X5617464Y-4591812D01*
X5620969Y-4594504D01*
X5623001Y-4598416D01*
X5625439Y-4607560D01*
X5629198Y-4615535D01*
X5634228Y-4622749D01*
X5640425Y-4628946D01*
X5645759Y-4632655D01*
X5648706Y-4635855D01*
X5650026Y-4640021D01*
X5649518Y-4644339D01*
X5647690Y-4649520D01*
X5646978Y-4655870D01*
X5646978Y-4684166D01*
X5700268Y-4684166D01*
X5700268Y-4650943D01*
X5701080Y-4647082D01*
X5703265Y-4643780D01*
X5706567Y-4641596D01*
X5710428Y-4640783D01*
X5770321Y-4640783D01*
X5774232Y-4641596D01*
X5777534Y-4643780D01*
X5779719Y-4647082D01*
X5780481Y-4650943D01*
X5780481Y-4684166D01*
X5833821Y-4684166D01*
X5833821Y-4655870D01*
X5833059Y-4649520D01*
X5831281Y-4644339D01*
X5830722Y-4640021D01*
X5832094Y-4635855D01*
X5835040Y-4632655D01*
X5840272Y-4628997D01*
X5847435Y-4621682D01*
X5850737Y-4619447D01*
X5854700Y-4618685D01*
X5858611Y-4619447D01*
X5861913Y-4621682D01*
X5869076Y-4628997D01*
X5874359Y-4632655D01*
X5877306Y-4635855D01*
X5878626Y-4640021D01*
X5878118Y-4644339D01*
X5876290Y-4649520D01*
X5875578Y-4655870D01*
X5875578Y-4684166D01*
X5928868Y-4684166D01*
X5928868Y-4650943D01*
X5929680Y-4647082D01*
X5931865Y-4643780D01*
X5935167Y-4641596D01*
X5939028Y-4640783D01*
X5998921Y-4640783D01*
X6002832Y-4641596D01*
X6006134Y-4643780D01*
X6008319Y-4647082D01*
X6009081Y-4650943D01*
X6009081Y-4684166D01*
X6062421Y-4684166D01*
X6062421Y-4655870D01*
X6061659Y-4649520D01*
X6059881Y-4644339D01*
X6059322Y-4640021D01*
X6060694Y-4635855D01*
X6063640Y-4632655D01*
X6068923Y-4628946D01*
X6075172Y-4622749D01*
X6080201Y-4615535D01*
X6083909Y-4607560D01*
X6086195Y-4599076D01*
X6087008Y-4589830D01*
X6087008Y-4505756D01*
X6087770Y-4501845D01*
X6089954Y-4498543D01*
X6450380Y-4138168D01*
X6457797Y-4129430D01*
X6463588Y-4119981D01*
X6467805Y-4109770D01*
X6470396Y-4099051D01*
X6471310Y-4087622D01*
X6471310Y-3478987D01*
X6471970Y-3475329D01*
X6473952Y-3472179D01*
X6479641Y-3465880D01*
X6487261Y-3454806D01*
X6493306Y-3442817D01*
X6497726Y-3430117D01*
X6500368Y-3417011D01*
X6501282Y-3403600D01*
X6500368Y-3390188D01*
X6497726Y-3377031D01*
X6493306Y-3364382D01*
X6487261Y-3352393D01*
X6479641Y-3341319D01*
X6473952Y-3335020D01*
X6471970Y-3331819D01*
X6471310Y-3328162D01*
X6471310Y-3310026D01*
X6472072Y-3306114D01*
X6474307Y-3302812D01*
X6717639Y-3059480D01*
X6720941Y-3057296D01*
X6724802Y-3056483D01*
X6840931Y-3056483D01*
X6850125Y-3055721D01*
X6858660Y-3053435D01*
X6866636Y-3049727D01*
X6873849Y-3044647D01*
X6880047Y-3038449D01*
X6885076Y-3031236D01*
X6888835Y-3023260D01*
X6891070Y-3014776D01*
X6891883Y-3005531D01*
X6891883Y-2836418D01*
X6891070Y-2827223D01*
X6888835Y-2818739D01*
X6885076Y-2810764D01*
X6880047Y-2803550D01*
X6873849Y-2797352D01*
X6866636Y-2792272D01*
X6858660Y-2788564D01*
X6850125Y-2786278D01*
X6840931Y-2785465D01*
X6810248Y-2785465D01*
X6805930Y-2784551D01*
X6802628Y-2781960D01*
X6798970Y-2784703D01*
X6795058Y-2785465D01*
X6717690Y-2785465D01*
X6713829Y-2784703D01*
X6710172Y-2781960D01*
X6706819Y-2784551D01*
X6702552Y-2785465D01*
X6671818Y-2785465D01*
X6662623Y-2786278D01*
X6654139Y-2788564D01*
X6646164Y-2792272D01*
X6638950Y-2797352D01*
X6632702Y-2803550D01*
X6627672Y-2810764D01*
X6623964Y-2818739D01*
X6621678Y-2827223D01*
X6620865Y-2836418D01*
X6620865Y-2952597D01*
X6620103Y-2956458D01*
X6617919Y-2959760D01*
X6351219Y-3226460D01*
X6343802Y-3235147D01*
X6338011Y-3244596D01*
X6333794Y-3254806D01*
X6331204Y-3265576D01*
X6330289Y-3277006D01*
X6330289Y-3327958D01*
X6329476Y-3331972D01*
X6317945Y-3346704D01*
X6311087Y-3358286D01*
X6305854Y-3370630D01*
X6302298Y-3383584D01*
X6300520Y-3396894D01*
X6300520Y-3410305D01*
X6302298Y-3423615D01*
X6305854Y-3436569D01*
X6311087Y-3448913D01*
X6317945Y-3460445D01*
X6329476Y-3475228D01*
X6330289Y-3479190D01*
X6330289Y-4054601D01*
X6329527Y-4058462D01*
X6327292Y-4061764D01*
X5993282Y-4395825D01*
X5989980Y-4398010D01*
X5986119Y-4398772D01*
X5901944Y-4398772D01*
X5892698Y-4399584D01*
X5884214Y-4401870D01*
X5876239Y-4405579D01*
X5869076Y-4410608D01*
X5861913Y-4417872D01*
X5858611Y-4420108D01*
X5854700Y-4420920D01*
X5850737Y-4420108D01*
X5847435Y-4417872D01*
X5840272Y-4410608D01*
X5833110Y-4405579D01*
X5825134Y-4401870D01*
X5816650Y-4399584D01*
X5807456Y-4398772D01*
X5673344Y-4398772D01*
X5664098Y-4399584D01*
X5655614Y-4401870D01*
X5647639Y-4405579D01*
X5640425Y-4410608D01*
X5634228Y-4416856D01*
X5629198Y-4424070D01*
X5625439Y-4432046D01*
X5622188Y-4444187D01*
X5619953Y-4447184D01*
X5616752Y-4449165D01*
X5613095Y-4449876D01*
X5495798Y-4450283D01*
X5491480Y-4449318D01*
X5487974Y-4446676D01*
X5485942Y-4442764D01*
X5483860Y-4435094D01*
X5480151Y-4427118D01*
X5475122Y-4419904D01*
X5468874Y-4413656D01*
X5461660Y-4408627D01*
X5453684Y-4404918D01*
X5445201Y-4402632D01*
X5436006Y-4401820D01*
X5323636Y-4401820D01*
X5314442Y-4402632D01*
X5305907Y-4404918D01*
X5297932Y-4408627D01*
X5287060Y-4416247D01*
X5283200Y-4417009D01*
X5279288Y-4416247D01*
X5268417Y-4408627D01*
X5260441Y-4404918D01*
X5251958Y-4402632D01*
X5242763Y-4401820D01*
X5130393Y-4401820D01*
X5121148Y-4402632D01*
X5112664Y-4404918D01*
X5104688Y-4408627D01*
X5097475Y-4413656D01*
X5091277Y-4419904D01*
X5086248Y-4427118D01*
X5082489Y-4435094D01*
X5080355Y-4443171D01*
X5078323Y-4447082D01*
X5074818Y-4449724D01*
X5070551Y-4450689D01*
X4784648Y-4450689D01*
X4780381Y-4449724D01*
X4776876Y-4447082D01*
X4774844Y-4443171D01*
X4772660Y-4435094D01*
X4768951Y-4427118D01*
X4763922Y-4419904D01*
X4757674Y-4413656D01*
X4750460Y-4408627D01*
X4742484Y-4404918D01*
X4734001Y-4402632D01*
X4724806Y-4401820D01*
X4612436Y-4401820D01*
X4603242Y-4402632D01*
X4594707Y-4404918D01*
X4586782Y-4408627D01*
X4575860Y-4416247D01*
X4572000Y-4417009D01*
X4568088Y-4416247D01*
X4557217Y-4408627D01*
X4549241Y-4404918D01*
X4540758Y-4402632D01*
X4531563Y-4401820D01*
X4419193Y-4401820D01*
X4409998Y-4402632D01*
X4401464Y-4404918D01*
X4393488Y-4408627D01*
X4386275Y-4413656D01*
X4380077Y-4419904D01*
X4375048Y-4427118D01*
X4371289Y-4435094D01*
X4369155Y-4443171D01*
X4367123Y-4447082D01*
X4363618Y-4449724D01*
X4359351Y-4450689D01*
X4039006Y-4450689D01*
X4035298Y-4449978D01*
X4032148Y-4448048D01*
X4029862Y-4445050D01*
X4026509Y-4432046D01*
X4022801Y-4424070D01*
X4017264Y-4416145D01*
X4015587Y-4412081D01*
X4015740Y-4407712D01*
X4017721Y-4403801D01*
X4024172Y-4394911D01*
X4027881Y-4386935D01*
X4030167Y-4378401D01*
X4030979Y-4369206D01*
X4030979Y-4256836D01*
X4030167Y-4247642D01*
X4027881Y-4239158D01*
X4024172Y-4231182D01*
X4019092Y-4223969D01*
X4012895Y-4217720D01*
X4005681Y-4212691D01*
X4001668Y-4210812D01*
X3998518Y-4208526D01*
X3996436Y-4205224D01*
X3995775Y-4201414D01*
X3996588Y-4197654D01*
X3998772Y-4194403D01*
X4000652Y-4192524D01*
X4003751Y-4187596D01*
X4005630Y-4182160D01*
X4006342Y-4175810D01*
X4006342Y-4166311D01*
X4007154Y-4162450D01*
X4009339Y-4159148D01*
X4012641Y-4156964D01*
X4016501Y-4156151D01*
X4189526Y-4156151D01*
X4197146Y-4155440D01*
X4203954Y-4153357D01*
X4210253Y-4150004D01*
X4216146Y-4145127D01*
X4250283Y-4110990D01*
X4253534Y-4108805D01*
X4257294Y-4107992D01*
X4261154Y-4108704D01*
X4266336Y-4110685D01*
X4279595Y-4113834D01*
X4293158Y-4115206D01*
X4306824Y-4114749D01*
X4320235Y-4112514D01*
X4333290Y-4108450D01*
X4345635Y-4102709D01*
X4357166Y-4095394D01*
X4367580Y-4086555D01*
X4376724Y-4076446D01*
X4384446Y-4065219D01*
X4390593Y-4053027D01*
X4395063Y-4040174D01*
X4397756Y-4026814D01*
X4398670Y-4013200D01*
X4397756Y-3999585D01*
X4395063Y-3986225D01*
X4390593Y-3973322D01*
X4384446Y-3961180D01*
X4376724Y-3949903D01*
X4367580Y-3939794D01*
X4357166Y-3931005D01*
X4345635Y-3923690D01*
X4333290Y-3917950D01*
X4320235Y-3913886D01*
X4306824Y-3911600D01*
X4293158Y-3911142D01*
X4279595Y-3912514D01*
X4266336Y-3915714D01*
X4253636Y-3920591D01*
X4241647Y-3927144D01*
X4230674Y-3935222D01*
X4220870Y-3944721D01*
X4212437Y-3955440D01*
X4205478Y-3967175D01*
X4200144Y-3979722D01*
X4196537Y-3992879D01*
X4194759Y-4006392D01*
X4194759Y-4020007D01*
X4196537Y-4033520D01*
X4200144Y-4046677D01*
X4200906Y-4048404D01*
X4201718Y-4052315D01*
X4200956Y-4056227D01*
X4198721Y-4059580D01*
X4177944Y-4080357D01*
X4174642Y-4082592D01*
X4170730Y-4083354D01*
X4016501Y-4083354D01*
X4012641Y-4082592D01*
X4009339Y-4080357D01*
X4007154Y-4077055D01*
X4006342Y-4073194D01*
X4006342Y-4063695D01*
X4005630Y-4057396D01*
X4003751Y-4051909D01*
X4000652Y-4047032D01*
X3996588Y-4042918D01*
X3991660Y-4039870D01*
X3986225Y-4037939D01*
X3979875Y-4037228D01*
X3843324Y-4037228D01*
X3836974Y-4037939D01*
X3831539Y-4039870D01*
X3826611Y-4042918D01*
X3822547Y-4047032D01*
X3819448Y-4051909D01*
X3817569Y-4057396D01*
X3816858Y-4063695D01*
X3816858Y-4175810D01*
X3817569Y-4182160D01*
X3819448Y-4187596D01*
X3822547Y-4192524D01*
X3824427Y-4194403D01*
X3826611Y-4197654D01*
X3827424Y-4201414D01*
X3826764Y-4205224D01*
X3824681Y-4208526D01*
X3821531Y-4210812D01*
X3817518Y-4212691D01*
X3810304Y-4217720D01*
X3804107Y-4223969D01*
X3799027Y-4231182D01*
X3795318Y-4239158D01*
X3793032Y-4247642D01*
X3792220Y-4256836D01*
X3792220Y-4369206D01*
X3793032Y-4378401D01*
X3795318Y-4386935D01*
X3799027Y-4394911D01*
X3807002Y-4405833D01*
X3807866Y-4409287D01*
X3807561Y-4412792D01*
X3806088Y-4415993D01*
X3799992Y-4424578D01*
X3796741Y-4427575D01*
X3792575Y-4428845D01*
X3788206Y-4428286D01*
X3784498Y-4425899D01*
X3781145Y-4422546D01*
X3773932Y-4417466D01*
X3765956Y-4413758D01*
X3757472Y-4411472D01*
X3748227Y-4410659D01*
X3609136Y-4410659D01*
X3599942Y-4411472D01*
X3591407Y-4413758D01*
X3583432Y-4417466D01*
X3576218Y-4422546D01*
X3570020Y-4428744D01*
X3564991Y-4435957D01*
X3561283Y-4443933D01*
X3558997Y-4452416D01*
X3558184Y-4461611D01*
X3558184Y-4580737D01*
X3558997Y-4589932D01*
X3561283Y-4598466D01*
X3564991Y-4606442D01*
X3570020Y-4613656D01*
X3576218Y-4619853D01*
X3583432Y-4624882D01*
X3591407Y-4628591D01*
X3599942Y-4630877D01*
X3609136Y-4631690D01*
X3748227Y-4631690D01*
X3757472Y-4630877D01*
X3765956Y-4628591D01*
X3773932Y-4624882D01*
X3781145Y-4619853D01*
X3785666Y-4615281D01*
X3789375Y-4612944D01*
X3793744Y-4612386D01*
X3797960Y-4613706D01*
X3801160Y-4616653D01*
X3805428Y-4622749D01*
X3811625Y-4628946D01*
X3816959Y-4632655D01*
X3819906Y-4635855D01*
X3821226Y-4640021D01*
X3820718Y-4644339D01*
X3818890Y-4649520D01*
X3818178Y-4655870D01*
G37*
G36*
X2685084Y-4664710D02*
G01*
X3106115Y-4664710D01*
X3114497Y-4663846D01*
X3122066Y-4661560D01*
X3129076Y-4657801D01*
X3135223Y-4652772D01*
X3140252Y-4646676D01*
X3143961Y-4639665D01*
X3146298Y-4632096D01*
X3147110Y-4623663D01*
X3147110Y-4596892D01*
X3147872Y-4592980D01*
X3150057Y-4589678D01*
X3153359Y-4587494D01*
X3157270Y-4586732D01*
X3213760Y-4586732D01*
X3217976Y-4587595D01*
X3221380Y-4590186D01*
X3223463Y-4593894D01*
X3224326Y-4596688D01*
X3228035Y-4603648D01*
X3233115Y-4609795D01*
X3239211Y-4614824D01*
X3246221Y-4618583D01*
X3253790Y-4620869D01*
X3262223Y-4621682D01*
X3401212Y-4621682D01*
X3409594Y-4620869D01*
X3417163Y-4618583D01*
X3424174Y-4614824D01*
X3430320Y-4609795D01*
X3435350Y-4603648D01*
X3439058Y-4596688D01*
X3441395Y-4589068D01*
X3442208Y-4580686D01*
X3442208Y-4461713D01*
X3441395Y-4453280D01*
X3439058Y-4445711D01*
X3435350Y-4438700D01*
X3430320Y-4432604D01*
X3424174Y-4427524D01*
X3417163Y-4423816D01*
X3412185Y-4422292D01*
X3408476Y-4420209D01*
X3405886Y-4416755D01*
X3405022Y-4412589D01*
X3405022Y-4383379D01*
X3405632Y-4379772D01*
X3407511Y-4376674D01*
X3410356Y-4374438D01*
X3415588Y-4371644D01*
X3421684Y-4366615D01*
X3426714Y-4360468D01*
X3430473Y-4353458D01*
X3432759Y-4345889D01*
X3433622Y-4337507D01*
X3433622Y-4285284D01*
X3432759Y-4276902D01*
X3430473Y-4269333D01*
X3426764Y-4262374D01*
X3420719Y-4255160D01*
X3418789Y-4251553D01*
X3418433Y-4247489D01*
X3418992Y-4242409D01*
X3418992Y-4190339D01*
X3418281Y-4184040D01*
X3416401Y-4178554D01*
X3413709Y-4174286D01*
X3412286Y-4170781D01*
X3412286Y-4167022D01*
X3413709Y-4163466D01*
X3416401Y-4159199D01*
X3418281Y-4153763D01*
X3418992Y-4147413D01*
X3418992Y-4095343D01*
X3418281Y-4089044D01*
X3416401Y-4083558D01*
X3413302Y-4078681D01*
X3409187Y-4074566D01*
X3404362Y-4071569D01*
X3397351Y-4069181D01*
X3393694Y-4067098D01*
X3391255Y-4063695D01*
X3390392Y-4059580D01*
X3390392Y-4014724D01*
X3391052Y-4011066D01*
X3392982Y-4007916D01*
X3395878Y-4005681D01*
X3399434Y-4004614D01*
X3402228Y-4004310D01*
X3407714Y-4002379D01*
X3412591Y-3999280D01*
X3416706Y-3995216D01*
X3420414Y-3989324D01*
X3423208Y-3986377D01*
X3426968Y-3984802D01*
X3431032Y-3984802D01*
X3434791Y-3986377D01*
X3437585Y-3989324D01*
X3441293Y-3995216D01*
X3445357Y-3999280D01*
X3450285Y-4002379D01*
X3455720Y-4004310D01*
X3462070Y-4005021D01*
X3490417Y-4005021D01*
X3490417Y-3951681D01*
X3432556Y-3951681D01*
X3428695Y-3950919D01*
X3425393Y-3948734D01*
X3423158Y-3945432D01*
X3422396Y-3941521D01*
X3422396Y-3881628D01*
X3423158Y-3877767D01*
X3425393Y-3874465D01*
X3428695Y-3872280D01*
X3432556Y-3871468D01*
X3490417Y-3871468D01*
X3490417Y-3818178D01*
X3462070Y-3818178D01*
X3455720Y-3818890D01*
X3450285Y-3820820D01*
X3445357Y-3823868D01*
X3441293Y-3827983D01*
X3437585Y-3833876D01*
X3434791Y-3836822D01*
X3431032Y-3838397D01*
X3426968Y-3838397D01*
X3423208Y-3836771D01*
X3420364Y-3833825D01*
X3416706Y-3827983D01*
X3412591Y-3823868D01*
X3407714Y-3820820D01*
X3402228Y-3818890D01*
X3395929Y-3818178D01*
X3256076Y-3818178D01*
X3249726Y-3818890D01*
X3244291Y-3820820D01*
X3239363Y-3823868D01*
X3235299Y-3827983D01*
X3232200Y-3832860D01*
X3230321Y-3838346D01*
X3229610Y-3844645D01*
X3229610Y-3978503D01*
X3230321Y-3984853D01*
X3232200Y-3990289D01*
X3235299Y-3995216D01*
X3239363Y-3999280D01*
X3244291Y-4002379D01*
X3249726Y-4004310D01*
X3256076Y-4005021D01*
X3278428Y-4005021D01*
X3282289Y-4005783D01*
X3285591Y-4007967D01*
X3287826Y-4011269D01*
X3288588Y-4015181D01*
X3288588Y-4056938D01*
X3287826Y-4060799D01*
X3285591Y-4064101D01*
X3282289Y-4066336D01*
X3278428Y-4067098D01*
X3142640Y-4067098D01*
X3138779Y-4066336D01*
X3135477Y-4064101D01*
X3133293Y-4060799D01*
X3132480Y-4056938D01*
X3132480Y-4012387D01*
X3131769Y-4006037D01*
X3129889Y-4000601D01*
X3126790Y-3995674D01*
X3122726Y-3991610D01*
X3117799Y-3988511D01*
X3112363Y-3986580D01*
X3106013Y-3985869D01*
X2951683Y-3985869D01*
X2947771Y-3985107D01*
X2944469Y-3982923D01*
X2942285Y-3979621D01*
X2941523Y-3975709D01*
X2941523Y-3679647D01*
X2942285Y-3675786D01*
X2944469Y-3672484D01*
X2947771Y-3670300D01*
X2951683Y-3669487D01*
X3102000Y-3669487D01*
X3108350Y-3668776D01*
X3113786Y-3666896D01*
X3118713Y-3663797D01*
X3122777Y-3659682D01*
X3125876Y-3654806D01*
X3127806Y-3649370D01*
X3128518Y-3643020D01*
X3128518Y-3324148D01*
X3127806Y-3317849D01*
X3125876Y-3312363D01*
X3122777Y-3307486D01*
X3118713Y-3303371D01*
X3113786Y-3300323D01*
X3108350Y-3298393D01*
X3102000Y-3297682D01*
X2951683Y-3297682D01*
X2947771Y-3296920D01*
X2944469Y-3294735D01*
X2942285Y-3291433D01*
X2941523Y-3287522D01*
X2941472Y-3198622D01*
X2940253Y-3189884D01*
X2937560Y-3181858D01*
X2933446Y-3174492D01*
X2927705Y-3167583D01*
X2672791Y-2912719D01*
X2665730Y-2907385D01*
X2658160Y-2903626D01*
X2650032Y-2901289D01*
X2641142Y-2900476D01*
X937615Y-2900476D01*
X933754Y-2899714D01*
X930452Y-2897530D01*
X531469Y-2498547D01*
X529285Y-2495245D01*
X528523Y-2491384D01*
X528523Y-1741678D01*
X529285Y-1737766D01*
X531469Y-1734464D01*
X534771Y-1732280D01*
X538683Y-1731518D01*
X562000Y-1731518D01*
X568350Y-1730806D01*
X573786Y-1728876D01*
X578713Y-1725777D01*
X582777Y-1721713D01*
X585876Y-1716786D01*
X587806Y-1711350D01*
X588518Y-1705000D01*
X588518Y-1386179D01*
X587806Y-1379829D01*
X585876Y-1374394D01*
X582777Y-1369466D01*
X578713Y-1365402D01*
X573786Y-1362303D01*
X568350Y-1360373D01*
X562000Y-1359662D01*
X538683Y-1359662D01*
X534771Y-1358900D01*
X531469Y-1356715D01*
X529285Y-1353413D01*
X528523Y-1349502D01*
X528523Y-1232408D01*
X529285Y-1228496D01*
X531469Y-1225245D01*
X534771Y-1223010D01*
X538683Y-1222248D01*
X560781Y-1222248D01*
X567080Y-1221536D01*
X572566Y-1219606D01*
X577443Y-1216558D01*
X581558Y-1212443D01*
X584606Y-1207566D01*
X586536Y-1202080D01*
X587248Y-1195781D01*
X587248Y-1039418D01*
X586536Y-1033119D01*
X584606Y-1027633D01*
X581558Y-1022756D01*
X577443Y-1018641D01*
X572566Y-1015593D01*
X567080Y-1013663D01*
X560781Y-1012952D01*
X404418Y-1012952D01*
X398119Y-1013663D01*
X392633Y-1015593D01*
X387756Y-1018641D01*
X383641Y-1022756D01*
X380593Y-1027633D01*
X378663Y-1033119D01*
X377952Y-1039418D01*
X377952Y-1195781D01*
X378663Y-1202080D01*
X380593Y-1207566D01*
X383641Y-1212443D01*
X387756Y-1216558D01*
X392633Y-1219606D01*
X398119Y-1221536D01*
X404418Y-1222248D01*
X426516Y-1222248D01*
X430428Y-1223010D01*
X433730Y-1225245D01*
X435914Y-1228496D01*
X436676Y-1232408D01*
X436676Y-1349502D01*
X435914Y-1353413D01*
X433730Y-1356715D01*
X430428Y-1358900D01*
X426516Y-1359662D01*
X403148Y-1359662D01*
X396849Y-1360373D01*
X391363Y-1362303D01*
X386486Y-1365402D01*
X382371Y-1369466D01*
X379323Y-1374394D01*
X377393Y-1379829D01*
X376682Y-1386179D01*
X376682Y-1705000D01*
X377393Y-1711350D01*
X379323Y-1716786D01*
X382371Y-1721713D01*
X386486Y-1725777D01*
X391363Y-1728876D01*
X396849Y-1730806D01*
X403148Y-1731518D01*
X426516Y-1731518D01*
X430428Y-1732280D01*
X433730Y-1734464D01*
X435914Y-1737766D01*
X436676Y-1741678D01*
X436727Y-2516378D01*
X437946Y-2525115D01*
X440639Y-2533142D01*
X444754Y-2540508D01*
X450494Y-2547416D01*
X883208Y-2980080D01*
X890269Y-2985414D01*
X897839Y-2989173D01*
X905967Y-2991459D01*
X914857Y-2992323D01*
X2618384Y-2992323D01*
X2622245Y-2993085D01*
X2625547Y-2995269D01*
X2846730Y-3216452D01*
X2848914Y-3219754D01*
X2849676Y-3223615D01*
X2849676Y-3287522D01*
X2848914Y-3291433D01*
X2846730Y-3294735D01*
X2843428Y-3296920D01*
X2839516Y-3297682D01*
X2689148Y-3297682D01*
X2682849Y-3298393D01*
X2677363Y-3300323D01*
X2672486Y-3303371D01*
X2668371Y-3307486D01*
X2665323Y-3312363D01*
X2663393Y-3317849D01*
X2662682Y-3324148D01*
X2662682Y-3643020D01*
X2663393Y-3649370D01*
X2665323Y-3654806D01*
X2668371Y-3659682D01*
X2672486Y-3663797D01*
X2677363Y-3666896D01*
X2682849Y-3668776D01*
X2689148Y-3669487D01*
X2839516Y-3669487D01*
X2843428Y-3670300D01*
X2846730Y-3672484D01*
X2848914Y-3675786D01*
X2849676Y-3679647D01*
X2849676Y-3975709D01*
X2848914Y-3979621D01*
X2846730Y-3982923D01*
X2843428Y-3985107D01*
X2839516Y-3985869D01*
X2685186Y-3985869D01*
X2678836Y-3986580D01*
X2673400Y-3988511D01*
X2668473Y-3991610D01*
X2664409Y-3995674D01*
X2661310Y-4000601D01*
X2659380Y-4006037D01*
X2658668Y-4012387D01*
X2658668Y-4223613D01*
X2659380Y-4229963D01*
X2661310Y-4235399D01*
X2664409Y-4240326D01*
X2668473Y-4244390D01*
X2673400Y-4247489D01*
X2678836Y-4249420D01*
X2685186Y-4250131D01*
X3106013Y-4250131D01*
X3112363Y-4249420D01*
X3117799Y-4247489D01*
X3122726Y-4244390D01*
X3126790Y-4240326D01*
X3129889Y-4235399D01*
X3131769Y-4229963D01*
X3132480Y-4223613D01*
X3132480Y-4179062D01*
X3133293Y-4175201D01*
X3135477Y-4171899D01*
X3138779Y-4169664D01*
X3142640Y-4168901D01*
X3251657Y-4168901D01*
X3255467Y-4169664D01*
X3258718Y-4171746D01*
X3260902Y-4174845D01*
X3261817Y-4178604D01*
X3260699Y-4184040D01*
X3259988Y-4190339D01*
X3259988Y-4242409D01*
X3260547Y-4247489D01*
X3260191Y-4251553D01*
X3258261Y-4255160D01*
X3252215Y-4262374D01*
X3248507Y-4269333D01*
X3246221Y-4276902D01*
X3245408Y-4285284D01*
X3245408Y-4337507D01*
X3246221Y-4345889D01*
X3248507Y-4353458D01*
X3252266Y-4360468D01*
X3257296Y-4366615D01*
X3263442Y-4371644D01*
X3268624Y-4374388D01*
X3271469Y-4376674D01*
X3273348Y-4379772D01*
X3273958Y-4383379D01*
X3273958Y-4410506D01*
X3273196Y-4414418D01*
X3271012Y-4417720D01*
X3267710Y-4419904D01*
X3253790Y-4421530D01*
X3246221Y-4423816D01*
X3239211Y-4427524D01*
X3233115Y-4432604D01*
X3228035Y-4438700D01*
X3224326Y-4445711D01*
X3223463Y-4448505D01*
X3221380Y-4452213D01*
X3217926Y-4454804D01*
X3213760Y-4455668D01*
X3157270Y-4455668D01*
X3153359Y-4454906D01*
X3150057Y-4452721D01*
X3147872Y-4449419D01*
X3147110Y-4445508D01*
X3147110Y-4412284D01*
X3146298Y-4403902D01*
X3143961Y-4396282D01*
X3140252Y-4389323D01*
X3135223Y-4383176D01*
X3129076Y-4378147D01*
X3122066Y-4374388D01*
X3114497Y-4372102D01*
X3106115Y-4371289D01*
X2685084Y-4371289D01*
X2676702Y-4372102D01*
X2669133Y-4374388D01*
X2662123Y-4378147D01*
X2655976Y-4383176D01*
X2650947Y-4389323D01*
X2647238Y-4396282D01*
X2644902Y-4403902D01*
X2644089Y-4412284D01*
X2644089Y-4623663D01*
X2644902Y-4632096D01*
X2647238Y-4639665D01*
X2650947Y-4646676D01*
X2655976Y-4652772D01*
X2662123Y-4657801D01*
X2669133Y-4661560D01*
X2676702Y-4663846D01*
G37*
G36*
X3516274Y-4363923D02*
G01*
X3536137Y-4363923D01*
X3536137Y-4331055D01*
X3489807Y-4331055D01*
X3489807Y-4337405D01*
X3490518Y-4343755D01*
X3492398Y-4349191D01*
X3495497Y-4354118D01*
X3499561Y-4358182D01*
X3504488Y-4361281D01*
X3509924Y-4363212D01*
G37*
G36*
X3602431Y-4363923D02*
G01*
X3622344Y-4363923D01*
X3628644Y-4363212D01*
X3634130Y-4361281D01*
X3639007Y-4358182D01*
X3643122Y-4354118D01*
X3646170Y-4349191D01*
X3648100Y-4343755D01*
X3648811Y-4337405D01*
X3648811Y-4331055D01*
X3602431Y-4331055D01*
G37*
G36*
X3489807Y-4291736D02*
G01*
X3536137Y-4291736D01*
X3536137Y-4236059D01*
X3489807Y-4236059D01*
X3489807Y-4242409D01*
X3490518Y-4248759D01*
X3492398Y-4254195D01*
X3495090Y-4258462D01*
X3496462Y-4262018D01*
X3496462Y-4265777D01*
X3495090Y-4269282D01*
X3492398Y-4273600D01*
X3490518Y-4279036D01*
X3489807Y-4285386D01*
G37*
G36*
X3602431Y-4291736D02*
G01*
X3648811Y-4291736D01*
X3648811Y-4285386D01*
X3648100Y-4279036D01*
X3646170Y-4273600D01*
X3643477Y-4269282D01*
X3642106Y-4265777D01*
X3642106Y-4262018D01*
X3643477Y-4258462D01*
X3646170Y-4254195D01*
X3648100Y-4248759D01*
X3648811Y-4242409D01*
X3648811Y-4236059D01*
X3602431Y-4236059D01*
G37*
G36*
X3489807Y-4196740D02*
G01*
X3536137Y-4196740D01*
X3536137Y-4184040D01*
X3536899Y-4180179D01*
X3539134Y-4176877D01*
X3542436Y-4174693D01*
X3546297Y-4173880D01*
X3592271Y-4173880D01*
X3596182Y-4174693D01*
X3599484Y-4176877D01*
X3601669Y-4180179D01*
X3602431Y-4184040D01*
X3602431Y-4196740D01*
X3648811Y-4196740D01*
X3648811Y-4190339D01*
X3648100Y-4184040D01*
X3646170Y-4178554D01*
X3643477Y-4174286D01*
X3642106Y-4170781D01*
X3642106Y-4167022D01*
X3643477Y-4163466D01*
X3646170Y-4159199D01*
X3648100Y-4153763D01*
X3648811Y-4147413D01*
X3648811Y-4128465D01*
X3649573Y-4124604D01*
X3651758Y-4121302D01*
X3923690Y-3849370D01*
X3926992Y-3847185D01*
X3930904Y-3846423D01*
X5314696Y-3846423D01*
X5318607Y-3847185D01*
X5321909Y-3849370D01*
X5439308Y-3966819D01*
X5441543Y-3970121D01*
X5442305Y-3974033D01*
X5441492Y-3977944D01*
X5440730Y-3979722D01*
X5437174Y-3992879D01*
X5435346Y-4006392D01*
X5435346Y-4020007D01*
X5437174Y-4033520D01*
X5440730Y-4046677D01*
X5446064Y-4059224D01*
X5453024Y-4070959D01*
X5461457Y-4081678D01*
X5471261Y-4091127D01*
X5482234Y-4099255D01*
X5494223Y-4105808D01*
X5506923Y-4110685D01*
X5520232Y-4113834D01*
X5533796Y-4115206D01*
X5547410Y-4114749D01*
X5560872Y-4112514D01*
X5573877Y-4108450D01*
X5586272Y-4102709D01*
X5597753Y-4095394D01*
X5608167Y-4086555D01*
X5617311Y-4076446D01*
X5625033Y-4065219D01*
X5630113Y-4055211D01*
X5632348Y-4052214D01*
X5635498Y-4050284D01*
X5639155Y-4049623D01*
X5685282Y-4049623D01*
X5689142Y-4050385D01*
X5692394Y-4052519D01*
X5694629Y-4055821D01*
X5696051Y-4059224D01*
X5703011Y-4070959D01*
X5711494Y-4081678D01*
X5721299Y-4091127D01*
X5732272Y-4099255D01*
X5744210Y-4105808D01*
X5756960Y-4110685D01*
X5770219Y-4113834D01*
X5783783Y-4115206D01*
X5797397Y-4114749D01*
X5810859Y-4112514D01*
X5823864Y-4108450D01*
X5836259Y-4102709D01*
X5847740Y-4095394D01*
X5858154Y-4086555D01*
X5867298Y-4076446D01*
X5875020Y-4065219D01*
X5881166Y-4053027D01*
X5885637Y-4040174D01*
X5888380Y-4026814D01*
X5889294Y-4013200D01*
X5888380Y-3999585D01*
X5885637Y-3986225D01*
X5881166Y-3973322D01*
X5875020Y-3961180D01*
X5867298Y-3949903D01*
X5858154Y-3939794D01*
X5847740Y-3931005D01*
X5836259Y-3923690D01*
X5833516Y-3922369D01*
X5830366Y-3920134D01*
X5828334Y-3916934D01*
X5827623Y-3913174D01*
X5827623Y-3745331D01*
X5828385Y-3741420D01*
X5830570Y-3738118D01*
X5833872Y-3735933D01*
X5837783Y-3735171D01*
X5859475Y-3735171D01*
X5865774Y-3734460D01*
X5871260Y-3732529D01*
X5876137Y-3729431D01*
X5880252Y-3725367D01*
X5883351Y-3720439D01*
X5885230Y-3715004D01*
X5885942Y-3708654D01*
X5885942Y-3596538D01*
X5885230Y-3590239D01*
X5883351Y-3584803D01*
X5880252Y-3579876D01*
X5876137Y-3575812D01*
X5871260Y-3572713D01*
X5865774Y-3570782D01*
X5859475Y-3570071D01*
X5722924Y-3570071D01*
X5716574Y-3570782D01*
X5711139Y-3572713D01*
X5706211Y-3575812D01*
X5702147Y-3579876D01*
X5698439Y-3585768D01*
X5696204Y-3588308D01*
X5693206Y-3589934D01*
X5689346Y-3590493D01*
X5685993Y-3589934D01*
X5682996Y-3588308D01*
X5680710Y-3585768D01*
X5677052Y-3579876D01*
X5672937Y-3575812D01*
X5668060Y-3572713D01*
X5662574Y-3570782D01*
X5656275Y-3570071D01*
X5519724Y-3570071D01*
X5513374Y-3570782D01*
X5507939Y-3572713D01*
X5503011Y-3575812D01*
X5498947Y-3579876D01*
X5495848Y-3584803D01*
X5493918Y-3590239D01*
X5493207Y-3596538D01*
X5493207Y-3708654D01*
X5493918Y-3715004D01*
X5495848Y-3720439D01*
X5498947Y-3725367D01*
X5503011Y-3729431D01*
X5507939Y-3732529D01*
X5513374Y-3734460D01*
X5519724Y-3735171D01*
X5656275Y-3735171D01*
X5662574Y-3734460D01*
X5668060Y-3732529D01*
X5672937Y-3729431D01*
X5677052Y-3725367D01*
X5680710Y-3719474D01*
X5682996Y-3716934D01*
X5685993Y-3715308D01*
X5689854Y-3714750D01*
X5693206Y-3715308D01*
X5696204Y-3716934D01*
X5698439Y-3719474D01*
X5702147Y-3725367D01*
X5706211Y-3729431D01*
X5711139Y-3732529D01*
X5716574Y-3734460D01*
X5722924Y-3735171D01*
X5744616Y-3735171D01*
X5748528Y-3735933D01*
X5751830Y-3738118D01*
X5754014Y-3741420D01*
X5754776Y-3745331D01*
X5754776Y-3909568D01*
X5753963Y-3913530D01*
X5751677Y-3916832D01*
X5748274Y-3919016D01*
X5744210Y-3920591D01*
X5732272Y-3927144D01*
X5721299Y-3935222D01*
X5711494Y-3944721D01*
X5703011Y-3955440D01*
X5696051Y-3967175D01*
X5694629Y-3970578D01*
X5692394Y-3973880D01*
X5689142Y-3976014D01*
X5685282Y-3976776D01*
X5639155Y-3976776D01*
X5635498Y-3976115D01*
X5632348Y-3974185D01*
X5630113Y-3971239D01*
X5625033Y-3961180D01*
X5617311Y-3949903D01*
X5608167Y-3939794D01*
X5597753Y-3931005D01*
X5586272Y-3923690D01*
X5573877Y-3917950D01*
X5560872Y-3913886D01*
X5547410Y-3911600D01*
X5533796Y-3911142D01*
X5520232Y-3912514D01*
X5506923Y-3915714D01*
X5501741Y-3917696D01*
X5497931Y-3918356D01*
X5494121Y-3917594D01*
X5490870Y-3915410D01*
X5360111Y-3784600D01*
X5354167Y-3779774D01*
X5347919Y-3776421D01*
X5341061Y-3774338D01*
X5333492Y-3773576D01*
X3912108Y-3773576D01*
X3904487Y-3774338D01*
X3897680Y-3776421D01*
X3891381Y-3779774D01*
X3885488Y-3784600D01*
X3604209Y-4065930D01*
X3600907Y-4068114D01*
X3596995Y-4068876D01*
X3516274Y-4068876D01*
X3509924Y-4069587D01*
X3504488Y-4071518D01*
X3499561Y-4074566D01*
X3495497Y-4078681D01*
X3492398Y-4083558D01*
X3490518Y-4089044D01*
X3489807Y-4095343D01*
X3489807Y-4147413D01*
X3490518Y-4153763D01*
X3492398Y-4159199D01*
X3495090Y-4163466D01*
X3496462Y-4167022D01*
X3496462Y-4170781D01*
X3495090Y-4174286D01*
X3492398Y-4178554D01*
X3490518Y-4184040D01*
X3489807Y-4190339D01*
G37*
G36*
X4543196Y-4115206D02*
G01*
X4556810Y-4114749D01*
X4570272Y-4112514D01*
X4583277Y-4108450D01*
X4595672Y-4102709D01*
X4607153Y-4095394D01*
X4617567Y-4086555D01*
X4626711Y-4076446D01*
X4634433Y-4065219D01*
X4639513Y-4055211D01*
X4641748Y-4052214D01*
X4644898Y-4050284D01*
X4648555Y-4049623D01*
X4694682Y-4049623D01*
X4698542Y-4050385D01*
X4701794Y-4052519D01*
X4704029Y-4055821D01*
X4705502Y-4059224D01*
X4712411Y-4070959D01*
X4720894Y-4081678D01*
X4730699Y-4091127D01*
X4741672Y-4099255D01*
X4753610Y-4105808D01*
X4766360Y-4110685D01*
X4779619Y-4113834D01*
X4793183Y-4115206D01*
X4806797Y-4114749D01*
X4820259Y-4112514D01*
X4833264Y-4108450D01*
X4845659Y-4102709D01*
X4857140Y-4095394D01*
X4867554Y-4086555D01*
X4876698Y-4076446D01*
X4884420Y-4065219D01*
X4889500Y-4055211D01*
X4891735Y-4052214D01*
X4894935Y-4050284D01*
X4898542Y-4049623D01*
X5185257Y-4049623D01*
X5189118Y-4050385D01*
X5192420Y-4052519D01*
X5194604Y-4055821D01*
X5196078Y-4059224D01*
X5203037Y-4070959D01*
X5211470Y-4081678D01*
X5221274Y-4091127D01*
X5232247Y-4099255D01*
X5244236Y-4105808D01*
X5256936Y-4110685D01*
X5270195Y-4113834D01*
X5283758Y-4115206D01*
X5297424Y-4114749D01*
X5310835Y-4112514D01*
X5323890Y-4108450D01*
X5336235Y-4102709D01*
X5347766Y-4095394D01*
X5358180Y-4086555D01*
X5367324Y-4076446D01*
X5375046Y-4065219D01*
X5381193Y-4053027D01*
X5385663Y-4040174D01*
X5388356Y-4026814D01*
X5389270Y-4013200D01*
X5388356Y-3999585D01*
X5385663Y-3986225D01*
X5381193Y-3973322D01*
X5375046Y-3961180D01*
X5367324Y-3949903D01*
X5358180Y-3939794D01*
X5347766Y-3931005D01*
X5336235Y-3923690D01*
X5323890Y-3917950D01*
X5310835Y-3913886D01*
X5297424Y-3911600D01*
X5283758Y-3911142D01*
X5270195Y-3912514D01*
X5256936Y-3915714D01*
X5244236Y-3920591D01*
X5232247Y-3927144D01*
X5221274Y-3935222D01*
X5211470Y-3944721D01*
X5203037Y-3955440D01*
X5196078Y-3967175D01*
X5194604Y-3970578D01*
X5192420Y-3973880D01*
X5189118Y-3976014D01*
X5185257Y-3976776D01*
X4898593Y-3976776D01*
X4894935Y-3976115D01*
X4891735Y-3974185D01*
X4889500Y-3971239D01*
X4884420Y-3961180D01*
X4876698Y-3949903D01*
X4867554Y-3939794D01*
X4857140Y-3931005D01*
X4845659Y-3923690D01*
X4833264Y-3917950D01*
X4820259Y-3913886D01*
X4806797Y-3911600D01*
X4793183Y-3911142D01*
X4779619Y-3912514D01*
X4766360Y-3915714D01*
X4753610Y-3920591D01*
X4741672Y-3927144D01*
X4730699Y-3935222D01*
X4720894Y-3944721D01*
X4712411Y-3955440D01*
X4705502Y-3967175D01*
X4704029Y-3970578D01*
X4701794Y-3973880D01*
X4698542Y-3976014D01*
X4694682Y-3976776D01*
X4648555Y-3976776D01*
X4644898Y-3976115D01*
X4641748Y-3974185D01*
X4639513Y-3971239D01*
X4634433Y-3961180D01*
X4626711Y-3949903D01*
X4617567Y-3939794D01*
X4607153Y-3931005D01*
X4595672Y-3923690D01*
X4583277Y-3917950D01*
X4570272Y-3913886D01*
X4556810Y-3911600D01*
X4543196Y-3911142D01*
X4529632Y-3912514D01*
X4516323Y-3915714D01*
X4503623Y-3920591D01*
X4491685Y-3927144D01*
X4480661Y-3935222D01*
X4470857Y-3944721D01*
X4462424Y-3955440D01*
X4455464Y-3967175D01*
X4450130Y-3979722D01*
X4446574Y-3992879D01*
X4444746Y-4006392D01*
X4444746Y-4020007D01*
X4446574Y-4033520D01*
X4450130Y-4046677D01*
X4455464Y-4059224D01*
X4462424Y-4070959D01*
X4470857Y-4081678D01*
X4480661Y-4091127D01*
X4491685Y-4099255D01*
X4503623Y-4105808D01*
X4516323Y-4110685D01*
X4529632Y-4113834D01*
G37*
G36*
X3573576Y-4005021D02*
G01*
X3601923Y-4005021D01*
X3608222Y-4004310D01*
X3613708Y-4002379D01*
X3618585Y-3999280D01*
X3622700Y-3995216D01*
X3625799Y-3990289D01*
X3627678Y-3984853D01*
X3628390Y-3978503D01*
X3628390Y-3951681D01*
X3573576Y-3951681D01*
G37*
G36*
X3573576Y-3871468D02*
G01*
X3628390Y-3871468D01*
X3628390Y-3844645D01*
X3627678Y-3838346D01*
X3625799Y-3832860D01*
X3622700Y-3827983D01*
X3618585Y-3823868D01*
X3613708Y-3820820D01*
X3608222Y-3818890D01*
X3601923Y-3818178D01*
X3573576Y-3818178D01*
G37*
G36*
X657148Y-3669487D02*
G01*
X690270Y-3669487D01*
X690270Y-3569970D01*
X630682Y-3569970D01*
X630682Y-3643020D01*
X631393Y-3649370D01*
X633323Y-3654806D01*
X636371Y-3659682D01*
X640486Y-3663797D01*
X645363Y-3666896D01*
X650849Y-3668776D01*
G37*
G36*
X782929Y-3669487D02*
G01*
X816000Y-3669487D01*
X822350Y-3668776D01*
X827786Y-3666896D01*
X832713Y-3663797D01*
X836777Y-3659682D01*
X839876Y-3654806D01*
X841806Y-3649370D01*
X842518Y-3643020D01*
X842518Y-3569970D01*
X782929Y-3569970D01*
G37*
G36*
X1927148Y-3669487D02*
G01*
X1960270Y-3669487D01*
X1960270Y-3569970D01*
X1900682Y-3569970D01*
X1900682Y-3643020D01*
X1901393Y-3649370D01*
X1903323Y-3654806D01*
X1906371Y-3659682D01*
X1910486Y-3663797D01*
X1915363Y-3666896D01*
X1920849Y-3668776D01*
G37*
G36*
X4467148Y-3669487D02*
G01*
X4500270Y-3669487D01*
X4500270Y-3569970D01*
X4440682Y-3569970D01*
X4440682Y-3643020D01*
X4441393Y-3649370D01*
X4443323Y-3654806D01*
X4446371Y-3659682D01*
X4450486Y-3663797D01*
X4455363Y-3666896D01*
X4460849Y-3668776D01*
G37*
G36*
X3197148Y-3669487D02*
G01*
X3230270Y-3669487D01*
X3230270Y-3569970D01*
X3170682Y-3569970D01*
X3170682Y-3643020D01*
X3171393Y-3649370D01*
X3173323Y-3654806D01*
X3176371Y-3659682D01*
X3180486Y-3663797D01*
X3185363Y-3666896D01*
X3190849Y-3668776D01*
G37*
G36*
X2052929Y-3669487D02*
G01*
X2086000Y-3669487D01*
X2092350Y-3668776D01*
X2097786Y-3666896D01*
X2102713Y-3663797D01*
X2106777Y-3659682D01*
X2109876Y-3654806D01*
X2111806Y-3649370D01*
X2112518Y-3643020D01*
X2112518Y-3569970D01*
X2052929Y-3569970D01*
G37*
G36*
X4592929Y-3669487D02*
G01*
X4626000Y-3669487D01*
X4632350Y-3668776D01*
X4637786Y-3666896D01*
X4642713Y-3663797D01*
X4646777Y-3659682D01*
X4649876Y-3654806D01*
X4651806Y-3649370D01*
X4652518Y-3643020D01*
X4652518Y-3569970D01*
X4592929Y-3569970D01*
G37*
G36*
X3322929Y-3669487D02*
G01*
X3356000Y-3669487D01*
X3362350Y-3668776D01*
X3367786Y-3666896D01*
X3372713Y-3663797D01*
X3376777Y-3659682D01*
X3379876Y-3654806D01*
X3381806Y-3649370D01*
X3382518Y-3643020D01*
X3382518Y-3569970D01*
X3322929Y-3569970D01*
G37*
G36*
X403148Y-3669487D02*
G01*
X562000Y-3669487D01*
X568350Y-3668776D01*
X573786Y-3666896D01*
X578713Y-3663797D01*
X582777Y-3659682D01*
X585876Y-3654806D01*
X587806Y-3649370D01*
X588518Y-3643020D01*
X588518Y-3324148D01*
X587806Y-3317849D01*
X585876Y-3312363D01*
X582777Y-3307486D01*
X578713Y-3303371D01*
X573786Y-3300323D01*
X568350Y-3298393D01*
X562000Y-3297682D01*
X403148Y-3297682D01*
X396849Y-3298393D01*
X391363Y-3300323D01*
X386486Y-3303371D01*
X382371Y-3307486D01*
X379323Y-3312363D01*
X377393Y-3317849D01*
X376682Y-3324148D01*
X376682Y-3643020D01*
X377393Y-3649370D01*
X379323Y-3654806D01*
X382371Y-3659682D01*
X386486Y-3663797D01*
X391363Y-3666896D01*
X396849Y-3668776D01*
G37*
G36*
X149148Y-3669487D02*
G01*
X308000Y-3669487D01*
X314350Y-3668776D01*
X319786Y-3666896D01*
X324713Y-3663797D01*
X328777Y-3659682D01*
X331876Y-3654806D01*
X333806Y-3649370D01*
X334518Y-3643020D01*
X334518Y-3324148D01*
X333806Y-3317849D01*
X331876Y-3312363D01*
X328777Y-3307486D01*
X324713Y-3303371D01*
X319786Y-3300323D01*
X314350Y-3298393D01*
X308000Y-3297682D01*
X149148Y-3297682D01*
X142849Y-3298393D01*
X137363Y-3300323D01*
X132486Y-3303371D01*
X128371Y-3307486D01*
X125323Y-3312363D01*
X123393Y-3317849D01*
X122682Y-3324148D01*
X122682Y-3643020D01*
X123393Y-3649370D01*
X125323Y-3654806D01*
X128371Y-3659682D01*
X132486Y-3663797D01*
X137363Y-3666896D01*
X142849Y-3668776D01*
G37*
G36*
X4213148Y-3669487D02*
G01*
X4372000Y-3669487D01*
X4378350Y-3668776D01*
X4383786Y-3666896D01*
X4388713Y-3663797D01*
X4392777Y-3659682D01*
X4395876Y-3654806D01*
X4397806Y-3649370D01*
X4398518Y-3643020D01*
X4398518Y-3324148D01*
X4397806Y-3317849D01*
X4395876Y-3312363D01*
X4392777Y-3307486D01*
X4388713Y-3303371D01*
X4383786Y-3300323D01*
X4378350Y-3298393D01*
X4372000Y-3297682D01*
X4213148Y-3297682D01*
X4206849Y-3298393D01*
X4201363Y-3300323D01*
X4196486Y-3303371D01*
X4192371Y-3307486D01*
X4189323Y-3312363D01*
X4187393Y-3317849D01*
X4186682Y-3324148D01*
X4186682Y-3643020D01*
X4187393Y-3649370D01*
X4189323Y-3654806D01*
X4192371Y-3659682D01*
X4196486Y-3663797D01*
X4201363Y-3666896D01*
X4206849Y-3668776D01*
G37*
G36*
X3705148Y-3669487D02*
G01*
X3864000Y-3669487D01*
X3870350Y-3668776D01*
X3875786Y-3666896D01*
X3880713Y-3663797D01*
X3884777Y-3659682D01*
X3887876Y-3654806D01*
X3889806Y-3649370D01*
X3890518Y-3643020D01*
X3890518Y-3324148D01*
X3889806Y-3317849D01*
X3887876Y-3312363D01*
X3884777Y-3307486D01*
X3880713Y-3303371D01*
X3875786Y-3300323D01*
X3870350Y-3298393D01*
X3864000Y-3297682D01*
X3705148Y-3297682D01*
X3698849Y-3298393D01*
X3693363Y-3300323D01*
X3688486Y-3303371D01*
X3684371Y-3307486D01*
X3681323Y-3312363D01*
X3679393Y-3317849D01*
X3678682Y-3324148D01*
X3678682Y-3643020D01*
X3679393Y-3649370D01*
X3681323Y-3654806D01*
X3684371Y-3659682D01*
X3688486Y-3663797D01*
X3693363Y-3666896D01*
X3698849Y-3668776D01*
G37*
G36*
X3451148Y-3669487D02*
G01*
X3610000Y-3669487D01*
X3616350Y-3668776D01*
X3621786Y-3666896D01*
X3626713Y-3663797D01*
X3630777Y-3659682D01*
X3633876Y-3654806D01*
X3635806Y-3649370D01*
X3636518Y-3643020D01*
X3636518Y-3324148D01*
X3635806Y-3317849D01*
X3633876Y-3312363D01*
X3630777Y-3307486D01*
X3626713Y-3303371D01*
X3621786Y-3300323D01*
X3616350Y-3298393D01*
X3610000Y-3297682D01*
X3451148Y-3297682D01*
X3444849Y-3298393D01*
X3439363Y-3300323D01*
X3434486Y-3303371D01*
X3430371Y-3307486D01*
X3427323Y-3312363D01*
X3425393Y-3317849D01*
X3424682Y-3324148D01*
X3424682Y-3643020D01*
X3425393Y-3649370D01*
X3427323Y-3654806D01*
X3430371Y-3659682D01*
X3434486Y-3663797D01*
X3439363Y-3666896D01*
X3444849Y-3668776D01*
G37*
G36*
X4721148Y-3669487D02*
G01*
X4880000Y-3669487D01*
X4886350Y-3668776D01*
X4891786Y-3666896D01*
X4896713Y-3663797D01*
X4900777Y-3659682D01*
X4903876Y-3654806D01*
X4905806Y-3649370D01*
X4906518Y-3643020D01*
X4906518Y-3324148D01*
X4905806Y-3317849D01*
X4903876Y-3312363D01*
X4900777Y-3307486D01*
X4896713Y-3303371D01*
X4891786Y-3300323D01*
X4886350Y-3298393D01*
X4880000Y-3297682D01*
X4721148Y-3297682D01*
X4714849Y-3298393D01*
X4709363Y-3300323D01*
X4704486Y-3303371D01*
X4700371Y-3307486D01*
X4697323Y-3312363D01*
X4695393Y-3317849D01*
X4694682Y-3324148D01*
X4694682Y-3643020D01*
X4695393Y-3649370D01*
X4697323Y-3654806D01*
X4700371Y-3659682D01*
X4704486Y-3663797D01*
X4709363Y-3666896D01*
X4714849Y-3668776D01*
G37*
G36*
X3959148Y-3669487D02*
G01*
X4118000Y-3669487D01*
X4124350Y-3668776D01*
X4129786Y-3666896D01*
X4134713Y-3663797D01*
X4138777Y-3659682D01*
X4141876Y-3654806D01*
X4143806Y-3649370D01*
X4144518Y-3643020D01*
X4144518Y-3324148D01*
X4143806Y-3317849D01*
X4141876Y-3312363D01*
X4138777Y-3307486D01*
X4134713Y-3303371D01*
X4129786Y-3300323D01*
X4124350Y-3298393D01*
X4118000Y-3297682D01*
X3959148Y-3297682D01*
X3952849Y-3298393D01*
X3947363Y-3300323D01*
X3942486Y-3303371D01*
X3938371Y-3307486D01*
X3935323Y-3312363D01*
X3933393Y-3317849D01*
X3932682Y-3324148D01*
X3932682Y-3643020D01*
X3933393Y-3649370D01*
X3935323Y-3654806D01*
X3938371Y-3659682D01*
X3942486Y-3663797D01*
X3947363Y-3666896D01*
X3952849Y-3668776D01*
G37*
G36*
X2435148Y-3669487D02*
G01*
X2594000Y-3669487D01*
X2600350Y-3668776D01*
X2605786Y-3666896D01*
X2610713Y-3663797D01*
X2614777Y-3659682D01*
X2617876Y-3654806D01*
X2619806Y-3649370D01*
X2620518Y-3643020D01*
X2620518Y-3324148D01*
X2619806Y-3317849D01*
X2617876Y-3312363D01*
X2614777Y-3307486D01*
X2610713Y-3303371D01*
X2605786Y-3300323D01*
X2600350Y-3298393D01*
X2594000Y-3297682D01*
X2435148Y-3297682D01*
X2428849Y-3298393D01*
X2423363Y-3300323D01*
X2418486Y-3303371D01*
X2414371Y-3307486D01*
X2411323Y-3312363D01*
X2409393Y-3317849D01*
X2408682Y-3324148D01*
X2408682Y-3643020D01*
X2409393Y-3649370D01*
X2411323Y-3654806D01*
X2414371Y-3659682D01*
X2418486Y-3663797D01*
X2423363Y-3666896D01*
X2428849Y-3668776D01*
G37*
G36*
X2181148Y-3669487D02*
G01*
X2340000Y-3669487D01*
X2346350Y-3668776D01*
X2351786Y-3666896D01*
X2356713Y-3663797D01*
X2360777Y-3659682D01*
X2363876Y-3654806D01*
X2365806Y-3649370D01*
X2366518Y-3643020D01*
X2366518Y-3324148D01*
X2365806Y-3317849D01*
X2363876Y-3312363D01*
X2360777Y-3307486D01*
X2356713Y-3303371D01*
X2351786Y-3300323D01*
X2346350Y-3298393D01*
X2340000Y-3297682D01*
X2181148Y-3297682D01*
X2174849Y-3298393D01*
X2169363Y-3300323D01*
X2164486Y-3303371D01*
X2160371Y-3307486D01*
X2157323Y-3312363D01*
X2155393Y-3317849D01*
X2154682Y-3324148D01*
X2154682Y-3643020D01*
X2155393Y-3649370D01*
X2157323Y-3654806D01*
X2160371Y-3659682D01*
X2164486Y-3663797D01*
X2169363Y-3666896D01*
X2174849Y-3668776D01*
G37*
G36*
X4975148Y-3669487D02*
G01*
X5134000Y-3669487D01*
X5140350Y-3668776D01*
X5145786Y-3666896D01*
X5150713Y-3663797D01*
X5154777Y-3659682D01*
X5157876Y-3654806D01*
X5159806Y-3649370D01*
X5160518Y-3643020D01*
X5160518Y-3324148D01*
X5159806Y-3317849D01*
X5157876Y-3312363D01*
X5154777Y-3307486D01*
X5150713Y-3303371D01*
X5145786Y-3300323D01*
X5140350Y-3298393D01*
X5134000Y-3297682D01*
X4975148Y-3297682D01*
X4968849Y-3298393D01*
X4963363Y-3300323D01*
X4958486Y-3303371D01*
X4954371Y-3307486D01*
X4951323Y-3312363D01*
X4949393Y-3317849D01*
X4948682Y-3324148D01*
X4948682Y-3643020D01*
X4949393Y-3649370D01*
X4951323Y-3654806D01*
X4954371Y-3659682D01*
X4958486Y-3663797D01*
X4963363Y-3666896D01*
X4968849Y-3668776D01*
G37*
G36*
X5519724Y-3541877D02*
G01*
X5547207Y-3541877D01*
X5547207Y-3494024D01*
X5493207Y-3494024D01*
X5493207Y-3515410D01*
X5493918Y-3521760D01*
X5495848Y-3527196D01*
X5498947Y-3532124D01*
X5503011Y-3536187D01*
X5507939Y-3539286D01*
X5513374Y-3541166D01*
G37*
G36*
X5831992Y-3541877D02*
G01*
X5859475Y-3541877D01*
X5865774Y-3541166D01*
X5871260Y-3539286D01*
X5876137Y-3536187D01*
X5880252Y-3532124D01*
X5883351Y-3527196D01*
X5885230Y-3521760D01*
X5885942Y-3515410D01*
X5885942Y-3494024D01*
X5831992Y-3494024D01*
G37*
G36*
X5628741Y-3541877D02*
G01*
X5656275Y-3541877D01*
X5662574Y-3541166D01*
X5668060Y-3539286D01*
X5672937Y-3536187D01*
X5677052Y-3532124D01*
X5680710Y-3526231D01*
X5682996Y-3523691D01*
X5685993Y-3522065D01*
X5689854Y-3521506D01*
X5693206Y-3522065D01*
X5696204Y-3523691D01*
X5698439Y-3526231D01*
X5702147Y-3532124D01*
X5706211Y-3536187D01*
X5711139Y-3539286D01*
X5716574Y-3541166D01*
X5722924Y-3541877D01*
X5750407Y-3541877D01*
X5750407Y-3494024D01*
X5628741Y-3494024D01*
G37*
G36*
X5493207Y-3424682D02*
G01*
X5547207Y-3424682D01*
X5547207Y-3376828D01*
X5519724Y-3376828D01*
X5513374Y-3377539D01*
X5507939Y-3379470D01*
X5503011Y-3382518D01*
X5498947Y-3386632D01*
X5495848Y-3391509D01*
X5493918Y-3396996D01*
X5493207Y-3403295D01*
G37*
G36*
X5831992Y-3424682D02*
G01*
X5885942Y-3424682D01*
X5885942Y-3403295D01*
X5885230Y-3396996D01*
X5883351Y-3391509D01*
X5880252Y-3386632D01*
X5876137Y-3382518D01*
X5871260Y-3379470D01*
X5865774Y-3377539D01*
X5859475Y-3376828D01*
X5831992Y-3376828D01*
G37*
G36*
X5628741Y-3424682D02*
G01*
X5750407Y-3424682D01*
X5750407Y-3376828D01*
X5722924Y-3376828D01*
X5716574Y-3377539D01*
X5711139Y-3379470D01*
X5706211Y-3382518D01*
X5702147Y-3386632D01*
X5698439Y-3392474D01*
X5696204Y-3395014D01*
X5693206Y-3396691D01*
X5689346Y-3397250D01*
X5685993Y-3396691D01*
X5682996Y-3395014D01*
X5680710Y-3392474D01*
X5677052Y-3386632D01*
X5672937Y-3382518D01*
X5668060Y-3379470D01*
X5662574Y-3377539D01*
X5656275Y-3376828D01*
X5628741Y-3376828D01*
G37*
G36*
X630682Y-3397250D02*
G01*
X690270Y-3397250D01*
X690270Y-3297682D01*
X657148Y-3297682D01*
X650849Y-3298393D01*
X645363Y-3300323D01*
X640486Y-3303371D01*
X636371Y-3307486D01*
X633323Y-3312363D01*
X631393Y-3317849D01*
X630682Y-3324148D01*
G37*
G36*
X782929Y-3397250D02*
G01*
X842518Y-3397250D01*
X842518Y-3324148D01*
X841806Y-3317849D01*
X839876Y-3312363D01*
X836777Y-3307486D01*
X832713Y-3303371D01*
X827786Y-3300323D01*
X822350Y-3298393D01*
X816000Y-3297682D01*
X782929Y-3297682D01*
G37*
G36*
X1900682Y-3397250D02*
G01*
X1960270Y-3397250D01*
X1960270Y-3297682D01*
X1927148Y-3297682D01*
X1920849Y-3298393D01*
X1915363Y-3300323D01*
X1910486Y-3303371D01*
X1906371Y-3307486D01*
X1903323Y-3312363D01*
X1901393Y-3317849D01*
X1900682Y-3324148D01*
G37*
G36*
X4440682Y-3397250D02*
G01*
X4500270Y-3397250D01*
X4500270Y-3297682D01*
X4467148Y-3297682D01*
X4460849Y-3298393D01*
X4455363Y-3300323D01*
X4450486Y-3303371D01*
X4446371Y-3307486D01*
X4443323Y-3312363D01*
X4441393Y-3317849D01*
X4440682Y-3324148D01*
G37*
G36*
X3170682Y-3397250D02*
G01*
X3230270Y-3397250D01*
X3230270Y-3297682D01*
X3197148Y-3297682D01*
X3190849Y-3298393D01*
X3185363Y-3300323D01*
X3180486Y-3303371D01*
X3176371Y-3307486D01*
X3173323Y-3312363D01*
X3171393Y-3317849D01*
X3170682Y-3324148D01*
G37*
G36*
X3322929Y-3397250D02*
G01*
X3382518Y-3397250D01*
X3382518Y-3324148D01*
X3381806Y-3317849D01*
X3379876Y-3312363D01*
X3376777Y-3307486D01*
X3372713Y-3303371D01*
X3367786Y-3300323D01*
X3362350Y-3298393D01*
X3356000Y-3297682D01*
X3322929Y-3297682D01*
G37*
G36*
X4592929Y-3397250D02*
G01*
X4652518Y-3397250D01*
X4652518Y-3324148D01*
X4651806Y-3317849D01*
X4649876Y-3312363D01*
X4646777Y-3307486D01*
X4642713Y-3303371D01*
X4637786Y-3300323D01*
X4632350Y-3298393D01*
X4626000Y-3297682D01*
X4592929Y-3297682D01*
G37*
G36*
X2052929Y-3397250D02*
G01*
X2112518Y-3397250D01*
X2112518Y-3324148D01*
X2111806Y-3317849D01*
X2109876Y-3312363D01*
X2106777Y-3307486D01*
X2102713Y-3303371D01*
X2097786Y-3300323D01*
X2092350Y-3298393D01*
X2086000Y-3297682D01*
X2052929Y-3297682D01*
G37*
G36*
X6074867Y-3142742D02*
G01*
X6096254Y-3142742D01*
X6102604Y-3142030D01*
X6108039Y-3140151D01*
X6112967Y-3137052D01*
X6117031Y-3132937D01*
X6120130Y-3128060D01*
X6122060Y-3122574D01*
X6122771Y-3116275D01*
X6122771Y-3088792D01*
X6074867Y-3088792D01*
G37*
G36*
X5984138Y-3142742D02*
G01*
X6005576Y-3142742D01*
X6005576Y-3088792D01*
X5957671Y-3088792D01*
X5957671Y-3116275D01*
X5958382Y-3122574D01*
X5960313Y-3128060D01*
X5963361Y-3132937D01*
X5967476Y-3137052D01*
X5972352Y-3140151D01*
X5977839Y-3142030D01*
G37*
G36*
X5790895Y-3142742D02*
G01*
X5903010Y-3142742D01*
X5909360Y-3142030D01*
X5914796Y-3140151D01*
X5919724Y-3137052D01*
X5923788Y-3132937D01*
X5926886Y-3128060D01*
X5928766Y-3122574D01*
X5929477Y-3116275D01*
X5929477Y-2979724D01*
X5928766Y-2973374D01*
X5926886Y-2967939D01*
X5923788Y-2963011D01*
X5919724Y-2958947D01*
X5914796Y-2955848D01*
X5909360Y-2953969D01*
X5903010Y-2953258D01*
X5893511Y-2953258D01*
X5889650Y-2952445D01*
X5886348Y-2950260D01*
X5884113Y-2946958D01*
X5883351Y-2943098D01*
X5883351Y-2817368D01*
X5884062Y-2813608D01*
X5886145Y-2810408D01*
X5889244Y-2808173D01*
X5891072Y-2807309D01*
X5902553Y-2799994D01*
X5912967Y-2791155D01*
X5922111Y-2781046D01*
X5929833Y-2769819D01*
X5935980Y-2757627D01*
X5940450Y-2744774D01*
X5943142Y-2731414D01*
X5944057Y-2717800D01*
X5943142Y-2704185D01*
X5940450Y-2690825D01*
X5935980Y-2677922D01*
X5929833Y-2665780D01*
X5922111Y-2654503D01*
X5912967Y-2644394D01*
X5902553Y-2635605D01*
X5891072Y-2628290D01*
X5878677Y-2622550D01*
X5865672Y-2618486D01*
X5852210Y-2616200D01*
X5838596Y-2615742D01*
X5825032Y-2617114D01*
X5811723Y-2620314D01*
X5799023Y-2625191D01*
X5787034Y-2631744D01*
X5776061Y-2639822D01*
X5766257Y-2649321D01*
X5757824Y-2660040D01*
X5750864Y-2671775D01*
X5749391Y-2675178D01*
X5747207Y-2678480D01*
X5743905Y-2680614D01*
X5740044Y-2681376D01*
X5693968Y-2681376D01*
X5690311Y-2680716D01*
X5687161Y-2678785D01*
X5684875Y-2675839D01*
X5679846Y-2665780D01*
X5672124Y-2654503D01*
X5662980Y-2644394D01*
X5652566Y-2635605D01*
X5641035Y-2628290D01*
X5628690Y-2622550D01*
X5615635Y-2618486D01*
X5602224Y-2616200D01*
X5588558Y-2615742D01*
X5574995Y-2617114D01*
X5561736Y-2620314D01*
X5549036Y-2625191D01*
X5537047Y-2631744D01*
X5526074Y-2639822D01*
X5516270Y-2649321D01*
X5507837Y-2660040D01*
X5500878Y-2671775D01*
X5495544Y-2684322D01*
X5491937Y-2697480D01*
X5490108Y-2710992D01*
X5490108Y-2724607D01*
X5491937Y-2738120D01*
X5495544Y-2751277D01*
X5500878Y-2763824D01*
X5507837Y-2775559D01*
X5516270Y-2786278D01*
X5526074Y-2795778D01*
X5537047Y-2803855D01*
X5549036Y-2810408D01*
X5561736Y-2815285D01*
X5574995Y-2818434D01*
X5588558Y-2819806D01*
X5602224Y-2819349D01*
X5615635Y-2817114D01*
X5628690Y-2813050D01*
X5641035Y-2807309D01*
X5652566Y-2799994D01*
X5662980Y-2791155D01*
X5672124Y-2781046D01*
X5679846Y-2769819D01*
X5684875Y-2759811D01*
X5687161Y-2756814D01*
X5690311Y-2754884D01*
X5693968Y-2754223D01*
X5740044Y-2754223D01*
X5743905Y-2754985D01*
X5747207Y-2757119D01*
X5749442Y-2760421D01*
X5750864Y-2763824D01*
X5757824Y-2775559D01*
X5766257Y-2786278D01*
X5776061Y-2795778D01*
X5787034Y-2803855D01*
X5799023Y-2810408D01*
X5804052Y-2812338D01*
X5807456Y-2814523D01*
X5809742Y-2817825D01*
X5810554Y-2821787D01*
X5810554Y-2943098D01*
X5809792Y-2946958D01*
X5807557Y-2950260D01*
X5804255Y-2952445D01*
X5800394Y-2953258D01*
X5790895Y-2953258D01*
X5784596Y-2953969D01*
X5779109Y-2955848D01*
X5774232Y-2958947D01*
X5770118Y-2963011D01*
X5767070Y-2967939D01*
X5765139Y-2973374D01*
X5764428Y-2979724D01*
X5764428Y-3116275D01*
X5765139Y-3122574D01*
X5767070Y-3128060D01*
X5770118Y-3132937D01*
X5774232Y-3137052D01*
X5779109Y-3140151D01*
X5784596Y-3142030D01*
G37*
G36*
X5957671Y-3007207D02*
G01*
X6005576Y-3007207D01*
X6005576Y-2953258D01*
X5984138Y-2953258D01*
X5977839Y-2953969D01*
X5972352Y-2955848D01*
X5967476Y-2958947D01*
X5963361Y-2963011D01*
X5960313Y-2967939D01*
X5958382Y-2973374D01*
X5957671Y-2979724D01*
G37*
G36*
X6074867Y-3007207D02*
G01*
X6122771Y-3007207D01*
X6122771Y-2979724D01*
X6122060Y-2973374D01*
X6120130Y-2967939D01*
X6117031Y-2963011D01*
X6112967Y-2958947D01*
X6108039Y-2955848D01*
X6102604Y-2953969D01*
X6096254Y-2953258D01*
X6074867Y-2953258D01*
G37*
G36*
X4952187Y-2874518D02*
G01*
X5271008Y-2874518D01*
X5277358Y-2873806D01*
X5282793Y-2871876D01*
X5287721Y-2868828D01*
X5291785Y-2864713D01*
X5294884Y-2859836D01*
X5296814Y-2854350D01*
X5297525Y-2848051D01*
X5297525Y-2689199D01*
X5296814Y-2682849D01*
X5294884Y-2677414D01*
X5291785Y-2672486D01*
X5287721Y-2668422D01*
X5282793Y-2665323D01*
X5277358Y-2663393D01*
X5271008Y-2662682D01*
X4952187Y-2662682D01*
X4945837Y-2663393D01*
X4940401Y-2665323D01*
X4935474Y-2668422D01*
X4931410Y-2672486D01*
X4928311Y-2677414D01*
X4926380Y-2682849D01*
X4925669Y-2689199D01*
X4925669Y-2848051D01*
X4926380Y-2854350D01*
X4928311Y-2859836D01*
X4931410Y-2864713D01*
X4935474Y-2868828D01*
X4940401Y-2871876D01*
X4945837Y-2873806D01*
G37*
G36*
X6088583Y-2819806D02*
G01*
X6102197Y-2819349D01*
X6115659Y-2817114D01*
X6128664Y-2813050D01*
X6141059Y-2807309D01*
X6152540Y-2799994D01*
X6162954Y-2791155D01*
X6172098Y-2781046D01*
X6179820Y-2769819D01*
X6185966Y-2757627D01*
X6190437Y-2744774D01*
X6193180Y-2731414D01*
X6194094Y-2717800D01*
X6193180Y-2704185D01*
X6190437Y-2690825D01*
X6185966Y-2677922D01*
X6179820Y-2665780D01*
X6172098Y-2654503D01*
X6162954Y-2644394D01*
X6152540Y-2635605D01*
X6141059Y-2628290D01*
X6128664Y-2622550D01*
X6115659Y-2618486D01*
X6102197Y-2616200D01*
X6091428Y-2615844D01*
X6087668Y-2614980D01*
X6084468Y-2612796D01*
X6082334Y-2609494D01*
X6081623Y-2605684D01*
X6081623Y-2399131D01*
X6082385Y-2395220D01*
X6084570Y-2391918D01*
X6087872Y-2389733D01*
X6091783Y-2388971D01*
X6113475Y-2388971D01*
X6119774Y-2388260D01*
X6125260Y-2386330D01*
X6130137Y-2383231D01*
X6134252Y-2379167D01*
X6137910Y-2373274D01*
X6140196Y-2370734D01*
X6143193Y-2369108D01*
X6147054Y-2368550D01*
X6150406Y-2369108D01*
X6153353Y-2370734D01*
X6155639Y-2373274D01*
X6159347Y-2379167D01*
X6163411Y-2383231D01*
X6168339Y-2386330D01*
X6173774Y-2388260D01*
X6180124Y-2388971D01*
X6316675Y-2388971D01*
X6322974Y-2388260D01*
X6328460Y-2386330D01*
X6333337Y-2383231D01*
X6337452Y-2379167D01*
X6340500Y-2374239D01*
X6342430Y-2368804D01*
X6343142Y-2362454D01*
X6343142Y-2250389D01*
X6342430Y-2244039D01*
X6340500Y-2238603D01*
X6337452Y-2233676D01*
X6333337Y-2229612D01*
X6328460Y-2226513D01*
X6322974Y-2224582D01*
X6316675Y-2223871D01*
X6180124Y-2223871D01*
X6173774Y-2224582D01*
X6168339Y-2226513D01*
X6163411Y-2229612D01*
X6159347Y-2233676D01*
X6155639Y-2239568D01*
X6153353Y-2242108D01*
X6150406Y-2243734D01*
X6146546Y-2244293D01*
X6143193Y-2243734D01*
X6140196Y-2242108D01*
X6137910Y-2239568D01*
X6134252Y-2233676D01*
X6130137Y-2229612D01*
X6125260Y-2226513D01*
X6119774Y-2224582D01*
X6113475Y-2223871D01*
X5976924Y-2223871D01*
X5970574Y-2224582D01*
X5965139Y-2226513D01*
X5960211Y-2229612D01*
X5956147Y-2233676D01*
X5953048Y-2238603D01*
X5951118Y-2244039D01*
X5950407Y-2250389D01*
X5950407Y-2264816D01*
X5949645Y-2268728D01*
X5947460Y-2272030D01*
X5944158Y-2274214D01*
X5940247Y-2274976D01*
X5746750Y-2274976D01*
X5742889Y-2274214D01*
X5739587Y-2272030D01*
X5737352Y-2268728D01*
X5736590Y-2264816D01*
X5736590Y-2244445D01*
X5735878Y-2238146D01*
X5733999Y-2232660D01*
X5730900Y-2227783D01*
X5726785Y-2223668D01*
X5721908Y-2220620D01*
X5716422Y-2218690D01*
X5710123Y-2217978D01*
X5603341Y-2217978D01*
X5599430Y-2217216D01*
X5596128Y-2214981D01*
X5583631Y-2202383D01*
X5581243Y-2198522D01*
X5580735Y-2194052D01*
X5582259Y-2189784D01*
X5585460Y-2186584D01*
X5589727Y-2185111D01*
X5594197Y-2185619D01*
X5596432Y-2186381D01*
X5602732Y-2187092D01*
X5661609Y-2187092D01*
X5667908Y-2186381D01*
X5673394Y-2184501D01*
X5678271Y-2181402D01*
X5682386Y-2177338D01*
X5685434Y-2172411D01*
X5687364Y-2166975D01*
X5688584Y-2162098D01*
X5690819Y-2159203D01*
X5693918Y-2157272D01*
X5697524Y-2156612D01*
X5738317Y-2156256D01*
X5742228Y-2157018D01*
X5745581Y-2159203D01*
X5747816Y-2162505D01*
X5748578Y-2166416D01*
X5748578Y-2179523D01*
X5749290Y-2185822D01*
X5751220Y-2191308D01*
X5754268Y-2196185D01*
X5758383Y-2200300D01*
X5763260Y-2203399D01*
X5768746Y-2205278D01*
X5775045Y-2205990D01*
X5908903Y-2205990D01*
X5915253Y-2205278D01*
X5920689Y-2203399D01*
X5925616Y-2200300D01*
X5929680Y-2196185D01*
X5932779Y-2191308D01*
X5935980Y-2181860D01*
X5938774Y-2178761D01*
X5942533Y-2177034D01*
X5946648Y-2176983D01*
X5950508Y-2178558D01*
X5953404Y-2181555D01*
X5956147Y-2185924D01*
X5960211Y-2189988D01*
X5965139Y-2193086D01*
X5970574Y-2194966D01*
X5976924Y-2195728D01*
X6113475Y-2195728D01*
X6119774Y-2194966D01*
X6125260Y-2193086D01*
X6130137Y-2189988D01*
X6134252Y-2185924D01*
X6137910Y-2180031D01*
X6140196Y-2177491D01*
X6143193Y-2175865D01*
X6147054Y-2175306D01*
X6150406Y-2175865D01*
X6153353Y-2177491D01*
X6155639Y-2180031D01*
X6159347Y-2185924D01*
X6163411Y-2189988D01*
X6168339Y-2193086D01*
X6173774Y-2194966D01*
X6180124Y-2195728D01*
X6316675Y-2195728D01*
X6322974Y-2194966D01*
X6328460Y-2193086D01*
X6333337Y-2189988D01*
X6337452Y-2185924D01*
X6340500Y-2180996D01*
X6342430Y-2175560D01*
X6343142Y-2169210D01*
X6343142Y-2057095D01*
X6342430Y-2050796D01*
X6340500Y-2045309D01*
X6337452Y-2040432D01*
X6333337Y-2036318D01*
X6328460Y-2033270D01*
X6322974Y-2031339D01*
X6316675Y-2030628D01*
X6180124Y-2030628D01*
X6173774Y-2031339D01*
X6168339Y-2033270D01*
X6163411Y-2036318D01*
X6159347Y-2040432D01*
X6155639Y-2046274D01*
X6153353Y-2048814D01*
X6150406Y-2050491D01*
X6146546Y-2051050D01*
X6143193Y-2050491D01*
X6140196Y-2048814D01*
X6137910Y-2046274D01*
X6134252Y-2040432D01*
X6130137Y-2036318D01*
X6125260Y-2033270D01*
X6119774Y-2031339D01*
X6113475Y-2030628D01*
X5976924Y-2030628D01*
X5970574Y-2031339D01*
X5965139Y-2033270D01*
X5960211Y-2036318D01*
X5956147Y-2040432D01*
X5954064Y-2043734D01*
X5951169Y-2046681D01*
X5947359Y-2048306D01*
X5943193Y-2048205D01*
X5939434Y-2046478D01*
X5936691Y-2043379D01*
X5935370Y-2039416D01*
X5934659Y-2033320D01*
X5932779Y-2027885D01*
X5929680Y-2022957D01*
X5925616Y-2018893D01*
X5919724Y-2015185D01*
X5916777Y-2012391D01*
X5915202Y-2008632D01*
X5915202Y-2004568D01*
X5916777Y-2000808D01*
X5919724Y-1997964D01*
X5925616Y-1994306D01*
X5929680Y-1990191D01*
X5932779Y-1985314D01*
X5934659Y-1979828D01*
X5935421Y-1973529D01*
X5935421Y-1945182D01*
X5882081Y-1945182D01*
X5882081Y-2003043D01*
X5881319Y-2006904D01*
X5879134Y-2010206D01*
X5875832Y-2012391D01*
X5871921Y-2013204D01*
X5812028Y-2013204D01*
X5808167Y-2012391D01*
X5804865Y-2010206D01*
X5802680Y-2006904D01*
X5801868Y-2003043D01*
X5801868Y-1945182D01*
X5748578Y-1945182D01*
X5748578Y-1973529D01*
X5749290Y-1979828D01*
X5751220Y-1985314D01*
X5754268Y-1990191D01*
X5758383Y-1994306D01*
X5764225Y-1998014D01*
X5767171Y-2000808D01*
X5768797Y-2004568D01*
X5768797Y-2008632D01*
X5767171Y-2012391D01*
X5764225Y-2015185D01*
X5758383Y-2018893D01*
X5754268Y-2022957D01*
X5751220Y-2027885D01*
X5749290Y-2033320D01*
X5748578Y-2039670D01*
X5748578Y-2054301D01*
X5747816Y-2058162D01*
X5745632Y-2061413D01*
X5742381Y-2063648D01*
X5738520Y-2064461D01*
X5697575Y-2064766D01*
X5693918Y-2064156D01*
X5690768Y-2062225D01*
X5688482Y-2059330D01*
X5685434Y-2049983D01*
X5682386Y-2045106D01*
X5678271Y-2040991D01*
X5673394Y-2037943D01*
X5667908Y-2036013D01*
X5661609Y-2035302D01*
X5625388Y-2035302D01*
X5621477Y-2034539D01*
X5618175Y-2032304D01*
X5534964Y-1949094D01*
X5526278Y-1942185D01*
X5521452Y-1939798D01*
X5518505Y-1937562D01*
X5516524Y-1934362D01*
X5515864Y-1930704D01*
X5515864Y-1882546D01*
X5508244Y-1882546D01*
X5504383Y-1881784D01*
X5501081Y-1879600D01*
X5498896Y-1876298D01*
X5498084Y-1872386D01*
X5498084Y-1830019D01*
X5498896Y-1826107D01*
X5501081Y-1822805D01*
X5504383Y-1820621D01*
X5508244Y-1819859D01*
X5515864Y-1819859D01*
X5515864Y-1775307D01*
X5507786Y-1775307D01*
X5501436Y-1776018D01*
X5496001Y-1777898D01*
X5491581Y-1779828D01*
X5487822Y-1779828D01*
X5483402Y-1777898D01*
X5477967Y-1776018D01*
X5471617Y-1775307D01*
X5412790Y-1775307D01*
X5406440Y-1776018D01*
X5401005Y-1777898D01*
X5396077Y-1780997D01*
X5392013Y-1785061D01*
X5388914Y-1789988D01*
X5386984Y-1795424D01*
X5386273Y-1801774D01*
X5386273Y-1804619D01*
X5385511Y-1808480D01*
X5383326Y-1811782D01*
X5380024Y-1814017D01*
X5376113Y-1814779D01*
X4984140Y-1814779D01*
X4980330Y-1814017D01*
X4977079Y-1811934D01*
X4974894Y-1808784D01*
X4973980Y-1805025D01*
X4974590Y-1801215D01*
X4976520Y-1797862D01*
X4981041Y-1792782D01*
X4986782Y-1783689D01*
X4991049Y-1773783D01*
X4993589Y-1763318D01*
X4994452Y-1752600D01*
X4993640Y-1742490D01*
X4994148Y-1738325D01*
X4996332Y-1734769D01*
X4999685Y-1732330D01*
X5003800Y-1731518D01*
X5134000Y-1731518D01*
X5140350Y-1730806D01*
X5145786Y-1728876D01*
X5150713Y-1725777D01*
X5154777Y-1721713D01*
X5157876Y-1716786D01*
X5159197Y-1712975D01*
X5161178Y-1709623D01*
X5164226Y-1707286D01*
X5167934Y-1706219D01*
X5173319Y-1707083D01*
X5180939Y-1707845D01*
X5330647Y-1707845D01*
X5334558Y-1708607D01*
X5337860Y-1710791D01*
X5340045Y-1714093D01*
X5340807Y-1718005D01*
X5340807Y-1727504D01*
X5341518Y-1733804D01*
X5343448Y-1739239D01*
X5346547Y-1744167D01*
X5350611Y-1748231D01*
X5355539Y-1751330D01*
X5360974Y-1753260D01*
X5367324Y-1753971D01*
X5503875Y-1753971D01*
X5510174Y-1753260D01*
X5515660Y-1751330D01*
X5520537Y-1748231D01*
X5524652Y-1744167D01*
X5529935Y-1735226D01*
X5533085Y-1732838D01*
X5536895Y-1731873D01*
X5540806Y-1732381D01*
X5544210Y-1734362D01*
X5546648Y-1737461D01*
X5548172Y-1740560D01*
X5554827Y-1750060D01*
X5562549Y-1758086D01*
X5564733Y-1761489D01*
X5565394Y-1765503D01*
X5564428Y-1769465D01*
X5562041Y-1772716D01*
X5558536Y-1774748D01*
X5558536Y-1819859D01*
X5566105Y-1819859D01*
X5570016Y-1820621D01*
X5573318Y-1822805D01*
X5575503Y-1826107D01*
X5576265Y-1830019D01*
X5576265Y-1872386D01*
X5575503Y-1876298D01*
X5573318Y-1879600D01*
X5570016Y-1881784D01*
X5566105Y-1882546D01*
X5558536Y-1882546D01*
X5558536Y-1927098D01*
X5566613Y-1927098D01*
X5572963Y-1926386D01*
X5578398Y-1924507D01*
X5582818Y-1922576D01*
X5586577Y-1922576D01*
X5590997Y-1924507D01*
X5596432Y-1926386D01*
X5602782Y-1927098D01*
X5661609Y-1927098D01*
X5667959Y-1926386D01*
X5673394Y-1924507D01*
X5678322Y-1921408D01*
X5682386Y-1917344D01*
X5685485Y-1912416D01*
X5687364Y-1906981D01*
X5688076Y-1900631D01*
X5688076Y-1801774D01*
X5687364Y-1795475D01*
X5685485Y-1789988D01*
X5682386Y-1785112D01*
X5678322Y-1780997D01*
X5673344Y-1777898D01*
X5670804Y-1775612D01*
X5669178Y-1772615D01*
X5668568Y-1769262D01*
X5668568Y-1757425D01*
X5669178Y-1753971D01*
X5670905Y-1750974D01*
X5675477Y-1745437D01*
X5681370Y-1735480D01*
X5685739Y-1724710D01*
X5688380Y-1713382D01*
X5689244Y-1701800D01*
X5688380Y-1690217D01*
X5685739Y-1678889D01*
X5681370Y-1668119D01*
X5675477Y-1658162D01*
X5668060Y-1649171D01*
X5659374Y-1641449D01*
X5649620Y-1635150D01*
X5642254Y-1631848D01*
X5639054Y-1629562D01*
X5636920Y-1626260D01*
X5636260Y-1622399D01*
X5637072Y-1618538D01*
X5639308Y-1615287D01*
X5642559Y-1613154D01*
X5646420Y-1612392D01*
X5730595Y-1612392D01*
X5736945Y-1611680D01*
X5742381Y-1609750D01*
X5747308Y-1606702D01*
X5751372Y-1602587D01*
X5754471Y-1597710D01*
X5756402Y-1592224D01*
X5757113Y-1585925D01*
X5757113Y-1462074D01*
X5756402Y-1455724D01*
X5754471Y-1450289D01*
X5751372Y-1445361D01*
X5747308Y-1441297D01*
X5742381Y-1438198D01*
X5736945Y-1436268D01*
X5730595Y-1435557D01*
X5631738Y-1435557D01*
X5625439Y-1436268D01*
X5619953Y-1438198D01*
X5615076Y-1441297D01*
X5610961Y-1445361D01*
X5607913Y-1450289D01*
X5605983Y-1455724D01*
X5605272Y-1462074D01*
X5605272Y-1477416D01*
X5604510Y-1481328D01*
X5602325Y-1484630D01*
X5599023Y-1486814D01*
X5595112Y-1487576D01*
X5540502Y-1487576D01*
X5536641Y-1486814D01*
X5533339Y-1484630D01*
X5531104Y-1481328D01*
X5530342Y-1477416D01*
X5530342Y-1422095D01*
X5529630Y-1415796D01*
X5527700Y-1410309D01*
X5524652Y-1405432D01*
X5520537Y-1401318D01*
X5515660Y-1398270D01*
X5510174Y-1396339D01*
X5503875Y-1395628D01*
X5367324Y-1395628D01*
X5360974Y-1396339D01*
X5355539Y-1398270D01*
X5350611Y-1401318D01*
X5346547Y-1405432D01*
X5343448Y-1410309D01*
X5341518Y-1415796D01*
X5340807Y-1422095D01*
X5340807Y-1534210D01*
X5341518Y-1540560D01*
X5343448Y-1545996D01*
X5346547Y-1550924D01*
X5350611Y-1554988D01*
X5355539Y-1558086D01*
X5360974Y-1560017D01*
X5367324Y-1560728D01*
X5503875Y-1560728D01*
X5507126Y-1560423D01*
X5595112Y-1560423D01*
X5599023Y-1561185D01*
X5602325Y-1563370D01*
X5604510Y-1566672D01*
X5605272Y-1570583D01*
X5605272Y-1585925D01*
X5605983Y-1592224D01*
X5607913Y-1597710D01*
X5610961Y-1602587D01*
X5615076Y-1606702D01*
X5619292Y-1610410D01*
X5620867Y-1614373D01*
X5620613Y-1618640D01*
X5618683Y-1622450D01*
X5615330Y-1625092D01*
X5611215Y-1626158D01*
X5604713Y-1626412D01*
X5593283Y-1628648D01*
X5582361Y-1632559D01*
X5577738Y-1634693D01*
X5575249Y-1634998D01*
X5540502Y-1634998D01*
X5536641Y-1634236D01*
X5533339Y-1632051D01*
X5531104Y-1628749D01*
X5530342Y-1624838D01*
X5530342Y-1615389D01*
X5529630Y-1609039D01*
X5527700Y-1603603D01*
X5524652Y-1598676D01*
X5520537Y-1594612D01*
X5515660Y-1591513D01*
X5510174Y-1589582D01*
X5503875Y-1588871D01*
X5367324Y-1588871D01*
X5360974Y-1589582D01*
X5355539Y-1591513D01*
X5350611Y-1594612D01*
X5346547Y-1598676D01*
X5343448Y-1603603D01*
X5341518Y-1609039D01*
X5340807Y-1615389D01*
X5340807Y-1624838D01*
X5340045Y-1628749D01*
X5337860Y-1632051D01*
X5334558Y-1634236D01*
X5330647Y-1634998D01*
X5199735Y-1634998D01*
X5195824Y-1634236D01*
X5192522Y-1632051D01*
X5163464Y-1602994D01*
X5161280Y-1599692D01*
X5160518Y-1595780D01*
X5160518Y-1386179D01*
X5159806Y-1379829D01*
X5157876Y-1374394D01*
X5154777Y-1369466D01*
X5150713Y-1365402D01*
X5145786Y-1362303D01*
X5140350Y-1360373D01*
X5134000Y-1359662D01*
X4984902Y-1359662D01*
X4980990Y-1358900D01*
X4977688Y-1356715D01*
X4975504Y-1353413D01*
X4974742Y-1348130D01*
X4975504Y-1344269D01*
X4977688Y-1340967D01*
X4980990Y-1338783D01*
X4984902Y-1338021D01*
X4998923Y-1338021D01*
X5005222Y-1337310D01*
X5010708Y-1335379D01*
X5015585Y-1332280D01*
X5019700Y-1328216D01*
X5022799Y-1323289D01*
X5024678Y-1317853D01*
X5025390Y-1311503D01*
X5025390Y-1300683D01*
X5026152Y-1296771D01*
X5028387Y-1293469D01*
X5031689Y-1291285D01*
X5035550Y-1290523D01*
X5576468Y-1290523D01*
X5580329Y-1291285D01*
X5583631Y-1293469D01*
X5585866Y-1296771D01*
X5586628Y-1300683D01*
X5586628Y-1312875D01*
X5587339Y-1319174D01*
X5589270Y-1324660D01*
X5592318Y-1329537D01*
X5596432Y-1333652D01*
X5601309Y-1336751D01*
X5606796Y-1338630D01*
X5613095Y-1339342D01*
X5725210Y-1339342D01*
X5731560Y-1338630D01*
X5736996Y-1336751D01*
X5741924Y-1333652D01*
X5745988Y-1329537D01*
X5749086Y-1324660D01*
X5750966Y-1319174D01*
X5751677Y-1312875D01*
X5751677Y-1176324D01*
X5750966Y-1169974D01*
X5749086Y-1164539D01*
X5745988Y-1159611D01*
X5741924Y-1155547D01*
X5736996Y-1152448D01*
X5731560Y-1150569D01*
X5725210Y-1149858D01*
X5613095Y-1149858D01*
X5606796Y-1150569D01*
X5601309Y-1152448D01*
X5596432Y-1155547D01*
X5592318Y-1159611D01*
X5589270Y-1164539D01*
X5587339Y-1169974D01*
X5586628Y-1176324D01*
X5586628Y-1188516D01*
X5585866Y-1192428D01*
X5583631Y-1195730D01*
X5580329Y-1197914D01*
X5576468Y-1198676D01*
X5035550Y-1198676D01*
X5031689Y-1197914D01*
X5028387Y-1195730D01*
X5026152Y-1192428D01*
X5025390Y-1188516D01*
X5025390Y-1177645D01*
X5024678Y-1171346D01*
X5022799Y-1165860D01*
X5019700Y-1160983D01*
X5015585Y-1156868D01*
X5010708Y-1153820D01*
X5005222Y-1151890D01*
X4998923Y-1151178D01*
X4980635Y-1151178D01*
X4976774Y-1150416D01*
X4973472Y-1148232D01*
X4971237Y-1144930D01*
X4970475Y-1141018D01*
X4970475Y-1100175D01*
X4971135Y-1096518D01*
X4973066Y-1093419D01*
X4975961Y-1091133D01*
X4980330Y-1089964D01*
X4985766Y-1088085D01*
X4990693Y-1084986D01*
X4994757Y-1080871D01*
X4997856Y-1075994D01*
X4999786Y-1070508D01*
X5000498Y-1064209D01*
X5000498Y-1012494D01*
X5001260Y-1008634D01*
X5003444Y-1005332D01*
X5006746Y-1003096D01*
X5010658Y-1002334D01*
X5014518Y-1003096D01*
X5017820Y-1005332D01*
X5072684Y-1060196D01*
X5078577Y-1065022D01*
X5084876Y-1068374D01*
X5091684Y-1070457D01*
X5099304Y-1071219D01*
X5102656Y-1071219D01*
X5106009Y-1071778D01*
X5109006Y-1073404D01*
X5111242Y-1075944D01*
X5114391Y-1080922D01*
X5118455Y-1084986D01*
X5123383Y-1088085D01*
X5128818Y-1090015D01*
X5135168Y-1090726D01*
X5234025Y-1090726D01*
X5240324Y-1090015D01*
X5245811Y-1088085D01*
X5250688Y-1084986D01*
X5254802Y-1080922D01*
X5257850Y-1075994D01*
X5259781Y-1070559D01*
X5260492Y-1064209D01*
X5260492Y-1005382D01*
X5259781Y-999032D01*
X5257850Y-993597D01*
X5255920Y-989177D01*
X5255920Y-985418D01*
X5257850Y-980998D01*
X5259781Y-975563D01*
X5260492Y-969213D01*
X5260492Y-961136D01*
X5215940Y-961136D01*
X5215940Y-968705D01*
X5215178Y-972616D01*
X5212943Y-975918D01*
X5209641Y-978103D01*
X5205780Y-978865D01*
X5163413Y-978865D01*
X5159502Y-978103D01*
X5156200Y-975918D01*
X5154015Y-972616D01*
X5153253Y-968705D01*
X5153253Y-961136D01*
X5108651Y-961136D01*
X5108651Y-968654D01*
X5107889Y-972566D01*
X5105704Y-975868D01*
X5102402Y-978052D01*
X5098491Y-978814D01*
X5094630Y-978052D01*
X5091328Y-975868D01*
X5029911Y-914400D01*
X5023967Y-909574D01*
X5017719Y-906221D01*
X5010861Y-904138D01*
X5004257Y-903478D01*
X5000345Y-902258D01*
X4997196Y-899617D01*
X4995418Y-895908D01*
X4995214Y-891794D01*
X4996637Y-887984D01*
X4997856Y-886002D01*
X4999786Y-880516D01*
X5000498Y-874217D01*
X5000498Y-815340D01*
X4999786Y-809040D01*
X4997856Y-803554D01*
X4994808Y-798677D01*
X4990693Y-794562D01*
X4985816Y-791514D01*
X4980330Y-789584D01*
X4974031Y-788873D01*
X4971135Y-788873D01*
X4967274Y-788111D01*
X4963972Y-785926D01*
X4961737Y-782624D01*
X4960975Y-778713D01*
X4960975Y-469544D01*
X4961737Y-465683D01*
X4963871Y-462432D01*
X4967071Y-460197D01*
X4971694Y-458216D01*
X4982870Y-451408D01*
X4993030Y-443179D01*
X5001971Y-433578D01*
X5009489Y-422909D01*
X5015534Y-411276D01*
X5019954Y-398780D01*
X5022138Y-395224D01*
X5025491Y-392836D01*
X5029555Y-392023D01*
X5075631Y-392023D01*
X5079644Y-392836D01*
X5083048Y-395224D01*
X5085181Y-398780D01*
X5089652Y-411276D01*
X5095646Y-422909D01*
X5103215Y-433578D01*
X5112105Y-443179D01*
X5122265Y-451408D01*
X5133441Y-458216D01*
X5145481Y-463448D01*
X5158079Y-466953D01*
X5171033Y-468731D01*
X5184140Y-468731D01*
X5197094Y-466953D01*
X5209692Y-463448D01*
X5221681Y-458216D01*
X5232857Y-451408D01*
X5243017Y-443179D01*
X5251958Y-433578D01*
X5259527Y-422909D01*
X5265521Y-411276D01*
X5268214Y-403758D01*
X5270347Y-400202D01*
X5273751Y-397814D01*
X5277764Y-397002D01*
X5457647Y-397002D01*
X5461558Y-397764D01*
X5464860Y-399948D01*
X5467045Y-403250D01*
X5467807Y-407162D01*
X5467807Y-416610D01*
X5468518Y-422960D01*
X5470448Y-428396D01*
X5473547Y-433324D01*
X5477611Y-437388D01*
X5482539Y-440486D01*
X5487974Y-442417D01*
X5494324Y-443128D01*
X5630875Y-443128D01*
X5637174Y-442417D01*
X5642660Y-440486D01*
X5647537Y-437388D01*
X5651652Y-433324D01*
X5654700Y-428396D01*
X5656630Y-422960D01*
X5657342Y-416610D01*
X5657342Y-304495D01*
X5656630Y-298196D01*
X5654700Y-292709D01*
X5651652Y-287832D01*
X5647537Y-283718D01*
X5642660Y-280670D01*
X5637174Y-278739D01*
X5630875Y-278028D01*
X5494324Y-278028D01*
X5487974Y-278739D01*
X5482539Y-280670D01*
X5477611Y-283718D01*
X5473547Y-287832D01*
X5470448Y-292709D01*
X5468518Y-298196D01*
X5467807Y-304495D01*
X5467807Y-313994D01*
X5467045Y-317906D01*
X5464860Y-321208D01*
X5461558Y-323392D01*
X5457647Y-324154D01*
X5280660Y-324154D01*
X5277256Y-323596D01*
X5274259Y-321868D01*
X5271973Y-319278D01*
X5270703Y-316077D01*
X5269890Y-312216D01*
X5265521Y-299872D01*
X5259527Y-288290D01*
X5251958Y-277571D01*
X5243017Y-268020D01*
X5232857Y-259740D01*
X5221681Y-252933D01*
X5209692Y-247751D01*
X5197094Y-244195D01*
X5184140Y-242417D01*
X5171033Y-242417D01*
X5158079Y-244195D01*
X5145481Y-247751D01*
X5133441Y-252933D01*
X5122265Y-259740D01*
X5112105Y-268020D01*
X5103215Y-277571D01*
X5095646Y-288290D01*
X5089652Y-299872D01*
X5085181Y-312420D01*
X5083048Y-315976D01*
X5079644Y-318363D01*
X5075580Y-319176D01*
X5029555Y-319176D01*
X5025491Y-318363D01*
X5022138Y-315976D01*
X5020005Y-312420D01*
X5015534Y-299872D01*
X5009489Y-288290D01*
X5001971Y-277571D01*
X4993030Y-268020D01*
X4982870Y-259740D01*
X4971694Y-252933D01*
X4959705Y-247751D01*
X4947107Y-244195D01*
X4934102Y-242417D01*
X4921046Y-242417D01*
X4908092Y-244195D01*
X4895443Y-247751D01*
X4883454Y-252933D01*
X4872278Y-259740D01*
X4862118Y-268020D01*
X4853178Y-277571D01*
X4845659Y-288290D01*
X4839614Y-299872D01*
X4835245Y-312216D01*
X4832604Y-325018D01*
X4831689Y-338429D01*
X4831689Y-372719D01*
X4832604Y-386130D01*
X4835245Y-398983D01*
X4839614Y-411276D01*
X4845659Y-422909D01*
X4853178Y-433578D01*
X4862118Y-443179D01*
X4872278Y-451408D01*
X4883302Y-458114D01*
X4885893Y-460400D01*
X4887569Y-463397D01*
X4888179Y-466801D01*
X4888179Y-778713D01*
X4887417Y-782624D01*
X4885182Y-785926D01*
X4881880Y-788111D01*
X4878019Y-788873D01*
X4875174Y-788873D01*
X4868824Y-789584D01*
X4863388Y-791514D01*
X4858461Y-794562D01*
X4854397Y-798677D01*
X4851298Y-803554D01*
X4849368Y-809040D01*
X4848656Y-815340D01*
X4848656Y-861060D01*
X4847894Y-864971D01*
X4845710Y-868273D01*
X4842408Y-870458D01*
X4838496Y-871219D01*
X4834636Y-870458D01*
X4831334Y-868273D01*
X4775911Y-812850D01*
X4770018Y-807974D01*
X4763719Y-804621D01*
X4756912Y-802589D01*
X4749342Y-801827D01*
X4745736Y-801827D01*
X4742332Y-801217D01*
X4739284Y-799490D01*
X4736998Y-796848D01*
X4735677Y-794562D01*
X4728260Y-785571D01*
X4716170Y-775004D01*
X4714595Y-772058D01*
X4714036Y-768705D01*
X4714036Y-468223D01*
X4714748Y-464362D01*
X4716932Y-461111D01*
X4732883Y-451408D01*
X4743043Y-443179D01*
X4751933Y-433578D01*
X4759502Y-422909D01*
X4765548Y-411276D01*
X4769916Y-398983D01*
X4772558Y-386130D01*
X4773472Y-372719D01*
X4773472Y-338429D01*
X4772558Y-325018D01*
X4769916Y-312216D01*
X4765548Y-299872D01*
X4759502Y-288290D01*
X4751933Y-277571D01*
X4743043Y-268020D01*
X4732883Y-259740D01*
X4721707Y-252933D01*
X4709668Y-247751D01*
X4697069Y-244195D01*
X4684115Y-242417D01*
X4671009Y-242417D01*
X4658055Y-244195D01*
X4645456Y-247751D01*
X4633468Y-252933D01*
X4622292Y-259740D01*
X4612132Y-268020D01*
X4603191Y-277571D01*
X4595672Y-288290D01*
X4589627Y-299872D01*
X4585258Y-312216D01*
X4582566Y-325018D01*
X4581652Y-338429D01*
X4581652Y-372719D01*
X4582566Y-386130D01*
X4585258Y-398983D01*
X4589627Y-411276D01*
X4595672Y-422909D01*
X4603191Y-433578D01*
X4612132Y-443179D01*
X4622292Y-451408D01*
X4633468Y-458216D01*
X4635093Y-458927D01*
X4638294Y-461162D01*
X4640478Y-464413D01*
X4641189Y-468274D01*
X4641189Y-763625D01*
X4640580Y-767181D01*
X4638700Y-770331D01*
X4635906Y-772566D01*
X4632350Y-774496D01*
X4623104Y-781558D01*
X4615027Y-789940D01*
X4608372Y-799439D01*
X4603191Y-809853D01*
X4599686Y-820928D01*
X4597958Y-832408D01*
X4597958Y-843991D01*
X4599482Y-853897D01*
X4599178Y-858215D01*
X4597146Y-862025D01*
X4593640Y-864666D01*
X4589424Y-865581D01*
X3892346Y-865581D01*
X3888486Y-864819D01*
X3885184Y-862634D01*
X3882948Y-859332D01*
X3882186Y-855421D01*
X3882186Y-852576D01*
X3881475Y-846277D01*
X3879596Y-840790D01*
X3876497Y-835914D01*
X3872382Y-831799D01*
X3867505Y-828700D01*
X3862019Y-826820D01*
X3855720Y-826109D01*
X3801872Y-826109D01*
X3795522Y-826820D01*
X3790086Y-828700D01*
X3786682Y-830834D01*
X3783177Y-832205D01*
X3779418Y-832205D01*
X3775913Y-830834D01*
X3772509Y-828700D01*
X3767074Y-826820D01*
X3760724Y-826109D01*
X3753916Y-826109D01*
X3753916Y-870661D01*
X3765245Y-870661D01*
X3769106Y-871423D01*
X3772408Y-873607D01*
X3774592Y-876909D01*
X3775405Y-880821D01*
X3775405Y-923188D01*
X3774592Y-927100D01*
X3772408Y-930402D01*
X3769106Y-932586D01*
X3765245Y-933348D01*
X3753916Y-933348D01*
X3753916Y-977900D01*
X3760724Y-977900D01*
X3767074Y-977188D01*
X3772509Y-975309D01*
X3775913Y-973175D01*
X3779418Y-971803D01*
X3783177Y-971803D01*
X3786682Y-973175D01*
X3790086Y-975309D01*
X3795522Y-977188D01*
X3801872Y-977900D01*
X3855720Y-977900D01*
X3862019Y-977188D01*
X3867505Y-975309D01*
X3872382Y-972210D01*
X3876497Y-968095D01*
X3879596Y-963218D01*
X3881475Y-957732D01*
X3882186Y-951433D01*
X3882186Y-948588D01*
X3882948Y-944676D01*
X3885184Y-941374D01*
X3888486Y-939190D01*
X3892346Y-938428D01*
X4423918Y-938428D01*
X4427829Y-939190D01*
X4431131Y-941374D01*
X4433316Y-944676D01*
X4434078Y-948588D01*
X4433316Y-952449D01*
X4431131Y-955751D01*
X4429099Y-957783D01*
X4426000Y-962660D01*
X4424070Y-968146D01*
X4423359Y-974445D01*
X4423359Y-1001318D01*
X4478172Y-1001318D01*
X4478172Y-948588D01*
X4478985Y-944676D01*
X4481169Y-941374D01*
X4484471Y-939190D01*
X4488332Y-938428D01*
X4551222Y-938428D01*
X4555134Y-939190D01*
X4558436Y-941374D01*
X4560620Y-944676D01*
X4561382Y-948588D01*
X4561382Y-1001318D01*
X4619244Y-1001318D01*
X4623104Y-1002080D01*
X4626406Y-1004265D01*
X4628591Y-1007567D01*
X4629404Y-1011478D01*
X4629404Y-1071321D01*
X4628591Y-1075232D01*
X4626406Y-1078534D01*
X4623104Y-1080719D01*
X4619244Y-1081481D01*
X4561382Y-1081481D01*
X4561382Y-1134821D01*
X4589729Y-1134821D01*
X4596028Y-1134110D01*
X4601514Y-1132179D01*
X4606391Y-1129080D01*
X4610506Y-1125016D01*
X4614214Y-1119124D01*
X4617008Y-1116177D01*
X4620768Y-1114602D01*
X4624832Y-1114602D01*
X4628591Y-1116177D01*
X4631385Y-1119124D01*
X4635093Y-1125016D01*
X4639157Y-1129080D01*
X4644085Y-1132179D01*
X4646168Y-1132941D01*
X4649724Y-1135075D01*
X4652111Y-1138428D01*
X4652975Y-1142492D01*
X4652111Y-1146556D01*
X4649724Y-1149959D01*
X4646168Y-1152093D01*
X4641291Y-1153820D01*
X4636363Y-1156868D01*
X4632299Y-1160983D01*
X4629200Y-1165860D01*
X4627270Y-1171346D01*
X4626559Y-1177645D01*
X4626559Y-1204518D01*
X4681372Y-1204518D01*
X4681372Y-1144981D01*
X4682185Y-1141069D01*
X4684369Y-1137767D01*
X4687671Y-1135583D01*
X4691532Y-1134821D01*
X4754422Y-1134821D01*
X4758334Y-1135583D01*
X4761636Y-1137767D01*
X4763820Y-1141069D01*
X4764582Y-1144981D01*
X4764582Y-1204518D01*
X4822444Y-1204518D01*
X4826304Y-1205280D01*
X4829606Y-1207465D01*
X4831791Y-1210767D01*
X4832604Y-1214678D01*
X4832604Y-1274521D01*
X4831791Y-1278432D01*
X4829606Y-1281734D01*
X4826304Y-1283919D01*
X4822444Y-1284681D01*
X4764582Y-1284681D01*
X4764582Y-1338021D01*
X4792929Y-1338021D01*
X4799228Y-1337310D01*
X4804714Y-1335379D01*
X4809591Y-1332280D01*
X4813706Y-1328216D01*
X4817414Y-1322324D01*
X4820208Y-1319377D01*
X4823968Y-1317802D01*
X4828032Y-1317802D01*
X4831791Y-1319377D01*
X4834585Y-1322324D01*
X4838293Y-1328216D01*
X4842357Y-1332280D01*
X4847285Y-1335379D01*
X4852720Y-1337310D01*
X4859070Y-1338021D01*
X4872736Y-1338021D01*
X4876647Y-1338783D01*
X4879949Y-1340967D01*
X4882134Y-1344320D01*
X4882896Y-1349552D01*
X4882134Y-1353413D01*
X4879898Y-1356715D01*
X4876596Y-1358900D01*
X4872736Y-1359662D01*
X4721148Y-1359662D01*
X4714849Y-1360373D01*
X4709363Y-1362303D01*
X4704486Y-1365402D01*
X4700371Y-1369466D01*
X4697323Y-1374394D01*
X4695393Y-1379829D01*
X4694682Y-1386179D01*
X4694682Y-1705000D01*
X4695393Y-1711350D01*
X4697323Y-1716786D01*
X4700371Y-1721713D01*
X4704486Y-1725777D01*
X4709363Y-1728876D01*
X4714849Y-1730806D01*
X4721148Y-1731518D01*
X4851552Y-1731518D01*
X4855819Y-1732432D01*
X4859274Y-1735074D01*
X4861306Y-1738934D01*
X4861560Y-1743303D01*
X4860950Y-1747215D01*
X4860950Y-1757984D01*
X4862677Y-1768602D01*
X4866081Y-1778812D01*
X4871059Y-1788363D01*
X4880152Y-1800555D01*
X4881016Y-1804466D01*
X4880254Y-1808429D01*
X4878070Y-1811731D01*
X4874768Y-1813966D01*
X4870856Y-1814779D01*
X2429256Y-1814779D01*
X2425395Y-1814017D01*
X2422093Y-1811782D01*
X2353056Y-1742744D01*
X2350973Y-1739798D01*
X2350109Y-1736242D01*
X2350516Y-1732635D01*
X2352141Y-1729435D01*
X2354834Y-1726996D01*
X2356713Y-1725777D01*
X2360777Y-1721713D01*
X2363876Y-1716786D01*
X2365806Y-1711350D01*
X2366518Y-1705000D01*
X2366518Y-1386179D01*
X2365806Y-1379829D01*
X2363876Y-1374394D01*
X2360777Y-1369466D01*
X2356713Y-1365402D01*
X2351786Y-1362303D01*
X2346350Y-1360373D01*
X2340000Y-1359662D01*
X2327198Y-1359662D01*
X2323439Y-1358950D01*
X2320239Y-1356918D01*
X2318004Y-1353870D01*
X2317038Y-1350162D01*
X2317546Y-1346403D01*
X2319375Y-1343050D01*
X2322677Y-1339037D01*
X2328570Y-1329080D01*
X2332939Y-1318310D01*
X2335580Y-1306982D01*
X2336495Y-1295400D01*
X2335580Y-1283817D01*
X2332939Y-1272489D01*
X2328570Y-1261719D01*
X2322677Y-1251762D01*
X2315260Y-1242771D01*
X2307031Y-1235405D01*
X2304491Y-1232001D01*
X2303627Y-1227836D01*
X2303627Y-855370D01*
X2304186Y-852017D01*
X2305812Y-849020D01*
X2309317Y-846175D01*
X2312822Y-844803D01*
X2316581Y-844803D01*
X2320137Y-846175D01*
X2323490Y-848309D01*
X2328926Y-850188D01*
X2335276Y-850900D01*
X2342083Y-850900D01*
X2342083Y-806348D01*
X2330805Y-806348D01*
X2326894Y-805586D01*
X2323592Y-803402D01*
X2321407Y-800100D01*
X2320645Y-796188D01*
X2320645Y-753821D01*
X2321407Y-749909D01*
X2323592Y-746658D01*
X2326894Y-744423D01*
X2330805Y-743661D01*
X2342083Y-743661D01*
X2342083Y-699109D01*
X2335276Y-699109D01*
X2328926Y-699820D01*
X2323490Y-701751D01*
X2319629Y-702310D01*
X2315870Y-701344D01*
X2312720Y-699109D01*
X2310638Y-695807D01*
X2309977Y-691997D01*
X2310739Y-688187D01*
X2312924Y-684936D01*
X2348890Y-648970D01*
X2352192Y-646785D01*
X2356104Y-646023D01*
X2387092Y-646023D01*
X2394712Y-645261D01*
X2401519Y-643178D01*
X2407818Y-639826D01*
X2413711Y-635000D01*
X2474823Y-573887D01*
X2478125Y-571652D01*
X2481986Y-570890D01*
X2484120Y-570890D01*
X2490470Y-570179D01*
X2495905Y-568248D01*
X2500782Y-565200D01*
X2504897Y-561086D01*
X2507996Y-556209D01*
X2509875Y-550722D01*
X2510586Y-544423D01*
X2510586Y-497281D01*
X2511399Y-493369D01*
X2513584Y-490118D01*
X2634081Y-369570D01*
X2637383Y-367385D01*
X2641295Y-366623D01*
X2706268Y-366623D01*
X2710180Y-367385D01*
X2713482Y-369570D01*
X2715666Y-372872D01*
X2716428Y-376783D01*
X2716428Y-398475D01*
X2717139Y-404825D01*
X2719070Y-410260D01*
X2722118Y-415188D01*
X2726232Y-419252D01*
X2731109Y-422351D01*
X2736596Y-424230D01*
X2742895Y-424942D01*
X2855010Y-424942D01*
X2861360Y-424230D01*
X2866796Y-422351D01*
X2871724Y-419252D01*
X2875788Y-415188D01*
X2878886Y-410260D01*
X2880766Y-404825D01*
X2881477Y-398475D01*
X2881477Y-261924D01*
X2880766Y-255574D01*
X2878886Y-250139D01*
X2875788Y-245211D01*
X2871724Y-241147D01*
X2866796Y-238048D01*
X2861360Y-236169D01*
X2855010Y-235458D01*
X2742895Y-235458D01*
X2736596Y-236169D01*
X2731109Y-238048D01*
X2726232Y-241147D01*
X2722118Y-245211D01*
X2719070Y-250139D01*
X2717139Y-255574D01*
X2716428Y-261924D01*
X2716428Y-283616D01*
X2715666Y-287528D01*
X2713482Y-290830D01*
X2710180Y-293014D01*
X2706268Y-293776D01*
X2622499Y-293776D01*
X2614879Y-294538D01*
X2608072Y-296621D01*
X2601772Y-299974D01*
X2595880Y-304800D01*
X2484577Y-416102D01*
X2481275Y-418287D01*
X2477414Y-419100D01*
X2430272Y-419100D01*
X2423922Y-419811D01*
X2418486Y-421690D01*
X2415082Y-423824D01*
X2411577Y-425196D01*
X2407818Y-425196D01*
X2404313Y-423824D01*
X2400909Y-421690D01*
X2395474Y-419811D01*
X2389124Y-419100D01*
X2335276Y-419100D01*
X2328926Y-419811D01*
X2326640Y-420624D01*
X2322830Y-421182D01*
X2319070Y-420268D01*
X2315921Y-418033D01*
X2313838Y-414782D01*
X2313127Y-411022D01*
X2313127Y-408381D01*
X2313889Y-404469D01*
X2316073Y-401167D01*
X2319375Y-398983D01*
X2323287Y-398221D01*
X2331923Y-398221D01*
X2338222Y-397510D01*
X2343708Y-395579D01*
X2348585Y-392480D01*
X2352700Y-388416D01*
X2355799Y-383489D01*
X2357678Y-378053D01*
X2358390Y-371754D01*
X2358390Y-277520D01*
X2359152Y-273608D01*
X2361387Y-270306D01*
X2430424Y-201269D01*
X2433726Y-199085D01*
X2437587Y-198323D01*
X3378962Y-198323D01*
X3382873Y-199085D01*
X3386175Y-201269D01*
X3531412Y-346557D01*
X3533597Y-349808D01*
X3534410Y-353720D01*
X3534410Y-447954D01*
X3535121Y-454253D01*
X3537000Y-459689D01*
X3540099Y-464616D01*
X3544163Y-468680D01*
X3549091Y-471779D01*
X3554526Y-473709D01*
X3560876Y-474421D01*
X3582720Y-474421D01*
X3586632Y-475183D01*
X3589934Y-477367D01*
X3592118Y-480669D01*
X3592880Y-484581D01*
X3592880Y-550113D01*
X3592474Y-552907D01*
X3591306Y-555498D01*
X3588004Y-560781D01*
X3586124Y-566216D01*
X3585413Y-572566D01*
X3585413Y-671423D01*
X3586124Y-677722D01*
X3588004Y-683209D01*
X3591102Y-688086D01*
X3595217Y-692200D01*
X3600094Y-695248D01*
X3605580Y-697179D01*
X3611879Y-697890D01*
X3665728Y-697890D01*
X3672078Y-697179D01*
X3677513Y-695248D01*
X3680917Y-693166D01*
X3684422Y-691743D01*
X3688181Y-691743D01*
X3691686Y-693166D01*
X3695090Y-695248D01*
X3700526Y-697179D01*
X3706876Y-697890D01*
X3721862Y-697890D01*
X3725773Y-698652D01*
X3729075Y-700887D01*
X3731260Y-704189D01*
X3732022Y-708050D01*
X3731260Y-711962D01*
X3729075Y-715213D01*
X3721709Y-722630D01*
X3718407Y-724814D01*
X3714496Y-725576D01*
X2771902Y-725576D01*
X2768041Y-724814D01*
X2764739Y-722630D01*
X2762504Y-719328D01*
X2761742Y-715416D01*
X2761742Y-700989D01*
X2761030Y-694639D01*
X2759151Y-689203D01*
X2756052Y-684276D01*
X2751937Y-680212D01*
X2747060Y-677113D01*
X2741574Y-675182D01*
X2735275Y-674471D01*
X2598724Y-674471D01*
X2592374Y-675182D01*
X2586939Y-677113D01*
X2582011Y-680212D01*
X2577947Y-684276D01*
X2574848Y-689203D01*
X2572969Y-694639D01*
X2572258Y-700989D01*
X2572258Y-705967D01*
X2571445Y-709828D01*
X2569260Y-713130D01*
X2565958Y-715365D01*
X2562098Y-716127D01*
X2515057Y-716127D01*
X2511704Y-715568D01*
X2508707Y-713892D01*
X2506472Y-711352D01*
X2504897Y-708914D01*
X2500782Y-704799D01*
X2495905Y-701700D01*
X2490470Y-699820D01*
X2484120Y-699109D01*
X2430272Y-699109D01*
X2423922Y-699820D01*
X2418486Y-701700D01*
X2415082Y-703834D01*
X2411577Y-705205D01*
X2407818Y-705205D01*
X2404313Y-703834D01*
X2400909Y-701700D01*
X2395474Y-699820D01*
X2389124Y-699109D01*
X2382316Y-699109D01*
X2382316Y-743661D01*
X2393645Y-743661D01*
X2397506Y-744423D01*
X2400808Y-746658D01*
X2402992Y-749909D01*
X2403805Y-753821D01*
X2403805Y-796188D01*
X2402992Y-800100D01*
X2400808Y-803402D01*
X2397506Y-805586D01*
X2393645Y-806348D01*
X2382316Y-806348D01*
X2382316Y-850900D01*
X2389124Y-850900D01*
X2395474Y-850188D01*
X2404973Y-846937D01*
X2409190Y-847344D01*
X2412898Y-849426D01*
X2415387Y-852881D01*
X2416302Y-856996D01*
X2416302Y-861618D01*
X2415489Y-865530D01*
X2413304Y-868832D01*
X2410002Y-871016D01*
X2406142Y-871778D01*
X2392476Y-871778D01*
X2386126Y-872490D01*
X2380691Y-874420D01*
X2375763Y-877468D01*
X2371699Y-881583D01*
X2368600Y-886460D01*
X2366721Y-891946D01*
X2366010Y-898245D01*
X2366010Y-1032103D01*
X2366721Y-1038453D01*
X2368600Y-1043889D01*
X2371699Y-1048816D01*
X2375763Y-1052880D01*
X2380691Y-1055979D01*
X2386126Y-1057910D01*
X2393746Y-1058621D01*
X2398014Y-1059535D01*
X2401468Y-1062126D01*
X2403500Y-1065936D01*
X2403805Y-1070305D01*
X2402281Y-1074318D01*
X2399182Y-1077366D01*
X2396032Y-1079347D01*
X2391918Y-1083411D01*
X2388870Y-1088339D01*
X2386939Y-1093774D01*
X2386228Y-1100124D01*
X2386228Y-1236675D01*
X2386939Y-1242974D01*
X2388870Y-1248460D01*
X2391918Y-1253337D01*
X2396032Y-1257452D01*
X2400909Y-1260551D01*
X2406396Y-1262430D01*
X2412695Y-1263142D01*
X2524810Y-1263142D01*
X2531160Y-1262430D01*
X2536596Y-1260551D01*
X2541524Y-1257452D01*
X2545588Y-1253337D01*
X2548686Y-1248460D01*
X2550566Y-1242974D01*
X2551277Y-1236675D01*
X2551277Y-1100124D01*
X2550566Y-1093774D01*
X2548686Y-1088339D01*
X2545588Y-1083411D01*
X2541524Y-1079347D01*
X2536444Y-1076147D01*
X2533650Y-1073556D01*
X2532024Y-1070152D01*
X2531719Y-1066393D01*
X2532837Y-1062786D01*
X2535224Y-1059840D01*
X2538476Y-1057960D01*
X2544114Y-1055979D01*
X2548991Y-1052880D01*
X2553106Y-1048816D01*
X2556814Y-1042924D01*
X2559608Y-1039977D01*
X2563368Y-1038402D01*
X2567432Y-1038402D01*
X2571191Y-1039977D01*
X2573985Y-1042924D01*
X2577693Y-1048816D01*
X2581757Y-1052880D01*
X2586685Y-1055979D01*
X2592324Y-1057960D01*
X2595575Y-1059840D01*
X2597962Y-1062786D01*
X2599080Y-1066393D01*
X2598775Y-1070152D01*
X2597150Y-1073556D01*
X2594356Y-1076147D01*
X2589276Y-1079347D01*
X2585212Y-1083411D01*
X2582113Y-1088339D01*
X2580182Y-1093774D01*
X2579471Y-1100124D01*
X2579471Y-1236675D01*
X2580182Y-1242974D01*
X2582113Y-1248460D01*
X2585212Y-1253337D01*
X2589276Y-1257452D01*
X2594203Y-1260551D01*
X2599639Y-1262430D01*
X2605989Y-1263142D01*
X2718054Y-1263142D01*
X2724404Y-1262430D01*
X2729839Y-1260551D01*
X2734767Y-1257452D01*
X2738831Y-1253337D01*
X2741930Y-1248460D01*
X2743860Y-1242974D01*
X2744571Y-1236675D01*
X2744571Y-1219454D01*
X2745333Y-1215542D01*
X2747518Y-1212291D01*
X2750820Y-1210056D01*
X2754731Y-1209294D01*
X2772714Y-1209294D01*
X2776778Y-1210157D01*
X2780131Y-1212545D01*
X2782265Y-1216101D01*
X2783535Y-1219606D01*
X2786583Y-1224534D01*
X2790698Y-1228598D01*
X2795574Y-1231696D01*
X2801061Y-1233576D01*
X2807360Y-1234287D01*
X2906217Y-1234287D01*
X2912567Y-1233576D01*
X2918002Y-1231696D01*
X2922930Y-1228598D01*
X2926994Y-1224534D01*
X2930093Y-1219606D01*
X2931972Y-1214170D01*
X2932684Y-1207820D01*
X2932684Y-1128979D01*
X2931972Y-1122629D01*
X2930093Y-1117193D01*
X2926994Y-1112266D01*
X2922930Y-1108202D01*
X2918002Y-1105103D01*
X2912567Y-1103223D01*
X2906217Y-1102512D01*
X2807360Y-1102512D01*
X2801061Y-1103223D01*
X2795574Y-1105103D01*
X2790698Y-1108202D01*
X2786583Y-1112266D01*
X2783535Y-1117193D01*
X2782316Y-1120698D01*
X2780131Y-1124254D01*
X2776778Y-1126642D01*
X2772714Y-1127455D01*
X2754731Y-1127455D01*
X2750820Y-1126693D01*
X2747518Y-1124508D01*
X2745333Y-1121206D01*
X2744571Y-1117295D01*
X2744571Y-1100124D01*
X2743860Y-1093774D01*
X2741930Y-1088339D01*
X2738831Y-1083411D01*
X2734767Y-1079347D01*
X2731617Y-1077366D01*
X2728518Y-1074318D01*
X2726994Y-1070305D01*
X2727248Y-1065936D01*
X2729331Y-1062126D01*
X2732786Y-1059535D01*
X2738323Y-1058621D01*
X2744622Y-1057910D01*
X2750108Y-1055979D01*
X2754985Y-1052880D01*
X2759100Y-1048816D01*
X2762199Y-1043889D01*
X2764078Y-1038453D01*
X2764790Y-1032103D01*
X2764790Y-1005281D01*
X2709976Y-1005281D01*
X2709976Y-1063498D01*
X2709214Y-1067358D01*
X2707030Y-1070660D01*
X2703728Y-1072845D01*
X2699816Y-1073658D01*
X2636977Y-1073658D01*
X2633065Y-1072845D01*
X2629763Y-1070660D01*
X2627579Y-1067358D01*
X2626817Y-1063498D01*
X2626817Y-1005281D01*
X2568956Y-1005281D01*
X2565095Y-1004519D01*
X2561793Y-1002334D01*
X2559558Y-999032D01*
X2558796Y-995121D01*
X2558796Y-935278D01*
X2559558Y-931367D01*
X2561793Y-928065D01*
X2565095Y-925880D01*
X2568956Y-925118D01*
X2626817Y-925118D01*
X2626817Y-871778D01*
X2598470Y-871778D01*
X2592120Y-872490D01*
X2586685Y-874420D01*
X2581757Y-877468D01*
X2577693Y-881583D01*
X2573985Y-887476D01*
X2571191Y-890422D01*
X2567432Y-891997D01*
X2563368Y-891997D01*
X2559608Y-890422D01*
X2556764Y-887476D01*
X2553106Y-881583D01*
X2548991Y-877468D01*
X2544114Y-874420D01*
X2538628Y-872490D01*
X2532329Y-871778D01*
X2508250Y-871778D01*
X2504389Y-871016D01*
X2501087Y-868832D01*
X2498852Y-865530D01*
X2498090Y-861618D01*
X2498090Y-852119D01*
X2498852Y-848258D01*
X2501087Y-844956D01*
X2504897Y-841095D01*
X2507996Y-836218D01*
X2509875Y-830783D01*
X2510586Y-824433D01*
X2510586Y-808075D01*
X2511399Y-804214D01*
X2513584Y-800912D01*
X2516886Y-798728D01*
X2520746Y-797915D01*
X2562098Y-797915D01*
X2565958Y-798728D01*
X2569260Y-800912D01*
X2571445Y-804214D01*
X2572258Y-808075D01*
X2572258Y-813104D01*
X2572969Y-819403D01*
X2574848Y-824839D01*
X2577947Y-829767D01*
X2582011Y-833831D01*
X2586939Y-836930D01*
X2592374Y-838860D01*
X2598724Y-839571D01*
X2735275Y-839571D01*
X2741574Y-838860D01*
X2747060Y-836930D01*
X2751937Y-833831D01*
X2756052Y-829767D01*
X2759151Y-824839D01*
X2761030Y-819403D01*
X2761742Y-813104D01*
X2761742Y-808583D01*
X2762504Y-804672D01*
X2764739Y-801370D01*
X2768041Y-799185D01*
X2771902Y-798423D01*
X3351784Y-798423D01*
X3356051Y-799338D01*
X3359505Y-801928D01*
X3361537Y-805738D01*
X3361842Y-810107D01*
X3360267Y-814120D01*
X3357219Y-817168D01*
X3352901Y-819861D01*
X3348786Y-823976D01*
X3345687Y-828852D01*
X3343808Y-834339D01*
X3343097Y-840638D01*
X3343097Y-979525D01*
X3343808Y-985824D01*
X3345687Y-991311D01*
X3348786Y-996187D01*
X3352901Y-1000302D01*
X3357778Y-1003350D01*
X3363264Y-1005281D01*
X3369564Y-1005992D01*
X3488436Y-1005992D01*
X3494735Y-1005281D01*
X3500221Y-1003350D01*
X3505098Y-1000302D01*
X3509213Y-996187D01*
X3512261Y-991311D01*
X3514191Y-985824D01*
X3514902Y-979525D01*
X3514902Y-953058D01*
X3515664Y-949198D01*
X3517900Y-945896D01*
X3521151Y-943660D01*
X3525062Y-942898D01*
X3575354Y-942898D01*
X3578961Y-943559D01*
X3582111Y-945489D01*
X3584397Y-948385D01*
X3585464Y-951941D01*
X3586124Y-957732D01*
X3588004Y-963218D01*
X3591102Y-968095D01*
X3595217Y-972210D01*
X3600094Y-975309D01*
X3605580Y-977188D01*
X3611879Y-977900D01*
X3665728Y-977900D01*
X3672078Y-977188D01*
X3677513Y-975309D01*
X3680917Y-973175D01*
X3684422Y-971803D01*
X3688181Y-971803D01*
X3691686Y-973175D01*
X3695090Y-975309D01*
X3700526Y-977188D01*
X3706876Y-977900D01*
X3713683Y-977900D01*
X3713683Y-933348D01*
X3702354Y-933348D01*
X3698494Y-932586D01*
X3695192Y-930402D01*
X3693007Y-927100D01*
X3692194Y-923188D01*
X3692194Y-880821D01*
X3693007Y-876909D01*
X3695192Y-873607D01*
X3698494Y-871423D01*
X3702354Y-870661D01*
X3713683Y-870661D01*
X3713683Y-826109D01*
X3706876Y-826109D01*
X3700526Y-826820D01*
X3695090Y-828700D01*
X3691686Y-830834D01*
X3688181Y-832205D01*
X3684422Y-832205D01*
X3680917Y-830834D01*
X3677513Y-828700D01*
X3672078Y-826820D01*
X3665728Y-826109D01*
X3611879Y-826109D01*
X3605580Y-826820D01*
X3600094Y-828700D01*
X3595217Y-831799D01*
X3591102Y-835914D01*
X3588004Y-840790D01*
X3586124Y-846277D01*
X3585464Y-852068D01*
X3584397Y-855573D01*
X3582111Y-858519D01*
X3578961Y-860450D01*
X3575354Y-861110D01*
X3525062Y-861110D01*
X3521151Y-860298D01*
X3517900Y-858113D01*
X3515664Y-854811D01*
X3514902Y-850950D01*
X3514902Y-840638D01*
X3514191Y-834339D01*
X3512261Y-828852D01*
X3509213Y-823976D01*
X3505098Y-819861D01*
X3500780Y-817168D01*
X3497681Y-814120D01*
X3496157Y-810107D01*
X3496411Y-805738D01*
X3498494Y-801928D01*
X3501948Y-799338D01*
X3506215Y-798423D01*
X3733292Y-798423D01*
X3740861Y-797661D01*
X3747719Y-795578D01*
X3753967Y-792226D01*
X3759911Y-787400D01*
X3846423Y-700887D01*
X3849725Y-698652D01*
X3853586Y-697890D01*
X3855720Y-697890D01*
X3862019Y-697179D01*
X3867505Y-695248D01*
X3872382Y-692200D01*
X3876497Y-688086D01*
X3879596Y-683209D01*
X3881475Y-677722D01*
X3882186Y-671423D01*
X3882186Y-572566D01*
X3881475Y-566216D01*
X3879596Y-560781D01*
X3876497Y-555853D01*
X3872382Y-551789D01*
X3867505Y-548690D01*
X3862019Y-546811D01*
X3855720Y-546100D01*
X3801872Y-546100D01*
X3795522Y-546811D01*
X3790086Y-548690D01*
X3786682Y-550824D01*
X3783177Y-552196D01*
X3779418Y-552196D01*
X3775913Y-550824D01*
X3772509Y-548690D01*
X3767074Y-546811D01*
X3760724Y-546100D01*
X3706876Y-546100D01*
X3700526Y-546811D01*
X3698240Y-547624D01*
X3694429Y-548182D01*
X3690670Y-547268D01*
X3687521Y-545033D01*
X3685438Y-541782D01*
X3684727Y-538022D01*
X3684727Y-484581D01*
X3685489Y-480669D01*
X3687673Y-477367D01*
X3690975Y-475183D01*
X3694887Y-474421D01*
X3700729Y-474421D01*
X3707028Y-473709D01*
X3712514Y-471779D01*
X3717391Y-468680D01*
X3721506Y-464616D01*
X3725214Y-458724D01*
X3728008Y-455777D01*
X3731768Y-454202D01*
X3735832Y-454202D01*
X3739591Y-455777D01*
X3742385Y-458724D01*
X3746093Y-464616D01*
X3750157Y-468680D01*
X3755085Y-471779D01*
X3760520Y-473709D01*
X3766870Y-474421D01*
X3795217Y-474421D01*
X3795217Y-421081D01*
X3737356Y-421081D01*
X3733495Y-420319D01*
X3730193Y-418134D01*
X3727958Y-414832D01*
X3727196Y-410921D01*
X3727196Y-351078D01*
X3727958Y-347167D01*
X3730193Y-343865D01*
X3733495Y-341680D01*
X3737356Y-340918D01*
X3795217Y-340918D01*
X3795217Y-287578D01*
X3766870Y-287578D01*
X3760520Y-288290D01*
X3755085Y-290220D01*
X3750157Y-293319D01*
X3746093Y-297383D01*
X3742385Y-303276D01*
X3739591Y-306222D01*
X3735832Y-307797D01*
X3731768Y-307797D01*
X3728008Y-306222D01*
X3725164Y-303276D01*
X3721506Y-297383D01*
X3717391Y-293319D01*
X3712514Y-290220D01*
X3707028Y-288290D01*
X3700729Y-287578D01*
X3606495Y-287578D01*
X3602634Y-286816D01*
X3599332Y-284632D01*
X3433368Y-118719D01*
X3426358Y-113385D01*
X3418738Y-109626D01*
X3410610Y-107340D01*
X3401720Y-106476D01*
X2412593Y-106527D01*
X2403856Y-107746D01*
X2395829Y-110439D01*
X2388463Y-114554D01*
X2381605Y-120294D01*
X2293416Y-208432D01*
X2290114Y-210616D01*
X2286254Y-211378D01*
X2192070Y-211378D01*
X2185720Y-212090D01*
X2180285Y-214020D01*
X2175357Y-217119D01*
X2171293Y-221183D01*
X2167585Y-227075D01*
X2164791Y-230022D01*
X2161032Y-231597D01*
X2156968Y-231597D01*
X2153208Y-230022D01*
X2150364Y-227075D01*
X2146706Y-221183D01*
X2142591Y-217119D01*
X2137714Y-214020D01*
X2132228Y-212090D01*
X2125929Y-211378D01*
X2097582Y-211378D01*
X2097582Y-264718D01*
X2155444Y-264718D01*
X2159304Y-265480D01*
X2162606Y-267665D01*
X2164791Y-270967D01*
X2165604Y-274878D01*
X2165604Y-334721D01*
X2164791Y-338632D01*
X2162606Y-341934D01*
X2159304Y-344119D01*
X2155444Y-344881D01*
X2097582Y-344881D01*
X2097582Y-398221D01*
X2125929Y-398221D01*
X2132228Y-397510D01*
X2137714Y-395579D01*
X2142591Y-392480D01*
X2146706Y-388416D01*
X2150414Y-382524D01*
X2153208Y-379577D01*
X2156968Y-378002D01*
X2161032Y-378002D01*
X2164791Y-379577D01*
X2167585Y-382524D01*
X2171293Y-388416D01*
X2175357Y-392480D01*
X2180285Y-395579D01*
X2185720Y-397510D01*
X2192070Y-398221D01*
X2211120Y-398221D01*
X2215032Y-398983D01*
X2218334Y-401167D01*
X2220518Y-404469D01*
X2221280Y-408381D01*
X2221280Y-423113D01*
X2220874Y-425907D01*
X2219756Y-428498D01*
X2216404Y-433781D01*
X2214524Y-439216D01*
X2213813Y-445566D01*
X2213813Y-485648D01*
X2213051Y-489559D01*
X2210816Y-492861D01*
X1766163Y-937514D01*
X1763725Y-939342D01*
X1760829Y-940308D01*
X1755495Y-940155D01*
X1743913Y-940612D01*
X1732483Y-942848D01*
X1721561Y-946759D01*
X1711350Y-952296D01*
X1702104Y-959358D01*
X1694789Y-966978D01*
X1691436Y-969264D01*
X1687474Y-970076D01*
X1420622Y-970127D01*
X1411884Y-971346D01*
X1403858Y-974039D01*
X1396492Y-978153D01*
X1389583Y-983843D01*
X1210919Y-1162608D01*
X1205585Y-1169670D01*
X1201826Y-1177239D01*
X1199540Y-1185367D01*
X1198676Y-1194257D01*
X1198676Y-1349502D01*
X1197914Y-1353413D01*
X1195730Y-1356715D01*
X1192428Y-1358900D01*
X1188516Y-1359662D01*
X1165148Y-1359662D01*
X1158849Y-1360373D01*
X1153363Y-1362303D01*
X1148486Y-1365402D01*
X1144371Y-1369466D01*
X1141323Y-1374394D01*
X1139393Y-1379829D01*
X1138682Y-1386179D01*
X1138682Y-1705000D01*
X1139393Y-1711350D01*
X1141323Y-1716786D01*
X1144371Y-1721713D01*
X1148486Y-1725777D01*
X1153363Y-1728876D01*
X1158849Y-1730806D01*
X1165148Y-1731518D01*
X1188516Y-1731518D01*
X1192428Y-1732280D01*
X1195730Y-1734464D01*
X1197914Y-1737766D01*
X1198676Y-1741678D01*
X1198676Y-2690520D01*
X1197864Y-2694533D01*
X1188059Y-2707436D01*
X1183081Y-2716987D01*
X1179677Y-2727198D01*
X1177950Y-2737815D01*
X1177950Y-2748584D01*
X1179677Y-2759202D01*
X1183081Y-2769412D01*
X1188059Y-2778912D01*
X1194562Y-2787548D01*
X1202283Y-2795016D01*
X1211173Y-2801112D01*
X1220876Y-2805734D01*
X1231239Y-2808732D01*
X1241907Y-2810002D01*
X1252677Y-2809595D01*
X1263192Y-2807411D01*
X1273251Y-2803601D01*
X1282598Y-2798216D01*
X1290929Y-2791409D01*
X1298041Y-2783382D01*
X1303832Y-2774289D01*
X1308049Y-2764383D01*
X1310589Y-2753918D01*
X1311452Y-2743200D01*
X1310589Y-2732481D01*
X1308049Y-2722016D01*
X1303832Y-2712110D01*
X1298041Y-2703017D01*
X1293063Y-2697378D01*
X1291183Y-2694228D01*
X1290523Y-2690622D01*
X1290523Y-1786382D01*
X1291285Y-1782470D01*
X1293469Y-1779168D01*
X1296771Y-1776984D01*
X1300683Y-1776222D01*
X1304544Y-1776984D01*
X1307846Y-1779168D01*
X1543608Y-2014880D01*
X1550670Y-2020214D01*
X1558239Y-2023973D01*
X1566367Y-2026259D01*
X1575257Y-2027123D01*
X4875072Y-2027123D01*
X4878882Y-2027834D01*
X4882083Y-2029917D01*
X4885283Y-2033016D01*
X4894173Y-2039112D01*
X4903876Y-2043734D01*
X4914188Y-2046732D01*
X4924907Y-2048002D01*
X4935626Y-2047595D01*
X4946192Y-2045411D01*
X4956251Y-2041601D01*
X4965598Y-2036216D01*
X4973980Y-2029409D01*
X4976977Y-2027682D01*
X4980381Y-2027123D01*
X5385409Y-2027123D01*
X5389321Y-2027885D01*
X5392623Y-2030069D01*
X5394807Y-2033371D01*
X5395569Y-2037283D01*
X5394807Y-2041143D01*
X5391962Y-2045106D01*
X5388914Y-2049983D01*
X5386984Y-2055469D01*
X5386273Y-2061768D01*
X5386273Y-2160625D01*
X5386984Y-2166924D01*
X5388914Y-2172411D01*
X5391962Y-2177288D01*
X5396077Y-2181402D01*
X5400954Y-2184501D01*
X5406440Y-2186381D01*
X5412740Y-2187092D01*
X5461812Y-2187092D01*
X5465724Y-2187905D01*
X5469026Y-2190140D01*
X5479491Y-2200656D01*
X5481726Y-2204059D01*
X5482437Y-2208022D01*
X5481574Y-2211933D01*
X5479237Y-2215235D01*
X5475782Y-2217369D01*
X5475782Y-2271318D01*
X5533644Y-2271318D01*
X5537504Y-2272080D01*
X5540806Y-2274265D01*
X5542991Y-2277567D01*
X5543804Y-2281478D01*
X5543804Y-2341321D01*
X5542991Y-2345232D01*
X5540806Y-2348534D01*
X5537504Y-2350719D01*
X5533644Y-2351481D01*
X5475782Y-2351481D01*
X5475782Y-2404821D01*
X5504129Y-2404821D01*
X5510428Y-2404110D01*
X5515914Y-2402179D01*
X5520791Y-2399080D01*
X5524906Y-2395016D01*
X5528614Y-2389124D01*
X5531408Y-2386177D01*
X5535168Y-2384602D01*
X5539232Y-2384602D01*
X5542991Y-2386177D01*
X5545785Y-2389124D01*
X5549493Y-2395016D01*
X5553557Y-2399080D01*
X5558485Y-2402179D01*
X5563920Y-2404110D01*
X5570270Y-2404821D01*
X5710123Y-2404821D01*
X5716422Y-2404110D01*
X5721908Y-2402179D01*
X5726785Y-2399080D01*
X5730900Y-2395016D01*
X5733999Y-2390089D01*
X5735878Y-2384653D01*
X5736590Y-2378303D01*
X5736590Y-2357983D01*
X5737352Y-2354072D01*
X5739587Y-2350770D01*
X5742889Y-2348585D01*
X5746750Y-2347823D01*
X5940247Y-2347823D01*
X5944158Y-2348585D01*
X5947460Y-2350770D01*
X5949645Y-2354072D01*
X5950407Y-2357983D01*
X5950407Y-2362454D01*
X5951118Y-2368804D01*
X5953048Y-2374239D01*
X5956147Y-2379167D01*
X5960211Y-2383231D01*
X5965139Y-2386330D01*
X5970574Y-2388260D01*
X5976924Y-2388971D01*
X5998616Y-2388971D01*
X6002528Y-2389733D01*
X6005830Y-2391918D01*
X6008014Y-2395220D01*
X6008776Y-2399131D01*
X6008776Y-2655620D01*
X6008420Y-2658262D01*
X6007354Y-2660802D01*
X6000851Y-2671775D01*
X5995568Y-2684322D01*
X5991961Y-2697480D01*
X5990132Y-2710992D01*
X5990132Y-2724607D01*
X5991961Y-2738120D01*
X5995568Y-2751277D01*
X6000851Y-2763824D01*
X6007811Y-2775559D01*
X6016294Y-2786278D01*
X6026099Y-2795778D01*
X6037072Y-2803855D01*
X6049010Y-2810408D01*
X6061760Y-2815285D01*
X6075019Y-2818434D01*
G37*
G36*
X6805269Y-2766466D02*
G01*
X6816902Y-2759913D01*
X6828281Y-2751429D01*
X6838492Y-2741523D01*
X6847331Y-2730449D01*
X6854698Y-2718308D01*
X6855764Y-2715869D01*
X6805218Y-2715869D01*
G37*
G36*
X6707530Y-2766466D02*
G01*
X6707530Y-2715869D01*
X6656984Y-2715869D01*
X6658051Y-2718308D01*
X6665417Y-2730449D01*
X6674307Y-2741523D01*
X6684518Y-2751429D01*
X6695897Y-2759913D01*
G37*
G36*
X4952187Y-2620518D02*
G01*
X5271008Y-2620518D01*
X5277358Y-2619806D01*
X5282793Y-2617876D01*
X5287721Y-2614828D01*
X5291785Y-2610713D01*
X5294884Y-2605836D01*
X5296814Y-2600350D01*
X5297525Y-2594051D01*
X5297525Y-2435199D01*
X5296814Y-2428849D01*
X5294884Y-2423414D01*
X5291785Y-2418486D01*
X5287721Y-2414422D01*
X5282793Y-2411323D01*
X5277358Y-2409393D01*
X5271008Y-2408682D01*
X4952187Y-2408682D01*
X4945837Y-2409393D01*
X4940401Y-2411323D01*
X4935474Y-2414422D01*
X4931410Y-2418486D01*
X4928311Y-2423414D01*
X4926380Y-2428849D01*
X4925669Y-2435199D01*
X4925669Y-2594051D01*
X4926380Y-2600350D01*
X4928311Y-2605836D01*
X4931410Y-2610713D01*
X4935474Y-2614828D01*
X4940401Y-2617876D01*
X4945837Y-2619806D01*
G37*
G36*
X6657035Y-2618130D02*
G01*
X6707530Y-2618130D01*
X6707530Y-2567686D01*
X6701993Y-2570378D01*
X6690055Y-2578150D01*
X6679234Y-2587345D01*
X6669684Y-2597861D01*
X6661556Y-2609494D01*
G37*
G36*
X6805218Y-2618130D02*
G01*
X6855714Y-2618130D01*
X6851192Y-2609494D01*
X6843064Y-2597861D01*
X6833514Y-2587345D01*
X6822694Y-2578150D01*
X6810806Y-2570378D01*
X6805218Y-2567686D01*
G37*
G36*
X6707530Y-2512466D02*
G01*
X6707530Y-2461869D01*
X6656984Y-2461869D01*
X6658051Y-2464308D01*
X6665417Y-2476449D01*
X6674307Y-2487523D01*
X6684518Y-2497429D01*
X6695897Y-2505913D01*
G37*
G36*
X6805218Y-2512466D02*
G01*
X6816902Y-2505913D01*
X6828281Y-2497429D01*
X6838492Y-2487523D01*
X6847331Y-2476449D01*
X6854698Y-2464308D01*
X6855764Y-2461869D01*
X6805218Y-2461869D01*
G37*
G36*
X5364276Y-2404821D02*
G01*
X5392572Y-2404821D01*
X5392572Y-2351481D01*
X5337759Y-2351481D01*
X5337759Y-2378303D01*
X5338470Y-2384653D01*
X5340400Y-2390089D01*
X5343499Y-2395016D01*
X5347563Y-2399080D01*
X5352491Y-2402179D01*
X5357926Y-2404110D01*
G37*
G36*
X4952187Y-2366518D02*
G01*
X5271008Y-2366518D01*
X5277358Y-2365806D01*
X5282793Y-2363876D01*
X5287721Y-2360828D01*
X5291785Y-2356713D01*
X5294884Y-2351836D01*
X5296814Y-2346350D01*
X5297525Y-2340051D01*
X5297525Y-2181199D01*
X5296814Y-2174849D01*
X5294884Y-2169414D01*
X5291785Y-2164486D01*
X5287721Y-2160422D01*
X5282793Y-2157323D01*
X5277358Y-2155393D01*
X5271008Y-2154682D01*
X4952187Y-2154682D01*
X4945837Y-2155393D01*
X4940401Y-2157323D01*
X4935474Y-2160422D01*
X4931410Y-2164486D01*
X4928311Y-2169414D01*
X4926380Y-2174849D01*
X4925669Y-2181199D01*
X4925669Y-2340051D01*
X4926380Y-2346350D01*
X4928311Y-2351836D01*
X4931410Y-2356713D01*
X4935474Y-2360828D01*
X4940401Y-2363876D01*
X4945837Y-2365806D01*
G37*
G36*
X6657035Y-2364130D02*
G01*
X6707530Y-2364130D01*
X6707530Y-2313686D01*
X6701993Y-2316378D01*
X6690055Y-2324150D01*
X6679234Y-2333345D01*
X6669684Y-2343861D01*
X6661556Y-2355494D01*
G37*
G36*
X6805218Y-2364130D02*
G01*
X6855714Y-2364130D01*
X6851192Y-2355494D01*
X6843064Y-2343861D01*
X6833514Y-2333345D01*
X6822694Y-2324150D01*
X6810806Y-2316378D01*
X6805218Y-2313686D01*
G37*
G36*
X5337759Y-2271318D02*
G01*
X5392572Y-2271318D01*
X5392572Y-2217978D01*
X5364276Y-2217978D01*
X5357926Y-2218690D01*
X5352491Y-2220620D01*
X5347563Y-2223668D01*
X5343499Y-2227783D01*
X5340400Y-2232660D01*
X5338470Y-2238146D01*
X5337759Y-2244445D01*
G37*
G36*
X6749288Y-2269642D02*
G01*
X6763512Y-2269642D01*
X6777583Y-2267813D01*
X6791350Y-2264257D01*
X6804507Y-2258923D01*
X6816902Y-2251913D01*
X6828281Y-2243429D01*
X6838492Y-2233523D01*
X6847331Y-2222449D01*
X6854698Y-2210308D01*
X6860438Y-2197303D01*
X6864502Y-2183688D01*
X6866737Y-2169668D01*
X6867194Y-2155444D01*
X6865874Y-2141321D01*
X6862673Y-2127453D01*
X6857796Y-2114092D01*
X6851192Y-2101494D01*
X6843064Y-2089861D01*
X6833514Y-2079345D01*
X6822694Y-2070150D01*
X6810806Y-2062378D01*
X6803034Y-2058619D01*
X6799986Y-2056384D01*
X6798005Y-2053183D01*
X6797294Y-2049475D01*
X6797294Y-1847189D01*
X6797852Y-1843836D01*
X6799478Y-1840890D01*
X6811060Y-1830628D01*
X6818426Y-1821637D01*
X6824370Y-1811680D01*
X6828739Y-1800910D01*
X6831380Y-1789582D01*
X6832244Y-1778000D01*
X6831380Y-1766417D01*
X6828739Y-1755089D01*
X6824370Y-1744319D01*
X6818426Y-1734362D01*
X6811060Y-1725371D01*
X6802374Y-1717649D01*
X6792620Y-1711350D01*
X6782053Y-1706575D01*
X6770827Y-1703527D01*
X6759295Y-1702155D01*
X6747662Y-1702612D01*
X6742328Y-1703120D01*
X6739178Y-1702155D01*
X6736486Y-1700225D01*
X6252260Y-1216050D01*
X6245707Y-1210614D01*
X6238646Y-1206855D01*
X6230975Y-1204518D01*
X6222492Y-1203706D01*
X5955131Y-1203706D01*
X5951220Y-1202944D01*
X5947918Y-1200708D01*
X5945733Y-1197406D01*
X5944971Y-1193546D01*
X5944971Y-1176324D01*
X5944260Y-1169974D01*
X5942330Y-1164539D01*
X5939231Y-1159611D01*
X5935167Y-1155547D01*
X5930239Y-1152448D01*
X5924804Y-1150569D01*
X5918454Y-1149858D01*
X5913475Y-1149858D01*
X5909614Y-1149045D01*
X5906312Y-1146860D01*
X5904128Y-1143558D01*
X5903315Y-1139698D01*
X5903315Y-1129131D01*
X5904128Y-1125220D01*
X5906312Y-1121918D01*
X5909614Y-1119733D01*
X5913475Y-1118971D01*
X5935675Y-1118971D01*
X5941974Y-1118260D01*
X5947460Y-1116330D01*
X5952337Y-1113231D01*
X5956452Y-1109167D01*
X5959500Y-1104239D01*
X5961430Y-1098804D01*
X5962142Y-1092504D01*
X5962142Y-980389D01*
X5961430Y-974039D01*
X5959500Y-968603D01*
X5956452Y-963676D01*
X5952337Y-959612D01*
X5947460Y-956513D01*
X5941974Y-954582D01*
X5935675Y-953871D01*
X5799124Y-953871D01*
X5792774Y-954582D01*
X5787339Y-956513D01*
X5782411Y-959612D01*
X5778347Y-963676D01*
X5775248Y-968603D01*
X5773318Y-974039D01*
X5772607Y-980389D01*
X5772607Y-989837D01*
X5771845Y-993749D01*
X5769660Y-997051D01*
X5766358Y-999236D01*
X5762447Y-999998D01*
X5667502Y-999998D01*
X5663641Y-999236D01*
X5660339Y-997051D01*
X5658104Y-993749D01*
X5657342Y-989837D01*
X5657342Y-980389D01*
X5656630Y-974039D01*
X5654700Y-968603D01*
X5651652Y-963676D01*
X5647537Y-959612D01*
X5642660Y-956513D01*
X5637174Y-954582D01*
X5630875Y-953871D01*
X5494324Y-953871D01*
X5487974Y-954582D01*
X5482539Y-956513D01*
X5477611Y-959612D01*
X5473547Y-963676D01*
X5470448Y-968603D01*
X5468518Y-974039D01*
X5467807Y-980389D01*
X5467807Y-1092504D01*
X5468518Y-1098804D01*
X5470448Y-1104239D01*
X5473547Y-1109167D01*
X5477611Y-1113231D01*
X5482539Y-1116330D01*
X5487974Y-1118260D01*
X5494324Y-1118971D01*
X5630875Y-1118971D01*
X5637174Y-1118260D01*
X5642660Y-1116330D01*
X5647537Y-1113231D01*
X5651652Y-1109167D01*
X5654700Y-1104239D01*
X5656630Y-1098804D01*
X5657342Y-1092504D01*
X5657342Y-1083005D01*
X5658104Y-1079093D01*
X5660339Y-1075791D01*
X5663641Y-1073607D01*
X5667502Y-1072845D01*
X5762447Y-1072845D01*
X5766358Y-1073607D01*
X5769660Y-1075791D01*
X5771845Y-1079093D01*
X5772607Y-1083005D01*
X5772607Y-1092504D01*
X5773318Y-1098804D01*
X5775248Y-1104239D01*
X5778347Y-1109167D01*
X5782411Y-1113231D01*
X5787339Y-1116330D01*
X5792774Y-1118260D01*
X5799124Y-1118971D01*
X5811367Y-1118971D01*
X5815228Y-1119733D01*
X5818530Y-1121918D01*
X5820765Y-1125220D01*
X5821527Y-1129131D01*
X5821527Y-1139698D01*
X5820765Y-1143558D01*
X5818530Y-1146860D01*
X5815228Y-1149045D01*
X5811367Y-1149858D01*
X5806338Y-1149858D01*
X5800039Y-1150569D01*
X5794552Y-1152448D01*
X5789676Y-1155547D01*
X5785561Y-1159611D01*
X5782513Y-1164539D01*
X5780582Y-1169974D01*
X5779871Y-1176324D01*
X5779871Y-1312875D01*
X5780582Y-1319174D01*
X5782513Y-1324660D01*
X5785561Y-1329537D01*
X5789676Y-1333652D01*
X5794552Y-1336751D01*
X5800039Y-1338630D01*
X5806338Y-1339342D01*
X5918454Y-1339342D01*
X5924804Y-1338630D01*
X5930239Y-1336751D01*
X5935167Y-1333652D01*
X5939231Y-1329537D01*
X5942330Y-1324660D01*
X5944260Y-1319174D01*
X5944971Y-1312875D01*
X5944971Y-1295654D01*
X5945733Y-1291793D01*
X5947918Y-1288491D01*
X5951220Y-1286306D01*
X5955131Y-1285494D01*
X6201867Y-1285494D01*
X6205728Y-1286306D01*
X6209030Y-1288491D01*
X6678675Y-1758137D01*
X6680555Y-1760728D01*
X6681520Y-1763725D01*
X6681571Y-1766874D01*
X6680708Y-1772208D01*
X6680708Y-1783791D01*
X6682486Y-1795272D01*
X6685991Y-1806346D01*
X6691172Y-1816760D01*
X6697827Y-1826260D01*
X6705904Y-1834642D01*
X6711492Y-1838909D01*
X6713626Y-1841144D01*
X6714998Y-1843887D01*
X6715455Y-1846986D01*
X6715455Y-2049475D01*
X6714794Y-2053183D01*
X6712762Y-2056384D01*
X6709714Y-2058619D01*
X6701993Y-2062378D01*
X6690055Y-2070150D01*
X6679234Y-2079345D01*
X6669684Y-2089861D01*
X6661556Y-2101494D01*
X6655003Y-2114092D01*
X6650075Y-2127453D01*
X6646925Y-2141321D01*
X6645554Y-2155444D01*
X6646011Y-2169668D01*
X6648297Y-2183688D01*
X6652310Y-2197303D01*
X6658051Y-2210308D01*
X6665417Y-2222449D01*
X6674307Y-2233523D01*
X6684518Y-2243429D01*
X6695897Y-2251913D01*
X6708292Y-2258923D01*
X6721449Y-2264257D01*
X6735165Y-2267813D01*
G37*
G36*
X5748578Y-1861972D02*
G01*
X5801868Y-1861972D01*
X5801868Y-1807210D01*
X5775045Y-1807210D01*
X5768746Y-1807921D01*
X5763260Y-1809800D01*
X5758383Y-1812899D01*
X5754268Y-1816963D01*
X5751220Y-1821891D01*
X5749290Y-1827326D01*
X5748578Y-1833676D01*
G37*
G36*
X5882081Y-1861972D02*
G01*
X5935421Y-1861972D01*
X5935421Y-1833676D01*
X5934659Y-1827326D01*
X5932779Y-1821891D01*
X5929680Y-1816963D01*
X5925616Y-1812899D01*
X5920689Y-1809800D01*
X5915253Y-1807921D01*
X5908903Y-1807210D01*
X5882081Y-1807210D01*
G37*
G36*
X657148Y-1731518D02*
G01*
X690270Y-1731518D01*
X690270Y-1631950D01*
X630682Y-1631950D01*
X630682Y-1705000D01*
X631393Y-1711350D01*
X633323Y-1716786D01*
X636371Y-1721713D01*
X640486Y-1725777D01*
X645363Y-1728876D01*
X650849Y-1730806D01*
G37*
G36*
X782929Y-1731518D02*
G01*
X816000Y-1731518D01*
X822350Y-1730806D01*
X827786Y-1728876D01*
X832713Y-1725777D01*
X836777Y-1721713D01*
X839876Y-1716786D01*
X841806Y-1711350D01*
X842518Y-1705000D01*
X842518Y-1631950D01*
X782929Y-1631950D01*
G37*
G36*
X4467148Y-1731518D02*
G01*
X4500270Y-1731518D01*
X4500270Y-1631950D01*
X4440682Y-1631950D01*
X4440682Y-1705000D01*
X4441393Y-1711350D01*
X4443323Y-1716786D01*
X4446371Y-1721713D01*
X4450486Y-1725777D01*
X4455363Y-1728876D01*
X4460849Y-1730806D01*
G37*
G36*
X2435148Y-1731518D02*
G01*
X2468270Y-1731518D01*
X2468270Y-1631950D01*
X2408682Y-1631950D01*
X2408682Y-1705000D01*
X2409393Y-1711350D01*
X2411323Y-1716786D01*
X2414371Y-1721713D01*
X2418486Y-1725777D01*
X2423363Y-1728876D01*
X2428849Y-1730806D01*
G37*
G36*
X3197148Y-1731518D02*
G01*
X3230270Y-1731518D01*
X3230270Y-1631950D01*
X3170682Y-1631950D01*
X3170682Y-1705000D01*
X3171393Y-1711350D01*
X3173323Y-1716786D01*
X3176371Y-1721713D01*
X3180486Y-1725777D01*
X3185363Y-1728876D01*
X3190849Y-1730806D01*
G37*
G36*
X2560929Y-1731518D02*
G01*
X2594000Y-1731518D01*
X2600350Y-1730806D01*
X2605786Y-1728876D01*
X2610713Y-1725777D01*
X2614777Y-1721713D01*
X2617876Y-1716786D01*
X2619806Y-1711350D01*
X2620518Y-1705000D01*
X2620518Y-1631950D01*
X2560929Y-1631950D01*
G37*
G36*
X3322929Y-1731518D02*
G01*
X3356000Y-1731518D01*
X3362350Y-1730806D01*
X3367786Y-1728876D01*
X3372713Y-1725777D01*
X3376777Y-1721713D01*
X3379876Y-1716786D01*
X3381806Y-1711350D01*
X3382518Y-1705000D01*
X3382518Y-1631950D01*
X3322929Y-1631950D01*
G37*
G36*
X4592929Y-1731518D02*
G01*
X4626000Y-1731518D01*
X4632350Y-1730806D01*
X4637786Y-1728876D01*
X4642713Y-1725777D01*
X4646777Y-1721713D01*
X4649876Y-1716786D01*
X4651806Y-1711350D01*
X4652518Y-1705000D01*
X4652518Y-1631950D01*
X4592929Y-1631950D01*
G37*
G36*
X911148Y-1731518D02*
G01*
X1070000Y-1731518D01*
X1076350Y-1730806D01*
X1081786Y-1728876D01*
X1086713Y-1725777D01*
X1090777Y-1721713D01*
X1093876Y-1716786D01*
X1095806Y-1711350D01*
X1096518Y-1705000D01*
X1096518Y-1386179D01*
X1095806Y-1379829D01*
X1093876Y-1374394D01*
X1090777Y-1369466D01*
X1086713Y-1365402D01*
X1081786Y-1362303D01*
X1076350Y-1360373D01*
X1070000Y-1359662D01*
X911148Y-1359662D01*
X904849Y-1360373D01*
X899363Y-1362303D01*
X894486Y-1365402D01*
X890371Y-1369466D01*
X887323Y-1374394D01*
X885393Y-1379829D01*
X884682Y-1386179D01*
X884682Y-1705000D01*
X885393Y-1711350D01*
X887323Y-1716786D01*
X890371Y-1721713D01*
X894486Y-1725777D01*
X899363Y-1728876D01*
X904849Y-1730806D01*
G37*
G36*
X3705148Y-1731518D02*
G01*
X3864000Y-1731518D01*
X3870350Y-1730806D01*
X3875786Y-1728876D01*
X3880713Y-1725777D01*
X3884777Y-1721713D01*
X3887876Y-1716786D01*
X3889806Y-1711350D01*
X3890518Y-1705000D01*
X3890518Y-1386179D01*
X3889806Y-1379829D01*
X3887876Y-1374394D01*
X3884777Y-1369466D01*
X3880713Y-1365402D01*
X3875786Y-1362303D01*
X3870350Y-1360373D01*
X3864000Y-1359662D01*
X3705148Y-1359662D01*
X3698849Y-1360373D01*
X3693363Y-1362303D01*
X3688486Y-1365402D01*
X3684371Y-1369466D01*
X3681323Y-1374394D01*
X3679393Y-1379829D01*
X3678682Y-1386179D01*
X3678682Y-1705000D01*
X3679393Y-1711350D01*
X3681323Y-1716786D01*
X3684371Y-1721713D01*
X3688486Y-1725777D01*
X3693363Y-1728876D01*
X3698849Y-1730806D01*
G37*
G36*
X3959148Y-1731518D02*
G01*
X4118000Y-1731518D01*
X4124350Y-1730806D01*
X4129786Y-1728876D01*
X4134713Y-1725777D01*
X4138777Y-1721713D01*
X4141876Y-1716786D01*
X4143806Y-1711350D01*
X4144518Y-1705000D01*
X4144518Y-1386179D01*
X4143806Y-1379829D01*
X4141876Y-1374394D01*
X4138777Y-1369466D01*
X4134713Y-1365402D01*
X4129786Y-1362303D01*
X4124350Y-1360373D01*
X4118000Y-1359662D01*
X3959148Y-1359662D01*
X3952849Y-1360373D01*
X3947363Y-1362303D01*
X3942486Y-1365402D01*
X3938371Y-1369466D01*
X3935323Y-1374394D01*
X3933393Y-1379829D01*
X3932682Y-1386179D01*
X3932682Y-1705000D01*
X3933393Y-1711350D01*
X3935323Y-1716786D01*
X3938371Y-1721713D01*
X3942486Y-1725777D01*
X3947363Y-1728876D01*
X3952849Y-1730806D01*
G37*
G36*
X4213148Y-1731518D02*
G01*
X4372000Y-1731518D01*
X4378350Y-1730806D01*
X4383786Y-1728876D01*
X4388713Y-1725777D01*
X4392777Y-1721713D01*
X4395876Y-1716786D01*
X4397806Y-1711350D01*
X4398518Y-1705000D01*
X4398518Y-1386179D01*
X4397806Y-1379829D01*
X4395876Y-1374394D01*
X4392777Y-1369466D01*
X4388713Y-1365402D01*
X4383786Y-1362303D01*
X4378350Y-1360373D01*
X4372000Y-1359662D01*
X4213148Y-1359662D01*
X4206849Y-1360373D01*
X4201363Y-1362303D01*
X4196486Y-1365402D01*
X4192371Y-1369466D01*
X4189323Y-1374394D01*
X4187393Y-1379829D01*
X4186682Y-1386179D01*
X4186682Y-1705000D01*
X4187393Y-1711350D01*
X4189323Y-1716786D01*
X4192371Y-1721713D01*
X4196486Y-1725777D01*
X4201363Y-1728876D01*
X4206849Y-1730806D01*
G37*
G36*
X3451148Y-1731518D02*
G01*
X3610000Y-1731518D01*
X3616350Y-1730806D01*
X3621786Y-1728876D01*
X3626713Y-1725777D01*
X3630777Y-1721713D01*
X3633876Y-1716786D01*
X3635806Y-1711350D01*
X3636518Y-1705000D01*
X3636518Y-1386179D01*
X3635806Y-1379829D01*
X3633876Y-1374394D01*
X3630777Y-1369466D01*
X3626713Y-1365402D01*
X3621786Y-1362303D01*
X3616350Y-1360373D01*
X3610000Y-1359662D01*
X3451148Y-1359662D01*
X3444849Y-1360373D01*
X3439363Y-1362303D01*
X3434486Y-1365402D01*
X3430371Y-1369466D01*
X3427323Y-1374394D01*
X3425393Y-1379829D01*
X3424682Y-1386179D01*
X3424682Y-1705000D01*
X3425393Y-1711350D01*
X3427323Y-1716786D01*
X3430371Y-1721713D01*
X3434486Y-1725777D01*
X3439363Y-1728876D01*
X3444849Y-1730806D01*
G37*
G36*
X2689148Y-1731518D02*
G01*
X2848000Y-1731518D01*
X2854350Y-1730806D01*
X2859786Y-1728876D01*
X2864713Y-1725777D01*
X2868777Y-1721713D01*
X2871876Y-1716786D01*
X2873806Y-1711350D01*
X2874518Y-1705000D01*
X2874518Y-1386179D01*
X2873806Y-1379829D01*
X2871876Y-1374394D01*
X2868777Y-1369466D01*
X2864713Y-1365402D01*
X2859786Y-1362303D01*
X2854350Y-1360373D01*
X2848000Y-1359662D01*
X2689148Y-1359662D01*
X2682849Y-1360373D01*
X2677363Y-1362303D01*
X2672486Y-1365402D01*
X2668371Y-1369466D01*
X2665323Y-1374394D01*
X2663393Y-1379829D01*
X2662682Y-1386179D01*
X2662682Y-1705000D01*
X2663393Y-1711350D01*
X2665323Y-1716786D01*
X2668371Y-1721713D01*
X2672486Y-1725777D01*
X2677363Y-1728876D01*
X2682849Y-1730806D01*
G37*
G36*
X2943148Y-1731518D02*
G01*
X3102000Y-1731518D01*
X3108350Y-1730806D01*
X3113786Y-1728876D01*
X3118713Y-1725777D01*
X3122777Y-1721713D01*
X3125876Y-1716786D01*
X3127806Y-1711350D01*
X3128518Y-1705000D01*
X3128518Y-1386179D01*
X3127806Y-1379829D01*
X3125876Y-1374394D01*
X3122777Y-1369466D01*
X3118713Y-1365402D01*
X3113786Y-1362303D01*
X3108350Y-1360373D01*
X3102000Y-1359662D01*
X3073654Y-1359662D01*
X3069793Y-1358900D01*
X3066491Y-1356715D01*
X3064256Y-1353413D01*
X3063494Y-1348740D01*
X3064256Y-1344879D01*
X3066491Y-1341577D01*
X3075787Y-1332280D01*
X3079089Y-1330096D01*
X3082950Y-1329334D01*
X3136239Y-1329334D01*
X3142538Y-1328623D01*
X3148025Y-1326692D01*
X3152902Y-1323594D01*
X3157016Y-1319530D01*
X3160064Y-1314602D01*
X3161995Y-1309166D01*
X3162706Y-1302816D01*
X3162706Y-1223975D01*
X3161995Y-1217676D01*
X3160064Y-1212189D01*
X3157016Y-1207312D01*
X3152902Y-1203198D01*
X3148025Y-1200099D01*
X3142538Y-1198219D01*
X3136239Y-1197508D01*
X3037382Y-1197508D01*
X3031032Y-1198219D01*
X3025597Y-1200099D01*
X3020669Y-1203198D01*
X3016605Y-1207312D01*
X3013506Y-1212189D01*
X3011576Y-1217676D01*
X3010865Y-1223975D01*
X3010865Y-1277264D01*
X3010103Y-1281125D01*
X3007918Y-1284427D01*
X2994050Y-1298346D01*
X2988614Y-1304899D01*
X2984855Y-1311960D01*
X2982518Y-1319631D01*
X2981706Y-1328115D01*
X2981706Y-1349502D01*
X2980944Y-1353413D01*
X2978708Y-1356715D01*
X2975406Y-1358900D01*
X2971546Y-1359662D01*
X2943148Y-1359662D01*
X2936849Y-1360373D01*
X2931363Y-1362303D01*
X2926486Y-1365402D01*
X2922371Y-1369466D01*
X2919323Y-1374394D01*
X2917393Y-1379829D01*
X2916682Y-1386179D01*
X2916682Y-1705000D01*
X2917393Y-1711350D01*
X2919323Y-1716786D01*
X2922371Y-1721713D01*
X2926486Y-1725777D01*
X2931363Y-1728876D01*
X2936849Y-1730806D01*
G37*
G36*
X149148Y-1731518D02*
G01*
X308000Y-1731518D01*
X314350Y-1730806D01*
X319786Y-1728876D01*
X324713Y-1725777D01*
X328777Y-1721713D01*
X331876Y-1716786D01*
X333806Y-1711350D01*
X334518Y-1705000D01*
X334518Y-1386179D01*
X333806Y-1379829D01*
X331876Y-1374394D01*
X328777Y-1369466D01*
X324713Y-1365402D01*
X319786Y-1362303D01*
X314350Y-1360373D01*
X308000Y-1359662D01*
X284683Y-1359662D01*
X280771Y-1358900D01*
X277469Y-1356715D01*
X275285Y-1353413D01*
X274523Y-1349502D01*
X274523Y-1232408D01*
X275285Y-1228496D01*
X277469Y-1225245D01*
X280771Y-1223010D01*
X284683Y-1222248D01*
X306781Y-1222248D01*
X313080Y-1221536D01*
X318566Y-1219606D01*
X323443Y-1216558D01*
X327558Y-1212443D01*
X330606Y-1207566D01*
X332536Y-1202080D01*
X333248Y-1195781D01*
X333248Y-1039418D01*
X332536Y-1033119D01*
X330606Y-1027633D01*
X327558Y-1022756D01*
X323443Y-1018641D01*
X318566Y-1015593D01*
X313080Y-1013663D01*
X306781Y-1012952D01*
X150418Y-1012952D01*
X144119Y-1013663D01*
X138633Y-1015593D01*
X133756Y-1018641D01*
X129641Y-1022756D01*
X126593Y-1027633D01*
X124663Y-1033119D01*
X123952Y-1039418D01*
X123952Y-1195781D01*
X124663Y-1202080D01*
X126593Y-1207566D01*
X129641Y-1212443D01*
X133756Y-1216558D01*
X138633Y-1219606D01*
X144119Y-1221536D01*
X150418Y-1222248D01*
X172516Y-1222248D01*
X176428Y-1223010D01*
X179730Y-1225245D01*
X181914Y-1228496D01*
X182676Y-1232408D01*
X182676Y-1349502D01*
X181914Y-1353413D01*
X179730Y-1356715D01*
X176428Y-1358900D01*
X172516Y-1359662D01*
X149148Y-1359662D01*
X142849Y-1360373D01*
X137363Y-1362303D01*
X132486Y-1365402D01*
X128371Y-1369466D01*
X125323Y-1374394D01*
X123393Y-1379829D01*
X122682Y-1386179D01*
X122682Y-1705000D01*
X123393Y-1711350D01*
X125323Y-1716786D01*
X128371Y-1721713D01*
X132486Y-1725777D01*
X137363Y-1728876D01*
X142849Y-1730806D01*
G37*
G36*
X5851753Y-1612392D02*
G01*
X5869838Y-1612392D01*
X5869838Y-1561592D01*
X5825286Y-1561592D01*
X5825286Y-1585925D01*
X5825998Y-1592224D01*
X5827877Y-1597710D01*
X5830976Y-1602587D01*
X5835091Y-1606702D01*
X5839968Y-1609750D01*
X5845454Y-1611680D01*
G37*
G36*
X5932525Y-1612392D02*
G01*
X5950610Y-1612392D01*
X5956960Y-1611680D01*
X5962396Y-1609750D01*
X5967323Y-1606702D01*
X5971387Y-1602587D01*
X5974486Y-1597710D01*
X5976366Y-1592224D01*
X5977077Y-1585925D01*
X5977077Y-1561592D01*
X5932525Y-1561592D01*
G37*
G36*
X5825286Y-1486408D02*
G01*
X5869838Y-1486408D01*
X5869838Y-1435557D01*
X5851753Y-1435557D01*
X5845454Y-1436268D01*
X5839968Y-1438198D01*
X5835091Y-1441297D01*
X5830976Y-1445361D01*
X5827877Y-1450289D01*
X5825998Y-1455724D01*
X5825286Y-1462074D01*
G37*
G36*
X5932525Y-1486408D02*
G01*
X5977077Y-1486408D01*
X5977077Y-1462074D01*
X5976366Y-1455724D01*
X5974486Y-1450289D01*
X5971387Y-1445361D01*
X5967323Y-1441297D01*
X5962396Y-1438198D01*
X5956960Y-1436268D01*
X5950610Y-1435557D01*
X5932525Y-1435557D01*
G37*
G36*
X630682Y-1459230D02*
G01*
X690270Y-1459230D01*
X690270Y-1359662D01*
X657148Y-1359662D01*
X650849Y-1360373D01*
X645363Y-1362303D01*
X640486Y-1365402D01*
X636371Y-1369466D01*
X633323Y-1374394D01*
X631393Y-1379829D01*
X630682Y-1386179D01*
G37*
G36*
X782929Y-1459230D02*
G01*
X842518Y-1459230D01*
X842518Y-1386179D01*
X841806Y-1379829D01*
X839876Y-1374394D01*
X836777Y-1369466D01*
X832713Y-1365402D01*
X827786Y-1362303D01*
X822350Y-1360373D01*
X816000Y-1359662D01*
X782929Y-1359662D01*
G37*
G36*
X4440682Y-1459230D02*
G01*
X4500270Y-1459230D01*
X4500270Y-1359662D01*
X4467148Y-1359662D01*
X4460849Y-1360373D01*
X4455363Y-1362303D01*
X4450486Y-1365402D01*
X4446371Y-1369466D01*
X4443323Y-1374394D01*
X4441393Y-1379829D01*
X4440682Y-1386179D01*
G37*
G36*
X3170682Y-1459230D02*
G01*
X3230270Y-1459230D01*
X3230270Y-1359662D01*
X3197148Y-1359662D01*
X3190849Y-1360373D01*
X3185363Y-1362303D01*
X3180486Y-1365402D01*
X3176371Y-1369466D01*
X3173323Y-1374394D01*
X3171393Y-1379829D01*
X3170682Y-1386179D01*
G37*
G36*
X2408682Y-1459230D02*
G01*
X2468270Y-1459230D01*
X2468270Y-1359662D01*
X2435148Y-1359662D01*
X2428849Y-1360373D01*
X2423363Y-1362303D01*
X2418486Y-1365402D01*
X2414371Y-1369466D01*
X2411323Y-1374394D01*
X2409393Y-1379829D01*
X2408682Y-1386179D01*
G37*
G36*
X2560929Y-1459230D02*
G01*
X2620518Y-1459230D01*
X2620518Y-1386179D01*
X2619806Y-1379829D01*
X2617876Y-1374394D01*
X2614777Y-1369466D01*
X2610713Y-1365402D01*
X2605786Y-1362303D01*
X2600350Y-1360373D01*
X2594000Y-1359662D01*
X2560929Y-1359662D01*
G37*
G36*
X3322929Y-1459230D02*
G01*
X3382518Y-1459230D01*
X3382518Y-1386179D01*
X3381806Y-1379829D01*
X3379876Y-1374394D01*
X3376777Y-1369466D01*
X3372713Y-1365402D01*
X3367786Y-1362303D01*
X3362350Y-1360373D01*
X3356000Y-1359662D01*
X3322929Y-1359662D01*
G37*
G36*
X4592929Y-1459230D02*
G01*
X4652518Y-1459230D01*
X4652518Y-1386179D01*
X4651806Y-1379829D01*
X4649876Y-1374394D01*
X4646777Y-1369466D01*
X4642713Y-1365402D01*
X4637786Y-1362303D01*
X4632350Y-1360373D01*
X4626000Y-1359662D01*
X4592929Y-1359662D01*
G37*
G36*
X4653076Y-1338021D02*
G01*
X4681372Y-1338021D01*
X4681372Y-1284681D01*
X4626559Y-1284681D01*
X4626559Y-1311503D01*
X4627270Y-1317853D01*
X4629200Y-1323289D01*
X4632299Y-1328216D01*
X4636363Y-1332280D01*
X4641291Y-1335379D01*
X4646726Y-1337310D01*
G37*
G36*
X782320Y-1222248D02*
G01*
X814781Y-1222248D01*
X821080Y-1221536D01*
X826566Y-1219606D01*
X831443Y-1216558D01*
X835558Y-1212443D01*
X838606Y-1207566D01*
X840536Y-1202080D01*
X841248Y-1195781D01*
X841248Y-1163320D01*
X782320Y-1163320D01*
G37*
G36*
X658418Y-1222248D02*
G01*
X690880Y-1222248D01*
X690880Y-1163320D01*
X631952Y-1163320D01*
X631952Y-1195781D01*
X632663Y-1202080D01*
X634593Y-1207566D01*
X637641Y-1212443D01*
X641756Y-1216558D01*
X646633Y-1219606D01*
X652119Y-1221536D01*
G37*
G36*
X3037382Y-1139291D02*
G01*
X3055467Y-1139291D01*
X3055467Y-1099769D01*
X3010865Y-1099769D01*
X3010865Y-1112824D01*
X3011576Y-1119124D01*
X3013506Y-1124610D01*
X3016605Y-1129487D01*
X3020669Y-1133602D01*
X3025597Y-1136700D01*
X3031032Y-1138580D01*
G37*
G36*
X3118154Y-1139291D02*
G01*
X3136239Y-1139291D01*
X3142538Y-1138580D01*
X3148025Y-1136700D01*
X3152902Y-1133602D01*
X3157016Y-1129487D01*
X3160064Y-1124610D01*
X3161995Y-1119124D01*
X3162706Y-1112824D01*
X3162706Y-1099769D01*
X3118154Y-1099769D01*
G37*
G36*
X4449876Y-1134821D02*
G01*
X4478172Y-1134821D01*
X4478172Y-1081481D01*
X4423359Y-1081481D01*
X4423359Y-1108303D01*
X4424070Y-1114653D01*
X4426000Y-1120089D01*
X4429099Y-1125016D01*
X4433163Y-1129080D01*
X4438091Y-1132179D01*
X4443526Y-1134110D01*
G37*
G36*
X782320Y-1071880D02*
G01*
X841248Y-1071880D01*
X841248Y-1039418D01*
X840536Y-1033119D01*
X838606Y-1027633D01*
X835558Y-1022756D01*
X831443Y-1018641D01*
X826566Y-1015593D01*
X821080Y-1013663D01*
X814781Y-1012952D01*
X782320Y-1012952D01*
G37*
G36*
X631952Y-1071880D02*
G01*
X690880Y-1071880D01*
X690880Y-1012952D01*
X658418Y-1012952D01*
X652119Y-1013663D01*
X646633Y-1015593D01*
X641756Y-1018641D01*
X637641Y-1022756D01*
X634593Y-1027633D01*
X632663Y-1033119D01*
X631952Y-1039418D01*
G37*
G36*
X3010865Y-1047038D02*
G01*
X3055467Y-1047038D01*
X3055467Y-1007465D01*
X3037382Y-1007465D01*
X3031032Y-1008176D01*
X3025597Y-1010107D01*
X3020669Y-1013206D01*
X3016605Y-1017269D01*
X3013506Y-1022197D01*
X3011576Y-1027633D01*
X3010865Y-1033983D01*
G37*
G36*
X3118154Y-1047038D02*
G01*
X3162706Y-1047038D01*
X3162706Y-1033983D01*
X3161995Y-1027633D01*
X3160064Y-1022197D01*
X3157016Y-1017269D01*
X3152902Y-1013206D01*
X3148025Y-1010107D01*
X3142538Y-1008176D01*
X3136239Y-1007465D01*
X3118154Y-1007465D01*
G37*
G36*
X5799124Y-925728D02*
G01*
X5826607Y-925728D01*
X5826607Y-877824D01*
X5772607Y-877824D01*
X5772607Y-899210D01*
X5773318Y-905560D01*
X5775248Y-910996D01*
X5778347Y-915924D01*
X5782411Y-919987D01*
X5787339Y-923086D01*
X5792774Y-925017D01*
G37*
G36*
X5908141Y-925728D02*
G01*
X5935675Y-925728D01*
X5941974Y-925017D01*
X5947460Y-923086D01*
X5952337Y-919987D01*
X5956452Y-915924D01*
X5959500Y-910996D01*
X5961430Y-905560D01*
X5962142Y-899210D01*
X5962142Y-877824D01*
X5908141Y-877824D01*
G37*
G36*
X5494324Y-925728D02*
G01*
X5630875Y-925728D01*
X5637174Y-925017D01*
X5642660Y-923086D01*
X5647537Y-919987D01*
X5651652Y-915924D01*
X5654700Y-910996D01*
X5656630Y-905560D01*
X5657342Y-899210D01*
X5657342Y-787095D01*
X5656630Y-780796D01*
X5654700Y-775309D01*
X5651652Y-770432D01*
X5647537Y-766318D01*
X5642660Y-763270D01*
X5637174Y-761339D01*
X5630875Y-760628D01*
X5494324Y-760628D01*
X5487974Y-761339D01*
X5482539Y-763270D01*
X5477611Y-766318D01*
X5473547Y-770432D01*
X5470448Y-775309D01*
X5468518Y-780796D01*
X5467807Y-787095D01*
X5467807Y-797153D01*
X5467045Y-801014D01*
X5464860Y-804316D01*
X5461609Y-806500D01*
X5457698Y-807313D01*
X5266334Y-808075D01*
X5262981Y-807516D01*
X5259984Y-805840D01*
X5257698Y-803300D01*
X5254802Y-798677D01*
X5250688Y-794613D01*
X5245811Y-791514D01*
X5240324Y-789584D01*
X5234025Y-788873D01*
X5135168Y-788873D01*
X5128818Y-789584D01*
X5123383Y-791514D01*
X5118455Y-794613D01*
X5114391Y-798677D01*
X5111292Y-803605D01*
X5109413Y-809040D01*
X5108702Y-815390D01*
X5108702Y-874217D01*
X5109413Y-880567D01*
X5111292Y-886002D01*
X5113223Y-890422D01*
X5113223Y-894181D01*
X5111292Y-898601D01*
X5109362Y-904036D01*
X5108651Y-910386D01*
X5108651Y-918464D01*
X5153253Y-918464D01*
X5153253Y-910894D01*
X5154015Y-906983D01*
X5156200Y-903681D01*
X5159502Y-901496D01*
X5163413Y-900734D01*
X5205780Y-900734D01*
X5209641Y-901496D01*
X5212943Y-903681D01*
X5215178Y-906983D01*
X5215940Y-910894D01*
X5215940Y-918464D01*
X5260492Y-918464D01*
X5260492Y-910386D01*
X5259781Y-904036D01*
X5257850Y-898601D01*
X5255920Y-894181D01*
X5255920Y-890422D01*
X5258104Y-885647D01*
X5260390Y-883107D01*
X5263337Y-881481D01*
X5266690Y-880871D01*
X5457647Y-880110D01*
X5461508Y-880871D01*
X5464860Y-883056D01*
X5467045Y-886358D01*
X5467807Y-890269D01*
X5467807Y-899210D01*
X5468518Y-905560D01*
X5470448Y-910996D01*
X5473547Y-915924D01*
X5477611Y-919987D01*
X5482539Y-923086D01*
X5487974Y-925017D01*
G37*
G36*
X2709976Y-925118D02*
G01*
X2764790Y-925118D01*
X2764790Y-898245D01*
X2764078Y-891946D01*
X2762199Y-886460D01*
X2759100Y-881583D01*
X2754985Y-877468D01*
X2750108Y-874420D01*
X2744622Y-872490D01*
X2738323Y-871778D01*
X2709976Y-871778D01*
G37*
G36*
X5908141Y-808532D02*
G01*
X5962142Y-808532D01*
X5962142Y-787095D01*
X5961430Y-780796D01*
X5959500Y-775309D01*
X5956452Y-770432D01*
X5952337Y-766318D01*
X5947460Y-763270D01*
X5941974Y-761339D01*
X5935675Y-760628D01*
X5908141Y-760628D01*
G37*
G36*
X5772607Y-808532D02*
G01*
X5826607Y-808532D01*
X5826607Y-760628D01*
X5799124Y-760628D01*
X5792774Y-761339D01*
X5787339Y-763270D01*
X5782411Y-766318D01*
X5778347Y-770432D01*
X5775248Y-775309D01*
X5773318Y-780796D01*
X5772607Y-787095D01*
G37*
G36*
X3369564Y-659028D02*
G01*
X3488436Y-659028D01*
X3494735Y-658317D01*
X3500221Y-656386D01*
X3505098Y-653288D01*
X3509213Y-649224D01*
X3512261Y-644296D01*
X3514191Y-638860D01*
X3514902Y-632510D01*
X3514902Y-493674D01*
X3514191Y-487375D01*
X3512261Y-481888D01*
X3509213Y-477012D01*
X3505098Y-472897D01*
X3500221Y-469798D01*
X3494735Y-467918D01*
X3488436Y-467207D01*
X3369564Y-467207D01*
X3363264Y-467918D01*
X3357778Y-469798D01*
X3352901Y-472897D01*
X3348786Y-477012D01*
X3345687Y-481888D01*
X3343808Y-487375D01*
X3343097Y-493674D01*
X3343097Y-512064D01*
X3342335Y-515924D01*
X3340100Y-519226D01*
X3336798Y-521411D01*
X3332937Y-522224D01*
X3327552Y-522224D01*
X3323691Y-521411D01*
X3320389Y-519226D01*
X3318154Y-515924D01*
X3317392Y-512064D01*
X3317392Y-499364D01*
X3316681Y-493064D01*
X3314750Y-487578D01*
X3311702Y-482701D01*
X3307587Y-478586D01*
X3302711Y-475538D01*
X3297224Y-473608D01*
X3290925Y-472897D01*
X3191052Y-472897D01*
X3187192Y-472135D01*
X3183890Y-469950D01*
X3077768Y-364134D01*
X3075533Y-360832D01*
X3074771Y-356920D01*
X3074771Y-261924D01*
X3074060Y-255574D01*
X3072130Y-250139D01*
X3069031Y-245211D01*
X3064967Y-241147D01*
X3060039Y-238048D01*
X3054604Y-236169D01*
X3048254Y-235458D01*
X2936189Y-235458D01*
X2929839Y-236169D01*
X2924403Y-238048D01*
X2919476Y-241147D01*
X2915412Y-245211D01*
X2912313Y-250139D01*
X2910382Y-255574D01*
X2909671Y-261924D01*
X2909671Y-398475D01*
X2910382Y-404825D01*
X2912313Y-410260D01*
X2915412Y-415188D01*
X2919476Y-419252D01*
X2924403Y-422351D01*
X2929839Y-424230D01*
X2936189Y-424942D01*
X3031439Y-424942D01*
X3035300Y-425704D01*
X3038602Y-427939D01*
X3122574Y-511657D01*
X3124809Y-514959D01*
X3125571Y-518820D01*
X3125571Y-618236D01*
X3126282Y-624535D01*
X3128213Y-630021D01*
X3131261Y-634898D01*
X3135376Y-639013D01*
X3140252Y-642061D01*
X3145739Y-643991D01*
X3152038Y-644702D01*
X3290925Y-644702D01*
X3297224Y-643991D01*
X3302711Y-642061D01*
X3307587Y-639013D01*
X3311702Y-634898D01*
X3314750Y-630021D01*
X3316681Y-624535D01*
X3317392Y-618236D01*
X3317392Y-614172D01*
X3318154Y-610311D01*
X3320389Y-607009D01*
X3323691Y-604774D01*
X3327552Y-604012D01*
X3332937Y-604012D01*
X3336798Y-604774D01*
X3340100Y-607009D01*
X3342335Y-610311D01*
X3343097Y-614172D01*
X3343097Y-632510D01*
X3343808Y-638860D01*
X3345687Y-644296D01*
X3348786Y-649224D01*
X3352901Y-653288D01*
X3357778Y-656386D01*
X3363264Y-658317D01*
G37*
G36*
X5907938Y-653542D02*
G01*
X5929376Y-653542D01*
X5929376Y-599592D01*
X5881471Y-599592D01*
X5881471Y-627075D01*
X5882182Y-633425D01*
X5884113Y-638860D01*
X5887161Y-643788D01*
X5891276Y-647852D01*
X5896152Y-650951D01*
X5901639Y-652830D01*
G37*
G36*
X5998667Y-653542D02*
G01*
X6020054Y-653542D01*
X6026404Y-652830D01*
X6031839Y-650951D01*
X6036767Y-647852D01*
X6040831Y-643788D01*
X6043930Y-638860D01*
X6045860Y-633425D01*
X6046571Y-627075D01*
X6046571Y-599592D01*
X5998667Y-599592D01*
G37*
G36*
X5714695Y-653542D02*
G01*
X5826810Y-653542D01*
X5833160Y-652830D01*
X5838596Y-650951D01*
X5843524Y-647852D01*
X5847588Y-643788D01*
X5850686Y-638860D01*
X5852566Y-633425D01*
X5853277Y-627075D01*
X5853277Y-490524D01*
X5852566Y-484174D01*
X5850686Y-478739D01*
X5847588Y-473811D01*
X5843524Y-469747D01*
X5838596Y-466648D01*
X5833160Y-464769D01*
X5826810Y-464058D01*
X5714695Y-464058D01*
X5708396Y-464769D01*
X5702909Y-466648D01*
X5698032Y-469747D01*
X5693918Y-473811D01*
X5690870Y-478739D01*
X5688939Y-484174D01*
X5688228Y-490524D01*
X5688228Y-512216D01*
X5687466Y-516128D01*
X5685231Y-519430D01*
X5681929Y-521614D01*
X5678068Y-522376D01*
X5667502Y-522376D01*
X5663641Y-521614D01*
X5660339Y-519430D01*
X5658104Y-516128D01*
X5657342Y-512216D01*
X5657342Y-497789D01*
X5656630Y-491439D01*
X5654700Y-486003D01*
X5651652Y-481076D01*
X5647537Y-477012D01*
X5642660Y-473913D01*
X5637174Y-471982D01*
X5630875Y-471271D01*
X5494324Y-471271D01*
X5487974Y-471982D01*
X5482539Y-473913D01*
X5477611Y-477012D01*
X5473547Y-481076D01*
X5470448Y-486003D01*
X5468518Y-491439D01*
X5467807Y-497789D01*
X5467807Y-609904D01*
X5468518Y-616204D01*
X5470448Y-621690D01*
X5473547Y-626567D01*
X5477611Y-630682D01*
X5482539Y-633730D01*
X5487974Y-635660D01*
X5494324Y-636371D01*
X5630875Y-636371D01*
X5637174Y-635660D01*
X5642660Y-633730D01*
X5647537Y-630682D01*
X5651652Y-626567D01*
X5654700Y-621690D01*
X5656630Y-616204D01*
X5657342Y-609904D01*
X5657342Y-605383D01*
X5658104Y-601472D01*
X5660339Y-598170D01*
X5663641Y-595985D01*
X5667502Y-595223D01*
X5678068Y-595223D01*
X5681929Y-595985D01*
X5685231Y-598170D01*
X5687466Y-601472D01*
X5688228Y-605383D01*
X5688228Y-627075D01*
X5688939Y-633425D01*
X5690870Y-638860D01*
X5693918Y-643788D01*
X5698032Y-647852D01*
X5702909Y-650951D01*
X5708396Y-652830D01*
G37*
G36*
X2598724Y-646328D02*
G01*
X2735275Y-646328D01*
X2741574Y-645617D01*
X2747060Y-643686D01*
X2751937Y-640588D01*
X2756052Y-636524D01*
X2759151Y-631596D01*
X2760878Y-626668D01*
X2763012Y-623112D01*
X2766415Y-620674D01*
X2770428Y-619861D01*
X2774492Y-620674D01*
X2777896Y-623112D01*
X2780030Y-626668D01*
X2781198Y-630021D01*
X2784297Y-634898D01*
X2788412Y-639013D01*
X2793288Y-642061D01*
X2798775Y-643991D01*
X2805074Y-644702D01*
X2943910Y-644702D01*
X2950260Y-643991D01*
X2955696Y-642061D01*
X2960624Y-639013D01*
X2964688Y-634898D01*
X2967786Y-630021D01*
X2969717Y-624535D01*
X2970428Y-618236D01*
X2970428Y-499364D01*
X2969717Y-493064D01*
X2967786Y-487578D01*
X2964688Y-482701D01*
X2960624Y-478586D01*
X2955696Y-475538D01*
X2950260Y-473608D01*
X2943910Y-472897D01*
X2805074Y-472897D01*
X2798775Y-473608D01*
X2793288Y-475538D01*
X2788412Y-478586D01*
X2784297Y-482701D01*
X2781198Y-487578D01*
X2779318Y-493064D01*
X2777947Y-498297D01*
X2775508Y-501294D01*
X2772105Y-503174D01*
X2768244Y-503580D01*
X2764485Y-502564D01*
X2761386Y-500176D01*
X2759151Y-495909D01*
X2756052Y-491032D01*
X2751937Y-486918D01*
X2747060Y-483870D01*
X2741574Y-481939D01*
X2735275Y-481228D01*
X2598724Y-481228D01*
X2592374Y-481939D01*
X2586939Y-483870D01*
X2582011Y-486918D01*
X2577947Y-491032D01*
X2574848Y-495909D01*
X2572969Y-501396D01*
X2572258Y-507695D01*
X2572258Y-619810D01*
X2572969Y-626160D01*
X2574848Y-631596D01*
X2577947Y-636524D01*
X2582011Y-640588D01*
X2586939Y-643686D01*
X2592374Y-645617D01*
G37*
G36*
X360476Y-556463D02*
G01*
X379831Y-555040D01*
X398932Y-551789D01*
X417677Y-546658D01*
X435813Y-539800D01*
X453237Y-531164D01*
X469747Y-520954D01*
X485140Y-509168D01*
X499364Y-495909D01*
X512216Y-481380D01*
X523646Y-465683D01*
X533501Y-448970D01*
X541680Y-431342D01*
X548132Y-413054D01*
X552754Y-394208D01*
X555548Y-375005D01*
X556514Y-355600D01*
X555548Y-336194D01*
X552754Y-316992D01*
X548132Y-298145D01*
X541680Y-279857D01*
X533501Y-262229D01*
X523646Y-245516D01*
X512216Y-229819D01*
X499364Y-215290D01*
X485140Y-202031D01*
X469747Y-190246D01*
X453237Y-180035D01*
X435813Y-171399D01*
X417677Y-164541D01*
X398932Y-159461D01*
X379831Y-156159D01*
X360476Y-154736D01*
X341071Y-155244D01*
X321767Y-157581D01*
X302818Y-161747D01*
X284378Y-167741D01*
X266547Y-175514D01*
X249580Y-184962D01*
X233629Y-195986D01*
X218795Y-208483D01*
X205232Y-222402D01*
X193090Y-237540D01*
X182422Y-253746D01*
X173431Y-270967D01*
X166116Y-288899D01*
X160528Y-307543D01*
X156819Y-326593D01*
X154940Y-345897D01*
X154940Y-365302D01*
X156819Y-384606D01*
X160528Y-403656D01*
X166116Y-422300D01*
X173431Y-440283D01*
X182422Y-457454D01*
X193090Y-473659D01*
X205232Y-488797D01*
X218795Y-502716D01*
X233629Y-515213D01*
X249580Y-526237D01*
X266547Y-535686D01*
X284378Y-543458D01*
X302818Y-549452D01*
X321767Y-553618D01*
X341071Y-555955D01*
G37*
G36*
X6710425Y-556463D02*
G01*
X6729780Y-555040D01*
X6748932Y-551789D01*
X6767677Y-546658D01*
X6785813Y-539800D01*
X6803237Y-531164D01*
X6819696Y-520954D01*
X6835140Y-509168D01*
X6849364Y-495909D01*
X6862216Y-481380D01*
X6873646Y-465683D01*
X6883450Y-448970D01*
X6891629Y-431342D01*
X6898081Y-413054D01*
X6902754Y-394208D01*
X6905548Y-375005D01*
X6906463Y-355600D01*
X6905548Y-336194D01*
X6902754Y-316992D01*
X6898081Y-298145D01*
X6891629Y-279857D01*
X6883450Y-262229D01*
X6873646Y-245516D01*
X6862216Y-229819D01*
X6849364Y-215290D01*
X6835140Y-202031D01*
X6819696Y-190246D01*
X6803237Y-180035D01*
X6785813Y-171399D01*
X6767677Y-164541D01*
X6748932Y-159461D01*
X6729780Y-156159D01*
X6710425Y-154736D01*
X6691020Y-155244D01*
X6671767Y-157581D01*
X6652818Y-161747D01*
X6634327Y-167741D01*
X6616547Y-175514D01*
X6599580Y-184962D01*
X6583629Y-195986D01*
X6568795Y-208483D01*
X6555231Y-222402D01*
X6543040Y-237540D01*
X6532422Y-253746D01*
X6523380Y-270967D01*
X6516065Y-288899D01*
X6510528Y-307543D01*
X6506819Y-326593D01*
X6504940Y-345897D01*
X6504940Y-365302D01*
X6506819Y-384606D01*
X6510528Y-403656D01*
X6516065Y-422300D01*
X6523380Y-440283D01*
X6532422Y-457454D01*
X6543040Y-473659D01*
X6555231Y-488797D01*
X6568795Y-502716D01*
X6583629Y-515213D01*
X6599580Y-526237D01*
X6616547Y-535686D01*
X6634327Y-543458D01*
X6652818Y-549452D01*
X6671767Y-553618D01*
X6691020Y-555955D01*
G37*
G36*
X5881471Y-518007D02*
G01*
X5929376Y-518007D01*
X5929376Y-464058D01*
X5907938Y-464058D01*
X5901639Y-464769D01*
X5896152Y-466648D01*
X5891276Y-469747D01*
X5887161Y-473811D01*
X5884113Y-478739D01*
X5882182Y-484174D01*
X5881471Y-490524D01*
G37*
G36*
X5998667Y-518007D02*
G01*
X6046571Y-518007D01*
X6046571Y-490524D01*
X6045860Y-484174D01*
X6043930Y-478739D01*
X6040831Y-473811D01*
X6036767Y-469747D01*
X6031839Y-466648D01*
X6026404Y-464769D01*
X6020054Y-464058D01*
X5998667Y-464058D01*
G37*
G36*
X3878376Y-474421D02*
G01*
X3906723Y-474421D01*
X3913022Y-473709D01*
X3918508Y-471779D01*
X3923385Y-468680D01*
X3927500Y-464616D01*
X3930599Y-459689D01*
X3932478Y-454253D01*
X3933190Y-447954D01*
X3933190Y-421081D01*
X3878376Y-421081D01*
G37*
G36*
X1986076Y-398221D02*
G01*
X2014372Y-398221D01*
X2014372Y-344881D01*
X1959610Y-344881D01*
X1959610Y-371754D01*
X1960321Y-378053D01*
X1962200Y-383489D01*
X1965299Y-388416D01*
X1969363Y-392480D01*
X1974291Y-395579D01*
X1979726Y-397510D01*
G37*
G36*
X3878376Y-340918D02*
G01*
X3933190Y-340918D01*
X3933190Y-314045D01*
X3932478Y-307746D01*
X3930599Y-302310D01*
X3927500Y-297383D01*
X3923385Y-293319D01*
X3918508Y-290220D01*
X3913022Y-288290D01*
X3906723Y-287578D01*
X3878376Y-287578D01*
G37*
G36*
X1959610Y-264718D02*
G01*
X2014372Y-264718D01*
X2014372Y-211378D01*
X1986076Y-211378D01*
X1979726Y-212090D01*
X1974291Y-214020D01*
X1969363Y-217119D01*
X1965299Y-221183D01*
X1962200Y-226110D01*
X1960321Y-231546D01*
X1959610Y-237845D01*
G37*

%LPD*%
G36*
X1598015Y-1935276D02*
G01*
X1594154Y-1934514D01*
X1590852Y-1932330D01*
X1406855Y-1748332D01*
X1404569Y-1744878D01*
X1403858Y-1740763D01*
X1404874Y-1736750D01*
X1407414Y-1733448D01*
X1411020Y-1731416D01*
X1415186Y-1731060D01*
X1419148Y-1731518D01*
X1578000Y-1731518D01*
X1584350Y-1730806D01*
X1589786Y-1728876D01*
X1594713Y-1725777D01*
X1598777Y-1721713D01*
X1601876Y-1716786D01*
X1603806Y-1711350D01*
X1604518Y-1705000D01*
X1604518Y-1386179D01*
X1603806Y-1379829D01*
X1601876Y-1374394D01*
X1598777Y-1369466D01*
X1594713Y-1365402D01*
X1589786Y-1362303D01*
X1584350Y-1360373D01*
X1578000Y-1359662D01*
X1545183Y-1359662D01*
X1541272Y-1358900D01*
X1537970Y-1356715D01*
X1535785Y-1353413D01*
X1535023Y-1349502D01*
X1535023Y-1318006D01*
X1535734Y-1314196D01*
X1537817Y-1310944D01*
X1542846Y-1305712D01*
X1548231Y-1297736D01*
X1552244Y-1288948D01*
X1554632Y-1279601D01*
X1555496Y-1270000D01*
X1554632Y-1260398D01*
X1552244Y-1251051D01*
X1548231Y-1242263D01*
X1542846Y-1234287D01*
X1536192Y-1227328D01*
X1528419Y-1221587D01*
X1519783Y-1217218D01*
X1510588Y-1214424D01*
X1501038Y-1213154D01*
X1491386Y-1213612D01*
X1481937Y-1215644D01*
X1472996Y-1219200D01*
X1464767Y-1224280D01*
X1457553Y-1230630D01*
X1451457Y-1238148D01*
X1446784Y-1246581D01*
X1443583Y-1255674D01*
X1441958Y-1265174D01*
X1441958Y-1274826D01*
X1443583Y-1284325D01*
X1446784Y-1293418D01*
X1451457Y-1301851D01*
X1457553Y-1309370D01*
X1458722Y-1310386D01*
X1461312Y-1313840D01*
X1462176Y-1318056D01*
X1462176Y-1349502D01*
X1461414Y-1353413D01*
X1459230Y-1356715D01*
X1455928Y-1358900D01*
X1452016Y-1359662D01*
X1419148Y-1359662D01*
X1412849Y-1360373D01*
X1407363Y-1362303D01*
X1402486Y-1365402D01*
X1398371Y-1369466D01*
X1395323Y-1374394D01*
X1393393Y-1379829D01*
X1392682Y-1386179D01*
X1392682Y-1705000D01*
X1393139Y-1709013D01*
X1392732Y-1713128D01*
X1390751Y-1716786D01*
X1387449Y-1719325D01*
X1383436Y-1720291D01*
X1379321Y-1719630D01*
X1375867Y-1717344D01*
X1353464Y-1694942D01*
X1351280Y-1691639D01*
X1350518Y-1687779D01*
X1350518Y-1386179D01*
X1349806Y-1379829D01*
X1347876Y-1374394D01*
X1344777Y-1369466D01*
X1340713Y-1365402D01*
X1335786Y-1362303D01*
X1330350Y-1360373D01*
X1324000Y-1359662D01*
X1300683Y-1359662D01*
X1296771Y-1358900D01*
X1293469Y-1356715D01*
X1291285Y-1353413D01*
X1290523Y-1349502D01*
X1290523Y-1217015D01*
X1291285Y-1213154D01*
X1293469Y-1209852D01*
X1438452Y-1064869D01*
X1441754Y-1062685D01*
X1445615Y-1061923D01*
X1687474Y-1061923D01*
X1691436Y-1062736D01*
X1694789Y-1065022D01*
X1704848Y-1075334D01*
X1706219Y-1078077D01*
X1706676Y-1081176D01*
X1706676Y-1349502D01*
X1705914Y-1353413D01*
X1703730Y-1356715D01*
X1700428Y-1358900D01*
X1696516Y-1359662D01*
X1673148Y-1359662D01*
X1666849Y-1360373D01*
X1661363Y-1362303D01*
X1656486Y-1365402D01*
X1652371Y-1369466D01*
X1649323Y-1374394D01*
X1647393Y-1379829D01*
X1646682Y-1386179D01*
X1646682Y-1705000D01*
X1647393Y-1711350D01*
X1649323Y-1716786D01*
X1652371Y-1721713D01*
X1656486Y-1725777D01*
X1661363Y-1728876D01*
X1666849Y-1730806D01*
X1673148Y-1731518D01*
X1832000Y-1731518D01*
X1838350Y-1730806D01*
X1843786Y-1728876D01*
X1848713Y-1725777D01*
X1852777Y-1721713D01*
X1855876Y-1716786D01*
X1857806Y-1711350D01*
X1858518Y-1705000D01*
X1858518Y-1386179D01*
X1857806Y-1379829D01*
X1855876Y-1374394D01*
X1852777Y-1369466D01*
X1848713Y-1365402D01*
X1843786Y-1362303D01*
X1838350Y-1360373D01*
X1832000Y-1359662D01*
X1808683Y-1359662D01*
X1804771Y-1358900D01*
X1801469Y-1356715D01*
X1799285Y-1353413D01*
X1798523Y-1349502D01*
X1798523Y-1080973D01*
X1799386Y-1076807D01*
X1801926Y-1073404D01*
X1807260Y-1068628D01*
X1814677Y-1059637D01*
X1820621Y-1049680D01*
X1824939Y-1038910D01*
X1827580Y-1027582D01*
X1828495Y-1016000D01*
X1828038Y-1010462D01*
X1828647Y-1006195D01*
X1830984Y-1002537D01*
X2259634Y-573887D01*
X2262936Y-571652D01*
X2266848Y-570890D01*
X2294128Y-570890D01*
X2298954Y-570331D01*
X2303068Y-570738D01*
X2306726Y-572770D01*
X2309266Y-576021D01*
X2310231Y-580085D01*
X2309520Y-584149D01*
X2307285Y-587654D01*
X2241804Y-653084D01*
X2236978Y-658977D01*
X2233625Y-665276D01*
X2231542Y-672084D01*
X2230780Y-679704D01*
X2230780Y-694690D01*
X2230221Y-698042D01*
X2228596Y-700989D01*
X2226056Y-703275D01*
X2223617Y-704799D01*
X2219502Y-708914D01*
X2216404Y-713790D01*
X2214524Y-719277D01*
X2213813Y-725576D01*
X2213813Y-824433D01*
X2214524Y-830783D01*
X2216404Y-836218D01*
X2219502Y-841095D01*
X2223617Y-845210D01*
X2226056Y-846734D01*
X2228596Y-849020D01*
X2230221Y-851966D01*
X2230780Y-855370D01*
X2230780Y-1219454D01*
X2230170Y-1223010D01*
X2228291Y-1226108D01*
X2225497Y-1228394D01*
X2219350Y-1231696D01*
X2210104Y-1238758D01*
X2202078Y-1247140D01*
X2195372Y-1256639D01*
X2190242Y-1267053D01*
X2186736Y-1278128D01*
X2184958Y-1289608D01*
X2184958Y-1301191D01*
X2186736Y-1312672D01*
X2190242Y-1323746D01*
X2195372Y-1334160D01*
X2202078Y-1343660D01*
X2203754Y-1347724D01*
X2203551Y-1352143D01*
X2201519Y-1356055D01*
X2198065Y-1358747D01*
X2193747Y-1359662D01*
X2181148Y-1359662D01*
X2174849Y-1360373D01*
X2169363Y-1362303D01*
X2164486Y-1365402D01*
X2160371Y-1369466D01*
X2157323Y-1374394D01*
X2155393Y-1379829D01*
X2154682Y-1386179D01*
X2154682Y-1705000D01*
X2155393Y-1711350D01*
X2157323Y-1716786D01*
X2160371Y-1721713D01*
X2164486Y-1725777D01*
X2169363Y-1728876D01*
X2174849Y-1730806D01*
X2181148Y-1731518D01*
X2234590Y-1731518D01*
X2238502Y-1732280D01*
X2241804Y-1734464D01*
X2383891Y-1876552D01*
X2389784Y-1881428D01*
X2396083Y-1884781D01*
X2402890Y-1886864D01*
X2410460Y-1887575D01*
X5376113Y-1887575D01*
X5380024Y-1888388D01*
X5383326Y-1890572D01*
X5385511Y-1893874D01*
X5386273Y-1897735D01*
X5386273Y-1900631D01*
X5386984Y-1906930D01*
X5388914Y-1912416D01*
X5394807Y-1921256D01*
X5395620Y-1925116D01*
X5394807Y-1929028D01*
X5392623Y-1932330D01*
X5389321Y-1934514D01*
X5385460Y-1935276D01*
X4980381Y-1935276D01*
X4976977Y-1934718D01*
X4973980Y-1932990D01*
X4965598Y-1926183D01*
X4956251Y-1920798D01*
X4946192Y-1916988D01*
X4935626Y-1914804D01*
X4924907Y-1914398D01*
X4914188Y-1915668D01*
X4903876Y-1918665D01*
X4894173Y-1923288D01*
X4885283Y-1929384D01*
X4882083Y-1932482D01*
X4878882Y-1934565D01*
X4875072Y-1935276D01*
G37*

%LPC*%
G36*
X1927148Y-1731518D02*
G01*
X2086000Y-1731518D01*
X2092350Y-1730806D01*
X2097786Y-1728876D01*
X2102713Y-1725777D01*
X2106777Y-1721713D01*
X2109876Y-1716786D01*
X2111806Y-1711350D01*
X2112518Y-1705000D01*
X2112518Y-1386179D01*
X2111806Y-1379829D01*
X2109876Y-1374394D01*
X2106777Y-1369466D01*
X2102713Y-1365402D01*
X2097786Y-1362303D01*
X2092350Y-1360373D01*
X2086000Y-1359662D01*
X2053183Y-1359662D01*
X2049272Y-1358900D01*
X2045970Y-1356715D01*
X2043785Y-1353413D01*
X2043023Y-1349502D01*
X2043023Y-1292606D01*
X2043734Y-1288796D01*
X2045817Y-1285544D01*
X2050846Y-1280312D01*
X2056231Y-1272336D01*
X2060193Y-1263548D01*
X2062632Y-1254201D01*
X2063445Y-1244600D01*
X2062632Y-1234998D01*
X2060193Y-1225651D01*
X2056231Y-1216863D01*
X2050846Y-1208887D01*
X2044192Y-1201928D01*
X2036419Y-1196187D01*
X2027783Y-1191818D01*
X2018588Y-1189024D01*
X2008987Y-1187754D01*
X1999386Y-1188161D01*
X1989937Y-1190193D01*
X1980996Y-1193800D01*
X1972767Y-1198880D01*
X1965553Y-1205230D01*
X1959457Y-1212748D01*
X1954784Y-1221181D01*
X1951532Y-1230274D01*
X1949907Y-1239774D01*
X1949907Y-1249426D01*
X1951532Y-1258925D01*
X1954784Y-1268018D01*
X1959457Y-1276451D01*
X1965553Y-1283970D01*
X1966722Y-1285036D01*
X1969312Y-1288440D01*
X1970176Y-1292656D01*
X1970176Y-1349502D01*
X1969414Y-1353413D01*
X1967230Y-1356715D01*
X1963928Y-1358900D01*
X1960016Y-1359662D01*
X1927148Y-1359662D01*
X1920849Y-1360373D01*
X1915363Y-1362303D01*
X1910486Y-1365402D01*
X1906371Y-1369466D01*
X1903323Y-1374394D01*
X1901393Y-1379829D01*
X1900682Y-1386179D01*
X1900682Y-1705000D01*
X1901393Y-1711350D01*
X1903323Y-1716786D01*
X1906371Y-1721713D01*
X1910486Y-1725777D01*
X1915363Y-1728876D01*
X1920849Y-1730806D01*
G37*

%LPD*%
D11*
X5537200Y-4013200D02*
G01*
X5787186Y-4013200D01*
D12*
X1244600Y-4775200D02*
G01*
X1117597Y-4648197D01*
X1117597Y-3251194D01*
X1244597Y-3124194D01*
X1244600Y-1545589D02*
G01*
X1244597Y-1828797D01*
X2261984Y-304789D02*
G01*
X2267198Y-310004D01*
X2267198Y-494995D01*
D11*
X2260600Y-1545589D02*
G01*
X2260612Y-1295415D01*
D12*
X2267198Y-494995D02*
G01*
X2362194Y-494995D01*
D13*
X3339490Y-4121404D02*
G01*
X3339490Y-4209542D01*
D11*
X4546602Y-4013200D02*
G01*
X4796589Y-4013200D01*
X4796589Y-4013200D02*
G01*
X5287187Y-4013200D01*
X5791184Y-3652629D02*
G01*
X5587982Y-3652629D01*
X3911584Y-4119760D02*
G01*
X4190029Y-4119760D01*
X4296590Y-4013200D01*
X1498600Y-1545589D02*
G01*
X1498600Y-1270000D01*
X2006600Y-1244600D02*
G01*
X2006600Y-1545592D01*
X3733792Y-761997D02*
G01*
X3828788Y-667001D01*
X3828788Y-621992D01*
D14*
X3086798Y-1263411D02*
G01*
X3022600Y-1327609D01*
X3022600Y-1545589D01*
D11*
X2457190Y-494995D02*
G01*
X2457190Y-540004D01*
X2387594Y-609600D01*
X2336794Y-609600D01*
X2267198Y-679195D01*
X2267198Y-775004D01*
X2457190Y-494995D02*
G01*
X2621993Y-330192D01*
X2798968Y-330192D01*
X2992120Y-330200D02*
G01*
X3221481Y-558800D01*
X2667000Y-757021D02*
G01*
X2671978Y-762000D01*
X3733787Y-762000D01*
X4927600Y-355600D02*
G01*
X5177612Y-355600D01*
X5177612Y-355600D02*
G01*
X5182590Y-360578D01*
X5562600Y-360578D01*
X5562600Y-553821D02*
G01*
X5567578Y-558800D01*
X5770752Y-558800D01*
X4927600Y-355600D02*
G01*
X4924574Y-358625D01*
X4924574Y-844804D01*
X4677613Y-355600D02*
G01*
X4677613Y-834237D01*
X4673625Y-838225D01*
X4673625Y-838225D02*
G01*
X4609845Y-902004D01*
X3828795Y-902004D01*
X4673625Y-838225D02*
G01*
X4749817Y-838225D01*
X4851389Y-939797D01*
X5003789Y-939797D01*
X5098788Y-1034795D01*
X5184597Y-1034795D01*
D12*
X4725797Y-1041400D02*
G01*
X4732400Y-1034795D01*
X4924577Y-1034795D01*
X4928997Y-1244600D02*
G01*
X4924577Y-1240180D01*
X4924577Y-1034795D01*
D11*
X5184647Y-844804D02*
G01*
X5562600Y-843279D01*
X5562600Y-1036421D02*
G01*
X5867400Y-1036421D01*
X5054600Y-1545589D02*
G01*
X5180431Y-1671421D01*
X5435584Y-1671421D01*
X5435584Y-1478178D02*
G01*
X5481398Y-1523992D01*
X5681177Y-1523992D01*
D12*
X5632195Y-2111247D02*
G01*
X5842000Y-2109470D01*
X5842000Y-2109596D02*
G01*
X5845581Y-2113178D01*
X6045200Y-2113178D01*
X6045200Y-2113178D02*
G01*
X6248400Y-2113178D01*
D11*
X6248400Y-2306421D02*
G01*
X6045200Y-2306421D01*
X5591987Y-2717800D02*
G01*
X5842000Y-2717800D01*
X5842000Y-2717800D02*
G01*
X5846952Y-2722753D01*
X5846952Y-3048000D01*
X6045200Y-2306421D02*
G01*
X6045200Y-2671013D01*
X6091986Y-2717800D01*
X6045200Y-2306421D02*
G01*
X6040221Y-2311400D01*
X5640197Y-2311400D01*
X5640324Y-2311400D02*
G01*
X5442204Y-2111247D01*
D12*
X6756387Y-2921000D02*
G01*
X6400800Y-3276587D01*
X6400800Y-3403600D01*
X5969000Y-4519805D02*
G01*
X6400800Y-4088005D01*
X6400800Y-3403600D01*
D11*
X5537200Y-4013200D02*
G01*
X5333992Y-3809992D01*
X3911592Y-3809992D01*
X3600188Y-4121396D01*
X3569304Y-4121396D01*
X2260612Y-1295415D02*
G01*
X2267198Y-1288829D01*
X2267198Y-775004D01*
D14*
X2462397Y-965194D02*
G01*
X2468778Y-971572D01*
X2468778Y-1168400D01*
X2462392Y-965192D02*
G01*
X2457190Y-959990D01*
X2457190Y-775004D01*
X2457188Y-775004D02*
G01*
X2475171Y-757021D01*
X2667000Y-757021D01*
X2874492Y-558800D02*
G01*
X2869516Y-563775D01*
X2666994Y-563775D01*
X3221497Y-558792D02*
G01*
X3225815Y-563110D01*
X3429000Y-563110D01*
X3429000Y-910099D02*
G01*
X3437097Y-902002D01*
X3638796Y-902002D01*
D12*
X3630787Y-380992D02*
G01*
X3638796Y-389001D01*
X3638796Y-621992D01*
X3630787Y-380992D02*
G01*
X3402195Y-152400D01*
X2414374Y-152400D01*
X2261984Y-304789D01*
X3638796Y-621992D02*
G01*
X3733792Y-621992D01*
D14*
X2662021Y-1168400D02*
G01*
X2662034Y-1168387D01*
X2856806Y-1168387D01*
D12*
X4668621Y-4521200D02*
G01*
X5186552Y-4521200D01*
X5379720Y-4521200D02*
G01*
X5740400Y-4519929D01*
X5740397Y-4519803D02*
G01*
X5968997Y-4519803D01*
X4928997Y-1244600D02*
G01*
X5669152Y-1244600D01*
D11*
X5787186Y-4013200D02*
G01*
X5791202Y-4009184D01*
X5791202Y-3652621D01*
X1498600Y-3483584D02*
G01*
X1498600Y-4775200D01*
X1752600Y-3483584D02*
G01*
X1752600Y-4775200D01*
D13*
X3339480Y-4121398D02*
G01*
X3336081Y-4118000D01*
X2895600Y-4118000D01*
X3325985Y-3911584D02*
G01*
X3339485Y-3925084D01*
X3339485Y-4121396D01*
X2895600Y-4517974D02*
G01*
X2898825Y-4521200D01*
X3331692Y-4521200D01*
X3331692Y-4521200D02*
G01*
X3339490Y-4513402D01*
X3339490Y-4311395D01*
X3678684Y-4521200D02*
G01*
X3680081Y-4519803D01*
X3911600Y-4519803D01*
D12*
X3911600Y-4313021D02*
G01*
X3911600Y-4519803D01*
X3911600Y-4519803D02*
G01*
X3912997Y-4521200D01*
X4475373Y-4521200D01*
X2895600Y-3708400D02*
G01*
X2895600Y-4118102D01*
X482600Y-1545589D02*
G01*
X482600Y-2514597D01*
X914397Y-2946394D01*
X2641594Y-2946394D01*
X2895594Y-3200394D01*
X2895594Y-3708392D01*
X482600Y-1117600D02*
G01*
X482600Y-1545589D01*
X228600Y-1545589D02*
G01*
X228600Y-1117597D01*
D11*
X5435584Y-1671421D02*
G01*
X5583039Y-1671421D01*
X5613420Y-1701802D01*
X5632180Y-1851182D02*
G01*
X5632180Y-1720562D01*
X5613420Y-1701802D01*
D12*
X5632195Y-2111247D02*
G01*
X5502147Y-1981200D01*
X4927589Y-1981200D01*
X1244600Y-1828800D02*
G01*
X1244600Y-2743200D01*
D11*
X2260600Y-1545589D02*
G01*
X2260600Y-1701802D01*
X2409979Y-1851182D01*
X5442188Y-1851182D01*
D12*
X4927600Y-1752600D02*
G01*
X4929124Y-1244600D01*
D14*
X6756387Y-1777997D02*
G01*
X6756387Y-2158997D01*
X5862421Y-1244600D02*
G01*
X6223000Y-1244600D01*
X6756400Y-1778000D01*
X5867400Y-1036421D02*
G01*
X5862421Y-1041400D01*
X5862421Y-1244600D01*
D12*
X4927600Y-1981200D02*
G01*
X1574800Y-1981200D01*
X1244600Y-1651000D01*
X1244600Y-1545589D01*
X1244600Y-1545589D02*
G01*
X1244600Y-1193794D01*
X1422397Y-1015997D01*
X1752597Y-1015997D01*
X1752600Y-1016000D02*
G01*
X1752600Y-1545589D01*
X1752600Y-1016000D02*
G01*
X2267204Y-501395D01*
X2267204Y-494995D01*
G36*
X2605394Y-1237246D02*
G01*
X2605394Y-1099548D01*
X2718648Y-1099548D01*
X2718648Y-1237246D01*
G37*
G36*
X2525395Y-1237246D02*
G01*
X2525395Y-1099548D01*
X2412141Y-1099548D01*
X2412141Y-1237246D01*
G37*
G36*
X3842750Y-4256399D02*
G01*
X3980449Y-4256399D01*
X3980449Y-4369653D01*
X3842750Y-4369653D01*
G37*
D18*
G01*
X3911600Y-4119778D03*
G36*
X2735844Y-620397D02*
G01*
X2598145Y-620397D01*
X2598145Y-507144D01*
X2735844Y-507144D01*
G37*
G01*
X2667000Y-757021D03*
D19*
G01*
X3828795Y-902004D03*
G01*
X3733800Y-902004D03*
G01*
X3638804Y-902004D03*
G01*
X3638804Y-621995D03*
G01*
X3733800Y-621995D03*
G01*
X3828795Y-621995D03*
G01*
X2457195Y-775004D03*
G01*
X2362200Y-775004D03*
G01*
X2267204Y-775004D03*
G01*
X2267204Y-494995D03*
G01*
X2362200Y-494995D03*
G01*
X2457195Y-494995D03*
D20*
G01*
X3569309Y-4311395D03*
G01*
X3569309Y-4216400D03*
G01*
X3569309Y-4121404D03*
G01*
X3339490Y-4121404D03*
G01*
X3339490Y-4216400D03*
G01*
X3339490Y-4311395D03*
G36*
X4874577Y-1004793D02*
G01*
X4974577Y-1004793D01*
X4974577Y-1064793D01*
X4874577Y-1064793D01*
G37*
G36*
X4874577Y-814801D02*
G01*
X4974577Y-814801D01*
X4974577Y-874801D01*
X4874577Y-874801D01*
G37*
G36*
X5134597Y-814801D02*
G01*
X5234597Y-814801D01*
X5234597Y-874801D01*
X5134597Y-874801D01*
G37*
G36*
X5134597Y-909797D02*
G01*
X5234597Y-909797D01*
X5234597Y-969797D01*
X5134597Y-969797D01*
G37*
G36*
X5134597Y-1004793D02*
G01*
X5234597Y-1004793D01*
X5234597Y-1064793D01*
X5134597Y-1064793D01*
G37*
D22*
G01*
X1752600Y-1016000D03*
G01*
X4673625Y-838225D03*
G01*
X5613425Y-1701800D03*
G01*
X2260625Y-1295425D03*
G01*
X6400800Y-3403600D03*
G01*
X6756400Y-1778000D03*
G36*
X5851194Y-1461498D02*
G01*
X5951194Y-1461498D01*
X5951194Y-1586496D01*
X5851194Y-1586496D01*
G37*
G36*
X5631179Y-1461498D02*
G01*
X5731179Y-1461498D01*
X5731179Y-1586496D01*
X5631179Y-1586496D01*
G37*
G36*
X4655289Y-1108897D02*
G01*
X4655289Y-973896D01*
X4796289Y-973896D01*
X4796289Y-1108897D01*
G37*
G36*
X4590290Y-1108897D02*
G01*
X4590290Y-973896D01*
X4449290Y-973896D01*
X4449290Y-1108897D01*
G37*
G36*
X3766291Y-448500D02*
G01*
X3766291Y-313499D01*
X3907292Y-313499D01*
X3907292Y-448500D01*
G37*
G36*
X3701293Y-448500D02*
G01*
X3701293Y-313499D01*
X3560292Y-313499D01*
X3560292Y-448500D01*
G37*
G36*
X2597894Y-1032697D02*
G01*
X2597894Y-897696D01*
X2738894Y-897696D01*
X2738894Y-1032697D01*
G37*
G36*
X2532895Y-1032697D02*
G01*
X2532895Y-897696D01*
X2391895Y-897696D01*
X2391895Y-1032697D01*
G37*
G36*
X5807887Y-4590290D02*
G01*
X5672886Y-4590290D01*
X5672886Y-4449290D01*
X5807887Y-4449290D01*
G37*
D25*
G01*
X5740400Y-4725796D03*
G36*
X3979092Y-4590290D02*
G01*
X3844091Y-4590290D01*
X3844091Y-4449290D01*
X3979092Y-4449290D01*
G37*
G01*
X3911600Y-4725796D03*
G36*
X3396495Y-3844091D02*
G01*
X3396495Y-3979092D01*
X3255495Y-3979092D01*
X3255495Y-3844091D01*
G37*
G36*
X3461494Y-3844091D02*
G01*
X3461494Y-3979092D01*
X3602494Y-3979092D01*
X3602494Y-3844091D01*
G37*
G36*
X6036487Y-4590290D02*
G01*
X5901486Y-4590290D01*
X5901486Y-4449290D01*
X6036487Y-4449290D01*
G37*
G01*
X5969000Y-4725796D03*
G36*
X4858489Y-1312097D02*
G01*
X4858489Y-1177096D01*
X4999489Y-1177096D01*
X4999489Y-1312097D01*
G37*
G36*
X4793490Y-1312097D02*
G01*
X4793490Y-1177096D01*
X4652490Y-1177096D01*
X4652490Y-1312097D01*
G37*
G36*
X2191494Y-372300D02*
G01*
X2191494Y-237299D01*
X2332494Y-237299D01*
X2332494Y-372300D01*
G37*
G36*
X2126495Y-372300D02*
G01*
X2126495Y-237299D01*
X1985495Y-237299D01*
X1985495Y-372300D01*
G37*
G36*
X5774486Y-2039094D02*
G01*
X5909487Y-2039094D01*
X5909487Y-2180094D01*
X5774486Y-2180094D01*
G37*
G01*
X5842000Y-1903603D03*
G36*
X5569689Y-2378895D02*
G01*
X5569689Y-2243894D01*
X5710689Y-2243894D01*
X5710689Y-2378895D01*
G37*
G36*
X5504690Y-2378895D02*
G01*
X5504690Y-2243894D01*
X5363690Y-2243894D01*
X5363690Y-2378895D01*
G37*
D26*
G01*
X3331692Y-4521200D03*
G01*
X3678681Y-4521200D03*
G36*
X3151489Y-498800D02*
G01*
X3291492Y-498800D01*
X3291492Y-618799D01*
X3151489Y-618799D01*
G37*
G36*
X2804497Y-498800D02*
G01*
X2944500Y-498800D01*
X2944500Y-618799D01*
X2804497Y-618799D01*
G37*
D27*
G01*
X3429000Y-910081D03*
G01*
X3429000Y-563092D03*
G36*
X3106595Y-4224200D02*
G01*
X2684594Y-4224200D01*
X2684594Y-4011800D01*
X3106595Y-4011800D01*
G37*
D28*
G01*
X2895600Y-4517974D03*
D29*
G01*
X3086785Y-1073404D03*
G01*
X2856788Y-1168400D03*
G01*
X3086785Y-1263395D03*
G36*
X6179538Y-2249794D02*
G01*
X6317236Y-2249794D01*
X6317236Y-2363048D01*
X6179538Y-2363048D01*
G37*
D18*
G01*
X6248400Y-2113178D03*
G36*
X5725787Y-1175748D02*
G01*
X5725787Y-1313446D01*
X5612533Y-1313446D01*
X5612533Y-1175748D01*
G37*
G36*
X5805787Y-1175748D02*
G01*
X5805787Y-1313446D01*
X5919040Y-1313446D01*
X5919040Y-1175748D01*
G37*
G36*
X5366740Y-1614797D02*
G01*
X5504439Y-1614797D01*
X5504439Y-1728050D01*
X5366740Y-1728050D01*
G37*
G01*
X5435600Y-1478178D03*
G36*
X2935594Y-399049D02*
G01*
X2935594Y-261350D01*
X3048848Y-261350D01*
X3048848Y-399049D01*
G37*
G36*
X2855595Y-399049D02*
G01*
X2855595Y-261350D01*
X2742341Y-261350D01*
X2742341Y-399049D01*
G37*
G36*
X5983587Y-3116844D02*
G01*
X5983587Y-2979145D01*
X6096840Y-2979145D01*
X6096840Y-3116844D01*
G37*
G36*
X5903587Y-3116844D02*
G01*
X5903587Y-2979145D01*
X5790333Y-2979145D01*
X5790333Y-3116844D01*
G37*
G36*
X5976338Y-2249794D02*
G01*
X6114036Y-2249794D01*
X6114036Y-2363048D01*
X5976338Y-2363048D01*
G37*
G01*
X6045200Y-2113178D03*
G36*
X5722343Y-3595992D02*
G01*
X5860041Y-3595992D01*
X5860041Y-3709245D01*
X5722343Y-3709245D01*
G37*
G01*
X5791200Y-3459378D03*
G36*
X5519140Y-3595992D02*
G01*
X5656839Y-3595992D01*
X5656839Y-3709245D01*
X5519140Y-3709245D01*
G37*
G01*
X5588000Y-3459378D03*
G36*
X5493738Y-979797D02*
G01*
X5631436Y-979797D01*
X5631436Y-1093050D01*
X5493738Y-1093050D01*
G37*
G01*
X5562600Y-843178D03*
G36*
X4611992Y-4590039D02*
G01*
X4611992Y-4452340D01*
X4725245Y-4452340D01*
X4725245Y-4590039D01*
G37*
G36*
X4531992Y-4590039D02*
G01*
X4531992Y-4452340D01*
X4418738Y-4452340D01*
X4418738Y-4590039D01*
G37*
G36*
X5323189Y-4590039D02*
G01*
X5323189Y-4452340D01*
X5436443Y-4452340D01*
X5436443Y-4590039D01*
G37*
G36*
X5243189Y-4590039D02*
G01*
X5243189Y-4452340D01*
X5129936Y-4452340D01*
X5129936Y-4590039D01*
G37*
G36*
X5631439Y-417200D02*
G01*
X5493740Y-417200D01*
X5493740Y-303946D01*
X5631439Y-303946D01*
G37*
G01*
X5562600Y-553821D03*
G36*
X5827387Y-489950D02*
G01*
X5827387Y-627649D01*
X5714133Y-627649D01*
X5714133Y-489950D01*
G37*
G36*
X5907387Y-489950D02*
G01*
X5907387Y-627649D01*
X6020640Y-627649D01*
X6020640Y-489950D01*
G37*
G36*
X5798538Y-979797D02*
G01*
X5936236Y-979797D01*
X5936236Y-1093050D01*
X5798538Y-1093050D01*
G37*
G01*
X5867400Y-843178D03*
D30*
G01*
X5632195Y-2111197D03*
G01*
X5442204Y-2111197D03*
G01*
X5442204Y-1851177D03*
G01*
X5537200Y-1851177D03*
G01*
X5632195Y-1851177D03*
D31*
G01*
X228600Y-3483584D03*
G01*
X482600Y-3483584D03*
G01*
X736600Y-3483584D03*
G01*
X990600Y-3483584D03*
G01*
X1244600Y-3483584D03*
G01*
X1498600Y-3483584D03*
G01*
X1752600Y-3483584D03*
G01*
X2006600Y-3483584D03*
G01*
X2260600Y-3483584D03*
G01*
X2514600Y-3483584D03*
G01*
X2768600Y-3483584D03*
G01*
X3022600Y-3483584D03*
G01*
X3276600Y-3483584D03*
G01*
X3530600Y-3483584D03*
G01*
X3784600Y-3483584D03*
G01*
X4038600Y-3483584D03*
G01*
X4292600Y-3483584D03*
G01*
X4546600Y-3483584D03*
G01*
X4800600Y-3483584D03*
G01*
X5054600Y-3483584D03*
G01*
X5054600Y-1545589D03*
G01*
X4800600Y-1545589D03*
G01*
X4546600Y-1545589D03*
G01*
X4292600Y-1545589D03*
G01*
X4038600Y-1545589D03*
G01*
X3784600Y-1545589D03*
G01*
X3530600Y-1545589D03*
G01*
X3276600Y-1545589D03*
G01*
X3022600Y-1545589D03*
G01*
X2768600Y-1545589D03*
G01*
X2514600Y-1545589D03*
G01*
X2260600Y-1545589D03*
G01*
X2006600Y-1545589D03*
G01*
X1752600Y-1545589D03*
G01*
X1498600Y-1545589D03*
G01*
X1244600Y-1545589D03*
G01*
X990600Y-1545589D03*
G01*
X736600Y-1545589D03*
G01*
X482600Y-1545589D03*
G01*
X228600Y-1545589D03*
D32*
G01*
X5111597Y-2768600D03*
G01*
X5111597Y-2514600D03*
G01*
X5111597Y-2260600D03*
D33*
G01*
X228600Y-1117600D03*
G01*
X482600Y-1117600D03*
D34*
G01*
X2006600Y-4775200D03*
D35*
G01*
X1752600Y-4775200D03*
G01*
X1498600Y-4775200D03*
G01*
X1244600Y-4775200D03*
D34*
G01*
X6756400Y-2921000D03*
D35*
G01*
X6756374Y-2667000D03*
G01*
X6756374Y-2413000D03*
G01*
X6756374Y-2159000D03*
D36*
G01*
X5842000Y-2717800D03*
G01*
X5591987Y-2717800D03*
G01*
X6091986Y-2717800D03*
G01*
X4546600Y-4013200D03*
G01*
X4296587Y-4013200D03*
G01*
X4796586Y-4013200D03*
G01*
X5537200Y-4013200D03*
G01*
X5287187Y-4013200D03*
G01*
X5787186Y-4013200D03*
D33*
G01*
X736600Y-1117600D03*
D15*
G01*
X736600Y-1803400D03*
G01*
X2514600Y-1320800D03*
G01*
X3276600Y-1295400D03*
G01*
X4546600Y-1295400D03*
G01*
X4546600Y-3225800D03*
G01*
X3276600Y-3225800D03*
G01*
X2006600Y-3225800D03*
G01*
X736600Y-3225800D03*
D16*
G01*
X1498600Y-1270000D03*
G01*
X2006600Y-1244600D03*
D15*
G01*
X3708400Y-4343400D03*
G01*
X3911600Y-4876800D03*
D16*
G01*
X5842000Y-4876800D03*
D15*
G01*
X5816600Y-3302000D03*
D16*
G01*
X2489200Y-635000D03*
G01*
X2057400Y-457200D03*
G01*
X2819400Y-965200D03*
G01*
X3733800Y-1016000D03*
G01*
X3987800Y-381000D03*
D15*
G01*
X1244600Y-2743200D03*
G01*
X1244600Y-3124200D03*
D16*
G01*
X5308600Y-939800D03*
G01*
X5867400Y-711200D03*
G01*
X2463800Y-304800D03*
G01*
X3556000Y-533400D03*
G01*
X5791200Y-1397000D03*
G01*
X5283189Y-1752597D03*
G01*
X5689600Y-1981200D03*
G01*
X5410200Y-2514600D03*
G01*
X2159000Y-1041400D03*
G01*
X2286000Y-1879600D03*
D15*
G01*
X4927600Y-1981200D03*
G01*
X4927600Y-1752600D03*
D16*
G01*
X4241800Y-1911604D03*
G01*
X5191506Y-1911604D03*
G01*
X5105400Y-4165600D03*
G01*
X2260600Y-2463800D03*
D37*
X4677613Y-338099D02*
G01*
X4677613Y-373100D01*
X4927600Y-338099D02*
G01*
X4927600Y-373100D01*
X5177612Y-338099D02*
G01*
X5177612Y-373100D01*
M02*
