G04 Layer: TopPasteMaskLayer*
G04 EasyEDA v6.5.5, 2022-07-05 02:26:19*
G04 677f26d251d643acb481b5c6e2656a11,9a5be75d700b4a6385dc1106f27949ae,10*
G04 Gerber Generator version 0.2*
G04 Scale: 100 percent, Rotated: No, Reflected: No *
G04 Dimensions in millimeters *
G04 leading zeros omitted , absolute positions ,4 integer and 5 decimal *
%FSLAX45Y45*%
%MOMM*%

%ADD19R,0.5500X1.0000*%
%ADD20R,1.0720X0.5320*%
%ADD22C,1.0000*%
%ADD26R,1.4000X1.2000*%
%ADD27R,1.2000X1.4000*%
%ADD28R,4.2200X2.1240*%
%ADD29R,1.0000X0.8000*%
%ADD30R,0.6000X1.0000*%
%ADD31R,1.6000X3.2000*%
%ADD32R,3.2000X1.6000*%

%LPD*%
G36*
X2400401Y-1099413D02*
G01*
X2395372Y-1104392D01*
X2395372Y-1232408D01*
X2400401Y-1237386D01*
X2515412Y-1237386D01*
X2520391Y-1232408D01*
X2519883Y-1190396D01*
X2475890Y-1190396D01*
X2475890Y-1145387D01*
X2520899Y-1145387D01*
X2520391Y-1104392D01*
X2515412Y-1099413D01*
G37*
G36*
X2615387Y-1099413D02*
G01*
X2610408Y-1104392D01*
X2610916Y-1145387D01*
X2654909Y-1145387D01*
X2654909Y-1190396D01*
X2610408Y-1190396D01*
X2610408Y-1232408D01*
X2615387Y-1237386D01*
X2730398Y-1237386D01*
X2735376Y-1232408D01*
X2735376Y-1104392D01*
X2730398Y-1099413D01*
G37*
G36*
X3847592Y-4046372D02*
G01*
X3842613Y-4051401D01*
X3842613Y-4166412D01*
X3847592Y-4171391D01*
X3889603Y-4170883D01*
X3889603Y-4126890D01*
X3934612Y-4126890D01*
X3934612Y-4171899D01*
X3975608Y-4171391D01*
X3980586Y-4166412D01*
X3980586Y-4051401D01*
X3975608Y-4046372D01*
G37*
G36*
X3847592Y-4261408D02*
G01*
X3842613Y-4266387D01*
X3842613Y-4381398D01*
X3847592Y-4386376D01*
X3975608Y-4386376D01*
X3980586Y-4381398D01*
X3980586Y-4266387D01*
X3975608Y-4261408D01*
X3934612Y-4261916D01*
X3934612Y-4305909D01*
X3889603Y-4305909D01*
X3889603Y-4261408D01*
G37*
G36*
X2643987Y-704900D02*
G01*
X2602992Y-705408D01*
X2598013Y-710387D01*
X2598013Y-825398D01*
X2602992Y-830376D01*
X2731008Y-830376D01*
X2735986Y-825398D01*
X2735986Y-710387D01*
X2731008Y-705408D01*
X2688996Y-705916D01*
X2688996Y-749909D01*
X2643987Y-749909D01*
G37*
G36*
X2602992Y-490372D02*
G01*
X2598013Y-495401D01*
X2598013Y-610412D01*
X2602992Y-615391D01*
X2643987Y-614883D01*
X2643987Y-570890D01*
X2688996Y-570890D01*
X2688996Y-615391D01*
X2731008Y-615391D01*
X2735986Y-610412D01*
X2735986Y-495401D01*
X2731008Y-490372D01*
G37*
G36*
X4460290Y-970381D02*
G01*
X4455261Y-975410D01*
X4455261Y-1103376D01*
X4460290Y-1108405D01*
X4575302Y-1108405D01*
X4580280Y-1103376D01*
X4579772Y-1061415D01*
X4535779Y-1061415D01*
X4535779Y-1016406D01*
X4580788Y-1016406D01*
X4580280Y-975410D01*
X4575302Y-970381D01*
G37*
G36*
X4675276Y-970381D02*
G01*
X4670298Y-975410D01*
X4670806Y-1016406D01*
X4714798Y-1016406D01*
X4714798Y-1061415D01*
X4670298Y-1061415D01*
X4670298Y-1103376D01*
X4675276Y-1108405D01*
X4790287Y-1108405D01*
X4795266Y-1103376D01*
X4795266Y-975410D01*
X4790287Y-970381D01*
G37*
G36*
X3571290Y-309981D02*
G01*
X3566312Y-315010D01*
X3566312Y-442976D01*
X3571290Y-448005D01*
X3686301Y-448005D01*
X3691280Y-442976D01*
X3690772Y-401015D01*
X3646779Y-401015D01*
X3646779Y-356006D01*
X3691788Y-356006D01*
X3691280Y-315010D01*
X3686301Y-309981D01*
G37*
G36*
X3786276Y-309981D02*
G01*
X3781298Y-315010D01*
X3781806Y-356006D01*
X3825798Y-356006D01*
X3825798Y-401015D01*
X3781298Y-401015D01*
X3781298Y-442976D01*
X3786276Y-448005D01*
X3901287Y-448005D01*
X3906316Y-442976D01*
X3906316Y-315010D01*
X3901287Y-309981D01*
G37*
G36*
X2402890Y-894181D02*
G01*
X2397912Y-899210D01*
X2397912Y-1027176D01*
X2402890Y-1032205D01*
X2517902Y-1032205D01*
X2522880Y-1027176D01*
X2522372Y-985215D01*
X2478379Y-985215D01*
X2478379Y-940206D01*
X2523388Y-940206D01*
X2522880Y-899210D01*
X2517902Y-894181D01*
G37*
G36*
X2617876Y-894181D02*
G01*
X2612898Y-899210D01*
X2613406Y-940206D01*
X2657398Y-940206D01*
X2657398Y-985215D01*
X2612898Y-985215D01*
X2612898Y-1027176D01*
X2617876Y-1032205D01*
X2732887Y-1032205D01*
X2737916Y-1027176D01*
X2737916Y-899210D01*
X2732887Y-894181D01*
G37*
G36*
X5715406Y-4664811D02*
G01*
X5674360Y-4665268D01*
X5669381Y-4670298D01*
X5669381Y-4785309D01*
X5674360Y-4790287D01*
X5802376Y-4790287D01*
X5807405Y-4785309D01*
X5807405Y-4670298D01*
X5802376Y-4665268D01*
X5760364Y-4665776D01*
X5760364Y-4709769D01*
X5715406Y-4709769D01*
G37*
G36*
X5674360Y-4450283D02*
G01*
X5669381Y-4455312D01*
X5669381Y-4570272D01*
X5674360Y-4575302D01*
X5715406Y-4574794D01*
X5715406Y-4530801D01*
X5760364Y-4530801D01*
X5760364Y-4575302D01*
X5802376Y-4575302D01*
X5807405Y-4570272D01*
X5807405Y-4455312D01*
X5802376Y-4450283D01*
G37*
G36*
X3886606Y-4664811D02*
G01*
X3845610Y-4665268D01*
X3840581Y-4670298D01*
X3840581Y-4785309D01*
X3845610Y-4790287D01*
X3973576Y-4790287D01*
X3978605Y-4785309D01*
X3978605Y-4670298D01*
X3973576Y-4665268D01*
X3931615Y-4665776D01*
X3931615Y-4709769D01*
X3886606Y-4709769D01*
G37*
G36*
X3845610Y-4450283D02*
G01*
X3840581Y-4455312D01*
X3840581Y-4570272D01*
X3845610Y-4575302D01*
X3886606Y-4574794D01*
X3886606Y-4530801D01*
X3931615Y-4530801D01*
X3931615Y-4575302D01*
X3973576Y-4575302D01*
X3978605Y-4570272D01*
X3978605Y-4455312D01*
X3973576Y-4450283D01*
G37*
G36*
X3476498Y-3844594D02*
G01*
X3471519Y-3849573D01*
X3471976Y-3891584D01*
X3516020Y-3891584D01*
X3516020Y-3936593D01*
X3471011Y-3936593D01*
X3471519Y-3977589D01*
X3476498Y-3982618D01*
X3591509Y-3982618D01*
X3596487Y-3977589D01*
X3596487Y-3849573D01*
X3591509Y-3844594D01*
G37*
G36*
X3261512Y-3844594D02*
G01*
X3256483Y-3849573D01*
X3256483Y-3977589D01*
X3261512Y-3982618D01*
X3376472Y-3982618D01*
X3381501Y-3977589D01*
X3380994Y-3936593D01*
X3337001Y-3936593D01*
X3337001Y-3891584D01*
X3381501Y-3891584D01*
X3381501Y-3849573D01*
X3376472Y-3844594D01*
G37*
G36*
X5944006Y-4664811D02*
G01*
X5902960Y-4665268D01*
X5897981Y-4670298D01*
X5897981Y-4785309D01*
X5902960Y-4790287D01*
X6030976Y-4790287D01*
X6036005Y-4785309D01*
X6036005Y-4670298D01*
X6030976Y-4665268D01*
X5988964Y-4665776D01*
X5988964Y-4709769D01*
X5944006Y-4709769D01*
G37*
G36*
X5902960Y-4450283D02*
G01*
X5897981Y-4455312D01*
X5897981Y-4570272D01*
X5902960Y-4575302D01*
X5944006Y-4574794D01*
X5944006Y-4530801D01*
X5988964Y-4530801D01*
X5988964Y-4575302D01*
X6030976Y-4575302D01*
X6036005Y-4570272D01*
X6036005Y-4455312D01*
X6030976Y-4450283D01*
G37*
G36*
X4663490Y-1173581D02*
G01*
X4658461Y-1178610D01*
X4658461Y-1306576D01*
X4663490Y-1311605D01*
X4778502Y-1311605D01*
X4783480Y-1306576D01*
X4782972Y-1264615D01*
X4738979Y-1264615D01*
X4738979Y-1219606D01*
X4783988Y-1219606D01*
X4783480Y-1178610D01*
X4778502Y-1173581D01*
G37*
G36*
X4878476Y-1173581D02*
G01*
X4873498Y-1178610D01*
X4874006Y-1219606D01*
X4917998Y-1219606D01*
X4917998Y-1264615D01*
X4873498Y-1264615D01*
X4873498Y-1306576D01*
X4878476Y-1311605D01*
X4993487Y-1311605D01*
X4998466Y-1306576D01*
X4998466Y-1178610D01*
X4993487Y-1173581D01*
G37*
G36*
X1996490Y-233781D02*
G01*
X1991512Y-238810D01*
X1991512Y-366776D01*
X1996490Y-371805D01*
X2111502Y-371805D01*
X2116480Y-366776D01*
X2115972Y-324815D01*
X2071979Y-324815D01*
X2071979Y-279806D01*
X2116988Y-279806D01*
X2116480Y-238810D01*
X2111502Y-233781D01*
G37*
G36*
X2211476Y-233781D02*
G01*
X2206498Y-238810D01*
X2207006Y-279806D01*
X2250998Y-279806D01*
X2250998Y-324815D01*
X2206498Y-324815D01*
X2206498Y-366776D01*
X2211476Y-371805D01*
X2326487Y-371805D01*
X2331516Y-366776D01*
X2331516Y-238810D01*
X2326487Y-233781D01*
G37*
G36*
X5779973Y-1839112D02*
G01*
X5774994Y-1844090D01*
X5774994Y-1959102D01*
X5779973Y-1964080D01*
X5821984Y-1963572D01*
X5821984Y-1919579D01*
X5866993Y-1919579D01*
X5866993Y-1964588D01*
X5907989Y-1964080D01*
X5912967Y-1959102D01*
X5912967Y-1844090D01*
X5907989Y-1839112D01*
G37*
G36*
X5779973Y-2054098D02*
G01*
X5774994Y-2059076D01*
X5774994Y-2174087D01*
X5779973Y-2179116D01*
X5907989Y-2179116D01*
X5912967Y-2174087D01*
X5912967Y-2059076D01*
X5907989Y-2054098D01*
X5866993Y-2054606D01*
X5866993Y-2098598D01*
X5821984Y-2098598D01*
X5821984Y-2054098D01*
G37*
G36*
X5374690Y-2240381D02*
G01*
X5369661Y-2245410D01*
X5369661Y-2373376D01*
X5374690Y-2378405D01*
X5489702Y-2378405D01*
X5494680Y-2373376D01*
X5494172Y-2331415D01*
X5450179Y-2331415D01*
X5450179Y-2286406D01*
X5495188Y-2286406D01*
X5494680Y-2245410D01*
X5489702Y-2240381D01*
G37*
G36*
X5589676Y-2240381D02*
G01*
X5584698Y-2245410D01*
X5585206Y-2286406D01*
X5629198Y-2286406D01*
X5629198Y-2331415D01*
X5584698Y-2331415D01*
X5584698Y-2373376D01*
X5589676Y-2378405D01*
X5704687Y-2378405D01*
X5709666Y-2373376D01*
X5709666Y-2245410D01*
X5704687Y-2240381D01*
G37*
G36*
X6184392Y-2039772D02*
G01*
X6179362Y-2044801D01*
X6179362Y-2159812D01*
X6184392Y-2164791D01*
X6226403Y-2164283D01*
X6226403Y-2120290D01*
X6271361Y-2120290D01*
X6271361Y-2165299D01*
X6312408Y-2164791D01*
X6317386Y-2159812D01*
X6317386Y-2044801D01*
X6312408Y-2039772D01*
G37*
G36*
X6184392Y-2254808D02*
G01*
X6179362Y-2259787D01*
X6179362Y-2374798D01*
X6184392Y-2379776D01*
X6312408Y-2379776D01*
X6317386Y-2374798D01*
X6317386Y-2259787D01*
X6312408Y-2254808D01*
X6271361Y-2255316D01*
X6271361Y-2299309D01*
X6226403Y-2299309D01*
X6226403Y-2254808D01*
G37*
G36*
X5815787Y-1175613D02*
G01*
X5810808Y-1180592D01*
X5811266Y-1222603D01*
X5855309Y-1222603D01*
X5855309Y-1267612D01*
X5810300Y-1267612D01*
X5810808Y-1308608D01*
X5815787Y-1313586D01*
X5930798Y-1313586D01*
X5935776Y-1308608D01*
X5935776Y-1180592D01*
X5930798Y-1175613D01*
G37*
G36*
X5600801Y-1175613D02*
G01*
X5595772Y-1180592D01*
X5595772Y-1308608D01*
X5600801Y-1313586D01*
X5715762Y-1313586D01*
X5720791Y-1308608D01*
X5720283Y-1267612D01*
X5676290Y-1267612D01*
X5676290Y-1222603D01*
X5720791Y-1222603D01*
X5720791Y-1180592D01*
X5715762Y-1175613D01*
G37*
G36*
X5371592Y-1404772D02*
G01*
X5366613Y-1409801D01*
X5366613Y-1524812D01*
X5371592Y-1529791D01*
X5413603Y-1529283D01*
X5413603Y-1485290D01*
X5458561Y-1485290D01*
X5458561Y-1530299D01*
X5499608Y-1529791D01*
X5504586Y-1524812D01*
X5504586Y-1409801D01*
X5499608Y-1404772D01*
G37*
G36*
X5371592Y-1619808D02*
G01*
X5366613Y-1624787D01*
X5366613Y-1739798D01*
X5371592Y-1744776D01*
X5499608Y-1744776D01*
X5504586Y-1739798D01*
X5504586Y-1624787D01*
X5499608Y-1619808D01*
X5458561Y-1620316D01*
X5458561Y-1664309D01*
X5413603Y-1664309D01*
X5413603Y-1619808D01*
G37*
G36*
X2730601Y-261213D02*
G01*
X2725572Y-266192D01*
X2725572Y-394208D01*
X2730601Y-399186D01*
X2845612Y-399186D01*
X2850591Y-394208D01*
X2850083Y-352196D01*
X2806090Y-352196D01*
X2806090Y-307187D01*
X2851099Y-307187D01*
X2850591Y-266192D01*
X2845612Y-261213D01*
G37*
G36*
X2945587Y-261213D02*
G01*
X2940608Y-266192D01*
X2941116Y-307187D01*
X2985109Y-307187D01*
X2985109Y-352196D01*
X2940608Y-352196D01*
X2940608Y-394208D01*
X2945587Y-399186D01*
X3060598Y-399186D01*
X3065576Y-394208D01*
X3065576Y-266192D01*
X3060598Y-261213D01*
G37*
G36*
X5778601Y-2979013D02*
G01*
X5773572Y-2983992D01*
X5773572Y-3112008D01*
X5778601Y-3116986D01*
X5893562Y-3116986D01*
X5898591Y-3112008D01*
X5898083Y-3069996D01*
X5854090Y-3069996D01*
X5854090Y-3024987D01*
X5899099Y-3024987D01*
X5898591Y-2983992D01*
X5893562Y-2979013D01*
G37*
G36*
X5993587Y-2979013D02*
G01*
X5988608Y-2983992D01*
X5989066Y-3024987D01*
X6033109Y-3024987D01*
X6033109Y-3069996D01*
X5988608Y-3069996D01*
X5988608Y-3112008D01*
X5993587Y-3116986D01*
X6108598Y-3116986D01*
X6113576Y-3112008D01*
X6113576Y-2983992D01*
X6108598Y-2979013D01*
G37*
G36*
X5981192Y-2039772D02*
G01*
X5976162Y-2044801D01*
X5976162Y-2159812D01*
X5981192Y-2164791D01*
X6023203Y-2164283D01*
X6023203Y-2120290D01*
X6068161Y-2120290D01*
X6068161Y-2165299D01*
X6109208Y-2164791D01*
X6114186Y-2159812D01*
X6114186Y-2044801D01*
X6109208Y-2039772D01*
G37*
G36*
X5981192Y-2254808D02*
G01*
X5976162Y-2259787D01*
X5976162Y-2374798D01*
X5981192Y-2379776D01*
X6109208Y-2379776D01*
X6114186Y-2374798D01*
X6114186Y-2259787D01*
X6109208Y-2254808D01*
X6068161Y-2255316D01*
X6068161Y-2299309D01*
X6023203Y-2299309D01*
X6023203Y-2254808D01*
G37*
G36*
X5727192Y-3385972D02*
G01*
X5722213Y-3391001D01*
X5722213Y-3506012D01*
X5727192Y-3510991D01*
X5769203Y-3510483D01*
X5769203Y-3466490D01*
X5814161Y-3466490D01*
X5814161Y-3511499D01*
X5855208Y-3510991D01*
X5860186Y-3506012D01*
X5860186Y-3391001D01*
X5855208Y-3385972D01*
G37*
G36*
X5727192Y-3601008D02*
G01*
X5722213Y-3605987D01*
X5722213Y-3720998D01*
X5727192Y-3725976D01*
X5855208Y-3725976D01*
X5860186Y-3720998D01*
X5860186Y-3605987D01*
X5855208Y-3601008D01*
X5814161Y-3601516D01*
X5814161Y-3645509D01*
X5769203Y-3645509D01*
X5769203Y-3601008D01*
G37*
G36*
X5523992Y-3385972D02*
G01*
X5519013Y-3391001D01*
X5519013Y-3506012D01*
X5523992Y-3510991D01*
X5566003Y-3510483D01*
X5566003Y-3466490D01*
X5610961Y-3466490D01*
X5610961Y-3511499D01*
X5652008Y-3510991D01*
X5656986Y-3506012D01*
X5656986Y-3391001D01*
X5652008Y-3385972D01*
G37*
G36*
X5523992Y-3601008D02*
G01*
X5519013Y-3605987D01*
X5519013Y-3720998D01*
X5523992Y-3725976D01*
X5652008Y-3725976D01*
X5656986Y-3720998D01*
X5656986Y-3605987D01*
X5652008Y-3601008D01*
X5610961Y-3601516D01*
X5610961Y-3645509D01*
X5566003Y-3645509D01*
X5566003Y-3601008D01*
G37*
G36*
X5498592Y-769772D02*
G01*
X5493562Y-774801D01*
X5493562Y-889812D01*
X5498592Y-894791D01*
X5540603Y-894283D01*
X5540603Y-850290D01*
X5585561Y-850290D01*
X5585561Y-895299D01*
X5626608Y-894791D01*
X5631586Y-889812D01*
X5631586Y-774801D01*
X5626608Y-769772D01*
G37*
G36*
X5498592Y-984808D02*
G01*
X5493562Y-989787D01*
X5493562Y-1104798D01*
X5498592Y-1109776D01*
X5626608Y-1109776D01*
X5631586Y-1104798D01*
X5631586Y-989787D01*
X5626608Y-984808D01*
X5585561Y-985316D01*
X5585561Y-1029309D01*
X5540603Y-1029309D01*
X5540603Y-984808D01*
G37*
G36*
X4407001Y-4452213D02*
G01*
X4401972Y-4457192D01*
X4401972Y-4585208D01*
X4407001Y-4590186D01*
X4522012Y-4590186D01*
X4526991Y-4585208D01*
X4526483Y-4543196D01*
X4482490Y-4543196D01*
X4482490Y-4498187D01*
X4527499Y-4498187D01*
X4526991Y-4457192D01*
X4522012Y-4452213D01*
G37*
G36*
X4621987Y-4452213D02*
G01*
X4617008Y-4457192D01*
X4617516Y-4498187D01*
X4661509Y-4498187D01*
X4661509Y-4543196D01*
X4617008Y-4543196D01*
X4617008Y-4585208D01*
X4621987Y-4590186D01*
X4736998Y-4590186D01*
X4741976Y-4585208D01*
X4741976Y-4457192D01*
X4736998Y-4452213D01*
G37*
G36*
X5118201Y-4452213D02*
G01*
X5113172Y-4457192D01*
X5113172Y-4585208D01*
X5118201Y-4590186D01*
X5233212Y-4590186D01*
X5238191Y-4585208D01*
X5237683Y-4543196D01*
X5193690Y-4543196D01*
X5193690Y-4498187D01*
X5238699Y-4498187D01*
X5238191Y-4457192D01*
X5233212Y-4452213D01*
G37*
G36*
X5333187Y-4452213D02*
G01*
X5328208Y-4457192D01*
X5328716Y-4498187D01*
X5372709Y-4498187D01*
X5372709Y-4543196D01*
X5328208Y-4543196D01*
X5328208Y-4585208D01*
X5333187Y-4590186D01*
X5448198Y-4590186D01*
X5453176Y-4585208D01*
X5453176Y-4457192D01*
X5448198Y-4452213D01*
G37*
G36*
X5498592Y-295198D02*
G01*
X5493613Y-300177D01*
X5493613Y-415188D01*
X5498592Y-420217D01*
X5539587Y-419709D01*
X5539587Y-375716D01*
X5584596Y-375716D01*
X5584596Y-420217D01*
X5626608Y-420217D01*
X5631586Y-415188D01*
X5631586Y-300177D01*
X5626608Y-295198D01*
G37*
G36*
X5539587Y-493674D02*
G01*
X5498592Y-494182D01*
X5493613Y-499211D01*
X5493613Y-614222D01*
X5498592Y-619201D01*
X5626608Y-619201D01*
X5631586Y-614222D01*
X5631586Y-499211D01*
X5626608Y-494182D01*
X5584596Y-494690D01*
X5584596Y-538683D01*
X5539587Y-538683D01*
G37*
G36*
X5710377Y-489813D02*
G01*
X5705398Y-494792D01*
X5705398Y-622808D01*
X5710377Y-627786D01*
X5825388Y-627786D01*
X5830366Y-622808D01*
X5829909Y-581812D01*
X5785866Y-581812D01*
X5785866Y-536803D01*
X5830366Y-536803D01*
X5830366Y-494792D01*
X5825388Y-489813D01*
G37*
G36*
X5909411Y-489813D02*
G01*
X5904382Y-494792D01*
X5904890Y-536803D01*
X5948883Y-536803D01*
X5948883Y-581812D01*
X5903874Y-581812D01*
X5904382Y-622808D01*
X5909411Y-627786D01*
X6024372Y-627786D01*
X6029401Y-622808D01*
X6029401Y-494792D01*
X6024372Y-489813D01*
G37*
G36*
X5803392Y-976782D02*
G01*
X5798362Y-981811D01*
X5798362Y-1096772D01*
X5803392Y-1101801D01*
X5931408Y-1101801D01*
X5936386Y-1096772D01*
X5936386Y-981811D01*
X5931408Y-976782D01*
X5890361Y-977290D01*
X5890361Y-1021283D01*
X5845403Y-1021283D01*
X5845403Y-976782D01*
G37*
G36*
X5803392Y-777798D02*
G01*
X5798362Y-782777D01*
X5798362Y-897788D01*
X5803392Y-902817D01*
X5845403Y-902309D01*
X5845403Y-858316D01*
X5890361Y-858316D01*
X5890361Y-903325D01*
X5931408Y-902817D01*
X5936386Y-897788D01*
X5936386Y-782777D01*
X5931408Y-777798D01*
G37*
D19*
G01*
X3828795Y-902004D03*
G01*
X3733800Y-902004D03*
G01*
X3638804Y-902004D03*
G01*
X3638804Y-621995D03*
G01*
X3733800Y-621995D03*
G01*
X3828795Y-621995D03*
G01*
X2457195Y-775004D03*
G01*
X2362200Y-775004D03*
G01*
X2267204Y-775004D03*
G01*
X2267204Y-494995D03*
G01*
X2362200Y-494995D03*
G01*
X2457195Y-494995D03*
D20*
G01*
X3569309Y-4311395D03*
G01*
X3569309Y-4216400D03*
G01*
X3569309Y-4121404D03*
G01*
X3339490Y-4121404D03*
G01*
X3339490Y-4216400D03*
G01*
X3339490Y-4311395D03*
G36*
X4874577Y-1004793D02*
G01*
X4974577Y-1004793D01*
X4974577Y-1064793D01*
X4874577Y-1064793D01*
G37*
G36*
X4874577Y-814801D02*
G01*
X4974577Y-814801D01*
X4974577Y-874801D01*
X4874577Y-874801D01*
G37*
G36*
X5134597Y-814801D02*
G01*
X5234597Y-814801D01*
X5234597Y-874801D01*
X5134597Y-874801D01*
G37*
G36*
X5134597Y-909797D02*
G01*
X5234597Y-909797D01*
X5234597Y-969797D01*
X5134597Y-969797D01*
G37*
G36*
X5134597Y-1004793D02*
G01*
X5234597Y-1004793D01*
X5234597Y-1064793D01*
X5134597Y-1064793D01*
G37*
D22*
G01*
X1752600Y-1016000D03*
G01*
X4673625Y-838225D03*
G01*
X5613425Y-1701800D03*
G01*
X2260625Y-1295425D03*
G01*
X6400800Y-3403600D03*
G01*
X6756400Y-1778000D03*
G36*
X5851194Y-1461498D02*
G01*
X5951194Y-1461498D01*
X5951194Y-1586496D01*
X5851194Y-1586496D01*
G37*
G36*
X5631179Y-1461498D02*
G01*
X5731179Y-1461498D01*
X5731179Y-1586496D01*
X5631179Y-1586496D01*
G37*
D26*
G01*
X3331692Y-4521200D03*
G01*
X3678681Y-4521200D03*
G36*
X3151489Y-498800D02*
G01*
X3291492Y-498800D01*
X3291492Y-618799D01*
X3151489Y-618799D01*
G37*
G36*
X2804497Y-498800D02*
G01*
X2944500Y-498800D01*
X2944500Y-618799D01*
X2804497Y-618799D01*
G37*
D27*
G01*
X3429000Y-910081D03*
G01*
X3429000Y-563092D03*
G36*
X3106595Y-4224200D02*
G01*
X2684594Y-4224200D01*
X2684594Y-4011800D01*
X3106595Y-4011800D01*
G37*
D28*
G01*
X2895600Y-4517974D03*
D29*
G01*
X3086785Y-1073404D03*
G01*
X2856788Y-1168400D03*
G01*
X3086785Y-1263395D03*
D30*
G01*
X5632195Y-2111197D03*
G01*
X5442204Y-2111197D03*
G01*
X5442204Y-1851177D03*
G01*
X5537200Y-1851177D03*
G01*
X5632195Y-1851177D03*
D31*
G01*
X228600Y-3483584D03*
G01*
X482600Y-3483584D03*
G01*
X736600Y-3483584D03*
G01*
X990600Y-3483584D03*
G01*
X1244600Y-3483584D03*
G01*
X1498600Y-3483584D03*
G01*
X1752600Y-3483584D03*
G01*
X2006600Y-3483584D03*
G01*
X2260600Y-3483584D03*
G01*
X2514600Y-3483584D03*
G01*
X2768600Y-3483584D03*
G01*
X3022600Y-3483584D03*
G01*
X3276600Y-3483584D03*
G01*
X3530600Y-3483584D03*
G01*
X3784600Y-3483584D03*
G01*
X4038600Y-3483584D03*
G01*
X4292600Y-3483584D03*
G01*
X4546600Y-3483584D03*
G01*
X4800600Y-3483584D03*
G01*
X5054600Y-3483584D03*
G01*
X5054600Y-1545589D03*
G01*
X4800600Y-1545589D03*
G01*
X4546600Y-1545589D03*
G01*
X4292600Y-1545589D03*
G01*
X4038600Y-1545589D03*
G01*
X3784600Y-1545589D03*
G01*
X3530600Y-1545589D03*
G01*
X3276600Y-1545589D03*
G01*
X3022600Y-1545589D03*
G01*
X2768600Y-1545589D03*
G01*
X2514600Y-1545589D03*
G01*
X2260600Y-1545589D03*
G01*
X2006600Y-1545589D03*
G01*
X1752600Y-1545589D03*
G01*
X1498600Y-1545589D03*
G01*
X1244600Y-1545589D03*
G01*
X990600Y-1545589D03*
G01*
X736600Y-1545589D03*
G01*
X482600Y-1545589D03*
G01*
X228600Y-1545589D03*
D32*
G01*
X5111597Y-2768600D03*
G01*
X5111597Y-2514600D03*
G01*
X5111597Y-2260600D03*
M02*
