G04 Layer: InnerLayer2*
G04 EasyEDA v6.5.42, 2024-03-29 12:16:20*
G04 9a5be75d700b4a6385dc1106f27949ae,10*
G04 Gerber Generator version 0.2*
G04 Scale: 100 percent, Rotated: No, Reflected: No *
G04 Dimensions in millimeters *
G04 leading zeros omitted , absolute positions ,4 integer and 5 decimal *
%FSLAX45Y45*%
%MOMM*%

%ADD10R,1.7000X1.7000*%
%ADD11C,1.7000*%
%ADD12C,2.2000*%
%ADD13C,2.0000*%
%ADD14C,1.5240*%
%ADD15R,1.5748X1.7000*%
%ADD16R,1.5748X1.5748*%
%ADD17C,5.5000*%
%ADD18C,0.8200*%
%ADD19C,0.6200*%
%ADD20C,0.0100*%

%LPD*%
G36*
X200964Y-4969459D02*
G01*
X182880Y-4968544D01*
X166471Y-4966055D01*
X150317Y-4961991D01*
X134721Y-4956352D01*
X119684Y-4949190D01*
X105460Y-4940604D01*
X92151Y-4930648D01*
X79857Y-4919421D01*
X68732Y-4907076D01*
X58826Y-4893716D01*
X50342Y-4879441D01*
X43281Y-4864354D01*
X37693Y-4848707D01*
X33731Y-4832553D01*
X31343Y-4816094D01*
X30530Y-4799025D01*
X30530Y-200964D01*
X31445Y-182880D01*
X33934Y-166471D01*
X37998Y-150317D01*
X43637Y-134721D01*
X50800Y-119684D01*
X59385Y-105460D01*
X69342Y-92151D01*
X80568Y-79857D01*
X92913Y-68732D01*
X106273Y-58826D01*
X120548Y-50342D01*
X135636Y-43281D01*
X151282Y-37693D01*
X167436Y-33731D01*
X183896Y-31343D01*
X200964Y-30530D01*
X7051040Y-30530D01*
X7054900Y-31292D01*
X7058202Y-33477D01*
X7060387Y-36779D01*
X7061200Y-40690D01*
X7061200Y-4959299D01*
X7060387Y-4963210D01*
X7058202Y-4966512D01*
X7054900Y-4968697D01*
X7051040Y-4969459D01*
G37*

%LPC*%
G36*
X206146Y-4919421D02*
G01*
X206146Y-4793843D01*
X80721Y-4793843D01*
X84429Y-4801006D01*
X97282Y-4821580D01*
X111709Y-4841138D01*
X127660Y-4859477D01*
X144983Y-4876495D01*
X163626Y-4892040D01*
X183438Y-4906111D01*
X204317Y-4918506D01*
G37*
G36*
X6556146Y-4919421D02*
G01*
X6556146Y-4793843D01*
X6430721Y-4793843D01*
X6434429Y-4801006D01*
X6447231Y-4821580D01*
X6461658Y-4841138D01*
X6477609Y-4859477D01*
X6494983Y-4876495D01*
X6513626Y-4892040D01*
X6533438Y-4906111D01*
X6554317Y-4918506D01*
G37*
G36*
X6843826Y-4919218D02*
G01*
X6856222Y-4912512D01*
X6876592Y-4899253D01*
X6895846Y-4884470D01*
X6913829Y-4868164D01*
X6930491Y-4850485D01*
X6945680Y-4831537D01*
X6959346Y-4811420D01*
X6969353Y-4793843D01*
X6843826Y-4793843D01*
G37*
G36*
X493877Y-4919218D02*
G01*
X506272Y-4912512D01*
X526592Y-4899253D01*
X545846Y-4884470D01*
X563880Y-4868164D01*
X580542Y-4850485D01*
X595731Y-4831537D01*
X609396Y-4811420D01*
X619353Y-4793843D01*
X493877Y-4793843D01*
G37*
G36*
X878738Y-4865471D02*
G01*
X1035253Y-4865471D01*
X1041653Y-4864862D01*
X1047394Y-4863134D01*
X1052677Y-4860290D01*
X1057249Y-4856530D01*
X1061059Y-4851908D01*
X1063853Y-4846624D01*
X1065631Y-4840935D01*
X1066241Y-4834483D01*
X1066241Y-4665472D01*
X1065631Y-4659071D01*
X1063853Y-4653330D01*
X1061059Y-4648047D01*
X1057249Y-4643475D01*
X1052677Y-4639665D01*
X1047394Y-4636871D01*
X1041653Y-4635144D01*
X1035253Y-4634484D01*
X878738Y-4634484D01*
X872337Y-4635144D01*
X866597Y-4636871D01*
X861314Y-4639665D01*
X856742Y-4643475D01*
X852932Y-4648047D01*
X850137Y-4653330D01*
X848360Y-4659071D01*
X847750Y-4665472D01*
X847750Y-4834483D01*
X848360Y-4840935D01*
X850137Y-4846624D01*
X852932Y-4851908D01*
X856742Y-4856530D01*
X861314Y-4860290D01*
X866597Y-4863134D01*
X872337Y-4864862D01*
G37*
G36*
X1965756Y-4865268D02*
G01*
X1980234Y-4865268D01*
X1994611Y-4863439D01*
X2008682Y-4859832D01*
X2022144Y-4854498D01*
X2034895Y-4847488D01*
X2046630Y-4838954D01*
X2057196Y-4829048D01*
X2066442Y-4817872D01*
X2074214Y-4805629D01*
X2080361Y-4792522D01*
X2084832Y-4778705D01*
X2087575Y-4764481D01*
X2088489Y-4750003D01*
X2087575Y-4735525D01*
X2084832Y-4721250D01*
X2080361Y-4707483D01*
X2074214Y-4694377D01*
X2066442Y-4682134D01*
X2057196Y-4670958D01*
X2046630Y-4661001D01*
X2034895Y-4652467D01*
X2022144Y-4645507D01*
X2008682Y-4640173D01*
X1994611Y-4636566D01*
X1980234Y-4634738D01*
X1965756Y-4634738D01*
X1951380Y-4636566D01*
X1937308Y-4640173D01*
X1923846Y-4645507D01*
X1911096Y-4652467D01*
X1899361Y-4661001D01*
X1888794Y-4670958D01*
X1879549Y-4682134D01*
X1871776Y-4694377D01*
X1865630Y-4707483D01*
X1861159Y-4721250D01*
X1858416Y-4735525D01*
X1857502Y-4750003D01*
X1858416Y-4764481D01*
X1861159Y-4778705D01*
X1865630Y-4792522D01*
X1871776Y-4805629D01*
X1879549Y-4817872D01*
X1888794Y-4829048D01*
X1899361Y-4838954D01*
X1911096Y-4847488D01*
X1923846Y-4854498D01*
X1937308Y-4859832D01*
X1951380Y-4863439D01*
G37*
G36*
X1457756Y-4865268D02*
G01*
X1472234Y-4865268D01*
X1486611Y-4863439D01*
X1500682Y-4859832D01*
X1514144Y-4854498D01*
X1526895Y-4847488D01*
X1538630Y-4838954D01*
X1549196Y-4829048D01*
X1558442Y-4817872D01*
X1566214Y-4805629D01*
X1572361Y-4792522D01*
X1576832Y-4778705D01*
X1579575Y-4764481D01*
X1580489Y-4750003D01*
X1579575Y-4735525D01*
X1576832Y-4721250D01*
X1572361Y-4707483D01*
X1566214Y-4694377D01*
X1558442Y-4682134D01*
X1549196Y-4670958D01*
X1538630Y-4661001D01*
X1526895Y-4652467D01*
X1514144Y-4645507D01*
X1500682Y-4640173D01*
X1486611Y-4636566D01*
X1472234Y-4634738D01*
X1457756Y-4634738D01*
X1443380Y-4636566D01*
X1429308Y-4640173D01*
X1415846Y-4645507D01*
X1403096Y-4652467D01*
X1391361Y-4661001D01*
X1380794Y-4670958D01*
X1371549Y-4682134D01*
X1363776Y-4694377D01*
X1357630Y-4707483D01*
X1353159Y-4721250D01*
X1350416Y-4735525D01*
X1349502Y-4750003D01*
X1350416Y-4764481D01*
X1353159Y-4778705D01*
X1357630Y-4792522D01*
X1363776Y-4805629D01*
X1371549Y-4817872D01*
X1380794Y-4829048D01*
X1391361Y-4838954D01*
X1403096Y-4847488D01*
X1415846Y-4854498D01*
X1429308Y-4859832D01*
X1443380Y-4863439D01*
G37*
G36*
X2727756Y-4865268D02*
G01*
X2742234Y-4865268D01*
X2756611Y-4863439D01*
X2770682Y-4859832D01*
X2784144Y-4854498D01*
X2796895Y-4847488D01*
X2808630Y-4838954D01*
X2819196Y-4829048D01*
X2828442Y-4817872D01*
X2836214Y-4805629D01*
X2842361Y-4792522D01*
X2846832Y-4778705D01*
X2849575Y-4764481D01*
X2850489Y-4750003D01*
X2849575Y-4735525D01*
X2846832Y-4721250D01*
X2842361Y-4707483D01*
X2836214Y-4694377D01*
X2828442Y-4682134D01*
X2819196Y-4670958D01*
X2808630Y-4661001D01*
X2796895Y-4652467D01*
X2784144Y-4645507D01*
X2770682Y-4640173D01*
X2756611Y-4636566D01*
X2742234Y-4634738D01*
X2727756Y-4634738D01*
X2713380Y-4636566D01*
X2699308Y-4640173D01*
X2685846Y-4645507D01*
X2673096Y-4652467D01*
X2661361Y-4661001D01*
X2650794Y-4670958D01*
X2641549Y-4682134D01*
X2633776Y-4694377D01*
X2627630Y-4707483D01*
X2623159Y-4721250D01*
X2620416Y-4735525D01*
X2619502Y-4750003D01*
X2620416Y-4764481D01*
X2623159Y-4778705D01*
X2627630Y-4792522D01*
X2633776Y-4805629D01*
X2641549Y-4817872D01*
X2650794Y-4829048D01*
X2661361Y-4838954D01*
X2673096Y-4847488D01*
X2685846Y-4854498D01*
X2699308Y-4859832D01*
X2713380Y-4863439D01*
G37*
G36*
X2473756Y-4865268D02*
G01*
X2488234Y-4865268D01*
X2502611Y-4863439D01*
X2516682Y-4859832D01*
X2530144Y-4854498D01*
X2542895Y-4847488D01*
X2554630Y-4838954D01*
X2565196Y-4829048D01*
X2574442Y-4817872D01*
X2582214Y-4805629D01*
X2588361Y-4792522D01*
X2592832Y-4778705D01*
X2595575Y-4764481D01*
X2596489Y-4750003D01*
X2595575Y-4735525D01*
X2592832Y-4721250D01*
X2588361Y-4707483D01*
X2582214Y-4694377D01*
X2574442Y-4682134D01*
X2565196Y-4670958D01*
X2554630Y-4661001D01*
X2542895Y-4652467D01*
X2530144Y-4645507D01*
X2516682Y-4640173D01*
X2502611Y-4636566D01*
X2488234Y-4634738D01*
X2473756Y-4634738D01*
X2459380Y-4636566D01*
X2445308Y-4640173D01*
X2431846Y-4645507D01*
X2419096Y-4652467D01*
X2407361Y-4661001D01*
X2396794Y-4670958D01*
X2387549Y-4682134D01*
X2379776Y-4694377D01*
X2373630Y-4707483D01*
X2369159Y-4721250D01*
X2366416Y-4735525D01*
X2365502Y-4750003D01*
X2366416Y-4764481D01*
X2369159Y-4778705D01*
X2373630Y-4792522D01*
X2379776Y-4805629D01*
X2387549Y-4817872D01*
X2396794Y-4829048D01*
X2407361Y-4838954D01*
X2419096Y-4847488D01*
X2431846Y-4854498D01*
X2445308Y-4859832D01*
X2459380Y-4863439D01*
G37*
G36*
X2981756Y-4865268D02*
G01*
X2996234Y-4865268D01*
X3010611Y-4863439D01*
X3024682Y-4859832D01*
X3038144Y-4854498D01*
X3050895Y-4847488D01*
X3062630Y-4838954D01*
X3073196Y-4829048D01*
X3082442Y-4817872D01*
X3090214Y-4805629D01*
X3096361Y-4792522D01*
X3100832Y-4778705D01*
X3103575Y-4764481D01*
X3104489Y-4750003D01*
X3103575Y-4735525D01*
X3100832Y-4721250D01*
X3096361Y-4707483D01*
X3090214Y-4694377D01*
X3082442Y-4682134D01*
X3073196Y-4670958D01*
X3062630Y-4661001D01*
X3050895Y-4652467D01*
X3038144Y-4645507D01*
X3024682Y-4640173D01*
X3010611Y-4636566D01*
X2996234Y-4634738D01*
X2981756Y-4634738D01*
X2967380Y-4636566D01*
X2953308Y-4640173D01*
X2939846Y-4645507D01*
X2927096Y-4652467D01*
X2915361Y-4661001D01*
X2904794Y-4670958D01*
X2895549Y-4682134D01*
X2887776Y-4694377D01*
X2881630Y-4707483D01*
X2877159Y-4721250D01*
X2874416Y-4735525D01*
X2873502Y-4750003D01*
X2874416Y-4764481D01*
X2877159Y-4778705D01*
X2881630Y-4792522D01*
X2887776Y-4805629D01*
X2895549Y-4817872D01*
X2904794Y-4829048D01*
X2915361Y-4838954D01*
X2927096Y-4847488D01*
X2939846Y-4854498D01*
X2953308Y-4859832D01*
X2967380Y-4863439D01*
G37*
G36*
X2219756Y-4865268D02*
G01*
X2234234Y-4865268D01*
X2248611Y-4863439D01*
X2262682Y-4859832D01*
X2276144Y-4854498D01*
X2288895Y-4847488D01*
X2300630Y-4838954D01*
X2311196Y-4829048D01*
X2320442Y-4817872D01*
X2328214Y-4805629D01*
X2334361Y-4792522D01*
X2338832Y-4778705D01*
X2341575Y-4764481D01*
X2342489Y-4750003D01*
X2341575Y-4735525D01*
X2338832Y-4721250D01*
X2334361Y-4707483D01*
X2328214Y-4694377D01*
X2320442Y-4682134D01*
X2311196Y-4670958D01*
X2300630Y-4661001D01*
X2288895Y-4652467D01*
X2276144Y-4645507D01*
X2262682Y-4640173D01*
X2248611Y-4636566D01*
X2234234Y-4634738D01*
X2219756Y-4634738D01*
X2205380Y-4636566D01*
X2191308Y-4640173D01*
X2177846Y-4645507D01*
X2165096Y-4652467D01*
X2153361Y-4661001D01*
X2142794Y-4670958D01*
X2133549Y-4682134D01*
X2125776Y-4694377D01*
X2119630Y-4707483D01*
X2115159Y-4721250D01*
X2112416Y-4735525D01*
X2111502Y-4750003D01*
X2112416Y-4764481D01*
X2115159Y-4778705D01*
X2119630Y-4792522D01*
X2125776Y-4805629D01*
X2133549Y-4817872D01*
X2142794Y-4829048D01*
X2153361Y-4838954D01*
X2165096Y-4847488D01*
X2177846Y-4854498D01*
X2191308Y-4859832D01*
X2205380Y-4863439D01*
G37*
G36*
X1203756Y-4865268D02*
G01*
X1218234Y-4865268D01*
X1232611Y-4863439D01*
X1246682Y-4859832D01*
X1260144Y-4854498D01*
X1272895Y-4847488D01*
X1284630Y-4838954D01*
X1295196Y-4829048D01*
X1304442Y-4817872D01*
X1312214Y-4805629D01*
X1318361Y-4792522D01*
X1322832Y-4778705D01*
X1325575Y-4764481D01*
X1326489Y-4750003D01*
X1325575Y-4735525D01*
X1322832Y-4721250D01*
X1318361Y-4707483D01*
X1312214Y-4694377D01*
X1304442Y-4682134D01*
X1295196Y-4670958D01*
X1284630Y-4661001D01*
X1272895Y-4652467D01*
X1260144Y-4645507D01*
X1246682Y-4640173D01*
X1232611Y-4636566D01*
X1218234Y-4634738D01*
X1203756Y-4634738D01*
X1189380Y-4636566D01*
X1175308Y-4640173D01*
X1161846Y-4645507D01*
X1149096Y-4652467D01*
X1137361Y-4661001D01*
X1126794Y-4670958D01*
X1117549Y-4682134D01*
X1109776Y-4694377D01*
X1103630Y-4707483D01*
X1099159Y-4721250D01*
X1096416Y-4735525D01*
X1095502Y-4750003D01*
X1096416Y-4764481D01*
X1099159Y-4778705D01*
X1103630Y-4792522D01*
X1109776Y-4805629D01*
X1117549Y-4817872D01*
X1126794Y-4829048D01*
X1137361Y-4838954D01*
X1149096Y-4847488D01*
X1161846Y-4854498D01*
X1175308Y-4859832D01*
X1189380Y-4863439D01*
G37*
G36*
X3235756Y-4865268D02*
G01*
X3250234Y-4865268D01*
X3264611Y-4863439D01*
X3278682Y-4859832D01*
X3292144Y-4854498D01*
X3304895Y-4847488D01*
X3316630Y-4838954D01*
X3327196Y-4829048D01*
X3336442Y-4817872D01*
X3344214Y-4805629D01*
X3350361Y-4792522D01*
X3354832Y-4778705D01*
X3357575Y-4764481D01*
X3358489Y-4750003D01*
X3357575Y-4735525D01*
X3354832Y-4721250D01*
X3350361Y-4707483D01*
X3344214Y-4694377D01*
X3336442Y-4682134D01*
X3327196Y-4670958D01*
X3316630Y-4661001D01*
X3304895Y-4652467D01*
X3292144Y-4645507D01*
X3278682Y-4640173D01*
X3264611Y-4636566D01*
X3250234Y-4634738D01*
X3235756Y-4634738D01*
X3221380Y-4636566D01*
X3207308Y-4640173D01*
X3193846Y-4645507D01*
X3181096Y-4652467D01*
X3169361Y-4661001D01*
X3158794Y-4670958D01*
X3149549Y-4682134D01*
X3141776Y-4694377D01*
X3135630Y-4707483D01*
X3131159Y-4721250D01*
X3128416Y-4735525D01*
X3127502Y-4750003D01*
X3128416Y-4764481D01*
X3131159Y-4778705D01*
X3135630Y-4792522D01*
X3141776Y-4805629D01*
X3149549Y-4817872D01*
X3158794Y-4829048D01*
X3169361Y-4838954D01*
X3181096Y-4847488D01*
X3193846Y-4854498D01*
X3207308Y-4859832D01*
X3221380Y-4863439D01*
G37*
G36*
X1767839Y-4854600D02*
G01*
X1780895Y-4847488D01*
X1792630Y-4838954D01*
X1803196Y-4829048D01*
X1812442Y-4817872D01*
X1820214Y-4805629D01*
X1823364Y-4798822D01*
X1767839Y-4798822D01*
G37*
G36*
X1670151Y-4854600D02*
G01*
X1670151Y-4798822D01*
X1614627Y-4798822D01*
X1617776Y-4805629D01*
X1625549Y-4817872D01*
X1634794Y-4829048D01*
X1645361Y-4838954D01*
X1657096Y-4847488D01*
G37*
G36*
X1614627Y-4701133D02*
G01*
X1670151Y-4701133D01*
X1670151Y-4645355D01*
X1657096Y-4652467D01*
X1645361Y-4661001D01*
X1634794Y-4670958D01*
X1625549Y-4682134D01*
X1617776Y-4694377D01*
G37*
G36*
X1767839Y-4701133D02*
G01*
X1823364Y-4701133D01*
X1820214Y-4694377D01*
X1812442Y-4682134D01*
X1803196Y-4670958D01*
X1792630Y-4661001D01*
X1780895Y-4652467D01*
X1767839Y-4645355D01*
G37*
G36*
X6843826Y-4506163D02*
G01*
X6969353Y-4506163D01*
X6959346Y-4488535D01*
X6945680Y-4468469D01*
X6930491Y-4449521D01*
X6913829Y-4431842D01*
X6895846Y-4415536D01*
X6876592Y-4400702D01*
X6856222Y-4387494D01*
X6843826Y-4380738D01*
G37*
G36*
X493877Y-4506163D02*
G01*
X619353Y-4506163D01*
X609396Y-4488535D01*
X595731Y-4468469D01*
X580542Y-4449521D01*
X563880Y-4431842D01*
X545846Y-4415536D01*
X526592Y-4400702D01*
X506272Y-4387494D01*
X493877Y-4380738D01*
G37*
G36*
X6430721Y-4506163D02*
G01*
X6556146Y-4506163D01*
X6556146Y-4380585D01*
X6554317Y-4381449D01*
X6533438Y-4393895D01*
X6513626Y-4407916D01*
X6494983Y-4423511D01*
X6477609Y-4440529D01*
X6461658Y-4458817D01*
X6447231Y-4478375D01*
X6434429Y-4499000D01*
G37*
G36*
X80721Y-4506163D02*
G01*
X206146Y-4506163D01*
X206146Y-4380585D01*
X204317Y-4381449D01*
X183438Y-4393895D01*
X163626Y-4407916D01*
X144983Y-4423511D01*
X127660Y-4440529D01*
X111709Y-4458817D01*
X97282Y-4478375D01*
X84429Y-4499000D01*
G37*
G36*
X4696002Y-4031691D02*
G01*
X4709922Y-4030776D01*
X4723638Y-4028033D01*
X4736846Y-4023563D01*
X4749342Y-4017365D01*
X4760925Y-4009644D01*
X4771440Y-4000449D01*
X4780635Y-3989933D01*
X4788408Y-3978351D01*
X4794554Y-3965803D01*
X4799076Y-3952595D01*
X4801768Y-3938930D01*
X4802682Y-3925011D01*
X4801768Y-3911092D01*
X4799076Y-3897376D01*
X4794554Y-3884168D01*
X4788408Y-3871671D01*
X4780635Y-3860037D01*
X4771440Y-3849573D01*
X4760925Y-3840378D01*
X4749342Y-3832606D01*
X4736846Y-3826408D01*
X4723638Y-3821937D01*
X4709922Y-3819245D01*
X4696002Y-3818331D01*
X4682083Y-3819245D01*
X4668367Y-3821937D01*
X4655159Y-3826408D01*
X4642662Y-3832606D01*
X4631080Y-3840378D01*
X4620564Y-3849573D01*
X4611370Y-3860037D01*
X4603597Y-3871671D01*
X4597450Y-3884168D01*
X4592929Y-3897376D01*
X4590237Y-3911092D01*
X4589322Y-3925011D01*
X4590237Y-3938930D01*
X4592929Y-3952595D01*
X4597450Y-3965803D01*
X4603597Y-3978351D01*
X4611370Y-3989933D01*
X4620564Y-4000449D01*
X4631080Y-4009644D01*
X4642662Y-4017365D01*
X4655159Y-4023563D01*
X4668367Y-4028033D01*
X4682083Y-4030776D01*
G37*
G36*
X4950002Y-4031691D02*
G01*
X4963922Y-4030776D01*
X4977638Y-4028033D01*
X4990846Y-4023563D01*
X5003342Y-4017365D01*
X5014925Y-4009644D01*
X5025440Y-4000449D01*
X5034635Y-3989933D01*
X5042408Y-3978351D01*
X5048554Y-3965803D01*
X5053076Y-3952595D01*
X5055768Y-3938930D01*
X5056682Y-3925011D01*
X5055768Y-3911092D01*
X5053076Y-3897376D01*
X5048554Y-3884168D01*
X5042408Y-3871671D01*
X5034635Y-3860037D01*
X5025440Y-3849573D01*
X5014925Y-3840378D01*
X5003342Y-3832606D01*
X4990846Y-3826408D01*
X4977638Y-3821937D01*
X4963922Y-3819245D01*
X4950002Y-3818331D01*
X4936083Y-3819245D01*
X4922367Y-3821937D01*
X4909159Y-3826408D01*
X4896662Y-3832606D01*
X4885080Y-3840378D01*
X4874564Y-3849573D01*
X4865370Y-3860037D01*
X4857597Y-3871671D01*
X4851450Y-3884168D01*
X4846929Y-3897376D01*
X4844237Y-3911092D01*
X4843322Y-3925011D01*
X4844237Y-3938930D01*
X4846929Y-3952595D01*
X4851450Y-3965803D01*
X4857597Y-3978351D01*
X4865370Y-3989933D01*
X4874564Y-4000449D01*
X4885080Y-4009644D01*
X4896662Y-4017365D01*
X4909159Y-4023563D01*
X4922367Y-4028033D01*
X4936083Y-4030776D01*
G37*
G36*
X5204002Y-4031691D02*
G01*
X5217922Y-4030776D01*
X5231638Y-4028033D01*
X5244846Y-4023563D01*
X5257342Y-4017365D01*
X5268925Y-4009644D01*
X5279440Y-4000449D01*
X5288635Y-3989933D01*
X5296408Y-3978351D01*
X5302554Y-3965803D01*
X5307076Y-3952595D01*
X5309768Y-3938930D01*
X5310682Y-3925011D01*
X5309768Y-3911092D01*
X5307076Y-3897376D01*
X5302554Y-3884168D01*
X5296408Y-3871671D01*
X5288635Y-3860037D01*
X5279440Y-3849573D01*
X5268925Y-3840378D01*
X5257342Y-3832606D01*
X5244846Y-3826408D01*
X5231638Y-3821937D01*
X5217922Y-3819245D01*
X5204002Y-3818331D01*
X5190083Y-3819245D01*
X5176367Y-3821937D01*
X5163159Y-3826408D01*
X5150662Y-3832606D01*
X5139080Y-3840378D01*
X5128564Y-3849573D01*
X5119370Y-3860037D01*
X5111597Y-3871671D01*
X5105450Y-3884168D01*
X5100929Y-3897376D01*
X5098237Y-3911092D01*
X5097322Y-3925011D01*
X5098237Y-3938930D01*
X5100929Y-3952595D01*
X5105450Y-3965803D01*
X5111597Y-3978351D01*
X5119370Y-3989933D01*
X5128564Y-4000449D01*
X5139080Y-4009644D01*
X5150662Y-4017365D01*
X5163159Y-4023563D01*
X5176367Y-4028033D01*
X5190083Y-4030776D01*
G37*
G36*
X6357315Y-4030319D02*
G01*
X6371945Y-4022191D01*
X6384899Y-4012742D01*
X6396736Y-4001922D01*
X6407251Y-3989781D01*
X6416294Y-3976522D01*
X6422186Y-3965346D01*
X6357315Y-3965346D01*
G37*
G36*
X6234633Y-4030319D02*
G01*
X6234633Y-3965346D01*
X6169761Y-3965346D01*
X6175654Y-3976522D01*
X6184747Y-3989781D01*
X6195263Y-4001922D01*
X6207048Y-4012742D01*
X6220053Y-4022191D01*
G37*
G36*
X6742633Y-4030319D02*
G01*
X6742633Y-3965346D01*
X6677761Y-3965346D01*
X6683654Y-3976522D01*
X6692747Y-3989781D01*
X6703263Y-4001922D01*
X6715048Y-4012742D01*
X6728053Y-4022191D01*
G37*
G36*
X6865315Y-4030319D02*
G01*
X6879945Y-4022191D01*
X6892899Y-4012742D01*
X6904736Y-4001922D01*
X6915251Y-3989781D01*
X6924294Y-3976522D01*
X6930186Y-3965346D01*
X6865315Y-3965346D01*
G37*
G36*
X6865315Y-3842664D02*
G01*
X6930186Y-3842664D01*
X6928256Y-3838448D01*
X6919975Y-3824681D01*
X6910171Y-3811981D01*
X6898995Y-3800500D01*
X6886549Y-3790340D01*
X6873087Y-3781653D01*
X6865315Y-3777843D01*
G37*
G36*
X6357315Y-3842664D02*
G01*
X6422186Y-3842664D01*
X6420256Y-3838448D01*
X6411976Y-3824681D01*
X6402171Y-3811981D01*
X6390995Y-3800500D01*
X6378549Y-3790340D01*
X6365087Y-3781653D01*
X6357315Y-3777843D01*
G37*
G36*
X6677812Y-3842664D02*
G01*
X6742633Y-3842664D01*
X6742633Y-3777843D01*
X6734911Y-3781653D01*
X6721398Y-3790340D01*
X6709003Y-3800500D01*
X6697827Y-3811981D01*
X6688023Y-3824681D01*
X6679742Y-3838448D01*
G37*
G36*
X6169812Y-3842664D02*
G01*
X6234633Y-3842664D01*
X6234633Y-3777843D01*
X6226911Y-3781653D01*
X6213398Y-3790340D01*
X6201003Y-3800500D01*
X6189827Y-3811981D01*
X6180023Y-3824681D01*
X6171742Y-3838448D01*
G37*
G36*
X6549999Y-3800500D02*
G01*
X6566814Y-3799535D01*
X6583476Y-3796690D01*
X6599681Y-3792016D01*
X6615277Y-3785565D01*
X6630060Y-3777437D01*
X6643827Y-3767632D01*
X6656425Y-3756406D01*
X6667652Y-3743807D01*
X6677406Y-3730040D01*
X6685584Y-3715308D01*
X6692036Y-3699713D01*
X6696709Y-3683457D01*
X6699554Y-3666845D01*
X6700469Y-3649979D01*
X6699554Y-3633165D01*
X6696709Y-3616502D01*
X6692036Y-3600297D01*
X6685584Y-3584701D01*
X6677406Y-3569919D01*
X6667652Y-3556152D01*
X6656425Y-3543554D01*
X6643827Y-3532327D01*
X6630060Y-3522573D01*
X6615277Y-3514394D01*
X6599681Y-3507943D01*
X6583476Y-3503269D01*
X6566814Y-3500424D01*
X6549999Y-3499510D01*
X6533134Y-3500424D01*
X6516522Y-3503269D01*
X6500266Y-3507943D01*
X6484670Y-3514394D01*
X6469938Y-3522573D01*
X6456172Y-3532327D01*
X6443573Y-3543554D01*
X6432346Y-3556152D01*
X6422542Y-3569919D01*
X6414414Y-3584701D01*
X6407962Y-3600297D01*
X6403289Y-3616502D01*
X6400444Y-3633165D01*
X6399479Y-3649979D01*
X6400444Y-3666845D01*
X6403289Y-3683457D01*
X6407962Y-3699713D01*
X6414414Y-3715308D01*
X6422542Y-3730040D01*
X6432346Y-3743807D01*
X6443573Y-3756406D01*
X6456172Y-3767632D01*
X6469938Y-3777437D01*
X6484670Y-3785565D01*
X6500266Y-3792016D01*
X6516522Y-3796690D01*
X6533134Y-3799535D01*
G37*
G36*
X2750007Y-3746449D02*
G01*
X2761183Y-3745585D01*
X2772105Y-3742994D01*
X2782468Y-3738676D01*
X2792018Y-3732834D01*
X2800553Y-3725519D01*
X2807817Y-3717036D01*
X2813710Y-3707434D01*
X2817977Y-3697071D01*
X2820619Y-3686200D01*
X2821482Y-3675024D01*
X2820619Y-3663797D01*
X2817977Y-3652926D01*
X2813710Y-3642563D01*
X2807817Y-3632962D01*
X2800553Y-3624478D01*
X2792018Y-3617163D01*
X2782468Y-3611321D01*
X2772105Y-3607003D01*
X2761183Y-3604412D01*
X2750007Y-3603548D01*
X2738831Y-3604412D01*
X2727909Y-3607003D01*
X2717546Y-3611321D01*
X2707995Y-3617163D01*
X2699461Y-3624478D01*
X2692196Y-3632962D01*
X2686304Y-3642563D01*
X2682036Y-3652926D01*
X2679395Y-3663797D01*
X2678531Y-3675024D01*
X2679395Y-3686200D01*
X2682036Y-3697071D01*
X2686304Y-3707434D01*
X2692196Y-3717036D01*
X2699461Y-3725519D01*
X2707995Y-3732834D01*
X2717546Y-3738676D01*
X2727909Y-3742994D01*
X2738831Y-3745585D01*
G37*
G36*
X6357315Y-3522218D02*
G01*
X6368542Y-3516325D01*
X6381800Y-3507232D01*
X6393891Y-3496716D01*
X6404762Y-3484930D01*
X6414160Y-3471926D01*
X6422339Y-3457346D01*
X6357315Y-3457346D01*
G37*
G36*
X6865315Y-3522218D02*
G01*
X6876542Y-3516325D01*
X6889800Y-3507232D01*
X6901891Y-3496716D01*
X6912762Y-3484930D01*
X6922160Y-3471926D01*
X6930339Y-3457346D01*
X6865315Y-3457346D01*
G37*
G36*
X6742633Y-3522167D02*
G01*
X6742633Y-3457346D01*
X6677863Y-3457346D01*
X6681673Y-3465068D01*
X6690309Y-3478580D01*
X6700469Y-3490976D01*
X6712000Y-3502151D01*
X6724700Y-3511956D01*
X6738416Y-3520236D01*
G37*
G36*
X6234633Y-3522167D02*
G01*
X6234633Y-3457346D01*
X6169863Y-3457346D01*
X6173673Y-3465068D01*
X6182309Y-3478580D01*
X6192469Y-3490976D01*
X6204000Y-3502151D01*
X6216700Y-3511956D01*
X6230416Y-3520236D01*
G37*
G36*
X6677863Y-3334664D02*
G01*
X6742633Y-3334664D01*
X6742633Y-3269792D01*
X6738416Y-3271723D01*
X6724700Y-3280003D01*
X6712000Y-3289808D01*
X6700469Y-3300984D01*
X6690309Y-3313429D01*
X6681673Y-3326892D01*
G37*
G36*
X6169863Y-3334664D02*
G01*
X6234633Y-3334664D01*
X6234633Y-3269792D01*
X6230416Y-3271723D01*
X6216700Y-3280003D01*
X6204000Y-3289808D01*
X6192469Y-3300984D01*
X6182309Y-3313429D01*
X6173673Y-3326892D01*
G37*
G36*
X6865315Y-3334664D02*
G01*
X6930339Y-3334664D01*
X6922160Y-3320034D01*
X6912762Y-3307079D01*
X6901891Y-3295243D01*
X6889800Y-3284728D01*
X6876542Y-3275685D01*
X6865315Y-3269792D01*
G37*
G36*
X6357315Y-3334664D02*
G01*
X6422339Y-3334664D01*
X6414160Y-3320034D01*
X6404762Y-3307079D01*
X6393891Y-3295243D01*
X6381800Y-3284728D01*
X6368542Y-3275685D01*
X6357315Y-3269792D01*
G37*
G36*
X2769920Y-3311245D02*
G01*
X2780080Y-3311245D01*
X2790088Y-3309620D01*
X2799689Y-3306318D01*
X2808630Y-3301492D01*
X2816656Y-3295243D01*
X2823514Y-3287776D01*
X2829052Y-3279241D01*
X2833166Y-3269945D01*
X2835656Y-3260140D01*
X2836468Y-3250031D01*
X2835656Y-3239871D01*
X2833166Y-3230067D01*
X2829052Y-3220770D01*
X2823514Y-3212236D01*
X2816656Y-3204768D01*
X2808630Y-3198520D01*
X2799689Y-3193694D01*
X2790088Y-3190392D01*
X2780080Y-3188766D01*
X2769920Y-3188766D01*
X2759913Y-3190392D01*
X2750312Y-3193694D01*
X2741371Y-3198520D01*
X2733344Y-3204768D01*
X2726486Y-3212236D01*
X2720949Y-3220770D01*
X2716834Y-3230067D01*
X2714345Y-3239871D01*
X2713532Y-3250031D01*
X2714345Y-3260140D01*
X2716834Y-3269945D01*
X2720949Y-3279241D01*
X2726486Y-3287776D01*
X2733344Y-3295243D01*
X2741371Y-3301492D01*
X2750312Y-3306318D01*
X2759913Y-3309620D01*
G37*
G36*
X3019907Y-3311245D02*
G01*
X3030067Y-3311245D01*
X3040075Y-3309620D01*
X3049676Y-3306318D01*
X3058617Y-3301492D01*
X3066643Y-3295243D01*
X3073501Y-3287776D01*
X3079038Y-3279241D01*
X3083153Y-3269945D01*
X3085642Y-3260140D01*
X3086455Y-3250031D01*
X3085642Y-3239871D01*
X3083153Y-3230067D01*
X3079038Y-3220770D01*
X3073501Y-3212236D01*
X3066643Y-3204768D01*
X3058617Y-3198520D01*
X3049676Y-3193694D01*
X3040075Y-3190392D01*
X3030067Y-3188766D01*
X3019907Y-3188766D01*
X3009900Y-3190392D01*
X3000298Y-3193694D01*
X2991358Y-3198520D01*
X2983331Y-3204768D01*
X2976473Y-3212236D01*
X2970936Y-3220770D01*
X2966872Y-3230067D01*
X2964332Y-3239871D01*
X2963519Y-3250031D01*
X2964332Y-3260140D01*
X2966872Y-3269945D01*
X2970936Y-3279241D01*
X2976473Y-3287776D01*
X2983331Y-3295243D01*
X2991358Y-3301492D01*
X3000298Y-3306318D01*
X3009900Y-3309620D01*
G37*
G36*
X1744929Y-3311245D02*
G01*
X1755089Y-3311245D01*
X1765096Y-3309620D01*
X1774698Y-3306318D01*
X1783638Y-3301492D01*
X1791665Y-3295243D01*
X1798523Y-3287776D01*
X1804060Y-3279241D01*
X1808175Y-3269945D01*
X1810664Y-3260140D01*
X1811477Y-3250031D01*
X1810664Y-3239871D01*
X1808175Y-3230067D01*
X1804060Y-3220770D01*
X1798523Y-3212236D01*
X1791665Y-3204768D01*
X1783638Y-3198520D01*
X1774698Y-3193694D01*
X1765096Y-3190392D01*
X1755089Y-3188766D01*
X1744929Y-3188766D01*
X1734921Y-3190392D01*
X1725320Y-3193694D01*
X1716379Y-3198520D01*
X1708353Y-3204768D01*
X1701495Y-3212236D01*
X1695957Y-3220770D01*
X1691893Y-3230067D01*
X1689354Y-3239871D01*
X1688541Y-3250031D01*
X1689354Y-3260140D01*
X1691893Y-3269945D01*
X1695957Y-3279241D01*
X1701495Y-3287776D01*
X1708353Y-3295243D01*
X1716379Y-3301492D01*
X1725320Y-3306318D01*
X1734921Y-3309620D01*
G37*
G36*
X1494942Y-3311245D02*
G01*
X1505051Y-3311245D01*
X1515110Y-3309620D01*
X1524711Y-3306318D01*
X1533601Y-3301492D01*
X1541627Y-3295243D01*
X1548485Y-3287776D01*
X1554073Y-3279241D01*
X1558137Y-3269945D01*
X1560626Y-3260140D01*
X1561490Y-3250031D01*
X1560626Y-3239871D01*
X1558137Y-3230067D01*
X1554073Y-3220770D01*
X1548485Y-3212236D01*
X1541627Y-3204768D01*
X1533601Y-3198520D01*
X1524711Y-3193694D01*
X1515110Y-3190392D01*
X1505051Y-3188766D01*
X1494942Y-3188766D01*
X1484884Y-3190392D01*
X1475282Y-3193694D01*
X1466392Y-3198520D01*
X1458366Y-3204768D01*
X1451508Y-3212236D01*
X1445920Y-3220770D01*
X1441856Y-3230067D01*
X1439367Y-3239871D01*
X1438503Y-3250031D01*
X1439367Y-3260140D01*
X1441856Y-3269945D01*
X1445920Y-3279241D01*
X1451508Y-3287776D01*
X1458366Y-3295243D01*
X1466392Y-3301492D01*
X1475282Y-3306318D01*
X1484884Y-3309620D01*
G37*
G36*
X1244955Y-3311245D02*
G01*
X1255064Y-3311245D01*
X1265123Y-3309620D01*
X1274724Y-3306318D01*
X1283614Y-3301492D01*
X1291640Y-3295243D01*
X1298498Y-3287776D01*
X1304086Y-3279241D01*
X1308150Y-3269945D01*
X1310640Y-3260140D01*
X1311503Y-3250031D01*
X1310640Y-3239871D01*
X1308150Y-3230067D01*
X1304086Y-3220770D01*
X1298498Y-3212236D01*
X1291640Y-3204768D01*
X1283614Y-3198520D01*
X1274724Y-3193694D01*
X1265123Y-3190392D01*
X1255064Y-3188766D01*
X1244955Y-3188766D01*
X1234897Y-3190392D01*
X1225296Y-3193694D01*
X1216406Y-3198520D01*
X1208379Y-3204768D01*
X1201521Y-3212236D01*
X1195933Y-3220770D01*
X1191869Y-3230067D01*
X1189380Y-3239871D01*
X1188516Y-3250031D01*
X1189380Y-3260140D01*
X1191869Y-3269945D01*
X1195933Y-3279241D01*
X1201521Y-3287776D01*
X1208379Y-3295243D01*
X1216406Y-3301492D01*
X1225296Y-3306318D01*
X1234897Y-3309620D01*
G37*
G36*
X994918Y-3311245D02*
G01*
X1005078Y-3311245D01*
X1015085Y-3309620D01*
X1024686Y-3306318D01*
X1033627Y-3301492D01*
X1041653Y-3295243D01*
X1048512Y-3287776D01*
X1054049Y-3279241D01*
X1058164Y-3269945D01*
X1060653Y-3260140D01*
X1061466Y-3250031D01*
X1060653Y-3239871D01*
X1058164Y-3230067D01*
X1054049Y-3220770D01*
X1048512Y-3212236D01*
X1041653Y-3204768D01*
X1033627Y-3198520D01*
X1024686Y-3193694D01*
X1015085Y-3190392D01*
X1005078Y-3188766D01*
X994918Y-3188766D01*
X984910Y-3190392D01*
X975309Y-3193694D01*
X966368Y-3198520D01*
X958342Y-3204768D01*
X951484Y-3212236D01*
X945946Y-3220770D01*
X941882Y-3230067D01*
X939342Y-3239871D01*
X938530Y-3250031D01*
X939342Y-3260140D01*
X941882Y-3269945D01*
X945946Y-3279241D01*
X951484Y-3287776D01*
X958342Y-3295243D01*
X966368Y-3301492D01*
X975309Y-3306318D01*
X984910Y-3309620D01*
G37*
G36*
X6590436Y-3016504D02*
G01*
X6759549Y-3016504D01*
X6768744Y-3015691D01*
X6777228Y-3013405D01*
X6785203Y-3009696D01*
X6792417Y-3004667D01*
X6798665Y-2998419D01*
X6803694Y-2991205D01*
X6807403Y-2983280D01*
X6809689Y-2974746D01*
X6810502Y-2965551D01*
X6810502Y-2796438D01*
X6809689Y-2787243D01*
X6807403Y-2778709D01*
X6803694Y-2770784D01*
X6798665Y-2763570D01*
X6792417Y-2757322D01*
X6785203Y-2752293D01*
X6777228Y-2748584D01*
X6768744Y-2746298D01*
X6759549Y-2745486D01*
X6738366Y-2745486D01*
X6734098Y-2744571D01*
X6730644Y-2741980D01*
X6728612Y-2738170D01*
X6728307Y-2733852D01*
X6729831Y-2729788D01*
X6732879Y-2726740D01*
X6742887Y-2720441D01*
X6754063Y-2711196D01*
X6763969Y-2700629D01*
X6772503Y-2688894D01*
X6779615Y-2675839D01*
X6723837Y-2675839D01*
X6723837Y-2735326D01*
X6723075Y-2739237D01*
X6720840Y-2742488D01*
X6717588Y-2744724D01*
X6713677Y-2745486D01*
X6636308Y-2745486D01*
X6632397Y-2744724D01*
X6629095Y-2742488D01*
X6626910Y-2739237D01*
X6626148Y-2735326D01*
X6626148Y-2675839D01*
X6570370Y-2675839D01*
X6577482Y-2688894D01*
X6586016Y-2700629D01*
X6595922Y-2711196D01*
X6607098Y-2720441D01*
X6617055Y-2726740D01*
X6620154Y-2729788D01*
X6621678Y-2733852D01*
X6621373Y-2738170D01*
X6619341Y-2741980D01*
X6615836Y-2744571D01*
X6611620Y-2745486D01*
X6590436Y-2745486D01*
X6581241Y-2746298D01*
X6572707Y-2748584D01*
X6564731Y-2752293D01*
X6557568Y-2757322D01*
X6551320Y-2763570D01*
X6546291Y-2770784D01*
X6542582Y-2778709D01*
X6540296Y-2787243D01*
X6539484Y-2796438D01*
X6539484Y-2965551D01*
X6540296Y-2974746D01*
X6542582Y-2983280D01*
X6546291Y-2991205D01*
X6551320Y-2998419D01*
X6557568Y-3004667D01*
X6564731Y-3009696D01*
X6572707Y-3013405D01*
X6581241Y-3015691D01*
G37*
G36*
X6723837Y-2578150D02*
G01*
X6779615Y-2578150D01*
X6772503Y-2565095D01*
X6763969Y-2553360D01*
X6754063Y-2542794D01*
X6742887Y-2533548D01*
X6730644Y-2525776D01*
X6723837Y-2522626D01*
G37*
G36*
X6570370Y-2578150D02*
G01*
X6626148Y-2578150D01*
X6626148Y-2522626D01*
X6619341Y-2525776D01*
X6607098Y-2533548D01*
X6595922Y-2542794D01*
X6586016Y-2553360D01*
X6577482Y-2565095D01*
G37*
G36*
X6626148Y-2477363D02*
G01*
X6626148Y-2421839D01*
X6570370Y-2421839D01*
X6577482Y-2434894D01*
X6586016Y-2446629D01*
X6595922Y-2457196D01*
X6607098Y-2466441D01*
X6619341Y-2474214D01*
G37*
G36*
X6723837Y-2477363D02*
G01*
X6730644Y-2474214D01*
X6742887Y-2466441D01*
X6754063Y-2457196D01*
X6763969Y-2446629D01*
X6772503Y-2434894D01*
X6779615Y-2421839D01*
X6723837Y-2421839D01*
G37*
G36*
X6570370Y-2324150D02*
G01*
X6626148Y-2324150D01*
X6626148Y-2268626D01*
X6619341Y-2271776D01*
X6607098Y-2279548D01*
X6595922Y-2288794D01*
X6586016Y-2299360D01*
X6577482Y-2311095D01*
G37*
G36*
X6723837Y-2324150D02*
G01*
X6779615Y-2324150D01*
X6772503Y-2311095D01*
X6763969Y-2299360D01*
X6754063Y-2288794D01*
X6742887Y-2279548D01*
X6730644Y-2271776D01*
X6723837Y-2268626D01*
G37*
G36*
X6674967Y-2234488D02*
G01*
X6689445Y-2233574D01*
X6703720Y-2230831D01*
X6717487Y-2226360D01*
X6730644Y-2220214D01*
X6742887Y-2212441D01*
X6754063Y-2203196D01*
X6763969Y-2192629D01*
X6772503Y-2180894D01*
X6779463Y-2168144D01*
X6784797Y-2154682D01*
X6788403Y-2140610D01*
X6790232Y-2126234D01*
X6790232Y-2111756D01*
X6788403Y-2097379D01*
X6784797Y-2083307D01*
X6779463Y-2069846D01*
X6772503Y-2057095D01*
X6763969Y-2045360D01*
X6754063Y-2034793D01*
X6742887Y-2025548D01*
X6730644Y-2017775D01*
X6717487Y-2011629D01*
X6703720Y-2007158D01*
X6689445Y-2004415D01*
X6674967Y-2003501D01*
X6660489Y-2004415D01*
X6646265Y-2007158D01*
X6632498Y-2011629D01*
X6619341Y-2017775D01*
X6607098Y-2025548D01*
X6595922Y-2034793D01*
X6586016Y-2045360D01*
X6577482Y-2057095D01*
X6570472Y-2069846D01*
X6565138Y-2083307D01*
X6561531Y-2097379D01*
X6559753Y-2111756D01*
X6559753Y-2126234D01*
X6561531Y-2140610D01*
X6565138Y-2154682D01*
X6570472Y-2168144D01*
X6577482Y-2180894D01*
X6586016Y-2192629D01*
X6595922Y-2203196D01*
X6607098Y-2212441D01*
X6619341Y-2220214D01*
X6632498Y-2226360D01*
X6646265Y-2230831D01*
X6660489Y-2233574D01*
G37*
G36*
X500024Y-1846478D02*
G01*
X511200Y-1845614D01*
X522071Y-1842973D01*
X532434Y-1838706D01*
X542036Y-1832813D01*
X550519Y-1825548D01*
X557834Y-1817014D01*
X563676Y-1807464D01*
X567994Y-1797100D01*
X570585Y-1786178D01*
X571449Y-1775002D01*
X570585Y-1763826D01*
X567994Y-1752904D01*
X563676Y-1742541D01*
X557834Y-1732991D01*
X550519Y-1724456D01*
X542036Y-1717192D01*
X532434Y-1711299D01*
X522071Y-1707032D01*
X511200Y-1704390D01*
X500024Y-1703527D01*
X488797Y-1704390D01*
X477926Y-1707032D01*
X467563Y-1711299D01*
X457962Y-1717192D01*
X449478Y-1724456D01*
X442163Y-1732991D01*
X436321Y-1742541D01*
X432003Y-1752904D01*
X429412Y-1763826D01*
X428548Y-1775002D01*
X429412Y-1786178D01*
X432003Y-1797100D01*
X436321Y-1807464D01*
X442163Y-1817014D01*
X449478Y-1825548D01*
X457962Y-1832813D01*
X467563Y-1838706D01*
X477926Y-1842973D01*
X488797Y-1845614D01*
G37*
G36*
X5119928Y-1836267D02*
G01*
X5130038Y-1836267D01*
X5140096Y-1834591D01*
X5149697Y-1831289D01*
X5158587Y-1826463D01*
X5166614Y-1820214D01*
X5173472Y-1812747D01*
X5179060Y-1804263D01*
X5183124Y-1794967D01*
X5185613Y-1785112D01*
X5186476Y-1775002D01*
X5185613Y-1764893D01*
X5183124Y-1755038D01*
X5179060Y-1745742D01*
X5173472Y-1737258D01*
X5166614Y-1729790D01*
X5158587Y-1723542D01*
X5149697Y-1718716D01*
X5140096Y-1715414D01*
X5130038Y-1713738D01*
X5119928Y-1713738D01*
X5109870Y-1715414D01*
X5100269Y-1718716D01*
X5091379Y-1723542D01*
X5083352Y-1729790D01*
X5076494Y-1737258D01*
X5070906Y-1745742D01*
X5066842Y-1755038D01*
X5064353Y-1764893D01*
X5063490Y-1775002D01*
X5064353Y-1785112D01*
X5066842Y-1794967D01*
X5070906Y-1804263D01*
X5076494Y-1812747D01*
X5083352Y-1820214D01*
X5091379Y-1826463D01*
X5100269Y-1831289D01*
X5109870Y-1834591D01*
G37*
G36*
X1994916Y-1836267D02*
G01*
X2005075Y-1836267D01*
X2015083Y-1834591D01*
X2024684Y-1831289D01*
X2033625Y-1826463D01*
X2041652Y-1820214D01*
X2048510Y-1812747D01*
X2054047Y-1804263D01*
X2058162Y-1794967D01*
X2060651Y-1785112D01*
X2061464Y-1775002D01*
X2060651Y-1764893D01*
X2058162Y-1755038D01*
X2054047Y-1745742D01*
X2048510Y-1737258D01*
X2041652Y-1729790D01*
X2033625Y-1723542D01*
X2024684Y-1718716D01*
X2015083Y-1715414D01*
X2005075Y-1713738D01*
X1994916Y-1713738D01*
X1984908Y-1715414D01*
X1975307Y-1718716D01*
X1966366Y-1723542D01*
X1958339Y-1729790D01*
X1951482Y-1737258D01*
X1945944Y-1745742D01*
X1941880Y-1755038D01*
X1939340Y-1764893D01*
X1938528Y-1775002D01*
X1939340Y-1785112D01*
X1941880Y-1794967D01*
X1945944Y-1804263D01*
X1951482Y-1812747D01*
X1958339Y-1820214D01*
X1966366Y-1826463D01*
X1975307Y-1831289D01*
X1984908Y-1834591D01*
G37*
G36*
X6357315Y-1730349D02*
G01*
X6371945Y-1722170D01*
X6384899Y-1712772D01*
X6396736Y-1701901D01*
X6407251Y-1689811D01*
X6416294Y-1676552D01*
X6422186Y-1665325D01*
X6357315Y-1665325D01*
G37*
G36*
X6865315Y-1730349D02*
G01*
X6879945Y-1722170D01*
X6892899Y-1712772D01*
X6904736Y-1701901D01*
X6915251Y-1689811D01*
X6924294Y-1676552D01*
X6930186Y-1665325D01*
X6865315Y-1665325D01*
G37*
G36*
X6742633Y-1730349D02*
G01*
X6742633Y-1665325D01*
X6677761Y-1665325D01*
X6683654Y-1676552D01*
X6692747Y-1689811D01*
X6703263Y-1701901D01*
X6715048Y-1712772D01*
X6728053Y-1722170D01*
G37*
G36*
X6234633Y-1730349D02*
G01*
X6234633Y-1665325D01*
X6169761Y-1665325D01*
X6175654Y-1676552D01*
X6184747Y-1689811D01*
X6195263Y-1701901D01*
X6207048Y-1712772D01*
X6220053Y-1722170D01*
G37*
G36*
X5669940Y-1686255D02*
G01*
X5680049Y-1686255D01*
X5690108Y-1684578D01*
X5699709Y-1681276D01*
X5708599Y-1676450D01*
X5716625Y-1670202D01*
X5723483Y-1662734D01*
X5729071Y-1654251D01*
X5733135Y-1644954D01*
X5735624Y-1635099D01*
X5736488Y-1624990D01*
X5735624Y-1614881D01*
X5733135Y-1605026D01*
X5729071Y-1595729D01*
X5723483Y-1587246D01*
X5716625Y-1579778D01*
X5708599Y-1573530D01*
X5699709Y-1568704D01*
X5690108Y-1565402D01*
X5680049Y-1563725D01*
X5669940Y-1563725D01*
X5659882Y-1565402D01*
X5650280Y-1568704D01*
X5641390Y-1573530D01*
X5633364Y-1579778D01*
X5626506Y-1587246D01*
X5620918Y-1595729D01*
X5616854Y-1605026D01*
X5614365Y-1614881D01*
X5613501Y-1624990D01*
X5614365Y-1635099D01*
X5616854Y-1644954D01*
X5620918Y-1654251D01*
X5626506Y-1662734D01*
X5633364Y-1670202D01*
X5641390Y-1676450D01*
X5650280Y-1681276D01*
X5659882Y-1684578D01*
G37*
G36*
X6357315Y-1542643D02*
G01*
X6422186Y-1542643D01*
X6420256Y-1538427D01*
X6411976Y-1524711D01*
X6402171Y-1512011D01*
X6390995Y-1500479D01*
X6378549Y-1490319D01*
X6365087Y-1481683D01*
X6357315Y-1477873D01*
G37*
G36*
X6865315Y-1542643D02*
G01*
X6930186Y-1542643D01*
X6928256Y-1538427D01*
X6919975Y-1524711D01*
X6910171Y-1512011D01*
X6898995Y-1500479D01*
X6886549Y-1490319D01*
X6873087Y-1481683D01*
X6865315Y-1477873D01*
G37*
G36*
X6677812Y-1542643D02*
G01*
X6742633Y-1542643D01*
X6742633Y-1477873D01*
X6734911Y-1481683D01*
X6721398Y-1490319D01*
X6709003Y-1500479D01*
X6697827Y-1512011D01*
X6688023Y-1524711D01*
X6679742Y-1538427D01*
G37*
G36*
X6169812Y-1542643D02*
G01*
X6234633Y-1542643D01*
X6234633Y-1477873D01*
X6226911Y-1481683D01*
X6213398Y-1490319D01*
X6201003Y-1500479D01*
X6189827Y-1512011D01*
X6180023Y-1524711D01*
X6171742Y-1538427D01*
G37*
G36*
X6553860Y-1480413D02*
G01*
X6569252Y-1479042D01*
X6584391Y-1475892D01*
X6599021Y-1470914D01*
X6612991Y-1464259D01*
X6626047Y-1456029D01*
X6638086Y-1446276D01*
X6648856Y-1435201D01*
X6658203Y-1422908D01*
X6666077Y-1409598D01*
X6672325Y-1395425D01*
X6676847Y-1380642D01*
X6679539Y-1365453D01*
X6680453Y-1350010D01*
X6679539Y-1334566D01*
X6676847Y-1319326D01*
X6672325Y-1304544D01*
X6666077Y-1290421D01*
X6658203Y-1277112D01*
X6648856Y-1264818D01*
X6638086Y-1253744D01*
X6626047Y-1243990D01*
X6612991Y-1235710D01*
X6599021Y-1229055D01*
X6584391Y-1224127D01*
X6569252Y-1220927D01*
X6553860Y-1219555D01*
X6538417Y-1220012D01*
X6523126Y-1222298D01*
X6508191Y-1226362D01*
X6493865Y-1232204D01*
X6480352Y-1239672D01*
X6467754Y-1248664D01*
X6456375Y-1259128D01*
X6446266Y-1270812D01*
X6437630Y-1283665D01*
X6430568Y-1297381D01*
X6425184Y-1311910D01*
X6421577Y-1326896D01*
X6419748Y-1342288D01*
X6419748Y-1357731D01*
X6421577Y-1373073D01*
X6425184Y-1388110D01*
X6430568Y-1402588D01*
X6437630Y-1416354D01*
X6446266Y-1429156D01*
X6456375Y-1440891D01*
X6467754Y-1451305D01*
X6480352Y-1460347D01*
X6493865Y-1467815D01*
X6508191Y-1473606D01*
X6523126Y-1477670D01*
X6538417Y-1479956D01*
G37*
G36*
X2519934Y-1411274D02*
G01*
X2530043Y-1411274D01*
X2540101Y-1409598D01*
X2549702Y-1406296D01*
X2558592Y-1401470D01*
X2566619Y-1395222D01*
X2573477Y-1387754D01*
X2579065Y-1379270D01*
X2583129Y-1369974D01*
X2585618Y-1360119D01*
X2586482Y-1350010D01*
X2585618Y-1339900D01*
X2583129Y-1330045D01*
X2579065Y-1320749D01*
X2573477Y-1312265D01*
X2566619Y-1304798D01*
X2558592Y-1298549D01*
X2549702Y-1293723D01*
X2540101Y-1290421D01*
X2530043Y-1288745D01*
X2519934Y-1288745D01*
X2509875Y-1290421D01*
X2500274Y-1293723D01*
X2491384Y-1298549D01*
X2483358Y-1304798D01*
X2476500Y-1312265D01*
X2470912Y-1320749D01*
X2466848Y-1330045D01*
X2464358Y-1339900D01*
X2463495Y-1350010D01*
X2464358Y-1360119D01*
X2466848Y-1369974D01*
X2470912Y-1379270D01*
X2476500Y-1387754D01*
X2483358Y-1395222D01*
X2491384Y-1401470D01*
X2500274Y-1406296D01*
X2509875Y-1409598D01*
G37*
G36*
X5725007Y-1296466D02*
G01*
X5736183Y-1295603D01*
X5747054Y-1292961D01*
X5757418Y-1288694D01*
X5767019Y-1282801D01*
X5775502Y-1275537D01*
X5782818Y-1267002D01*
X5788660Y-1257452D01*
X5792978Y-1247089D01*
X5795568Y-1236167D01*
X5796432Y-1224991D01*
X5795568Y-1213815D01*
X5792978Y-1202893D01*
X5788660Y-1192530D01*
X5782818Y-1182979D01*
X5775502Y-1174445D01*
X5767019Y-1167180D01*
X5757418Y-1161288D01*
X5747054Y-1157020D01*
X5736183Y-1154379D01*
X5725007Y-1153515D01*
X5713780Y-1154379D01*
X5702909Y-1157020D01*
X5692546Y-1161288D01*
X5682945Y-1167180D01*
X5674461Y-1174445D01*
X5667146Y-1182979D01*
X5661304Y-1192530D01*
X5656986Y-1202893D01*
X5654395Y-1213815D01*
X5653532Y-1224991D01*
X5654395Y-1236167D01*
X5656986Y-1247089D01*
X5661304Y-1257452D01*
X5667146Y-1267002D01*
X5674461Y-1275537D01*
X5682945Y-1282801D01*
X5692546Y-1288694D01*
X5702909Y-1292961D01*
X5713780Y-1295603D01*
G37*
G36*
X654761Y-1259230D02*
G01*
X687273Y-1259230D01*
X687273Y-1195730D01*
X623773Y-1195730D01*
X623773Y-1228242D01*
X624382Y-1234694D01*
X626110Y-1240383D01*
X628954Y-1245666D01*
X632714Y-1250289D01*
X637336Y-1254048D01*
X642620Y-1256893D01*
X648309Y-1258620D01*
G37*
G36*
X778713Y-1259230D02*
G01*
X811225Y-1259230D01*
X817676Y-1258620D01*
X823417Y-1256893D01*
X828649Y-1254048D01*
X833272Y-1250289D01*
X837082Y-1245666D01*
X839876Y-1240383D01*
X841603Y-1234694D01*
X842264Y-1228242D01*
X842264Y-1195730D01*
X778713Y-1195730D01*
G37*
G36*
X400761Y-1259230D02*
G01*
X557225Y-1259230D01*
X563676Y-1258620D01*
X569417Y-1256893D01*
X574649Y-1254048D01*
X579272Y-1250289D01*
X583082Y-1245666D01*
X585876Y-1240383D01*
X587603Y-1234694D01*
X588264Y-1228242D01*
X588264Y-1071778D01*
X587603Y-1065326D01*
X585876Y-1059586D01*
X583082Y-1054354D01*
X579272Y-1049731D01*
X574649Y-1045921D01*
X569417Y-1043127D01*
X563676Y-1041400D01*
X557225Y-1040739D01*
X400761Y-1040739D01*
X394309Y-1041400D01*
X388620Y-1043127D01*
X383336Y-1045921D01*
X378714Y-1049731D01*
X374954Y-1054354D01*
X372110Y-1059586D01*
X370382Y-1065326D01*
X369773Y-1071778D01*
X369773Y-1228242D01*
X370382Y-1234694D01*
X372110Y-1240383D01*
X374954Y-1245666D01*
X378714Y-1250289D01*
X383336Y-1254048D01*
X388620Y-1256893D01*
X394309Y-1258620D01*
G37*
G36*
X146761Y-1259230D02*
G01*
X303225Y-1259230D01*
X309676Y-1258620D01*
X315417Y-1256893D01*
X320649Y-1254048D01*
X325272Y-1250289D01*
X329082Y-1245666D01*
X331876Y-1240383D01*
X333603Y-1234694D01*
X334264Y-1228242D01*
X334264Y-1071778D01*
X333603Y-1065326D01*
X331876Y-1059586D01*
X329082Y-1054354D01*
X325272Y-1049731D01*
X320649Y-1045921D01*
X315417Y-1043127D01*
X309676Y-1041400D01*
X303225Y-1040739D01*
X146761Y-1040739D01*
X140309Y-1041400D01*
X134620Y-1043127D01*
X129336Y-1045921D01*
X124714Y-1049731D01*
X120954Y-1054354D01*
X118110Y-1059586D01*
X116382Y-1065326D01*
X115773Y-1071778D01*
X115773Y-1228242D01*
X116382Y-1234694D01*
X118110Y-1240383D01*
X120954Y-1245666D01*
X124714Y-1250289D01*
X129336Y-1254048D01*
X134620Y-1256893D01*
X140309Y-1258620D01*
G37*
G36*
X6742633Y-1222197D02*
G01*
X6742633Y-1157325D01*
X6677863Y-1157325D01*
X6681673Y-1165098D01*
X6690309Y-1178560D01*
X6700469Y-1191006D01*
X6712000Y-1202182D01*
X6724700Y-1211986D01*
X6738416Y-1220266D01*
G37*
G36*
X6234633Y-1222197D02*
G01*
X6234633Y-1157325D01*
X6169863Y-1157325D01*
X6173673Y-1165098D01*
X6182309Y-1178560D01*
X6192469Y-1191006D01*
X6204000Y-1202182D01*
X6216700Y-1211986D01*
X6230416Y-1220266D01*
G37*
G36*
X6865315Y-1222197D02*
G01*
X6876542Y-1216304D01*
X6889800Y-1207262D01*
X6901891Y-1196746D01*
X6912762Y-1184910D01*
X6922160Y-1171956D01*
X6930339Y-1157325D01*
X6865315Y-1157325D01*
G37*
G36*
X6357315Y-1222197D02*
G01*
X6368542Y-1216304D01*
X6381800Y-1207262D01*
X6393891Y-1196746D01*
X6404762Y-1184910D01*
X6414160Y-1171956D01*
X6422339Y-1157325D01*
X6357315Y-1157325D01*
G37*
G36*
X3750005Y-1221486D02*
G01*
X3761181Y-1220622D01*
X3772103Y-1217980D01*
X3782466Y-1213713D01*
X3792016Y-1207820D01*
X3800551Y-1200556D01*
X3807815Y-1192022D01*
X3813708Y-1182471D01*
X3817975Y-1172108D01*
X3820617Y-1161186D01*
X3821480Y-1150010D01*
X3820617Y-1138834D01*
X3817975Y-1127912D01*
X3813708Y-1117549D01*
X3807815Y-1107998D01*
X3800551Y-1099464D01*
X3792016Y-1092200D01*
X3782466Y-1086307D01*
X3772103Y-1082040D01*
X3761181Y-1079398D01*
X3750005Y-1078534D01*
X3738829Y-1079398D01*
X3727907Y-1082040D01*
X3717544Y-1086307D01*
X3707993Y-1092200D01*
X3699459Y-1099464D01*
X3692194Y-1107998D01*
X3686301Y-1117549D01*
X3682034Y-1127912D01*
X3679393Y-1138834D01*
X3678529Y-1150010D01*
X3679393Y-1161186D01*
X3682034Y-1172108D01*
X3686301Y-1182471D01*
X3692194Y-1192022D01*
X3699459Y-1200556D01*
X3707993Y-1207820D01*
X3717544Y-1213713D01*
X3727907Y-1217980D01*
X3738829Y-1220622D01*
G37*
G36*
X623773Y-1104290D02*
G01*
X687273Y-1104290D01*
X687273Y-1040739D01*
X654761Y-1040739D01*
X648309Y-1041400D01*
X642620Y-1043127D01*
X637336Y-1045921D01*
X632714Y-1049731D01*
X628954Y-1054354D01*
X626110Y-1059586D01*
X624382Y-1065326D01*
X623773Y-1071778D01*
G37*
G36*
X778713Y-1104290D02*
G01*
X842264Y-1104290D01*
X842264Y-1071778D01*
X841603Y-1065326D01*
X839876Y-1059586D01*
X837082Y-1054354D01*
X833272Y-1049731D01*
X828649Y-1045921D01*
X823417Y-1043127D01*
X817676Y-1041400D01*
X811225Y-1040739D01*
X778713Y-1040739D01*
G37*
G36*
X5819902Y-1061262D02*
G01*
X5830062Y-1061262D01*
X5840069Y-1059586D01*
X5849670Y-1056284D01*
X5858611Y-1051458D01*
X5866638Y-1045210D01*
X5873496Y-1037742D01*
X5879033Y-1029258D01*
X5883148Y-1019962D01*
X5885637Y-1010107D01*
X5886450Y-999998D01*
X5885637Y-989888D01*
X5883148Y-980033D01*
X5879033Y-970737D01*
X5873496Y-962253D01*
X5866638Y-954786D01*
X5858611Y-948537D01*
X5849670Y-943711D01*
X5840069Y-940409D01*
X5830062Y-938733D01*
X5819902Y-938733D01*
X5809894Y-940409D01*
X5800293Y-943711D01*
X5791352Y-948537D01*
X5783326Y-954786D01*
X5776468Y-962253D01*
X5770930Y-970737D01*
X5766866Y-980033D01*
X5764326Y-989888D01*
X5763514Y-999998D01*
X5764326Y-1010107D01*
X5766866Y-1019962D01*
X5770930Y-1029258D01*
X5776468Y-1037742D01*
X5783326Y-1045210D01*
X5791352Y-1051458D01*
X5800293Y-1056284D01*
X5809894Y-1059586D01*
G37*
G36*
X6169863Y-1034643D02*
G01*
X6234633Y-1034643D01*
X6234633Y-969822D01*
X6230416Y-971753D01*
X6216700Y-980033D01*
X6204000Y-989837D01*
X6192469Y-1001014D01*
X6182309Y-1013409D01*
X6173673Y-1026921D01*
G37*
G36*
X6677863Y-1034643D02*
G01*
X6742633Y-1034643D01*
X6742633Y-969822D01*
X6738416Y-971753D01*
X6724700Y-980033D01*
X6712000Y-989837D01*
X6700469Y-1001014D01*
X6690309Y-1013409D01*
X6681673Y-1026921D01*
G37*
G36*
X6357315Y-1034643D02*
G01*
X6422339Y-1034643D01*
X6414160Y-1020064D01*
X6404762Y-1007059D01*
X6393891Y-995273D01*
X6381800Y-984758D01*
X6368542Y-975664D01*
X6357315Y-969771D01*
G37*
G36*
X6865315Y-1034643D02*
G01*
X6930339Y-1034643D01*
X6922160Y-1020064D01*
X6912762Y-1007059D01*
X6901891Y-995273D01*
X6889800Y-984758D01*
X6876542Y-975664D01*
X6865315Y-969771D01*
G37*
G36*
X3919931Y-1011275D02*
G01*
X3930040Y-1011275D01*
X3940098Y-1009599D01*
X3949700Y-1006297D01*
X3958590Y-1001471D01*
X3966616Y-995222D01*
X3973474Y-987755D01*
X3979062Y-979271D01*
X3983126Y-969975D01*
X3985615Y-960119D01*
X3986479Y-950010D01*
X3985615Y-939901D01*
X3983126Y-930046D01*
X3979062Y-920750D01*
X3973474Y-912266D01*
X3966616Y-904798D01*
X3958590Y-898550D01*
X3949700Y-893724D01*
X3940098Y-890422D01*
X3930040Y-888746D01*
X3919931Y-888746D01*
X3909872Y-890422D01*
X3900271Y-893724D01*
X3891381Y-898550D01*
X3883355Y-904798D01*
X3876497Y-912266D01*
X3870909Y-920750D01*
X3866845Y-930046D01*
X3864356Y-939901D01*
X3863492Y-950010D01*
X3864356Y-960119D01*
X3866845Y-969975D01*
X3870909Y-979271D01*
X3876497Y-987755D01*
X3883355Y-995222D01*
X3891381Y-1001471D01*
X3900271Y-1006297D01*
X3909872Y-1009599D01*
G37*
G36*
X5350002Y-971448D02*
G01*
X5361178Y-970584D01*
X5372100Y-967994D01*
X5382463Y-963676D01*
X5392013Y-957834D01*
X5400548Y-950518D01*
X5407812Y-942035D01*
X5413705Y-932434D01*
X5417972Y-922070D01*
X5420614Y-911199D01*
X5421477Y-900023D01*
X5420614Y-888796D01*
X5417972Y-877925D01*
X5413705Y-867562D01*
X5407812Y-857961D01*
X5400548Y-849477D01*
X5392013Y-842162D01*
X5382463Y-836320D01*
X5372100Y-832002D01*
X5361178Y-829411D01*
X5350002Y-828548D01*
X5338826Y-829411D01*
X5327904Y-832002D01*
X5317540Y-836320D01*
X5307990Y-842162D01*
X5299456Y-849477D01*
X5292191Y-857961D01*
X5286298Y-867562D01*
X5282031Y-877925D01*
X5279390Y-888796D01*
X5278526Y-900023D01*
X5279390Y-911199D01*
X5282031Y-922070D01*
X5286298Y-932434D01*
X5292191Y-942035D01*
X5299456Y-950518D01*
X5307990Y-957834D01*
X5317540Y-963676D01*
X5327904Y-967994D01*
X5338826Y-970584D01*
G37*
G36*
X5069941Y-961237D02*
G01*
X5080050Y-961237D01*
X5090109Y-959612D01*
X5099710Y-956310D01*
X5108600Y-951484D01*
X5116626Y-945235D01*
X5123484Y-937768D01*
X5129072Y-929233D01*
X5133136Y-919937D01*
X5135626Y-910132D01*
X5136489Y-900023D01*
X5135626Y-889863D01*
X5133136Y-880059D01*
X5129072Y-870762D01*
X5123484Y-862228D01*
X5116626Y-854760D01*
X5108600Y-848512D01*
X5099710Y-843686D01*
X5090109Y-840384D01*
X5080050Y-838758D01*
X5069941Y-838758D01*
X5059883Y-840384D01*
X5050282Y-843686D01*
X5041392Y-848512D01*
X5033365Y-854760D01*
X5026507Y-862228D01*
X5020919Y-870762D01*
X5016855Y-880059D01*
X5014366Y-889863D01*
X5013502Y-900023D01*
X5014366Y-910132D01*
X5016855Y-919937D01*
X5020919Y-929233D01*
X5026507Y-937768D01*
X5033365Y-945235D01*
X5041392Y-951484D01*
X5050282Y-956310D01*
X5059883Y-959612D01*
G37*
G36*
X1650034Y-721461D02*
G01*
X1661210Y-720598D01*
X1672082Y-718007D01*
X1682445Y-713689D01*
X1692046Y-707847D01*
X1700530Y-700532D01*
X1707845Y-692048D01*
X1713687Y-682447D01*
X1718005Y-672084D01*
X1720596Y-661212D01*
X1721459Y-650036D01*
X1720596Y-638810D01*
X1718005Y-627938D01*
X1713687Y-617575D01*
X1707845Y-607974D01*
X1700530Y-599490D01*
X1692046Y-592175D01*
X1682445Y-586333D01*
X1672082Y-582015D01*
X1661210Y-579424D01*
X1650034Y-578561D01*
X1638807Y-579424D01*
X1627936Y-582015D01*
X1617573Y-586333D01*
X1607972Y-592175D01*
X1599488Y-599490D01*
X1592173Y-607974D01*
X1586331Y-617575D01*
X1582013Y-627938D01*
X1579422Y-638810D01*
X1578559Y-650036D01*
X1579422Y-661212D01*
X1582013Y-672084D01*
X1586331Y-682447D01*
X1592173Y-692048D01*
X1599488Y-700532D01*
X1607972Y-707847D01*
X1617573Y-713689D01*
X1627936Y-718007D01*
X1638807Y-720598D01*
G37*
G36*
X4096004Y-706678D02*
G01*
X4109923Y-705764D01*
X4123639Y-703072D01*
X4136847Y-698550D01*
X4149344Y-692404D01*
X4160926Y-684631D01*
X4171442Y-675436D01*
X4180636Y-664921D01*
X4188409Y-653338D01*
X4194556Y-640842D01*
X4199077Y-627634D01*
X4201769Y-613918D01*
X4202684Y-599998D01*
X4201769Y-586079D01*
X4199077Y-572414D01*
X4194556Y-559155D01*
X4188409Y-546658D01*
X4180636Y-535076D01*
X4171442Y-524560D01*
X4160926Y-515366D01*
X4149344Y-507593D01*
X4136847Y-501446D01*
X4123639Y-496976D01*
X4109923Y-494233D01*
X4096004Y-493318D01*
X4082084Y-494233D01*
X4068368Y-496976D01*
X4055160Y-501446D01*
X4042664Y-507593D01*
X4031081Y-515366D01*
X4020565Y-524560D01*
X4011371Y-535076D01*
X4003598Y-546658D01*
X3997451Y-559155D01*
X3992930Y-572414D01*
X3990238Y-586079D01*
X3989324Y-599998D01*
X3990238Y-613918D01*
X3992930Y-627634D01*
X3997451Y-640842D01*
X4003598Y-653338D01*
X4011371Y-664921D01*
X4020565Y-675436D01*
X4031081Y-684631D01*
X4042664Y-692404D01*
X4055160Y-698550D01*
X4068368Y-703072D01*
X4082084Y-705764D01*
G37*
G36*
X4350004Y-706678D02*
G01*
X4363923Y-705764D01*
X4377639Y-703072D01*
X4390847Y-698550D01*
X4403344Y-692404D01*
X4414926Y-684631D01*
X4425442Y-675436D01*
X4434636Y-664921D01*
X4442409Y-653338D01*
X4448556Y-640842D01*
X4453077Y-627634D01*
X4455769Y-613918D01*
X4456684Y-599998D01*
X4455769Y-586079D01*
X4453077Y-572414D01*
X4448556Y-559155D01*
X4442409Y-546658D01*
X4434636Y-535076D01*
X4425442Y-524560D01*
X4414926Y-515366D01*
X4403344Y-507593D01*
X4390847Y-501446D01*
X4377639Y-496976D01*
X4363923Y-494233D01*
X4350004Y-493318D01*
X4336084Y-494233D01*
X4322368Y-496976D01*
X4309160Y-501446D01*
X4296664Y-507593D01*
X4285081Y-515366D01*
X4274566Y-524560D01*
X4265371Y-535076D01*
X4257598Y-546658D01*
X4251452Y-559155D01*
X4246930Y-572414D01*
X4244238Y-586079D01*
X4243324Y-599998D01*
X4244238Y-613918D01*
X4246930Y-627634D01*
X4251452Y-640842D01*
X4257598Y-653338D01*
X4265371Y-664921D01*
X4274566Y-675436D01*
X4285081Y-684631D01*
X4296664Y-692404D01*
X4309160Y-698550D01*
X4322368Y-703072D01*
X4336084Y-705764D01*
G37*
G36*
X4559554Y-696772D02*
G01*
X4559554Y-644448D01*
X4507230Y-644448D01*
X4511598Y-653338D01*
X4519371Y-664921D01*
X4528566Y-675436D01*
X4539081Y-684631D01*
X4550664Y-692404D01*
G37*
G36*
X4648454Y-696772D02*
G01*
X4657344Y-692404D01*
X4668926Y-684631D01*
X4679442Y-675436D01*
X4688636Y-664921D01*
X4696409Y-653338D01*
X4700778Y-644448D01*
X4648454Y-644448D01*
G37*
G36*
X2799994Y-621487D02*
G01*
X2811170Y-620623D01*
X2822092Y-617982D01*
X2832455Y-613714D01*
X2842006Y-607822D01*
X2850540Y-600557D01*
X2857804Y-592023D01*
X2863697Y-582472D01*
X2867964Y-572109D01*
X2870606Y-561187D01*
X2871470Y-550011D01*
X2870606Y-538835D01*
X2867964Y-527913D01*
X2863697Y-517550D01*
X2857804Y-508000D01*
X2850540Y-499465D01*
X2842006Y-492201D01*
X2832455Y-486308D01*
X2822092Y-482041D01*
X2811170Y-479399D01*
X2799994Y-478535D01*
X2788818Y-479399D01*
X2777896Y-482041D01*
X2767533Y-486308D01*
X2757982Y-492201D01*
X2749448Y-499465D01*
X2742184Y-508000D01*
X2736291Y-517550D01*
X2732024Y-527913D01*
X2729382Y-538835D01*
X2728518Y-550011D01*
X2729382Y-561187D01*
X2732024Y-572109D01*
X2736291Y-582472D01*
X2742184Y-592023D01*
X2749448Y-600557D01*
X2757982Y-607822D01*
X2767533Y-613714D01*
X2777896Y-617982D01*
X2788818Y-620623D01*
G37*
G36*
X206146Y-619455D02*
G01*
X206146Y-493877D01*
X80721Y-493877D01*
X84429Y-500989D01*
X97282Y-521614D01*
X111709Y-541172D01*
X127660Y-559511D01*
X144983Y-576478D01*
X163626Y-592074D01*
X183438Y-606094D01*
X204317Y-618540D01*
G37*
G36*
X6556146Y-619455D02*
G01*
X6556146Y-493877D01*
X6430721Y-493877D01*
X6434429Y-500989D01*
X6447231Y-521614D01*
X6461658Y-541172D01*
X6477609Y-559511D01*
X6494983Y-576478D01*
X6513626Y-592074D01*
X6533438Y-606094D01*
X6554317Y-618540D01*
G37*
G36*
X6843826Y-619252D02*
G01*
X6856222Y-612546D01*
X6876592Y-599287D01*
X6895846Y-584454D01*
X6913829Y-568147D01*
X6930491Y-550468D01*
X6945680Y-531520D01*
X6959346Y-511454D01*
X6969353Y-493877D01*
X6843826Y-493877D01*
G37*
G36*
X493877Y-619252D02*
G01*
X506272Y-612546D01*
X526592Y-599287D01*
X545846Y-584454D01*
X563880Y-568147D01*
X580542Y-550468D01*
X595731Y-531520D01*
X609396Y-511454D01*
X619353Y-493877D01*
X493877Y-493877D01*
G37*
G36*
X4648454Y-555548D02*
G01*
X4700778Y-555548D01*
X4696409Y-546658D01*
X4688636Y-535076D01*
X4679442Y-524560D01*
X4668926Y-515366D01*
X4657344Y-507593D01*
X4648454Y-503224D01*
G37*
G36*
X4507230Y-555548D02*
G01*
X4559554Y-555548D01*
X4559554Y-503224D01*
X4550664Y-507593D01*
X4539081Y-515366D01*
X4528566Y-524560D01*
X4519371Y-535076D01*
X4511598Y-546658D01*
G37*
G36*
X3294938Y-511251D02*
G01*
X3305048Y-511251D01*
X3315106Y-509625D01*
X3324707Y-506323D01*
X3333597Y-501497D01*
X3341624Y-495249D01*
X3348482Y-487781D01*
X3354070Y-479247D01*
X3358134Y-469950D01*
X3360623Y-460146D01*
X3361486Y-450037D01*
X3360623Y-439877D01*
X3358134Y-430072D01*
X3354070Y-420776D01*
X3348482Y-412242D01*
X3341624Y-404774D01*
X3333597Y-398526D01*
X3324707Y-393700D01*
X3315106Y-390398D01*
X3305048Y-388772D01*
X3294938Y-388772D01*
X3284880Y-390398D01*
X3275279Y-393700D01*
X3266389Y-398526D01*
X3258362Y-404774D01*
X3251504Y-412242D01*
X3245916Y-420776D01*
X3241852Y-430072D01*
X3239363Y-439877D01*
X3238500Y-450037D01*
X3239363Y-460146D01*
X3241852Y-469950D01*
X3245916Y-479247D01*
X3251504Y-487781D01*
X3258362Y-495249D01*
X3266389Y-501497D01*
X3275279Y-506323D01*
X3284880Y-509625D01*
G37*
G36*
X3175000Y-321462D02*
G01*
X3186176Y-320598D01*
X3197098Y-318008D01*
X3207461Y-313690D01*
X3217011Y-307848D01*
X3225546Y-300532D01*
X3232810Y-292049D01*
X3238703Y-282448D01*
X3242970Y-272084D01*
X3245612Y-261213D01*
X3246475Y-250037D01*
X3245612Y-238810D01*
X3242970Y-227939D01*
X3238703Y-217576D01*
X3232810Y-207975D01*
X3225546Y-199491D01*
X3217011Y-192176D01*
X3207461Y-186334D01*
X3197098Y-182016D01*
X3186176Y-179425D01*
X3175000Y-178562D01*
X3163824Y-179425D01*
X3152902Y-182016D01*
X3142538Y-186334D01*
X3132988Y-192176D01*
X3124454Y-199491D01*
X3117189Y-207975D01*
X3111296Y-217576D01*
X3107029Y-227939D01*
X3104388Y-238810D01*
X3103524Y-250037D01*
X3104388Y-261213D01*
X3107029Y-272084D01*
X3111296Y-282448D01*
X3117189Y-292049D01*
X3124454Y-300532D01*
X3132988Y-307848D01*
X3142538Y-313690D01*
X3152902Y-318008D01*
X3163824Y-320598D01*
G37*
G36*
X6843826Y-206146D02*
G01*
X6969353Y-206146D01*
X6959346Y-188569D01*
X6945680Y-168503D01*
X6930491Y-149555D01*
X6913829Y-131876D01*
X6895846Y-115570D01*
X6876592Y-100736D01*
X6856222Y-87477D01*
X6843826Y-80772D01*
G37*
G36*
X493877Y-206146D02*
G01*
X619353Y-206146D01*
X609396Y-188569D01*
X595731Y-168503D01*
X580542Y-149555D01*
X563880Y-131876D01*
X545846Y-115570D01*
X526592Y-100736D01*
X506272Y-87477D01*
X493877Y-80772D01*
G37*
G36*
X6430721Y-206146D02*
G01*
X6556146Y-206146D01*
X6556146Y-80568D01*
X6554317Y-81483D01*
X6533438Y-93929D01*
X6513626Y-107950D01*
X6494983Y-123545D01*
X6477609Y-140512D01*
X6461658Y-158851D01*
X6447231Y-178409D01*
X6434429Y-199034D01*
G37*
G36*
X80721Y-206146D02*
G01*
X206146Y-206146D01*
X206146Y-80568D01*
X204317Y-81483D01*
X183438Y-93929D01*
X163626Y-107950D01*
X144983Y-123545D01*
X127660Y-140512D01*
X111709Y-158851D01*
X97282Y-178409D01*
X84429Y-199034D01*
G37*

%LPD*%
D10*
G01*
X6674993Y-2880995D03*
D11*
G01*
X6674993Y-2626995D03*
G01*
X6674993Y-2372995D03*
G01*
X6674993Y-2118995D03*
D12*
G01*
X6295999Y-3396005D03*
G01*
X6803999Y-3396005D03*
G01*
X6295999Y-3904005D03*
G01*
X6803999Y-3904005D03*
D13*
G01*
X6549999Y-3650005D03*
D12*
G01*
X6295999Y-1096010D03*
G01*
X6803999Y-1096010D03*
G01*
X6295999Y-1604010D03*
G01*
X6803999Y-1604010D03*
D13*
G01*
X6549999Y-1350010D03*
D14*
G01*
X4949977Y-3925011D03*
G01*
X5203977Y-3925011D03*
G01*
X4695977Y-3925011D03*
G01*
X4349978Y-600024D03*
G01*
X4603978Y-600024D03*
G01*
X4095978Y-600024D03*
D11*
G01*
X3242995Y-4750003D03*
G01*
X2988995Y-4750003D03*
G01*
X2734995Y-4750003D03*
G01*
X2480995Y-4750003D03*
G01*
X2226995Y-4750003D03*
G01*
X1972995Y-4750003D03*
G01*
X1718995Y-4750003D03*
G01*
X1464995Y-4750003D03*
G01*
X1210995Y-4750003D03*
D15*
G01*
X956995Y-4749977D03*
D16*
G01*
X732993Y-1150010D03*
G01*
X478993Y-1149985D03*
G01*
X224993Y-1149985D03*
D17*
G01*
X350012Y-350012D03*
G01*
X6699986Y-350012D03*
G01*
X6699986Y-4650003D03*
G01*
X350012Y-4650003D03*
D18*
G01*
X724992Y-1775002D03*
G01*
X1750009Y-1775002D03*
G01*
X3274999Y-1775002D03*
G01*
X4550003Y-1775002D03*
G01*
X724992Y-3250006D03*
G01*
X1999995Y-3250006D03*
G01*
X3274999Y-3250006D03*
G01*
X4550003Y-3250006D03*
G01*
X4874996Y-2499995D03*
D19*
G01*
X1999995Y-1775002D03*
G01*
X2524988Y-1350010D03*
G01*
X3299993Y-450011D03*
D18*
G01*
X2799994Y-550011D03*
G01*
X1650009Y-650011D03*
D19*
G01*
X999997Y-3250006D03*
G01*
X1250010Y-3250006D03*
G01*
X1499996Y-3250006D03*
G01*
X1750009Y-3250006D03*
G01*
X2775000Y-3250006D03*
G01*
X3024987Y-3250006D03*
D18*
G01*
X3750005Y-1150010D03*
D19*
G01*
X3924985Y-950010D03*
G01*
X5074996Y-899998D03*
G01*
X5124983Y-1775002D03*
D18*
G01*
X5350002Y-899998D03*
G01*
X5724982Y-1224991D03*
G01*
X2750007Y-3674998D03*
G01*
X499998Y-1775002D03*
D19*
G01*
X5824981Y-999997D03*
D18*
G01*
X990600Y-787400D03*
D19*
G01*
X975004Y-224993D03*
D18*
G01*
X1799996Y-650011D03*
D19*
G01*
X1775002Y-1275003D03*
D18*
G01*
X1824989Y-1075004D03*
D19*
G01*
X2499995Y-775004D03*
D18*
G01*
X2724988Y-999997D03*
D19*
G01*
X2850006Y-1199997D03*
D18*
G01*
X3374999Y-550011D03*
G01*
X3599992Y-1150010D03*
G01*
X4050004Y-1150010D03*
D19*
G01*
X5550001Y-224993D03*
G01*
X5299989Y-524992D03*
D18*
G01*
X6549999Y-699998D03*
G01*
X3403600Y-3683000D03*
G01*
X2641600Y-4292600D03*
G01*
X3999991Y-4224985D03*
G01*
X4199991Y-4024985D03*
G01*
X5399989Y-4674996D03*
G01*
X5724982Y-4150004D03*
G01*
X5699988Y-3474999D03*
D19*
G01*
X1599996Y-575005D03*
G01*
X1599996Y-724992D03*
G01*
X2350008Y-1350010D03*
G01*
X2624988Y-1350010D03*
G01*
X399999Y-1775002D03*
G01*
X599998Y-1775002D03*
G01*
X424992Y-1850009D03*
G01*
X5150002Y-1875002D03*
G01*
X2650007Y-3699992D03*
G01*
X2850006Y-3650005D03*
G01*
X999997Y-3150006D03*
G01*
X1250010Y-3150006D03*
G01*
X1499996Y-3150006D03*
G01*
X1750009Y-3150006D03*
G01*
X2775000Y-3150006D03*
G01*
X3024987Y-3150006D03*
G01*
X4999990Y-1150010D03*
G01*
X3099993Y-4550003D03*
G01*
X3350006Y-4550003D03*
G01*
X3450005Y-4650003D03*
G01*
X2899994Y-3899992D03*
G01*
X3149600Y-3632200D03*
G01*
X3599992Y-3699992D03*
G01*
X4550003Y-3750005D03*
G01*
X5450001Y-3599992D03*
G01*
X2149983Y-1350010D03*
G01*
X4424984Y-4199991D03*
G01*
X2099995Y-1775002D03*
G01*
X660400Y-76200D03*
G01*
X863600Y-76200D03*
G01*
X1066800Y-76200D03*
G01*
X1270000Y-76200D03*
G01*
X2082800Y-76200D03*
G01*
X1879600Y-76200D03*
G01*
X1676400Y-76200D03*
G01*
X1473200Y-76200D03*
G01*
X2895600Y-76200D03*
G01*
X2692400Y-76200D03*
G01*
X2489200Y-76200D03*
G01*
X2286000Y-76200D03*
G01*
X3708400Y-76200D03*
G01*
X3505200Y-76200D03*
G01*
X3302000Y-76200D03*
G01*
X3098800Y-76200D03*
G01*
X4114800Y-76200D03*
G01*
X4318000Y-76200D03*
G01*
X4521200Y-76200D03*
G01*
X4724400Y-76200D03*
G01*
X3911600Y-76200D03*
G01*
X5130800Y-76200D03*
G01*
X5334000Y-76200D03*
G01*
X5537200Y-76200D03*
G01*
X5740400Y-76200D03*
G01*
X4927600Y-76200D03*
G01*
X6350000Y-76200D03*
G01*
X6146800Y-76200D03*
G01*
X5943600Y-76200D03*
G01*
X5943600Y-4927600D03*
G01*
X6146800Y-4927600D03*
G01*
X6350000Y-4927600D03*
G01*
X4927600Y-4927600D03*
G01*
X5740400Y-4927600D03*
G01*
X5537200Y-4927600D03*
G01*
X5334000Y-4927600D03*
G01*
X5130800Y-4927600D03*
G01*
X3911600Y-4927600D03*
G01*
X4724400Y-4927600D03*
G01*
X4521200Y-4927600D03*
G01*
X4318000Y-4927600D03*
G01*
X4114800Y-4927600D03*
G01*
X3098800Y-4927600D03*
G01*
X3302000Y-4927600D03*
G01*
X3505200Y-4927600D03*
G01*
X3708400Y-4927600D03*
G01*
X2286000Y-4927600D03*
G01*
X2489200Y-4927600D03*
G01*
X2692400Y-4927600D03*
G01*
X2895600Y-4927600D03*
G01*
X1473200Y-4927600D03*
G01*
X1676400Y-4927600D03*
G01*
X1879600Y-4927600D03*
G01*
X2082800Y-4927600D03*
G01*
X1270000Y-4927600D03*
G01*
X1066800Y-4927600D03*
G01*
X863600Y-4927600D03*
G01*
X660400Y-4927600D03*
G01*
X76200Y-3530600D03*
G01*
X76200Y-3733800D03*
G01*
X76200Y-3937000D03*
G01*
X76200Y-4140200D03*
G01*
X76200Y-4343400D03*
G01*
X76200Y-2108200D03*
G01*
X76200Y-2311400D03*
G01*
X76200Y-2514600D03*
G01*
X76200Y-2717800D03*
G01*
X76200Y-2921000D03*
G01*
X76200Y-3124200D03*
G01*
X76200Y-3327400D03*
G01*
X76200Y-685800D03*
G01*
X76200Y-889000D03*
G01*
X76200Y-1092200D03*
G01*
X76200Y-1295400D03*
G01*
X76200Y-1498600D03*
G01*
X76200Y-1701800D03*
G01*
X76200Y-1905000D03*
G01*
X7010400Y-660400D03*
G01*
X7010400Y-863600D03*
G01*
X7010400Y-1066800D03*
G01*
X7010400Y-1270000D03*
G01*
X7010400Y-1473200D03*
G01*
X7010400Y-1676400D03*
G01*
X7010400Y-1879600D03*
G01*
X7010400Y-2082800D03*
G01*
X7010400Y-2286000D03*
G01*
X7010400Y-2489200D03*
G01*
X7010400Y-2692400D03*
G01*
X7010400Y-2895600D03*
G01*
X7010400Y-3098800D03*
G01*
X7010400Y-3302000D03*
G01*
X7010400Y-3505200D03*
G01*
X7010400Y-3708400D03*
G01*
X7010400Y-3911600D03*
G01*
X7010400Y-4114800D03*
G01*
X7010400Y-4318000D03*
G01*
X76200Y-279400D03*
G01*
X76200Y-482600D03*
G01*
X254000Y-76200D03*
G01*
X457200Y-76200D03*
G01*
X127000Y-127000D03*
G01*
X6756400Y-76200D03*
G01*
X6553200Y-76200D03*
G01*
X7010374Y-254000D03*
G01*
X7010374Y-457200D03*
G01*
X6959600Y-76200D03*
G01*
X6553200Y-4927600D03*
G01*
X6756400Y-4927600D03*
G01*
X6959600Y-4927600D03*
G01*
X7010374Y-4724400D03*
G01*
X7010374Y-4521200D03*
G01*
X457200Y-4927600D03*
G01*
X76200Y-4749800D03*
G01*
X76200Y-4546600D03*
G01*
X254000Y-4927600D03*
G01*
X127000Y-4876774D03*
D18*
G01*
X4299991Y-1150010D03*
D19*
G01*
X3849979Y-899998D03*
G01*
X4099991Y-450011D03*
G01*
X4350004Y-450011D03*
G01*
X2350008Y-1150010D03*
G01*
X2450007Y-999997D03*
G01*
X2975000Y-1199997D03*
G01*
X3024987Y-650011D03*
G01*
X3024987Y-475005D03*
G01*
X2899994Y-724992D03*
G01*
X3350006Y-374980D03*
G01*
X3450005Y-4799990D03*
G01*
X4999990Y-999997D03*
G01*
X5150002Y-999997D03*
G01*
X5950000Y-3950004D03*
G01*
X6099987Y-3950004D03*
G01*
X5974994Y-3599992D03*
G01*
X6099987Y-3499993D03*
G01*
X6449999Y-2899994D03*
G01*
X6399987Y-3050006D03*
G01*
X6849999Y-3199993D03*
G01*
X5050002Y-4099991D03*
G01*
X5050002Y-4450003D03*
G01*
X4950002Y-4524984D03*
G01*
X5024983Y-1774977D03*
G01*
X5150002Y-1150010D03*
G01*
X5299989Y-1150010D03*
G01*
X5450001Y-1150010D03*
G01*
X5299989Y-999997D03*
G01*
X5574995Y-1324990D03*
G01*
X5574995Y-1424990D03*
G01*
X5574995Y-1524990D03*
G01*
X5774994Y-1624990D03*
G01*
X5924981Y-1674977D03*
G01*
X5924981Y-1774952D03*
G01*
X5924981Y-1875002D03*
G01*
X6149975Y-2049983D03*
G01*
X5150002Y-2050008D03*
G01*
X5399989Y-2250008D03*
G01*
X5299989Y-1299997D03*
G01*
X5424982Y-850011D03*
G01*
X5674995Y-1624990D03*
G01*
X5674995Y-1149985D03*
G01*
X5774994Y-1149985D03*
G01*
X5699988Y-999972D03*
G01*
X5950000Y-999972D03*
G01*
X5574995Y-2174951D03*
G01*
X4750003Y-3750005D03*
G01*
X4950002Y-3750005D03*
G01*
X5150002Y-3750005D03*
G01*
X5350002Y-3750005D03*
G01*
X4850002Y-4099991D03*
G01*
X4650003Y-4099991D03*
G01*
X3750005Y-3899992D03*
G01*
X3949979Y-3899992D03*
G01*
X4150004Y-3899992D03*
G01*
X3099993Y-4350004D03*
G01*
X3099993Y-4150004D03*
G01*
X5424982Y-1650009D03*
G01*
X5250002Y-1650009D03*
G01*
X5950000Y-2050008D03*
G01*
X5750001Y-2050008D03*
G01*
X4850002Y-1150010D03*
G01*
X4699990Y-1150010D03*
G01*
X4550003Y-1150010D03*
G01*
X4299991Y-950010D03*
G01*
X4499990Y-950010D03*
G01*
X2149983Y-1150010D03*
G01*
X2199995Y-999997D03*
G01*
X2375001Y-475005D03*
G01*
X2524988Y-474853D03*
D18*
G01*
X3274999Y-1324990D03*
G01*
X5350002Y-2499995D03*
G01*
X1999995Y-3650005D03*
G01*
X724992Y-3650005D03*
D19*
G01*
X4424984Y-4674996D03*
D18*
G01*
X3175000Y-250012D03*
D19*
G01*
X3175000Y-350012D03*
G01*
X3550005Y-375005D03*
M02*
