G04 Layer: TopSilkscreenLayer*
G04 EasyEDA v6.4.31, 2022-02-22 16:37:49*
G04 daaedd2a32134c9ca592902a83472a49,9a5be75d700b4a6385dc1106f27949ae,10*
G04 Gerber Generator version 0.2*
G04 Scale: 100 percent, Rotated: No, Reflected: No *
G04 Dimensions in millimeters *
G04 leading zeros omitted , absolute positions ,4 integer and 5 decimal *
%FSLAX45Y45*%
%MOMM*%

%ADD10C,0.2540*%
%ADD13C,0.3000*%
%ADD36C,0.2000*%
%ADD37C,0.1524*%
%ADD38C,0.2032*%
%ADD39C,0.2030*%

%LPD*%
G36*
X1193647Y-9533026D02*
G01*
X1191209Y-9534042D01*
X1179677Y-9540900D01*
X1166926Y-9549384D01*
X1156970Y-9556546D01*
X1147165Y-9564166D01*
X1137615Y-9572142D01*
X1128318Y-9580422D01*
X1119225Y-9589109D01*
X1110335Y-9598050D01*
X1101750Y-9607346D01*
X1093419Y-9616897D01*
X1085342Y-9626752D01*
X1077569Y-9636810D01*
X1070102Y-9647123D01*
X1062939Y-9657638D01*
X1056030Y-9668357D01*
X1049528Y-9679279D01*
X1043279Y-9690354D01*
X1037437Y-9701530D01*
X1031951Y-9712858D01*
X1026769Y-9724288D01*
X1021994Y-9735820D01*
X1017625Y-9747402D01*
X1013612Y-9759035D01*
X1010056Y-9770719D01*
X1006856Y-9782403D01*
X1004112Y-9794138D01*
X1001776Y-9805771D01*
X999947Y-9817455D01*
X998524Y-9829038D01*
X997559Y-9840569D01*
X997051Y-9851999D01*
X997000Y-9878212D01*
X1273556Y-9878212D01*
X1276604Y-9857028D01*
X1278077Y-9850170D01*
X1279855Y-9843566D01*
X1281938Y-9837216D01*
X1284376Y-9831019D01*
X1287170Y-9825075D01*
X1290320Y-9819233D01*
X1293876Y-9813544D01*
X1297787Y-9807956D01*
X1302156Y-9802469D01*
X1306880Y-9796983D01*
X1319885Y-9783470D01*
X1326184Y-9776510D01*
X1330198Y-9771481D01*
X1331417Y-9769043D01*
X1325524Y-9758222D01*
X1301292Y-9715754D01*
X1258620Y-9642195D01*
X1224838Y-9584639D01*
X1200556Y-9543846D01*
X1194612Y-9534296D01*
G37*
G36*
X1600606Y-9533026D02*
G01*
X1596440Y-9539122D01*
X1582724Y-9561779D01*
X1546453Y-9623501D01*
X1461363Y-9771024D01*
X1487119Y-9796983D01*
X1491843Y-9802469D01*
X1496212Y-9807956D01*
X1500174Y-9813594D01*
X1503730Y-9819284D01*
X1506880Y-9825126D01*
X1509674Y-9831171D01*
X1512112Y-9837369D01*
X1514195Y-9843770D01*
X1515973Y-9850424D01*
X1517446Y-9857384D01*
X1520596Y-9879177D01*
X1594916Y-9876586D01*
X1658366Y-9875367D01*
X1688642Y-9875062D01*
X1796999Y-9874961D01*
X1796948Y-9850729D01*
X1796440Y-9839960D01*
X1795475Y-9828936D01*
X1794002Y-9817709D01*
X1792071Y-9806279D01*
X1789734Y-9794748D01*
X1786940Y-9783114D01*
X1783740Y-9771380D01*
X1780133Y-9759645D01*
X1776120Y-9747910D01*
X1771751Y-9736175D01*
X1767027Y-9724491D01*
X1761947Y-9712909D01*
X1756511Y-9701479D01*
X1750771Y-9690201D01*
X1744725Y-9679127D01*
X1738375Y-9668256D01*
X1731721Y-9657689D01*
X1724812Y-9647377D01*
X1717700Y-9637420D01*
X1710283Y-9627768D01*
X1702663Y-9618573D01*
X1694230Y-9609175D01*
X1683969Y-9598660D01*
X1672691Y-9587788D01*
X1660753Y-9576917D01*
X1648663Y-9566402D01*
X1636928Y-9556699D01*
X1625955Y-9548164D01*
X1616252Y-9541154D01*
X1608277Y-9536125D01*
X1605076Y-9534448D01*
X1602536Y-9533382D01*
G37*
G36*
X1396695Y-9800234D02*
G01*
X1390954Y-9800640D01*
X1385214Y-9801453D01*
X1379423Y-9802672D01*
X1373632Y-9804400D01*
X1367840Y-9806533D01*
X1362049Y-9809175D01*
X1356817Y-9812020D01*
X1351940Y-9815220D01*
X1347419Y-9818674D01*
X1343202Y-9822383D01*
X1339342Y-9826396D01*
X1335836Y-9830612D01*
X1332687Y-9835032D01*
X1329842Y-9839655D01*
X1327353Y-9844430D01*
X1325219Y-9849307D01*
X1323390Y-9854336D01*
X1321968Y-9859467D01*
X1320800Y-9864699D01*
X1320038Y-9869982D01*
X1319580Y-9875266D01*
X1319479Y-9880600D01*
X1319733Y-9885883D01*
X1320292Y-9891166D01*
X1321206Y-9896398D01*
X1322476Y-9901580D01*
X1324102Y-9906609D01*
X1326032Y-9911537D01*
X1328267Y-9916363D01*
X1330909Y-9920986D01*
X1333804Y-9925456D01*
X1337106Y-9929723D01*
X1340713Y-9933736D01*
X1344676Y-9937546D01*
X1348994Y-9941052D01*
X1353616Y-9944303D01*
X1358544Y-9947249D01*
X1363878Y-9949840D01*
X1369466Y-9952075D01*
X1375156Y-9953853D01*
X1380794Y-9955225D01*
X1386484Y-9956139D01*
X1392123Y-9956596D01*
X1397711Y-9956698D01*
X1403299Y-9956393D01*
X1408785Y-9955682D01*
X1414170Y-9954615D01*
X1419402Y-9953193D01*
X1424584Y-9951415D01*
X1429562Y-9949281D01*
X1434388Y-9946843D01*
X1439062Y-9944049D01*
X1443482Y-9941001D01*
X1447749Y-9937648D01*
X1451711Y-9933990D01*
X1455470Y-9930079D01*
X1458925Y-9925913D01*
X1462125Y-9921494D01*
X1464970Y-9916820D01*
X1467510Y-9911943D01*
X1469694Y-9906863D01*
X1471523Y-9901580D01*
X1472996Y-9896094D01*
X1474012Y-9890404D01*
X1474673Y-9884613D01*
X1474876Y-9878618D01*
X1474622Y-9872268D01*
X1473911Y-9866122D01*
X1472844Y-9860178D01*
X1471320Y-9854488D01*
X1469440Y-9848951D01*
X1467256Y-9843719D01*
X1464665Y-9838690D01*
X1461770Y-9833914D01*
X1458569Y-9829444D01*
X1455064Y-9825228D01*
X1451305Y-9821265D01*
X1447241Y-9817658D01*
X1442974Y-9814356D01*
X1438503Y-9811359D01*
X1433779Y-9808667D01*
X1428902Y-9806381D01*
X1423873Y-9804400D01*
X1418640Y-9802825D01*
X1413306Y-9801555D01*
X1407871Y-9800742D01*
X1402334Y-9800285D01*
G37*
G36*
X1457045Y-9985400D02*
G01*
X1442364Y-9992106D01*
X1438097Y-9993731D01*
X1433322Y-9995204D01*
X1428038Y-9996424D01*
X1422298Y-9997440D01*
X1410004Y-9998760D01*
X1397050Y-9999218D01*
X1390497Y-9999116D01*
X1377797Y-9998202D01*
X1366062Y-9996474D01*
X1360779Y-9995255D01*
X1356004Y-9993782D01*
X1351788Y-9992156D01*
X1337208Y-9985502D01*
X1231696Y-10168178D01*
X1217879Y-10192715D01*
X1212951Y-10202164D01*
X1209192Y-10209936D01*
X1206550Y-10216235D01*
X1205077Y-10221315D01*
X1204671Y-10223500D01*
X1204569Y-10225379D01*
X1205077Y-10228529D01*
X1205687Y-10229900D01*
X1207566Y-10232136D01*
X1210310Y-10234015D01*
X1213764Y-10235742D01*
X1222857Y-10239502D01*
X1239824Y-10246969D01*
X1251458Y-10251694D01*
X1263192Y-10256062D01*
X1275080Y-10260025D01*
X1287018Y-10263632D01*
X1299006Y-10266832D01*
X1311097Y-10269677D01*
X1323238Y-10272115D01*
X1335430Y-10274198D01*
X1347724Y-10275925D01*
X1359966Y-10277246D01*
X1372311Y-10278211D01*
X1384604Y-10278770D01*
X1396949Y-10278973D01*
X1409293Y-10278770D01*
X1421638Y-10278211D01*
X1433931Y-10277246D01*
X1446225Y-10275925D01*
X1458468Y-10274249D01*
X1470660Y-10272166D01*
X1482801Y-10269728D01*
X1494891Y-10266883D01*
X1506931Y-10263682D01*
X1518818Y-10260076D01*
X1530654Y-10256113D01*
X1542389Y-10251744D01*
X1554022Y-10247020D01*
X1581708Y-10235031D01*
X1585264Y-10232999D01*
X1586687Y-10231882D01*
X1587855Y-10230612D01*
X1588719Y-10229240D01*
X1589328Y-10227614D01*
X1589582Y-10225836D01*
X1589582Y-10223754D01*
X1588566Y-10218724D01*
X1586230Y-10212273D01*
X1582470Y-10204094D01*
X1577187Y-10193985D01*
X1570329Y-10181539D01*
G37*
G36*
X6128156Y-13329107D02*
G01*
X6120485Y-13329513D01*
X6112560Y-13330631D01*
X6104432Y-13332460D01*
X6096000Y-13335000D01*
X6084062Y-13339572D01*
X6072682Y-13345058D01*
X6061862Y-13351256D01*
X6051651Y-13358215D01*
X6042101Y-13365784D01*
X6037580Y-13369747D01*
X6029096Y-13378180D01*
X6021425Y-13387019D01*
X6014516Y-13396315D01*
X6008471Y-13405916D01*
X6003340Y-13415721D01*
X5999175Y-13425779D01*
X5997448Y-13430808D01*
X5995974Y-13435888D01*
X5993790Y-13446099D01*
X5992723Y-13456259D01*
X5992571Y-13461288D01*
X5992774Y-13466318D01*
X5993231Y-13471296D01*
X5993942Y-13476224D01*
X5995009Y-13481100D01*
X5996381Y-13485876D01*
X5998057Y-13490600D01*
X6001105Y-13498068D01*
X6004102Y-13504570D01*
X6006998Y-13510006D01*
X6009843Y-13514425D01*
X6012738Y-13517778D01*
X6015583Y-13520166D01*
X6018479Y-13521486D01*
X6021476Y-13521842D01*
X6024575Y-13521080D01*
X6027826Y-13519353D01*
X6031230Y-13516559D01*
X6034786Y-13512698D01*
X6038596Y-13507872D01*
X6042660Y-13501928D01*
X6047028Y-13494969D01*
X6056477Y-13478611D01*
X6066028Y-13463727D01*
X6070701Y-13457224D01*
X6075375Y-13451281D01*
X6079998Y-13445947D01*
X6084570Y-13441172D01*
X6089192Y-13437006D01*
X6093815Y-13433399D01*
X6098438Y-13430351D01*
X6103112Y-13427862D01*
X6107836Y-13425932D01*
X6112560Y-13424560D01*
X6117386Y-13423747D01*
X6122263Y-13423442D01*
X6127191Y-13423646D01*
X6132271Y-13424407D01*
X6137402Y-13425678D01*
X6142685Y-13427405D01*
X6148070Y-13429691D01*
X6153607Y-13432891D01*
X6159042Y-13437107D01*
X6164326Y-13442492D01*
X6169507Y-13448893D01*
X6174486Y-13456361D01*
X6179362Y-13464895D01*
X6184087Y-13474395D01*
X6188608Y-13484860D01*
X6192977Y-13496340D01*
X6197193Y-13508786D01*
X6201156Y-13522147D01*
X6205016Y-13536371D01*
X6208623Y-13551560D01*
X6212027Y-13567613D01*
X6215227Y-13584478D01*
X6218174Y-13602207D01*
X6220917Y-13620750D01*
X6225184Y-13654532D01*
X6226302Y-13665403D01*
X6226556Y-13669873D01*
X6226505Y-13673836D01*
X6226200Y-13677392D01*
X6225540Y-13680744D01*
X6224524Y-13683996D01*
X6223152Y-13687247D01*
X6221323Y-13690650D01*
X6216294Y-13698423D01*
X6199428Y-13721740D01*
X6179515Y-13750442D01*
X6161582Y-13778128D01*
X6153353Y-13791539D01*
X6145580Y-13804696D01*
X6131610Y-13830096D01*
X6125362Y-13842339D01*
X6119622Y-13854277D01*
X6114338Y-13865910D01*
X6109614Y-13877188D01*
X6105347Y-13888110D01*
X6101588Y-13898727D01*
X6098336Y-13908989D01*
X6095644Y-13918844D01*
X6093409Y-13928344D01*
X6091682Y-13937488D01*
X6090462Y-13946225D01*
X6089751Y-13954607D01*
X6089548Y-13962583D01*
X6089853Y-13970101D01*
X6090716Y-13977264D01*
X6092037Y-13983969D01*
X6093917Y-13990218D01*
X6096254Y-13996060D01*
X6099149Y-14001445D01*
X6102553Y-14006423D01*
X6106515Y-14010894D01*
X6110935Y-14014856D01*
X6115913Y-14018412D01*
X6121400Y-14021460D01*
X6127445Y-14024000D01*
X6133947Y-14026032D01*
X6141059Y-14027556D01*
X6148628Y-14028572D01*
X6156756Y-14029080D01*
X6167374Y-14028928D01*
X6173622Y-14028369D01*
X6179769Y-14027556D01*
X6185814Y-14026388D01*
X6191758Y-14024863D01*
X6197549Y-14023086D01*
X6203238Y-14020952D01*
X6208826Y-14018564D01*
X6214262Y-14015821D01*
X6219545Y-14012824D01*
X6224676Y-14009522D01*
X6229654Y-14005966D01*
X6234480Y-14002105D01*
X6239103Y-13997940D01*
X6243624Y-13993520D01*
X6247942Y-13988846D01*
X6252057Y-13983919D01*
X6256020Y-13978686D01*
X6263284Y-13967510D01*
X6266637Y-13961567D01*
X6269786Y-13955318D01*
X6272682Y-13948918D01*
X6281318Y-13926616D01*
X6283756Y-13744854D01*
X6296710Y-13722197D01*
X6477304Y-13393166D01*
X6491478Y-13367867D01*
X6492392Y-13365480D01*
X6492544Y-13363600D01*
X6491935Y-13362127D01*
X6490411Y-13361009D01*
X6487922Y-13360298D01*
X6484315Y-13359790D01*
X6473393Y-13359536D01*
X6374485Y-13361771D01*
X6275120Y-13593927D01*
X6262573Y-13622477D01*
X6259931Y-13628014D01*
X6258864Y-13629690D01*
X6258509Y-13628776D01*
X6256121Y-13612571D01*
X6252311Y-13581430D01*
X6246926Y-13542416D01*
X6243980Y-13524179D01*
X6240881Y-13506805D01*
X6237630Y-13490244D01*
X6234176Y-13474547D01*
X6230569Y-13459713D01*
X6226759Y-13445693D01*
X6222796Y-13432485D01*
X6218631Y-13420090D01*
X6214313Y-13408558D01*
X6209741Y-13397788D01*
X6205016Y-13387832D01*
X6200089Y-13378688D01*
X6194958Y-13370306D01*
X6189624Y-13362736D01*
X6184087Y-13355980D01*
X6178346Y-13349935D01*
X6172403Y-13344702D01*
X6166205Y-13340232D01*
X6159804Y-13336524D01*
X6153150Y-13333577D01*
X6149746Y-13332358D01*
X6142786Y-13330529D01*
X6135624Y-13329462D01*
G37*
D36*
X2912109Y-14466570D02*
G01*
X2893822Y-14475713D01*
X2875788Y-14494002D01*
X2866643Y-14512036D01*
X2857500Y-14539468D01*
X2857500Y-14584934D01*
X2866643Y-14612112D01*
X2875788Y-14630400D01*
X2893822Y-14648434D01*
X2912109Y-14657578D01*
X2948431Y-14657578D01*
X2966465Y-14648434D01*
X2984754Y-14630400D01*
X2993897Y-14612112D01*
X3003041Y-14584934D01*
X3003041Y-14539468D01*
X2993897Y-14512036D01*
X2984754Y-14494002D01*
X2966465Y-14475713D01*
X2948431Y-14466570D01*
X2912109Y-14466570D01*
X3062986Y-14530324D02*
G01*
X3062986Y-14721331D01*
X3062986Y-14557502D02*
G01*
X3081020Y-14539468D01*
X3099308Y-14530324D01*
X3126486Y-14530324D01*
X3144774Y-14539468D01*
X3163061Y-14557502D01*
X3171952Y-14584934D01*
X3171952Y-14602968D01*
X3163061Y-14630400D01*
X3144774Y-14648434D01*
X3126486Y-14657578D01*
X3099308Y-14657578D01*
X3081020Y-14648434D01*
X3062986Y-14630400D01*
X3232150Y-14584934D02*
G01*
X3341115Y-14584934D01*
X3341115Y-14566645D01*
X3331972Y-14548612D01*
X3322827Y-14539468D01*
X3304793Y-14530324D01*
X3277615Y-14530324D01*
X3259327Y-14539468D01*
X3241040Y-14557502D01*
X3232150Y-14584934D01*
X3232150Y-14602968D01*
X3241040Y-14630400D01*
X3259327Y-14648434D01*
X3277615Y-14657578D01*
X3304793Y-14657578D01*
X3322827Y-14648434D01*
X3341115Y-14630400D01*
X3401059Y-14530324D02*
G01*
X3401059Y-14657578D01*
X3401059Y-14566645D02*
G01*
X3428491Y-14539468D01*
X3446525Y-14530324D01*
X3473958Y-14530324D01*
X3491991Y-14539468D01*
X3501136Y-14566645D01*
X3501136Y-14657578D01*
X3837431Y-14512036D02*
G01*
X3828288Y-14494002D01*
X3810254Y-14475713D01*
X3791965Y-14466570D01*
X3755643Y-14466570D01*
X3737609Y-14475713D01*
X3719322Y-14494002D01*
X3710177Y-14512036D01*
X3701034Y-14539468D01*
X3701034Y-14584934D01*
X3710177Y-14612112D01*
X3719322Y-14630400D01*
X3737609Y-14648434D01*
X3755643Y-14657578D01*
X3791965Y-14657578D01*
X3810254Y-14648434D01*
X3828288Y-14630400D01*
X3837431Y-14612112D01*
X3837431Y-14584934D01*
X3791965Y-14584934D02*
G01*
X3837431Y-14584934D01*
X4006595Y-14530324D02*
G01*
X4006595Y-14657578D01*
X4006595Y-14557502D02*
G01*
X3988308Y-14539468D01*
X3970274Y-14530324D01*
X3942841Y-14530324D01*
X3924808Y-14539468D01*
X3906520Y-14557502D01*
X3897375Y-14584934D01*
X3897375Y-14602968D01*
X3906520Y-14630400D01*
X3924808Y-14648434D01*
X3942841Y-14657578D01*
X3970274Y-14657578D01*
X3988308Y-14648434D01*
X4006595Y-14630400D01*
X4066540Y-14530324D02*
G01*
X4066540Y-14657578D01*
X4066540Y-14566645D02*
G01*
X4093972Y-14539468D01*
X4112006Y-14530324D01*
X4139438Y-14530324D01*
X4157472Y-14539468D01*
X4166615Y-14566645D01*
X4166615Y-14657578D01*
X4166615Y-14566645D02*
G01*
X4193793Y-14539468D01*
X4212081Y-14530324D01*
X4239259Y-14530324D01*
X4257547Y-14539468D01*
X4266691Y-14566645D01*
X4266691Y-14657578D01*
X4326636Y-14530324D02*
G01*
X4326636Y-14657578D01*
X4326636Y-14566645D02*
G01*
X4353813Y-14539468D01*
X4372102Y-14530324D01*
X4399279Y-14530324D01*
X4417568Y-14539468D01*
X4426711Y-14566645D01*
X4426711Y-14657578D01*
X4426711Y-14566645D02*
G01*
X4453890Y-14539468D01*
X4471924Y-14530324D01*
X4499356Y-14530324D01*
X4517390Y-14539468D01*
X4526534Y-14566645D01*
X4526534Y-14657578D01*
X4695697Y-14530324D02*
G01*
X4695697Y-14657578D01*
X4695697Y-14557502D02*
G01*
X4677409Y-14539468D01*
X4659375Y-14530324D01*
X4631943Y-14530324D01*
X4613909Y-14539468D01*
X4595622Y-14557502D01*
X4586477Y-14584934D01*
X4586477Y-14602968D01*
X4595622Y-14630400D01*
X4613909Y-14648434D01*
X4631943Y-14657578D01*
X4659375Y-14657578D01*
X4677409Y-14648434D01*
X4695697Y-14630400D01*
X4895595Y-14466570D02*
G01*
X4895595Y-14657578D01*
X4895595Y-14466570D02*
G01*
X4959350Y-14466570D01*
X4986527Y-14475713D01*
X5004815Y-14494002D01*
X5013959Y-14512036D01*
X5022850Y-14539468D01*
X5022850Y-14584934D01*
X5013959Y-14612112D01*
X5004815Y-14630400D01*
X4986527Y-14648434D01*
X4959350Y-14657578D01*
X4895595Y-14657578D01*
X5083047Y-14584934D02*
G01*
X5192013Y-14584934D01*
X5192013Y-14566645D01*
X5182870Y-14548612D01*
X5173979Y-14539468D01*
X5155691Y-14530324D01*
X5128513Y-14530324D01*
X5110225Y-14539468D01*
X5091938Y-14557502D01*
X5083047Y-14584934D01*
X5083047Y-14602968D01*
X5091938Y-14630400D01*
X5110225Y-14648434D01*
X5128513Y-14657578D01*
X5155691Y-14657578D01*
X5173979Y-14648434D01*
X5192013Y-14630400D01*
X5279390Y-14466570D02*
G01*
X5279390Y-14621255D01*
X5288534Y-14648434D01*
X5306568Y-14657578D01*
X5324856Y-14657578D01*
X5251958Y-14530324D02*
G01*
X5315711Y-14530324D01*
X5384800Y-14584934D02*
G01*
X5493765Y-14584934D01*
X5493765Y-14566645D01*
X5484875Y-14548612D01*
X5475731Y-14539468D01*
X5457443Y-14530324D01*
X5430265Y-14530324D01*
X5411977Y-14539468D01*
X5393943Y-14557502D01*
X5384800Y-14584934D01*
X5384800Y-14602968D01*
X5393943Y-14630400D01*
X5411977Y-14648434D01*
X5430265Y-14657578D01*
X5457443Y-14657578D01*
X5475731Y-14648434D01*
X5493765Y-14630400D01*
X5662929Y-14557502D02*
G01*
X5644895Y-14539468D01*
X5626608Y-14530324D01*
X5599429Y-14530324D01*
X5581141Y-14539468D01*
X5562854Y-14557502D01*
X5553963Y-14584934D01*
X5553963Y-14602968D01*
X5562854Y-14630400D01*
X5581141Y-14648434D01*
X5599429Y-14657578D01*
X5626608Y-14657578D01*
X5644895Y-14648434D01*
X5662929Y-14630400D01*
X5750306Y-14466570D02*
G01*
X5750306Y-14621255D01*
X5759195Y-14648434D01*
X5777484Y-14657578D01*
X5795772Y-14657578D01*
X5722874Y-14530324D02*
G01*
X5786627Y-14530324D01*
X5901181Y-14530324D02*
G01*
X5882893Y-14539468D01*
X5864859Y-14557502D01*
X5855715Y-14584934D01*
X5855715Y-14602968D01*
X5864859Y-14630400D01*
X5882893Y-14648434D01*
X5901181Y-14657578D01*
X5928359Y-14657578D01*
X5946647Y-14648434D01*
X5964681Y-14630400D01*
X5973825Y-14602968D01*
X5973825Y-14584934D01*
X5964681Y-14557502D01*
X5946647Y-14539468D01*
X5928359Y-14530324D01*
X5901181Y-14530324D01*
X6033770Y-14530324D02*
G01*
X6033770Y-14657578D01*
X6033770Y-14584934D02*
G01*
X6042913Y-14557502D01*
X6061202Y-14539468D01*
X6079236Y-14530324D01*
X6106668Y-14530324D01*
D38*
X929131Y-13144500D02*
G01*
X833628Y-13185394D01*
X929131Y-13226287D02*
G01*
X833628Y-13185394D01*
X867663Y-13278104D02*
G01*
X861060Y-13271245D01*
X854202Y-13278104D01*
X861060Y-13284962D01*
X867663Y-13278104D01*
X949705Y-13329920D02*
G01*
X956310Y-13343636D01*
X976884Y-13363955D01*
X833628Y-13363955D01*
X867663Y-13415771D02*
G01*
X861060Y-13409168D01*
X854202Y-13415771D01*
X861060Y-13422629D01*
X867663Y-13415771D01*
X976884Y-13508481D02*
G01*
X970026Y-13488162D01*
X949705Y-13474445D01*
X915415Y-13467587D01*
X895095Y-13467587D01*
X861060Y-13474445D01*
X840486Y-13488162D01*
X833628Y-13508481D01*
X833628Y-13522197D01*
X840486Y-13542771D01*
X861060Y-13556234D01*
X895095Y-13563092D01*
X915415Y-13563092D01*
X949705Y-13556234D01*
X970026Y-13542771D01*
X976884Y-13522197D01*
X976884Y-13508481D01*
D37*
X5322315Y-10414000D02*
G01*
X5213350Y-10414000D01*
X5322315Y-10414000D02*
G01*
X5322315Y-10460736D01*
X5317236Y-10476229D01*
X5311902Y-10481563D01*
X5301488Y-10486644D01*
X5291074Y-10486644D01*
X5280659Y-10481563D01*
X5275579Y-10476229D01*
X5270500Y-10460736D01*
X5270500Y-10414000D01*
X5270500Y-10450321D02*
G01*
X5213350Y-10486644D01*
X5322315Y-10583418D02*
G01*
X5322315Y-10531347D01*
X5275579Y-10526268D01*
X5280659Y-10531347D01*
X5285993Y-10547095D01*
X5285993Y-10562589D01*
X5280659Y-10578084D01*
X5270500Y-10588497D01*
X5254752Y-10593831D01*
X5244338Y-10593831D01*
X5228843Y-10588497D01*
X5218429Y-10578084D01*
X5213350Y-10562589D01*
X5213350Y-10547095D01*
X5218429Y-10531347D01*
X5223509Y-10526268D01*
X5233924Y-10520934D01*
X5969000Y-10679684D02*
G01*
X5969000Y-10788650D01*
X5969000Y-10679684D02*
G01*
X6015736Y-10679684D01*
X6031229Y-10684763D01*
X6036563Y-10690097D01*
X6041643Y-10700512D01*
X6041643Y-10710926D01*
X6036563Y-10721339D01*
X6031229Y-10726420D01*
X6015736Y-10731500D01*
X5969000Y-10731500D01*
X6005322Y-10731500D02*
G01*
X6041643Y-10788650D01*
X6148831Y-10679684D02*
G01*
X6096761Y-10788650D01*
X6075934Y-10679684D02*
G01*
X6148831Y-10679684D01*
X4877815Y-10096500D02*
G01*
X4768850Y-10096500D01*
X4877815Y-10096500D02*
G01*
X4877815Y-10143236D01*
X4872736Y-10158729D01*
X4867402Y-10164063D01*
X4856988Y-10169144D01*
X4846574Y-10169144D01*
X4836159Y-10164063D01*
X4831079Y-10158729D01*
X4826000Y-10143236D01*
X4826000Y-10096500D01*
X4826000Y-10132821D02*
G01*
X4768850Y-10169144D01*
X4841493Y-10270997D02*
G01*
X4826000Y-10265918D01*
X4815586Y-10255504D01*
X4810252Y-10240010D01*
X4810252Y-10234676D01*
X4815586Y-10219181D01*
X4826000Y-10208768D01*
X4841493Y-10203434D01*
X4846574Y-10203434D01*
X4862322Y-10208768D01*
X4872736Y-10219181D01*
X4877815Y-10234676D01*
X4877815Y-10240010D01*
X4872736Y-10255504D01*
X4862322Y-10265918D01*
X4841493Y-10270997D01*
X4815586Y-10270997D01*
X4789424Y-10265918D01*
X4773929Y-10255504D01*
X4768850Y-10240010D01*
X4768850Y-10229595D01*
X4773929Y-10213847D01*
X4784343Y-10208768D01*
X4623815Y-10033000D02*
G01*
X4514850Y-10033000D01*
X4623815Y-10033000D02*
G01*
X4623815Y-10079736D01*
X4618736Y-10095229D01*
X4613402Y-10100563D01*
X4602988Y-10105644D01*
X4592574Y-10105644D01*
X4582159Y-10100563D01*
X4577079Y-10095229D01*
X4572000Y-10079736D01*
X4572000Y-10033000D01*
X4572000Y-10069321D02*
G01*
X4514850Y-10105644D01*
X4602988Y-10139934D02*
G01*
X4608322Y-10150347D01*
X4623815Y-10166095D01*
X4514850Y-10166095D01*
X4597908Y-10205465D02*
G01*
X4602988Y-10205465D01*
X4613402Y-10210800D01*
X4618736Y-10215879D01*
X4623815Y-10226294D01*
X4623815Y-10247121D01*
X4618736Y-10257536D01*
X4613402Y-10262615D01*
X4602988Y-10267950D01*
X4592574Y-10267950D01*
X4582159Y-10262615D01*
X4566665Y-10252202D01*
X4514850Y-10200386D01*
X4514850Y-10273029D01*
X3417315Y-13525500D02*
G01*
X3308350Y-13525500D01*
X3417315Y-13525500D02*
G01*
X3417315Y-13572236D01*
X3412236Y-13587729D01*
X3406902Y-13593063D01*
X3396488Y-13598144D01*
X3386074Y-13598144D01*
X3375659Y-13593063D01*
X3370579Y-13587729D01*
X3365500Y-13572236D01*
X3365500Y-13525500D01*
X3365500Y-13561821D02*
G01*
X3308350Y-13598144D01*
X3396488Y-13632434D02*
G01*
X3401822Y-13642847D01*
X3417315Y-13658595D01*
X3308350Y-13658595D01*
X5588000Y-10362184D02*
G01*
X5588000Y-10471150D01*
X5588000Y-10362184D02*
G01*
X5634736Y-10362184D01*
X5650229Y-10367263D01*
X5655563Y-10372597D01*
X5660643Y-10383012D01*
X5660643Y-10393426D01*
X5655563Y-10403839D01*
X5650229Y-10408920D01*
X5634736Y-10414000D01*
X5588000Y-10414000D01*
X5624322Y-10414000D02*
G01*
X5660643Y-10471150D01*
X5694934Y-10383012D02*
G01*
X5705347Y-10377678D01*
X5721095Y-10362184D01*
X5721095Y-10471150D01*
X5807202Y-10362184D02*
G01*
X5755386Y-10434828D01*
X5833109Y-10434828D01*
X5807202Y-10362184D02*
G01*
X5807202Y-10471150D01*
X5068315Y-9144000D02*
G01*
X4959350Y-9144000D01*
X5068315Y-9144000D02*
G01*
X5068315Y-9190736D01*
X5063236Y-9206229D01*
X5057902Y-9211563D01*
X5047488Y-9216644D01*
X5037074Y-9216644D01*
X5026659Y-9211563D01*
X5021579Y-9206229D01*
X5016500Y-9190736D01*
X5016500Y-9144000D01*
X5016500Y-9180321D02*
G01*
X4959350Y-9216644D01*
X5047488Y-9250934D02*
G01*
X5052822Y-9261347D01*
X5068315Y-9277095D01*
X4959350Y-9277095D01*
X5068315Y-9337294D02*
G01*
X5063236Y-9321800D01*
X5052822Y-9316465D01*
X5042408Y-9316465D01*
X5031993Y-9321800D01*
X5026659Y-9331960D01*
X5021579Y-9352787D01*
X5016500Y-9368536D01*
X5006086Y-9378950D01*
X4995672Y-9384029D01*
X4979924Y-9384029D01*
X4969509Y-9378950D01*
X4964429Y-9373615D01*
X4959350Y-9358121D01*
X4959350Y-9337294D01*
X4964429Y-9321800D01*
X4969509Y-9316465D01*
X4979924Y-9311386D01*
X4995672Y-9311386D01*
X5006086Y-9316465D01*
X5016500Y-9326879D01*
X5021579Y-9342374D01*
X5026659Y-9363202D01*
X5031993Y-9373615D01*
X5042408Y-9378950D01*
X5052822Y-9378950D01*
X5063236Y-9373615D01*
X5068315Y-9358121D01*
X5068315Y-9337294D01*
X5312181Y-13473684D02*
G01*
X5270525Y-13582650D01*
X5312181Y-13473684D02*
G01*
X5353583Y-13582650D01*
X5286019Y-13546328D02*
G01*
X5338089Y-13546328D01*
X5465851Y-13499592D02*
G01*
X5460771Y-13489178D01*
X5450357Y-13478763D01*
X5439943Y-13473684D01*
X5419115Y-13473684D01*
X5408701Y-13478763D01*
X5398287Y-13489178D01*
X5393207Y-13499592D01*
X5387873Y-13515339D01*
X5387873Y-13541247D01*
X5393207Y-13556742D01*
X5398287Y-13567155D01*
X5408701Y-13577570D01*
X5419115Y-13582650D01*
X5439943Y-13582650D01*
X5450357Y-13577570D01*
X5460771Y-13567155D01*
X5465851Y-13556742D01*
X5536463Y-13473684D02*
G01*
X5536463Y-13582650D01*
X5500141Y-13473684D02*
G01*
X5572785Y-13473684D01*
X1448815Y-13716000D02*
G01*
X1339850Y-13716000D01*
X1448815Y-13716000D02*
G01*
X1448815Y-13762736D01*
X1443736Y-13778229D01*
X1438402Y-13783563D01*
X1427987Y-13788644D01*
X1412494Y-13788644D01*
X1402079Y-13783563D01*
X1397000Y-13778229D01*
X1391665Y-13762736D01*
X1391665Y-13716000D01*
X1448815Y-13822934D02*
G01*
X1339850Y-13849095D01*
X1448815Y-13875004D02*
G01*
X1339850Y-13849095D01*
X1448815Y-13875004D02*
G01*
X1339850Y-13900912D01*
X1448815Y-13926820D02*
G01*
X1339850Y-13900912D01*
X1448815Y-13961110D02*
G01*
X1339850Y-13961110D01*
X1448815Y-13961110D02*
G01*
X1448815Y-14008100D01*
X1443736Y-14023594D01*
X1438402Y-14028674D01*
X1427987Y-14034007D01*
X1417573Y-14034007D01*
X1407160Y-14028674D01*
X1402079Y-14023594D01*
X1397000Y-14008100D01*
X1397000Y-13961110D01*
X1397000Y-13997686D02*
G01*
X1339850Y-14034007D01*
X4115841Y-14097025D02*
G01*
X4006621Y-14097025D01*
X4115841Y-14097025D02*
G01*
X4115841Y-14143761D01*
X4110761Y-14159255D01*
X4105427Y-14164589D01*
X4095013Y-14169669D01*
X4084599Y-14169669D01*
X4074185Y-14164589D01*
X4069105Y-14159255D01*
X4063771Y-14143761D01*
X4063771Y-14097025D01*
X4063771Y-14133347D02*
G01*
X4006621Y-14169669D01*
X4089933Y-14209293D02*
G01*
X4095013Y-14209293D01*
X4105427Y-14214373D01*
X4110761Y-14219707D01*
X4115841Y-14230121D01*
X4115841Y-14250695D01*
X4110761Y-14261109D01*
X4105427Y-14266443D01*
X4095013Y-14271523D01*
X4084599Y-14271523D01*
X4074185Y-14266443D01*
X4058691Y-14256029D01*
X4006621Y-14203959D01*
X4006621Y-14276857D01*
X2476500Y-13410184D02*
G01*
X2476500Y-13488162D01*
X2481579Y-13503655D01*
X2491993Y-13514070D01*
X2507741Y-13519150D01*
X2518156Y-13519150D01*
X2533650Y-13514070D01*
X2544063Y-13503655D01*
X2549143Y-13488162D01*
X2549143Y-13410184D01*
X2588768Y-13436092D02*
G01*
X2588768Y-13431012D01*
X2593847Y-13420597D01*
X2599181Y-13415263D01*
X2609595Y-13410184D01*
X2630170Y-13410184D01*
X2640584Y-13415263D01*
X2645918Y-13420597D01*
X2650997Y-13431012D01*
X2650997Y-13441426D01*
X2645918Y-13451839D01*
X2635504Y-13467334D01*
X2583434Y-13519150D01*
X2656331Y-13519150D01*
X2444241Y-9092184D02*
G01*
X2433827Y-9097263D01*
X2423413Y-9107678D01*
X2418079Y-9118092D01*
X2413000Y-9133839D01*
X2413000Y-9159747D01*
X2418079Y-9175242D01*
X2423413Y-9185655D01*
X2433827Y-9196070D01*
X2444241Y-9201150D01*
X2465070Y-9201150D01*
X2475229Y-9196070D01*
X2485643Y-9185655D01*
X2490977Y-9175242D01*
X2496058Y-9159747D01*
X2496058Y-9133839D01*
X2490977Y-9118092D01*
X2485643Y-9107678D01*
X2475229Y-9097263D01*
X2465070Y-9092184D01*
X2444241Y-9092184D01*
X2459736Y-9180576D02*
G01*
X2490977Y-9211563D01*
X2530347Y-9113012D02*
G01*
X2540761Y-9107678D01*
X2556509Y-9092184D01*
X2556509Y-9201150D01*
X889000Y-10362184D02*
G01*
X889000Y-10471150D01*
X889000Y-10362184D02*
G01*
X935736Y-10362184D01*
X951229Y-10367263D01*
X956563Y-10372597D01*
X961644Y-10383012D01*
X961644Y-10393426D01*
X956563Y-10403839D01*
X951229Y-10408920D01*
X935736Y-10414000D01*
X889000Y-10414000D01*
X925321Y-10414000D02*
G01*
X961644Y-10471150D01*
X1001268Y-10388092D02*
G01*
X1001268Y-10383012D01*
X1006347Y-10372597D01*
X1011681Y-10367263D01*
X1022095Y-10362184D01*
X1042670Y-10362184D01*
X1053084Y-10367263D01*
X1058418Y-10372597D01*
X1063497Y-10383012D01*
X1063497Y-10393426D01*
X1058418Y-10403839D01*
X1048004Y-10419334D01*
X995934Y-10471150D01*
X1068831Y-10471150D01*
X1165352Y-10362184D02*
G01*
X1113536Y-10362184D01*
X1108202Y-10408920D01*
X1113536Y-10403839D01*
X1129029Y-10398505D01*
X1144523Y-10398505D01*
X1160271Y-10403839D01*
X1170686Y-10414000D01*
X1175765Y-10429747D01*
X1175765Y-10440162D01*
X1170686Y-10455655D01*
X1160271Y-10466070D01*
X1144523Y-10471150D01*
X1129029Y-10471150D01*
X1113536Y-10466070D01*
X1108202Y-10460989D01*
X1103121Y-10450576D01*
X2274315Y-11112500D02*
G01*
X2165350Y-11112500D01*
X2274315Y-11112500D02*
G01*
X2274315Y-11159236D01*
X2269236Y-11174729D01*
X2263902Y-11180063D01*
X2253488Y-11185144D01*
X2243074Y-11185144D01*
X2232659Y-11180063D01*
X2227579Y-11174729D01*
X2222500Y-11159236D01*
X2222500Y-11112500D01*
X2222500Y-11148821D02*
G01*
X2165350Y-11185144D01*
X2248408Y-11224768D02*
G01*
X2253488Y-11224768D01*
X2263902Y-11229847D01*
X2269236Y-11235181D01*
X2274315Y-11245595D01*
X2274315Y-11266170D01*
X2269236Y-11276584D01*
X2263902Y-11281918D01*
X2253488Y-11286997D01*
X2243074Y-11286997D01*
X2232659Y-11281918D01*
X2217165Y-11271504D01*
X2165350Y-11219434D01*
X2165350Y-11292331D01*
X2258822Y-11388852D02*
G01*
X2269236Y-11383771D01*
X2274315Y-11368024D01*
X2274315Y-11357610D01*
X2269236Y-11342115D01*
X2253488Y-11331702D01*
X2227579Y-11326621D01*
X2201672Y-11326621D01*
X2180843Y-11331702D01*
X2170429Y-11342115D01*
X2165350Y-11357610D01*
X2165350Y-11362944D01*
X2170429Y-11378437D01*
X2180843Y-11388852D01*
X2196338Y-11394186D01*
X2201672Y-11394186D01*
X2217165Y-11388852D01*
X2227579Y-11378437D01*
X2232659Y-11362944D01*
X2232659Y-11357610D01*
X2227579Y-11342115D01*
X2217165Y-11331702D01*
X2201672Y-11326621D01*
X2909315Y-11112500D02*
G01*
X2800350Y-11112500D01*
X2909315Y-11112500D02*
G01*
X2909315Y-11159236D01*
X2904236Y-11174729D01*
X2898902Y-11180063D01*
X2888488Y-11185144D01*
X2878074Y-11185144D01*
X2867659Y-11180063D01*
X2862579Y-11174729D01*
X2857500Y-11159236D01*
X2857500Y-11112500D01*
X2857500Y-11148821D02*
G01*
X2800350Y-11185144D01*
X2883408Y-11224768D02*
G01*
X2888488Y-11224768D01*
X2898902Y-11229847D01*
X2904236Y-11235181D01*
X2909315Y-11245595D01*
X2909315Y-11266170D01*
X2904236Y-11276584D01*
X2898902Y-11281918D01*
X2888488Y-11286997D01*
X2878074Y-11286997D01*
X2867659Y-11281918D01*
X2852165Y-11271504D01*
X2800350Y-11219434D01*
X2800350Y-11292331D01*
X2909315Y-11399265D02*
G01*
X2800350Y-11347450D01*
X2909315Y-11326621D02*
G01*
X2909315Y-11399265D01*
X3417315Y-11112500D02*
G01*
X3308350Y-11112500D01*
X3417315Y-11112500D02*
G01*
X3417315Y-11159236D01*
X3412236Y-11174729D01*
X3406902Y-11180063D01*
X3396488Y-11185144D01*
X3386074Y-11185144D01*
X3375659Y-11180063D01*
X3370579Y-11174729D01*
X3365500Y-11159236D01*
X3365500Y-11112500D01*
X3365500Y-11148821D02*
G01*
X3308350Y-11185144D01*
X3391408Y-11224768D02*
G01*
X3396488Y-11224768D01*
X3406902Y-11229847D01*
X3412236Y-11235181D01*
X3417315Y-11245595D01*
X3417315Y-11266170D01*
X3412236Y-11276584D01*
X3406902Y-11281918D01*
X3396488Y-11286997D01*
X3386074Y-11286997D01*
X3375659Y-11281918D01*
X3360165Y-11271504D01*
X3308350Y-11219434D01*
X3308350Y-11292331D01*
X3417315Y-11352529D02*
G01*
X3412236Y-11337036D01*
X3401822Y-11331702D01*
X3391408Y-11331702D01*
X3380993Y-11337036D01*
X3375659Y-11347450D01*
X3370579Y-11368024D01*
X3365500Y-11383771D01*
X3355086Y-11394186D01*
X3344672Y-11399265D01*
X3328924Y-11399265D01*
X3318509Y-11394186D01*
X3313429Y-11388852D01*
X3308350Y-11373358D01*
X3308350Y-11352529D01*
X3313429Y-11337036D01*
X3318509Y-11331702D01*
X3328924Y-11326621D01*
X3344672Y-11326621D01*
X3355086Y-11331702D01*
X3365500Y-11342115D01*
X3370579Y-11357610D01*
X3375659Y-11378437D01*
X3380993Y-11388852D01*
X3391408Y-11394186D01*
X3401822Y-11394186D01*
X3412236Y-11388852D01*
X3417315Y-11373358D01*
X3417315Y-11352529D01*
X5449315Y-11747500D02*
G01*
X5371338Y-11747500D01*
X5355843Y-11752579D01*
X5345429Y-11762994D01*
X5340350Y-11778742D01*
X5340350Y-11789155D01*
X5345429Y-11804650D01*
X5355843Y-11815063D01*
X5371338Y-11820144D01*
X5449315Y-11820144D01*
X5449315Y-11927331D02*
G01*
X5340350Y-11875262D01*
X5449315Y-11854434D02*
G01*
X5449315Y-11927331D01*
X4623815Y-13271497D02*
G01*
X4545838Y-13271497D01*
X4530343Y-13276577D01*
X4519929Y-13286991D01*
X4514850Y-13302739D01*
X4514850Y-13313153D01*
X4519929Y-13328647D01*
X4530343Y-13339061D01*
X4545838Y-13344141D01*
X4623815Y-13344141D01*
X4623815Y-13388845D02*
G01*
X4623815Y-13445995D01*
X4582159Y-13415007D01*
X4582159Y-13430501D01*
X4577079Y-13440915D01*
X4572000Y-13445995D01*
X4556252Y-13451329D01*
X4545838Y-13451329D01*
X4530343Y-13445995D01*
X4519929Y-13435581D01*
X4514850Y-13420087D01*
X4514850Y-13404593D01*
X4519929Y-13388845D01*
X4525009Y-13383765D01*
X4535424Y-13378431D01*
X6010656Y-9600184D02*
G01*
X5969000Y-9709150D01*
X6010656Y-9600184D02*
G01*
X6052058Y-9709150D01*
X5984493Y-9672828D02*
G01*
X6036563Y-9672828D01*
X6086347Y-9600184D02*
G01*
X6086347Y-9709150D01*
X6086347Y-9600184D02*
G01*
X6128004Y-9709150D01*
X6169659Y-9600184D02*
G01*
X6128004Y-9709150D01*
X6169659Y-9600184D02*
G01*
X6169659Y-9709150D01*
X6203950Y-9600184D02*
G01*
X6203950Y-9709150D01*
X6203950Y-9600184D02*
G01*
X6250686Y-9600184D01*
X6266179Y-9605263D01*
X6271259Y-9610597D01*
X6276593Y-9621012D01*
X6276593Y-9636505D01*
X6271259Y-9646920D01*
X6266179Y-9652000D01*
X6250686Y-9657334D01*
X6203950Y-9657334D01*
X6310884Y-9621012D02*
G01*
X6321297Y-9615678D01*
X6336791Y-9600184D01*
X6336791Y-9709150D01*
X4296156Y-9028684D02*
G01*
X4254500Y-9137650D01*
X4296156Y-9028684D02*
G01*
X4337558Y-9137650D01*
X4269993Y-9101328D02*
G01*
X4322063Y-9101328D01*
X4371847Y-9028684D02*
G01*
X4371847Y-9137650D01*
X4371847Y-9028684D02*
G01*
X4413504Y-9137650D01*
X4455159Y-9028684D02*
G01*
X4413504Y-9137650D01*
X4455159Y-9028684D02*
G01*
X4455159Y-9137650D01*
X4489450Y-9028684D02*
G01*
X4489450Y-9137650D01*
X4489450Y-9028684D02*
G01*
X4536186Y-9028684D01*
X4551679Y-9033763D01*
X4556759Y-9039097D01*
X4562093Y-9049512D01*
X4562093Y-9065005D01*
X4556759Y-9075420D01*
X4551679Y-9080500D01*
X4536186Y-9085834D01*
X4489450Y-9085834D01*
X4601463Y-9054592D02*
G01*
X4601463Y-9049512D01*
X4606797Y-9039097D01*
X4611877Y-9033763D01*
X4622291Y-9028684D01*
X4643120Y-9028684D01*
X4653534Y-9033763D01*
X4658613Y-9039097D01*
X4663947Y-9049512D01*
X4663947Y-9059926D01*
X4658613Y-9070339D01*
X4648200Y-9085834D01*
X4596384Y-9137650D01*
X4669027Y-9137650D01*
X5105908Y-10110978D02*
G01*
X5116322Y-10105644D01*
X5126736Y-10095229D01*
X5131815Y-10085070D01*
X5131815Y-10064242D01*
X5126736Y-10053828D01*
X5116322Y-10043413D01*
X5105908Y-10038079D01*
X5090159Y-10033000D01*
X5064252Y-10033000D01*
X5048758Y-10038079D01*
X5038343Y-10043413D01*
X5027929Y-10053828D01*
X5022850Y-10064242D01*
X5022850Y-10085070D01*
X5027929Y-10095229D01*
X5038343Y-10105644D01*
X5048758Y-10110978D01*
X5110988Y-10145268D02*
G01*
X5116322Y-10155681D01*
X5131815Y-10171176D01*
X5022850Y-10171176D01*
X6554977Y-12356592D02*
G01*
X6549643Y-12346178D01*
X6539229Y-12335763D01*
X6529070Y-12330684D01*
X6508241Y-12330684D01*
X6497827Y-12335763D01*
X6487413Y-12346178D01*
X6482079Y-12356592D01*
X6477000Y-12372339D01*
X6477000Y-12398247D01*
X6482079Y-12413742D01*
X6487413Y-12424155D01*
X6497827Y-12434570D01*
X6508241Y-12439650D01*
X6529070Y-12439650D01*
X6539229Y-12434570D01*
X6549643Y-12424155D01*
X6554977Y-12413742D01*
X6594347Y-12356592D02*
G01*
X6594347Y-12351512D01*
X6599681Y-12341097D01*
X6604761Y-12335763D01*
X6615175Y-12330684D01*
X6636004Y-12330684D01*
X6646418Y-12335763D01*
X6651497Y-12341097D01*
X6656831Y-12351512D01*
X6656831Y-12361926D01*
X6651497Y-12372339D01*
X6641084Y-12387834D01*
X6589268Y-12439650D01*
X6661911Y-12439650D01*
X2565908Y-10174478D02*
G01*
X2576322Y-10169144D01*
X2586736Y-10158729D01*
X2591815Y-10148570D01*
X2591815Y-10127742D01*
X2586736Y-10117328D01*
X2576322Y-10106913D01*
X2565908Y-10101579D01*
X2550159Y-10096500D01*
X2524252Y-10096500D01*
X2508758Y-10101579D01*
X2498343Y-10106913D01*
X2487929Y-10117328D01*
X2482850Y-10127742D01*
X2482850Y-10148570D01*
X2487929Y-10158729D01*
X2498343Y-10169144D01*
X2508758Y-10174478D01*
X2591815Y-10270997D02*
G01*
X2591815Y-10219181D01*
X2545079Y-10213847D01*
X2550159Y-10219181D01*
X2555493Y-10234676D01*
X2555493Y-10250170D01*
X2550159Y-10265918D01*
X2540000Y-10276331D01*
X2524252Y-10281412D01*
X2513838Y-10281412D01*
X2498343Y-10276331D01*
X2487929Y-10265918D01*
X2482850Y-10250170D01*
X2482850Y-10234676D01*
X2487929Y-10219181D01*
X2493009Y-10213847D01*
X2503424Y-10208768D01*
X1486407Y-10491978D02*
G01*
X1496821Y-10486644D01*
X1507236Y-10476229D01*
X1512315Y-10466070D01*
X1512315Y-10445242D01*
X1507236Y-10434828D01*
X1496821Y-10424413D01*
X1486407Y-10419079D01*
X1470660Y-10414000D01*
X1444752Y-10414000D01*
X1429257Y-10419079D01*
X1418844Y-10424413D01*
X1408429Y-10434828D01*
X1403350Y-10445242D01*
X1403350Y-10466070D01*
X1408429Y-10476229D01*
X1418844Y-10486644D01*
X1429257Y-10491978D01*
X1496821Y-10588497D02*
G01*
X1507236Y-10583418D01*
X1512315Y-10567670D01*
X1512315Y-10557510D01*
X1507236Y-10541762D01*
X1491487Y-10531347D01*
X1465579Y-10526268D01*
X1439671Y-10526268D01*
X1418844Y-10531347D01*
X1408429Y-10541762D01*
X1403350Y-10557510D01*
X1403350Y-10562589D01*
X1408429Y-10578084D01*
X1418844Y-10588497D01*
X1434337Y-10593831D01*
X1439671Y-10593831D01*
X1455165Y-10588497D01*
X1465579Y-10578084D01*
X1470660Y-10562589D01*
X1470660Y-10557510D01*
X1465579Y-10541762D01*
X1455165Y-10531347D01*
X1439671Y-10526268D01*
X3391410Y-13158978D02*
G01*
X3401824Y-13153644D01*
X3412238Y-13143229D01*
X3417318Y-13133070D01*
X3417318Y-13112242D01*
X3412238Y-13101828D01*
X3401824Y-13091413D01*
X3391410Y-13086079D01*
X3375662Y-13081000D01*
X3349754Y-13081000D01*
X3334260Y-13086079D01*
X3323846Y-13091413D01*
X3313432Y-13101828D01*
X3308352Y-13112242D01*
X3308352Y-13133070D01*
X3313432Y-13143229D01*
X3323846Y-13153644D01*
X3334260Y-13158978D01*
X3396490Y-13193268D02*
G01*
X3401824Y-13203681D01*
X3417318Y-13219176D01*
X3308352Y-13219176D01*
X3391410Y-13258800D02*
G01*
X3396490Y-13258800D01*
X3406904Y-13263879D01*
X3412238Y-13268960D01*
X3417318Y-13279374D01*
X3417318Y-13300202D01*
X3412238Y-13310616D01*
X3406904Y-13315950D01*
X3396490Y-13321029D01*
X3386076Y-13321029D01*
X3375662Y-13315950D01*
X3360168Y-13305536D01*
X3308352Y-13253466D01*
X3308352Y-13326110D01*
X4788408Y-9412478D02*
G01*
X4798822Y-9407144D01*
X4809236Y-9396729D01*
X4814315Y-9386570D01*
X4814315Y-9365742D01*
X4809236Y-9355328D01*
X4798822Y-9344913D01*
X4788408Y-9339579D01*
X4772659Y-9334500D01*
X4746752Y-9334500D01*
X4731258Y-9339579D01*
X4720843Y-9344913D01*
X4710429Y-9355328D01*
X4705350Y-9365742D01*
X4705350Y-9386570D01*
X4710429Y-9396729D01*
X4720843Y-9407144D01*
X4731258Y-9412478D01*
X4793488Y-9446768D02*
G01*
X4798822Y-9457181D01*
X4814315Y-9472676D01*
X4705350Y-9472676D01*
X4814315Y-9579610D02*
G01*
X4705350Y-9527794D01*
X4814315Y-9506965D02*
G01*
X4814315Y-9579610D01*
X4889497Y-13473684D02*
G01*
X4889497Y-13582650D01*
X4889497Y-13473684D02*
G01*
X4936233Y-13473684D01*
X4951727Y-13478763D01*
X4957061Y-13484097D01*
X4962141Y-13494512D01*
X4962141Y-13504926D01*
X4957061Y-13515339D01*
X4951727Y-13520420D01*
X4936233Y-13525500D01*
X4889497Y-13525500D01*
X4925819Y-13525500D02*
G01*
X4962141Y-13582650D01*
X5058915Y-13489178D02*
G01*
X5053581Y-13478763D01*
X5038087Y-13473684D01*
X5027673Y-13473684D01*
X5012179Y-13478763D01*
X5001765Y-13494512D01*
X4996431Y-13520420D01*
X4996431Y-13546328D01*
X5001765Y-13567155D01*
X5012179Y-13577570D01*
X5027673Y-13582650D01*
X5033007Y-13582650D01*
X5048501Y-13577570D01*
X5058915Y-13567155D01*
X5063995Y-13551662D01*
X5063995Y-13546328D01*
X5058915Y-13530834D01*
X5048501Y-13520420D01*
X5033007Y-13515339D01*
X5027673Y-13515339D01*
X5012179Y-13520420D01*
X5001765Y-13530834D01*
X4996431Y-13546328D01*
X3329000Y-10362184D02*
G01*
X3329000Y-10471150D01*
X3329000Y-10362184D02*
G01*
X3375736Y-10362184D01*
X3391230Y-10367263D01*
X3396564Y-10372597D01*
X3401644Y-10383012D01*
X3401644Y-10393426D01*
X3396564Y-10403839D01*
X3391230Y-10408920D01*
X3375736Y-10414000D01*
X3329000Y-10414000D01*
X3365322Y-10414000D02*
G01*
X3401644Y-10471150D01*
X3435934Y-10383012D02*
G01*
X3446348Y-10377678D01*
X3462096Y-10362184D01*
X3462096Y-10471150D01*
X3496386Y-10383012D02*
G01*
X3506800Y-10377678D01*
X3522294Y-10362184D01*
X3522294Y-10471150D01*
X6350000Y-10679684D02*
G01*
X6350000Y-10788650D01*
X6350000Y-10679684D02*
G01*
X6396736Y-10679684D01*
X6412229Y-10684763D01*
X6417563Y-10690097D01*
X6422643Y-10700512D01*
X6422643Y-10710926D01*
X6417563Y-10721339D01*
X6412229Y-10726420D01*
X6396736Y-10731500D01*
X6350000Y-10731500D01*
X6386322Y-10731500D02*
G01*
X6422643Y-10788650D01*
X6456934Y-10700512D02*
G01*
X6467347Y-10695178D01*
X6483095Y-10679684D01*
X6483095Y-10788650D01*
X6579615Y-10695178D02*
G01*
X6574536Y-10684763D01*
X6558788Y-10679684D01*
X6548374Y-10679684D01*
X6532879Y-10684763D01*
X6522465Y-10700512D01*
X6517386Y-10726420D01*
X6517386Y-10752328D01*
X6522465Y-10773155D01*
X6532879Y-10783570D01*
X6548374Y-10788650D01*
X6553708Y-10788650D01*
X6569202Y-10783570D01*
X6579615Y-10773155D01*
X6584950Y-10757662D01*
X6584950Y-10752328D01*
X6579615Y-10736834D01*
X6569202Y-10726420D01*
X6553708Y-10721339D01*
X6548374Y-10721339D01*
X6532879Y-10726420D01*
X6522465Y-10736834D01*
X6517386Y-10752328D01*
X5524500Y-9028684D02*
G01*
X5524500Y-9137650D01*
X5524500Y-9028684D02*
G01*
X5571236Y-9028684D01*
X5586729Y-9033763D01*
X5592063Y-9039097D01*
X5597143Y-9049512D01*
X5597143Y-9059926D01*
X5592063Y-9070339D01*
X5586729Y-9075420D01*
X5571236Y-9080500D01*
X5524500Y-9080500D01*
X5560822Y-9080500D02*
G01*
X5597143Y-9137650D01*
X5631434Y-9049512D02*
G01*
X5641847Y-9044178D01*
X5657595Y-9028684D01*
X5657595Y-9137650D01*
X5764529Y-9028684D02*
G01*
X5712459Y-9137650D01*
X5691886Y-9028684D02*
G01*
X5764529Y-9028684D01*
X6401815Y-10350500D02*
G01*
X6292850Y-10350500D01*
X6401815Y-10350500D02*
G01*
X6401815Y-10397236D01*
X6396736Y-10412729D01*
X6391402Y-10418063D01*
X6380988Y-10423144D01*
X6370574Y-10423144D01*
X6360159Y-10418063D01*
X6355079Y-10412729D01*
X6350000Y-10397236D01*
X6350000Y-10350500D01*
X6350000Y-10386821D02*
G01*
X6292850Y-10423144D01*
X6375908Y-10462768D02*
G01*
X6380988Y-10462768D01*
X6391402Y-10467847D01*
X6396736Y-10473181D01*
X6401815Y-10483595D01*
X6401815Y-10504170D01*
X6396736Y-10514584D01*
X6391402Y-10519918D01*
X6380988Y-10524997D01*
X6370574Y-10524997D01*
X6360159Y-10519918D01*
X6344665Y-10509504D01*
X6292850Y-10457434D01*
X6292850Y-10530331D01*
X6380988Y-10564621D02*
G01*
X6386322Y-10575036D01*
X6401815Y-10590529D01*
X6292850Y-10590529D01*
X2147315Y-10414000D02*
G01*
X2069338Y-10414000D01*
X2053843Y-10419079D01*
X2043429Y-10429494D01*
X2038350Y-10445242D01*
X2038350Y-10455655D01*
X2043429Y-10471150D01*
X2053843Y-10481563D01*
X2069338Y-10486644D01*
X2147315Y-10486644D01*
X2147315Y-10573004D02*
G01*
X2074672Y-10520934D01*
X2074672Y-10598912D01*
X2147315Y-10573004D02*
G01*
X2038350Y-10573004D01*
X3645408Y-9158478D02*
G01*
X3655822Y-9153144D01*
X3666236Y-9142729D01*
X3671315Y-9132570D01*
X3671315Y-9111742D01*
X3666236Y-9101328D01*
X3655822Y-9090913D01*
X3645408Y-9085579D01*
X3629659Y-9080500D01*
X3603752Y-9080500D01*
X3588258Y-9085579D01*
X3577843Y-9090913D01*
X3567429Y-9101328D01*
X3562350Y-9111742D01*
X3562350Y-9132570D01*
X3567429Y-9142729D01*
X3577843Y-9153144D01*
X3588258Y-9158478D01*
X3650488Y-9192768D02*
G01*
X3655822Y-9203181D01*
X3671315Y-9218676D01*
X3562350Y-9218676D01*
X3655822Y-9315450D02*
G01*
X3666236Y-9310115D01*
X3671315Y-9294621D01*
X3671315Y-9284208D01*
X3666236Y-9268460D01*
X3650488Y-9258300D01*
X3624579Y-9252965D01*
X3598672Y-9252965D01*
X3577843Y-9258300D01*
X3567429Y-9268460D01*
X3562350Y-9284208D01*
X3562350Y-9289287D01*
X3567429Y-9305036D01*
X3577843Y-9315450D01*
X3593338Y-9320529D01*
X3598672Y-9320529D01*
X3614165Y-9315450D01*
X3624579Y-9305036D01*
X3629659Y-9289287D01*
X3629659Y-9284208D01*
X3624579Y-9268460D01*
X3614165Y-9258300D01*
X3598672Y-9252965D01*
X6554977Y-12864592D02*
G01*
X6549643Y-12854178D01*
X6539229Y-12843763D01*
X6529070Y-12838684D01*
X6508241Y-12838684D01*
X6497827Y-12843763D01*
X6487413Y-12854178D01*
X6482079Y-12864592D01*
X6477000Y-12880339D01*
X6477000Y-12906247D01*
X6482079Y-12921742D01*
X6487413Y-12932155D01*
X6497827Y-12942570D01*
X6508241Y-12947650D01*
X6529070Y-12947650D01*
X6539229Y-12942570D01*
X6549643Y-12932155D01*
X6554977Y-12921742D01*
X6599681Y-12838684D02*
G01*
X6656831Y-12838684D01*
X6625590Y-12880339D01*
X6641084Y-12880339D01*
X6651497Y-12885420D01*
X6656831Y-12890500D01*
X6661911Y-12906247D01*
X6661911Y-12916662D01*
X6656831Y-12932155D01*
X6646418Y-12942570D01*
X6630670Y-12947650D01*
X6615175Y-12947650D01*
X6599681Y-12942570D01*
X6594347Y-12937489D01*
X6589268Y-12927076D01*
X4522975Y-14134592D02*
G01*
X4517641Y-14124178D01*
X4507227Y-14113763D01*
X4497067Y-14108684D01*
X4476239Y-14108684D01*
X4465825Y-14113763D01*
X4455411Y-14124178D01*
X4450077Y-14134592D01*
X4444997Y-14150339D01*
X4444997Y-14176247D01*
X4450077Y-14191742D01*
X4455411Y-14202155D01*
X4465825Y-14212570D01*
X4476239Y-14217650D01*
X4497067Y-14217650D01*
X4507227Y-14212570D01*
X4517641Y-14202155D01*
X4522975Y-14191742D01*
X4609081Y-14108684D02*
G01*
X4557265Y-14181328D01*
X4635243Y-14181328D01*
X4609081Y-14108684D02*
G01*
X4609081Y-14217650D01*
X3073910Y-13984485D02*
G01*
X3084324Y-13979151D01*
X3094738Y-13968737D01*
X3099818Y-13958577D01*
X3099818Y-13937749D01*
X3094738Y-13927335D01*
X3084324Y-13916921D01*
X3073910Y-13911587D01*
X3058162Y-13906507D01*
X3032254Y-13906507D01*
X3016760Y-13911587D01*
X3006346Y-13916921D01*
X2995932Y-13927335D01*
X2990852Y-13937749D01*
X2990852Y-13958577D01*
X2995932Y-13968737D01*
X3006346Y-13979151D01*
X3016760Y-13984485D01*
X3078990Y-14018775D02*
G01*
X3084324Y-14029189D01*
X3099818Y-14044683D01*
X2990852Y-14044683D01*
X3099818Y-14131043D02*
G01*
X3027174Y-14078973D01*
X3027174Y-14156951D01*
X3099818Y-14131043D02*
G01*
X2990852Y-14131043D01*
X2617985Y-13055089D02*
G01*
X2612651Y-13044675D01*
X2602237Y-13034261D01*
X2592077Y-13029181D01*
X2571249Y-13029181D01*
X2560835Y-13034261D01*
X2550421Y-13044675D01*
X2545087Y-13055089D01*
X2540007Y-13070837D01*
X2540007Y-13096745D01*
X2545087Y-13112239D01*
X2550421Y-13122653D01*
X2560835Y-13133067D01*
X2571249Y-13138147D01*
X2592077Y-13138147D01*
X2602237Y-13133067D01*
X2612651Y-13122653D01*
X2617985Y-13112239D01*
X2657355Y-13055089D02*
G01*
X2657355Y-13050009D01*
X2662689Y-13039595D01*
X2667769Y-13034261D01*
X2678183Y-13029181D01*
X2699011Y-13029181D01*
X2709425Y-13034261D01*
X2714505Y-13039595D01*
X2719839Y-13050009D01*
X2719839Y-13060423D01*
X2714505Y-13070837D01*
X2704091Y-13086331D01*
X2652275Y-13138147D01*
X2724919Y-13138147D01*
X2832107Y-13029181D02*
G01*
X2780037Y-13138147D01*
X2759209Y-13029181D02*
G01*
X2832107Y-13029181D01*
X1841507Y-14299181D02*
G01*
X1841507Y-14408147D01*
X1841507Y-14299181D02*
G01*
X1877829Y-14299181D01*
X1893577Y-14304261D01*
X1903737Y-14314675D01*
X1909071Y-14325089D01*
X1914151Y-14340837D01*
X1914151Y-14366745D01*
X1909071Y-14382239D01*
X1903737Y-14392653D01*
X1893577Y-14403067D01*
X1877829Y-14408147D01*
X1841507Y-14408147D01*
X1948441Y-14320009D02*
G01*
X1958855Y-14314675D01*
X1974603Y-14299181D01*
X1974603Y-14408147D01*
X4242815Y-10541000D02*
G01*
X4133850Y-10541000D01*
X4242815Y-10541000D02*
G01*
X4242815Y-10577321D01*
X4237736Y-10593070D01*
X4227322Y-10603229D01*
X4216908Y-10608563D01*
X4201159Y-10613644D01*
X4175252Y-10613644D01*
X4159758Y-10608563D01*
X4149343Y-10603229D01*
X4138929Y-10593070D01*
X4133850Y-10577321D01*
X4133850Y-10541000D01*
X4216908Y-10653268D02*
G01*
X4221988Y-10653268D01*
X4232402Y-10658347D01*
X4237736Y-10663681D01*
X4242815Y-10674095D01*
X4242815Y-10694670D01*
X4237736Y-10705084D01*
X4232402Y-10710418D01*
X4221988Y-10715497D01*
X4211574Y-10715497D01*
X4201159Y-10710418D01*
X4185665Y-10700004D01*
X4133850Y-10647934D01*
X4133850Y-10720831D01*
X3988815Y-10541000D02*
G01*
X3879850Y-10541000D01*
X3988815Y-10541000D02*
G01*
X3988815Y-10577321D01*
X3983736Y-10593070D01*
X3973322Y-10603229D01*
X3962908Y-10608563D01*
X3947159Y-10613644D01*
X3921252Y-10613644D01*
X3905758Y-10608563D01*
X3895343Y-10603229D01*
X3884929Y-10593070D01*
X3879850Y-10577321D01*
X3879850Y-10541000D01*
X3988815Y-10658347D02*
G01*
X3988815Y-10715497D01*
X3947159Y-10684510D01*
X3947159Y-10700004D01*
X3942079Y-10710418D01*
X3937000Y-10715497D01*
X3921252Y-10720831D01*
X3910838Y-10720831D01*
X3895343Y-10715497D01*
X3884929Y-10705084D01*
X3879850Y-10689589D01*
X3879850Y-10674095D01*
X3884929Y-10658347D01*
X3890009Y-10653268D01*
X3900424Y-10647934D01*
X5792977Y-13182092D02*
G01*
X5787643Y-13171678D01*
X5777229Y-13161263D01*
X5767070Y-13156184D01*
X5746241Y-13156184D01*
X5735827Y-13161263D01*
X5725413Y-13171678D01*
X5720079Y-13182092D01*
X5715000Y-13197839D01*
X5715000Y-13223747D01*
X5720079Y-13239242D01*
X5725413Y-13249655D01*
X5735827Y-13260070D01*
X5746241Y-13265150D01*
X5767070Y-13265150D01*
X5777229Y-13260070D01*
X5787643Y-13249655D01*
X5792977Y-13239242D01*
X5792977Y-13223747D01*
X5767070Y-13223747D02*
G01*
X5792977Y-13223747D01*
X5827268Y-13156184D02*
G01*
X5827268Y-13265150D01*
X5827268Y-13156184D02*
G01*
X5899911Y-13265150D01*
X5899911Y-13156184D02*
G01*
X5899911Y-13265150D01*
X5934202Y-13156184D02*
G01*
X5934202Y-13265150D01*
X5934202Y-13156184D02*
G01*
X5970524Y-13156184D01*
X5986272Y-13161263D01*
X5996686Y-13171678D01*
X6001765Y-13182092D01*
X6007100Y-13197839D01*
X6007100Y-13223747D01*
X6001765Y-13239242D01*
X5996686Y-13249655D01*
X5986272Y-13260070D01*
X5970524Y-13265150D01*
X5934202Y-13265150D01*
X5143500Y-13918184D02*
G01*
X5143500Y-14027150D01*
X5177790Y-13918184D02*
G01*
X5177790Y-14027150D01*
X5177790Y-13918184D02*
G01*
X5250434Y-14027150D01*
X5250434Y-13918184D02*
G01*
X5250434Y-14027150D01*
X5321300Y-13918184D02*
G01*
X5321300Y-14027150D01*
X5284724Y-13918184D02*
G01*
X5357622Y-13918184D01*
X1956823Y-12953984D02*
G01*
X1847857Y-12953984D01*
X1847857Y-12953984D02*
G01*
X1847857Y-13016214D01*
X1930915Y-13055838D02*
G01*
X1935995Y-13055838D01*
X1946409Y-13060918D01*
X1951743Y-13066252D01*
X1956823Y-13076666D01*
X1956823Y-13097494D01*
X1951743Y-13107654D01*
X1946409Y-13112988D01*
X1935995Y-13118068D01*
X1925581Y-13118068D01*
X1915167Y-13112988D01*
X1899673Y-13102574D01*
X1847857Y-13050504D01*
X1847857Y-13123402D01*
X2349500Y-10425684D02*
G01*
X2349500Y-10534650D01*
X2349500Y-10425684D02*
G01*
X2396236Y-10425684D01*
X2411729Y-10430763D01*
X2417063Y-10436097D01*
X2422143Y-10446512D01*
X2422143Y-10462005D01*
X2417063Y-10472420D01*
X2411729Y-10477500D01*
X2396236Y-10482834D01*
X2349500Y-10482834D01*
X2456434Y-10425684D02*
G01*
X2456434Y-10534650D01*
X2456434Y-10425684D02*
G01*
X2523997Y-10425684D01*
X2456434Y-10477500D02*
G01*
X2498090Y-10477500D01*
X2456434Y-10534650D02*
G01*
X2523997Y-10534650D01*
X2599943Y-10425684D02*
G01*
X2558288Y-10534650D01*
X2599943Y-10425684D02*
G01*
X2641600Y-10534650D01*
X2574036Y-10498328D02*
G01*
X2625852Y-10498328D01*
X2675890Y-10425684D02*
G01*
X2675890Y-10534650D01*
X2748534Y-10425684D02*
G01*
X2675890Y-10498328D01*
X2701797Y-10472420D02*
G01*
X2748534Y-10534650D01*
X6719315Y-11620500D02*
G01*
X6610350Y-11620500D01*
X6719315Y-11620500D02*
G01*
X6719315Y-11667236D01*
X6714236Y-11682729D01*
X6708902Y-11688063D01*
X6698488Y-11693144D01*
X6682993Y-11693144D01*
X6672579Y-11688063D01*
X6667500Y-11682729D01*
X6662165Y-11667236D01*
X6662165Y-11620500D01*
X6703822Y-11800331D02*
G01*
X6714236Y-11789918D01*
X6719315Y-11774170D01*
X6719315Y-11753595D01*
X6714236Y-11737847D01*
X6703822Y-11727434D01*
X6693408Y-11727434D01*
X6682993Y-11732768D01*
X6677659Y-11737847D01*
X6672579Y-11748262D01*
X6662165Y-11779504D01*
X6657086Y-11789918D01*
X6651752Y-11794997D01*
X6641338Y-11800331D01*
X6625843Y-11800331D01*
X6615429Y-11789918D01*
X6610350Y-11774170D01*
X6610350Y-11753595D01*
X6615429Y-11737847D01*
X6625843Y-11727434D01*
X6719315Y-11834621D02*
G01*
X6641338Y-11834621D01*
X6625843Y-11839702D01*
X6615429Y-11850115D01*
X6610350Y-11865610D01*
X6610350Y-11876024D01*
X6615429Y-11891771D01*
X6625843Y-11902186D01*
X6641338Y-11907265D01*
X6719315Y-11907265D01*
X3036315Y-9144000D02*
G01*
X2927350Y-9144000D01*
X3036315Y-9144000D02*
G01*
X3036315Y-9190736D01*
X3031236Y-9206229D01*
X3025902Y-9211563D01*
X3015488Y-9216644D01*
X3005074Y-9216644D01*
X2994659Y-9211563D01*
X2989579Y-9206229D01*
X2984500Y-9190736D01*
X2984500Y-9144000D01*
X2984500Y-9180321D02*
G01*
X2927350Y-9216644D01*
X3036315Y-9261347D02*
G01*
X3036315Y-9318497D01*
X2994659Y-9287510D01*
X2994659Y-9303004D01*
X2989579Y-9313418D01*
X2984500Y-9318497D01*
X2968752Y-9323831D01*
X2958338Y-9323831D01*
X2942843Y-9318497D01*
X2932429Y-9308084D01*
X2927350Y-9292589D01*
X2927350Y-9277095D01*
X2932429Y-9261347D01*
X2937509Y-9256268D01*
X2947924Y-9250934D01*
X2147315Y-9334500D02*
G01*
X2038350Y-9334500D01*
X2147315Y-9334500D02*
G01*
X2147315Y-9381236D01*
X2142236Y-9396729D01*
X2136902Y-9402063D01*
X2126488Y-9407144D01*
X2116074Y-9407144D01*
X2105659Y-9402063D01*
X2100579Y-9396729D01*
X2095500Y-9381236D01*
X2095500Y-9334500D01*
X2095500Y-9370821D02*
G01*
X2038350Y-9407144D01*
X2147315Y-9493504D02*
G01*
X2074672Y-9441434D01*
X2074672Y-9519412D01*
X2147315Y-9493504D02*
G01*
X2038350Y-9493504D01*
X2147315Y-9715500D02*
G01*
X2038350Y-9715500D01*
X2147315Y-9715500D02*
G01*
X2147315Y-9762236D01*
X2142236Y-9777729D01*
X2136902Y-9783063D01*
X2126488Y-9788144D01*
X2116074Y-9788144D01*
X2105659Y-9783063D01*
X2100579Y-9777729D01*
X2095500Y-9762236D01*
X2095500Y-9715500D01*
X2095500Y-9751821D02*
G01*
X2038350Y-9788144D01*
X2147315Y-9848595D02*
G01*
X2142236Y-9832847D01*
X2131822Y-9827768D01*
X2121408Y-9827768D01*
X2110993Y-9832847D01*
X2105659Y-9843262D01*
X2100579Y-9864089D01*
X2095500Y-9879584D01*
X2085086Y-9889997D01*
X2074672Y-9895331D01*
X2058924Y-9895331D01*
X2048509Y-9889997D01*
X2043429Y-9884918D01*
X2038350Y-9869170D01*
X2038350Y-9848595D01*
X2043429Y-9832847D01*
X2048509Y-9827768D01*
X2058924Y-9822434D01*
X2074672Y-9822434D01*
X2085086Y-9827768D01*
X2095500Y-9838181D01*
X2100579Y-9853676D01*
X2105659Y-9874504D01*
X2110993Y-9884918D01*
X2121408Y-9889997D01*
X2131822Y-9889997D01*
X2142236Y-9884918D01*
X2147315Y-9869170D01*
X2147315Y-9848595D01*
X2718818Y-14287507D02*
G01*
X2609852Y-14287507D01*
X2718818Y-14287507D02*
G01*
X2718818Y-14334243D01*
X2713738Y-14349737D01*
X2708404Y-14355071D01*
X2697990Y-14360151D01*
X2687576Y-14360151D01*
X2677162Y-14355071D01*
X2672082Y-14349737D01*
X2667002Y-14334243D01*
X2667002Y-14287507D01*
X2667002Y-14323829D02*
G01*
X2609852Y-14360151D01*
X2697990Y-14394441D02*
G01*
X2703324Y-14404855D01*
X2718818Y-14420603D01*
X2609852Y-14420603D01*
X2718818Y-14485881D02*
G01*
X2713738Y-14470387D01*
X2697990Y-14459973D01*
X2672082Y-14454893D01*
X2656588Y-14454893D01*
X2630426Y-14459973D01*
X2614932Y-14470387D01*
X2609852Y-14485881D01*
X2609852Y-14496295D01*
X2614932Y-14512043D01*
X2630426Y-14522457D01*
X2656588Y-14527537D01*
X2672082Y-14527537D01*
X2697990Y-14522457D01*
X2713738Y-14512043D01*
X2718818Y-14496295D01*
X2718818Y-14485881D01*
X1841507Y-13791181D02*
G01*
X1841507Y-13900147D01*
X1841507Y-13791181D02*
G01*
X1888243Y-13791181D01*
X1903737Y-13796261D01*
X1909071Y-13801595D01*
X1914151Y-13812009D01*
X1914151Y-13822423D01*
X1909071Y-13832837D01*
X1903737Y-13837917D01*
X1888243Y-13842997D01*
X1841507Y-13842997D01*
X1877829Y-13842997D02*
G01*
X1914151Y-13900147D01*
X1948441Y-13812009D02*
G01*
X1958855Y-13806675D01*
X1974603Y-13791181D01*
X1974603Y-13900147D01*
X2019307Y-13791181D02*
G01*
X2076457Y-13791181D01*
X2045215Y-13832837D01*
X2060709Y-13832837D01*
X2071123Y-13837917D01*
X2076457Y-13842997D01*
X2081537Y-13858745D01*
X2081537Y-13869159D01*
X2076457Y-13884653D01*
X2066043Y-13895067D01*
X2050295Y-13900147D01*
X2034801Y-13900147D01*
X2019307Y-13895067D01*
X2013973Y-13889987D01*
X2008893Y-13879573D01*
X1448815Y-13271500D02*
G01*
X1339850Y-13271500D01*
X1448815Y-13271500D02*
G01*
X1448815Y-13318236D01*
X1443736Y-13333729D01*
X1438402Y-13339063D01*
X1427987Y-13344144D01*
X1417573Y-13344144D01*
X1407160Y-13339063D01*
X1402079Y-13333729D01*
X1397000Y-13318236D01*
X1397000Y-13271500D01*
X1397000Y-13307821D02*
G01*
X1339850Y-13344144D01*
X1427987Y-13378434D02*
G01*
X1433321Y-13388847D01*
X1448815Y-13404595D01*
X1339850Y-13404595D01*
X1448815Y-13501116D02*
G01*
X1448815Y-13449300D01*
X1402079Y-13443966D01*
X1407160Y-13449300D01*
X1412494Y-13464794D01*
X1412494Y-13480287D01*
X1407160Y-13496036D01*
X1397000Y-13506450D01*
X1381252Y-13511529D01*
X1370837Y-13511529D01*
X1355344Y-13506450D01*
X1344929Y-13496036D01*
X1339850Y-13480287D01*
X1339850Y-13464794D01*
X1344929Y-13449300D01*
X1350010Y-13443966D01*
X1360423Y-13438886D01*
X1778007Y-14045181D02*
G01*
X1778007Y-14154147D01*
X1778007Y-14045181D02*
G01*
X1824743Y-14045181D01*
X1840237Y-14050261D01*
X1845571Y-14055595D01*
X1850651Y-14066009D01*
X1850651Y-14076423D01*
X1845571Y-14086837D01*
X1840237Y-14091917D01*
X1824743Y-14096997D01*
X1778007Y-14096997D01*
X1814329Y-14096997D02*
G01*
X1850651Y-14154147D01*
X1890275Y-14071089D02*
G01*
X1890275Y-14066009D01*
X1895355Y-14055595D01*
X1900689Y-14050261D01*
X1911103Y-14045181D01*
X1931677Y-14045181D01*
X1942091Y-14050261D01*
X1947425Y-14055595D01*
X1952505Y-14066009D01*
X1952505Y-14076423D01*
X1947425Y-14086837D01*
X1937011Y-14102331D01*
X1884941Y-14154147D01*
X1957839Y-14154147D01*
X2002543Y-14045181D02*
G01*
X2059693Y-14045181D01*
X2028451Y-14086837D01*
X2043945Y-14086837D01*
X2054359Y-14091917D01*
X2059693Y-14096997D01*
X2064773Y-14112745D01*
X2064773Y-14123159D01*
X2059693Y-14138653D01*
X2049279Y-14149067D01*
X2033531Y-14154147D01*
X2018037Y-14154147D01*
X2002543Y-14149067D01*
X1997209Y-14143987D01*
X1992129Y-14133573D01*
X3873500Y-9600184D02*
G01*
X3873500Y-9709150D01*
X3873500Y-9600184D02*
G01*
X3920236Y-9600184D01*
X3935729Y-9605263D01*
X3941063Y-9610597D01*
X3946143Y-9621012D01*
X3946143Y-9631426D01*
X3941063Y-9641839D01*
X3935729Y-9646920D01*
X3920236Y-9652000D01*
X3873500Y-9652000D01*
X3909822Y-9652000D02*
G01*
X3946143Y-9709150D01*
X4032504Y-9600184D02*
G01*
X3980434Y-9672828D01*
X4058411Y-9672828D01*
X4032504Y-9600184D02*
G01*
X4032504Y-9709150D01*
X4098036Y-9626092D02*
G01*
X4098036Y-9621012D01*
X4103115Y-9610597D01*
X4108450Y-9605263D01*
X4118609Y-9600184D01*
X4139438Y-9600184D01*
X4149852Y-9605263D01*
X4155186Y-9610597D01*
X4160265Y-9621012D01*
X4160265Y-9631426D01*
X4155186Y-9641839D01*
X4144772Y-9657334D01*
X4092702Y-9709150D01*
X4165600Y-9709150D01*
X6477000Y-12584684D02*
G01*
X6477000Y-12662662D01*
X6482079Y-12678155D01*
X6492493Y-12688570D01*
X6508241Y-12693650D01*
X6518656Y-12693650D01*
X6534150Y-12688570D01*
X6544563Y-12678155D01*
X6549643Y-12662662D01*
X6549643Y-12584684D01*
X6646418Y-12584684D02*
G01*
X6594347Y-12584684D01*
X6589268Y-12631420D01*
X6594347Y-12626339D01*
X6610095Y-12621005D01*
X6625590Y-12621005D01*
X6641084Y-12626339D01*
X6651497Y-12636500D01*
X6656831Y-12652247D01*
X6656831Y-12662662D01*
X6651497Y-12678155D01*
X6641084Y-12688570D01*
X6625590Y-12693650D01*
X6610095Y-12693650D01*
X6594347Y-12688570D01*
X6589268Y-12683489D01*
X6583934Y-12673076D01*
X6391656Y-11124184D02*
G01*
X6350000Y-11233150D01*
X6391656Y-11124184D02*
G01*
X6433058Y-11233150D01*
X6365493Y-11196828D02*
G01*
X6417563Y-11196828D01*
X6467347Y-11124184D02*
G01*
X6467347Y-11233150D01*
X6467347Y-11124184D02*
G01*
X6509004Y-11233150D01*
X6550659Y-11124184D02*
G01*
X6509004Y-11233150D01*
X6550659Y-11124184D02*
G01*
X6550659Y-11233150D01*
X6584950Y-11124184D02*
G01*
X6584950Y-11233150D01*
X6584950Y-11124184D02*
G01*
X6631686Y-11124184D01*
X6647179Y-11129263D01*
X6652259Y-11134597D01*
X6657593Y-11145012D01*
X6657593Y-11160505D01*
X6652259Y-11170920D01*
X6647179Y-11176000D01*
X6631686Y-11181334D01*
X6584950Y-11181334D01*
X2819908Y-10110978D02*
G01*
X2830322Y-10105644D01*
X2840736Y-10095229D01*
X2845815Y-10085070D01*
X2845815Y-10064242D01*
X2840736Y-10053828D01*
X2830322Y-10043413D01*
X2819908Y-10038079D01*
X2804159Y-10033000D01*
X2778252Y-10033000D01*
X2762758Y-10038079D01*
X2752343Y-10043413D01*
X2741929Y-10053828D01*
X2736850Y-10064242D01*
X2736850Y-10085070D01*
X2741929Y-10095229D01*
X2752343Y-10105644D01*
X2762758Y-10110978D01*
X2824988Y-10145268D02*
G01*
X2830322Y-10155681D01*
X2845815Y-10171176D01*
X2736850Y-10171176D01*
X2845815Y-10215879D02*
G01*
X2845815Y-10273029D01*
X2804159Y-10241787D01*
X2804159Y-10257536D01*
X2799079Y-10267950D01*
X2794000Y-10273029D01*
X2778252Y-10278110D01*
X2767838Y-10278110D01*
X2752343Y-10273029D01*
X2741929Y-10262615D01*
X2736850Y-10247121D01*
X2736850Y-10231374D01*
X2741929Y-10215879D01*
X2747009Y-10210800D01*
X2757424Y-10205465D01*
X5778500Y-9854184D02*
G01*
X5778500Y-9932162D01*
X5783579Y-9947655D01*
X5793993Y-9958070D01*
X5809741Y-9963150D01*
X5820156Y-9963150D01*
X5835650Y-9958070D01*
X5846063Y-9947655D01*
X5851143Y-9932162D01*
X5851143Y-9854184D01*
X5885434Y-9875012D02*
G01*
X5895847Y-9869678D01*
X5911595Y-9854184D01*
X5911595Y-9963150D01*
X3619500Y-9409684D02*
G01*
X3619500Y-9487662D01*
X3624579Y-9503155D01*
X3634993Y-9513570D01*
X3650741Y-9518650D01*
X3661156Y-9518650D01*
X3676650Y-9513570D01*
X3687063Y-9503155D01*
X3692143Y-9487662D01*
X3692143Y-9409684D01*
X3793997Y-9446005D02*
G01*
X3788918Y-9461500D01*
X3778504Y-9471913D01*
X3763009Y-9477247D01*
X3757675Y-9477247D01*
X3742181Y-9471913D01*
X3731768Y-9461500D01*
X3726434Y-9446005D01*
X3726434Y-9440926D01*
X3731768Y-9425178D01*
X3742181Y-9414763D01*
X3757675Y-9409684D01*
X3763009Y-9409684D01*
X3778504Y-9414763D01*
X3788918Y-9425178D01*
X3793997Y-9446005D01*
X3793997Y-9471913D01*
X3788918Y-9498076D01*
X3778504Y-9513570D01*
X3763009Y-9518650D01*
X3752595Y-9518650D01*
X3736847Y-9513570D01*
X3731768Y-9503155D01*
X6655815Y-11366500D02*
G01*
X6546850Y-11366500D01*
X6655815Y-11439144D02*
G01*
X6546850Y-11439144D01*
X6604000Y-11366500D02*
G01*
X6604000Y-11439144D01*
X6634988Y-11473434D02*
G01*
X6640322Y-11483847D01*
X6655815Y-11499595D01*
X6546850Y-11499595D01*
D10*
X5181996Y-10427500D02*
G01*
X5181996Y-10302499D01*
X4978003Y-10427500D02*
G01*
X4978003Y-10302499D01*
X5181996Y-10527499D02*
G01*
X5181996Y-10652500D01*
X4978003Y-10527499D02*
G01*
X4978003Y-10652500D01*
X5181996Y-10302496D02*
G01*
X4978003Y-10302499D01*
X5181996Y-10652500D02*
G01*
X4978003Y-10652500D01*
X6145999Y-11023996D02*
G01*
X6271000Y-11023996D01*
X6145999Y-10820003D02*
G01*
X6271000Y-10820003D01*
X6046000Y-11023996D02*
G01*
X5920999Y-11023996D01*
X6046000Y-10820003D02*
G01*
X5920999Y-10820003D01*
X6271003Y-11023996D02*
G01*
X6271000Y-10820003D01*
X5920999Y-11023996D02*
G01*
X5920999Y-10820003D01*
X4927996Y-10427500D02*
G01*
X4927996Y-10302499D01*
X4724003Y-10427500D02*
G01*
X4724003Y-10302499D01*
X4927996Y-10527499D02*
G01*
X4927996Y-10652500D01*
X4724003Y-10527499D02*
G01*
X4724003Y-10652500D01*
X4927996Y-10302496D02*
G01*
X4724003Y-10302499D01*
X4927996Y-10652500D02*
G01*
X4724003Y-10652500D01*
X4673996Y-10427500D02*
G01*
X4673996Y-10302499D01*
X4470003Y-10427500D02*
G01*
X4470003Y-10302499D01*
X4673996Y-10527499D02*
G01*
X4673996Y-10652500D01*
X4470003Y-10527499D02*
G01*
X4470003Y-10652500D01*
X4673996Y-10302496D02*
G01*
X4470003Y-10302499D01*
X4673996Y-10652500D02*
G01*
X4470003Y-10652500D01*
X3657996Y-13539000D02*
G01*
X3657996Y-13413999D01*
X3454003Y-13539000D02*
G01*
X3454003Y-13413999D01*
X3657996Y-13638999D02*
G01*
X3657996Y-13764000D01*
X3454003Y-13638999D02*
G01*
X3454003Y-13764000D01*
X3657996Y-13413996D02*
G01*
X3454003Y-13413999D01*
X3657996Y-13764000D02*
G01*
X3454003Y-13764000D01*
X5665000Y-10502503D02*
G01*
X5539999Y-10502503D01*
X5665000Y-10706496D02*
G01*
X5539999Y-10706496D01*
X5764999Y-10502503D02*
G01*
X5890000Y-10502503D01*
X5764999Y-10706496D02*
G01*
X5890000Y-10706496D01*
X5539996Y-10502503D02*
G01*
X5539999Y-10706496D01*
X5890000Y-10502503D02*
G01*
X5890000Y-10706496D01*
X5308996Y-9221000D02*
G01*
X5308996Y-9095999D01*
X5105003Y-9221000D02*
G01*
X5105003Y-9095999D01*
X5308996Y-9320999D02*
G01*
X5308996Y-9446000D01*
X5105003Y-9320999D02*
G01*
X5105003Y-9446000D01*
X5308996Y-9095996D02*
G01*
X5105003Y-9095999D01*
X5308996Y-9446000D02*
G01*
X5105003Y-9446000D01*
X5387340Y-13614400D02*
G01*
X5232400Y-13614400D01*
X5232400Y-13817600D01*
X5387340Y-13817600D01*
X5466079Y-13611860D02*
G01*
X5613400Y-13611860D01*
X5654040Y-13652500D01*
X5654040Y-13779500D01*
X5615940Y-13817600D01*
X5463540Y-13817600D01*
X5411663Y-13766126D02*
G01*
X5411663Y-13666101D01*
X5421655Y-13716127D02*
G01*
X5448554Y-13716127D01*
X1689354Y-13798804D02*
G01*
X1689354Y-13643863D01*
X1486154Y-13643863D01*
X1486154Y-13798804D01*
X1691894Y-13877544D02*
G01*
X1691894Y-14024863D01*
X1651254Y-14065504D01*
X1524254Y-14065504D01*
X1486154Y-14027404D01*
X1486154Y-13875004D01*
X1537627Y-13823127D02*
G01*
X1637652Y-13823127D01*
X1587627Y-13833119D02*
G01*
X1587627Y-13860018D01*
X4161790Y-13245084D02*
G01*
X4199890Y-13245084D01*
X4237990Y-13245084D01*
X4199890Y-13245084D01*
X3755390Y-13042900D02*
G01*
X4288790Y-13042900D01*
X4288790Y-14008100D01*
X3755390Y-14008100D01*
X3755390Y-13042900D01*
X3770782Y-13050494D02*
G01*
X3790772Y-13050494D01*
X3790772Y-13126694D01*
X3770782Y-13126694D01*
X3770782Y-13050494D01*
X3770782Y-13924279D02*
G01*
X3790772Y-13924279D01*
X3790772Y-14000479D01*
X3770782Y-14000479D01*
X3770782Y-13924279D01*
X2140999Y-13382000D02*
G01*
X2140999Y-13541999D01*
X2431003Y-13382000D02*
G01*
X2431003Y-13541999D01*
X2241809Y-13382000D02*
G01*
X2330190Y-13382000D01*
D36*
X2637005Y-9424489D02*
G01*
X2696994Y-9424489D01*
D10*
X2521000Y-9351012D02*
G01*
X2521000Y-9269503D01*
X2586992Y-9269503D01*
X2747007Y-9269503D02*
G01*
X2812999Y-9269503D01*
X2747007Y-9269503D01*
X2812999Y-9269503D01*
X2812999Y-9351012D01*
D37*
X1063619Y-10696209D02*
G01*
X1192113Y-10696209D01*
X1192113Y-10512790D01*
X1063619Y-10512790D01*
X968380Y-10696209D02*
G01*
X839886Y-10696209D01*
X839886Y-10512790D01*
X968380Y-10512790D01*
X2504709Y-11191880D02*
G01*
X2504709Y-11063386D01*
X2321290Y-11063386D01*
X2321290Y-11191880D01*
X2504709Y-11287119D02*
G01*
X2504709Y-11415613D01*
X2321290Y-11415613D01*
X2321290Y-11287119D01*
X2758709Y-11191880D02*
G01*
X2758709Y-11063386D01*
X2575290Y-11063386D01*
X2575290Y-11191880D01*
X2758709Y-11287119D02*
G01*
X2758709Y-11415613D01*
X2575290Y-11415613D01*
X2575290Y-11287119D01*
X3266709Y-11191880D02*
G01*
X3266709Y-11063386D01*
X3083290Y-11063386D01*
X3083290Y-11191880D01*
X3266709Y-11287119D02*
G01*
X3266709Y-11415613D01*
X3083290Y-11415613D01*
X3083290Y-11287119D01*
D10*
X751992Y-12861010D02*
G01*
X751992Y-10761014D01*
X5851982Y-10761014D01*
X5851982Y-12861010D01*
X751992Y-12861010D01*
X621995Y-12210999D02*
G01*
X621995Y-11411000D01*
X1221994Y-11411000D01*
X1221994Y-12210999D01*
X621995Y-12210999D01*
X4452757Y-13807506D02*
G01*
X4632759Y-13807506D01*
X4452757Y-13692507D02*
G01*
X4452757Y-13612505D01*
X4452757Y-13497504D02*
G01*
X4632759Y-13497504D01*
D38*
X6286500Y-10033000D02*
G01*
X6032500Y-10033000D01*
X6032500Y-9779000D01*
X6286500Y-9779000D01*
X6286500Y-9969500D01*
D39*
X6286500Y-10033000D02*
G01*
X6286500Y-9969500D01*
D38*
X4572000Y-9461500D02*
G01*
X4318000Y-9461500D01*
X4318000Y-9207500D01*
X4572000Y-9207500D01*
X4572000Y-9398000D01*
D39*
X4572000Y-9461500D02*
G01*
X4572000Y-9398000D01*
D37*
X5170360Y-9960119D02*
G01*
X5170360Y-9819119D01*
X4989639Y-9819119D02*
G01*
X4989639Y-9960119D01*
X5004879Y-9975359D02*
G01*
X5155120Y-9975359D01*
X5170360Y-9597880D02*
G01*
X5170360Y-9738880D01*
X4989639Y-9738880D02*
G01*
X4989639Y-9597880D01*
X5004879Y-9582640D02*
G01*
X5155120Y-9582640D01*
D10*
X6047996Y-12462502D02*
G01*
X6047996Y-12302500D01*
X6398003Y-12462502D02*
G01*
X6398000Y-12302497D01*
X6173000Y-12278499D02*
G01*
X6068001Y-12278499D01*
X6173000Y-12486500D02*
G01*
X6068001Y-12486500D01*
X6272999Y-12278499D02*
G01*
X6377998Y-12278499D01*
X6272999Y-12486500D02*
G01*
X6377998Y-12486500D01*
X6398003Y-12464493D02*
G01*
X6398003Y-12462502D01*
X6398003Y-12466495D02*
G01*
X6398003Y-12462502D01*
X6398000Y-12298502D02*
G01*
X6398000Y-12302497D01*
X6047996Y-12466495D02*
G01*
X6047996Y-12462502D01*
X6047996Y-12298504D02*
G01*
X6047996Y-12302500D01*
D37*
X2630360Y-10023619D02*
G01*
X2630360Y-9882619D01*
X2449639Y-9882619D02*
G01*
X2449639Y-10023619D01*
X2464879Y-10038859D02*
G01*
X2615120Y-10038859D01*
X2630360Y-9661380D02*
G01*
X2630360Y-9802380D01*
X2449639Y-9802380D02*
G01*
X2449639Y-9661380D01*
X2464879Y-9646140D02*
G01*
X2615120Y-9646140D01*
D10*
X1570997Y-10302496D02*
G01*
X1730999Y-10302496D01*
X1570997Y-10652503D02*
G01*
X1731002Y-10652500D01*
X1755000Y-10427500D02*
G01*
X1755000Y-10322501D01*
X1546999Y-10427500D02*
G01*
X1546999Y-10322501D01*
X1755000Y-10527499D02*
G01*
X1755000Y-10632498D01*
X1546999Y-10527499D02*
G01*
X1546999Y-10632498D01*
X1569006Y-10652503D02*
G01*
X1570997Y-10652503D01*
X1567004Y-10652503D02*
G01*
X1570997Y-10652503D01*
X1734997Y-10652500D02*
G01*
X1731002Y-10652500D01*
X1567004Y-10302496D02*
G01*
X1570997Y-10302496D01*
X1734995Y-10302496D02*
G01*
X1730999Y-10302496D01*
X3636002Y-13383003D02*
G01*
X3476000Y-13383003D01*
X3636002Y-13032996D02*
G01*
X3475997Y-13032999D01*
X3451999Y-13257999D02*
G01*
X3451999Y-13362998D01*
X3660000Y-13257999D02*
G01*
X3660000Y-13362998D01*
X3451999Y-13158000D02*
G01*
X3451999Y-13053001D01*
X3660000Y-13158000D02*
G01*
X3660000Y-13053001D01*
X3637993Y-13032996D02*
G01*
X3636002Y-13032996D01*
X3639995Y-13032996D02*
G01*
X3636002Y-13032996D01*
X3472002Y-13032999D02*
G01*
X3475997Y-13032999D01*
X3639995Y-13383003D02*
G01*
X3636002Y-13383003D01*
X3472004Y-13383003D02*
G01*
X3476000Y-13383003D01*
X4906002Y-9954003D02*
G01*
X4746000Y-9954003D01*
X4906002Y-9603996D02*
G01*
X4745997Y-9603999D01*
X4721999Y-9828999D02*
G01*
X4721999Y-9933998D01*
X4930000Y-9828999D02*
G01*
X4930000Y-9933998D01*
X4721999Y-9729000D02*
G01*
X4721999Y-9624001D01*
X4930000Y-9729000D02*
G01*
X4930000Y-9624001D01*
X4907993Y-9603996D02*
G01*
X4906002Y-9603996D01*
X4909995Y-9603996D02*
G01*
X4906002Y-9603996D01*
X4742002Y-9603999D02*
G01*
X4745997Y-9603999D01*
X4909995Y-9954003D02*
G01*
X4906002Y-9954003D01*
X4742004Y-9954003D02*
G01*
X4746000Y-9954003D01*
X5037261Y-13817996D02*
G01*
X5162262Y-13817996D01*
X5037261Y-13614003D02*
G01*
X5162262Y-13614003D01*
X4937262Y-13817996D02*
G01*
X4812261Y-13817996D01*
X4937262Y-13614003D02*
G01*
X4812261Y-13614003D01*
X5162265Y-13817996D02*
G01*
X5162262Y-13614003D01*
X4812261Y-13817996D02*
G01*
X4812261Y-13614003D01*
X3342500Y-10121503D02*
G01*
X3217499Y-10121503D01*
X3342500Y-10325496D02*
G01*
X3217499Y-10325496D01*
X3442500Y-10121503D02*
G01*
X3567501Y-10121503D01*
X3442500Y-10325496D02*
G01*
X3567501Y-10325496D01*
X3217496Y-10121503D02*
G01*
X3217499Y-10325496D01*
X3567501Y-10121503D02*
G01*
X3567501Y-10325496D01*
X6526999Y-11023996D02*
G01*
X6652000Y-11023996D01*
X6526999Y-10820003D02*
G01*
X6652000Y-10820003D01*
X6427000Y-11023996D02*
G01*
X6301999Y-11023996D01*
X6427000Y-10820003D02*
G01*
X6301999Y-10820003D01*
X6652003Y-11023996D02*
G01*
X6652000Y-10820003D01*
X6301999Y-11023996D02*
G01*
X6301999Y-10820003D01*
X5701499Y-9372996D02*
G01*
X5826500Y-9372996D01*
X5701499Y-9169003D02*
G01*
X5826500Y-9169003D01*
X5601500Y-9372996D02*
G01*
X5476499Y-9372996D01*
X5601500Y-9169003D02*
G01*
X5476499Y-9169003D01*
X5826503Y-9372996D02*
G01*
X5826500Y-9169003D01*
X5476499Y-9372996D02*
G01*
X5476499Y-9169003D01*
X6057503Y-10527499D02*
G01*
X6057503Y-10652500D01*
X6261496Y-10527499D02*
G01*
X6261496Y-10652500D01*
X6057503Y-10427500D02*
G01*
X6057503Y-10302499D01*
X6261496Y-10427500D02*
G01*
X6261496Y-10302499D01*
X6057503Y-10652503D02*
G01*
X6261496Y-10652500D01*
X6057503Y-10302499D02*
G01*
X6261496Y-10302499D01*
X1796999Y-10527499D02*
G01*
X1796999Y-10632498D01*
X2013000Y-10527499D02*
G01*
X2013000Y-10632498D01*
X1796999Y-10427500D02*
G01*
X1796999Y-10322501D01*
X2013000Y-10427500D02*
G01*
X2013000Y-10322501D01*
X1815002Y-10655498D02*
G01*
X1994999Y-10655498D01*
X1815002Y-10299501D02*
G01*
X1994999Y-10299501D01*
X1796999Y-10322501D02*
G01*
X1796999Y-10317502D01*
X1815000Y-10299501D01*
X1796999Y-10632498D02*
G01*
X1796999Y-10637494D01*
X1815002Y-10655498D01*
X2013000Y-10322501D02*
G01*
X2013000Y-10317502D01*
X1994999Y-10299501D01*
X2013000Y-10632498D02*
G01*
X2013000Y-10637497D01*
X1994999Y-10655498D01*
X3348997Y-9095996D02*
G01*
X3508999Y-9095996D01*
X3348997Y-9446003D02*
G01*
X3509002Y-9446000D01*
X3533000Y-9221000D02*
G01*
X3533000Y-9116001D01*
X3324999Y-9221000D02*
G01*
X3324999Y-9116001D01*
X3533000Y-9320999D02*
G01*
X3533000Y-9425998D01*
X3324999Y-9320999D02*
G01*
X3324999Y-9425998D01*
X3347006Y-9446003D02*
G01*
X3348997Y-9446003D01*
X3345004Y-9446003D02*
G01*
X3348997Y-9446003D01*
X3512997Y-9446000D02*
G01*
X3509002Y-9446000D01*
X3345004Y-9095996D02*
G01*
X3348997Y-9095996D01*
X3512995Y-9095996D02*
G01*
X3508999Y-9095996D01*
X6047996Y-12970502D02*
G01*
X6047996Y-12810500D01*
X6398003Y-12970502D02*
G01*
X6398000Y-12810497D01*
X6173000Y-12786499D02*
G01*
X6068001Y-12786499D01*
X6173000Y-12994500D02*
G01*
X6068001Y-12994500D01*
X6272999Y-12786499D02*
G01*
X6377998Y-12786499D01*
X6272999Y-12994500D02*
G01*
X6377998Y-12994500D01*
X6398003Y-12972493D02*
G01*
X6398003Y-12970502D01*
X6398003Y-12974495D02*
G01*
X6398003Y-12970502D01*
X6398000Y-12806502D02*
G01*
X6398000Y-12810497D01*
X6047996Y-12974495D02*
G01*
X6047996Y-12970502D01*
X6047996Y-12806504D02*
G01*
X6047996Y-12810500D01*
X4367758Y-14050002D02*
G01*
X4367758Y-13890000D01*
X4717765Y-14050002D02*
G01*
X4717762Y-13889997D01*
X4492762Y-13865999D02*
G01*
X4387763Y-13865999D01*
X4492762Y-14074000D02*
G01*
X4387763Y-14074000D01*
X4592761Y-13865999D02*
G01*
X4697760Y-13865999D01*
X4592761Y-14074000D02*
G01*
X4697760Y-14074000D01*
X4717765Y-14051993D02*
G01*
X4717765Y-14050002D01*
X4717765Y-14053995D02*
G01*
X4717765Y-14050002D01*
X4717762Y-13886002D02*
G01*
X4717762Y-13889997D01*
X4367758Y-14053995D02*
G01*
X4367758Y-14050002D01*
X4367758Y-13886004D02*
G01*
X4367758Y-13890000D01*
X2777497Y-13858496D02*
G01*
X2937499Y-13858496D01*
X2777497Y-14208503D02*
G01*
X2937502Y-14208500D01*
X2961500Y-13983500D02*
G01*
X2961500Y-13878501D01*
X2753499Y-13983500D02*
G01*
X2753499Y-13878501D01*
X2961500Y-14083499D02*
G01*
X2961500Y-14188498D01*
X2753499Y-14083499D02*
G01*
X2753499Y-14188498D01*
X2775506Y-14208503D02*
G01*
X2777497Y-14208503D01*
X2773504Y-14208503D02*
G01*
X2777497Y-14208503D01*
X2941497Y-14208500D02*
G01*
X2937502Y-14208500D01*
X2773504Y-13858496D02*
G01*
X2777497Y-13858496D01*
X2941495Y-13858496D02*
G01*
X2937499Y-13858496D01*
X2461003Y-13000997D02*
G01*
X2461003Y-13160999D01*
X2110996Y-13000997D02*
G01*
X2110999Y-13161002D01*
X2335999Y-13185000D02*
G01*
X2440998Y-13185000D01*
X2335999Y-12976999D02*
G01*
X2440998Y-12976999D01*
X2236000Y-13185000D02*
G01*
X2131001Y-13185000D01*
X2236000Y-12976999D02*
G01*
X2131001Y-12976999D01*
X2110996Y-12999006D02*
G01*
X2110996Y-13000997D01*
X2110996Y-12997004D02*
G01*
X2110996Y-13000997D01*
X2110999Y-13164997D02*
G01*
X2110999Y-13161002D01*
X2461003Y-12997004D02*
G01*
X2461003Y-13000997D01*
X2461003Y-13164995D02*
G01*
X2461003Y-13160999D01*
X2303779Y-14351000D02*
G01*
X2245359Y-14391639D01*
X2245359Y-14391639D02*
G01*
X2245359Y-14310360D01*
X2245359Y-14310360D02*
G01*
X2303779Y-14351000D01*
X2435999Y-14450999D02*
G01*
X2136000Y-14450999D01*
X2136000Y-14251000D02*
G01*
X2435999Y-14251000D01*
X2326640Y-14401800D02*
G01*
X2326640Y-14300200D01*
X4191000Y-10205720D02*
G01*
X4231640Y-10264139D01*
X4231640Y-10264139D02*
G01*
X4150359Y-10264139D01*
X4150359Y-10264139D02*
G01*
X4191000Y-10205720D01*
X4290999Y-10073500D02*
G01*
X4290999Y-10373499D01*
X4091000Y-10373499D02*
G01*
X4091000Y-10073500D01*
X4241800Y-10182860D02*
G01*
X4140200Y-10182860D01*
X3937000Y-10241279D02*
G01*
X3896359Y-10182860D01*
X3896359Y-10182860D02*
G01*
X3977640Y-10182860D01*
X3977640Y-10182860D02*
G01*
X3937000Y-10241279D01*
X3837000Y-10373499D02*
G01*
X3837000Y-10073500D01*
X4036999Y-10073500D02*
G01*
X4036999Y-10373499D01*
X3886200Y-10264139D02*
G01*
X3987800Y-10264139D01*
D38*
X5651500Y-13335000D02*
G01*
X5397500Y-13335000D01*
X5397500Y-13081000D01*
X5651500Y-13081000D01*
X5651500Y-13271500D01*
D39*
X5651500Y-13335000D02*
G01*
X5651500Y-13271500D01*
D38*
X5080000Y-13843000D02*
G01*
X5080000Y-14097000D01*
X4826000Y-14097000D01*
X4826000Y-13843000D01*
X5016500Y-13843000D01*
D39*
X5080000Y-13843000D02*
G01*
X5016500Y-13843000D01*
D10*
X1805000Y-13711999D02*
G01*
X2004999Y-13711999D01*
X2030003Y-13361995D02*
G01*
X2030003Y-13232000D01*
X1779996Y-13361995D02*
G01*
X1779996Y-13232000D01*
X2030003Y-13562002D02*
G01*
X2030003Y-13691999D01*
X1779996Y-13562002D02*
G01*
X1779996Y-13691999D01*
X1805000Y-13211997D02*
G01*
X2004999Y-13211997D01*
X1805000Y-13711999D02*
G01*
X1799996Y-13711999D01*
X1779996Y-13691999D01*
X1805000Y-13211997D02*
G01*
X1799998Y-13211997D01*
X1779996Y-13232000D01*
X2004999Y-13211997D02*
G01*
X2010001Y-13211997D01*
X2030003Y-13232000D01*
X2004999Y-13711999D02*
G01*
X2010003Y-13711999D01*
X2030003Y-13691999D01*
D38*
X3048000Y-10350500D02*
G01*
X3048000Y-10604500D01*
X2794000Y-10604500D01*
X2794000Y-10350500D01*
X2984500Y-10350500D01*
D39*
X3048000Y-10350500D02*
G01*
X2984500Y-10350500D01*
D38*
X6794500Y-12192000D02*
G01*
X6540500Y-12192000D01*
X6540500Y-11938000D01*
X6794500Y-11938000D01*
X6794500Y-12128500D01*
D39*
X6794500Y-12192000D02*
G01*
X6794500Y-12128500D01*
D10*
X3073003Y-9320999D02*
G01*
X3073003Y-9446000D01*
X3276996Y-9320999D02*
G01*
X3276996Y-9446000D01*
X3073003Y-9221000D02*
G01*
X3073003Y-9095999D01*
X3276996Y-9221000D02*
G01*
X3276996Y-9095999D01*
X3073003Y-9446003D02*
G01*
X3276996Y-9446000D01*
X3073003Y-9095999D02*
G01*
X3276996Y-9095999D01*
X2387996Y-9348000D02*
G01*
X2387996Y-9222999D01*
X2184003Y-9348000D02*
G01*
X2184003Y-9222999D01*
X2387996Y-9447999D02*
G01*
X2387996Y-9573000D01*
X2184003Y-9447999D02*
G01*
X2184003Y-9573000D01*
X2387996Y-9222996D02*
G01*
X2184003Y-9222999D01*
X2387996Y-9573000D02*
G01*
X2184003Y-9573000D01*
X2387996Y-9729000D02*
G01*
X2387996Y-9603999D01*
X2184003Y-9729000D02*
G01*
X2184003Y-9603999D01*
X2387996Y-9828999D02*
G01*
X2387996Y-9954000D01*
X2184003Y-9828999D02*
G01*
X2184003Y-9954000D01*
X2387996Y-9603996D02*
G01*
X2184003Y-9603999D01*
X2387996Y-9954000D02*
G01*
X2184003Y-9954000D01*
X2705496Y-13983500D02*
G01*
X2705496Y-13858499D01*
X2501503Y-13983500D02*
G01*
X2501503Y-13858499D01*
X2705496Y-14083499D02*
G01*
X2705496Y-14208500D01*
X2501503Y-14083499D02*
G01*
X2501503Y-14208500D01*
X2705496Y-13858496D02*
G01*
X2501503Y-13858499D01*
X2705496Y-14208500D02*
G01*
X2501503Y-14208500D01*
X2236000Y-13741003D02*
G01*
X2110999Y-13741003D01*
X2236000Y-13944996D02*
G01*
X2110999Y-13944996D01*
X2335999Y-13741003D02*
G01*
X2461000Y-13741003D01*
X2335999Y-13944996D02*
G01*
X2461000Y-13944996D01*
X2110996Y-13741003D02*
G01*
X2110999Y-13944996D01*
X2461000Y-13741003D02*
G01*
X2461000Y-13944996D01*
X1485503Y-13448499D02*
G01*
X1485503Y-13573500D01*
X1689496Y-13448499D02*
G01*
X1689496Y-13573500D01*
X1485503Y-13348500D02*
G01*
X1485503Y-13223499D01*
X1689496Y-13348500D02*
G01*
X1689496Y-13223499D01*
X1485503Y-13573503D02*
G01*
X1689496Y-13573500D01*
X1485503Y-13223499D02*
G01*
X1689496Y-13223499D01*
X2236000Y-13995003D02*
G01*
X2110999Y-13995003D01*
X2236000Y-14198996D02*
G01*
X2110999Y-14198996D01*
X2335999Y-13995003D02*
G01*
X2461000Y-13995003D01*
X2335999Y-14198996D02*
G01*
X2461000Y-14198996D01*
X2110996Y-13995003D02*
G01*
X2110999Y-14198996D01*
X2461000Y-13995003D02*
G01*
X2461000Y-14198996D01*
X4050499Y-9944496D02*
G01*
X4175500Y-9944496D01*
X4050499Y-9740503D02*
G01*
X4175500Y-9740503D01*
X3950500Y-9944496D02*
G01*
X3825499Y-9944496D01*
X3950500Y-9740503D02*
G01*
X3825499Y-9740503D01*
X4175503Y-9944496D02*
G01*
X4175500Y-9740503D01*
X3825499Y-9944496D02*
G01*
X3825499Y-9740503D01*
X6173000Y-12528499D02*
G01*
X6068001Y-12528499D01*
X6173000Y-12744500D02*
G01*
X6068001Y-12744500D01*
X6272999Y-12528499D02*
G01*
X6377998Y-12528499D01*
X6272999Y-12744500D02*
G01*
X6377998Y-12744500D01*
X6045001Y-12546502D02*
G01*
X6045001Y-12726499D01*
X6400998Y-12546502D02*
G01*
X6400998Y-12726499D01*
X6377998Y-12528499D02*
G01*
X6382997Y-12528499D01*
X6400998Y-12546500D01*
X6068001Y-12528499D02*
G01*
X6063005Y-12528499D01*
X6045001Y-12546502D01*
X6377998Y-12744500D02*
G01*
X6382997Y-12744500D01*
X6400998Y-12726499D01*
X6068001Y-12744500D02*
G01*
X6063002Y-12744500D01*
X6045001Y-12726499D01*
D38*
X6286500Y-11366500D02*
G01*
X6032500Y-11366500D01*
X6032500Y-11112500D01*
X6286500Y-11112500D01*
X6286500Y-11303000D01*
D39*
X6286500Y-11366500D02*
G01*
X6286500Y-11303000D01*
D10*
X2713997Y-9667496D02*
G01*
X2873999Y-9667496D01*
X2713997Y-10017503D02*
G01*
X2874002Y-10017500D01*
X2898000Y-9792500D02*
G01*
X2898000Y-9687501D01*
X2689999Y-9792500D02*
G01*
X2689999Y-9687501D01*
X2898000Y-9892499D02*
G01*
X2898000Y-9997498D01*
X2689999Y-9892499D02*
G01*
X2689999Y-9997498D01*
X2712006Y-10017503D02*
G01*
X2713997Y-10017503D01*
X2710004Y-10017503D02*
G01*
X2713997Y-10017503D01*
X2877997Y-10017500D02*
G01*
X2874002Y-10017500D01*
X2710004Y-9667496D02*
G01*
X2713997Y-9667496D01*
X2877995Y-9667496D02*
G01*
X2873999Y-9667496D01*
D37*
X5208379Y-10058140D02*
G01*
X5208379Y-9753859D01*
X5713620Y-9753859D01*
X5713620Y-10058140D01*
X5208379Y-10058140D01*
X3517640Y-10031620D02*
G01*
X3213359Y-10031620D01*
X3213359Y-9526379D01*
X3517640Y-9526379D01*
X3517640Y-10031620D01*
D10*
X5969000Y-11407000D02*
G01*
X6477000Y-11407000D01*
X5969000Y-12214999D02*
G01*
X5969000Y-11407000D01*
X6477000Y-12214999D02*
G01*
X6477000Y-11407000D01*
X6222293Y-12214999D02*
G01*
X6222293Y-11938000D01*
X6477000Y-11938000D01*
X5969000Y-12214999D02*
G01*
X6477000Y-12214999D01*
G75*
G01*
X4253738Y-13245084D02*
G03*
X4253738Y-13246100I-53879J-508D01*
D37*
G75*
G01*
X4989640Y-9960120D02*
G03*
X5004879Y-9975360I15240J0D01*
G75*
G01*
X5155121Y-9975360D02*
G03*
X5170360Y-9960120I-1J15240D01*
G75*
G01*
X4989640Y-9597880D02*
G02*
X5004879Y-9582640I15240J0D01*
G75*
G01*
X5155121Y-9582640D02*
G02*
X5170360Y-9597880I-1J-15240D01*
D10*
G75*
G01*
X6377998Y-12486500D02*
G03*
X6398003Y-12466495I0J20005D01*
G75*
G01*
X6377998Y-12278500D02*
G02*
X6398001Y-12298502I0J-20002D01*
G75*
G01*
X6068002Y-12486500D02*
G02*
X6047997Y-12466495I0J20005D01*
G75*
G01*
X6068002Y-12278500D02*
G03*
X6047997Y-12298505I0J-20005D01*
D37*
G75*
G01*
X2449640Y-10023620D02*
G03*
X2464879Y-10038860I15240J0D01*
G75*
G01*
X2615121Y-10038860D02*
G03*
X2630360Y-10023620I-1J15240D01*
G75*
G01*
X2449640Y-9661380D02*
G02*
X2464879Y-9646140I15240J0D01*
G75*
G01*
X2615121Y-9646140D02*
G02*
X2630360Y-9661380I-1J-15240D01*
D10*
G75*
G01*
X1547000Y-10632498D02*
G03*
X1567005Y-10652503I20005J0D01*
G75*
G01*
X1755000Y-10632498D02*
G02*
X1734998Y-10652501I-20002J0D01*
G75*
G01*
X1547000Y-10322502D02*
G02*
X1567005Y-10302497I20005J0D01*
G75*
G01*
X1755000Y-10322502D02*
G03*
X1734995Y-10302497I-20005J0D01*
G75*
G01*
X3660000Y-13053002D02*
G03*
X3639995Y-13032997I-20005J0D01*
G75*
G01*
X3452000Y-13053002D02*
G02*
X3472002Y-13032999I20002J0D01*
G75*
G01*
X3660000Y-13362998D02*
G02*
X3639995Y-13383003I-20005J0D01*
G75*
G01*
X3452000Y-13362998D02*
G03*
X3472005Y-13383003I20005J0D01*
G75*
G01*
X4930000Y-9624002D02*
G03*
X4909995Y-9603997I-20005J0D01*
G75*
G01*
X4722000Y-9624002D02*
G02*
X4742002Y-9603999I20002J0D01*
G75*
G01*
X4930000Y-9933998D02*
G02*
X4909995Y-9954003I-20005J0D01*
G75*
G01*
X4722000Y-9933998D02*
G03*
X4742005Y-9954003I20005J0D01*
G75*
G01*
X3325000Y-9425998D02*
G03*
X3345005Y-9446003I20005J0D01*
G75*
G01*
X3533000Y-9425998D02*
G02*
X3512998Y-9446001I-20002J0D01*
G75*
G01*
X3325000Y-9116002D02*
G02*
X3345005Y-9095997I20005J0D01*
G75*
G01*
X3533000Y-9116002D02*
G03*
X3512995Y-9095997I-20005J0D01*
G75*
G01*
X6377998Y-12994500D02*
G03*
X6398003Y-12974495I0J20005D01*
G75*
G01*
X6377998Y-12786500D02*
G02*
X6398001Y-12806502I0J-20002D01*
G75*
G01*
X6068002Y-12994500D02*
G02*
X6047997Y-12974495I0J20005D01*
G75*
G01*
X6068002Y-12786500D02*
G03*
X6047997Y-12806505I0J-20005D01*
G75*
G01*
X4697760Y-14074000D02*
G03*
X4717766Y-14053995I0J20005D01*
G75*
G01*
X4697760Y-13866000D02*
G02*
X4717763Y-13886002I0J-20002D01*
G75*
G01*
X4387764Y-14074000D02*
G02*
X4367759Y-14053995I0J20005D01*
G75*
G01*
X4387764Y-13866000D02*
G03*
X4367759Y-13886005I0J-20005D01*
G75*
G01*
X2753500Y-14188498D02*
G03*
X2773505Y-14208503I20005J0D01*
G75*
G01*
X2961500Y-14188498D02*
G02*
X2941498Y-14208501I-20002J0D01*
G75*
G01*
X2753500Y-13878502D02*
G02*
X2773505Y-13858497I20005J0D01*
G75*
G01*
X2961500Y-13878502D02*
G03*
X2941495Y-13858497I-20005J0D01*
G75*
G01*
X2131002Y-12977000D02*
G03*
X2110997Y-12997005I0J-20005D01*
G75*
G01*
X2131002Y-13185000D02*
G02*
X2110999Y-13164998I0J20002D01*
G75*
G01*
X2440998Y-12977000D02*
G02*
X2461003Y-12997005I0J-20005D01*
G75*
G01*
X2440998Y-13185000D02*
G03*
X2461003Y-13164995I0J20005D01*
G75*
G01*
X2690000Y-9997498D02*
G03*
X2710005Y-10017503I20005J0D01*
G75*
G01*
X2898000Y-9997498D02*
G02*
X2877998Y-10017501I-20002J0D01*
G75*
G01*
X2690000Y-9687502D02*
G02*
X2710005Y-9667497I20005J0D01*
G75*
G01*
X2898000Y-9687502D02*
G03*
X2877995Y-9667497I-20005J0D01*
G75*
G01
X2133422Y-13597001D02*
G03X2133422Y-13597001I-6401J0D01*
G75*
G01
X1056996Y-12381001D02*
G03X1056996Y-12381001I-105004J0D01*
G75*
G01
X1056996Y-11240999D02*
G03X1056996Y-11240999I-105004J0D01*
G75*
G01
X5757012Y-12381001D02*
G03X5757012Y-12381001I-105004J0D01*
G75*
G01
X5757012Y-11240999D02*
G03X5757012Y-11240999I-105004J0D01*
G75*
G01
X4707839Y-13817600D02*
G03X4707839Y-13817600I-12700J0D01*
D13*
G75*
G01
X5272811Y-10007600D02*
G03X5272811Y-10007600I-15011J0D01*
G75*
G01
X5211572Y-10182911D02*
G03X5211572Y-10182911I-15011J0D01*
G75*
G01
X3482111Y-9982200D02*
G03X3482111Y-9982200I-15011J0D01*
G75*
G01
X3657422Y-10043439D02*
G03X3657422Y-10043439I-15011J0D01*
M02*
