G04 Layer: BottomSolderMaskLayer*
G04 EasyEDA v6.5.42, 2024-03-29 12:16:20*
G04 9a5be75d700b4a6385dc1106f27949ae,10*
G04 Gerber Generator version 0.2*
G04 Scale: 100 percent, Rotated: No, Reflected: No *
G04 Dimensions in millimeters *
G04 leading zeros omitted , absolute positions ,4 integer and 5 decimal *
%FSLAX45Y45*%
%MOMM*%

%AMMACRO1*4,1,5,-0.4826,-0.6078,-0.4826,0.1654,0,0.6078,0.4826,0.1654,0.4826,-0.6078,-0.4826,-0.6078,0*%
%AMMACRO2*4,1,5,-0.4826,-0.594,-0.4826,0.594,0.4826,0.594,0.4826,-0.594,0,-0.1518,-0.4826,-0.594,0*%
%AMMACRO3*1,1,$1,$2,$3*1,1,$1,$4,$5*1,1,$1,0-$2,0-$3*1,1,$1,0-$4,0-$5*20,1,$1,$2,$3,$4,$5,0*20,1,$1,$4,$5,0-$2,0-$3,0*20,1,$1,0-$2,0-$3,0-$4,0-$5,0*20,1,$1,0-$4,0-$5,$2,$3,0*4,1,4,$2,$3,$4,$5,0-$2,0-$3,0-$4,0-$5,$2,$3,0*%
%ADD10C,0.7016*%
%ADD11MACRO1*%
%ADD12MACRO2*%
%ADD13R,1.8016X1.8016*%
%ADD14C,1.8016*%
%ADD15C,2.3000*%
%ADD16C,2.1000*%
%ADD17C,1.6256*%
%ADD18MACRO3,0.1016X-0.7874X0.85X0.7874X0.85*%
%ADD19MACRO3,0.1016X0.7874X0.7874X0.7874X-0.7874*%
%ADD20C,5.6016*%

%LPD*%
G36*
X177800Y-76200D02*
G01*
X127000Y-127000D01*
X127000Y-149199D01*
X76200Y-199999D01*
X76200Y-254000D01*
X99974Y-249986D01*
X249986Y-99974D01*
X254000Y-76200D01*
G37*
G36*
X76200Y-4749800D02*
G01*
X76200Y-4799990D01*
X150114Y-4873904D01*
X150114Y-4899863D01*
X177850Y-4927600D01*
X300024Y-4927600D01*
X300024Y-4849977D01*
X150012Y-4750003D01*
G37*
G36*
X7010349Y-4674971D02*
G01*
X6949998Y-4700016D01*
X6757771Y-4927600D01*
X6925005Y-4927600D01*
X7010349Y-4842205D01*
G37*
G36*
X6756400Y-76200D02*
G01*
X6749999Y-99974D01*
X6949998Y-300024D01*
X7010349Y-330149D01*
X7010349Y-126949D01*
X6959600Y-76200D01*
G37*
G36*
X6999986Y-99974D02*
G01*
X6999986Y-4999990D01*
X7049973Y-4999990D01*
X7049973Y-99974D01*
G37*
G36*
X0Y0D02*
G01*
X0Y-99974D01*
X7049973Y-99974D01*
X7049973Y0D01*
G37*
G36*
X0Y-49987D02*
G01*
X0Y-4950002D01*
X99974Y-4950002D01*
X99974Y-49987D01*
G37*
G36*
X0Y-4899964D02*
G01*
X0Y-4999990D01*
X7049973Y-4999990D01*
X7049973Y-4899964D01*
G37*
D10*
X76200Y-4749800D02*
G01*
X76200Y-279400D01*
X76200Y-4749800D02*
G01*
X76200Y-279400D01*
X6959600Y-4927600D02*
G01*
X254000Y-4927600D01*
X254000Y-4927600D02*
G01*
X177825Y-4927600D01*
X127000Y-4876774D01*
X76200Y-4749800D02*
G01*
X76200Y-4825974D01*
X127000Y-4876774D01*
X76200Y-279400D02*
G01*
X76200Y-177800D01*
X127000Y-127000D01*
X254000Y-76200D02*
G01*
X177800Y-76200D01*
X127000Y-127000D01*
X7010374Y-254000D02*
G01*
X7010374Y-126974D01*
X6959600Y-76200D01*
X7010374Y-4724400D02*
G01*
X7010374Y-4876825D01*
X6959600Y-4927600D01*
X6959600Y-4927600D02*
G01*
X254000Y-4927600D01*
X7010374Y-254000D02*
G01*
X7010374Y-4724400D01*
X254000Y-76200D02*
G01*
X6959600Y-76200D01*
D11*
G01*
X1999996Y-1600987D03*
D12*
G01*
X1999996Y-1507807D03*
D13*
G01*
X6674993Y-2880995D03*
D14*
G01*
X6674993Y-2626995D03*
G01*
X6674993Y-2372995D03*
G01*
X6674993Y-2118995D03*
D15*
G01*
X6295999Y-3396005D03*
G01*
X6803999Y-3396005D03*
G01*
X6295999Y-3904005D03*
G01*
X6803999Y-3904005D03*
D16*
G01*
X6549999Y-3650005D03*
D15*
G01*
X6295999Y-1096010D03*
G01*
X6803999Y-1096010D03*
G01*
X6295999Y-1604010D03*
G01*
X6803999Y-1604010D03*
D16*
G01*
X6549999Y-1350010D03*
D17*
G01*
X4949977Y-3925011D03*
G01*
X5203977Y-3925011D03*
G01*
X4695977Y-3925011D03*
G01*
X4349978Y-600024D03*
G01*
X4603978Y-600024D03*
G01*
X4095978Y-600024D03*
D14*
G01*
X3242995Y-4750003D03*
G01*
X2988995Y-4750003D03*
G01*
X2734995Y-4750003D03*
G01*
X2480995Y-4750003D03*
G01*
X2226995Y-4750003D03*
G01*
X1972995Y-4750003D03*
G01*
X1718995Y-4750003D03*
G01*
X1464995Y-4750003D03*
G01*
X1210995Y-4750003D03*
D18*
G01*
X956995Y-4749990D03*
D19*
G01*
X733000Y-1150000D03*
G01*
X479000Y-1149997D03*
G01*
X225000Y-1149997D03*
D20*
G01*
X350012Y-350012D03*
G01*
X6699986Y-350012D03*
G01*
X6699986Y-4650003D03*
G01*
X350012Y-4650003D03*
M02*
