G04 Layer: TopSilkscreenLayer*
G04 EasyEDA v6.5.22, 2023-04-19 13:10:23*
G04 d9ab40036a7b475d96d55dd14afd0624,9a5be75d700b4a6385dc1106f27949ae,10*
G04 Gerber Generator version 0.2*
G04 Scale: 100 percent, Rotated: No, Reflected: No *
G04 Dimensions in millimeters *
G04 leading zeros omitted , absolute positions ,4 integer and 5 decimal *
%FSLAX45Y45*%
%MOMM*%

%ADD10C,0.1500*%
%ADD11C,0.3000*%
%ADD12C,0.1524*%
%ADD13C,0.1600*%
%ADD14C,0.2500*%
%ADD15C,0.2200*%
%ADD16C,0.8000*%
%ADD17C,0.1520*%
%ADD18C,0.1000*%
%ADD19C,0.2100*%
%ADD20C,0.2540*%
%ADD21C,0.1520*%
%ADD22C,0.2032*%
%ADD23C,0.2030*%
%ADD24C,0.0195*%

%LPD*%
G36*
X3262020Y-3681018D02*
G01*
X3256838Y-3681120D01*
X3251200Y-3683000D01*
X3250234Y-3683812D01*
X3246780Y-3688130D01*
X3241446Y-3695801D01*
X3234486Y-3706418D01*
X3216757Y-3735070D01*
X3041396Y-4028389D01*
X2918997Y-4233976D01*
X2962249Y-4233976D01*
X3257753Y-3741521D01*
X3260344Y-3738016D01*
X3558082Y-4233976D01*
X3334105Y-4234688D01*
X3150920Y-4234586D01*
X2918997Y-4233976D01*
X2911957Y-4245965D01*
X2910332Y-4251553D01*
X2910789Y-4256887D01*
X2912872Y-4262069D01*
X2916682Y-4266895D01*
X2917799Y-4267708D01*
X2919882Y-4268368D01*
X2923540Y-4268927D01*
X2929585Y-4269435D01*
X2951581Y-4270095D01*
X2991662Y-4270552D01*
X3065526Y-4270756D01*
X3474669Y-4270756D01*
X3535273Y-4270502D01*
X3572510Y-4270044D01*
X3592322Y-4269282D01*
X3597554Y-4268774D01*
X3600704Y-4268165D01*
X3602431Y-4267403D01*
X3603498Y-4266590D01*
X3606952Y-4262475D01*
X3609289Y-4257700D01*
X3610305Y-4252874D01*
X3609492Y-4248251D01*
X3601669Y-4234434D01*
X3559301Y-4162755D01*
X3493058Y-4051808D01*
X3398215Y-3893820D01*
X3329889Y-3780688D01*
X3283610Y-3704742D01*
X3272129Y-3686606D01*
X3266998Y-3682746D01*
G37*
G36*
X3189478Y-3923080D02*
G01*
X3186633Y-3923436D01*
X3183077Y-3924350D01*
X3179368Y-3925671D01*
X3175812Y-3927246D01*
X3171494Y-3929938D01*
X3167786Y-3933342D01*
X3164687Y-3937508D01*
X3162096Y-3942486D01*
X3160064Y-3948379D01*
X3158540Y-3955237D01*
X3157474Y-3963060D01*
X3156864Y-3972001D01*
X3156458Y-3983380D01*
X3156712Y-3989578D01*
X3157931Y-3992067D01*
X3160318Y-3992575D01*
X3162503Y-3992168D01*
X3164027Y-3990797D01*
X3165195Y-3988155D01*
X3166059Y-3983990D01*
X3168446Y-3976674D01*
X3172612Y-3970680D01*
X3177997Y-3966667D01*
X3183940Y-3965143D01*
X3190646Y-3966464D01*
X3197809Y-3970172D01*
X3205022Y-3976014D01*
X3211830Y-3983736D01*
X3217926Y-3992626D01*
X3224276Y-4003497D01*
X3230727Y-4015790D01*
X3236976Y-4028948D01*
X3242818Y-4042562D01*
X3248101Y-4056024D01*
X3252571Y-4068826D01*
X3256026Y-4080510D01*
X3257346Y-4085742D01*
X3258870Y-4094734D01*
X3259074Y-4098340D01*
X3258464Y-4102557D01*
X3256788Y-4108856D01*
X3254349Y-4116425D01*
X3248964Y-4130344D01*
X3244900Y-4141774D01*
X3241802Y-4152646D01*
X3239516Y-4163161D01*
X3238652Y-4168343D01*
X3237585Y-4178808D01*
X3237230Y-4189526D01*
X3237433Y-4198670D01*
X3238144Y-4205071D01*
X3239668Y-4209796D01*
X3242208Y-4214063D01*
X3245916Y-4218381D01*
X3250133Y-4221429D01*
X3254654Y-4223207D01*
X3259328Y-4223715D01*
X3264103Y-4222953D01*
X3268827Y-4220972D01*
X3273298Y-4217720D01*
X3277412Y-4213199D01*
X3279851Y-4209186D01*
X3281222Y-4203750D01*
X3281679Y-4194556D01*
X3281476Y-4172204D01*
X3280816Y-4159402D01*
X3279597Y-4148175D01*
X3277819Y-4137964D01*
X3273298Y-4118000D01*
X3272637Y-4113987D01*
X3272383Y-4110228D01*
X3272434Y-4106621D01*
X3272891Y-4103065D01*
X3273806Y-4099356D01*
X3275177Y-4095445D01*
X3277057Y-4091228D01*
X3279495Y-4086504D01*
X3286201Y-4075176D01*
X3305860Y-4044340D01*
X3322777Y-4017213D01*
X3336442Y-3993845D01*
X3341928Y-3983990D01*
X3346297Y-3975455D01*
X3349599Y-3968496D01*
X3352800Y-3959656D01*
X3354222Y-3953916D01*
X3354984Y-3948480D01*
X3355136Y-3943350D01*
X3354730Y-3938676D01*
X3353663Y-3934561D01*
X3351987Y-3931005D01*
X3349751Y-3928160D01*
X3346196Y-3925519D01*
X3342132Y-3923842D01*
X3337814Y-3923131D01*
X3333292Y-3923385D01*
X3328771Y-3924554D01*
X3324301Y-3926636D01*
X3320186Y-3929634D01*
X3316427Y-3933444D01*
X3313633Y-3938219D01*
X3311144Y-3945483D01*
X3308908Y-3955491D01*
X3306165Y-3972915D01*
X3304336Y-3982821D01*
X3301847Y-3993438D01*
X3298850Y-4004665D01*
X3295396Y-4016248D01*
X3291484Y-4027982D01*
X3287268Y-4039717D01*
X3282696Y-4051198D01*
X3275939Y-4066794D01*
X3269234Y-4081221D01*
X3267760Y-4083913D01*
X3266998Y-4083964D01*
X3266186Y-4082745D01*
X3265373Y-4080560D01*
X3261817Y-4064304D01*
X3255772Y-4040022D01*
X3248710Y-4014165D01*
X3242411Y-3993134D01*
X3238296Y-3981704D01*
X3235147Y-3973931D01*
X3228340Y-3959148D01*
X3224885Y-3952494D01*
X3221583Y-3946702D01*
X3218535Y-3941927D01*
X3215792Y-3938422D01*
X3209696Y-3932834D01*
X3202381Y-3927856D01*
X3195167Y-3924350D01*
G37*
G36*
X6426911Y-3783431D02*
G01*
X6426047Y-3785006D01*
X6397345Y-3881932D01*
X6348628Y-4047744D01*
X6331915Y-4105300D01*
X6337452Y-4102862D01*
X6459524Y-4040276D01*
X6468872Y-4035958D01*
X6467957Y-4044594D01*
X6460439Y-4101795D01*
X6440271Y-4250232D01*
X6438747Y-4248962D01*
X6434175Y-4242816D01*
X6413347Y-4212082D01*
X6412941Y-4213352D01*
X6414719Y-4227118D01*
X6419545Y-4258665D01*
X6427012Y-4305249D01*
X6431838Y-4333849D01*
X6433515Y-4342587D01*
X6434531Y-4344924D01*
X6500164Y-4249572D01*
X6512001Y-4231894D01*
X6485686Y-4248353D01*
X6475425Y-4254195D01*
X6473748Y-4254754D01*
X6475425Y-4247642D01*
X6491782Y-4186174D01*
X6551777Y-3963974D01*
X6554927Y-3950766D01*
X6552133Y-3952036D01*
X6500571Y-3979926D01*
X6429349Y-4019092D01*
X6407658Y-4030726D01*
X6417970Y-4006697D01*
X6515912Y-3783837D01*
X6502806Y-3783533D01*
G37*
D10*
X212597Y-3759200D02*
G01*
X107695Y-3759200D01*
X212597Y-3759200D02*
G01*
X212597Y-3804157D01*
X207518Y-3819144D01*
X202692Y-3824223D01*
X192531Y-3829304D01*
X182626Y-3829304D01*
X172720Y-3824223D01*
X167639Y-3819144D01*
X162560Y-3804157D01*
X162560Y-3759200D01*
X162560Y-3794252D02*
G01*
X107695Y-3829304D01*
X147573Y-3862323D02*
G01*
X147573Y-3922268D01*
X157479Y-3922268D01*
X167639Y-3917187D01*
X172720Y-3912107D01*
X177545Y-3902202D01*
X177545Y-3887215D01*
X172720Y-3877310D01*
X162560Y-3867150D01*
X147573Y-3862323D01*
X137668Y-3862323D01*
X122681Y-3867150D01*
X112521Y-3877310D01*
X107695Y-3887215D01*
X107695Y-3902202D01*
X112521Y-3912107D01*
X122681Y-3922268D01*
X177545Y-3955287D02*
G01*
X107695Y-3985260D01*
X177545Y-4015231D02*
G01*
X107695Y-3985260D01*
X212597Y-4058157D02*
G01*
X212597Y-4113276D01*
X172720Y-4083304D01*
X172720Y-4098289D01*
X167639Y-4108195D01*
X162560Y-4113276D01*
X147573Y-4118102D01*
X137668Y-4118102D01*
X122681Y-4113276D01*
X112521Y-4103115D01*
X107695Y-4088129D01*
X107695Y-4073144D01*
X112521Y-4058157D01*
X117602Y-4053078D01*
X127507Y-4048252D01*
X132587Y-4156202D02*
G01*
X127507Y-4151121D01*
X122681Y-4156202D01*
X127507Y-4161281D01*
X132587Y-4156202D01*
X212597Y-4224273D02*
G01*
X207518Y-4209287D01*
X192531Y-4199128D01*
X167639Y-4194302D01*
X152654Y-4194302D01*
X127507Y-4199128D01*
X112521Y-4209287D01*
X107695Y-4224273D01*
X107695Y-4234179D01*
X112521Y-4249165D01*
X127507Y-4259326D01*
X152654Y-4264152D01*
X167639Y-4264152D01*
X192531Y-4259326D01*
X207518Y-4249165D01*
X212597Y-4234179D01*
X212597Y-4224273D01*
D11*
X1121407Y-3735054D02*
G01*
X1103119Y-3744198D01*
X1085085Y-3762486D01*
X1075941Y-3780520D01*
X1066797Y-3807952D01*
X1066797Y-3853418D01*
X1075941Y-3880596D01*
X1085085Y-3898884D01*
X1103119Y-3916918D01*
X1121407Y-3926062D01*
X1157729Y-3926062D01*
X1175763Y-3916918D01*
X1194051Y-3898884D01*
X1203195Y-3880596D01*
X1212339Y-3853418D01*
X1212339Y-3807952D01*
X1203195Y-3780520D01*
X1194051Y-3762486D01*
X1175763Y-3744198D01*
X1157729Y-3735054D01*
X1121407Y-3735054D01*
X1272283Y-3798808D02*
G01*
X1272283Y-3989816D01*
X1272283Y-3825986D02*
G01*
X1290317Y-3807952D01*
X1308605Y-3798808D01*
X1335783Y-3798808D01*
X1354071Y-3807952D01*
X1372359Y-3825986D01*
X1381249Y-3853418D01*
X1381249Y-3871452D01*
X1372359Y-3898884D01*
X1354071Y-3916918D01*
X1335783Y-3926062D01*
X1308605Y-3926062D01*
X1290317Y-3916918D01*
X1272283Y-3898884D01*
X1441447Y-3853418D02*
G01*
X1550413Y-3853418D01*
X1550413Y-3835130D01*
X1541269Y-3817096D01*
X1532125Y-3807952D01*
X1514091Y-3798808D01*
X1486913Y-3798808D01*
X1468625Y-3807952D01*
X1450337Y-3825986D01*
X1441447Y-3853418D01*
X1441447Y-3871452D01*
X1450337Y-3898884D01*
X1468625Y-3916918D01*
X1486913Y-3926062D01*
X1514091Y-3926062D01*
X1532125Y-3916918D01*
X1550413Y-3898884D01*
X1610357Y-3798808D02*
G01*
X1610357Y-3926062D01*
X1610357Y-3835130D02*
G01*
X1637789Y-3807952D01*
X1655823Y-3798808D01*
X1683255Y-3798808D01*
X1701289Y-3807952D01*
X1710433Y-3835130D01*
X1710433Y-3926062D01*
X2046729Y-3780520D02*
G01*
X2037585Y-3762486D01*
X2019551Y-3744198D01*
X2001263Y-3735054D01*
X1964941Y-3735054D01*
X1946907Y-3744198D01*
X1928619Y-3762486D01*
X1919475Y-3780520D01*
X1910331Y-3807952D01*
X1910331Y-3853418D01*
X1919475Y-3880596D01*
X1928619Y-3898884D01*
X1946907Y-3916918D01*
X1964941Y-3926062D01*
X2001263Y-3926062D01*
X2019551Y-3916918D01*
X2037585Y-3898884D01*
X2046729Y-3880596D01*
X2046729Y-3853418D01*
X2001263Y-3853418D02*
G01*
X2046729Y-3853418D01*
X2215893Y-3798808D02*
G01*
X2215893Y-3926062D01*
X2215893Y-3825986D02*
G01*
X2197605Y-3807952D01*
X2179571Y-3798808D01*
X2152139Y-3798808D01*
X2134105Y-3807952D01*
X2115817Y-3825986D01*
X2106673Y-3853418D01*
X2106673Y-3871452D01*
X2115817Y-3898884D01*
X2134105Y-3916918D01*
X2152139Y-3926062D01*
X2179571Y-3926062D01*
X2197605Y-3916918D01*
X2215893Y-3898884D01*
X2275837Y-3798808D02*
G01*
X2275837Y-3926062D01*
X2275837Y-3835130D02*
G01*
X2303269Y-3807952D01*
X2321303Y-3798808D01*
X2348735Y-3798808D01*
X2366769Y-3807952D01*
X2375913Y-3835130D01*
X2375913Y-3926062D01*
X2375913Y-3835130D02*
G01*
X2403091Y-3807952D01*
X2421379Y-3798808D01*
X2448557Y-3798808D01*
X2466845Y-3807952D01*
X2475989Y-3835130D01*
X2475989Y-3926062D01*
X2535933Y-3798808D02*
G01*
X2535933Y-3926062D01*
X2535933Y-3835130D02*
G01*
X2563111Y-3807952D01*
X2581399Y-3798808D01*
X2608577Y-3798808D01*
X2626865Y-3807952D01*
X2636009Y-3835130D01*
X2636009Y-3926062D01*
X2636009Y-3835130D02*
G01*
X2663187Y-3807952D01*
X2681221Y-3798808D01*
X2708653Y-3798808D01*
X2726687Y-3807952D01*
X2735831Y-3835130D01*
X2735831Y-3926062D01*
X2904995Y-3798808D02*
G01*
X2904995Y-3926062D01*
X2904995Y-3825986D02*
G01*
X2886707Y-3807952D01*
X2868673Y-3798808D01*
X2841241Y-3798808D01*
X2823207Y-3807952D01*
X2804919Y-3825986D01*
X2795775Y-3853418D01*
X2795775Y-3871452D01*
X2804919Y-3898884D01*
X2823207Y-3916918D01*
X2841241Y-3926062D01*
X2868673Y-3926062D01*
X2886707Y-3916918D01*
X2904995Y-3898884D01*
D12*
X1975340Y-4430232D02*
G01*
X1983468Y-4425914D01*
X1991596Y-4417786D01*
X1995914Y-4409658D01*
X1995914Y-4393402D01*
X1991596Y-4385020D01*
X1983468Y-4376892D01*
X1975340Y-4372828D01*
X1963148Y-4368764D01*
X1942574Y-4368764D01*
X1930382Y-4372828D01*
X1922254Y-4376892D01*
X1913872Y-4385020D01*
X1909808Y-4393402D01*
X1909808Y-4409658D01*
X1913872Y-4417786D01*
X1922254Y-4425914D01*
X1930382Y-4430232D01*
X1942574Y-4430232D01*
X1942574Y-4409658D02*
G01*
X1942574Y-4430232D01*
X1995914Y-4457156D02*
G01*
X1909808Y-4457156D01*
X1995914Y-4457156D02*
G01*
X1909808Y-4514306D01*
X1995914Y-4514306D02*
G01*
X1909808Y-4514306D01*
X1995914Y-4541484D02*
G01*
X1909808Y-4541484D01*
X1995914Y-4541484D02*
G01*
X1995914Y-4569932D01*
X1991596Y-4582378D01*
X1983468Y-4590506D01*
X1975340Y-4594570D01*
X1963148Y-4598634D01*
X1942574Y-4598634D01*
X1930382Y-4594570D01*
X1922254Y-4590506D01*
X1913872Y-4582378D01*
X1909808Y-4569932D01*
X1909808Y-4541484D01*
X1475465Y-4425914D02*
G01*
X1483593Y-4417786D01*
X1487911Y-4405594D01*
X1487911Y-4389338D01*
X1483593Y-4376892D01*
X1475465Y-4368764D01*
X1467337Y-4368764D01*
X1459209Y-4372828D01*
X1455145Y-4376892D01*
X1451081Y-4385020D01*
X1442699Y-4409658D01*
X1438635Y-4417786D01*
X1434571Y-4421850D01*
X1426443Y-4425914D01*
X1414251Y-4425914D01*
X1405869Y-4417786D01*
X1401805Y-4405594D01*
X1401805Y-4389338D01*
X1405869Y-4376892D01*
X1414251Y-4368764D01*
X1467337Y-4514306D02*
G01*
X1475465Y-4510242D01*
X1483593Y-4502114D01*
X1487911Y-4493986D01*
X1487911Y-4477476D01*
X1483593Y-4469348D01*
X1475465Y-4461220D01*
X1467337Y-4457156D01*
X1455145Y-4453092D01*
X1434571Y-4453092D01*
X1422379Y-4457156D01*
X1414251Y-4461220D01*
X1405869Y-4469348D01*
X1401805Y-4477476D01*
X1401805Y-4493986D01*
X1405869Y-4502114D01*
X1414251Y-4510242D01*
X1422379Y-4514306D01*
X1487911Y-4541484D02*
G01*
X1401805Y-4541484D01*
X1401805Y-4541484D02*
G01*
X1401805Y-4590506D01*
X1221468Y-4425922D02*
G01*
X1229596Y-4417794D01*
X1233914Y-4405602D01*
X1233914Y-4389346D01*
X1229596Y-4376900D01*
X1221468Y-4368772D01*
X1213340Y-4368772D01*
X1205212Y-4372836D01*
X1201148Y-4376900D01*
X1197084Y-4385028D01*
X1188702Y-4409666D01*
X1184638Y-4417794D01*
X1180574Y-4421858D01*
X1172446Y-4425922D01*
X1160254Y-4425922D01*
X1151872Y-4417794D01*
X1147808Y-4405602D01*
X1147808Y-4389346D01*
X1151872Y-4376900D01*
X1160254Y-4368772D01*
X1233914Y-4453100D02*
G01*
X1147808Y-4453100D01*
X1233914Y-4453100D02*
G01*
X1233914Y-4481802D01*
X1229596Y-4493994D01*
X1221468Y-4502122D01*
X1213340Y-4506186D01*
X1201148Y-4510250D01*
X1180574Y-4510250D01*
X1168382Y-4506186D01*
X1160254Y-4502122D01*
X1151872Y-4493994D01*
X1147808Y-4481802D01*
X1147808Y-4453100D01*
X1233914Y-4569940D02*
G01*
X1147808Y-4537428D01*
X1233914Y-4569940D02*
G01*
X1147808Y-4602706D01*
X1176510Y-4549620D02*
G01*
X1176510Y-4590514D01*
X1741914Y-4376900D02*
G01*
X1741914Y-4421858D01*
X1709148Y-4397474D01*
X1709148Y-4409666D01*
X1705084Y-4417794D01*
X1701020Y-4421858D01*
X1688574Y-4425922D01*
X1680446Y-4425922D01*
X1668254Y-4421858D01*
X1659872Y-4413730D01*
X1655808Y-4401538D01*
X1655808Y-4389346D01*
X1659872Y-4376900D01*
X1664190Y-4372836D01*
X1672318Y-4368772D01*
X1741914Y-4453100D02*
G01*
X1655808Y-4485866D01*
X1741914Y-4518378D02*
G01*
X1655808Y-4485866D01*
X1741914Y-4553684D02*
G01*
X1741914Y-4598642D01*
X1709148Y-4574258D01*
X1709148Y-4586450D01*
X1705084Y-4594578D01*
X1701020Y-4598642D01*
X1688574Y-4602706D01*
X1680446Y-4602706D01*
X1668254Y-4598642D01*
X1659872Y-4590514D01*
X1655808Y-4578322D01*
X1655808Y-4565876D01*
X1659872Y-4553684D01*
X1664190Y-4549620D01*
X1672318Y-4545556D01*
D13*
X6525760Y-2598910D02*
G01*
X6516616Y-2603482D01*
X6507726Y-2612372D01*
X6503154Y-2621516D01*
X6503154Y-2639804D01*
X6507726Y-2648694D01*
X6516616Y-2657838D01*
X6525760Y-2662410D01*
X6539476Y-2666982D01*
X6562082Y-2666982D01*
X6575798Y-2662410D01*
X6584942Y-2657838D01*
X6594086Y-2648694D01*
X6598658Y-2639804D01*
X6598658Y-2621516D01*
X6594086Y-2612372D01*
X6584942Y-2603482D01*
X6575798Y-2598910D01*
X6562082Y-2598910D01*
X6562082Y-2621516D02*
G01*
X6562082Y-2598910D01*
X6503154Y-2568938D02*
G01*
X6598658Y-2568938D01*
X6503154Y-2568938D02*
G01*
X6598658Y-2505184D01*
X6503154Y-2505184D02*
G01*
X6598658Y-2505184D01*
X6503154Y-2475212D02*
G01*
X6598658Y-2475212D01*
X6503154Y-2475212D02*
G01*
X6503154Y-2443462D01*
X6507726Y-2429746D01*
X6516616Y-2420602D01*
X6525760Y-2416030D01*
X6539476Y-2411458D01*
X6562082Y-2411458D01*
X6575798Y-2416030D01*
X6584942Y-2420602D01*
X6594086Y-2429746D01*
X6598658Y-2443462D01*
X6598658Y-2475212D01*
D12*
X6513045Y-3047964D02*
G01*
X6599151Y-3047964D01*
X6513045Y-3047964D02*
G01*
X6513045Y-3011134D01*
X6517363Y-2998942D01*
X6521427Y-2994878D01*
X6529555Y-2990814D01*
X6541747Y-2990814D01*
X6549875Y-2994878D01*
X6553939Y-2998942D01*
X6558257Y-3011134D01*
X6558257Y-3047964D01*
X6513045Y-2963636D02*
G01*
X6599151Y-2943316D01*
X6513045Y-2922742D02*
G01*
X6599151Y-2943316D01*
X6513045Y-2922742D02*
G01*
X6599151Y-2902422D01*
X6513045Y-2881848D02*
G01*
X6599151Y-2902422D01*
X6513045Y-2854924D02*
G01*
X6599151Y-2854924D01*
X6513045Y-2854924D02*
G01*
X6513045Y-2818094D01*
X6517363Y-2805902D01*
X6521427Y-2801584D01*
X6529555Y-2797520D01*
X6537683Y-2797520D01*
X6545811Y-2801584D01*
X6549875Y-2805902D01*
X6553939Y-2818094D01*
X6553939Y-2854924D01*
X6553939Y-2826222D02*
G01*
X6599151Y-2797520D01*
X6525491Y-2178014D02*
G01*
X6517363Y-2186142D01*
X6513045Y-2198334D01*
X6513045Y-2214844D01*
X6517363Y-2227036D01*
X6525491Y-2235164D01*
X6533619Y-2235164D01*
X6541747Y-2231100D01*
X6545811Y-2227036D01*
X6549875Y-2218908D01*
X6558257Y-2194270D01*
X6562321Y-2186142D01*
X6566385Y-2182078D01*
X6574513Y-2178014D01*
X6586705Y-2178014D01*
X6595087Y-2186142D01*
X6599151Y-2198334D01*
X6599151Y-2214844D01*
X6595087Y-2227036D01*
X6586705Y-2235164D01*
X6513045Y-2150836D02*
G01*
X6599151Y-2150836D01*
X6533619Y-2062444D02*
G01*
X6525491Y-2066762D01*
X6517363Y-2074890D01*
X6513045Y-2083018D01*
X6513045Y-2099274D01*
X6517363Y-2107656D01*
X6525491Y-2115784D01*
X6533619Y-2119848D01*
X6545811Y-2123912D01*
X6566385Y-2123912D01*
X6578577Y-2119848D01*
X6586705Y-2115784D01*
X6595087Y-2107656D01*
X6599151Y-2099274D01*
X6599151Y-2083018D01*
X6595087Y-2074890D01*
X6586705Y-2066762D01*
X6578577Y-2062444D01*
X6566385Y-2062444D01*
X6566385Y-2083018D02*
G01*
X6566385Y-2062444D01*
D14*
X5480304Y-3526789D02*
G01*
X5466588Y-3513073D01*
X5446268Y-3506215D01*
X5418836Y-3506215D01*
X5398515Y-3513073D01*
X5384800Y-3526789D01*
X5384800Y-3540252D01*
X5391658Y-3553968D01*
X5398515Y-3560826D01*
X5411977Y-3567684D01*
X5452872Y-3581145D01*
X5466588Y-3588004D01*
X5473445Y-3594862D01*
X5480304Y-3608578D01*
X5480304Y-3628897D01*
X5466588Y-3642613D01*
X5446268Y-3649471D01*
X5418836Y-3649471D01*
X5398515Y-3642613D01*
X5384800Y-3628897D01*
X5525261Y-3506215D02*
G01*
X5532120Y-3513073D01*
X5538977Y-3506215D01*
X5532120Y-3499357D01*
X5525261Y-3506215D01*
X5532120Y-3553968D02*
G01*
X5532120Y-3649471D01*
X5583936Y-3506215D02*
G01*
X5583936Y-3649471D01*
X5583936Y-3506215D02*
G01*
X5645150Y-3506215D01*
X5665724Y-3513073D01*
X5672581Y-3519931D01*
X5679440Y-3533394D01*
X5679440Y-3553968D01*
X5672581Y-3567684D01*
X5665724Y-3574287D01*
X5645150Y-3581145D01*
X5583936Y-3581145D01*
X5724397Y-3506215D02*
G01*
X5724397Y-3649471D01*
X5724397Y-3506215D02*
G01*
X5778754Y-3649471D01*
X5833363Y-3506215D02*
G01*
X5778754Y-3649471D01*
X5833363Y-3506215D02*
G01*
X5833363Y-3649471D01*
D15*
X5422889Y-3028436D02*
G01*
X5422889Y-3142990D01*
X5384789Y-3028436D02*
G01*
X5461243Y-3028436D01*
X5497057Y-3028436D02*
G01*
X5497057Y-3142990D01*
X5573511Y-3028436D02*
G01*
X5573511Y-3142990D01*
X5497057Y-3083046D02*
G01*
X5573511Y-3083046D01*
X5609579Y-3028436D02*
G01*
X5609579Y-3142990D01*
X5609579Y-3028436D02*
G01*
X5658601Y-3028436D01*
X5674857Y-3034024D01*
X5680445Y-3039358D01*
X5685779Y-3050280D01*
X5685779Y-3061202D01*
X5680445Y-3072124D01*
X5674857Y-3077712D01*
X5658601Y-3083046D01*
X5609579Y-3083046D01*
X5647679Y-3083046D02*
G01*
X5685779Y-3142990D01*
X5721847Y-3028436D02*
G01*
X5721847Y-3142990D01*
X5721847Y-3028436D02*
G01*
X5792713Y-3028436D01*
X5721847Y-3083046D02*
G01*
X5765535Y-3083046D01*
X5721847Y-3142990D02*
G01*
X5792713Y-3142990D01*
X5905235Y-3044946D02*
G01*
X5894313Y-3034024D01*
X5877803Y-3028436D01*
X5855959Y-3028436D01*
X5839703Y-3034024D01*
X5828781Y-3044946D01*
X5828781Y-3055868D01*
X5834115Y-3066790D01*
X5839703Y-3072124D01*
X5850625Y-3077712D01*
X5883391Y-3088380D01*
X5894313Y-3093968D01*
X5899647Y-3099302D01*
X5905235Y-3110224D01*
X5905235Y-3126734D01*
X5894313Y-3137656D01*
X5877803Y-3142990D01*
X5855959Y-3142990D01*
X5839703Y-3137656D01*
X5828781Y-3126734D01*
X5941049Y-3028436D02*
G01*
X5941049Y-3142990D01*
X6017503Y-3028436D02*
G01*
X6017503Y-3142990D01*
X5941049Y-3083046D02*
G01*
X6017503Y-3083046D01*
X6086337Y-3028436D02*
G01*
X6075415Y-3034024D01*
X6064493Y-3044946D01*
X6058905Y-3055868D01*
X6053571Y-3072124D01*
X6053571Y-3099302D01*
X6058905Y-3115812D01*
X6064493Y-3126734D01*
X6075415Y-3137656D01*
X6086337Y-3142990D01*
X6107927Y-3142990D01*
X6118849Y-3137656D01*
X6129771Y-3126734D01*
X6135359Y-3115812D01*
X6140693Y-3099302D01*
X6140693Y-3072124D01*
X6135359Y-3055868D01*
X6129771Y-3044946D01*
X6118849Y-3034024D01*
X6107927Y-3028436D01*
X6086337Y-3028436D01*
X6176761Y-3028436D02*
G01*
X6176761Y-3142990D01*
X6176761Y-3142990D02*
G01*
X6242293Y-3142990D01*
X6278107Y-3028436D02*
G01*
X6278107Y-3142990D01*
X6278107Y-3028436D02*
G01*
X6316461Y-3028436D01*
X6332717Y-3034024D01*
X6343639Y-3044946D01*
X6349227Y-3055868D01*
X6354561Y-3072124D01*
X6354561Y-3099302D01*
X6349227Y-3115812D01*
X6343639Y-3126734D01*
X6332717Y-3137656D01*
X6316461Y-3142990D01*
X6278107Y-3142990D01*
D11*
X1396989Y-4039864D02*
G01*
X1396989Y-4230872D01*
X1396989Y-4039864D02*
G01*
X1460743Y-4039864D01*
X1487921Y-4049008D01*
X1505955Y-4067296D01*
X1515099Y-4085330D01*
X1524243Y-4112762D01*
X1524243Y-4158228D01*
X1515099Y-4185406D01*
X1505955Y-4203694D01*
X1487921Y-4221728D01*
X1460743Y-4230872D01*
X1396989Y-4230872D01*
X1584187Y-4158228D02*
G01*
X1693407Y-4158228D01*
X1693407Y-4139940D01*
X1684263Y-4121906D01*
X1675119Y-4112762D01*
X1657085Y-4103618D01*
X1629653Y-4103618D01*
X1611619Y-4112762D01*
X1593331Y-4130796D01*
X1584187Y-4158228D01*
X1584187Y-4176262D01*
X1593331Y-4203694D01*
X1611619Y-4221728D01*
X1629653Y-4230872D01*
X1657085Y-4230872D01*
X1675119Y-4221728D01*
X1693407Y-4203694D01*
X1780529Y-4039864D02*
G01*
X1780529Y-4194550D01*
X1789673Y-4221728D01*
X1807961Y-4230872D01*
X1825995Y-4230872D01*
X1753351Y-4103618D02*
G01*
X1817105Y-4103618D01*
X1886193Y-4158228D02*
G01*
X1995159Y-4158228D01*
X1995159Y-4139940D01*
X1986015Y-4121906D01*
X1976871Y-4112762D01*
X1958837Y-4103618D01*
X1931659Y-4103618D01*
X1913371Y-4112762D01*
X1895083Y-4130796D01*
X1886193Y-4158228D01*
X1886193Y-4176262D01*
X1895083Y-4203694D01*
X1913371Y-4221728D01*
X1931659Y-4230872D01*
X1958837Y-4230872D01*
X1976871Y-4221728D01*
X1995159Y-4203694D01*
X2164323Y-4130796D02*
G01*
X2146035Y-4112762D01*
X2128001Y-4103618D01*
X2100569Y-4103618D01*
X2082535Y-4112762D01*
X2064247Y-4130796D01*
X2055103Y-4158228D01*
X2055103Y-4176262D01*
X2064247Y-4203694D01*
X2082535Y-4221728D01*
X2100569Y-4230872D01*
X2128001Y-4230872D01*
X2146035Y-4221728D01*
X2164323Y-4203694D01*
X2251445Y-4039864D02*
G01*
X2251445Y-4194550D01*
X2260589Y-4221728D01*
X2278877Y-4230872D01*
X2296911Y-4230872D01*
X2224267Y-4103618D02*
G01*
X2288021Y-4103618D01*
X2402321Y-4103618D02*
G01*
X2384287Y-4112762D01*
X2365999Y-4130796D01*
X2357109Y-4158228D01*
X2357109Y-4176262D01*
X2365999Y-4203694D01*
X2384287Y-4221728D01*
X2402321Y-4230872D01*
X2429753Y-4230872D01*
X2447787Y-4221728D01*
X2466075Y-4203694D01*
X2475219Y-4176262D01*
X2475219Y-4158228D01*
X2466075Y-4130796D01*
X2447787Y-4112762D01*
X2429753Y-4103618D01*
X2402321Y-4103618D01*
X2535163Y-4103618D02*
G01*
X2535163Y-4230872D01*
X2535163Y-4158228D02*
G01*
X2544307Y-4130796D01*
X2562341Y-4112762D01*
X2580629Y-4103618D01*
X2607807Y-4103618D01*
D16*
X7899920Y-2394198D02*
G01*
X7863598Y-2357622D01*
X7808988Y-2339588D01*
X7736344Y-2339588D01*
X7681734Y-2357622D01*
X7645412Y-2394198D01*
X7645412Y-2430520D01*
X7663700Y-2466842D01*
X7681734Y-2485130D01*
X7718056Y-2503164D01*
X7827276Y-2539486D01*
X7863598Y-2557774D01*
X7881632Y-2575808D01*
X7899920Y-2612384D01*
X7899920Y-2666740D01*
X7863598Y-2703316D01*
X7808988Y-2721350D01*
X7736344Y-2721350D01*
X7681734Y-2703316D01*
X7645412Y-2666740D01*
X8292604Y-2430520D02*
G01*
X8274570Y-2394198D01*
X8237994Y-2357622D01*
X8201672Y-2339588D01*
X8129028Y-2339588D01*
X8092706Y-2357622D01*
X8056384Y-2394198D01*
X8038096Y-2430520D01*
X8020062Y-2485130D01*
X8020062Y-2575808D01*
X8038096Y-2630418D01*
X8056384Y-2666740D01*
X8092706Y-2703316D01*
X8129028Y-2721350D01*
X8201672Y-2721350D01*
X8237994Y-2703316D01*
X8274570Y-2666740D01*
X8292604Y-2630418D01*
X8412746Y-2339588D02*
G01*
X8412746Y-2721350D01*
X8532634Y-2339588D02*
G01*
X8532634Y-2721350D01*
X8532634Y-2339588D02*
G01*
X8787142Y-2721350D01*
X8787142Y-2339588D02*
G01*
X8787142Y-2721350D01*
X9034538Y-2339588D02*
G01*
X9034538Y-2721350D01*
X8907284Y-2339588D02*
G01*
X9161792Y-2339588D01*
X9281680Y-2339588D02*
G01*
X9281680Y-2721350D01*
X9401822Y-2339588D02*
G01*
X9401822Y-2721350D01*
X9401822Y-2721350D02*
G01*
X9620008Y-2721350D01*
X9739896Y-2339588D02*
G01*
X9739896Y-2721350D01*
X9739896Y-2721350D02*
G01*
X9958082Y-2721350D01*
X10223512Y-2339588D02*
G01*
X10078224Y-2721350D01*
X10223512Y-2339588D02*
G01*
X10369054Y-2721350D01*
X10132580Y-2594096D02*
G01*
X10314444Y-2594096D01*
X10616196Y-2339588D02*
G01*
X10616196Y-2721350D01*
X10488942Y-2339588D02*
G01*
X10743450Y-2339588D01*
X10972558Y-2339588D02*
G01*
X10936236Y-2357622D01*
X10899914Y-2394198D01*
X10881626Y-2430520D01*
X10863592Y-2485130D01*
X10863592Y-2575808D01*
X10881626Y-2630418D01*
X10899914Y-2666740D01*
X10936236Y-2703316D01*
X10972558Y-2721350D01*
X11045456Y-2721350D01*
X11081778Y-2703316D01*
X11118100Y-2666740D01*
X11136388Y-2630418D01*
X11154422Y-2575808D01*
X11154422Y-2485130D01*
X11136388Y-2430520D01*
X11118100Y-2394198D01*
X11081778Y-2357622D01*
X11045456Y-2339588D01*
X10972558Y-2339588D01*
X11274564Y-2339588D02*
G01*
X11274564Y-2721350D01*
X11274564Y-2339588D02*
G01*
X11438140Y-2339588D01*
X11492750Y-2357622D01*
X11510784Y-2375910D01*
X11529072Y-2412232D01*
X11529072Y-2448554D01*
X11510784Y-2485130D01*
X11492750Y-2503164D01*
X11438140Y-2521452D01*
X11274564Y-2521452D01*
X11401818Y-2521452D02*
G01*
X11529072Y-2721350D01*
D12*
X2237470Y-4425927D02*
G01*
X2245598Y-4417799D01*
X2249916Y-4405607D01*
X2249916Y-4389351D01*
X2245598Y-4376905D01*
X2237470Y-4368777D01*
X2229342Y-4368777D01*
X2221214Y-4372841D01*
X2217150Y-4376905D01*
X2213086Y-4385033D01*
X2204704Y-4409671D01*
X2200640Y-4417799D01*
X2196576Y-4421863D01*
X2188448Y-4425927D01*
X2176256Y-4425927D01*
X2167874Y-4417799D01*
X2163810Y-4405607D01*
X2163810Y-4389351D01*
X2167874Y-4376905D01*
X2176256Y-4368777D01*
X2229342Y-4514319D02*
G01*
X2237470Y-4510255D01*
X2245598Y-4502127D01*
X2249916Y-4493999D01*
X2249916Y-4477489D01*
X2245598Y-4469361D01*
X2237470Y-4461233D01*
X2229342Y-4457169D01*
X2217150Y-4453105D01*
X2196576Y-4453105D01*
X2184384Y-4457169D01*
X2176256Y-4461233D01*
X2167874Y-4469361D01*
X2163810Y-4477489D01*
X2163810Y-4493999D01*
X2167874Y-4502127D01*
X2176256Y-4510255D01*
X2184384Y-4514319D01*
X2249916Y-4541497D02*
G01*
X2163810Y-4541497D01*
X2249916Y-4598647D02*
G01*
X2192512Y-4541497D01*
X2213086Y-4561817D02*
G01*
X2163810Y-4598647D01*
X2503916Y-4448279D02*
G01*
X2417810Y-4448279D01*
X2503916Y-4419577D02*
G01*
X2503916Y-4476727D01*
X2503916Y-4503905D02*
G01*
X2417810Y-4561055D01*
X2503916Y-4561055D02*
G01*
X2417810Y-4503905D01*
X2757916Y-4419577D02*
G01*
X2671810Y-4419577D01*
X2757916Y-4419577D02*
G01*
X2757916Y-4456407D01*
X2753598Y-4468599D01*
X2749534Y-4472663D01*
X2741406Y-4476727D01*
X2733278Y-4476727D01*
X2725150Y-4472663D01*
X2721086Y-4468599D01*
X2716768Y-4456407D01*
X2716768Y-4419577D01*
X2716768Y-4448279D02*
G01*
X2671810Y-4476727D01*
X2757916Y-4503905D02*
G01*
X2671810Y-4561055D01*
X2757916Y-4561055D02*
G01*
X2671810Y-4503905D01*
X2991342Y-4430245D02*
G01*
X2999470Y-4425927D01*
X3007598Y-4417799D01*
X3011916Y-4409671D01*
X3011916Y-4393415D01*
X3007598Y-4385033D01*
X2999470Y-4376905D01*
X2991342Y-4372841D01*
X2979150Y-4368777D01*
X2958576Y-4368777D01*
X2946384Y-4372841D01*
X2938256Y-4376905D01*
X2929874Y-4385033D01*
X2925810Y-4393415D01*
X2925810Y-4409671D01*
X2929874Y-4417799D01*
X2938256Y-4425927D01*
X2946384Y-4430245D01*
X2999470Y-4514319D02*
G01*
X3007598Y-4506191D01*
X3011916Y-4493999D01*
X3011916Y-4477489D01*
X3007598Y-4465297D01*
X2999470Y-4457169D01*
X2991342Y-4457169D01*
X2983214Y-4461233D01*
X2979150Y-4465297D01*
X2975086Y-4473425D01*
X2966704Y-4498063D01*
X2962640Y-4506191D01*
X2958576Y-4510255D01*
X2950448Y-4514319D01*
X2938256Y-4514319D01*
X2929874Y-4506191D01*
X2925810Y-4493999D01*
X2925810Y-4477489D01*
X2929874Y-4465297D01*
X2938256Y-4457169D01*
X2983214Y-4541497D02*
G01*
X2925810Y-4541497D01*
X2966704Y-4541497D02*
G01*
X2979150Y-4553689D01*
X2983214Y-4561817D01*
X2983214Y-4574263D01*
X2979150Y-4582391D01*
X2966704Y-4586455D01*
X2925810Y-4586455D01*
D15*
X6589522Y-4120642D02*
G01*
X6649465Y-4120642D01*
X6616700Y-4164329D01*
X6633209Y-4164329D01*
X6644131Y-4169918D01*
X6649465Y-4175252D01*
X6655054Y-4191507D01*
X6655054Y-4202429D01*
X6649465Y-4218939D01*
X6638543Y-4229862D01*
X6622288Y-4235195D01*
X6605777Y-4235195D01*
X6589522Y-4229862D01*
X6583934Y-4224273D01*
X6578600Y-4213352D01*
X6756400Y-4137152D02*
G01*
X6751065Y-4126229D01*
X6734556Y-4120642D01*
X6723634Y-4120642D01*
X6707377Y-4126229D01*
X6696456Y-4142486D01*
X6690868Y-4169918D01*
X6690868Y-4197095D01*
X6696456Y-4218939D01*
X6707377Y-4229862D01*
X6723634Y-4235195D01*
X6729222Y-4235195D01*
X6745477Y-4229862D01*
X6756400Y-4218939D01*
X6761988Y-4202429D01*
X6761988Y-4197095D01*
X6756400Y-4180586D01*
X6745477Y-4169918D01*
X6729222Y-4164329D01*
X6723634Y-4164329D01*
X6707377Y-4169918D01*
X6696456Y-4180586D01*
X6690868Y-4197095D01*
X6797802Y-4120642D02*
G01*
X6841490Y-4235195D01*
X6885177Y-4120642D02*
G01*
X6841490Y-4235195D01*
X6578600Y-3892042D02*
G01*
X6578600Y-4006595D01*
X6578600Y-3892042D02*
G01*
X6622288Y-4006595D01*
X6665975Y-3892042D02*
G01*
X6622288Y-4006595D01*
X6665975Y-3892042D02*
G01*
X6665975Y-4006595D01*
X6745477Y-3892042D02*
G01*
X6701790Y-4006595D01*
X6745477Y-3892042D02*
G01*
X6789165Y-4006595D01*
X6718300Y-3968495D02*
G01*
X6772656Y-3968495D01*
X6825234Y-3892042D02*
G01*
X6901434Y-4006595D01*
X6901434Y-3892042D02*
G01*
X6825234Y-4006595D01*
D12*
X3265916Y-4448279D02*
G01*
X3179810Y-4448279D01*
X3265916Y-4419577D02*
G01*
X3265916Y-4476727D01*
X3265916Y-4503905D02*
G01*
X3179810Y-4561055D01*
X3265916Y-4561055D02*
G01*
X3179810Y-4503905D01*
X3519911Y-4419577D02*
G01*
X3433805Y-4419577D01*
X3519911Y-4419577D02*
G01*
X3519911Y-4456407D01*
X3515593Y-4468599D01*
X3511529Y-4472663D01*
X3503401Y-4476727D01*
X3495273Y-4476727D01*
X3487145Y-4472663D01*
X3483081Y-4468599D01*
X3478763Y-4456407D01*
X3478763Y-4419577D01*
X3478763Y-4448279D02*
G01*
X3433805Y-4476727D01*
X3519911Y-4503905D02*
G01*
X3433805Y-4561055D01*
X3519911Y-4561055D02*
G01*
X3433805Y-4503905D01*
X6529577Y-3593592D02*
G01*
X6524243Y-3583178D01*
X6513829Y-3572763D01*
X6503670Y-3567684D01*
X6482841Y-3567684D01*
X6472427Y-3572763D01*
X6462013Y-3583178D01*
X6456679Y-3593592D01*
X6451600Y-3609339D01*
X6451600Y-3635247D01*
X6456679Y-3650742D01*
X6462013Y-3661155D01*
X6472427Y-3671570D01*
X6482841Y-3676650D01*
X6503670Y-3676650D01*
X6513829Y-3671570D01*
X6524243Y-3661155D01*
X6529577Y-3650742D01*
X6568947Y-3593592D02*
G01*
X6568947Y-3588512D01*
X6574281Y-3578097D01*
X6579361Y-3572763D01*
X6589775Y-3567684D01*
X6610604Y-3567684D01*
X6621018Y-3572763D01*
X6626097Y-3578097D01*
X6631431Y-3588512D01*
X6631431Y-3598926D01*
X6626097Y-3609339D01*
X6615684Y-3624834D01*
X6563868Y-3676650D01*
X6636511Y-3676650D01*
X4280408Y-1017778D02*
G01*
X4290822Y-1012444D01*
X4301236Y-1002029D01*
X4306315Y-991870D01*
X4306315Y-971042D01*
X4301236Y-960628D01*
X4290822Y-950213D01*
X4280408Y-944879D01*
X4264659Y-939800D01*
X4238752Y-939800D01*
X4223258Y-944879D01*
X4212843Y-950213D01*
X4202429Y-960628D01*
X4197350Y-971042D01*
X4197350Y-991870D01*
X4202429Y-1002029D01*
X4212843Y-1012444D01*
X4223258Y-1017778D01*
X4306315Y-1062481D02*
G01*
X4306315Y-1119631D01*
X4264659Y-1088389D01*
X4264659Y-1103884D01*
X4259579Y-1114297D01*
X4254500Y-1119631D01*
X4238752Y-1124712D01*
X4228338Y-1124712D01*
X4212843Y-1119631D01*
X4202429Y-1109218D01*
X4197350Y-1093470D01*
X4197350Y-1077976D01*
X4202429Y-1062481D01*
X4207509Y-1057147D01*
X4217924Y-1052068D01*
X2262377Y-139192D02*
G01*
X2257043Y-128778D01*
X2246629Y-118363D01*
X2236470Y-113284D01*
X2215641Y-113284D01*
X2205227Y-118363D01*
X2194813Y-128778D01*
X2189479Y-139192D01*
X2184400Y-154939D01*
X2184400Y-180847D01*
X2189479Y-196342D01*
X2194813Y-206755D01*
X2205227Y-217170D01*
X2215641Y-222250D01*
X2236470Y-222250D01*
X2246629Y-217170D01*
X2257043Y-206755D01*
X2262377Y-196342D01*
X2348484Y-113284D02*
G01*
X2296668Y-185928D01*
X2374645Y-185928D01*
X2348484Y-113284D02*
G01*
X2348484Y-222250D01*
X5513577Y-2272792D02*
G01*
X5508243Y-2262378D01*
X5497829Y-2251963D01*
X5487670Y-2246884D01*
X5466841Y-2246884D01*
X5456427Y-2251963D01*
X5446013Y-2262378D01*
X5440679Y-2272792D01*
X5435600Y-2288539D01*
X5435600Y-2314447D01*
X5440679Y-2329942D01*
X5446013Y-2340355D01*
X5456427Y-2350770D01*
X5466841Y-2355850D01*
X5487670Y-2355850D01*
X5497829Y-2350770D01*
X5508243Y-2340355D01*
X5513577Y-2329942D01*
X5620511Y-2246884D02*
G01*
X5568695Y-2355850D01*
X5547868Y-2246884D02*
G01*
X5620511Y-2246884D01*
X5310377Y-1688592D02*
G01*
X5305043Y-1678178D01*
X5294629Y-1667763D01*
X5284470Y-1662684D01*
X5263641Y-1662684D01*
X5253227Y-1667763D01*
X5242813Y-1678178D01*
X5237479Y-1688592D01*
X5232400Y-1704339D01*
X5232400Y-1730247D01*
X5237479Y-1745742D01*
X5242813Y-1756155D01*
X5253227Y-1766570D01*
X5263641Y-1771650D01*
X5284470Y-1771650D01*
X5294629Y-1766570D01*
X5305043Y-1756155D01*
X5310377Y-1745742D01*
X5412231Y-1699005D02*
G01*
X5406897Y-1714500D01*
X5396484Y-1724913D01*
X5380990Y-1730247D01*
X5375909Y-1730247D01*
X5360161Y-1724913D01*
X5349747Y-1714500D01*
X5344668Y-1699005D01*
X5344668Y-1693926D01*
X5349747Y-1678178D01*
X5360161Y-1667763D01*
X5375909Y-1662684D01*
X5380990Y-1662684D01*
X5396484Y-1667763D01*
X5406897Y-1678178D01*
X5412231Y-1699005D01*
X5412231Y-1724913D01*
X5406897Y-1751076D01*
X5396484Y-1766570D01*
X5380990Y-1771650D01*
X5370575Y-1771650D01*
X5355081Y-1766570D01*
X5349747Y-1756155D01*
X1424178Y-520192D02*
G01*
X1418844Y-509778D01*
X1408429Y-499363D01*
X1398270Y-494284D01*
X1377442Y-494284D01*
X1367028Y-499363D01*
X1356613Y-509778D01*
X1351279Y-520192D01*
X1346200Y-535939D01*
X1346200Y-561847D01*
X1351279Y-577342D01*
X1356613Y-587755D01*
X1367028Y-598170D01*
X1377442Y-603250D01*
X1398270Y-603250D01*
X1408429Y-598170D01*
X1418844Y-587755D01*
X1424178Y-577342D01*
X1458468Y-515112D02*
G01*
X1468881Y-509778D01*
X1484376Y-494284D01*
X1484376Y-603250D01*
X1570736Y-494284D02*
G01*
X1518665Y-566928D01*
X1596644Y-566928D01*
X1570736Y-494284D02*
G01*
X1570736Y-603250D01*
X2324602Y-1017775D02*
G01*
X2335016Y-1012441D01*
X2345430Y-1002027D01*
X2350510Y-991867D01*
X2350510Y-971039D01*
X2345430Y-960625D01*
X2335016Y-950211D01*
X2324602Y-944877D01*
X2308854Y-939797D01*
X2282946Y-939797D01*
X2267452Y-944877D01*
X2257038Y-950211D01*
X2246624Y-960625D01*
X2241544Y-971039D01*
X2241544Y-991867D01*
X2246624Y-1002027D01*
X2257038Y-1012441D01*
X2267452Y-1017775D01*
X2350510Y-1077973D02*
G01*
X2345430Y-1062479D01*
X2335016Y-1057145D01*
X2324602Y-1057145D01*
X2314188Y-1062479D01*
X2308854Y-1072893D01*
X2303774Y-1093467D01*
X2298694Y-1109215D01*
X2288280Y-1119629D01*
X2277866Y-1124709D01*
X2262118Y-1124709D01*
X2251704Y-1119629D01*
X2246624Y-1114295D01*
X2241544Y-1098801D01*
X2241544Y-1077973D01*
X2246624Y-1062479D01*
X2251704Y-1057145D01*
X2262118Y-1052065D01*
X2277866Y-1052065D01*
X2288280Y-1057145D01*
X2298694Y-1067559D01*
X2303774Y-1083307D01*
X2308854Y-1103881D01*
X2314188Y-1114295D01*
X2324602Y-1119629D01*
X2335016Y-1119629D01*
X2345430Y-1114295D01*
X2350510Y-1098801D01*
X2350510Y-1077973D01*
X4458200Y-1017775D02*
G01*
X4468614Y-1012441D01*
X4479028Y-1002027D01*
X4484108Y-991867D01*
X4484108Y-971039D01*
X4479028Y-960625D01*
X4468614Y-950211D01*
X4458200Y-944877D01*
X4442452Y-939797D01*
X4416544Y-939797D01*
X4401050Y-944877D01*
X4390636Y-950211D01*
X4380222Y-960625D01*
X4375142Y-971039D01*
X4375142Y-991867D01*
X4380222Y-1002027D01*
X4390636Y-1012441D01*
X4401050Y-1017775D01*
X4468614Y-1114295D02*
G01*
X4479028Y-1109215D01*
X4484108Y-1093467D01*
X4484108Y-1083307D01*
X4479028Y-1067559D01*
X4463280Y-1057145D01*
X4437372Y-1052065D01*
X4411464Y-1052065D01*
X4390636Y-1057145D01*
X4380222Y-1067559D01*
X4375142Y-1083307D01*
X4375142Y-1088387D01*
X4380222Y-1103881D01*
X4390636Y-1114295D01*
X4406130Y-1119629D01*
X4411464Y-1119629D01*
X4426958Y-1114295D01*
X4437372Y-1103881D01*
X4442452Y-1088387D01*
X4442452Y-1083307D01*
X4437372Y-1067559D01*
X4426958Y-1057145D01*
X4411464Y-1052065D01*
X4077708Y-4419592D02*
G01*
X3968742Y-4419592D01*
X3968742Y-4419592D02*
G01*
X3968742Y-4481822D01*
X4056880Y-4516112D02*
G01*
X4062214Y-4526526D01*
X4077708Y-4542274D01*
X3968742Y-4542274D01*
X5703308Y-971392D02*
G01*
X5594342Y-971392D01*
X5703308Y-971392D02*
G01*
X5703308Y-1018128D01*
X5698228Y-1033622D01*
X5692894Y-1038956D01*
X5682480Y-1044036D01*
X5672066Y-1044036D01*
X5661652Y-1038956D01*
X5656572Y-1033622D01*
X5651492Y-1018128D01*
X5651492Y-971392D01*
X5651492Y-1007714D02*
G01*
X5594342Y-1044036D01*
X5703308Y-1130396D02*
G01*
X5630664Y-1078326D01*
X5630664Y-1156304D01*
X5703308Y-1130396D02*
G01*
X5594342Y-1130396D01*
X4317992Y-443484D02*
G01*
X4317992Y-552450D01*
X4317992Y-443484D02*
G01*
X4364728Y-443484D01*
X4380222Y-448563D01*
X4385556Y-453897D01*
X4390636Y-464312D01*
X4390636Y-474726D01*
X4385556Y-485139D01*
X4380222Y-490220D01*
X4364728Y-495300D01*
X4317992Y-495300D01*
X4354314Y-495300D02*
G01*
X4390636Y-552450D01*
X4497824Y-443484D02*
G01*
X4445754Y-552450D01*
X4424926Y-443484D02*
G01*
X4497824Y-443484D01*
X4851389Y-291084D02*
G01*
X4851389Y-400050D01*
X4851389Y-291084D02*
G01*
X4898125Y-291084D01*
X4913619Y-296163D01*
X4918953Y-301497D01*
X4924033Y-311912D01*
X4924033Y-322326D01*
X4918953Y-332739D01*
X4913619Y-337820D01*
X4898125Y-342900D01*
X4851389Y-342900D01*
X4887711Y-342900D02*
G01*
X4924033Y-400050D01*
X4958323Y-311912D02*
G01*
X4968737Y-306578D01*
X4984485Y-291084D01*
X4984485Y-400050D01*
X5018775Y-311912D02*
G01*
X5029189Y-306578D01*
X5044683Y-291084D01*
X5044683Y-400050D01*
X6287503Y-1600197D02*
G01*
X6178537Y-1600197D01*
X6287503Y-1600197D02*
G01*
X6287503Y-1646933D01*
X6282423Y-1662427D01*
X6277089Y-1667761D01*
X6266675Y-1672841D01*
X6256261Y-1672841D01*
X6245847Y-1667761D01*
X6240767Y-1662427D01*
X6235687Y-1646933D01*
X6235687Y-1600197D01*
X6235687Y-1636519D02*
G01*
X6178537Y-1672841D01*
X6266675Y-1707131D02*
G01*
X6272009Y-1717545D01*
X6287503Y-1733293D01*
X6178537Y-1733293D01*
X6261595Y-1772663D02*
G01*
X6266675Y-1772663D01*
X6277089Y-1777997D01*
X6282423Y-1783077D01*
X6287503Y-1793491D01*
X6287503Y-1814319D01*
X6282423Y-1824733D01*
X6277089Y-1829813D01*
X6266675Y-1835147D01*
X6256261Y-1835147D01*
X6245847Y-1829813D01*
X6230353Y-1819399D01*
X6178537Y-1767583D01*
X6178537Y-1840227D01*
X6439903Y-1320797D02*
G01*
X6330937Y-1320797D01*
X6439903Y-1320797D02*
G01*
X6439903Y-1367533D01*
X6434823Y-1383027D01*
X6429489Y-1388361D01*
X6419075Y-1393441D01*
X6408661Y-1393441D01*
X6398247Y-1388361D01*
X6393167Y-1383027D01*
X6388087Y-1367533D01*
X6388087Y-1320797D01*
X6388087Y-1357119D02*
G01*
X6330937Y-1393441D01*
X6419075Y-1427731D02*
G01*
X6424409Y-1438145D01*
X6439903Y-1453893D01*
X6330937Y-1453893D01*
X6439903Y-1550413D02*
G01*
X6439903Y-1498597D01*
X6393167Y-1493263D01*
X6398247Y-1498597D01*
X6403581Y-1514091D01*
X6403581Y-1529585D01*
X6398247Y-1545333D01*
X6388087Y-1555747D01*
X6372339Y-1560827D01*
X6361925Y-1560827D01*
X6346431Y-1555747D01*
X6336017Y-1545333D01*
X6330937Y-1529585D01*
X6330937Y-1514091D01*
X6336017Y-1498597D01*
X6341097Y-1493263D01*
X6351511Y-1488183D01*
X5410189Y-443484D02*
G01*
X5410189Y-552450D01*
X5410189Y-443484D02*
G01*
X5456925Y-443484D01*
X5472419Y-448563D01*
X5477753Y-453897D01*
X5482833Y-464312D01*
X5482833Y-474726D01*
X5477753Y-485139D01*
X5472419Y-490220D01*
X5456925Y-495300D01*
X5410189Y-495300D01*
X5446511Y-495300D02*
G01*
X5482833Y-552450D01*
X5517123Y-464312D02*
G01*
X5527537Y-458978D01*
X5543285Y-443484D01*
X5543285Y-552450D01*
X5639805Y-458978D02*
G01*
X5634725Y-448563D01*
X5618977Y-443484D01*
X5608563Y-443484D01*
X5593069Y-448563D01*
X5582655Y-464312D01*
X5577575Y-490220D01*
X5577575Y-516128D01*
X5582655Y-536955D01*
X5593069Y-547370D01*
X5608563Y-552450D01*
X5613897Y-552450D01*
X5629391Y-547370D01*
X5639805Y-536955D01*
X5645139Y-521462D01*
X5645139Y-516128D01*
X5639805Y-500634D01*
X5629391Y-490220D01*
X5613897Y-485139D01*
X5608563Y-485139D01*
X5593069Y-490220D01*
X5582655Y-500634D01*
X5577575Y-516128D01*
X6617703Y-1320797D02*
G01*
X6508737Y-1320797D01*
X6617703Y-1320797D02*
G01*
X6617703Y-1367533D01*
X6612623Y-1383027D01*
X6607289Y-1388361D01*
X6596875Y-1393441D01*
X6586461Y-1393441D01*
X6576047Y-1388361D01*
X6570967Y-1383027D01*
X6565887Y-1367533D01*
X6565887Y-1320797D01*
X6565887Y-1357119D02*
G01*
X6508737Y-1393441D01*
X6596875Y-1427731D02*
G01*
X6602209Y-1438145D01*
X6617703Y-1453893D01*
X6508737Y-1453893D01*
X6617703Y-1560827D02*
G01*
X6508737Y-1508757D01*
X6617703Y-1488183D02*
G01*
X6617703Y-1560827D01*
X4698992Y-1059276D02*
G01*
X4698992Y-1137254D01*
X4704072Y-1152748D01*
X4714486Y-1163162D01*
X4730234Y-1168242D01*
X4740648Y-1168242D01*
X4756142Y-1163162D01*
X4766556Y-1152748D01*
X4771636Y-1137254D01*
X4771636Y-1059276D01*
X4832088Y-1059276D02*
G01*
X4816340Y-1064356D01*
X4811260Y-1074770D01*
X4811260Y-1085184D01*
X4816340Y-1095598D01*
X4826754Y-1100932D01*
X4847582Y-1106012D01*
X4863076Y-1111092D01*
X4873490Y-1121506D01*
X4878824Y-1131920D01*
X4878824Y-1147668D01*
X4873490Y-1158082D01*
X4868410Y-1163162D01*
X4852662Y-1168242D01*
X4832088Y-1168242D01*
X4816340Y-1163162D01*
X4811260Y-1158082D01*
X4805926Y-1147668D01*
X4805926Y-1131920D01*
X4811260Y-1121506D01*
X4821674Y-1111092D01*
X4837168Y-1106012D01*
X4857996Y-1100932D01*
X4868410Y-1095598D01*
X4873490Y-1085184D01*
X4873490Y-1074770D01*
X4868410Y-1064356D01*
X4852662Y-1059276D01*
X4832088Y-1059276D01*
X2590794Y-291084D02*
G01*
X2590794Y-400050D01*
X2590794Y-291084D02*
G01*
X2637530Y-291084D01*
X2653024Y-296163D01*
X2658358Y-301497D01*
X2663438Y-311912D01*
X2663438Y-322326D01*
X2658358Y-332739D01*
X2653024Y-337820D01*
X2637530Y-342900D01*
X2590794Y-342900D01*
X2627116Y-342900D02*
G01*
X2663438Y-400050D01*
X2708142Y-291084D02*
G01*
X2765292Y-291084D01*
X2734304Y-332739D01*
X2749798Y-332739D01*
X2760212Y-337820D01*
X2765292Y-342900D01*
X2770626Y-358647D01*
X2770626Y-369062D01*
X2765292Y-384555D01*
X2754878Y-394970D01*
X2739384Y-400050D01*
X2723890Y-400050D01*
X2708142Y-394970D01*
X2703062Y-389889D01*
X2697728Y-379476D01*
X4699000Y-3847084D02*
G01*
X4699000Y-3956050D01*
X4699000Y-3847084D02*
G01*
X4745736Y-3847084D01*
X4761229Y-3852163D01*
X4766563Y-3857497D01*
X4771643Y-3867912D01*
X4771643Y-3878326D01*
X4766563Y-3888739D01*
X4761229Y-3893820D01*
X4745736Y-3898900D01*
X4699000Y-3898900D01*
X4735322Y-3898900D02*
G01*
X4771643Y-3956050D01*
X4805934Y-3867912D02*
G01*
X4816347Y-3862578D01*
X4832095Y-3847084D01*
X4832095Y-3956050D01*
X4876800Y-3847084D02*
G01*
X4933950Y-3847084D01*
X4902708Y-3888739D01*
X4918202Y-3888739D01*
X4928615Y-3893820D01*
X4933950Y-3898900D01*
X4939029Y-3914647D01*
X4939029Y-3925062D01*
X4933950Y-3940555D01*
X4923536Y-3950970D01*
X4907788Y-3956050D01*
X4892293Y-3956050D01*
X4876800Y-3950970D01*
X4871465Y-3945889D01*
X4866386Y-3935476D01*
X1004315Y-812800D02*
G01*
X895350Y-812800D01*
X1004315Y-812800D02*
G01*
X1004315Y-859536D01*
X999236Y-875029D01*
X993902Y-880363D01*
X983487Y-885444D01*
X973073Y-885444D01*
X962660Y-880363D01*
X957579Y-875029D01*
X952500Y-859536D01*
X952500Y-812800D01*
X952500Y-849121D02*
G01*
X895350Y-885444D01*
X983487Y-919734D02*
G01*
X988821Y-930147D01*
X1004315Y-945895D01*
X895350Y-945895D01*
X1004315Y-1006094D02*
G01*
X999236Y-990600D01*
X988821Y-985265D01*
X978407Y-985265D01*
X967994Y-990600D01*
X962660Y-1000760D01*
X957579Y-1021587D01*
X952500Y-1037336D01*
X942086Y-1047750D01*
X931671Y-1052829D01*
X915923Y-1052829D01*
X905510Y-1047750D01*
X900429Y-1042415D01*
X895350Y-1026921D01*
X895350Y-1006094D01*
X900429Y-990600D01*
X905510Y-985265D01*
X915923Y-980186D01*
X931671Y-980186D01*
X942086Y-985265D01*
X952500Y-995679D01*
X957579Y-1011173D01*
X962660Y-1032002D01*
X967994Y-1042415D01*
X978407Y-1047750D01*
X988821Y-1047750D01*
X999236Y-1042415D01*
X1004315Y-1026921D01*
X1004315Y-1006094D01*
X3857236Y-1170175D02*
G01*
X3846822Y-1159761D01*
X3831328Y-1154681D01*
X3810500Y-1154681D01*
X3795006Y-1159761D01*
X3784592Y-1170175D01*
X3784592Y-1180589D01*
X3789672Y-1191003D01*
X3795006Y-1196337D01*
X3805420Y-1201417D01*
X3836662Y-1211831D01*
X3846822Y-1216911D01*
X3852156Y-1222245D01*
X3857236Y-1232659D01*
X3857236Y-1248153D01*
X3846822Y-1258567D01*
X3831328Y-1263647D01*
X3810500Y-1263647D01*
X3795006Y-1258567D01*
X3784592Y-1248153D01*
X3891526Y-1154681D02*
G01*
X3891526Y-1263647D01*
X4003794Y-1180589D02*
G01*
X3998714Y-1170175D01*
X3988300Y-1159761D01*
X3977886Y-1154681D01*
X3957058Y-1154681D01*
X3946644Y-1159761D01*
X3936230Y-1170175D01*
X3931150Y-1180589D01*
X3925816Y-1196337D01*
X3925816Y-1222245D01*
X3931150Y-1237739D01*
X3936230Y-1248153D01*
X3946644Y-1258567D01*
X3957058Y-1263647D01*
X3977886Y-1263647D01*
X3988300Y-1258567D01*
X3998714Y-1248153D01*
X4003794Y-1237739D01*
X4003794Y-1222245D01*
X3977886Y-1222245D02*
G01*
X4003794Y-1222245D01*
X5474698Y-666592D02*
G01*
X5365732Y-666592D01*
X5474698Y-666592D02*
G01*
X5474698Y-702914D01*
X5469618Y-718662D01*
X5459204Y-728822D01*
X5448790Y-734156D01*
X5433042Y-739236D01*
X5407134Y-739236D01*
X5391640Y-734156D01*
X5381226Y-728822D01*
X5370812Y-718662D01*
X5365732Y-702914D01*
X5365732Y-666592D01*
X5474698Y-783940D02*
G01*
X5474698Y-841090D01*
X5433042Y-810102D01*
X5433042Y-825596D01*
X5427962Y-836010D01*
X5422882Y-841090D01*
X5407134Y-846424D01*
X5396720Y-846424D01*
X5381226Y-841090D01*
X5370812Y-830676D01*
X5365732Y-815182D01*
X5365732Y-799688D01*
X5370812Y-783940D01*
X5375892Y-778860D01*
X5386306Y-773526D01*
X5486389Y-4253476D02*
G01*
X5486389Y-4362442D01*
X5486389Y-4253476D02*
G01*
X5533125Y-4253476D01*
X5548619Y-4258556D01*
X5553953Y-4263890D01*
X5559033Y-4274304D01*
X5559033Y-4284718D01*
X5553953Y-4295132D01*
X5548619Y-4300212D01*
X5533125Y-4305292D01*
X5486389Y-4305292D01*
X5522711Y-4305292D02*
G01*
X5559033Y-4362442D01*
X5598657Y-4279384D02*
G01*
X5598657Y-4274304D01*
X5603737Y-4263890D01*
X5609071Y-4258556D01*
X5619485Y-4253476D01*
X5640059Y-4253476D01*
X5650473Y-4258556D01*
X5655807Y-4263890D01*
X5660887Y-4274304D01*
X5660887Y-4284718D01*
X5655807Y-4295132D01*
X5645393Y-4310626D01*
X5593323Y-4362442D01*
X5666221Y-4362442D01*
X5181582Y-1211673D02*
G01*
X5181582Y-1320639D01*
X5181582Y-1211673D02*
G01*
X5228318Y-1211673D01*
X5243812Y-1216753D01*
X5249146Y-1222087D01*
X5254226Y-1232501D01*
X5254226Y-1242915D01*
X5249146Y-1253329D01*
X5243812Y-1258409D01*
X5228318Y-1263489D01*
X5181582Y-1263489D01*
X5217904Y-1263489D02*
G01*
X5254226Y-1320639D01*
X5351000Y-1227167D02*
G01*
X5345666Y-1216753D01*
X5330172Y-1211673D01*
X5319758Y-1211673D01*
X5304264Y-1216753D01*
X5293850Y-1232501D01*
X5288516Y-1258409D01*
X5288516Y-1284317D01*
X5293850Y-1305145D01*
X5304264Y-1315559D01*
X5319758Y-1320639D01*
X5325092Y-1320639D01*
X5340586Y-1315559D01*
X5351000Y-1305145D01*
X5356080Y-1289651D01*
X5356080Y-1284317D01*
X5351000Y-1268823D01*
X5340586Y-1258409D01*
X5325092Y-1253329D01*
X5319758Y-1253329D01*
X5304264Y-1258409D01*
X5293850Y-1268823D01*
X5288516Y-1284317D01*
X6121387Y-2450078D02*
G01*
X6121387Y-2559044D01*
X6121387Y-2450078D02*
G01*
X6168123Y-2450078D01*
X6183617Y-2455158D01*
X6188951Y-2460492D01*
X6194031Y-2470906D01*
X6194031Y-2481320D01*
X6188951Y-2491734D01*
X6183617Y-2496814D01*
X6168123Y-2501894D01*
X6121387Y-2501894D01*
X6157709Y-2501894D02*
G01*
X6194031Y-2559044D01*
X6254483Y-2450078D02*
G01*
X6238735Y-2455158D01*
X6233655Y-2465572D01*
X6233655Y-2475986D01*
X6238735Y-2486400D01*
X6249149Y-2491734D01*
X6269977Y-2496814D01*
X6285471Y-2501894D01*
X6295885Y-2512308D01*
X6301219Y-2522722D01*
X6301219Y-2538470D01*
X6295885Y-2548884D01*
X6290805Y-2553964D01*
X6275057Y-2559044D01*
X6254483Y-2559044D01*
X6238735Y-2553964D01*
X6233655Y-2548884D01*
X6228321Y-2538470D01*
X6228321Y-2522722D01*
X6233655Y-2512308D01*
X6244069Y-2501894D01*
X6259563Y-2496814D01*
X6280391Y-2491734D01*
X6290805Y-2486400D01*
X6295885Y-2475986D01*
X6295885Y-2465572D01*
X6290805Y-2455158D01*
X6275057Y-2450078D01*
X6254483Y-2450078D01*
X5576305Y-4470389D02*
G01*
X5467339Y-4470389D01*
X5576305Y-4470389D02*
G01*
X5576305Y-4517125D01*
X5571225Y-4532619D01*
X5565891Y-4537953D01*
X5555477Y-4543033D01*
X5545063Y-4543033D01*
X5534649Y-4537953D01*
X5529569Y-4532619D01*
X5524489Y-4517125D01*
X5524489Y-4470389D01*
X5524489Y-4506711D02*
G01*
X5467339Y-4543033D01*
X5539983Y-4644887D02*
G01*
X5524489Y-4639807D01*
X5514075Y-4629393D01*
X5508741Y-4613899D01*
X5508741Y-4608565D01*
X5514075Y-4593071D01*
X5524489Y-4582657D01*
X5539983Y-4577323D01*
X5545063Y-4577323D01*
X5560811Y-4582657D01*
X5571225Y-4593071D01*
X5576305Y-4608565D01*
X5576305Y-4613899D01*
X5571225Y-4629393D01*
X5560811Y-4639807D01*
X5539983Y-4644887D01*
X5514075Y-4644887D01*
X5487913Y-4639807D01*
X5472419Y-4629393D01*
X5467339Y-4613899D01*
X5467339Y-4603485D01*
X5472419Y-4587737D01*
X5482833Y-4582657D01*
D17*
X2641594Y-621281D02*
G01*
X2641594Y-730247D01*
X2641594Y-621281D02*
G01*
X2688330Y-621281D01*
X2703824Y-626361D01*
X2709158Y-631695D01*
X2714238Y-642109D01*
X2714238Y-652523D01*
X2709158Y-662937D01*
X2703824Y-668017D01*
X2688330Y-673097D01*
X2641594Y-673097D01*
X2677916Y-673097D02*
G01*
X2714238Y-730247D01*
X2748528Y-642109D02*
G01*
X2758942Y-636775D01*
X2774690Y-621281D01*
X2774690Y-730247D01*
X2839968Y-621281D02*
G01*
X2824474Y-626361D01*
X2814060Y-642109D01*
X2808980Y-668017D01*
X2808980Y-683511D01*
X2814060Y-709673D01*
X2824474Y-725167D01*
X2839968Y-730247D01*
X2850382Y-730247D01*
X2866130Y-725167D01*
X2876544Y-709673D01*
X2881624Y-683511D01*
X2881624Y-668017D01*
X2876544Y-642109D01*
X2866130Y-626361D01*
X2850382Y-621281D01*
X2839968Y-621281D01*
D12*
X5931903Y-1625597D02*
G01*
X5822937Y-1625597D01*
X5931903Y-1625597D02*
G01*
X5931903Y-1672333D01*
X5926823Y-1687827D01*
X5921489Y-1693161D01*
X5911075Y-1698241D01*
X5900661Y-1698241D01*
X5890247Y-1693161D01*
X5885167Y-1687827D01*
X5880087Y-1672333D01*
X5880087Y-1625597D01*
X5880087Y-1661919D02*
G01*
X5822937Y-1698241D01*
X5911075Y-1732531D02*
G01*
X5916409Y-1742945D01*
X5931903Y-1758693D01*
X5822937Y-1758693D01*
X5931903Y-1844799D02*
G01*
X5859259Y-1792983D01*
X5859259Y-1870707D01*
X5931903Y-1844799D02*
G01*
X5822937Y-1844799D01*
X6236703Y-4190992D02*
G01*
X6127737Y-4190992D01*
X6236703Y-4190992D02*
G01*
X6236703Y-4237728D01*
X6231623Y-4253222D01*
X6226289Y-4258556D01*
X6215875Y-4263636D01*
X6205461Y-4263636D01*
X6195047Y-4258556D01*
X6189967Y-4253222D01*
X6184887Y-4237728D01*
X6184887Y-4190992D01*
X6184887Y-4227314D02*
G01*
X6127737Y-4263636D01*
X6215875Y-4297926D02*
G01*
X6221209Y-4308340D01*
X6236703Y-4324088D01*
X6127737Y-4324088D01*
X6200381Y-4425942D02*
G01*
X6184887Y-4420608D01*
X6174473Y-4410194D01*
X6169139Y-4394700D01*
X6169139Y-4389366D01*
X6174473Y-4373872D01*
X6184887Y-4363458D01*
X6200381Y-4358378D01*
X6205461Y-4358378D01*
X6221209Y-4363458D01*
X6231623Y-4373872D01*
X6236703Y-4389366D01*
X6236703Y-4394700D01*
X6231623Y-4410194D01*
X6221209Y-4420608D01*
X6200381Y-4425942D01*
X6174473Y-4425942D01*
X6148311Y-4420608D01*
X6132817Y-4410194D01*
X6127737Y-4394700D01*
X6127737Y-4384286D01*
X6132817Y-4368792D01*
X6143231Y-4363458D01*
X3657600Y-3897863D02*
G01*
X3657600Y-4006829D01*
X3657600Y-4006829D02*
G01*
X3719829Y-4006829D01*
X3759454Y-3923771D02*
G01*
X3759454Y-3918691D01*
X3764534Y-3908277D01*
X3769868Y-3902943D01*
X3780281Y-3897863D01*
X3801109Y-3897863D01*
X3811270Y-3902943D01*
X3816604Y-3908277D01*
X3821684Y-3918691D01*
X3821684Y-3929105D01*
X3816604Y-3939519D01*
X3806190Y-3955013D01*
X3754120Y-4006829D01*
X3827018Y-4006829D01*
X1156718Y-1092215D02*
G01*
X1047752Y-1092215D01*
X1047752Y-1092215D02*
G01*
X1047752Y-1154445D01*
X1156718Y-1199149D02*
G01*
X1156718Y-1256299D01*
X1115062Y-1225311D01*
X1115062Y-1240805D01*
X1109982Y-1251219D01*
X1104902Y-1256299D01*
X1089154Y-1261633D01*
X1078740Y-1261633D01*
X1063246Y-1256299D01*
X1052832Y-1245885D01*
X1047752Y-1230391D01*
X1047752Y-1214897D01*
X1052832Y-1199149D01*
X1057912Y-1194069D01*
X1068326Y-1188735D01*
X5613400Y-4710684D02*
G01*
X5613400Y-4819650D01*
X5613400Y-4819650D02*
G01*
X5675629Y-4819650D01*
X5761990Y-4710684D02*
G01*
X5709920Y-4783328D01*
X5787897Y-4783328D01*
X5761990Y-4710684D02*
G01*
X5761990Y-4819650D01*
X6121387Y-2246878D02*
G01*
X6121387Y-2324856D01*
X6126467Y-2340350D01*
X6136881Y-2350764D01*
X6152629Y-2355844D01*
X6163043Y-2355844D01*
X6178537Y-2350764D01*
X6188951Y-2340350D01*
X6194031Y-2324856D01*
X6194031Y-2246878D01*
X6290805Y-2262372D02*
G01*
X6285471Y-2251958D01*
X6269977Y-2246878D01*
X6259563Y-2246878D01*
X6244069Y-2251958D01*
X6233655Y-2267706D01*
X6228321Y-2293614D01*
X6228321Y-2319522D01*
X6233655Y-2340350D01*
X6244069Y-2350764D01*
X6259563Y-2355844D01*
X6264897Y-2355844D01*
X6280391Y-2350764D01*
X6290805Y-2340350D01*
X6295885Y-2324856D01*
X6295885Y-2319522D01*
X6290805Y-2304028D01*
X6280391Y-2293614D01*
X6264897Y-2288534D01*
X6259563Y-2288534D01*
X6244069Y-2293614D01*
X6233655Y-2304028D01*
X6228321Y-2319522D01*
X3684777Y-545592D02*
G01*
X3679443Y-535178D01*
X3669029Y-524763D01*
X3658870Y-519684D01*
X3638041Y-519684D01*
X3627627Y-524763D01*
X3617213Y-535178D01*
X3611879Y-545592D01*
X3606800Y-561339D01*
X3606800Y-587247D01*
X3611879Y-602742D01*
X3617213Y-613155D01*
X3627627Y-623570D01*
X3638041Y-628650D01*
X3658870Y-628650D01*
X3669029Y-623570D01*
X3679443Y-613155D01*
X3684777Y-602742D01*
X3719068Y-540512D02*
G01*
X3729481Y-535178D01*
X3744975Y-519684D01*
X3744975Y-628650D01*
X3810508Y-519684D02*
G01*
X3794759Y-524763D01*
X3784600Y-540512D01*
X3779265Y-566420D01*
X3779265Y-581913D01*
X3784600Y-608076D01*
X3794759Y-623570D01*
X3810508Y-628650D01*
X3820922Y-628650D01*
X3836415Y-623570D01*
X3846829Y-608076D01*
X3851909Y-581913D01*
X3851909Y-566420D01*
X3846829Y-540512D01*
X3836415Y-524763D01*
X3820922Y-519684D01*
X3810508Y-519684D01*
X1424178Y-875792D02*
G01*
X1418844Y-865378D01*
X1408429Y-854963D01*
X1398270Y-849884D01*
X1377442Y-849884D01*
X1367028Y-854963D01*
X1356613Y-865378D01*
X1351279Y-875792D01*
X1346200Y-891539D01*
X1346200Y-917447D01*
X1351279Y-932942D01*
X1356613Y-943355D01*
X1367028Y-953770D01*
X1377442Y-958850D01*
X1398270Y-958850D01*
X1408429Y-953770D01*
X1418844Y-943355D01*
X1424178Y-932942D01*
X1458468Y-870712D02*
G01*
X1468881Y-865378D01*
X1484376Y-849884D01*
X1484376Y-958850D01*
X1518665Y-870712D02*
G01*
X1529079Y-865378D01*
X1544573Y-849884D01*
X1544573Y-958850D01*
X1424178Y-697992D02*
G01*
X1418844Y-687578D01*
X1408429Y-677163D01*
X1398270Y-672084D01*
X1377442Y-672084D01*
X1367028Y-677163D01*
X1356613Y-687578D01*
X1351279Y-697992D01*
X1346200Y-713739D01*
X1346200Y-739647D01*
X1351279Y-755142D01*
X1356613Y-765555D01*
X1367028Y-775970D01*
X1377442Y-781050D01*
X1398270Y-781050D01*
X1408429Y-775970D01*
X1418844Y-765555D01*
X1424178Y-755142D01*
X1458468Y-692912D02*
G01*
X1468881Y-687578D01*
X1484376Y-672084D01*
X1484376Y-781050D01*
X1524000Y-697992D02*
G01*
X1524000Y-692912D01*
X1529079Y-682497D01*
X1534160Y-677163D01*
X1544573Y-672084D01*
X1565402Y-672084D01*
X1575815Y-677163D01*
X1581150Y-682497D01*
X1586229Y-692912D01*
X1586229Y-703326D01*
X1581150Y-713739D01*
X1570736Y-729234D01*
X1518665Y-781050D01*
X1591310Y-781050D01*
X3645661Y-3753104D02*
G01*
X3640581Y-3742689D01*
X3630168Y-3732276D01*
X3619754Y-3727195D01*
X3598925Y-3727195D01*
X3588511Y-3732276D01*
X3578097Y-3742689D01*
X3573018Y-3753104D01*
X3567684Y-3768597D01*
X3567684Y-3794505D01*
X3573018Y-3810254D01*
X3578097Y-3820668D01*
X3588511Y-3831081D01*
X3598925Y-3836162D01*
X3619754Y-3836162D01*
X3630168Y-3831081D01*
X3640581Y-3820668D01*
X3645661Y-3810254D01*
X3679952Y-3747770D02*
G01*
X3690365Y-3742689D01*
X3705859Y-3727195D01*
X3705859Y-3836162D01*
X3750563Y-3727195D02*
G01*
X3807713Y-3727195D01*
X3776725Y-3768597D01*
X3792220Y-3768597D01*
X3802634Y-3773931D01*
X3807713Y-3779012D01*
X3813047Y-3794505D01*
X3813047Y-3804920D01*
X3807713Y-3820668D01*
X3797300Y-3831081D01*
X3781806Y-3836162D01*
X3766311Y-3836162D01*
X3750563Y-3831081D01*
X3745484Y-3825747D01*
X3740150Y-3815334D01*
X4444491Y-3844086D02*
G01*
X4454906Y-3839006D01*
X4465320Y-3828592D01*
X4470400Y-3818178D01*
X4470400Y-3797350D01*
X4465320Y-3786936D01*
X4454906Y-3776522D01*
X4444491Y-3771442D01*
X4428997Y-3766108D01*
X4403090Y-3766108D01*
X4387341Y-3771442D01*
X4376927Y-3776522D01*
X4366513Y-3786936D01*
X4361434Y-3797350D01*
X4361434Y-3818178D01*
X4366513Y-3828592D01*
X4376927Y-3839006D01*
X4387341Y-3844086D01*
X4449825Y-3878376D02*
G01*
X4454906Y-3888790D01*
X4470400Y-3904284D01*
X4361434Y-3904284D01*
X4470400Y-4001058D02*
G01*
X4470400Y-3948988D01*
X4423663Y-3943908D01*
X4428997Y-3948988D01*
X4434077Y-3964736D01*
X4434077Y-3980230D01*
X4428997Y-3995724D01*
X4418584Y-4006138D01*
X4403090Y-4011472D01*
X4392675Y-4011472D01*
X4376927Y-4006138D01*
X4366513Y-3995724D01*
X4361434Y-3980230D01*
X4361434Y-3964736D01*
X4366513Y-3948988D01*
X4371847Y-3943908D01*
X4382261Y-3938574D01*
X1918738Y-1041394D02*
G01*
X1840806Y-1041394D01*
X1825221Y-1046589D01*
X1814829Y-1056980D01*
X1809635Y-1072568D01*
X1809635Y-1082959D01*
X1814829Y-1098544D01*
X1825221Y-1108936D01*
X1840806Y-1114130D01*
X1918738Y-1114130D01*
X1892762Y-1153617D02*
G01*
X1897956Y-1153617D01*
X1908347Y-1158811D01*
X1913544Y-1164008D01*
X1918738Y-1174399D01*
X1918738Y-1195179D01*
X1913544Y-1205570D01*
X1908347Y-1210767D01*
X1897956Y-1215961D01*
X1887565Y-1215961D01*
X1877174Y-1210767D01*
X1861588Y-1200376D01*
X1809635Y-1148420D01*
X1809635Y-1221158D01*
X6732765Y-3390386D02*
G01*
X6727431Y-3379972D01*
X6717017Y-3369558D01*
X6706857Y-3364478D01*
X6686029Y-3364478D01*
X6675615Y-3369558D01*
X6665201Y-3379972D01*
X6659867Y-3390386D01*
X6654787Y-3406134D01*
X6654787Y-3432042D01*
X6659867Y-3447536D01*
X6665201Y-3457950D01*
X6675615Y-3468364D01*
X6686029Y-3473444D01*
X6706857Y-3473444D01*
X6717017Y-3468364D01*
X6727431Y-3457950D01*
X6732765Y-3447536D01*
X6767055Y-3385306D02*
G01*
X6777469Y-3379972D01*
X6792963Y-3364478D01*
X6792963Y-3473444D01*
X5945365Y-4787384D02*
G01*
X5940031Y-4776970D01*
X5929617Y-4766556D01*
X5919457Y-4761476D01*
X5898629Y-4761476D01*
X5888215Y-4766556D01*
X5877801Y-4776970D01*
X5872467Y-4787384D01*
X5867387Y-4803132D01*
X5867387Y-4829040D01*
X5872467Y-4844534D01*
X5877801Y-4854948D01*
X5888215Y-4865362D01*
X5898629Y-4870442D01*
X5919457Y-4870442D01*
X5929617Y-4865362D01*
X5940031Y-4854948D01*
X5945365Y-4844534D01*
X6041885Y-4761476D02*
G01*
X5990069Y-4761476D01*
X5984735Y-4808212D01*
X5990069Y-4803132D01*
X6005563Y-4797798D01*
X6021057Y-4797798D01*
X6036805Y-4803132D01*
X6047219Y-4813292D01*
X6052299Y-4829040D01*
X6052299Y-4839454D01*
X6047219Y-4854948D01*
X6036805Y-4865362D01*
X6021057Y-4870442D01*
X6005563Y-4870442D01*
X5990069Y-4865362D01*
X5984735Y-4860282D01*
X5979655Y-4849868D01*
X5144358Y-4768992D02*
G01*
X5139024Y-4758578D01*
X5128610Y-4748164D01*
X5118450Y-4743084D01*
X5097622Y-4743084D01*
X5087208Y-4748164D01*
X5076794Y-4758578D01*
X5071460Y-4768992D01*
X5066380Y-4784740D01*
X5066380Y-4810648D01*
X5071460Y-4826142D01*
X5076794Y-4836556D01*
X5087208Y-4846970D01*
X5097622Y-4852050D01*
X5118450Y-4852050D01*
X5128610Y-4846970D01*
X5139024Y-4836556D01*
X5144358Y-4826142D01*
X5178648Y-4763912D02*
G01*
X5189062Y-4758578D01*
X5204556Y-4743084D01*
X5204556Y-4852050D01*
X5301330Y-4758578D02*
G01*
X5295996Y-4748164D01*
X5280502Y-4743084D01*
X5270088Y-4743084D01*
X5254340Y-4748164D01*
X5244180Y-4763912D01*
X5238846Y-4789820D01*
X5238846Y-4815728D01*
X5244180Y-4836556D01*
X5254340Y-4846970D01*
X5270088Y-4852050D01*
X5275168Y-4852050D01*
X5290916Y-4846970D01*
X5301330Y-4836556D01*
X5306410Y-4821062D01*
X5306410Y-4815728D01*
X5301330Y-4800234D01*
X5290916Y-4789820D01*
X5275168Y-4784740D01*
X5270088Y-4784740D01*
X5254340Y-4789820D01*
X5244180Y-4800234D01*
X5238846Y-4815728D01*
X756152Y-823468D02*
G01*
X764280Y-819150D01*
X772408Y-811021D01*
X776726Y-802894D01*
X776726Y-786637D01*
X772408Y-778255D01*
X764280Y-770128D01*
X756152Y-766063D01*
X743960Y-762000D01*
X723386Y-762000D01*
X711194Y-766063D01*
X703066Y-770128D01*
X694684Y-778255D01*
X690620Y-786637D01*
X690620Y-802894D01*
X694684Y-811021D01*
X703066Y-819150D01*
X711194Y-823468D01*
X723386Y-823468D01*
X723386Y-802894D02*
G01*
X723386Y-823468D01*
X776726Y-850392D02*
G01*
X690620Y-850392D01*
X776726Y-850392D02*
G01*
X690620Y-907542D01*
X776726Y-907542D02*
G01*
X690620Y-907542D01*
X776726Y-934720D02*
G01*
X690620Y-934720D01*
X776726Y-934720D02*
G01*
X776726Y-963168D01*
X772408Y-975613D01*
X764280Y-983742D01*
X756152Y-987805D01*
X743960Y-991870D01*
X723386Y-991870D01*
X711194Y-987805D01*
X703066Y-983742D01*
X694684Y-975613D01*
X690620Y-963168D01*
X690620Y-934720D01*
X4761603Y-4743081D02*
G01*
X4761603Y-4852047D01*
X4761603Y-4743081D02*
G01*
X4797925Y-4743081D01*
X4813419Y-4748161D01*
X4823833Y-4758575D01*
X4829167Y-4768989D01*
X4834247Y-4784737D01*
X4834247Y-4810645D01*
X4829167Y-4826139D01*
X4823833Y-4836553D01*
X4813419Y-4846967D01*
X4797925Y-4852047D01*
X4761603Y-4852047D01*
X4868537Y-4763909D02*
G01*
X4878951Y-4758575D01*
X4894699Y-4743081D01*
X4894699Y-4852047D01*
X2172705Y-584202D02*
G01*
X2094727Y-584202D01*
X2079233Y-589282D01*
X2068819Y-599696D01*
X2063739Y-615444D01*
X2063739Y-625858D01*
X2068819Y-641352D01*
X2079233Y-651766D01*
X2094727Y-656846D01*
X2172705Y-656846D01*
X2172705Y-743206D02*
G01*
X2100061Y-691136D01*
X2100061Y-769114D01*
X2172705Y-743206D02*
G01*
X2063739Y-743206D01*
D14*
X1397000Y-178815D02*
G01*
X1397000Y-322071D01*
X1397000Y-178815D02*
G01*
X1458468Y-178815D01*
X1478787Y-185673D01*
X1485645Y-192531D01*
X1492504Y-205994D01*
X1492504Y-226568D01*
X1485645Y-240284D01*
X1478787Y-247142D01*
X1458468Y-253745D01*
X1397000Y-253745D01*
X1537462Y-178815D02*
G01*
X1571497Y-322071D01*
X1605534Y-178815D02*
G01*
X1571497Y-322071D01*
X1605534Y-178815D02*
G01*
X1639823Y-322071D01*
X1673860Y-178815D02*
G01*
X1639823Y-322071D01*
X1718818Y-178815D02*
G01*
X1718818Y-322071D01*
X1718818Y-178815D02*
G01*
X1780286Y-178815D01*
X1800605Y-185673D01*
X1807463Y-192531D01*
X1814321Y-205994D01*
X1814321Y-219710D01*
X1807463Y-233426D01*
X1800605Y-240284D01*
X1780286Y-247142D01*
X1718818Y-247142D01*
X1766570Y-247142D02*
G01*
X1814321Y-322071D01*
X5769589Y-1220210D02*
G01*
X5714979Y-1363466D01*
X5769589Y-1220210D02*
G01*
X5823945Y-1363466D01*
X5735299Y-1315714D02*
G01*
X5803625Y-1315714D01*
X5971265Y-1254246D02*
G01*
X5964407Y-1240784D01*
X5950945Y-1227068D01*
X5937229Y-1220210D01*
X5910051Y-1220210D01*
X5896335Y-1227068D01*
X5882619Y-1240784D01*
X5875761Y-1254246D01*
X5869157Y-1274820D01*
X5869157Y-1308856D01*
X5875761Y-1329430D01*
X5882619Y-1342892D01*
X5896335Y-1356608D01*
X5910051Y-1363466D01*
X5937229Y-1363466D01*
X5950945Y-1356608D01*
X5964407Y-1342892D01*
X5971265Y-1329430D01*
X6063975Y-1220210D02*
G01*
X6063975Y-1363466D01*
X6016223Y-1220210D02*
G01*
X6111727Y-1220210D01*
D12*
X2616184Y-1205468D02*
G01*
X2616184Y-1314434D01*
X2616184Y-1205468D02*
G01*
X2662920Y-1205468D01*
X2678414Y-1210548D01*
X2683748Y-1215882D01*
X2688828Y-1226296D01*
X2688828Y-1236710D01*
X2683748Y-1247124D01*
X2678414Y-1252204D01*
X2662920Y-1257284D01*
X2616184Y-1257284D01*
X2652506Y-1257284D02*
G01*
X2688828Y-1314434D01*
X2723118Y-1226296D02*
G01*
X2733532Y-1220962D01*
X2749280Y-1205468D01*
X2749280Y-1314434D01*
X5373131Y-1396987D02*
G01*
X5264165Y-1396987D01*
X5373131Y-1396987D02*
G01*
X5373131Y-1443723D01*
X5368051Y-1459217D01*
X5362717Y-1464551D01*
X5352303Y-1469631D01*
X5341889Y-1469631D01*
X5331475Y-1464551D01*
X5326395Y-1459217D01*
X5321315Y-1443723D01*
X5321315Y-1396987D01*
X5321315Y-1433309D02*
G01*
X5264165Y-1469631D01*
X5373131Y-1566405D02*
G01*
X5373131Y-1514335D01*
X5326395Y-1509255D01*
X5331475Y-1514335D01*
X5336809Y-1530083D01*
X5336809Y-1545577D01*
X5331475Y-1561071D01*
X5321315Y-1571485D01*
X5305567Y-1576819D01*
X5295153Y-1576819D01*
X5279659Y-1571485D01*
X5269245Y-1561071D01*
X5264165Y-1545577D01*
X5264165Y-1530083D01*
X5269245Y-1514335D01*
X5274325Y-1509255D01*
X5284739Y-1503921D01*
X5080101Y-4197990D02*
G01*
X5002123Y-4197990D01*
X4986629Y-4203070D01*
X4976215Y-4213484D01*
X4971135Y-4229232D01*
X4971135Y-4239646D01*
X4976215Y-4255140D01*
X4986629Y-4265554D01*
X5002123Y-4270634D01*
X5080101Y-4270634D01*
X5080101Y-4367408D02*
G01*
X5080101Y-4315338D01*
X5033365Y-4310258D01*
X5038445Y-4315338D01*
X5043779Y-4331086D01*
X5043779Y-4346580D01*
X5038445Y-4362074D01*
X5028285Y-4372488D01*
X5012537Y-4377822D01*
X5002123Y-4377822D01*
X4986629Y-4372488D01*
X4976215Y-4362074D01*
X4971135Y-4346580D01*
X4971135Y-4331086D01*
X4976215Y-4315338D01*
X4981295Y-4310258D01*
X4991709Y-4304924D01*
X2971787Y-214878D02*
G01*
X2971787Y-323844D01*
X2971787Y-214878D02*
G01*
X3008109Y-214878D01*
X3023857Y-219958D01*
X3034017Y-230372D01*
X3039351Y-240786D01*
X3044431Y-256534D01*
X3044431Y-282442D01*
X3039351Y-297936D01*
X3034017Y-308350D01*
X3023857Y-318764D01*
X3008109Y-323844D01*
X2971787Y-323844D01*
X3084055Y-240786D02*
G01*
X3084055Y-235706D01*
X3089135Y-225292D01*
X3094469Y-219958D01*
X3104883Y-214878D01*
X3125457Y-214878D01*
X3135871Y-219958D01*
X3141205Y-225292D01*
X3146285Y-235706D01*
X3146285Y-246120D01*
X3141205Y-256534D01*
X3130791Y-272028D01*
X3078721Y-323844D01*
X3151619Y-323844D01*
X4761463Y-2590789D02*
G01*
X4839441Y-2590789D01*
X4854935Y-2585709D01*
X4865349Y-2575295D01*
X4870429Y-2559547D01*
X4870429Y-2549133D01*
X4865349Y-2533639D01*
X4854935Y-2523225D01*
X4839441Y-2518145D01*
X4761463Y-2518145D01*
X4761463Y-2473441D02*
G01*
X4761463Y-2416291D01*
X4803119Y-2447279D01*
X4803119Y-2431785D01*
X4808199Y-2421371D01*
X4813279Y-2416291D01*
X4829027Y-2410957D01*
X4839441Y-2410957D01*
X4854935Y-2416291D01*
X4865349Y-2426705D01*
X4870429Y-2442199D01*
X4870429Y-2457693D01*
X4865349Y-2473441D01*
X4860269Y-2478521D01*
X4849855Y-2483855D01*
D18*
X1625600Y-2515362D02*
G01*
X1625600Y-2610865D01*
X1625600Y-2515362D02*
G01*
X1666494Y-2515362D01*
X1680210Y-2519934D01*
X1684781Y-2524505D01*
X1689354Y-2533395D01*
X1689354Y-2542539D01*
X1684781Y-2551684D01*
X1680210Y-2556255D01*
X1666494Y-2560828D01*
X1625600Y-2560828D01*
X1657350Y-2560828D02*
G01*
X1689354Y-2610865D01*
X1755647Y-2515362D02*
G01*
X1719326Y-2610865D01*
X1755647Y-2515362D02*
G01*
X1791970Y-2610865D01*
X1732787Y-2578862D02*
G01*
X1778254Y-2578862D01*
X1885695Y-2528823D02*
G01*
X1876552Y-2519934D01*
X1862836Y-2515362D01*
X1844802Y-2515362D01*
X1831086Y-2519934D01*
X1821942Y-2528823D01*
X1821942Y-2537968D01*
X1826513Y-2547112D01*
X1831086Y-2551684D01*
X1840229Y-2556255D01*
X1867407Y-2565400D01*
X1876552Y-2569718D01*
X1881123Y-2574289D01*
X1885695Y-2583434D01*
X1885695Y-2597150D01*
X1876552Y-2606294D01*
X1862836Y-2610865D01*
X1844802Y-2610865D01*
X1831086Y-2606294D01*
X1821942Y-2597150D01*
X1915668Y-2515362D02*
G01*
X1915668Y-2610865D01*
X1915668Y-2515362D02*
G01*
X1956561Y-2515362D01*
X1970024Y-2519934D01*
X1974595Y-2524505D01*
X1979168Y-2533395D01*
X1979168Y-2547112D01*
X1974595Y-2556255D01*
X1970024Y-2560828D01*
X1956561Y-2565400D01*
X1915668Y-2565400D01*
X2009140Y-2515362D02*
G01*
X2009140Y-2610865D01*
X2009140Y-2515362D02*
G01*
X2050034Y-2515362D01*
X2063750Y-2519934D01*
X2068322Y-2524505D01*
X2072893Y-2533395D01*
X2072893Y-2542539D01*
X2068322Y-2551684D01*
X2063750Y-2556255D01*
X2050034Y-2560828D01*
X2009140Y-2560828D02*
G01*
X2050034Y-2560828D01*
X2063750Y-2565400D01*
X2068322Y-2569718D01*
X2072893Y-2578862D01*
X2072893Y-2592578D01*
X2068322Y-2601721D01*
X2063750Y-2606294D01*
X2050034Y-2610865D01*
X2009140Y-2610865D01*
X2102865Y-2515362D02*
G01*
X2102865Y-2610865D01*
X2102865Y-2515362D02*
G01*
X2162047Y-2515362D01*
X2102865Y-2560828D02*
G01*
X2139188Y-2560828D01*
X2102865Y-2610865D02*
G01*
X2162047Y-2610865D01*
X2192020Y-2515362D02*
G01*
X2192020Y-2610865D01*
X2192020Y-2515362D02*
G01*
X2232913Y-2515362D01*
X2246629Y-2519934D01*
X2250947Y-2524505D01*
X2255520Y-2533395D01*
X2255520Y-2542539D01*
X2250947Y-2551684D01*
X2246629Y-2556255D01*
X2232913Y-2560828D01*
X2192020Y-2560828D01*
X2223770Y-2560828D02*
G01*
X2255520Y-2610865D01*
X2285491Y-2515362D02*
G01*
X2285491Y-2610865D01*
X2285491Y-2515362D02*
G01*
X2326386Y-2515362D01*
X2340102Y-2519934D01*
X2344674Y-2524505D01*
X2349245Y-2533395D01*
X2349245Y-2542539D01*
X2344674Y-2551684D01*
X2340102Y-2556255D01*
X2326386Y-2560828D01*
X2285491Y-2560828D01*
X2317495Y-2560828D02*
G01*
X2349245Y-2610865D01*
X2379218Y-2515362D02*
G01*
X2415540Y-2560828D01*
X2415540Y-2610865D01*
X2451861Y-2515362D02*
G01*
X2415540Y-2560828D01*
X2551938Y-2515362D02*
G01*
X2551938Y-2610865D01*
X2551938Y-2515362D02*
G01*
X2592831Y-2515362D01*
X2606547Y-2519934D01*
X2611120Y-2524505D01*
X2615691Y-2533395D01*
X2615691Y-2547112D01*
X2611120Y-2556255D01*
X2606547Y-2560828D01*
X2592831Y-2565400D01*
X2551938Y-2565400D01*
X2645663Y-2515362D02*
G01*
X2645663Y-2610865D01*
X2745486Y-2515362D02*
G01*
X2745486Y-2610865D01*
X2745486Y-2515362D02*
G01*
X2786379Y-2515362D01*
X2800095Y-2519934D01*
X2804668Y-2524505D01*
X2809240Y-2533395D01*
X2809240Y-2547112D01*
X2804668Y-2556255D01*
X2800095Y-2560828D01*
X2786379Y-2565400D01*
X2745486Y-2565400D01*
X2839211Y-2515362D02*
G01*
X2839211Y-2610865D01*
X2937509Y-2537968D02*
G01*
X2932938Y-2528823D01*
X2923793Y-2519934D01*
X2914650Y-2515362D01*
X2896615Y-2515362D01*
X2887472Y-2519934D01*
X2878327Y-2528823D01*
X2873756Y-2537968D01*
X2869184Y-2551684D01*
X2869184Y-2574289D01*
X2873756Y-2588005D01*
X2878327Y-2597150D01*
X2887472Y-2606294D01*
X2896615Y-2610865D01*
X2914650Y-2610865D01*
X2923793Y-2606294D01*
X2932938Y-2597150D01*
X2937509Y-2588005D01*
X2994659Y-2515362D02*
G01*
X2985515Y-2519934D01*
X2976625Y-2528823D01*
X2972054Y-2537968D01*
X2967481Y-2551684D01*
X2967481Y-2574289D01*
X2972054Y-2588005D01*
X2976625Y-2597150D01*
X2985515Y-2606294D01*
X2994659Y-2610865D01*
X3012947Y-2610865D01*
X3021838Y-2606294D01*
X3030981Y-2597150D01*
X3035554Y-2588005D01*
X3040125Y-2574289D01*
X3040125Y-2551684D01*
X3035554Y-2537968D01*
X3030981Y-2528823D01*
X3021838Y-2519934D01*
X3012947Y-2515362D01*
X2994659Y-2515362D01*
D12*
X522731Y-660397D02*
G01*
X436626Y-693163D01*
X522731Y-725929D02*
G01*
X436626Y-693163D01*
X510286Y-810003D02*
G01*
X518413Y-801875D01*
X522731Y-789683D01*
X522731Y-773427D01*
X518413Y-760981D01*
X510286Y-752853D01*
X502157Y-752853D01*
X494029Y-756917D01*
X489965Y-760981D01*
X485902Y-769109D01*
X477520Y-793747D01*
X473455Y-801875D01*
X469392Y-805939D01*
X461263Y-810003D01*
X449071Y-810003D01*
X440689Y-801875D01*
X436626Y-789683D01*
X436626Y-773427D01*
X440689Y-760981D01*
X449071Y-752853D01*
X522731Y-837181D02*
G01*
X481584Y-869947D01*
X436626Y-869947D01*
X522731Y-902459D02*
G01*
X481584Y-869947D01*
X510286Y-986787D02*
G01*
X518413Y-978659D01*
X522731Y-966467D01*
X522731Y-949957D01*
X518413Y-937765D01*
X510286Y-929637D01*
X502157Y-929637D01*
X494029Y-933701D01*
X489965Y-937765D01*
X485902Y-945893D01*
X477520Y-970531D01*
X473455Y-978659D01*
X469392Y-982723D01*
X461263Y-986787D01*
X449071Y-986787D01*
X440689Y-978659D01*
X436626Y-966467D01*
X436626Y-949957D01*
X440689Y-937765D01*
X449071Y-929637D01*
X268731Y-660400D02*
G01*
X182626Y-693165D01*
X268731Y-725931D02*
G01*
X182626Y-693165D01*
X268731Y-752855D02*
G01*
X182626Y-752855D01*
X268731Y-752855D02*
G01*
X268731Y-789686D01*
X264413Y-801878D01*
X260350Y-805942D01*
X252221Y-810005D01*
X244094Y-810005D01*
X235965Y-805942D01*
X231902Y-801878D01*
X227584Y-789686D01*
X227584Y-752855D02*
G01*
X227584Y-789686D01*
X223520Y-801878D01*
X219455Y-805942D01*
X211328Y-810005D01*
X199136Y-810005D01*
X191007Y-805942D01*
X186689Y-801878D01*
X182626Y-789686D01*
X182626Y-752855D01*
X268731Y-837184D02*
G01*
X207263Y-837184D01*
X195071Y-841247D01*
X186689Y-849376D01*
X182626Y-861568D01*
X182626Y-869950D01*
X186689Y-882142D01*
X195071Y-890270D01*
X207263Y-894334D01*
X268731Y-894334D01*
X256286Y-978662D02*
G01*
X264413Y-970534D01*
X268731Y-958342D01*
X268731Y-941831D01*
X264413Y-929639D01*
X256286Y-921512D01*
X248157Y-921512D01*
X240029Y-925576D01*
X235965Y-929639D01*
X231902Y-937768D01*
X223520Y-962405D01*
X219455Y-970534D01*
X215392Y-974597D01*
X207263Y-978662D01*
X195071Y-978662D01*
X186689Y-970534D01*
X182626Y-958342D01*
X182626Y-941831D01*
X186689Y-929639D01*
X195071Y-921512D01*
X3276594Y-1053094D02*
G01*
X3276594Y-1131072D01*
X3281674Y-1146566D01*
X3292088Y-1156980D01*
X3307836Y-1162060D01*
X3318250Y-1162060D01*
X3333744Y-1156980D01*
X3344158Y-1146566D01*
X3349238Y-1131072D01*
X3349238Y-1053094D01*
X3456426Y-1053094D02*
G01*
X3404356Y-1162060D01*
X3383528Y-1053094D02*
G01*
X3456426Y-1053094D01*
X5373105Y-1930379D02*
G01*
X5295127Y-1930379D01*
X5279633Y-1935459D01*
X5269219Y-1945873D01*
X5264139Y-1961621D01*
X5264139Y-1972035D01*
X5269219Y-1987529D01*
X5279633Y-1997943D01*
X5295127Y-2003023D01*
X5373105Y-2003023D01*
X5352277Y-2037313D02*
G01*
X5357611Y-2047727D01*
X5373105Y-2063475D01*
X5264139Y-2063475D01*
X2952214Y-799076D02*
G01*
X2941800Y-804156D01*
X2931386Y-814570D01*
X2926052Y-824984D01*
X2920972Y-840732D01*
X2920972Y-866640D01*
X2926052Y-882134D01*
X2931386Y-892548D01*
X2941800Y-902962D01*
X2952214Y-908042D01*
X2973042Y-908042D01*
X2983202Y-902962D01*
X2993616Y-892548D01*
X2998950Y-882134D01*
X3004030Y-866640D01*
X3004030Y-840732D01*
X2998950Y-824984D01*
X2993616Y-814570D01*
X2983202Y-804156D01*
X2973042Y-799076D01*
X2952214Y-799076D01*
X2967708Y-887468D02*
G01*
X2998950Y-918456D01*
X3038320Y-819904D02*
G01*
X3048734Y-814570D01*
X3064482Y-799076D01*
X3064482Y-908042D01*
G36*
X4970780Y-4694529D02*
G01*
X4970780Y-4724044D01*
X5001260Y-4724044D01*
X5001260Y-4694529D01*
G37*
G36*
X4970780Y-4535576D02*
G01*
X4970780Y-4565040D01*
X5001260Y-4565040D01*
X5001260Y-4535576D01*
G37*
D19*
X2082794Y-4343392D02*
G01*
X1066797Y-4343392D01*
X1066797Y-4597389D01*
X5333989Y-3454392D02*
G01*
X5333989Y-3708392D01*
X5892787Y-3708392D01*
X5892787Y-3454392D01*
X5333989Y-3454392D01*
X5333979Y-2971789D02*
G01*
X5333979Y-3200387D01*
X6400777Y-3200387D01*
X6400777Y-3073387D01*
X3098794Y-4353989D02*
G01*
X3088198Y-4343392D01*
X2082794Y-4343392D01*
X2082794Y-4597389D01*
X3098794Y-4597389D02*
G01*
X3098794Y-4343392D01*
X3606792Y-4343392D01*
X3606792Y-4597389D01*
X6299187Y-3759192D02*
G01*
X6299187Y-4368792D01*
X6959587Y-4368792D01*
X6959587Y-3759192D01*
X6299187Y-3759192D01*
D11*
X7162784Y-4927589D02*
G01*
X7162784Y-76200D01*
X7061184Y-76200D02*
G01*
X7061184Y-4927589D01*
D19*
X5994377Y-2971789D02*
G01*
X6400777Y-2971789D01*
X6400777Y-3073387D01*
X5994377Y-2971789D02*
G01*
X5333979Y-2971789D01*
X6451600Y-3149600D02*
G01*
X6451600Y-1930400D01*
X6959587Y-1930394D01*
X6451600Y-3149600D02*
G01*
X6959600Y-3149600D01*
X6959587Y-1930394D02*
G01*
X6959587Y-3149594D01*
D20*
X6134798Y-3672177D02*
G01*
X6134798Y-3592174D01*
X6245773Y-3703162D02*
G01*
X6165776Y-3703162D01*
X6245773Y-3561196D02*
G01*
X6165776Y-3561196D01*
X6303363Y-3703744D02*
G01*
X6383362Y-3703744D01*
X6414345Y-3672761D02*
G01*
X6414345Y-3592763D01*
X6303363Y-3561783D02*
G01*
X6383362Y-3561783D01*
X4307177Y-907097D02*
G01*
X4227174Y-907097D01*
X4338162Y-796122D02*
G01*
X4338162Y-876119D01*
X4196196Y-796122D02*
G01*
X4196196Y-876119D01*
X4338744Y-738532D02*
G01*
X4338744Y-658533D01*
X4307761Y-627550D02*
G01*
X4227763Y-627550D01*
X4196783Y-738532D02*
G01*
X4196783Y-658533D01*
X2425001Y-290222D02*
G01*
X2425001Y-370225D01*
X2314026Y-259237D02*
G01*
X2394023Y-259237D01*
X2314026Y-401203D02*
G01*
X2394023Y-401203D01*
X2256436Y-258655D02*
G01*
X2176437Y-258655D01*
X2145454Y-289638D02*
G01*
X2145454Y-369636D01*
X2256436Y-400616D02*
G01*
X2176437Y-400616D01*
X5652198Y-2325977D02*
G01*
X5652198Y-2245974D01*
X5763173Y-2356962D02*
G01*
X5683176Y-2356962D01*
X5763173Y-2214996D02*
G01*
X5683176Y-2214996D01*
X5820763Y-2357544D02*
G01*
X5900762Y-2357544D01*
X5931745Y-2326561D02*
G01*
X5931745Y-2246563D01*
X5820763Y-2215583D02*
G01*
X5900762Y-2215583D01*
X5777801Y-1687222D02*
G01*
X5777801Y-1767225D01*
X5666826Y-1656237D02*
G01*
X5746823Y-1656237D01*
X5666826Y-1798203D02*
G01*
X5746823Y-1798203D01*
X5609236Y-1655655D02*
G01*
X5529237Y-1655655D01*
X5498254Y-1686638D02*
G01*
X5498254Y-1766636D01*
X5609236Y-1797616D02*
G01*
X5529237Y-1797616D01*
X1307401Y-518822D02*
G01*
X1307401Y-598825D01*
X1196426Y-487837D02*
G01*
X1276423Y-487837D01*
X1196426Y-629803D02*
G01*
X1276423Y-629803D01*
X1138836Y-487255D02*
G01*
X1058837Y-487255D01*
X1027854Y-518238D02*
G01*
X1027854Y-598236D01*
X1138836Y-629216D02*
G01*
X1058837Y-629216D01*
X2423817Y-902395D02*
G01*
X2503820Y-902395D01*
X2392832Y-1013371D02*
G01*
X2392832Y-933373D01*
X2534798Y-1013371D02*
G01*
X2534798Y-933373D01*
X2392250Y-1070960D02*
G01*
X2392250Y-1150960D01*
X2423233Y-1181943D02*
G01*
X2503230Y-1181943D01*
X2534211Y-1070960D02*
G01*
X2534211Y-1150960D01*
X3606792Y-4902189D02*
G01*
X3098792Y-4902189D01*
X3098792Y-4648189D01*
X3606792Y-4648189D01*
X3606792Y-4902189D01*
X4379610Y-629188D02*
G01*
X4459612Y-629188D01*
X4348624Y-740163D02*
G01*
X4348624Y-660166D01*
X4490590Y-740163D02*
G01*
X4490590Y-660166D01*
X4348043Y-797753D02*
G01*
X4348043Y-877752D01*
X4379026Y-908735D02*
G01*
X4459023Y-908735D01*
X4490003Y-797753D02*
G01*
X4490003Y-877752D01*
D10*
X4506991Y-4677389D02*
G01*
X4527610Y-4677389D01*
X4527610Y-4262145D01*
X4507991Y-4262389D01*
X4127992Y-4263389D02*
G01*
X4108442Y-4263379D01*
X4108442Y-4678669D01*
X4129991Y-4678390D01*
D12*
X5552450Y-1004971D02*
G01*
X5552450Y-909083D01*
X5420329Y-909083D01*
X5420329Y-1004971D01*
X5552450Y-1090213D02*
G01*
X5552450Y-1186101D01*
X5420329Y-1186101D01*
X5420329Y-1090213D01*
X4716213Y-580255D02*
G01*
X4812101Y-580255D01*
X4812101Y-448134D01*
X4716213Y-448134D01*
X4630971Y-580255D02*
G01*
X4535083Y-580255D01*
X4535083Y-448134D01*
X4630971Y-448134D01*
X4995613Y-580255D02*
G01*
X5091501Y-580255D01*
X5091501Y-448134D01*
X4995613Y-448134D01*
X4910371Y-580255D02*
G01*
X4814483Y-580255D01*
X4814483Y-448134D01*
X4910371Y-448134D01*
X6004526Y-1769818D02*
G01*
X6004526Y-1865706D01*
X6136647Y-1865706D01*
X6136647Y-1769818D01*
X6004526Y-1684576D02*
G01*
X6004526Y-1588688D01*
X6136647Y-1588688D01*
X6136647Y-1684576D01*
X6466847Y-1684576D02*
G01*
X6466847Y-1588688D01*
X6334726Y-1588688D01*
X6334726Y-1684576D01*
X6466847Y-1769818D02*
G01*
X6466847Y-1865706D01*
X6334726Y-1865706D01*
X6334726Y-1769818D01*
X5275013Y-580255D02*
G01*
X5370901Y-580255D01*
X5370901Y-448134D01*
X5275013Y-448134D01*
X5189771Y-580255D02*
G01*
X5093883Y-580255D01*
X5093883Y-448134D01*
X5189771Y-448134D01*
X6619247Y-1684576D02*
G01*
X6619247Y-1588688D01*
X6487126Y-1588688D01*
X6487126Y-1684576D01*
X6619247Y-1769818D02*
G01*
X6619247Y-1865706D01*
X6487126Y-1865706D01*
X6487126Y-1769818D01*
D20*
X4930183Y-754392D02*
G01*
X4930183Y-934394D01*
X4620181Y-754392D02*
G01*
X4620181Y-934394D01*
D12*
X2735021Y-548660D02*
G01*
X2830908Y-548660D01*
X2830908Y-416539D01*
X2735021Y-416539D01*
X2649778Y-548660D02*
G01*
X2553891Y-548660D01*
X2553891Y-416539D01*
X2649778Y-416539D01*
X4868621Y-4130060D02*
G01*
X4964508Y-4130060D01*
X4964508Y-3997939D01*
X4868621Y-3997939D01*
X4783378Y-4130060D02*
G01*
X4687491Y-4130060D01*
X4687491Y-3997939D01*
X4783378Y-3997939D01*
X873739Y-677621D02*
G01*
X873739Y-773508D01*
X1005860Y-773508D01*
X1005860Y-677621D01*
X873739Y-592378D02*
G01*
X873739Y-496491D01*
X1005860Y-496491D01*
X1005860Y-592378D01*
X5028971Y-783922D02*
G01*
X5028971Y-955662D01*
X5132133Y-955662D01*
X5334213Y-783922D02*
G01*
X5334213Y-955662D01*
X5231051Y-955662D01*
X5136052Y-783922D02*
G01*
X5227132Y-783922D01*
D20*
X5893793Y-4089392D02*
G01*
X5893793Y-4127492D01*
X5893793Y-4165592D01*
X5893793Y-4127492D01*
X6088390Y-4207395D02*
G01*
X5138389Y-4207395D01*
X6088390Y-4207395D02*
G01*
X6088390Y-3717389D01*
X6088390Y-3712392D01*
X6038890Y-3712392D01*
X6038890Y-3762392D01*
X6038890Y-3762392D01*
X5187889Y-3762392D01*
X5187889Y-3762392D01*
X5187889Y-3712392D01*
X5137856Y-3712392D01*
X5137856Y-3717389D01*
X5137856Y-4207395D01*
D12*
X5215171Y-1057732D02*
G01*
X5119283Y-1057732D01*
X5119283Y-1189852D01*
X5215171Y-1189852D01*
X5300413Y-1057732D02*
G01*
X5396301Y-1057732D01*
X5396301Y-1189852D01*
X5300413Y-1189852D01*
D20*
X5586984Y-2539994D02*
G01*
X5586984Y-2501894D01*
X5586984Y-2463794D01*
X5586984Y-2501894D01*
X5392386Y-2421991D02*
G01*
X6342387Y-2421991D01*
X5392386Y-2421991D02*
G01*
X5392386Y-2911998D01*
X5392386Y-2916994D01*
X5441886Y-2916994D01*
X5441886Y-2866994D01*
X5441886Y-2866994D01*
X6292888Y-2866994D01*
X6292888Y-2866994D01*
X6292888Y-2916994D01*
X6342921Y-2916994D01*
X6342921Y-2911998D01*
X6342921Y-2421991D01*
D12*
X5318729Y-4589211D02*
G01*
X5318729Y-4685098D01*
X5450850Y-4685098D01*
X5450850Y-4589211D01*
X5318729Y-4503968D02*
G01*
X5318729Y-4408081D01*
X5450850Y-4408081D01*
X5450850Y-4503968D01*
X2700573Y-746737D02*
G01*
X2604686Y-746737D01*
X2604686Y-878857D01*
X2700573Y-878857D01*
X2785816Y-746737D02*
G01*
X2881703Y-746737D01*
X2881703Y-878857D01*
X2785816Y-878857D01*
X5826726Y-2074616D02*
G01*
X5826726Y-2170503D01*
X5958847Y-2170503D01*
X5958847Y-2074616D01*
X5826726Y-1989373D02*
G01*
X5826726Y-1893486D01*
X5958847Y-1893486D01*
X5958847Y-1989373D01*
X6131526Y-4055813D02*
G01*
X6131526Y-4151701D01*
X6263647Y-4151701D01*
X6263647Y-4055813D01*
X6131526Y-3970571D02*
G01*
X6131526Y-3874683D01*
X6263647Y-3874683D01*
X6263647Y-3970571D01*
D21*
X4140360Y-3897256D02*
G01*
X4064160Y-3897256D01*
X3887358Y-3897256D02*
G01*
X3963558Y-3897256D01*
X3887358Y-4029377D02*
G01*
X3963558Y-4029377D01*
D12*
X3887358Y-4029377D02*
G01*
X3872128Y-4014134D01*
X3872128Y-3912491D01*
X3887358Y-3897256D01*
D21*
X4140360Y-4029377D02*
G01*
X4064160Y-4029377D01*
D12*
X4140360Y-3897256D02*
G01*
X4155602Y-3912491D01*
X4155602Y-4014134D01*
X4140360Y-4029377D01*
D21*
X1309733Y-1295565D02*
G01*
X1309733Y-1219365D01*
X1309733Y-1042563D02*
G01*
X1309733Y-1118763D01*
X1177612Y-1042563D02*
G01*
X1177612Y-1118763D01*
D12*
X1177612Y-1042563D02*
G01*
X1192855Y-1027333D01*
X1294498Y-1027333D01*
X1309733Y-1042563D01*
D21*
X1177612Y-1295565D02*
G01*
X1177612Y-1219365D01*
D12*
X1309733Y-1295565D02*
G01*
X1294498Y-1310807D01*
X1192855Y-1310807D01*
X1177612Y-1295565D01*
D21*
X5624454Y-4419422D02*
G01*
X5624454Y-4495622D01*
X5624454Y-4672423D02*
G01*
X5624454Y-4596223D01*
X5756574Y-4672423D02*
G01*
X5756574Y-4596223D01*
D12*
X5756574Y-4672423D02*
G01*
X5741332Y-4687653D01*
X5639688Y-4687653D01*
X5624454Y-4672423D01*
D21*
X5756574Y-4419422D02*
G01*
X5756574Y-4495622D01*
D12*
X5624454Y-4419422D02*
G01*
X5639688Y-4404179D01*
X5741332Y-4404179D01*
X5756574Y-4419422D01*
X6109980Y-2211014D02*
G01*
X6285219Y-2211014D01*
X6285219Y-2106853D01*
X6109980Y-1903775D02*
G01*
X6285219Y-1903775D01*
X6285219Y-2007936D01*
X6109980Y-2102934D02*
G01*
X6109980Y-2011855D01*
D20*
X3289998Y-624177D02*
G01*
X3289998Y-544174D01*
X3400973Y-655162D02*
G01*
X3320976Y-655162D01*
X3400973Y-513196D02*
G01*
X3320976Y-513196D01*
X3458563Y-655744D02*
G01*
X3538562Y-655744D01*
X3569545Y-624761D02*
G01*
X3569545Y-544763D01*
X3458563Y-513783D02*
G01*
X3538562Y-513783D01*
X1029398Y-954377D02*
G01*
X1029398Y-874374D01*
X1140373Y-985362D02*
G01*
X1060376Y-985362D01*
X1140373Y-843396D02*
G01*
X1060376Y-843396D01*
X1197963Y-985944D02*
G01*
X1277962Y-985944D01*
X1308945Y-954961D02*
G01*
X1308945Y-874963D01*
X1197963Y-843983D02*
G01*
X1277962Y-843983D01*
X1029398Y-776577D02*
G01*
X1029398Y-696574D01*
X1140373Y-807562D02*
G01*
X1060376Y-807562D01*
X1140373Y-665596D02*
G01*
X1060376Y-665596D01*
X1197963Y-808144D02*
G01*
X1277962Y-808144D01*
X1308945Y-777161D02*
G01*
X1308945Y-697163D01*
X1197963Y-666183D02*
G01*
X1277962Y-666183D01*
X4138485Y-3751734D02*
G01*
X4138485Y-3831737D01*
X4027510Y-3720749D02*
G01*
X4107507Y-3720749D01*
X4027510Y-3862715D02*
G01*
X4107507Y-3862715D01*
X3969920Y-3720167D02*
G01*
X3889921Y-3720167D01*
X3858938Y-3751150D02*
G01*
X3858938Y-3831148D01*
X3969920Y-3862128D02*
G01*
X3889921Y-3862128D01*
X4213506Y-3754310D02*
G01*
X4293509Y-3754310D01*
X4182521Y-3865285D02*
G01*
X4182521Y-3785288D01*
X4324487Y-3865285D02*
G01*
X4324487Y-3785288D01*
X4181939Y-3922875D02*
G01*
X4181939Y-4002874D01*
X4212922Y-4033857D02*
G01*
X4292920Y-4033857D01*
X4323900Y-3922875D02*
G01*
X4323900Y-4002874D01*
X1826447Y-4902200D02*
G01*
X1066800Y-4902200D01*
X1066800Y-4648200D01*
X2082800Y-4648200D01*
X2082800Y-4902200D01*
X1826447Y-4902200D01*
X1826447Y-4902200D02*
G01*
X1826447Y-4648200D01*
X6629400Y-2791647D02*
G01*
X6629400Y-2032000D01*
X6883400Y-2032000D01*
X6883400Y-3048000D01*
X6629400Y-3048000D01*
X6629400Y-2791647D01*
X6629400Y-2791647D02*
G01*
X6883400Y-2791647D01*
X2842442Y-4902189D02*
G01*
X2082794Y-4902189D01*
X2082794Y-4648189D01*
X3098794Y-4648189D01*
X3098794Y-4902189D01*
X2842442Y-4902189D01*
X2842442Y-4902189D02*
G01*
X2842442Y-4648189D01*
D12*
X1753816Y-1205204D02*
G01*
X1753816Y-1029964D01*
X1649656Y-1029964D01*
X1446578Y-1205204D02*
G01*
X1446578Y-1029964D01*
X1550738Y-1029964D01*
X1645737Y-1205204D02*
G01*
X1554657Y-1205204D01*
X6245067Y-3519352D02*
G01*
X6386068Y-3519352D01*
X6386068Y-3338631D02*
G01*
X6245067Y-3338631D01*
X6229827Y-3353871D02*
G01*
X6229827Y-3504112D01*
X6607307Y-3519352D02*
G01*
X6466306Y-3519352D01*
X6466306Y-3338631D02*
G01*
X6607307Y-3338631D01*
X6622547Y-3353871D02*
G01*
X6622547Y-3504112D01*
X5865017Y-4347077D02*
G01*
X5865017Y-4488078D01*
X6045738Y-4488078D02*
G01*
X6045738Y-4347077D01*
X6030498Y-4331837D02*
G01*
X5880257Y-4331837D01*
X5865017Y-4709317D02*
G01*
X5865017Y-4568317D01*
X6045738Y-4568317D02*
G01*
X6045738Y-4709317D01*
X6030498Y-4724557D02*
G01*
X5880257Y-4724557D01*
X5283738Y-4709317D02*
G01*
X5283738Y-4568317D01*
X5103017Y-4568317D02*
G01*
X5103017Y-4709317D01*
X5118257Y-4724557D02*
G01*
X5268498Y-4724557D01*
X5283738Y-4347077D02*
G01*
X5283738Y-4488078D01*
X5103017Y-4488078D02*
G01*
X5103017Y-4347077D01*
X5118257Y-4331837D02*
G01*
X5268498Y-4331837D01*
D22*
X863600Y-1270000D02*
G01*
X609600Y-1270000D01*
X609600Y-1016000D01*
X863600Y-1016000D01*
X863600Y-1206500D01*
D23*
X863600Y-1270000D02*
G01*
X863600Y-1206500D01*
D12*
X4978394Y-4716416D02*
G01*
X4697161Y-4716416D01*
X4697161Y-4716416D02*
G01*
X4697161Y-4699617D01*
X4978394Y-4543178D02*
G01*
X4697161Y-4543178D01*
X4697161Y-4543178D02*
G01*
X4697161Y-4559978D01*
X4942707Y-4716416D02*
G01*
X4942707Y-4543178D01*
D20*
X2517185Y-570397D02*
G01*
X2517185Y-750399D01*
X2207183Y-570397D02*
G01*
X2207183Y-750399D01*
D10*
X1237645Y-276042D02*
G01*
X1237645Y-275046D01*
X1270650Y-242041D01*
X1305648Y-276042D02*
G01*
X1304650Y-276042D01*
X1270650Y-242041D01*
X1305648Y-276042D02*
G01*
X1237645Y-276042D01*
X1345656Y-278046D02*
G01*
X1345656Y-393047D01*
X1195644Y-278046D02*
G01*
X1195644Y-393047D01*
X1345646Y-393047D02*
G01*
X1197653Y-393047D01*
X1195412Y-240045D02*
G01*
X1195412Y-135034D01*
X1235420Y-105039D02*
G01*
X1225417Y-105039D01*
X1195412Y-135034D01*
X1305415Y-105039D02*
G01*
X1235420Y-105039D01*
X1305415Y-105039D02*
G01*
X1315430Y-105039D01*
X1345425Y-135034D01*
X1345425Y-240045D02*
G01*
X1345425Y-135034D01*
X1270650Y-276042D02*
G01*
X1270650Y-242041D01*
X5870745Y-1440845D02*
G01*
X5871740Y-1440845D01*
X5904745Y-1473850D01*
X5870745Y-1508848D02*
G01*
X5870745Y-1507850D01*
X5904745Y-1473850D01*
X5870745Y-1508848D02*
G01*
X5870745Y-1440845D01*
X5868741Y-1548856D02*
G01*
X5753740Y-1548856D01*
X5868741Y-1398844D02*
G01*
X5753740Y-1398844D01*
X5753740Y-1548846D02*
G01*
X5753740Y-1400853D01*
X5906742Y-1398612D02*
G01*
X6011753Y-1398612D01*
X6041748Y-1438620D02*
G01*
X6041748Y-1428617D01*
X6011753Y-1398612D01*
X6041748Y-1508615D02*
G01*
X6041748Y-1438620D01*
X6041748Y-1508615D02*
G01*
X6041748Y-1518630D01*
X6011753Y-1548625D01*
X5906742Y-1548625D02*
G01*
X6011753Y-1548625D01*
X5870745Y-1473850D02*
G01*
X5904745Y-1473850D01*
D12*
X2733055Y-998776D02*
G01*
X2733055Y-902888D01*
X2600934Y-902888D01*
X2600934Y-998776D01*
X2733055Y-1084018D02*
G01*
X2733055Y-1179906D01*
X2600934Y-1179906D01*
X2600934Y-1084018D01*
X5579811Y-1539257D02*
G01*
X5675698Y-1539257D01*
X5675698Y-1407137D01*
X5579811Y-1407137D01*
X5494568Y-1539257D02*
G01*
X5398681Y-1539257D01*
X5398681Y-1407137D01*
X5494568Y-1407137D01*
X4875898Y-4171081D02*
G01*
X4698057Y-4171081D01*
X4875898Y-4478919D02*
G01*
X4698057Y-4478919D01*
X3133864Y-355379D02*
G01*
X2962125Y-355379D01*
X2962125Y-458541D01*
X3133864Y-660620D02*
G01*
X2962125Y-660620D01*
X2962125Y-557458D01*
X3133864Y-462460D02*
G01*
X3133864Y-553539D01*
D20*
X91688Y-3564592D02*
G01*
X91688Y-1464520D01*
X5191500Y-1464520D01*
X5191500Y-3564592D01*
X91688Y-3564592D01*
D22*
X609600Y-1269997D02*
G01*
X355600Y-1269997D01*
X355600Y-1015997D01*
X609600Y-1015997D01*
X609600Y-1206497D01*
D23*
X609600Y-1269997D02*
G01*
X609600Y-1206497D01*
D22*
X355600Y-1269997D02*
G01*
X101600Y-1269997D01*
X101600Y-1015997D01*
X355600Y-1015997D01*
X355600Y-1206497D01*
D23*
X355600Y-1269997D02*
G01*
X355600Y-1206497D01*
D20*
X3442792Y-1018588D02*
G01*
X3262790Y-1018588D01*
X3442792Y-708586D02*
G01*
X3262790Y-708586D01*
X5677992Y-1851588D02*
G01*
X5497990Y-1851588D01*
X5677992Y-1966587D02*
G01*
X5677992Y-2046589D01*
X5677992Y-2161590D02*
G01*
X5497990Y-2161590D01*
X2876395Y-1053998D02*
G01*
X2876395Y-967597D01*
X2876395Y-967597D02*
G01*
X2976397Y-967597D01*
X3016394Y-1148994D02*
G01*
X3016394Y-1086200D01*
X2876395Y-1267597D02*
G01*
X2876395Y-1181196D01*
X2876395Y-1267597D02*
G01*
X2976397Y-1267597D01*
G75*
G01*
X6414351Y-3672761D02*
G02*
X6383368Y-3703744I-30983J0D01*
G75*
G01*
X6383368Y-3561778D02*
G02*
X6414351Y-3592764I0J-30983D01*
G75*
G01*
X6165781Y-3703163D02*
G02*
X6134799Y-3672177I0J30983D01*
G75*
G01*
X6134799Y-3592180D02*
G02*
X6165781Y-3561197I30982J0D01*
G75*
G01*
X4307761Y-627545D02*
G02*
X4338744Y-658528I0J-30983D01*
G75*
G01*
X4196778Y-658528D02*
G02*
X4227764Y-627545I30983J0D01*
G75*
G01*
X4338163Y-876115D02*
G02*
X4307177Y-907098I-30983J0D01*
G75*
G01*
X4227180Y-907098D02*
G02*
X4196197Y-876115I0J30983D01*
G75*
G01*
X2145449Y-289639D02*
G02*
X2176432Y-258656I30983J0D01*
G75*
G01*
X2176432Y-400622D02*
G02*
X2145449Y-369636I0J30983D01*
G75*
G01*
X2394019Y-259237D02*
G02*
X2425001Y-290223I0J-30983D01*
G75*
G01*
X2425001Y-370220D02*
G02*
X2394019Y-401203I-30982J0D01*
G75*
G01*
X5931751Y-2326561D02*
G02*
X5900768Y-2357544I-30983J0D01*
G75*
G01*
X5900768Y-2215578D02*
G02*
X5931751Y-2246564I0J-30983D01*
G75*
G01*
X5683181Y-2356963D02*
G02*
X5652199Y-2325977I0J30983D01*
G75*
G01*
X5652199Y-2245980D02*
G02*
X5683181Y-2214997I30982J0D01*
G75*
G01*
X5498249Y-1686639D02*
G02*
X5529232Y-1655656I30983J0D01*
G75*
G01*
X5529232Y-1797622D02*
G02*
X5498249Y-1766636I0J30983D01*
G75*
G01*
X5746819Y-1656237D02*
G02*
X5777801Y-1687223I0J-30983D01*
G75*
G01*
X5777801Y-1767220D02*
G02*
X5746819Y-1798203I-30982J0D01*
G75*
G01*
X1027849Y-518239D02*
G02*
X1058832Y-487256I30983J0D01*
G75*
G01*
X1058832Y-629222D02*
G02*
X1027849Y-598236I0J30983D01*
G75*
G01*
X1276419Y-487837D02*
G02*
X1307401Y-518823I0J-30983D01*
G75*
G01*
X1307401Y-598820D02*
G02*
X1276419Y-629803I-30982J0D01*
G75*
G01*
X2423234Y-1181948D02*
G02*
X2392251Y-1150965I0J30983D01*
G75*
G01*
X2534216Y-1150965D02*
G02*
X2503231Y-1181948I-30983J0D01*
G75*
G01*
X2392832Y-933379D02*
G02*
X2423818Y-902396I30983J0D01*
G75*
G01*
X2503815Y-902396D02*
G02*
X2534798Y-933379I0J-30983D01*
G75*
G01*
X4379026Y-908741D02*
G02*
X4348043Y-877758I0J30983D01*
G75*
G01*
X4490009Y-877758D02*
G02*
X4459023Y-908741I-30983J0D01*
G75*
G01*
X4348625Y-660171D02*
G02*
X4379610Y-629188I30983J0D01*
G75*
G01*
X4459608Y-629188D02*
G02*
X4490590Y-660171I0J-30983D01*
G75*
G01*
X5893793Y-4181340D02*
G03*
X5892777Y-4181340I-508J53879D01*
G75*
G01*
X5586984Y-2448047D02*
G03*
X5588000Y-2448047I508J-53879D01*
G75*
G01*
X3569551Y-624761D02*
G02*
X3538568Y-655744I-30983J0D01*
G75*
G01*
X3538568Y-513778D02*
G02*
X3569551Y-544764I0J-30983D01*
G75*
G01*
X3320981Y-655163D02*
G02*
X3289999Y-624177I0J30983D01*
G75*
G01*
X3289999Y-544180D02*
G02*
X3320981Y-513197I30982J0D01*
G75*
G01*
X1308951Y-954961D02*
G02*
X1277968Y-985944I-30983J0D01*
G75*
G01*
X1277968Y-843978D02*
G02*
X1308951Y-874964I0J-30983D01*
G75*
G01*
X1060381Y-985363D02*
G02*
X1029399Y-954377I0J30983D01*
G75*
G01*
X1029399Y-874380D02*
G02*
X1060381Y-843397I30982J0D01*
G75*
G01*
X1308951Y-777161D02*
G02*
X1277968Y-808144I-30983J0D01*
G75*
G01*
X1277968Y-666178D02*
G02*
X1308951Y-697164I0J-30983D01*
G75*
G01*
X1060381Y-807563D02*
G02*
X1029399Y-776577I0J30983D01*
G75*
G01*
X1029399Y-696580D02*
G02*
X1060381Y-665597I30982J0D01*
G75*
G01*
X3858933Y-3751151D02*
G02*
X3889916Y-3720168I30983J0D01*
G75*
G01*
X3889916Y-3862133D02*
G02*
X3858933Y-3831148I0J30982D01*
G75*
G01*
X4107503Y-3720749D02*
G02*
X4138485Y-3751735I0J-30983D01*
G75*
G01*
X4138485Y-3831732D02*
G02*
X4107503Y-3862715I-30982J0D01*
G75*
G01*
X4212923Y-4033863D02*
G02*
X4181940Y-4002880I0J30983D01*
G75*
G01*
X4323906Y-4002880D02*
G02*
X4292920Y-4033863I-30983J0D01*
G75*
G01*
X4182521Y-3785293D02*
G02*
X4213507Y-3754310I30983J0D01*
G75*
G01*
X4293504Y-3754310D02*
G02*
X4324487Y-3785293I0J-30983D01*
D12*
G75*
G01*
X6245068Y-3338632D02*
G03*
X6229828Y-3353872I0J-15240D01*
G75*
G01*
X6229828Y-3504113D02*
G03*
X6245068Y-3519353I15240J0D01*
G75*
G01*
X6607307Y-3338632D02*
G02*
X6622547Y-3353872I0J-15240D01*
G75*
G01*
X6622547Y-3504113D02*
G02*
X6607307Y-3519353I-15240J0D01*
G75*
G01*
X6045738Y-4347078D02*
G03*
X6030498Y-4331838I-15240J0D01*
G75*
G01*
X5880257Y-4331838D02*
G03*
X5865017Y-4347078I0J-15240D01*
G75*
G01*
X6045738Y-4709317D02*
G02*
X6030498Y-4724557I-15240J0D01*
G75*
G01*
X5880257Y-4724557D02*
G02*
X5865017Y-4709317I0J15240D01*
G75*
G01*
X5103017Y-4709317D02*
G03*
X5118257Y-4724557I15240J0D01*
G75*
G01*
X5268498Y-4724557D02*
G03*
X5283738Y-4709317I0J15240D01*
G75*
G01*
X5103017Y-4347078D02*
G02*
X5118257Y-4331838I15240J0D01*
G75*
G01*
X5268498Y-4331838D02*
G02*
X5283738Y-4347078I0J-15240D01*
D20*
G75*
G01
X4622800Y-984098D02*
G03X4622800Y-984098I-12700J0D01*
G75*
G01
X2209800Y-800100D02*
G03X2209800Y-800100I-12700J0D01*
D11*
G75*
G01
X4932147Y-4491812D02*
G03X4932147Y-4491812I-15011J0D01*
D20*
G75*
G01
X3225800Y-698500D02*
G03X3225800Y-698500I-12700J0D01*
G75*
G01
X5448275Y-1841500D02*
G03X5448275Y-1841500I-12700J0D01*
X7365974Y-1016000D02*
G01*
X11836374Y-1016000D01*
X11836374Y-3962400D01*
X7365974Y-3962400D01*
X7365974Y-1016000D01*
D16*
X7543800Y-2209800D02*
G01*
X11658600Y-2209800D01*
X11658600Y-2870200D01*
X7543800Y-2870200D01*
X7543800Y-2209800D01*
M02*
