G04 Layer: BottomSolderMaskLayer*
G04 EasyEDA v6.4.31, 2022-02-22 16:37:49*
G04 daaedd2a32134c9ca592902a83472a49,9a5be75d700b4a6385dc1106f27949ae,10*
G04 Gerber Generator version 0.2*
G04 Scale: 100 percent, Rotated: No, Reflected: No *
G04 Dimensions in millimeters *
G04 leading zeros omitted , absolute positions ,4 integer and 5 decimal *
%FSLAX45Y45*%
%MOMM*%

%ADD45C,1.6256*%
%ADD50C,1.7272*%
%ADD51R,1.7272X1.7272*%
%ADD60C,1.8016*%

%LPD*%
D45*
G01*
X4034790Y-13525500D03*
G01*
X4034790Y-13271500D03*
G01*
X4034790Y-13779500D03*
D50*
G01*
X889000Y-12700000D03*
G01*
X1143000Y-12700000D03*
D51*
G01*
X1397000Y-12700000D03*
G01*
X5207000Y-12700000D03*
D50*
G01*
X5461000Y-12700000D03*
G01*
X5715000Y-12700000D03*
G01*
X5715000Y-10922000D03*
G01*
X5461000Y-10922000D03*
D51*
G01*
X5207000Y-10922000D03*
D50*
G01*
X4953000Y-10922000D03*
G01*
X4699000Y-10922000D03*
G01*
X4445000Y-10922000D03*
G01*
X4191000Y-10922000D03*
D51*
G01*
X3937000Y-10922000D03*
D50*
G01*
X3683000Y-10922000D03*
G01*
X3429000Y-10922000D03*
G01*
X3175000Y-10922000D03*
G01*
X2921000Y-10922000D03*
D51*
G01*
X2667000Y-10922000D03*
D50*
G01*
X2413000Y-10922000D03*
G01*
X2159000Y-10922000D03*
G01*
X1905000Y-10922000D03*
G01*
X1651000Y-10922000D03*
D51*
G01*
X1397000Y-10922000D03*
D50*
G01*
X1143000Y-10922000D03*
G01*
X889000Y-10922000D03*
G01*
X5692013Y-12065000D03*
G36*
X5605525Y-11897360D02*
G01*
X5605525Y-11724639D01*
X5778245Y-11724639D01*
X5778245Y-11897360D01*
G37*
G01*
X5692013Y-11557000D03*
G01*
X1651000Y-12700000D03*
G01*
X1905000Y-12700000D03*
G01*
X2159000Y-12700000D03*
G01*
X2413000Y-12700000D03*
D51*
G01*
X2667000Y-12700000D03*
D50*
G01*
X2921000Y-12700000D03*
G01*
X3175000Y-12700000D03*
G01*
X3429000Y-12700000D03*
G01*
X3683000Y-12700000D03*
D51*
G01*
X3937000Y-12700000D03*
D50*
G01*
X4191000Y-12700000D03*
G01*
X4445000Y-12700000D03*
G01*
X4699000Y-12700000D03*
G01*
X4953000Y-12700000D03*
G36*
X6070600Y-9994900D02*
G01*
X6070600Y-9817100D01*
X6248400Y-9817100D01*
X6248400Y-9994900D01*
G37*
G36*
X4356100Y-9423400D02*
G01*
X4356100Y-9245600D01*
X4533900Y-9245600D01*
X4533900Y-9423400D01*
G37*
G36*
X5435600Y-13296900D02*
G01*
X5435600Y-13119100D01*
X5613400Y-13119100D01*
X5613400Y-13296900D01*
G37*
G36*
X4864100Y-14058900D02*
G01*
X4864100Y-13881100D01*
X5041900Y-13881100D01*
X5041900Y-14058900D01*
G37*
G36*
X2832100Y-10566400D02*
G01*
X2832100Y-10388600D01*
X3009900Y-10388600D01*
X3009900Y-10566400D01*
G37*
G36*
X6578600Y-12153900D02*
G01*
X6578600Y-11976100D01*
X6756400Y-11976100D01*
X6756400Y-12153900D01*
G37*
G36*
X6075679Y-11323320D02*
G01*
X6075679Y-11155679D01*
X6243320Y-11155679D01*
X6243320Y-11323320D01*
G37*
G36*
X6259829Y-12155170D02*
G01*
X6259829Y-11974829D01*
X6440170Y-11974829D01*
X6440170Y-12155170D01*
G37*
D60*
G01*
X6096000Y-12065000D03*
G01*
X6350000Y-11811000D03*
G01*
X6096000Y-11811000D03*
G01*
X6350000Y-11557000D03*
G01*
X6096000Y-11557000D03*
M02*
