G04 Layer: TopSolderMaskLayer*
G04 EasyEDA v6.5.38, 2023-12-09 12:24:54*
G04 bf440a20a08f4097bebf48ea32ac6b6d,9a5be75d700b4a6385dc1106f27949ae,10*
G04 Gerber Generator version 0.2*
G04 Scale: 100 percent, Rotated: No, Reflected: No *
G04 Dimensions in millimeters *
G04 leading zeros omitted , absolute positions ,4 integer and 5 decimal *
%FSLAX45Y45*%
%MOMM*%

%AMMACRO1*1,1,$1,$2,$3*1,1,$1,$4,$5*1,1,$1,0-$2,0-$3*1,1,$1,0-$4,0-$5*20,1,$1,$2,$3,$4,$5,0*20,1,$1,$4,$5,0-$2,0-$3,0*20,1,$1,0-$2,0-$3,0-$4,0-$5,0*20,1,$1,0-$4,0-$5,$2,$3,0*4,1,4,$2,$3,$4,$5,0-$2,0-$3,0-$4,0-$5,$2,$3,0*%
%ADD10MACRO1,0.1016X0.375X0.5X0.375X-0.5*%
%ADD11R,1.8016X1.8016*%
%ADD12C,1.8016*%
%ADD13C,2.3000*%
%ADD14C,2.1000*%
%ADD15MACRO1,0.1016X-0.9X0.9X0.9X0.9*%
%ADD16MACRO1,0.1016X-0.675X0.705X0.675X0.705*%
%ADD17MACRO1,0.1016X-0.675X-0.705X0.675X-0.705*%
%ADD18MACRO1,0.1016X-0.5X0.4X0.5X0.4*%
%ADD19R,0.9656X0.9081*%
%ADD20C,1.6256*%
%ADD21MACRO1,0.1016X-0.4032X-0.432X-0.4032X0.432*%
%ADD22MACRO1,0.1016X0.4032X-0.432X0.4032X0.432*%
%ADD23MACRO1,0.1016X0.4032X0.432X0.4032X-0.432*%
%ADD24MACRO1,0.1016X-0.4032X0.432X-0.4032X-0.432*%
%ADD25MACRO1,0.1016X-0.432X0.4032X0.432X0.4032*%
%ADD26MACRO1,0.1016X-0.432X-0.4032X0.432X-0.4032*%
%ADD27R,1.4016X2.1016*%
%ADD28MACRO1,0.1016X-1X1X1X1*%
%ADD29MACRO1,0.1016X0.55X0.7X0.55X-0.7*%
%ADD30MACRO1,0.102X-0.55X0.3X0.55X0.3*%
%ADD31MACRO1,0.102X0.55X-0.3X-0.55X-0.3*%
%ADD32MACRO1,0.1016X-0.4X0.45X0.4X0.45*%
%ADD33R,1.0016X0.9016*%
%ADD34MACRO1,0.1016X0.4X-0.45X-0.4X-0.45*%
%ADD35MACRO1,0.1016X0.5X-0.375X-0.5X-0.375*%
%ADD36MACRO1,0.1016X-0.7874X0.85X0.7874X0.85*%
%ADD37MACRO1,0.1016X1.85X0.6X1.85X-0.6*%
%ADD38R,1.1736X0.6336*%
%ADD39R,1.7016X2.9016*%
%ADD40MACRO1,0.1016X1.4X-0.8X-1.4X-0.8*%
%ADD41C,1.2032*%
%ADD42MACRO1,0.1016X0.5188X-0.266X0.5188X0.266*%
%ADD43MACRO1,0.1016X-0.4X0.432X0.4X0.432*%
%ADD44MACRO1,0.1016X0.432X0.4X0.432X-0.4*%
%ADD45MACRO1,0.1016X0.3X0.535X0.3X-0.535*%
%ADD46MACRO1,0.1016X0.705X0.675X0.705X-0.675*%
%ADD47MACRO1,0.1016X-0.705X0.675X-0.705X-0.675*%
%ADD48MACRO1,0.1016X0.7874X0.7874X0.7874X-0.7874*%
%ADD49MACRO1,0.1016X0.4X0.4X0.4X-0.4*%
%ADD50R,0.6336X1.1391*%
%ADD51MACRO1,0.1016X-0.5X0.3X0.5X0.3*%
%ADD52MACRO1,0.1016X0.5X-0.4X-0.5X-0.4*%
%ADD53C,5.6016*%
%ADD54C,0.0154*%

%LPD*%
D10*
G01*
X2539994Y-4282847D03*
G01*
X2539994Y-4048342D03*
D11*
G01*
X6756400Y-2895600D03*
D12*
G01*
X6756400Y-2641600D03*
G01*
X6756400Y-2387600D03*
G01*
X6756400Y-2133600D03*
D13*
G01*
X6248400Y-3403600D03*
G01*
X6756400Y-3403600D03*
G01*
X6248400Y-3911600D03*
G01*
X6756400Y-3911600D03*
D14*
G01*
X6502400Y-3657600D03*
D13*
G01*
X5943600Y-2260600D03*
G01*
X6451600Y-2260600D03*
G01*
X5943600Y-2768600D03*
G01*
X6451600Y-2768600D03*
D14*
G01*
X6197600Y-2514600D03*
D15*
G01*
X2321593Y-4378998D03*
G01*
X2321593Y-3748994D03*
G01*
X1691589Y-3748994D03*
G01*
X1691589Y-4378998D03*
D16*
G01*
X5816587Y-3808394D03*
D17*
G01*
X5816587Y-3608390D03*
D18*
G01*
X2526593Y-3904993D03*
G01*
X2756595Y-3809997D03*
G01*
X2526596Y-3714991D03*
D19*
G01*
X2590800Y-1042263D03*
G01*
X2590800Y-1192911D03*
D20*
G01*
X4952974Y-3937000D03*
G01*
X5206974Y-3937000D03*
G01*
X4698974Y-3937000D03*
D21*
G01*
X2716919Y-355600D03*
D22*
G01*
X2566269Y-355600D03*
D23*
G01*
X5842862Y-1828797D03*
D24*
G01*
X5993512Y-1828797D03*
D23*
G01*
X4166467Y-1295394D03*
D24*
G01*
X4317117Y-1295394D03*
D25*
G01*
X5689587Y-1142122D03*
D26*
G01*
X5689587Y-991472D03*
D20*
G01*
X4343374Y-533425D03*
G01*
X4597374Y-533425D03*
G01*
X4089374Y-533425D03*
D23*
G01*
X4547464Y-4571989D03*
D24*
G01*
X4698114Y-4571989D03*
D25*
G01*
X5689587Y-862724D03*
D26*
G01*
X5689587Y-712075D03*
D21*
G01*
X5383914Y-787397D03*
D22*
G01*
X5233264Y-787397D03*
D25*
G01*
X4317992Y-4113917D03*
D26*
G01*
X4317992Y-3963267D03*
D19*
G01*
X4927600Y-331063D03*
G01*
X4927600Y-481736D03*
D23*
G01*
X5360267Y-1574802D03*
D24*
G01*
X5510917Y-1574802D03*
D25*
G01*
X5689587Y-583324D03*
D26*
G01*
X5689587Y-432675D03*
D23*
G01*
X5360264Y-1727197D03*
D24*
G01*
X5510914Y-1727197D03*
D25*
G01*
X888997Y-735722D03*
D26*
G01*
X888997Y-585072D03*
D27*
G01*
X5902274Y-733399D03*
G01*
X6137300Y-733399D03*
D28*
G01*
X6019787Y-333400D03*
D19*
G01*
X5080000Y-483463D03*
G01*
X5080000Y-634136D03*
D29*
G01*
X5687189Y-2189594D03*
G01*
X5687189Y-2839595D03*
G01*
X5387190Y-2189594D03*
G01*
X5387190Y-2839595D03*
D30*
G01*
X3183002Y-438403D03*
G01*
X3183002Y-533400D03*
G01*
X3183002Y-628396D03*
G01*
X2912991Y-628396D03*
G01*
X2912991Y-533400D03*
G01*
X2912991Y-438403D03*
G01*
X2395604Y-692403D03*
G01*
X2395604Y-787400D03*
G01*
X2395604Y-882396D03*
G01*
X2125593Y-882396D03*
G01*
X2125593Y-787400D03*
G01*
X2125593Y-692403D03*
D31*
G01*
X5850845Y-1325145D03*
G01*
X5850845Y-1230149D03*
G01*
X5850845Y-1135153D03*
G01*
X6120856Y-1135153D03*
G01*
X6120856Y-1230149D03*
G01*
X6120856Y-1325145D03*
D19*
G01*
X5689600Y-1575663D03*
G01*
X5689600Y-1726311D03*
D23*
G01*
X2575459Y-671136D03*
D24*
G01*
X2726109Y-671136D03*
D25*
G01*
X5587989Y-4342517D03*
D26*
G01*
X5587989Y-4191867D03*
D32*
G01*
X6445387Y-1396997D03*
G01*
X6305387Y-1396997D03*
D33*
G01*
X1955800Y-641197D03*
G01*
X1955800Y-781202D03*
D34*
G01*
X1098397Y-965197D03*
G01*
X1238397Y-965197D03*
G01*
X1098397Y-787397D03*
G01*
X1238397Y-787397D03*
D33*
G01*
X3479800Y-3790797D03*
G01*
X3479800Y-3930802D03*
D32*
G01*
X3295792Y-3759192D03*
G01*
X3155792Y-3759192D03*
D35*
G01*
X3895937Y-4521189D03*
G01*
X4130442Y-4521189D03*
D12*
G01*
X3251200Y-4775200D03*
G01*
X2997200Y-4775200D03*
G01*
X2743200Y-4775200D03*
G01*
X2489200Y-4775200D03*
G01*
X2235200Y-4775200D03*
G01*
X1981200Y-4775200D03*
G01*
X1727200Y-4775200D03*
G01*
X1473200Y-4775200D03*
G01*
X1219200Y-4775200D03*
D36*
G01*
X965192Y-4775182D03*
D37*
G01*
X3581393Y-4417052D03*
G01*
X3581393Y-4117332D03*
D38*
G01*
X4128109Y-4311395D03*
G01*
X4128109Y-4216400D03*
G01*
X4128109Y-4121404D03*
G01*
X3898290Y-4121404D03*
G01*
X3898290Y-4216400D03*
G01*
X3898290Y-4311395D03*
D39*
G01*
X228600Y-3464610D03*
G01*
X482600Y-3464610D03*
G01*
X736600Y-3464610D03*
G01*
X990600Y-3464610D03*
G01*
X1244600Y-3464610D03*
G01*
X1498600Y-3464610D03*
G01*
X1752600Y-3464610D03*
G01*
X2006600Y-3464610D03*
G01*
X2260600Y-3464610D03*
G01*
X2514600Y-3464610D03*
G01*
X2768600Y-3464610D03*
G01*
X3022600Y-3464610D03*
G01*
X3276600Y-3464610D03*
G01*
X3530600Y-3464610D03*
G01*
X3784600Y-3464610D03*
G01*
X4038600Y-3464610D03*
G01*
X4292600Y-3464610D03*
G01*
X4546600Y-3464610D03*
G01*
X4800600Y-3464610D03*
G01*
X5054600Y-3464610D03*
G01*
X5054600Y-1564614D03*
G01*
X4800600Y-1564614D03*
G01*
X4546600Y-1564614D03*
G01*
X4292600Y-1564614D03*
G01*
X4038600Y-1564614D03*
G01*
X3784600Y-1564614D03*
G01*
X3530600Y-1564614D03*
G01*
X3276600Y-1564614D03*
G01*
X3022600Y-1564614D03*
G01*
X2768600Y-1564614D03*
G01*
X2514600Y-1564614D03*
G01*
X2260600Y-1564614D03*
G01*
X2006600Y-1564614D03*
G01*
X1752600Y-1564614D03*
G01*
X1498600Y-1564614D03*
G01*
X1244600Y-1564614D03*
G01*
X990600Y-1564614D03*
G01*
X736600Y-1564614D03*
G01*
X482600Y-1564614D03*
G01*
X228600Y-1564614D03*
D40*
G01*
X5091595Y-2768600D03*
G01*
X5091595Y-2514600D03*
G01*
X5091595Y-2260600D03*
D34*
G01*
X5594189Y-4013192D03*
G01*
X5734189Y-4013192D03*
G01*
X6305387Y-1244597D03*
G01*
X6445387Y-1244597D03*
D33*
G01*
X2057400Y-1047597D03*
G01*
X2057400Y-1187602D03*
D34*
G01*
X3612995Y-914394D03*
G01*
X3752994Y-914394D03*
D32*
G01*
X3905394Y-1295394D03*
G01*
X3765395Y-1295394D03*
G01*
X1238397Y-609600D03*
G01*
X1098397Y-609600D03*
D34*
G01*
X2580784Y-848936D03*
G01*
X2720784Y-848936D03*
D41*
G01*
X3454400Y-431800D03*
D42*
G01*
X6053712Y-1669797D03*
G01*
X6053712Y-1479797D03*
G01*
X5833461Y-1574797D03*
D43*
G01*
X3295792Y-3937005D03*
G01*
X3155792Y-3937005D03*
D44*
G01*
X1244584Y-1263797D03*
G01*
X1244584Y-1123797D03*
D43*
G01*
X4692789Y-4724402D03*
G01*
X4552789Y-4724402D03*
D45*
G01*
X5238993Y-631499D03*
G01*
X5428985Y-631499D03*
G01*
X5333989Y-384500D03*
G01*
X1505201Y-1266497D03*
G01*
X1695193Y-1266497D03*
G01*
X1600197Y-1019497D03*
D16*
G01*
X5613389Y-3808394D03*
D17*
G01*
X5613389Y-3608390D03*
D46*
G01*
X5081587Y-4724389D03*
D47*
G01*
X5281592Y-4724389D03*
D16*
G01*
X4317992Y-4519594D03*
D17*
G01*
X4317992Y-4319590D03*
D48*
G01*
X736600Y-1143000D03*
D49*
G01*
X1088450Y-228953D03*
G01*
X1248351Y-228252D03*
G01*
X4492048Y-1295747D03*
G01*
X4651949Y-1295046D03*
D50*
G01*
X3193795Y-804265D03*
G01*
X3003804Y-804265D03*
G01*
X3098800Y-1024534D03*
D48*
G01*
X482600Y-1142997D03*
G01*
X228600Y-1142997D03*
D51*
G01*
X3908582Y-1110993D03*
G01*
X3908582Y-921001D03*
G01*
X4168602Y-921001D03*
G01*
X4168602Y-1015997D03*
G01*
X4168602Y-1110993D03*
D52*
G01*
X2959795Y-1098796D03*
G01*
X2729793Y-1193792D03*
G01*
X2959793Y-1288798D03*
D53*
G01*
X355600Y-355600D03*
G01*
X6705600Y-355600D03*
G01*
X6705600Y-4648200D03*
G01*
X355600Y-4648200D03*
M02*
