G04 Layer: TopSolderMaskLayer*
G04 EasyEDA v6.5.22, 2023-03-08 13:12:16*
G04 37ab446038db4d519e82eb444407bca9,9a5be75d700b4a6385dc1106f27949ae,10*
G04 Gerber Generator version 0.2*
G04 Scale: 100 percent, Rotated: No, Reflected: No *
G04 Dimensions in millimeters *
G04 leading zeros omitted , absolute positions ,4 integer and 5 decimal *
%FSLAX45Y45*%
%MOMM*%

%AMMACRO1*1,1,$1,$2,$3*1,1,$1,$4,$5*1,1,$1,0-$2,0-$3*1,1,$1,0-$4,0-$5*20,1,$1,$2,$3,$4,$5,0*20,1,$1,$4,$5,0-$2,0-$3,0*20,1,$1,0-$2,0-$3,0-$4,0-$5,0*20,1,$1,0-$4,0-$5,$2,$3,0*4,1,4,$2,$3,$4,$5,0-$2,0-$3,0-$4,0-$5,$2,$3,0*%
%ADD10MACRO1,0.1016X0.4X-0.45X-0.4X-0.45*%
%ADD11MACRO1,0.1016X0.45X0.4X0.45X-0.4*%
%ADD12MACRO1,0.1016X-0.4X0.45X0.4X0.45*%
%ADD13MACRO1,0.1016X-0.45X-0.4X-0.45X0.4*%
%ADD14C,1.9016*%
%ADD15MACRO1,0.1016X0.9X-0.9X-0.9X-0.9*%
%ADD16R,3.6016X1.7016*%
%ADD17R,0.9656X0.9081*%
%ADD18MACRO1,0.1016X0.432X0.4032X-0.432X0.4032*%
%ADD19MACRO1,0.1016X-0.4032X-0.432X-0.4032X0.432*%
%ADD20MACRO1,0.1016X0.4032X-0.432X0.4032X0.432*%
%ADD21MACRO1,0.1016X-0.432X0.4032X0.432X0.4032*%
%ADD22MACRO1,0.1016X-0.432X-0.4032X0.432X-0.4032*%
%ADD23MACRO1,0.1016X0.432X-0.4032X-0.432X-0.4032*%
%ADD24MACRO1,0.1016X0.275X0.5X0.275X-0.5*%
%ADD25C,1.2032*%
%ADD26MACRO1,0.1016X0.266X0.5188X-0.266X0.5188*%
%ADD27C,1.6256*%
%ADD28MACRO1,0.1016X0.4032X0.432X0.4032X-0.432*%
%ADD29MACRO1,0.1016X-0.4032X0.432X-0.4032X-0.432*%
%ADD30MACRO1,0.1016X-0.4X0.432X0.4X0.432*%
%ADD31MACRO1,0.1016X0.432X0.4X0.432X-0.4*%
%ADD32R,0.9656X0.9016*%
%ADD33MACRO1,0.1016X-0.432X-0.4X-0.432X0.4*%
%ADD34MACRO1,0.1016X0.535X-0.3X-0.535X-0.3*%
%ADD35MACRO1,0.1016X0.85X-0.85X-0.85X-0.85*%
%ADD36C,1.8016*%
%ADD37MACRO1,0.1016X-0.85X-0.85X-0.85X0.85*%
%ADD38MACRO1,0.1016X0.3X0.535X0.3X-0.535*%
%ADD39MACRO1,0.1016X0.705X0.675X0.705X-0.675*%
%ADD40MACRO1,0.1016X-0.705X0.675X-0.705X-0.675*%
%ADD41MACRO1,0.1016X0.675X-0.705X-0.675X-0.705*%
%ADD42MACRO1,0.1016X0.675X0.705X-0.675X0.705*%
%ADD43MACRO1,0.1016X-0.675X0.705X0.675X0.705*%
%ADD44MACRO1,0.1016X-0.675X-0.705X0.675X-0.705*%
%ADD45MACRO1,0.1016X0.7874X0.7874X0.7874X-0.7874*%
%ADD46MACRO1,0.1016X0.475X-0.575X-0.475X-0.575*%
%ADD47MACRO1,0.1016X-0.4X0.4X0.4X0.4*%
%ADD48MACRO1,0.1016X0.4X0.4X0.4X-0.4*%
%ADD49MACRO1,0.1016X-0.536X-0.266X-0.536X0.266*%
%ADD50MACRO1,0.1016X0.5188X-0.266X0.5188X0.266*%
%ADD51R,1.8032X3.4032*%
%ADD52MACRO1,0.2032X1.6X-0.8X-1.6X-0.8*%
%ADD53MACRO1,0.204X1.6X-0.8X-1.6X-0.8*%
%ADD54MACRO1,0.1016X0.5X-0.275X-0.5X-0.275*%
%ADD55MACRO1,0.1016X0.5X-0.3X-0.5X-0.3*%
%ADD56MACRO1,0.1016X0.5X-0.4X-0.5X-0.4*%
%ADD57C,5.1016*%
%ADD58C,0.0197*%

%LPD*%
D10*
G01*
X6203800Y-3632200D03*
G01*
X6343799Y-3632200D03*
D11*
G01*
X4267200Y-838095D03*
G01*
X4267200Y-698096D03*
D12*
G01*
X2355999Y-330200D03*
G01*
X2216000Y-330200D03*
D10*
G01*
X5721200Y-2286000D03*
G01*
X5861199Y-2286000D03*
D12*
G01*
X5708799Y-1727200D03*
G01*
X5568800Y-1727200D03*
G01*
X1238399Y-558800D03*
G01*
X1098400Y-558800D03*
D13*
G01*
X2463794Y-971397D03*
G01*
X2463794Y-1111397D03*
D14*
G01*
X3225800Y-4775200D03*
D15*
G01*
X3479792Y-4775189D03*
D13*
G01*
X4419587Y-698190D03*
G01*
X4419587Y-838189D03*
D16*
G01*
X4318000Y-4310379D03*
G01*
X4318000Y-4630394D03*
D17*
G01*
X5486400Y-972261D03*
D18*
G01*
X5486389Y-1122917D03*
D19*
G01*
X4748917Y-514195D03*
D20*
G01*
X4598267Y-514195D03*
D19*
G01*
X5028317Y-514195D03*
D20*
G01*
X4877667Y-514195D03*
D21*
G01*
X6070587Y-1802522D03*
D22*
G01*
X6070587Y-1651872D03*
D23*
G01*
X6400787Y-1651872D03*
D18*
G01*
X6400787Y-1802522D03*
D19*
G01*
X5307717Y-514195D03*
D20*
G01*
X5157067Y-514195D03*
D23*
G01*
X6553187Y-1651872D03*
D18*
G01*
X6553187Y-1802522D03*
D24*
G01*
X4870195Y-984394D03*
G01*
X4775200Y-984394D03*
G01*
X4680204Y-984394D03*
G01*
X4680204Y-704385D03*
G01*
X4775200Y-704385D03*
G01*
X4870195Y-704385D03*
D19*
G01*
X2767724Y-482600D03*
D20*
G01*
X2617075Y-482600D03*
D19*
G01*
X4901324Y-4064000D03*
D20*
G01*
X4750675Y-4064000D03*
D21*
G01*
X939800Y-710324D03*
D22*
G01*
X939800Y-559675D03*
D25*
G01*
X3886200Y-1092200D03*
D26*
G01*
X5276592Y-759667D03*
G01*
X5086592Y-759667D03*
G01*
X5181592Y-979918D03*
D27*
G01*
X5613374Y-3962400D03*
G01*
X5863386Y-3962400D03*
G01*
X5363387Y-3962400D03*
D28*
G01*
X5182467Y-1123792D03*
D29*
G01*
X5333117Y-1123792D03*
D27*
G01*
X5867400Y-2667000D03*
G01*
X5617387Y-2667000D03*
G01*
X6117386Y-2667000D03*
D21*
G01*
X5384789Y-4621914D03*
D22*
G01*
X5384789Y-4471264D03*
D28*
G01*
X2667869Y-812797D03*
D29*
G01*
X2818519Y-812797D03*
D21*
G01*
X5892787Y-2107319D03*
D22*
G01*
X5892787Y-1956669D03*
D21*
G01*
X6197587Y-4088517D03*
D22*
G01*
X6197587Y-3937867D03*
D30*
G01*
X4083192Y-3962405D03*
G01*
X3943192Y-3962405D03*
D31*
G01*
X1244584Y-1238397D03*
G01*
X1244584Y-1098397D03*
D32*
G01*
X5689600Y-4476597D03*
D33*
G01*
X5689602Y-4616589D03*
D34*
G01*
X6074087Y-1962398D03*
G01*
X6074087Y-2152390D03*
G01*
X6321087Y-2057394D03*
D10*
G01*
X3359000Y-584200D03*
G01*
X3498999Y-584200D03*
G01*
X1098400Y-914400D03*
G01*
X1238399Y-914400D03*
G01*
X1098400Y-736600D03*
G01*
X1238399Y-736600D03*
D12*
G01*
X4069483Y-3791711D03*
G01*
X3929484Y-3791711D03*
D13*
G01*
X4253484Y-3823312D03*
G01*
X4253484Y-3963311D03*
D35*
G01*
X1955799Y-4775200D03*
D36*
G01*
X1701800Y-4775200D03*
G01*
X1447800Y-4775200D03*
G01*
X1193800Y-4775200D03*
D37*
G01*
X6756400Y-2921000D03*
D36*
G01*
X6756400Y-2667000D03*
G01*
X6756400Y-2413000D03*
G01*
X6756400Y-2159000D03*
D35*
G01*
X2971794Y-4775189D03*
D36*
G01*
X2717800Y-4775200D03*
G01*
X2463800Y-4775200D03*
G01*
X2209800Y-4775200D03*
D38*
G01*
X1505201Y-1241097D03*
G01*
X1695193Y-1241097D03*
G01*
X1600197Y-994097D03*
D39*
G01*
X6326184Y-3428992D03*
D40*
G01*
X6526189Y-3428992D03*
D41*
G01*
X5955377Y-4428195D03*
D42*
G01*
X5955377Y-4628200D03*
D43*
G01*
X5193377Y-4628200D03*
D44*
G01*
X5193377Y-4428195D03*
D45*
G01*
X736600Y-1143000D03*
D46*
G01*
X4668537Y-4629797D03*
G01*
X5007018Y-4629797D03*
D24*
G01*
X2457198Y-800399D03*
G01*
X2362202Y-800399D03*
G01*
X2267206Y-800399D03*
G01*
X2267206Y-520390D03*
G01*
X2362202Y-520390D03*
G01*
X2457198Y-520390D03*
D47*
G01*
X1270350Y-333943D03*
G01*
X1269649Y-174043D03*
D48*
G01*
X5812843Y-1473550D03*
G01*
X5972743Y-1472849D03*
D23*
G01*
X2666994Y-966072D03*
D18*
G01*
X2666994Y-1116722D03*
D19*
G01*
X5612514Y-1473197D03*
D20*
G01*
X5461864Y-1473197D03*
D49*
G01*
X4901887Y-4419996D03*
G01*
X4901887Y-4325000D03*
G01*
X4901887Y-4230004D03*
G01*
X4672068Y-4230004D03*
G01*
X4672068Y-4325000D03*
G01*
X4672068Y-4419996D03*
D50*
G01*
X3158120Y-602999D03*
G01*
X3158120Y-413000D03*
G01*
X2937869Y-508000D03*
D51*
G01*
X228600Y-3483584D03*
G01*
X482600Y-3483584D03*
G01*
X736600Y-3483584D03*
G01*
X990600Y-3483584D03*
G01*
X1244600Y-3483584D03*
G01*
X1498600Y-3483584D03*
G01*
X1752600Y-3483584D03*
G01*
X2006600Y-3483584D03*
G01*
X2260600Y-3483584D03*
G01*
X2514600Y-3483584D03*
G01*
X2768600Y-3483584D03*
G01*
X3022600Y-3483584D03*
G01*
X3276600Y-3483584D03*
G01*
X3530600Y-3483584D03*
G01*
X3784600Y-3483584D03*
G01*
X4038600Y-3483584D03*
G01*
X4292600Y-3483584D03*
G01*
X4546600Y-3483584D03*
G01*
X4800600Y-3483584D03*
G01*
X5054600Y-3483584D03*
G01*
X5054600Y-1545589D03*
G01*
X4800600Y-1545589D03*
G01*
X4546600Y-1545589D03*
G01*
X4292600Y-1545589D03*
G01*
X4038600Y-1545589D03*
G01*
X3784600Y-1545589D03*
G01*
X3530600Y-1545589D03*
G01*
X3276600Y-1545589D03*
G01*
X3022600Y-1545589D03*
G01*
X2768600Y-1545589D03*
G01*
X2514600Y-1545589D03*
G01*
X2260600Y-1545589D03*
G01*
X2006600Y-1545589D03*
G01*
X1752600Y-1545589D03*
G01*
X1498600Y-1545589D03*
G01*
X1244600Y-1545589D03*
G01*
X990600Y-1545589D03*
G01*
X736600Y-1545589D03*
G01*
X482600Y-1545589D03*
G01*
X228600Y-1545589D03*
D52*
G01*
X5111595Y-2768594D03*
D53*
G01*
X5111595Y-2514594D03*
D52*
G01*
X5111595Y-2260594D03*
D45*
G01*
X482600Y-1142997D03*
G01*
X228600Y-1142997D03*
D54*
G01*
X3212790Y-958601D03*
G01*
X3212790Y-863605D03*
G01*
X3212790Y-768609D03*
G01*
X3492799Y-768609D03*
G01*
X3492799Y-863605D03*
G01*
X3492799Y-958601D03*
D55*
G01*
X5717997Y-1911598D03*
G01*
X5717997Y-2101590D03*
G01*
X5457977Y-2101590D03*
G01*
X5457977Y-2006594D03*
G01*
X5457977Y-1911598D03*
D56*
G01*
X3061395Y-1022596D03*
G01*
X2831393Y-1117592D03*
G01*
X3061393Y-1212598D03*
D57*
G01*
X355600Y-355600D03*
G01*
X6705600Y-355600D03*
G01*
X6705600Y-4648200D03*
G01*
X355600Y-4648200D03*
M02*
