G04 Layer: TopSolderMaskLayer*
G04 EasyEDA v6.5.44, 2024-08-29 13:08:05*
G04 16ae97f49be74552a1a67efb210d0a0d,9a5be75d700b4a6385dc1106f27949ae,10*
G04 Gerber Generator version 0.2*
G04 Scale: 100 percent, Rotated: No, Reflected: No *
G04 Dimensions in millimeters *
G04 leading zeros omitted , absolute positions ,4 integer and 5 decimal *
%FSLAX45Y45*%
%MOMM*%

%AMMACRO1*4,1,8,-0.8616,-0.8908,-0.8913,-0.861,-0.8913,0.8611,-0.8616,0.8908,0.8615,0.8908,0.8913,0.8611,0.8913,-0.861,0.8615,-0.8908,-0.8616,-0.8908,0*%
%AMMACRO2*4,1,8,-0.5211,-0.4258,-0.5508,-0.396,-0.5508,0.3961,-0.5211,0.4258,0.521,0.4258,0.5508,0.3961,0.5508,-0.396,0.521,-0.4258,-0.5211,-0.4258,0*%
%AMMACRO3*4,1,8,-0.3961,-0.5508,-0.4258,-0.521,-0.4258,0.5211,-0.3961,0.5508,0.396,0.5508,0.4258,0.5211,0.4258,-0.521,0.396,-0.5508,-0.3961,-0.5508,0*%
%AMMACRO4*4,1,8,-0.8085,-0.8382,-0.8382,-0.8084,-0.8382,0.8085,-0.8085,0.8382,0.8084,0.8382,0.8382,0.8085,0.8382,-0.8084,0.8084,-0.8382,-0.8085,-0.8382,0*%
%AMMACRO5*4,1,8,-0.8085,-0.9008,-0.8382,-0.871,-0.8382,0.8711,-0.8085,0.9008,0.8084,0.9008,0.8382,0.8711,0.8382,-0.871,0.8084,-0.9008,-0.8085,-0.9008,0*%
%AMMACRO6*4,1,8,-0.8711,-0.9008,-0.9008,-0.871,-0.9008,0.8711,-0.8711,0.9008,0.871,0.9008,0.9008,0.8711,0.9008,-0.871,0.871,-0.9008,-0.8711,-0.9008,0*%
%AMMACRO7*4,1,8,-1.8711,-0.6508,-1.9008,-0.621,-1.9008,0.6211,-1.8711,0.6508,1.871,0.6508,1.9008,0.6211,1.9008,-0.621,1.871,-0.6508,-1.8711,-0.6508,0*%
%AMMACRO8*4,1,8,-0.5211,-0.4508,-0.5508,-0.421,-0.5508,0.4211,-0.5211,0.4508,0.521,0.4508,0.5508,0.4211,0.5508,-0.421,0.521,-0.4508,-0.5211,-0.4508,0*%
%AMMACRO9*4,1,8,-0.4531,-0.454,-0.4828,-0.4243,-0.4828,0.4243,-0.4531,0.454,0.453,0.454,0.4828,0.4243,0.4828,-0.4243,0.453,-0.454,-0.4531,-0.454,0*%
%AMMACRO10*4,1,8,-0.4243,-0.4828,-0.454,-0.453,-0.454,0.4531,-0.4243,0.4828,0.4243,0.4828,0.454,0.4531,0.454,-0.453,0.4243,-0.4828,-0.4243,-0.4828,0*%
%AMMACRO11*4,1,8,-0.6711,-1.0508,-0.7008,-1.021,-0.7008,1.0211,-0.6711,1.0508,0.671,1.0508,0.7008,1.0211,0.7008,-1.021,0.671,-1.0508,-0.6711,-1.0508,0*%
%AMMACRO12*4,1,8,-1.0211,-1.0508,-1.0508,-1.021,-1.0508,1.0211,-1.0211,1.0508,1.021,1.0508,1.0508,1.0211,1.0508,-1.021,1.021,-1.0508,-1.0211,-1.0508,0*%
%AMMACRO13*4,1,8,-0.5711,-0.7508,-0.6008,-0.721,-0.6008,0.7211,-0.5711,0.7508,0.571,0.7508,0.6008,0.7211,0.6008,-0.721,0.571,-0.7508,-0.5711,-0.7508,0*%
%AMMACRO14*4,1,8,-0.5211,-0.3508,-0.5508,-0.321,-0.5508,0.3211,-0.5211,0.3508,0.521,0.3508,0.5508,0.3211,0.5508,-0.321,0.521,-0.3508,-0.5211,-0.3508,0*%
%AMMACRO15*4,1,8,-0.3211,-0.5858,-0.3508,-0.556,-0.3508,0.5561,-0.3211,0.5858,0.321,0.5858,0.3508,0.5561,0.3508,-0.556,0.321,-0.5858,-0.3211,-0.5858,0*%
%AMMACRO16*4,1,8,-1.4211,-0.8508,-1.4508,-0.821,-1.4508,0.8211,-1.4211,0.8508,1.421,0.8508,1.4508,0.8211,1.4508,-0.821,1.421,-0.8508,-1.4211,-0.8508,0*%
%AMMACRO17*4,1,8,-0.8211,-1.4508,-0.8508,-1.421,-0.8508,1.4211,-0.8211,1.4508,0.821,1.4508,0.8508,1.4211,0.8508,-1.421,0.821,-1.4508,-0.8211,-1.4508,0*%
%AMMACRO18*4,1,8,-0.6961,-0.7558,-0.7258,-0.726,-0.7258,0.7261,-0.6961,0.7558,0.696,0.7558,0.7258,0.7261,0.7258,-0.726,0.696,-0.7558,-0.6961,-0.7558,0*%
%AMMACRO19*4,1,8,-0.7261,-0.7258,-0.7558,-0.696,-0.7558,0.6961,-0.7261,0.7258,0.726,0.7258,0.7558,0.6961,0.7558,-0.696,0.726,-0.7258,-0.7261,-0.7258,0*%
%AMMACRO20*4,1,8,-0.2871,-0.5696,-0.3168,-0.5398,-0.3168,0.5398,-0.2871,0.5696,0.287,0.5696,0.3168,0.5398,0.3168,-0.5398,0.287,-0.5696,-0.2871,-0.5696,0*%
%AMMACRO21*4,1,8,-0.287,-0.5696,-0.3168,-0.5398,-0.3168,0.5398,-0.287,0.5696,0.287,0.5696,0.3168,0.5398,0.3168,-0.5398,0.287,-0.5696,-0.287,-0.5696,0*%
%AMMACRO22*4,1,8,-0.5398,-0.3168,-0.5696,-0.287,-0.5696,0.2871,-0.5398,0.3168,0.5398,0.3168,0.5696,0.2871,0.5696,-0.287,0.5398,-0.3168,-0.5398,-0.3168,0*%
%AMMACRO23*4,1,8,-0.5398,-0.3168,-0.5696,-0.287,-0.5696,0.287,-0.5398,0.3168,0.5398,0.3168,0.5696,0.287,0.5696,-0.287,0.5398,-0.3168,-0.5398,-0.3168,0*%
%AMMACRO24*4,1,8,-0.4211,-0.4508,-0.4508,-0.421,-0.4508,0.4211,-0.4211,0.4508,0.421,0.4508,0.4508,0.4211,0.4508,-0.421,0.421,-0.4508,-0.4211,-0.4508,0*%
%AMMACRO25*4,1,8,-0.4211,-0.5008,-0.4508,-0.471,-0.4508,0.4711,-0.4211,0.5008,0.421,0.5008,0.4508,0.4711,0.4508,-0.471,0.421,-0.5008,-0.4211,-0.5008,0*%
%AMMACRO26*4,1,8,-0.4711,-0.4508,-0.5008,-0.421,-0.5008,0.4211,-0.4711,0.4508,0.471,0.4508,0.5008,0.4211,0.5008,-0.421,0.471,-0.4508,-0.4711,-0.4508,0*%
%AMMACRO27*4,1,8,-0.5711,-0.351,-0.601,-0.3211,-0.601,0.3211,-0.5711,0.351,0.5711,0.351,0.601,0.3211,0.601,-0.3211,0.5711,-0.351,-0.5711,-0.351,0*%
%AMMACRO28*4,1,8,-0.557,-0.3168,-0.5868,-0.287,-0.5868,0.287,-0.557,0.3168,0.557,0.3168,0.5868,0.287,0.5868,-0.287,0.557,-0.3168,-0.557,-0.3168,0*%
%AMMACRO29*4,1,8,-0.4211,-0.4828,-0.4508,-0.453,-0.4508,0.4531,-0.4211,0.4828,0.421,0.4828,0.4508,0.4531,0.4508,-0.453,0.421,-0.4828,-0.4211,-0.4828,0*%
%AMMACRO30*4,1,8,-0.4531,-0.4508,-0.4828,-0.421,-0.4828,0.4211,-0.4531,0.4508,0.453,0.4508,0.4828,0.4211,0.4828,-0.421,0.453,-0.4508,-0.4531,-0.4508,0*%
%ADD10C,0.7016*%
%ADD11C,0.7116*%
%ADD12MACRO1*%
%ADD13MACRO2*%
%ADD14MACRO3*%
%ADD15MACRO4*%
%ADD16C,1.8016*%
%ADD17MACRO5*%
%ADD18MACRO6*%
%ADD19C,2.3000*%
%ADD20C,2.1000*%
%ADD21MACRO7*%
%ADD22MACRO8*%
%ADD23MACRO9*%
%ADD24MACRO10*%
%ADD25MACRO11*%
%ADD26MACRO12*%
%ADD27MACRO13*%
%ADD28MACRO14*%
%ADD29MACRO15*%
%ADD30MACRO16*%
%ADD31MACRO17*%
%ADD32MACRO18*%
%ADD33MACRO19*%
%ADD34MACRO20*%
%ADD35MACRO21*%
%ADD36MACRO22*%
%ADD37MACRO23*%
%ADD38MACRO24*%
%ADD39MACRO25*%
%ADD40MACRO26*%
%ADD41C,1.6256*%
%ADD42MACRO27*%
%ADD43MACRO28*%
%ADD44C,1.2032*%
%ADD45MACRO29*%
%ADD46MACRO30*%
%ADD47C,5.6016*%
%ADD48C,0.0119*%

%LPD*%
G36*
X375005Y-74980D02*
G01*
X177800Y-76200D01*
X76200Y-177800D01*
X76200Y-224993D01*
X224993Y-224993D01*
G37*
G36*
X76200Y-4624984D02*
G01*
X76200Y-4825949D01*
X150114Y-4899863D01*
X226263Y-4899863D01*
X254000Y-4927600D01*
G37*
G36*
X7010349Y-4599990D02*
G01*
X6974992Y-4635398D01*
X6974992Y-4700016D01*
X6799986Y-4874971D01*
X6749999Y-4899964D01*
X6799986Y-4927600D01*
X6959600Y-4927600D01*
X7010349Y-4876850D01*
G37*
G36*
X6756400Y-76200D02*
G01*
X6756400Y-96012D01*
X7010349Y-350012D01*
X7010349Y-126949D01*
X6959600Y-76200D01*
G37*
G36*
X0Y0D02*
G01*
X0Y-99974D01*
X7049973Y-99974D01*
X7049973Y0D01*
G37*
G36*
X0Y-99974D02*
G01*
X0Y-4999990D01*
X99974Y-4999990D01*
X99974Y-99974D01*
G37*
G36*
X6756400Y-76200D02*
G01*
X6756400Y-96012D01*
X7010349Y-350012D01*
X7010349Y-126949D01*
X6959600Y-76200D01*
G37*
G36*
X0Y-4899964D02*
G01*
X0Y-4999990D01*
X7049973Y-4999990D01*
X7049973Y-4899964D01*
G37*
D10*
X6959600Y-76200D02*
G01*
X254000Y-76200D01*
D11*
X127000Y-127000D02*
G01*
X177800Y-76200D01*
X254000Y-76200D01*
X127000Y-127000D02*
G01*
X76200Y-177800D01*
X76200Y-279400D01*
X6959600Y-76200D02*
G01*
X7010374Y-126974D01*
X7010374Y-254000D01*
X7010374Y-4724400D02*
G01*
X7010374Y-254000D01*
X6959600Y-4927600D02*
G01*
X7010374Y-4876825D01*
X7010374Y-4724400D01*
X254000Y-4927600D02*
G01*
X6959600Y-4927600D01*
X127000Y-4876774D02*
G01*
X76200Y-4825974D01*
X76200Y-4749800D01*
X127000Y-4876774D02*
G01*
X177825Y-4927600D01*
X254000Y-4927600D01*
X76200Y-279400D02*
G01*
X76200Y-4749800D01*
D12*
G01*
X2349741Y-4339991D03*
G01*
X2349741Y-3709995D03*
G01*
X1650250Y-3709995D03*
G01*
X1650250Y-4339991D03*
D13*
G01*
X3882774Y-4525009D03*
G01*
X4117280Y-4525009D03*
D14*
G01*
X2549944Y-4267361D03*
G01*
X2549944Y-4032855D03*
D15*
G01*
X733043Y-1150111D03*
D16*
G01*
X3243072Y-4750054D03*
G01*
X2989072Y-4750054D03*
G01*
X2735072Y-4750054D03*
G01*
X2481072Y-4750054D03*
G01*
X2227072Y-4750054D03*
G01*
X1973072Y-4750054D03*
G01*
X1719071Y-4750054D03*
G01*
X1465071Y-4750054D03*
G01*
X1211071Y-4750054D03*
D17*
G01*
X957072Y-4750054D03*
D18*
G01*
X6674865Y-2881122D03*
D16*
G01*
X6674865Y-2627121D03*
G01*
X6674865Y-2373121D03*
G01*
X6674865Y-2119121D03*
D19*
G01*
X6295897Y-3395979D03*
G01*
X6803897Y-3395979D03*
G01*
X6295897Y-3903979D03*
G01*
X6803897Y-3903979D03*
D20*
G01*
X6549897Y-3649979D03*
D19*
G01*
X6295897Y-1096010D03*
G01*
X6803897Y-1096010D03*
G01*
X6295897Y-1604010D03*
G01*
X6803897Y-1604010D03*
D20*
G01*
X6549897Y-1350010D03*
D21*
G01*
X3575051Y-4424934D03*
G01*
X3575051Y-4125214D03*
D22*
G01*
X2965023Y-1104900D03*
G01*
X2735021Y-1199896D03*
G01*
X2965020Y-1294902D03*
G01*
X2534869Y-3895100D03*
G01*
X2764871Y-3800104D03*
G01*
X2534871Y-3705098D03*
D23*
G01*
X2575052Y-1049641D03*
G01*
X2575052Y-1200290D03*
G01*
X6400037Y-2124569D03*
G01*
X6400037Y-2275218D03*
D24*
G01*
X4349609Y-1275080D03*
G01*
X4500258Y-1275080D03*
D23*
G01*
X5649976Y-1774557D03*
G01*
X5649976Y-1925206D03*
G01*
X5549900Y-1075322D03*
G01*
X5549900Y-924673D03*
D24*
G01*
X4700410Y-4525010D03*
G01*
X4549761Y-4525010D03*
G01*
X2574657Y-674877D03*
G01*
X2725306Y-674877D03*
D23*
G01*
X5549900Y-775348D03*
G01*
X5549900Y-624699D03*
D24*
G01*
X5275212Y-774953D03*
G01*
X5124563Y-774953D03*
D23*
G01*
X4949952Y-475374D03*
G01*
X4949952Y-324725D03*
G01*
X5474969Y-1774557D03*
G01*
X5474969Y-1925206D03*
G01*
X5549900Y-475374D03*
G01*
X5549900Y-324725D03*
G01*
X5325110Y-1925206D03*
G01*
X5325110Y-1774557D03*
G01*
X5575046Y-4350398D03*
G01*
X5575046Y-4199749D03*
D25*
G01*
X5832591Y-849985D03*
G01*
X6067612Y-849985D03*
D26*
G01*
X5950102Y-449986D03*
D23*
G01*
X4949952Y-775348D03*
G01*
X4949952Y-624699D03*
D27*
G01*
X6049911Y-2174880D03*
G01*
X6049911Y-2824881D03*
G01*
X5749912Y-2174880D03*
G01*
X5749912Y-2824881D03*
D28*
G01*
X3920058Y-1244879D03*
G01*
X3920058Y-1054887D03*
G01*
X4180078Y-1054887D03*
G01*
X4180078Y-1149883D03*
G01*
X4180078Y-1244879D03*
D29*
G01*
X1504962Y-1273611D03*
G01*
X1694954Y-1273611D03*
G01*
X1599958Y-1026612D03*
G01*
X5104904Y-623625D03*
G01*
X5294896Y-623625D03*
G01*
X5199900Y-376626D03*
D15*
G01*
X225043Y-1150111D03*
G01*
X479043Y-1150111D03*
D30*
G01*
X5100977Y-2246121D03*
G01*
X5100977Y-2500121D03*
G01*
X5100977Y-2754121D03*
D31*
G01*
X236981Y-1550123D03*
G01*
X490981Y-1550123D03*
G01*
X744981Y-1550123D03*
G01*
X998981Y-1550123D03*
G01*
X1252981Y-1550123D03*
G01*
X1506981Y-1550123D03*
G01*
X1760981Y-1550123D03*
G01*
X2014982Y-1550123D03*
G01*
X2268982Y-1550123D03*
G01*
X2522982Y-1550123D03*
G01*
X2776982Y-1550123D03*
G01*
X3030982Y-1550123D03*
G01*
X3284982Y-1550123D03*
G01*
X3538982Y-1550123D03*
G01*
X3792982Y-1550123D03*
G01*
X4046982Y-1550123D03*
G01*
X4300982Y-1550123D03*
G01*
X4554982Y-1550123D03*
G01*
X4808982Y-1550123D03*
G01*
X5062982Y-1550123D03*
G01*
X5062982Y-3450120D03*
G01*
X4808982Y-3450120D03*
G01*
X4554982Y-3450120D03*
G01*
X4300982Y-3450120D03*
G01*
X4046982Y-3450120D03*
G01*
X3792982Y-3450120D03*
G01*
X3538982Y-3450120D03*
G01*
X3284982Y-3450120D03*
G01*
X3030982Y-3450120D03*
G01*
X2776982Y-3450120D03*
G01*
X2522982Y-3450120D03*
G01*
X2268982Y-3450120D03*
G01*
X2014982Y-3450120D03*
G01*
X1760981Y-3450120D03*
G01*
X1506981Y-3450120D03*
G01*
X1252981Y-3450120D03*
G01*
X998981Y-3450120D03*
G01*
X744981Y-3450120D03*
G01*
X490981Y-3450120D03*
G01*
X236981Y-3450120D03*
D32*
G01*
X5599938Y-3824912D03*
G01*
X5599938Y-3624907D03*
D33*
G01*
X5050101Y-4674869D03*
G01*
X5250106Y-4674869D03*
D32*
G01*
X4325111Y-4524936D03*
G01*
X4325111Y-4324931D03*
G01*
X5800090Y-3824912D03*
G01*
X5800090Y-3624907D03*
D34*
G01*
X3195069Y-814942D03*
G01*
X3005070Y-814942D03*
D35*
G01*
X3100070Y-1035193D03*
D36*
G01*
X6035183Y-1869951D03*
G01*
X6035183Y-1679952D03*
D37*
G01*
X5814932Y-1774951D03*
D38*
G01*
X4645027Y-1274899D03*
G01*
X4804928Y-1274884D03*
G01*
X1255011Y-225097D03*
G01*
X1095110Y-225112D03*
D24*
G01*
X2725306Y-350011D03*
G01*
X2574657Y-350011D03*
D23*
G01*
X4325112Y-4125354D03*
G01*
X4325112Y-3974705D03*
D24*
G01*
X1099679Y-400050D03*
G01*
X1250328Y-400050D03*
D39*
G01*
X3299983Y-249999D03*
G01*
X3439982Y-249999D03*
G01*
X5579988Y-4024993D03*
G01*
X5719988Y-4024993D03*
D40*
G01*
X5899988Y-1419997D03*
G01*
X5899988Y-1279997D03*
D39*
G01*
X3744993Y-1274998D03*
G01*
X3604994Y-1274998D03*
D40*
G01*
X1949996Y-769998D03*
G01*
X1949996Y-629998D03*
D39*
G01*
X3604994Y-1024999D03*
G01*
X3744993Y-1024999D03*
D40*
G01*
X6049987Y-1419997D03*
G01*
X6049987Y-1279997D03*
D39*
G01*
X1244998Y-949998D03*
G01*
X1104999Y-949998D03*
G01*
X1244998Y-799998D03*
G01*
X1104999Y-799998D03*
D40*
G01*
X3474994Y-3944993D03*
G01*
X3474994Y-3804993D03*
D39*
G01*
X1104999Y-649998D03*
G01*
X1244998Y-649998D03*
G01*
X3154994Y-3774993D03*
G01*
X3294994Y-3774993D03*
D41*
G01*
X4949977Y-3925011D03*
G01*
X5203977Y-3925011D03*
G01*
X4695977Y-3925011D03*
G01*
X4349978Y-600024D03*
G01*
X4603978Y-600024D03*
G01*
X4095978Y-600024D03*
D42*
G01*
X3185001Y-455002D03*
G01*
X3185001Y-549998D03*
G01*
X3185001Y-644994D03*
G01*
X2914990Y-644994D03*
G01*
X2914990Y-549998D03*
G01*
X2914990Y-455002D03*
G01*
X2410004Y-680003D03*
G01*
X2410004Y-774999D03*
G01*
X2410004Y-869995D03*
G01*
X2139993Y-869995D03*
G01*
X2139993Y-774999D03*
G01*
X2139993Y-680003D03*
G01*
X5439982Y-1519994D03*
G01*
X5439982Y-1424998D03*
G01*
X5439982Y-1330002D03*
G01*
X5709993Y-1330002D03*
G01*
X5709993Y-1424998D03*
G01*
X5709993Y-1519994D03*
D43*
G01*
X4114901Y-4319988D03*
G01*
X4114901Y-4224992D03*
G01*
X4114901Y-4129996D03*
G01*
X3885082Y-4129996D03*
G01*
X3885082Y-4224992D03*
G01*
X3885082Y-4319988D03*
D39*
G01*
X2579994Y-874999D03*
G01*
X2719994Y-874999D03*
D44*
G01*
X3450005Y-450011D03*
D45*
G01*
X3294994Y-3950004D03*
G01*
X3154994Y-3950004D03*
D46*
G01*
X1249984Y-1294998D03*
G01*
X1249984Y-1154998D03*
D45*
G01*
X4694991Y-4675004D03*
G01*
X4554992Y-4675004D03*
D47*
G01*
X350012Y-350012D03*
G01*
X6699986Y-350012D03*
G01*
X6699986Y-4650003D03*
G01*
X350012Y-4650003D03*
M02*
