G04 Layer: TopSilkscreenLayer*
G04 EasyEDA v6.5.5, 2022-07-05 02:26:19*
G04 677f26d251d643acb481b5c6e2656a11,9a5be75d700b4a6385dc1106f27949ae,10*
G04 Gerber Generator version 0.2*
G04 Scale: 100 percent, Rotated: No, Reflected: No *
G04 Dimensions in millimeters *
G04 leading zeros omitted , absolute positions ,4 integer and 5 decimal *
%FSLAX45Y45*%
%MOMM*%

%ADD10C,0.2540*%
%ADD11C,0.2100*%
%ADD14C,0.3000*%
%ADD39C,0.1524*%
%ADD40C,0.2032*%
%ADD41C,0.2030*%
%ADD42C,0.1500*%
%ADD43C,0.2000*%
%ADD44C,0.8000*%
%ADD45C,0.1000*%

%LPD*%
G36*
X6339840Y-3661613D02*
G01*
X6325819Y-3673805D01*
X6324904Y-3680815D01*
X6324752Y-3684219D01*
X6325135Y-3689858D01*
X6335064Y-3689858D01*
X6339535Y-3675583D01*
X6354114Y-3675583D01*
X6359956Y-3675786D01*
X6365138Y-3676294D01*
X6369050Y-3677107D01*
X6371132Y-3678072D01*
X6373571Y-3680561D01*
X6371539Y-3698240D01*
X6343599Y-3700322D01*
X6335064Y-3689858D01*
X6325135Y-3689858D01*
X6325514Y-3692855D01*
X6328714Y-3706063D01*
X6349441Y-3714851D01*
X6374485Y-3710686D01*
X6378752Y-3706215D01*
X6380581Y-3703777D01*
X6382308Y-3700475D01*
X6383832Y-3696766D01*
X6384848Y-3693007D01*
X6386626Y-3684270D01*
X6380480Y-3669029D01*
X6366865Y-3661613D01*
G37*
G36*
X6226251Y-3724401D02*
G01*
X6226251Y-3734866D01*
X6259982Y-3734866D01*
X6277559Y-3741674D01*
X6277559Y-3755542D01*
X6264300Y-3762806D01*
X6226251Y-3762806D01*
X6226251Y-3773271D01*
X6276492Y-3773271D01*
X6288735Y-3759454D01*
X6284823Y-3734866D01*
X6328156Y-3734866D01*
X6327249Y-3741877D01*
X6335166Y-3741877D01*
X6352692Y-3735070D01*
X6373266Y-3741623D01*
X6373266Y-3755948D01*
X6355892Y-3764026D01*
X6337350Y-3757422D01*
X6335166Y-3741877D01*
X6327249Y-3741877D01*
X6324650Y-3761536D01*
X6336131Y-3773271D01*
X6352692Y-3773271D01*
X6359601Y-3773068D01*
X6366052Y-3772611D01*
X6371437Y-3771900D01*
X6374942Y-3771036D01*
X6380632Y-3768801D01*
X6386931Y-3751834D01*
X6379108Y-3736949D01*
X6386931Y-3734308D01*
X6386931Y-3724401D01*
G37*
G36*
X6585203Y-3727907D02*
G01*
X6584340Y-3733749D01*
X6573266Y-3788816D01*
X6526326Y-3808628D01*
X6493510Y-3786479D01*
X6485432Y-3781399D01*
X6479489Y-3777996D01*
X6476593Y-3776726D01*
X6473698Y-3778453D01*
X6468414Y-3782974D01*
X6461658Y-3789476D01*
X6446977Y-3804818D01*
X6440779Y-3811930D01*
X6436461Y-3817416D01*
X6434836Y-3820464D01*
X6436055Y-3823512D01*
X6439306Y-3829354D01*
X6444132Y-3837076D01*
X6465163Y-3868064D01*
X6459626Y-3879900D01*
X6457594Y-3884676D01*
X6456222Y-3888790D01*
X6455562Y-3891889D01*
X6455765Y-3893464D01*
X6460185Y-3895750D01*
X6486398Y-3907536D01*
X6552641Y-3935984D01*
X6583578Y-3903573D01*
X6614261Y-3895699D01*
X6643776Y-3902456D01*
X6664502Y-3918000D01*
X6669836Y-3928465D01*
X6672122Y-3933494D01*
X6674408Y-3939438D01*
X6676440Y-3945585D01*
X6680606Y-3963365D01*
X6672986Y-3994150D01*
X6647840Y-4019804D01*
X6616547Y-4027830D01*
X6605168Y-4025696D01*
X6599428Y-4024274D01*
X6593687Y-4022191D01*
X6587998Y-4019550D01*
X6582409Y-4016298D01*
X6577025Y-4012539D01*
X6571843Y-4008323D01*
X6566916Y-4003598D01*
X6562344Y-3998468D01*
X6552742Y-3986784D01*
X6478574Y-4018838D01*
X6457391Y-4028643D01*
X6456019Y-4029456D01*
X6454089Y-4031487D01*
X6465062Y-4054957D01*
X6444030Y-4087063D01*
X6439255Y-4094937D01*
X6435743Y-4101337D01*
X6447028Y-4101337D01*
X6476441Y-4058716D01*
X6474002Y-4050182D01*
X6471920Y-4044137D01*
X6468618Y-4035856D01*
X6547916Y-4002379D01*
X6573266Y-4027576D01*
X6598666Y-4038346D01*
X6631381Y-4038193D01*
X6658711Y-4025493D01*
X6683705Y-3997198D01*
X6691680Y-3958132D01*
X6681216Y-3921455D01*
X6655308Y-3895699D01*
X6629857Y-3884879D01*
X6598666Y-3884879D01*
X6573266Y-3895699D01*
X6547815Y-3920998D01*
X6470700Y-3888740D01*
X6474155Y-3875684D01*
X6476339Y-3865524D01*
X6447485Y-3821429D01*
X6477812Y-3790492D01*
X6516319Y-3818585D01*
X6532778Y-3818585D01*
X6563512Y-3805732D01*
X6577279Y-3799230D01*
X6580479Y-3797300D01*
X6584289Y-3794099D01*
X6592519Y-3741877D01*
X6635750Y-3741877D01*
X6638493Y-3754069D01*
X6640728Y-3767124D01*
X6644131Y-3790950D01*
X6655308Y-3803599D01*
X6685584Y-3816451D01*
X6693357Y-3819398D01*
X6699250Y-3821379D01*
X6702552Y-3822090D01*
X6706006Y-3820820D01*
X6712305Y-3817365D01*
X6720636Y-3812286D01*
X6753453Y-3790035D01*
X6766763Y-3803294D01*
X6771944Y-3808729D01*
X6776161Y-3813708D01*
X6779006Y-3817721D01*
X6780072Y-3820160D01*
X6778955Y-3823258D01*
X6776059Y-3828897D01*
X6771690Y-3836365D01*
X6752742Y-3865676D01*
X6752742Y-3873500D01*
X6753402Y-3878326D01*
X6755333Y-3885641D01*
X6758127Y-3894480D01*
X6761581Y-3903878D01*
X6770420Y-3926382D01*
X6786524Y-3931259D01*
X6799529Y-3934206D01*
X6811467Y-3936339D01*
X6821982Y-3938473D01*
X6831330Y-3941165D01*
X6831330Y-3982059D01*
X6822084Y-3984650D01*
X6788759Y-3991914D01*
X6770522Y-3996588D01*
X6749592Y-4051655D01*
X6770674Y-4085082D01*
X6775500Y-4093464D01*
X6778752Y-4099763D01*
X6780022Y-4103065D01*
X6778955Y-4105554D01*
X6776110Y-4109567D01*
X6771843Y-4114647D01*
X6766610Y-4120134D01*
X6753098Y-4133596D01*
X6704990Y-4100017D01*
X6685889Y-4106722D01*
X6670852Y-4113072D01*
X6648602Y-4123842D01*
X6644690Y-4137507D01*
X6641338Y-4152849D01*
X6636003Y-4181398D01*
X6592671Y-4181398D01*
X6584696Y-4133189D01*
X6576669Y-4122572D01*
X6532778Y-4104640D01*
X6516319Y-4104640D01*
X6477812Y-4132783D01*
X6447028Y-4101337D01*
X6435743Y-4101337D01*
X6434785Y-4103573D01*
X6436461Y-4106519D01*
X6440881Y-4111904D01*
X6447180Y-4118813D01*
X6462064Y-4133951D01*
X6468872Y-4140352D01*
X6474206Y-4144822D01*
X6477101Y-4146499D01*
X6480149Y-4145229D01*
X6486093Y-4141825D01*
X6494068Y-4136745D01*
X6526174Y-4114546D01*
X6573266Y-4134459D01*
X6582511Y-4182668D01*
X6585356Y-4195368D01*
X6646265Y-4195368D01*
X6648094Y-4189222D01*
X6650481Y-4177944D01*
X6653834Y-4159300D01*
X6657797Y-4135424D01*
X6667652Y-4129328D01*
X6672580Y-4126585D01*
X6678675Y-4123639D01*
X6685127Y-4120845D01*
X6691274Y-4118559D01*
X6704990Y-4113936D01*
X6737603Y-4136542D01*
X6745681Y-4141724D01*
X6751624Y-4145229D01*
X6754672Y-4146499D01*
X6757720Y-4144822D01*
X6763105Y-4140301D01*
X6769963Y-4133900D01*
X6777532Y-4126382D01*
X6784848Y-4118660D01*
X6791096Y-4111650D01*
X6795465Y-4106113D01*
X6797141Y-4103014D01*
X6795922Y-4099864D01*
X6792569Y-4093870D01*
X6787692Y-4085996D01*
X6766407Y-4054551D01*
X6766407Y-4048302D01*
X6767017Y-4044391D01*
X6768795Y-4038396D01*
X6771386Y-4031081D01*
X6774535Y-4023309D01*
X6782663Y-4004564D01*
X6820052Y-3998315D01*
X6836664Y-3995064D01*
X6840524Y-3994048D01*
X6845046Y-3992270D01*
X6845046Y-3930700D01*
X6839051Y-3928973D01*
X6827418Y-3926484D01*
X6782562Y-3918458D01*
X6774484Y-3899814D01*
X6771335Y-3892092D01*
X6768795Y-3884828D01*
X6767017Y-3878834D01*
X6766407Y-3874922D01*
X6766407Y-3868674D01*
X6787692Y-3837279D01*
X6792569Y-3829405D01*
X6795922Y-3823512D01*
X6797141Y-3820464D01*
X6796379Y-3818636D01*
X6794296Y-3815638D01*
X6787083Y-3807104D01*
X6777532Y-3796893D01*
X6767575Y-3787038D01*
X6759244Y-3779672D01*
X6756298Y-3777538D01*
X6754520Y-3776776D01*
X6751421Y-3778046D01*
X6745579Y-3781399D01*
X6737858Y-3786378D01*
X6720128Y-3798570D01*
X6712102Y-3803548D01*
X6705904Y-3806901D01*
X6702348Y-3808120D01*
X6698691Y-3807510D01*
X6693255Y-3805783D01*
X6686702Y-3803294D01*
X6672732Y-3797147D01*
X6666738Y-3794048D01*
X6662166Y-3791356D01*
X6659829Y-3789375D01*
X6658609Y-3786225D01*
X6657035Y-3780231D01*
X6653530Y-3763010D01*
X6650228Y-3745026D01*
X6647942Y-3734003D01*
X6646265Y-3727907D01*
G37*
G36*
X6339840Y-3783736D02*
G01*
X6324752Y-3796182D01*
X6324041Y-3821480D01*
X6333032Y-3832453D01*
X6339281Y-3828542D01*
X6334861Y-3804564D01*
X6340957Y-3797350D01*
X6342989Y-3795725D01*
X6344818Y-3794607D01*
X6346342Y-3794201D01*
X6362293Y-3794201D01*
X6365951Y-3795522D01*
X6369507Y-3798925D01*
X6372199Y-3803446D01*
X6373266Y-3808120D01*
X6372910Y-3810609D01*
X6372047Y-3813301D01*
X6370726Y-3815842D01*
X6369151Y-3817924D01*
X6367322Y-3819550D01*
X6365443Y-3820871D01*
X6363716Y-3821734D01*
X6362293Y-3822090D01*
X6359601Y-3822090D01*
X6359601Y-3794201D01*
X6349339Y-3794201D01*
X6349339Y-3832555D01*
X6372758Y-3832555D01*
X6386931Y-3814165D01*
X6386931Y-3800856D01*
X6370167Y-3783736D01*
G37*
G36*
X6236665Y-3783736D02*
G01*
X6226759Y-3799433D01*
X6226926Y-3808526D01*
X6236512Y-3808526D01*
X6236868Y-3807053D01*
X6239357Y-3802227D01*
X6245758Y-3793134D01*
X6253632Y-3798062D01*
X6253632Y-3822090D01*
X6250432Y-3822090D01*
X6246672Y-3820464D01*
X6242050Y-3816705D01*
X6238138Y-3812235D01*
X6236512Y-3808526D01*
X6226926Y-3808526D01*
X6227318Y-3832555D01*
X6274562Y-3832555D01*
X6287770Y-3825341D01*
X6287770Y-3791102D01*
X6280962Y-3786784D01*
X6274562Y-3790797D01*
X6278524Y-3815791D01*
X6273749Y-3818890D01*
X6269024Y-3821379D01*
X6266078Y-3820617D01*
X6264351Y-3815791D01*
X6262979Y-3805936D01*
X6261201Y-3789832D01*
X6256528Y-3786835D01*
X6254140Y-3785666D01*
X6251041Y-3784701D01*
X6247587Y-3784041D01*
X6244285Y-3783787D01*
G37*
G36*
X6325412Y-3846525D02*
G01*
X6325412Y-3856634D01*
X6367424Y-3858717D01*
X6374333Y-3869994D01*
X6370066Y-3881374D01*
X6325412Y-3881374D01*
X6325412Y-3895344D01*
X6370167Y-3895344D01*
X6378549Y-3886758D01*
X6383934Y-3880561D01*
X6386423Y-3875430D01*
X6386118Y-3870198D01*
X6383375Y-3863695D01*
X6379870Y-3856990D01*
X6386931Y-3856990D01*
X6386931Y-3846525D01*
G37*
G36*
X6226251Y-3846525D02*
G01*
X6226251Y-3860444D01*
X6273647Y-3860444D01*
X6278168Y-3874922D01*
X6274155Y-3878986D01*
X6277965Y-3883660D01*
X6279692Y-3885488D01*
X6281521Y-3887012D01*
X6283299Y-3887978D01*
X6284722Y-3888384D01*
X6287617Y-3888384D01*
X6287058Y-3846525D01*
G37*
G36*
X6250330Y-3887470D02*
G01*
X6229604Y-3896207D01*
X6225692Y-3912158D01*
X6232440Y-3925011D01*
X6241643Y-3925011D01*
X6241643Y-3904081D01*
X6267754Y-3901846D01*
X6272631Y-3906012D01*
X6274562Y-3907942D01*
X6276086Y-3910228D01*
X6277152Y-3912514D01*
X6277559Y-3914546D01*
X6277152Y-3916578D01*
X6276086Y-3918813D01*
X6274562Y-3921099D01*
X6272631Y-3923029D01*
X6267754Y-3927195D01*
X6241643Y-3925011D01*
X6232440Y-3925011D01*
X6233058Y-3926179D01*
X6225032Y-3928922D01*
X6229451Y-3940708D01*
X6311747Y-3940708D01*
X6311747Y-3926738D01*
X6285890Y-3926738D01*
X6288379Y-3900170D01*
X6277813Y-3891229D01*
G37*
G36*
X6332728Y-3929786D02*
G01*
X6324701Y-3945077D01*
X6324041Y-3968750D01*
X6338925Y-3983939D01*
X6357874Y-3977182D01*
X6358991Y-3965041D01*
X6359753Y-3960012D01*
X6360871Y-3955237D01*
X6362192Y-3951224D01*
X6363665Y-3948582D01*
X6367170Y-3944264D01*
X6373774Y-3948429D01*
X6371539Y-3976674D01*
X6380073Y-3979621D01*
X6383477Y-3970426D01*
X6386068Y-3961739D01*
X6386677Y-3954526D01*
X6385204Y-3947972D01*
X6381597Y-3941470D01*
X6376263Y-3933698D01*
X6360058Y-3933698D01*
X6349339Y-3944670D01*
X6349339Y-3969105D01*
X6337350Y-3966768D01*
X6335166Y-3947261D01*
X6342583Y-3938117D01*
G37*
G36*
X6285433Y-3947668D02*
G01*
X6275374Y-3950462D01*
X6226048Y-3966616D01*
X6228029Y-3977081D01*
X6252819Y-3984802D01*
X6263284Y-3988765D01*
X6265418Y-3989933D01*
X6267297Y-3991864D01*
X6225794Y-4003649D01*
X6227978Y-4015028D01*
X6287770Y-4034028D01*
X6287770Y-4021175D01*
X6267094Y-4015790D01*
X6255918Y-4012336D01*
X6245860Y-4008374D01*
X6288074Y-3995318D01*
X6285992Y-3984345D01*
X6250178Y-3974541D01*
X6250178Y-3969105D01*
X6287770Y-3960520D01*
X6287617Y-3951579D01*
X6287109Y-3949547D01*
X6286347Y-3948176D01*
G37*
G36*
X6339840Y-3989527D02*
G01*
X6325819Y-4001719D01*
X6324904Y-4008729D01*
X6324752Y-4012133D01*
X6325137Y-4017772D01*
X6335064Y-4017772D01*
X6339535Y-4003497D01*
X6354114Y-4003497D01*
X6364122Y-4003903D01*
X6369913Y-4005630D01*
X6372606Y-4009390D01*
X6373266Y-4015892D01*
X6373266Y-4023664D01*
X6367830Y-4025798D01*
X6364986Y-4026611D01*
X6361226Y-4027271D01*
X6357010Y-4027728D01*
X6343345Y-4027881D01*
X6335064Y-4017772D01*
X6325137Y-4017772D01*
X6325514Y-4020718D01*
X6328714Y-4033977D01*
X6348933Y-4042562D01*
X6376263Y-4037837D01*
X6379616Y-4033723D01*
X6381089Y-4031437D01*
X6383832Y-4024629D01*
X6384798Y-4020921D01*
X6386626Y-4012184D01*
X6380480Y-3996944D01*
X6366865Y-3989527D01*
G37*
G36*
X6239916Y-4034891D02*
G01*
X6226403Y-4048709D01*
X6226814Y-4058615D01*
X6236970Y-4058615D01*
X6240678Y-4048810D01*
X6244844Y-4048810D01*
X6248958Y-4049572D01*
X6251651Y-4052062D01*
X6253175Y-4056532D01*
X6253632Y-4063390D01*
X6253632Y-4073245D01*
X6240729Y-4073245D01*
X6236970Y-4058615D01*
X6226814Y-4058615D01*
X6227978Y-4085437D01*
X6271361Y-4087571D01*
X6287770Y-4076598D01*
X6287770Y-4045762D01*
X6280505Y-4041140D01*
X6278168Y-4043527D01*
X6277254Y-4045458D01*
X6276492Y-4048963D01*
X6276035Y-4053535D01*
X6275832Y-4058665D01*
X6275832Y-4071365D01*
X6263843Y-4073753D01*
X6263843Y-4048810D01*
X6250178Y-4034891D01*
G37*
G36*
X6336944Y-4052315D02*
G01*
X6325412Y-4061053D01*
X6325717Y-4084726D01*
X6325666Y-4101185D01*
X6386931Y-4101185D01*
X6386931Y-4090670D01*
X6348882Y-4090670D01*
X6335674Y-4083456D01*
X6335674Y-4069994D01*
X6348882Y-4062780D01*
X6386931Y-4062780D01*
X6386931Y-4052315D01*
G37*
G36*
X6226251Y-4101185D02*
G01*
X6226251Y-4111599D01*
X6269837Y-4111599D01*
X6278321Y-4122013D01*
X6273901Y-4133748D01*
X6280150Y-4137710D01*
X6283807Y-4139234D01*
X6285128Y-4139488D01*
X6287566Y-4139539D01*
X6286601Y-4101185D01*
G37*
G36*
X6325412Y-4115104D02*
G01*
X6325412Y-4128770D01*
X6371539Y-4130801D01*
X6373622Y-4152900D01*
X6383172Y-4156608D01*
X6387287Y-4143298D01*
X6380073Y-4129481D01*
X6383528Y-4127347D01*
X6385814Y-4125214D01*
X6386779Y-4122724D01*
X6386423Y-4120032D01*
X6384645Y-4117441D01*
X6382359Y-4115104D01*
G37*
G36*
X6243878Y-4142181D02*
G01*
X6226251Y-4160164D01*
X6226251Y-4167124D01*
X6227419Y-4174540D01*
X6230162Y-4182668D01*
X6233617Y-4189171D01*
X6236766Y-4191863D01*
X6239459Y-4190441D01*
X6240932Y-4186682D01*
X6240983Y-4181348D01*
X6239510Y-4175201D01*
X6236614Y-4167327D01*
X6251905Y-4151731D01*
X6251975Y-4153255D01*
X6263843Y-4153255D01*
X6277559Y-4160723D01*
X6277559Y-4166870D01*
X6277203Y-4169562D01*
X6276340Y-4172458D01*
X6275019Y-4175099D01*
X6273444Y-4177182D01*
X6269736Y-4180179D01*
X6268008Y-4181043D01*
X6266586Y-4181398D01*
X6263843Y-4181398D01*
X6263843Y-4153255D01*
X6251975Y-4153255D01*
X6253937Y-4195826D01*
X6264910Y-4193438D01*
X6269583Y-4192117D01*
X6274358Y-4190187D01*
X6278626Y-4187951D01*
X6281826Y-4185716D01*
X6287770Y-4180332D01*
X6287770Y-4154322D01*
X6277305Y-4145483D01*
G37*
G36*
X6342024Y-4156964D02*
G01*
X6329527Y-4163822D01*
X6322263Y-4185056D01*
X6324346Y-4191101D01*
X6326835Y-4196638D01*
X6329781Y-4201515D01*
X6333134Y-4205884D01*
X6342583Y-4197908D01*
X6334912Y-4188460D01*
X6339027Y-4171696D01*
X6355689Y-4167428D01*
X6374079Y-4174591D01*
X6369812Y-4201922D01*
X6376212Y-4205935D01*
X6381546Y-4198112D01*
X6385001Y-4191965D01*
X6386423Y-4186072D01*
X6385915Y-4179671D01*
X6383477Y-4172051D01*
X6380480Y-4164380D01*
X6366865Y-4156964D01*
G37*
G36*
X6356146Y-4208729D02*
G01*
X6336385Y-4213199D01*
X6331204Y-4219092D01*
X6327292Y-4225036D01*
X6325209Y-4231894D01*
X6324955Y-4239818D01*
X6326530Y-4248810D01*
X6329070Y-4258614D01*
X6337350Y-4255719D01*
X6335166Y-4233316D01*
X6341059Y-4226306D01*
X6342989Y-4224731D01*
X6344818Y-4223664D01*
X6346342Y-4223258D01*
X6364122Y-4223258D01*
X6366103Y-4223461D01*
X6368084Y-4223969D01*
X6369812Y-4224782D01*
X6371132Y-4225747D01*
X6373571Y-4228236D01*
X6371539Y-4245864D01*
X6359601Y-4248200D01*
X6359601Y-4223258D01*
X6349339Y-4223258D01*
X6349339Y-4261612D01*
X6370167Y-4261612D01*
X6386931Y-4244492D01*
X6386728Y-4238244D01*
X6385712Y-4231589D01*
X6383528Y-4224477D01*
X6380581Y-4216958D01*
G37*
G36*
X6208776Y-477875D02*
G01*
X6208776Y-777900D01*
X6265926Y-777900D01*
X6265926Y-577900D01*
X6294526Y-577900D01*
X6294526Y-606450D01*
X6380226Y-606450D01*
X6380226Y-635050D01*
X6437376Y-635050D01*
X6437376Y-663600D01*
X6465925Y-663600D01*
X6465925Y-692150D01*
X6494526Y-692150D01*
X6494526Y-663600D01*
X6523075Y-663600D01*
X6523075Y-720750D01*
X6408775Y-720750D01*
X6408775Y-749300D01*
X6380226Y-749300D01*
X6380226Y-777900D01*
X6351625Y-777900D01*
X6351625Y-806450D01*
X6180226Y-806450D01*
X6180226Y-835050D01*
X6151626Y-835050D01*
X6151626Y-977900D01*
X6237376Y-977900D01*
X6237376Y-1006449D01*
X6208776Y-1006449D01*
X6208776Y-1035050D01*
X6237376Y-1035050D01*
X6237376Y-1006449D01*
X6351625Y-1006449D01*
X6351625Y-949299D01*
X6580225Y-949299D01*
X6580225Y-892149D01*
X6608775Y-892149D01*
X6608775Y-863600D01*
X6637375Y-863600D01*
X6637375Y-806450D01*
X6665925Y-806450D01*
X6665925Y-777900D01*
X6694525Y-777900D01*
X6694525Y-835050D01*
X6780225Y-835050D01*
X6780225Y-863600D01*
X6808774Y-863600D01*
X6808774Y-892149D01*
X6780225Y-892149D01*
X6780225Y-920750D01*
X6723075Y-920750D01*
X6723075Y-977900D01*
X6751624Y-977900D01*
X6751624Y-1006449D01*
X6723075Y-1006449D01*
X6723075Y-977900D01*
X6665925Y-977900D01*
X6665925Y-949299D01*
X6408775Y-949299D01*
X6408775Y-1006449D01*
X6494526Y-1006449D01*
X6494526Y-1035050D01*
X6523075Y-1035050D01*
X6523075Y-1063599D01*
X6465925Y-1063599D01*
X6465925Y-1092149D01*
X6437376Y-1092149D01*
X6437376Y-1120749D01*
X6380226Y-1120749D01*
X6380226Y-1149299D01*
X6323076Y-1149299D01*
X6323076Y-1177899D01*
X6294526Y-1177899D01*
X6294526Y-1206449D01*
X6265926Y-1206449D01*
X6265926Y-1035050D01*
X6208776Y-1035050D01*
X6208776Y-1277874D01*
X6265926Y-1277874D01*
X6265926Y-1263599D01*
X6323076Y-1263599D01*
X6323076Y-1235049D01*
X6380226Y-1235049D01*
X6380226Y-1206449D01*
X6408775Y-1206449D01*
X6408775Y-1177899D01*
X6465925Y-1177899D01*
X6465925Y-1149299D01*
X6523075Y-1149299D01*
X6523075Y-1120749D01*
X6580225Y-1120749D01*
X6580225Y-1092149D01*
X6523075Y-1092149D01*
X6523075Y-1063599D01*
X6665925Y-1063599D01*
X6665925Y-1092149D01*
X6694525Y-1092149D01*
X6694525Y-1120749D01*
X6723075Y-1120749D01*
X6723075Y-1149299D01*
X6780225Y-1149299D01*
X6780225Y-1063599D01*
X6751624Y-1063599D01*
X6751624Y-1006449D01*
X6780225Y-1006449D01*
X6780225Y-977900D01*
X6808774Y-977900D01*
X6808774Y-949299D01*
X6865924Y-949299D01*
X6865924Y-920750D01*
X6894525Y-920750D01*
X6894525Y-892149D01*
X6923074Y-892149D01*
X6923074Y-863600D01*
X6894525Y-863600D01*
X6894525Y-835050D01*
X6865924Y-835050D01*
X6865924Y-806450D01*
X6808774Y-806450D01*
X6808774Y-777900D01*
X6694525Y-777900D01*
X6694525Y-749300D01*
X6780225Y-749300D01*
X6780225Y-663600D01*
X6751624Y-663600D01*
X6751624Y-635050D01*
X6694525Y-635050D01*
X6694525Y-606450D01*
X6608775Y-606450D01*
X6608775Y-635050D01*
X6551625Y-635050D01*
X6551625Y-663600D01*
X6523075Y-663600D01*
X6523075Y-635050D01*
X6494526Y-635050D01*
X6494526Y-606450D01*
X6465925Y-606450D01*
X6465925Y-577900D01*
X6408775Y-577900D01*
X6408775Y-549300D01*
X6351625Y-549300D01*
X6351625Y-520750D01*
X6323076Y-520750D01*
X6323076Y-492150D01*
X6265926Y-492150D01*
X6265926Y-477875D01*
G37*
G36*
X1107541Y-244856D02*
G01*
X957681Y-245059D01*
X905916Y-245414D01*
X873048Y-245922D01*
X854608Y-246735D01*
X849376Y-247294D01*
X846074Y-247904D01*
X844092Y-248615D01*
X842568Y-249682D01*
X838352Y-254762D01*
X835710Y-260400D01*
X834593Y-266090D01*
X835456Y-271526D01*
X844750Y-288493D01*
X894181Y-288493D01*
X1129487Y-287680D01*
X1356461Y-287680D01*
X1574495Y-288493D01*
X1321866Y-724204D01*
X1240028Y-865784D01*
X1235049Y-873760D01*
X1234135Y-874725D01*
X894181Y-288493D01*
X844750Y-288493D01*
X883158Y-355904D01*
X944829Y-462991D01*
X1032611Y-614578D01*
X1119479Y-764032D01*
X1179068Y-865886D01*
X1215085Y-926592D01*
X1220927Y-935837D01*
X1226566Y-940053D01*
X1232255Y-942136D01*
X1238199Y-942035D01*
X1244600Y-939800D01*
X1247394Y-936802D01*
X1252423Y-929640D01*
X1259484Y-918768D01*
X1268222Y-904646D01*
X1289710Y-868324D01*
X1473708Y-549656D01*
X1583334Y-359257D01*
X1632305Y-273558D01*
X1633778Y-267665D01*
X1633220Y-261366D01*
X1630883Y-255219D01*
X1626107Y-249123D01*
X1624228Y-248158D01*
X1620672Y-247396D01*
X1615846Y-246837D01*
X1598574Y-246024D01*
X1567484Y-245465D01*
X1518158Y-245110D01*
G37*
G36*
X1235303Y-300583D02*
G01*
X1229817Y-301498D01*
X1224483Y-303834D01*
X1219352Y-307695D01*
X1214628Y-312978D01*
X1213053Y-315315D01*
X1211834Y-317754D01*
X1210970Y-320598D01*
X1210310Y-324205D01*
X1209751Y-335076D01*
X1209852Y-353009D01*
X1210310Y-369316D01*
X1211376Y-383387D01*
X1213053Y-396036D01*
X1215440Y-407822D01*
X1219403Y-425551D01*
X1220063Y-430276D01*
X1220419Y-434746D01*
X1220368Y-439013D01*
X1219809Y-443230D01*
X1218793Y-447598D01*
X1217218Y-452170D01*
X1215034Y-457200D01*
X1212240Y-462788D01*
X1204620Y-476148D01*
X1183182Y-510895D01*
X1167384Y-537057D01*
X1153769Y-560527D01*
X1142746Y-580644D01*
X1134719Y-596747D01*
X1131925Y-603046D01*
X1128572Y-612698D01*
X1126998Y-619506D01*
X1126083Y-625957D01*
X1125880Y-632002D01*
X1126388Y-637540D01*
X1127607Y-642416D01*
X1129487Y-646582D01*
X1132078Y-649986D01*
X1136142Y-653135D01*
X1140714Y-655116D01*
X1145692Y-655929D01*
X1150874Y-655624D01*
X1156055Y-654253D01*
X1161084Y-651764D01*
X1165860Y-648258D01*
X1170127Y-643737D01*
X1171752Y-641248D01*
X1173276Y-638098D01*
X1174750Y-634187D01*
X1177442Y-623976D01*
X1179880Y-610514D01*
X1181811Y-597052D01*
X1183944Y-585368D01*
X1186738Y-572770D01*
X1190142Y-559562D01*
X1194155Y-545846D01*
X1198575Y-531977D01*
X1203452Y-518109D01*
X1208633Y-504545D01*
X1216355Y-486105D01*
X1223975Y-469036D01*
X1225702Y-465886D01*
X1226515Y-465835D01*
X1227480Y-467207D01*
X1228394Y-469798D01*
X1232458Y-489000D01*
X1239367Y-517702D01*
X1247444Y-548335D01*
X1251254Y-561949D01*
X1254658Y-573176D01*
X1258214Y-583641D01*
X1262938Y-595833D01*
X1268069Y-607720D01*
X1273302Y-618642D01*
X1278382Y-628040D01*
X1283004Y-635254D01*
X1285036Y-637844D01*
X1291996Y-644448D01*
X1300327Y-650290D01*
X1308557Y-654456D01*
X1315059Y-655980D01*
X1318310Y-655574D01*
X1322324Y-654507D01*
X1326642Y-652932D01*
X1330655Y-651052D01*
X1335582Y-647903D01*
X1339799Y-643890D01*
X1343406Y-638962D01*
X1346301Y-633018D01*
X1348638Y-626059D01*
X1350416Y-617982D01*
X1351635Y-608685D01*
X1352296Y-598119D01*
X1352753Y-584657D01*
X1352448Y-577392D01*
X1351076Y-574395D01*
X1348333Y-573836D01*
X1345895Y-574294D01*
X1344117Y-575919D01*
X1342796Y-579069D01*
X1341780Y-583996D01*
X1339088Y-592632D01*
X1334312Y-599694D01*
X1328166Y-604469D01*
X1321358Y-606247D01*
X1317650Y-605840D01*
X1313738Y-604723D01*
X1309674Y-602843D01*
X1305560Y-600303D01*
X1301394Y-597154D01*
X1297330Y-593394D01*
X1293368Y-589127D01*
X1289558Y-584301D01*
X1283766Y-575665D01*
X1277721Y-565404D01*
X1271625Y-553821D01*
X1265580Y-541274D01*
X1259687Y-528167D01*
X1254150Y-514756D01*
X1249070Y-501446D01*
X1244600Y-488645D01*
X1240891Y-476605D01*
X1238046Y-465683D01*
X1236218Y-456336D01*
X1235760Y-452323D01*
X1235608Y-448818D01*
X1236319Y-443839D01*
X1238199Y-436321D01*
X1240993Y-427431D01*
X1247140Y-410972D01*
X1251762Y-397459D01*
X1255318Y-384606D01*
X1257960Y-372160D01*
X1259636Y-359867D01*
X1260144Y-353669D01*
X1260500Y-341020D01*
X1260297Y-330149D01*
X1259484Y-322630D01*
X1257757Y-317042D01*
X1254861Y-311962D01*
X1250594Y-306882D01*
X1245819Y-303326D01*
X1240688Y-301193D01*
G37*
D42*
X202430Y-3759192D02*
G01*
X107180Y-3759192D01*
X202430Y-3759192D02*
G01*
X202430Y-3800086D01*
X197858Y-3813802D01*
X193540Y-3818374D01*
X184396Y-3822946D01*
X175252Y-3822946D01*
X166108Y-3818374D01*
X161536Y-3813802D01*
X156964Y-3800086D01*
X156964Y-3759192D01*
X156964Y-3790942D02*
G01*
X107180Y-3822946D01*
X143502Y-3852918D02*
G01*
X143502Y-3907274D01*
X152392Y-3907274D01*
X161536Y-3902702D01*
X166108Y-3898384D01*
X170680Y-3889240D01*
X170680Y-3875524D01*
X166108Y-3866380D01*
X156964Y-3857490D01*
X143502Y-3852918D01*
X134358Y-3852918D01*
X120642Y-3857490D01*
X111498Y-3866380D01*
X107180Y-3875524D01*
X107180Y-3889240D01*
X111498Y-3898384D01*
X120642Y-3907274D01*
X170680Y-3937500D02*
G01*
X107180Y-3964678D01*
X170680Y-3991856D02*
G01*
X107180Y-3964678D01*
X129786Y-4026400D02*
G01*
X125214Y-4021828D01*
X120642Y-4026400D01*
X125214Y-4030972D01*
X129786Y-4026400D01*
X179824Y-4065516D02*
G01*
X184396Y-4065516D01*
X193540Y-4070088D01*
X197858Y-4074660D01*
X202430Y-4083804D01*
X202430Y-4101838D01*
X197858Y-4110982D01*
X193540Y-4115554D01*
X184396Y-4120126D01*
X175252Y-4120126D01*
X166108Y-4115554D01*
X152392Y-4106410D01*
X107180Y-4060944D01*
X107180Y-4124698D01*
X129786Y-4159242D02*
G01*
X125214Y-4154670D01*
X120642Y-4159242D01*
X125214Y-4163814D01*
X129786Y-4159242D01*
X202430Y-4220964D02*
G01*
X197858Y-4207248D01*
X184396Y-4198358D01*
X161536Y-4193786D01*
X148074Y-4193786D01*
X125214Y-4198358D01*
X111498Y-4207248D01*
X107180Y-4220964D01*
X107180Y-4230108D01*
X111498Y-4243824D01*
X125214Y-4252714D01*
X148074Y-4257286D01*
X161536Y-4257286D01*
X184396Y-4252714D01*
X197858Y-4243824D01*
X202430Y-4230108D01*
X202430Y-4220964D01*
D14*
X562610Y-3709670D02*
G01*
X544321Y-3718813D01*
X526287Y-3737102D01*
X517144Y-3755136D01*
X508000Y-3782568D01*
X508000Y-3828034D01*
X517144Y-3855212D01*
X526287Y-3873500D01*
X544321Y-3891534D01*
X562610Y-3900678D01*
X598931Y-3900678D01*
X616965Y-3891534D01*
X635254Y-3873500D01*
X644397Y-3855212D01*
X653542Y-3828034D01*
X653542Y-3782568D01*
X644397Y-3755136D01*
X635254Y-3737102D01*
X616965Y-3718813D01*
X598931Y-3709670D01*
X562610Y-3709670D01*
X713486Y-3773423D02*
G01*
X713486Y-3964431D01*
X713486Y-3800602D02*
G01*
X731520Y-3782568D01*
X749807Y-3773423D01*
X776986Y-3773423D01*
X795273Y-3782568D01*
X813562Y-3800602D01*
X822452Y-3828034D01*
X822452Y-3846068D01*
X813562Y-3873500D01*
X795273Y-3891534D01*
X776986Y-3900678D01*
X749807Y-3900678D01*
X731520Y-3891534D01*
X713486Y-3873500D01*
X882650Y-3828034D02*
G01*
X991615Y-3828034D01*
X991615Y-3809745D01*
X982471Y-3791712D01*
X973328Y-3782568D01*
X955294Y-3773423D01*
X928115Y-3773423D01*
X909828Y-3782568D01*
X891539Y-3800602D01*
X882650Y-3828034D01*
X882650Y-3846068D01*
X891539Y-3873500D01*
X909828Y-3891534D01*
X928115Y-3900678D01*
X955294Y-3900678D01*
X973328Y-3891534D01*
X991615Y-3873500D01*
X1051560Y-3773423D02*
G01*
X1051560Y-3900678D01*
X1051560Y-3809745D02*
G01*
X1078992Y-3782568D01*
X1097026Y-3773423D01*
X1124457Y-3773423D01*
X1142492Y-3782568D01*
X1151636Y-3809745D01*
X1151636Y-3900678D01*
X1487931Y-3755136D02*
G01*
X1478787Y-3737102D01*
X1460754Y-3718813D01*
X1442465Y-3709670D01*
X1406144Y-3709670D01*
X1388110Y-3718813D01*
X1369821Y-3737102D01*
X1360678Y-3755136D01*
X1351534Y-3782568D01*
X1351534Y-3828034D01*
X1360678Y-3855212D01*
X1369821Y-3873500D01*
X1388110Y-3891534D01*
X1406144Y-3900678D01*
X1442465Y-3900678D01*
X1460754Y-3891534D01*
X1478787Y-3873500D01*
X1487931Y-3855212D01*
X1487931Y-3828034D01*
X1442465Y-3828034D02*
G01*
X1487931Y-3828034D01*
X1657095Y-3773423D02*
G01*
X1657095Y-3900678D01*
X1657095Y-3800602D02*
G01*
X1638807Y-3782568D01*
X1620773Y-3773423D01*
X1593342Y-3773423D01*
X1575307Y-3782568D01*
X1557020Y-3800602D01*
X1547876Y-3828034D01*
X1547876Y-3846068D01*
X1557020Y-3873500D01*
X1575307Y-3891534D01*
X1593342Y-3900678D01*
X1620773Y-3900678D01*
X1638807Y-3891534D01*
X1657095Y-3873500D01*
X1717039Y-3773423D02*
G01*
X1717039Y-3900678D01*
X1717039Y-3809745D02*
G01*
X1744471Y-3782568D01*
X1762505Y-3773423D01*
X1789937Y-3773423D01*
X1807971Y-3782568D01*
X1817115Y-3809745D01*
X1817115Y-3900678D01*
X1817115Y-3809745D02*
G01*
X1844294Y-3782568D01*
X1862581Y-3773423D01*
X1889760Y-3773423D01*
X1908047Y-3782568D01*
X1917192Y-3809745D01*
X1917192Y-3900678D01*
X1977136Y-3773423D02*
G01*
X1977136Y-3900678D01*
X1977136Y-3809745D02*
G01*
X2004313Y-3782568D01*
X2022602Y-3773423D01*
X2049779Y-3773423D01*
X2068068Y-3782568D01*
X2077211Y-3809745D01*
X2077211Y-3900678D01*
X2077211Y-3809745D02*
G01*
X2104390Y-3782568D01*
X2122424Y-3773423D01*
X2149856Y-3773423D01*
X2167890Y-3782568D01*
X2177034Y-3809745D01*
X2177034Y-3900678D01*
X2346197Y-3773423D02*
G01*
X2346197Y-3900678D01*
X2346197Y-3800602D02*
G01*
X2327909Y-3782568D01*
X2309875Y-3773423D01*
X2282443Y-3773423D01*
X2264409Y-3782568D01*
X2246122Y-3800602D01*
X2236977Y-3828034D01*
X2236977Y-3846068D01*
X2246122Y-3873500D01*
X2264409Y-3891534D01*
X2282443Y-3900678D01*
X2309875Y-3900678D01*
X2327909Y-3891534D01*
X2346197Y-3873500D01*
D39*
X2026150Y-4430262D02*
G01*
X2034278Y-4425944D01*
X2042406Y-4417816D01*
X2046724Y-4409688D01*
X2046724Y-4393432D01*
X2042406Y-4385050D01*
X2034278Y-4376922D01*
X2026150Y-4372858D01*
X2013958Y-4368794D01*
X1993384Y-4368794D01*
X1981192Y-4372858D01*
X1973064Y-4376922D01*
X1964682Y-4385050D01*
X1960618Y-4393432D01*
X1960618Y-4409688D01*
X1964682Y-4417816D01*
X1973064Y-4425944D01*
X1981192Y-4430262D01*
X1993384Y-4430262D01*
X1993384Y-4409688D02*
G01*
X1993384Y-4430262D01*
X2046724Y-4457186D02*
G01*
X1960618Y-4457186D01*
X2046724Y-4457186D02*
G01*
X1960618Y-4514336D01*
X2046724Y-4514336D02*
G01*
X1960618Y-4514336D01*
X2046724Y-4541514D02*
G01*
X1960618Y-4541514D01*
X2046724Y-4541514D02*
G01*
X2046724Y-4569962D01*
X2042406Y-4582408D01*
X2034278Y-4590536D01*
X2026150Y-4594600D01*
X2013958Y-4598664D01*
X1993384Y-4598664D01*
X1981192Y-4594600D01*
X1973064Y-4590536D01*
X1964682Y-4582408D01*
X1960618Y-4569962D01*
X1960618Y-4541514D01*
X1780275Y-4425944D02*
G01*
X1788403Y-4417816D01*
X1792721Y-4405624D01*
X1792721Y-4389368D01*
X1788403Y-4376922D01*
X1780275Y-4368794D01*
X1772147Y-4368794D01*
X1764019Y-4372858D01*
X1759955Y-4376922D01*
X1755891Y-4385050D01*
X1747509Y-4409688D01*
X1743445Y-4417816D01*
X1739381Y-4421880D01*
X1731253Y-4425944D01*
X1719061Y-4425944D01*
X1710679Y-4417816D01*
X1706615Y-4405624D01*
X1706615Y-4389368D01*
X1710679Y-4376922D01*
X1719061Y-4368794D01*
X1772147Y-4514336D02*
G01*
X1780275Y-4510272D01*
X1788403Y-4502144D01*
X1792721Y-4494016D01*
X1792721Y-4477506D01*
X1788403Y-4469378D01*
X1780275Y-4461250D01*
X1772147Y-4457186D01*
X1759955Y-4453122D01*
X1739381Y-4453122D01*
X1727189Y-4457186D01*
X1719061Y-4461250D01*
X1710679Y-4469378D01*
X1706615Y-4477506D01*
X1706615Y-4494016D01*
X1710679Y-4502144D01*
X1719061Y-4510272D01*
X1727189Y-4514336D01*
X1792721Y-4541514D02*
G01*
X1706615Y-4541514D01*
X1706615Y-4541514D02*
G01*
X1706615Y-4590536D01*
X1526275Y-4425944D02*
G01*
X1534403Y-4417816D01*
X1538721Y-4405624D01*
X1538721Y-4389368D01*
X1534403Y-4376922D01*
X1526275Y-4368794D01*
X1518147Y-4368794D01*
X1510019Y-4372858D01*
X1505955Y-4376922D01*
X1501891Y-4385050D01*
X1493509Y-4409688D01*
X1489445Y-4417816D01*
X1485381Y-4421880D01*
X1477253Y-4425944D01*
X1465061Y-4425944D01*
X1456679Y-4417816D01*
X1452615Y-4405624D01*
X1452615Y-4389368D01*
X1456679Y-4376922D01*
X1465061Y-4368794D01*
X1538721Y-4453122D02*
G01*
X1452615Y-4453122D01*
X1538721Y-4453122D02*
G01*
X1538721Y-4481824D01*
X1534403Y-4494016D01*
X1526275Y-4502144D01*
X1518147Y-4506208D01*
X1505955Y-4510272D01*
X1485381Y-4510272D01*
X1473189Y-4506208D01*
X1465061Y-4502144D01*
X1456679Y-4494016D01*
X1452615Y-4481824D01*
X1452615Y-4453122D01*
X1538721Y-4569962D02*
G01*
X1452615Y-4537450D01*
X1538721Y-4569962D02*
G01*
X1452615Y-4602728D01*
X1481317Y-4549642D02*
G01*
X1481317Y-4590536D01*
X1284721Y-4376922D02*
G01*
X1284721Y-4421880D01*
X1251955Y-4397496D01*
X1251955Y-4409688D01*
X1247891Y-4417816D01*
X1243827Y-4421880D01*
X1231381Y-4425944D01*
X1223253Y-4425944D01*
X1211061Y-4421880D01*
X1202679Y-4413752D01*
X1198615Y-4401560D01*
X1198615Y-4389368D01*
X1202679Y-4376922D01*
X1206997Y-4372858D01*
X1215125Y-4368794D01*
X1284721Y-4453122D02*
G01*
X1198615Y-4485888D01*
X1284721Y-4518400D02*
G01*
X1198615Y-4485888D01*
X1284721Y-4553706D02*
G01*
X1284721Y-4598664D01*
X1251955Y-4574280D01*
X1251955Y-4586472D01*
X1247891Y-4594600D01*
X1243827Y-4598664D01*
X1231381Y-4602728D01*
X1223253Y-4602728D01*
X1211061Y-4598664D01*
X1202679Y-4590536D01*
X1198615Y-4578344D01*
X1198615Y-4565898D01*
X1202679Y-4553706D01*
X1206997Y-4549642D01*
X1215125Y-4545578D01*
X6533629Y-2427719D02*
G01*
X6525501Y-2432037D01*
X6517373Y-2440165D01*
X6513055Y-2448293D01*
X6513055Y-2464549D01*
X6517373Y-2472931D01*
X6525501Y-2481059D01*
X6533629Y-2485123D01*
X6545821Y-2489187D01*
X6566395Y-2489187D01*
X6578587Y-2485123D01*
X6586715Y-2481059D01*
X6595097Y-2472931D01*
X6599161Y-2464549D01*
X6599161Y-2448293D01*
X6595097Y-2440165D01*
X6586715Y-2432037D01*
X6578587Y-2427719D01*
X6566395Y-2427719D01*
X6566395Y-2448293D02*
G01*
X6566395Y-2427719D01*
X6513055Y-2400795D02*
G01*
X6599161Y-2400795D01*
X6513055Y-2400795D02*
G01*
X6599161Y-2343645D01*
X6513055Y-2343645D02*
G01*
X6599161Y-2343645D01*
X6513055Y-2316467D02*
G01*
X6599161Y-2316467D01*
X6513055Y-2316467D02*
G01*
X6513055Y-2288019D01*
X6517373Y-2275573D01*
X6525501Y-2267445D01*
X6533629Y-2263381D01*
X6545821Y-2259317D01*
X6566395Y-2259317D01*
X6578587Y-2263381D01*
X6586715Y-2267445D01*
X6595097Y-2275573D01*
X6599161Y-2288019D01*
X6599161Y-2316467D01*
X6533629Y-2707116D02*
G01*
X6525501Y-2711434D01*
X6517373Y-2719562D01*
X6513055Y-2727690D01*
X6513055Y-2743946D01*
X6517373Y-2752328D01*
X6525501Y-2760456D01*
X6533629Y-2764520D01*
X6545821Y-2768584D01*
X6566395Y-2768584D01*
X6578587Y-2764520D01*
X6586715Y-2760456D01*
X6595097Y-2752328D01*
X6599161Y-2743946D01*
X6599161Y-2727690D01*
X6595097Y-2719562D01*
X6586715Y-2711434D01*
X6578587Y-2707116D01*
X6566395Y-2707116D01*
X6566395Y-2727690D02*
G01*
X6566395Y-2707116D01*
X6513055Y-2680192D02*
G01*
X6599161Y-2680192D01*
X6513055Y-2680192D02*
G01*
X6599161Y-2623042D01*
X6513055Y-2623042D02*
G01*
X6599161Y-2623042D01*
X6513055Y-2595864D02*
G01*
X6599161Y-2595864D01*
X6513055Y-2595864D02*
G01*
X6513055Y-2567416D01*
X6517373Y-2554970D01*
X6525501Y-2546842D01*
X6533629Y-2542778D01*
X6545821Y-2538714D01*
X6566395Y-2538714D01*
X6578587Y-2542778D01*
X6586715Y-2546842D01*
X6595097Y-2554970D01*
X6599161Y-2567416D01*
X6599161Y-2595864D01*
X6513057Y-3073369D02*
G01*
X6599163Y-3073369D01*
X6513057Y-3073369D02*
G01*
X6513057Y-3036539D01*
X6517375Y-3024347D01*
X6521439Y-3020283D01*
X6529567Y-3016219D01*
X6541759Y-3016219D01*
X6549887Y-3020283D01*
X6553951Y-3024347D01*
X6558269Y-3036539D01*
X6558269Y-3073369D01*
X6513057Y-2989041D02*
G01*
X6599163Y-2968721D01*
X6513057Y-2948147D02*
G01*
X6599163Y-2968721D01*
X6513057Y-2948147D02*
G01*
X6599163Y-2927827D01*
X6513057Y-2907253D02*
G01*
X6599163Y-2927827D01*
X6513057Y-2880329D02*
G01*
X6599163Y-2880329D01*
X6513057Y-2880329D02*
G01*
X6513057Y-2843499D01*
X6517375Y-2831307D01*
X6521439Y-2826989D01*
X6529567Y-2822925D01*
X6537695Y-2822925D01*
X6545823Y-2826989D01*
X6549887Y-2831307D01*
X6553951Y-2843499D01*
X6553951Y-2880329D01*
X6553951Y-2851627D02*
G01*
X6599163Y-2822925D01*
X6525503Y-2127219D02*
G01*
X6517375Y-2135347D01*
X6513057Y-2147539D01*
X6513057Y-2164049D01*
X6517375Y-2176241D01*
X6525503Y-2184369D01*
X6533631Y-2184369D01*
X6541759Y-2180305D01*
X6545823Y-2176241D01*
X6549887Y-2168113D01*
X6558269Y-2143475D01*
X6562333Y-2135347D01*
X6566397Y-2131283D01*
X6574525Y-2127219D01*
X6586717Y-2127219D01*
X6595099Y-2135347D01*
X6599163Y-2147539D01*
X6599163Y-2164049D01*
X6595099Y-2176241D01*
X6586717Y-2184369D01*
X6513057Y-2100041D02*
G01*
X6599163Y-2100041D01*
X6533631Y-2011649D02*
G01*
X6525503Y-2015967D01*
X6517375Y-2024095D01*
X6513057Y-2032223D01*
X6513057Y-2048479D01*
X6517375Y-2056861D01*
X6525503Y-2064989D01*
X6533631Y-2069053D01*
X6545823Y-2073117D01*
X6566397Y-2073117D01*
X6578589Y-2069053D01*
X6586717Y-2064989D01*
X6595099Y-2056861D01*
X6599163Y-2048479D01*
X6599163Y-2032223D01*
X6595099Y-2024095D01*
X6586717Y-2015967D01*
X6578589Y-2011649D01*
X6566397Y-2011649D01*
X6566397Y-2032223D02*
G01*
X6566397Y-2011649D01*
D43*
X4485134Y-4315713D02*
G01*
X4419602Y-4352544D01*
X4485134Y-4389373D01*
X4632200Y-4315713D02*
G01*
X4624072Y-4307586D01*
X4611880Y-4303268D01*
X4595624Y-4303268D01*
X4583178Y-4307586D01*
X4575050Y-4315713D01*
X4575050Y-4323842D01*
X4579114Y-4331970D01*
X4583178Y-4336034D01*
X4591306Y-4340097D01*
X4615944Y-4348479D01*
X4624072Y-4352544D01*
X4628136Y-4356607D01*
X4632200Y-4364736D01*
X4632200Y-4376928D01*
X4624072Y-4385310D01*
X4611880Y-4389373D01*
X4595624Y-4389373D01*
X4583178Y-4385310D01*
X4575050Y-4376928D01*
X4659378Y-4303268D02*
G01*
X4663442Y-4307586D01*
X4667506Y-4303268D01*
X4663442Y-4299204D01*
X4659378Y-4303268D01*
X4663442Y-4331970D02*
G01*
X4663442Y-4389373D01*
X4694430Y-4303268D02*
G01*
X4694430Y-4389373D01*
X4694430Y-4303268D02*
G01*
X4731260Y-4303268D01*
X4743706Y-4307586D01*
X4747770Y-4311650D01*
X4751834Y-4319778D01*
X4751834Y-4331970D01*
X4747770Y-4340097D01*
X4743706Y-4344162D01*
X4731260Y-4348479D01*
X4694430Y-4348479D01*
X4778758Y-4303268D02*
G01*
X4778758Y-4389373D01*
X4778758Y-4303268D02*
G01*
X4811524Y-4389373D01*
X4844290Y-4303268D02*
G01*
X4811524Y-4389373D01*
X4844290Y-4303268D02*
G01*
X4844290Y-4389373D01*
X4934206Y-4303268D02*
G01*
X4966972Y-4389373D01*
X4999738Y-4303268D02*
G01*
X4966972Y-4389373D01*
X5051300Y-4303268D02*
G01*
X5043172Y-4307586D01*
X5034790Y-4315713D01*
X5030726Y-4323842D01*
X5026662Y-4336034D01*
X5026662Y-4356607D01*
X5030726Y-4368800D01*
X5034790Y-4376928D01*
X5043172Y-4385310D01*
X5051300Y-4389373D01*
X5067556Y-4389373D01*
X5075684Y-4385310D01*
X5084066Y-4376928D01*
X5088130Y-4368800D01*
X5092194Y-4356607D01*
X5092194Y-4336034D01*
X5088130Y-4323842D01*
X5084066Y-4315713D01*
X5075684Y-4307586D01*
X5067556Y-4303268D01*
X5051300Y-4303268D01*
X5119118Y-4303268D02*
G01*
X5119118Y-4389373D01*
X5119118Y-4389373D02*
G01*
X5168140Y-4389373D01*
X5223766Y-4303268D02*
G01*
X5223766Y-4389373D01*
X5195318Y-4303268D02*
G01*
X5252468Y-4303268D01*
X5312158Y-4303268D02*
G01*
X5279392Y-4389373D01*
X5312158Y-4303268D02*
G01*
X5344924Y-4389373D01*
X5291838Y-4360671D02*
G01*
X5332732Y-4360671D01*
X5433316Y-4323842D02*
G01*
X5429252Y-4315713D01*
X5421124Y-4307586D01*
X5412742Y-4303268D01*
X5396486Y-4303268D01*
X5388358Y-4307586D01*
X5380230Y-4315713D01*
X5376166Y-4323842D01*
X5371848Y-4336034D01*
X5371848Y-4356607D01*
X5376166Y-4368800D01*
X5380230Y-4376928D01*
X5388358Y-4385310D01*
X5396486Y-4389373D01*
X5412742Y-4389373D01*
X5421124Y-4385310D01*
X5429252Y-4376928D01*
X5433316Y-4368800D01*
X5433316Y-4356607D01*
X5412742Y-4356607D02*
G01*
X5433316Y-4356607D01*
X5460240Y-4303268D02*
G01*
X5460240Y-4389373D01*
X5460240Y-4303268D02*
G01*
X5513580Y-4303268D01*
X5460240Y-4344162D02*
G01*
X5493006Y-4344162D01*
X5460240Y-4389373D02*
G01*
X5513580Y-4389373D01*
X5603496Y-4315713D02*
G01*
X5669028Y-4352544D01*
X5603496Y-4389373D01*
X4612131Y-658111D02*
G01*
X4546600Y-694941D01*
X4612131Y-731771D01*
X4763515Y-666239D02*
G01*
X4759197Y-658111D01*
X4751070Y-649983D01*
X4742941Y-645665D01*
X4726686Y-645665D01*
X4718304Y-649983D01*
X4710175Y-658111D01*
X4706111Y-666239D01*
X4702047Y-678431D01*
X4702047Y-699005D01*
X4706111Y-711197D01*
X4710175Y-719325D01*
X4718304Y-727707D01*
X4726686Y-731771D01*
X4742941Y-731771D01*
X4751070Y-727707D01*
X4759197Y-719325D01*
X4763515Y-711197D01*
X4763515Y-699005D01*
X4742941Y-699005D02*
G01*
X4763515Y-699005D01*
X4886197Y-645665D02*
G01*
X4853431Y-731771D01*
X4886197Y-645665D02*
G01*
X4918963Y-731771D01*
X4865624Y-703069D02*
G01*
X4906518Y-703069D01*
X5008879Y-645665D02*
G01*
X5008879Y-731771D01*
X5098795Y-645665D02*
G01*
X5098795Y-731771D01*
X5098795Y-645665D02*
G01*
X5156200Y-731771D01*
X5156200Y-645665D02*
G01*
X5156200Y-731771D01*
X5246115Y-658111D02*
G01*
X5311647Y-694941D01*
X5246115Y-731771D01*
X5399531Y-3172713D02*
G01*
X5334000Y-3209544D01*
X5399531Y-3246373D01*
X5518150Y-3160268D02*
G01*
X5518150Y-3246373D01*
X5489447Y-3160268D02*
G01*
X5546597Y-3160268D01*
X5573775Y-3160268D02*
G01*
X5573775Y-3246373D01*
X5630925Y-3160268D02*
G01*
X5630925Y-3246373D01*
X5573775Y-3201162D02*
G01*
X5630925Y-3201162D01*
X5658104Y-3160268D02*
G01*
X5658104Y-3246373D01*
X5658104Y-3160268D02*
G01*
X5694934Y-3160268D01*
X5707125Y-3164586D01*
X5711190Y-3168650D01*
X5715254Y-3176778D01*
X5715254Y-3184905D01*
X5711190Y-3193034D01*
X5707125Y-3197097D01*
X5694934Y-3201162D01*
X5658104Y-3201162D01*
X5686552Y-3201162D02*
G01*
X5715254Y-3246373D01*
X5742177Y-3160268D02*
G01*
X5742177Y-3246373D01*
X5742177Y-3160268D02*
G01*
X5795518Y-3160268D01*
X5742177Y-3201162D02*
G01*
X5774943Y-3201162D01*
X5742177Y-3246373D02*
G01*
X5795518Y-3246373D01*
X5879591Y-3172713D02*
G01*
X5871463Y-3164586D01*
X5859272Y-3160268D01*
X5843015Y-3160268D01*
X5830570Y-3164586D01*
X5822441Y-3172713D01*
X5822441Y-3180842D01*
X5826506Y-3188970D01*
X5830570Y-3193034D01*
X5838697Y-3197097D01*
X5863336Y-3205479D01*
X5871463Y-3209544D01*
X5875527Y-3213607D01*
X5879591Y-3221736D01*
X5879591Y-3233928D01*
X5871463Y-3242310D01*
X5859272Y-3246373D01*
X5843015Y-3246373D01*
X5830570Y-3242310D01*
X5822441Y-3233928D01*
X5906770Y-3160268D02*
G01*
X5906770Y-3246373D01*
X5963920Y-3160268D02*
G01*
X5963920Y-3246373D01*
X5906770Y-3201162D02*
G01*
X5963920Y-3201162D01*
X6015481Y-3160268D02*
G01*
X6007354Y-3164586D01*
X5999225Y-3172713D01*
X5995161Y-3180842D01*
X5991097Y-3193034D01*
X5991097Y-3213607D01*
X5995161Y-3225800D01*
X5999225Y-3233928D01*
X6007354Y-3242310D01*
X6015481Y-3246373D01*
X6031991Y-3246373D01*
X6040120Y-3242310D01*
X6048247Y-3233928D01*
X6052311Y-3225800D01*
X6056375Y-3213607D01*
X6056375Y-3193034D01*
X6052311Y-3180842D01*
X6048247Y-3172713D01*
X6040120Y-3164586D01*
X6031991Y-3160268D01*
X6015481Y-3160268D01*
X6083554Y-3160268D02*
G01*
X6083554Y-3246373D01*
X6083554Y-3246373D02*
G01*
X6132575Y-3246373D01*
X6159500Y-3160268D02*
G01*
X6159500Y-3246373D01*
X6159500Y-3160268D02*
G01*
X6188202Y-3160268D01*
X6200393Y-3164586D01*
X6208522Y-3172713D01*
X6212840Y-3180842D01*
X6216904Y-3193034D01*
X6216904Y-3213607D01*
X6212840Y-3225800D01*
X6208522Y-3233928D01*
X6200393Y-3242310D01*
X6188202Y-3246373D01*
X6159500Y-3246373D01*
X6306820Y-3172713D02*
G01*
X6372352Y-3209544D01*
X6306820Y-3246373D01*
D14*
X838197Y-3963670D02*
G01*
X838197Y-4154678D01*
X838197Y-3963670D02*
G01*
X901951Y-3963670D01*
X929129Y-3972813D01*
X947163Y-3991102D01*
X956307Y-4009136D01*
X965451Y-4036568D01*
X965451Y-4082034D01*
X956307Y-4109212D01*
X947163Y-4127500D01*
X929129Y-4145534D01*
X901951Y-4154678D01*
X838197Y-4154678D01*
X1025395Y-4082034D02*
G01*
X1134615Y-4082034D01*
X1134615Y-4063745D01*
X1125471Y-4045712D01*
X1116327Y-4036568D01*
X1098293Y-4027423D01*
X1070861Y-4027423D01*
X1052827Y-4036568D01*
X1034539Y-4054602D01*
X1025395Y-4082034D01*
X1025395Y-4100068D01*
X1034539Y-4127500D01*
X1052827Y-4145534D01*
X1070861Y-4154678D01*
X1098293Y-4154678D01*
X1116327Y-4145534D01*
X1134615Y-4127500D01*
X1221737Y-3963670D02*
G01*
X1221737Y-4118355D01*
X1230881Y-4145534D01*
X1249169Y-4154678D01*
X1267203Y-4154678D01*
X1194559Y-4027423D02*
G01*
X1258313Y-4027423D01*
X1327401Y-4082034D02*
G01*
X1436367Y-4082034D01*
X1436367Y-4063745D01*
X1427223Y-4045712D01*
X1418079Y-4036568D01*
X1400045Y-4027423D01*
X1372867Y-4027423D01*
X1354579Y-4036568D01*
X1336291Y-4054602D01*
X1327401Y-4082034D01*
X1327401Y-4100068D01*
X1336291Y-4127500D01*
X1354579Y-4145534D01*
X1372867Y-4154678D01*
X1400045Y-4154678D01*
X1418079Y-4145534D01*
X1436367Y-4127500D01*
X1605531Y-4054602D02*
G01*
X1587243Y-4036568D01*
X1569209Y-4027423D01*
X1541777Y-4027423D01*
X1523743Y-4036568D01*
X1505455Y-4054602D01*
X1496311Y-4082034D01*
X1496311Y-4100068D01*
X1505455Y-4127500D01*
X1523743Y-4145534D01*
X1541777Y-4154678D01*
X1569209Y-4154678D01*
X1587243Y-4145534D01*
X1605531Y-4127500D01*
X1692653Y-3963670D02*
G01*
X1692653Y-4118355D01*
X1701797Y-4145534D01*
X1720085Y-4154678D01*
X1738119Y-4154678D01*
X1665475Y-4027423D02*
G01*
X1729229Y-4027423D01*
X1843529Y-4027423D02*
G01*
X1825495Y-4036568D01*
X1807207Y-4054602D01*
X1798317Y-4082034D01*
X1798317Y-4100068D01*
X1807207Y-4127500D01*
X1825495Y-4145534D01*
X1843529Y-4154678D01*
X1870961Y-4154678D01*
X1888995Y-4145534D01*
X1907283Y-4127500D01*
X1916427Y-4100068D01*
X1916427Y-4082034D01*
X1907283Y-4054602D01*
X1888995Y-4036568D01*
X1870961Y-4027423D01*
X1843529Y-4027423D01*
X1976371Y-4027423D02*
G01*
X1976371Y-4154678D01*
X1976371Y-4082034D02*
G01*
X1985515Y-4054602D01*
X2003549Y-4036568D01*
X2021837Y-4027423D01*
X2049015Y-4027423D01*
D44*
X7823710Y-2368804D02*
G01*
X7787388Y-2332228D01*
X7732778Y-2314194D01*
X7660134Y-2314194D01*
X7605524Y-2332228D01*
X7569202Y-2368804D01*
X7569202Y-2405126D01*
X7587490Y-2441447D01*
X7605524Y-2459736D01*
X7641846Y-2477770D01*
X7751066Y-2514092D01*
X7787388Y-2532379D01*
X7805422Y-2550413D01*
X7823710Y-2586989D01*
X7823710Y-2641345D01*
X7787388Y-2677921D01*
X7732778Y-2695955D01*
X7660134Y-2695955D01*
X7605524Y-2677921D01*
X7569202Y-2641345D01*
X8216394Y-2405126D02*
G01*
X8198360Y-2368804D01*
X8161784Y-2332228D01*
X8125462Y-2314194D01*
X8052818Y-2314194D01*
X8016496Y-2332228D01*
X7980174Y-2368804D01*
X7961886Y-2405126D01*
X7943852Y-2459736D01*
X7943852Y-2550413D01*
X7961886Y-2605023D01*
X7980174Y-2641345D01*
X8016496Y-2677921D01*
X8052818Y-2695955D01*
X8125462Y-2695955D01*
X8161784Y-2677921D01*
X8198360Y-2641345D01*
X8216394Y-2605023D01*
X8336536Y-2314194D02*
G01*
X8336536Y-2695955D01*
X8456424Y-2314194D02*
G01*
X8456424Y-2695955D01*
X8456424Y-2314194D02*
G01*
X8710932Y-2695955D01*
X8710932Y-2314194D02*
G01*
X8710932Y-2695955D01*
X8958328Y-2314194D02*
G01*
X8958328Y-2695955D01*
X8831074Y-2314194D02*
G01*
X9085582Y-2314194D01*
X9205470Y-2314194D02*
G01*
X9205470Y-2695955D01*
X9325612Y-2314194D02*
G01*
X9325612Y-2695955D01*
X9325612Y-2695955D02*
G01*
X9543798Y-2695955D01*
X9663686Y-2314194D02*
G01*
X9663686Y-2695955D01*
X9663686Y-2695955D02*
G01*
X9881872Y-2695955D01*
X10147302Y-2314194D02*
G01*
X10002014Y-2695955D01*
X10147302Y-2314194D02*
G01*
X10292844Y-2695955D01*
X10056370Y-2568702D02*
G01*
X10238234Y-2568702D01*
X10539986Y-2314194D02*
G01*
X10539986Y-2695955D01*
X10412732Y-2314194D02*
G01*
X10667240Y-2314194D01*
X10896348Y-2314194D02*
G01*
X10860026Y-2332228D01*
X10823704Y-2368804D01*
X10805416Y-2405126D01*
X10787382Y-2459736D01*
X10787382Y-2550413D01*
X10805416Y-2605023D01*
X10823704Y-2641345D01*
X10860026Y-2677921D01*
X10896348Y-2695955D01*
X10969246Y-2695955D01*
X11005568Y-2677921D01*
X11041890Y-2641345D01*
X11060178Y-2605023D01*
X11078212Y-2550413D01*
X11078212Y-2459736D01*
X11060178Y-2405126D01*
X11041890Y-2368804D01*
X11005568Y-2332228D01*
X10969246Y-2314194D01*
X10896348Y-2314194D01*
X11198354Y-2314194D02*
G01*
X11198354Y-2695955D01*
X11198354Y-2314194D02*
G01*
X11361930Y-2314194D01*
X11416540Y-2332228D01*
X11434574Y-2350515D01*
X11452862Y-2386837D01*
X11452862Y-2423160D01*
X11434574Y-2459736D01*
X11416540Y-2477770D01*
X11361930Y-2496057D01*
X11198354Y-2496057D01*
X11325608Y-2496057D02*
G01*
X11452862Y-2695955D01*
D39*
X2184394Y-1103881D02*
G01*
X2184394Y-1212847D01*
X2184394Y-1103881D02*
G01*
X2231130Y-1103881D01*
X2246624Y-1108961D01*
X2251958Y-1114295D01*
X2257038Y-1124709D01*
X2257038Y-1135123D01*
X2251958Y-1145537D01*
X2246624Y-1150617D01*
X2231130Y-1155697D01*
X2184394Y-1155697D01*
X2220716Y-1155697D02*
G01*
X2257038Y-1212847D01*
X2301742Y-1103881D02*
G01*
X2358892Y-1103881D01*
X2327904Y-1145537D01*
X2343398Y-1145537D01*
X2353812Y-1150617D01*
X2358892Y-1155697D01*
X2364226Y-1171445D01*
X2364226Y-1181859D01*
X2358892Y-1197353D01*
X2348478Y-1207767D01*
X2332984Y-1212847D01*
X2317490Y-1212847D01*
X2301742Y-1207767D01*
X2296662Y-1202687D01*
X2291328Y-1192273D01*
X3950715Y-3733800D02*
G01*
X3841750Y-3733800D01*
X3950715Y-3733800D02*
G01*
X3950715Y-3780536D01*
X3945636Y-3796029D01*
X3940302Y-3801363D01*
X3929888Y-3806444D01*
X3919474Y-3806444D01*
X3909059Y-3801363D01*
X3903979Y-3796029D01*
X3898900Y-3780536D01*
X3898900Y-3733800D01*
X3898900Y-3770121D02*
G01*
X3841750Y-3806444D01*
X3924808Y-3846068D02*
G01*
X3929888Y-3846068D01*
X3940302Y-3851147D01*
X3945636Y-3856481D01*
X3950715Y-3866895D01*
X3950715Y-3887470D01*
X3945636Y-3897884D01*
X3940302Y-3903218D01*
X3929888Y-3908297D01*
X3919474Y-3908297D01*
X3909059Y-3903218D01*
X3893565Y-3892804D01*
X3841750Y-3840734D01*
X3841750Y-3913631D01*
X3924808Y-3953002D02*
G01*
X3929888Y-3953002D01*
X3940302Y-3958336D01*
X3945636Y-3963415D01*
X3950715Y-3973829D01*
X3950715Y-3994657D01*
X3945636Y-4005071D01*
X3940302Y-4010152D01*
X3929888Y-4015486D01*
X3919474Y-4015486D01*
X3909059Y-4010152D01*
X3893565Y-3999737D01*
X3841750Y-3947921D01*
X3841750Y-4020565D01*
X2655310Y-177800D02*
G01*
X2546344Y-177800D01*
X2655310Y-177800D02*
G01*
X2655310Y-224536D01*
X2650230Y-240029D01*
X2644896Y-245363D01*
X2634482Y-250444D01*
X2624068Y-250444D01*
X2613654Y-245363D01*
X2608574Y-240029D01*
X2603494Y-224536D01*
X2603494Y-177800D01*
X2603494Y-214121D02*
G01*
X2546344Y-250444D01*
X2629402Y-290068D02*
G01*
X2634482Y-290068D01*
X2644896Y-295147D01*
X2650230Y-300481D01*
X2655310Y-310895D01*
X2655310Y-331470D01*
X2650230Y-341884D01*
X2644896Y-347218D01*
X2634482Y-352297D01*
X2624068Y-352297D01*
X2613654Y-347218D01*
X2598160Y-336804D01*
X2546344Y-284734D01*
X2546344Y-357631D01*
X2655310Y-422910D02*
G01*
X2650230Y-407415D01*
X2634482Y-397002D01*
X2608574Y-391921D01*
X2593080Y-391921D01*
X2566918Y-397002D01*
X2551424Y-407415D01*
X2546344Y-422910D01*
X2546344Y-433323D01*
X2551424Y-449071D01*
X2566918Y-459486D01*
X2593080Y-464565D01*
X2608574Y-464565D01*
X2634482Y-459486D01*
X2650230Y-449071D01*
X2655310Y-433323D01*
X2655310Y-422910D01*
X4026908Y-685800D02*
G01*
X3948930Y-685800D01*
X3933436Y-690879D01*
X3923022Y-701294D01*
X3917942Y-717042D01*
X3917942Y-727455D01*
X3923022Y-742950D01*
X3933436Y-753363D01*
X3948930Y-758444D01*
X4026908Y-758444D01*
X4026908Y-865631D02*
G01*
X3917942Y-813562D01*
X4026908Y-792734D02*
G01*
X4026908Y-865631D01*
X2147310Y-558800D02*
G01*
X2069332Y-558800D01*
X2053838Y-563879D01*
X2043424Y-574294D01*
X2038344Y-590042D01*
X2038344Y-600455D01*
X2043424Y-615950D01*
X2053838Y-626363D01*
X2069332Y-631444D01*
X2147310Y-631444D01*
X2147310Y-691895D02*
G01*
X2142230Y-676147D01*
X2131816Y-671068D01*
X2121402Y-671068D01*
X2110988Y-676147D01*
X2105654Y-686562D01*
X2100574Y-707389D01*
X2095494Y-722884D01*
X2085080Y-733297D01*
X2074666Y-738631D01*
X2058918Y-738631D01*
X2048504Y-733297D01*
X2043424Y-728218D01*
X2038344Y-712470D01*
X2038344Y-691895D01*
X2043424Y-676147D01*
X2048504Y-671068D01*
X2058918Y-665734D01*
X2074666Y-665734D01*
X2085080Y-671068D01*
X2095494Y-681481D01*
X2100574Y-696976D01*
X2105654Y-717804D01*
X2110988Y-728218D01*
X2121402Y-733297D01*
X2131816Y-733297D01*
X2142230Y-728218D01*
X2147310Y-712470D01*
X2147310Y-691895D01*
X268731Y-635000D02*
G01*
X182626Y-667765D01*
X268731Y-700531D02*
G01*
X182626Y-667765D01*
X268731Y-727455D02*
G01*
X182626Y-727455D01*
X268731Y-727455D02*
G01*
X268731Y-764286D01*
X264413Y-776478D01*
X260350Y-780542D01*
X252221Y-784605D01*
X244094Y-784605D01*
X235965Y-780542D01*
X231902Y-776478D01*
X227584Y-764286D01*
X227584Y-727455D02*
G01*
X227584Y-764286D01*
X223520Y-776478D01*
X219455Y-780542D01*
X211328Y-784605D01*
X199136Y-784605D01*
X191007Y-780542D01*
X186689Y-776478D01*
X182626Y-764286D01*
X182626Y-727455D01*
X268731Y-811784D02*
G01*
X207263Y-811784D01*
X195071Y-815847D01*
X186689Y-823976D01*
X182626Y-836168D01*
X182626Y-844550D01*
X186689Y-856742D01*
X195071Y-864870D01*
X207263Y-868934D01*
X268731Y-868934D01*
X256286Y-953262D02*
G01*
X264413Y-945134D01*
X268731Y-932942D01*
X268731Y-916431D01*
X264413Y-904239D01*
X256286Y-896112D01*
X248157Y-896112D01*
X240029Y-900176D01*
X235965Y-904239D01*
X231902Y-912368D01*
X223520Y-937005D01*
X219455Y-945134D01*
X215392Y-949197D01*
X207263Y-953262D01*
X195071Y-953262D01*
X186689Y-945134D01*
X182626Y-932942D01*
X182626Y-916431D01*
X186689Y-904239D01*
X195071Y-896112D01*
X522731Y-635000D02*
G01*
X436626Y-667765D01*
X522731Y-700531D02*
G01*
X436626Y-667765D01*
X510286Y-784605D02*
G01*
X518413Y-776478D01*
X522731Y-764286D01*
X522731Y-748029D01*
X518413Y-735584D01*
X510286Y-727455D01*
X502157Y-727455D01*
X494029Y-731520D01*
X489965Y-735584D01*
X485902Y-743712D01*
X477520Y-768350D01*
X473455Y-776478D01*
X469392Y-780542D01*
X461263Y-784605D01*
X449071Y-784605D01*
X440689Y-776478D01*
X436626Y-764286D01*
X436626Y-748029D01*
X440689Y-735584D01*
X449071Y-727455D01*
X522731Y-811784D02*
G01*
X481584Y-844550D01*
X436626Y-844550D01*
X522731Y-877062D02*
G01*
X481584Y-844550D01*
X510286Y-961389D02*
G01*
X518413Y-953262D01*
X522731Y-941070D01*
X522731Y-924560D01*
X518413Y-912368D01*
X510286Y-904239D01*
X502157Y-904239D01*
X494029Y-908304D01*
X489965Y-912368D01*
X485902Y-920495D01*
X477520Y-945134D01*
X473455Y-953262D01*
X469392Y-957326D01*
X461263Y-961389D01*
X449071Y-961389D01*
X440689Y-953262D01*
X436626Y-941070D01*
X436626Y-924560D01*
X440689Y-912368D01*
X449071Y-904239D01*
X3747505Y-4114820D02*
G01*
X3669527Y-4114820D01*
X3654033Y-4119900D01*
X3643619Y-4130314D01*
X3638539Y-4146062D01*
X3638539Y-4156476D01*
X3643619Y-4171970D01*
X3654033Y-4182384D01*
X3669527Y-4187464D01*
X3747505Y-4187464D01*
X3747505Y-4284238D02*
G01*
X3747505Y-4232168D01*
X3700769Y-4227088D01*
X3705849Y-4232168D01*
X3711183Y-4247916D01*
X3711183Y-4263410D01*
X3705849Y-4278904D01*
X3695689Y-4289318D01*
X3679941Y-4294652D01*
X3669527Y-4294652D01*
X3654033Y-4289318D01*
X3643619Y-4278904D01*
X3638539Y-4263410D01*
X3638539Y-4247916D01*
X3643619Y-4232168D01*
X3648699Y-4227088D01*
X3659113Y-4221754D01*
X5130838Y-1154719D02*
G01*
X5130838Y-1232697D01*
X5135918Y-1248191D01*
X5146332Y-1258605D01*
X5162080Y-1263685D01*
X5172240Y-1263685D01*
X5187988Y-1258605D01*
X5198402Y-1248191D01*
X5203482Y-1232697D01*
X5203482Y-1154719D01*
X5300256Y-1170213D02*
G01*
X5294922Y-1159799D01*
X5279428Y-1154719D01*
X5269014Y-1154719D01*
X5253520Y-1159799D01*
X5243106Y-1175547D01*
X5237772Y-1201455D01*
X5237772Y-1227363D01*
X5243106Y-1248191D01*
X5253520Y-1258605D01*
X5269014Y-1263685D01*
X5274094Y-1263685D01*
X5289842Y-1258605D01*
X5300256Y-1248191D01*
X5305336Y-1232697D01*
X5305336Y-1227363D01*
X5300256Y-1211869D01*
X5289842Y-1201455D01*
X5274094Y-1196121D01*
X5269014Y-1196121D01*
X5253520Y-1201455D01*
X5243106Y-1211869D01*
X5237772Y-1227363D01*
D45*
X1772404Y-1098547D02*
G01*
X1772404Y-1133599D01*
X1747004Y-1114549D01*
X1747004Y-1123947D01*
X1743702Y-1130297D01*
X1740654Y-1133599D01*
X1731002Y-1136647D01*
X1724652Y-1136647D01*
X1715254Y-1133599D01*
X1708904Y-1127249D01*
X1705602Y-1117597D01*
X1705602Y-1108199D01*
X1708904Y-1098547D01*
X1711952Y-1095499D01*
X1718302Y-1092197D01*
X1772404Y-1157729D02*
G01*
X1705602Y-1183129D01*
X1772404Y-1208529D02*
G01*
X1705602Y-1183129D01*
X1772404Y-1235961D02*
G01*
X1772404Y-1271013D01*
X1747004Y-1251963D01*
X1747004Y-1261361D01*
X1743702Y-1267711D01*
X1740654Y-1271013D01*
X1731002Y-1274315D01*
X1724652Y-1274315D01*
X1715254Y-1271013D01*
X1708904Y-1264663D01*
X1705602Y-1255011D01*
X1705602Y-1245613D01*
X1708904Y-1235961D01*
X1711952Y-1232913D01*
X1718302Y-1229611D01*
X4444974Y-792967D02*
G01*
X4419574Y-859769D01*
X4444974Y-792967D02*
G01*
X4470374Y-859769D01*
X4429226Y-837417D02*
G01*
X4460976Y-837417D01*
X4491456Y-792967D02*
G01*
X4491456Y-859769D01*
X4491456Y-792967D02*
G01*
X4516856Y-859769D01*
X4542510Y-792967D02*
G01*
X4516856Y-859769D01*
X4542510Y-792967D02*
G01*
X4542510Y-859769D01*
X4563338Y-792967D02*
G01*
X4563338Y-859769D01*
X4563338Y-792967D02*
G01*
X4592040Y-792967D01*
X4601692Y-796269D01*
X4604740Y-799317D01*
X4608042Y-805667D01*
X4608042Y-815319D01*
X4604740Y-821669D01*
X4601692Y-824717D01*
X4592040Y-828019D01*
X4563338Y-828019D01*
X5689574Y-1681982D02*
G01*
X5689574Y-1748784D01*
X5710656Y-1681982D02*
G01*
X5710656Y-1748784D01*
X5710656Y-1681982D02*
G01*
X5755106Y-1748784D01*
X5755106Y-1681982D02*
G01*
X5755106Y-1748784D01*
X5798286Y-1681982D02*
G01*
X5798286Y-1748784D01*
X5776188Y-1681982D02*
G01*
X5820638Y-1681982D01*
X1930392Y-1275585D02*
G01*
X1930392Y-1342387D01*
X1930392Y-1275585D02*
G01*
X1959094Y-1275585D01*
X1968492Y-1278633D01*
X1971794Y-1281935D01*
X1974842Y-1288285D01*
X1974842Y-1297937D01*
X1971794Y-1304287D01*
X1968492Y-1307335D01*
X1959094Y-1310637D01*
X1930392Y-1310637D01*
X1995924Y-1275585D02*
G01*
X1995924Y-1342387D01*
X1995924Y-1275585D02*
G01*
X2037326Y-1275585D01*
X1995924Y-1307335D02*
G01*
X2021324Y-1307335D01*
X1995924Y-1342387D02*
G01*
X2037326Y-1342387D01*
X2083808Y-1275585D02*
G01*
X2058408Y-1342387D01*
X2083808Y-1275585D02*
G01*
X2109208Y-1342387D01*
X2067806Y-1320035D02*
G01*
X2099556Y-1320035D01*
X2130290Y-1275585D02*
G01*
X2130290Y-1342387D01*
X2174740Y-1275585D02*
G01*
X2130290Y-1320035D01*
X2146038Y-1304287D02*
G01*
X2174740Y-1342387D01*
X6476974Y-3358382D02*
G01*
X6476974Y-3425184D01*
X6476974Y-3358382D02*
G01*
X6505676Y-3358382D01*
X6515074Y-3361430D01*
X6518376Y-3364732D01*
X6521424Y-3371082D01*
X6521424Y-3380734D01*
X6518376Y-3387084D01*
X6515074Y-3390132D01*
X6505676Y-3393434D01*
X6476974Y-3393434D01*
X6586956Y-3367780D02*
G01*
X6580606Y-3361430D01*
X6571208Y-3358382D01*
X6558508Y-3358382D01*
X6548856Y-3361430D01*
X6542506Y-3367780D01*
X6542506Y-3374384D01*
X6545808Y-3380734D01*
X6548856Y-3383782D01*
X6555206Y-3387084D01*
X6574256Y-3393434D01*
X6580606Y-3396482D01*
X6583908Y-3399784D01*
X6586956Y-3406134D01*
X6586956Y-3415532D01*
X6580606Y-3421882D01*
X6571208Y-3425184D01*
X6558508Y-3425184D01*
X6548856Y-3421882D01*
X6542506Y-3415532D01*
X6608038Y-3358382D02*
G01*
X6608038Y-3406134D01*
X6611340Y-3415532D01*
X6617690Y-3421882D01*
X6627088Y-3425184D01*
X6633438Y-3425184D01*
X6643090Y-3421882D01*
X6649440Y-3415532D01*
X6652742Y-3406134D01*
X6652742Y-3358382D01*
X6451615Y-1758185D02*
G01*
X6451615Y-1824987D01*
X6451615Y-1758185D02*
G01*
X6480317Y-1758185D01*
X6489715Y-1761233D01*
X6493017Y-1764535D01*
X6496065Y-1770885D01*
X6496065Y-1777235D01*
X6493017Y-1783585D01*
X6489715Y-1786887D01*
X6480317Y-1789935D01*
X6451615Y-1789935D01*
X6473967Y-1789935D02*
G01*
X6496065Y-1824987D01*
X6542547Y-1758185D02*
G01*
X6517147Y-1824987D01*
X6542547Y-1758185D02*
G01*
X6567947Y-1824987D01*
X6526799Y-1802635D02*
G01*
X6558549Y-1802635D01*
X6589029Y-1758185D02*
G01*
X6605031Y-1824987D01*
X6620779Y-1758185D02*
G01*
X6605031Y-1824987D01*
X6620779Y-1758185D02*
G01*
X6636781Y-1824987D01*
X6652783Y-1758185D02*
G01*
X6636781Y-1824987D01*
D14*
X6110731Y-1443989D02*
G01*
X6045200Y-1615694D01*
X6110731Y-1443989D02*
G01*
X6176009Y-1615694D01*
X6069838Y-1558544D02*
G01*
X6151625Y-1558544D01*
X6352793Y-1484884D02*
G01*
X6344665Y-1468628D01*
X6328156Y-1452118D01*
X6311900Y-1443989D01*
X6279134Y-1443989D01*
X6262877Y-1452118D01*
X6246368Y-1468628D01*
X6238240Y-1484884D01*
X6230111Y-1509521D01*
X6230111Y-1550415D01*
X6238240Y-1574800D01*
X6246368Y-1591310D01*
X6262877Y-1607565D01*
X6279134Y-1615694D01*
X6311900Y-1615694D01*
X6328156Y-1607565D01*
X6344665Y-1591310D01*
X6352793Y-1574800D01*
X6464045Y-1443989D02*
G01*
X6464045Y-1615694D01*
X6406895Y-1443989D02*
G01*
X6521450Y-1443989D01*
D39*
X4345144Y-1002792D02*
G01*
X4339810Y-992378D01*
X4329396Y-981963D01*
X4319236Y-976884D01*
X4298408Y-976884D01*
X4287994Y-981963D01*
X4277580Y-992378D01*
X4272246Y-1002792D01*
X4267166Y-1018539D01*
X4267166Y-1044447D01*
X4272246Y-1059942D01*
X4277580Y-1070355D01*
X4287994Y-1080770D01*
X4298408Y-1085850D01*
X4319236Y-1085850D01*
X4329396Y-1080770D01*
X4339810Y-1070355D01*
X4345144Y-1059942D01*
X4379434Y-997712D02*
G01*
X4389848Y-992378D01*
X4405342Y-976884D01*
X4405342Y-1085850D01*
X3735544Y-189974D02*
G01*
X3730210Y-179560D01*
X3719796Y-169146D01*
X3709636Y-164066D01*
X3688808Y-164066D01*
X3678394Y-169146D01*
X3667980Y-179560D01*
X3662646Y-189974D01*
X3657566Y-205722D01*
X3657566Y-231630D01*
X3662646Y-247124D01*
X3667980Y-257538D01*
X3678394Y-267952D01*
X3688808Y-273032D01*
X3709636Y-273032D01*
X3719796Y-267952D01*
X3730210Y-257538D01*
X3735544Y-247124D01*
X3832064Y-164066D02*
G01*
X3780248Y-164066D01*
X3774914Y-210802D01*
X3780248Y-205722D01*
X3795742Y-200388D01*
X3811236Y-200388D01*
X3826984Y-205722D01*
X3837398Y-215882D01*
X3842478Y-231630D01*
X3842478Y-242044D01*
X3837398Y-257538D01*
X3826984Y-267952D01*
X3811236Y-273032D01*
X3795742Y-273032D01*
X3780248Y-267952D01*
X3774914Y-262872D01*
X3769834Y-252458D01*
X2236947Y-926566D02*
G01*
X2231613Y-916152D01*
X2221199Y-905738D01*
X2211039Y-900658D01*
X2190211Y-900658D01*
X2179797Y-905738D01*
X2169383Y-916152D01*
X2164049Y-926566D01*
X2158969Y-942314D01*
X2158969Y-968222D01*
X2164049Y-983716D01*
X2169383Y-994130D01*
X2179797Y-1004544D01*
X2190211Y-1009624D01*
X2211039Y-1009624D01*
X2221199Y-1004544D01*
X2231613Y-994130D01*
X2236947Y-983716D01*
X2297145Y-900658D02*
G01*
X2281651Y-905738D01*
X2276317Y-916152D01*
X2276317Y-926566D01*
X2281651Y-936980D01*
X2292065Y-942314D01*
X2312639Y-947394D01*
X2328387Y-952474D01*
X2338801Y-962888D01*
X2343881Y-973302D01*
X2343881Y-989050D01*
X2338801Y-999464D01*
X2333467Y-1004544D01*
X2317973Y-1009624D01*
X2297145Y-1009624D01*
X2281651Y-1004544D01*
X2276317Y-999464D01*
X2271237Y-989050D01*
X2271237Y-973302D01*
X2276317Y-962888D01*
X2286731Y-952474D01*
X2302479Y-947394D01*
X2323053Y-942314D01*
X2333467Y-936980D01*
X2338801Y-926566D01*
X2338801Y-916152D01*
X2333467Y-905738D01*
X2317973Y-900658D01*
X2297145Y-900658D01*
X5601215Y-4624544D02*
G01*
X5611629Y-4619210D01*
X5622043Y-4608796D01*
X5627123Y-4598636D01*
X5627123Y-4577808D01*
X5622043Y-4567394D01*
X5611629Y-4556980D01*
X5601215Y-4551646D01*
X5585467Y-4546566D01*
X5559559Y-4546566D01*
X5544065Y-4551646D01*
X5533651Y-4556980D01*
X5523237Y-4567394D01*
X5518157Y-4577808D01*
X5518157Y-4598636D01*
X5523237Y-4608796D01*
X5533651Y-4619210D01*
X5544065Y-4624544D01*
X5590801Y-4726398D02*
G01*
X5575307Y-4721064D01*
X5564893Y-4710650D01*
X5559559Y-4695156D01*
X5559559Y-4690076D01*
X5564893Y-4674328D01*
X5575307Y-4663914D01*
X5590801Y-4658834D01*
X5595881Y-4658834D01*
X5611629Y-4663914D01*
X5622043Y-4674328D01*
X5627123Y-4690076D01*
X5627123Y-4695156D01*
X5622043Y-4710650D01*
X5611629Y-4721064D01*
X5590801Y-4726398D01*
X5564893Y-4726398D01*
X5538731Y-4721064D01*
X5523237Y-4710650D01*
X5518157Y-4695156D01*
X5518157Y-4684742D01*
X5523237Y-4669248D01*
X5533651Y-4663914D01*
X4128018Y-4573747D02*
G01*
X4138432Y-4568413D01*
X4148846Y-4557999D01*
X4153926Y-4547839D01*
X4153926Y-4527011D01*
X4148846Y-4516597D01*
X4138432Y-4506183D01*
X4128018Y-4500849D01*
X4112270Y-4495769D01*
X4086362Y-4495769D01*
X4070868Y-4500849D01*
X4060454Y-4506183D01*
X4050040Y-4516597D01*
X4044960Y-4527011D01*
X4044960Y-4547839D01*
X4050040Y-4557999D01*
X4060454Y-4568413D01*
X4070868Y-4573747D01*
X4133098Y-4608037D02*
G01*
X4138432Y-4618451D01*
X4153926Y-4633945D01*
X4044960Y-4633945D01*
X4153926Y-4699477D02*
G01*
X4148846Y-4683729D01*
X4133098Y-4673569D01*
X4107190Y-4668235D01*
X4091696Y-4668235D01*
X4065534Y-4673569D01*
X4050040Y-4683729D01*
X4044960Y-4699477D01*
X4044960Y-4709891D01*
X4050040Y-4725385D01*
X4065534Y-4735799D01*
X4091696Y-4740879D01*
X4107190Y-4740879D01*
X4133098Y-4735799D01*
X4148846Y-4725385D01*
X4153926Y-4709891D01*
X4153926Y-4699477D01*
X3405360Y-3720576D02*
G01*
X3400026Y-3710162D01*
X3389612Y-3699748D01*
X3379452Y-3694668D01*
X3358624Y-3694668D01*
X3348210Y-3699748D01*
X3337796Y-3710162D01*
X3332462Y-3720576D01*
X3327382Y-3736324D01*
X3327382Y-3762232D01*
X3332462Y-3777726D01*
X3337796Y-3788140D01*
X3348210Y-3798554D01*
X3358624Y-3803634D01*
X3379452Y-3803634D01*
X3389612Y-3798554D01*
X3400026Y-3788140D01*
X3405360Y-3777726D01*
X3439650Y-3715496D02*
G01*
X3450064Y-3710162D01*
X3465558Y-3694668D01*
X3465558Y-3803634D01*
X3499848Y-3715496D02*
G01*
X3510262Y-3710162D01*
X3525756Y-3694668D01*
X3525756Y-3803634D01*
X6185413Y-4624544D02*
G01*
X6195827Y-4619210D01*
X6206241Y-4608796D01*
X6211321Y-4598636D01*
X6211321Y-4577808D01*
X6206241Y-4567394D01*
X6195827Y-4556980D01*
X6185413Y-4551646D01*
X6169665Y-4546566D01*
X6143757Y-4546566D01*
X6128263Y-4551646D01*
X6117849Y-4556980D01*
X6107435Y-4567394D01*
X6102355Y-4577808D01*
X6102355Y-4598636D01*
X6107435Y-4608796D01*
X6117849Y-4619210D01*
X6128263Y-4624544D01*
X6185413Y-4663914D02*
G01*
X6190493Y-4663914D01*
X6200907Y-4669248D01*
X6206241Y-4674328D01*
X6211321Y-4684742D01*
X6211321Y-4705570D01*
X6206241Y-4715984D01*
X6200907Y-4721064D01*
X6190493Y-4726398D01*
X6180079Y-4726398D01*
X6169665Y-4721064D01*
X6154171Y-4710650D01*
X6102355Y-4658834D01*
X6102355Y-4731478D01*
X4497544Y-1180589D02*
G01*
X4492210Y-1170175D01*
X4481796Y-1159761D01*
X4471636Y-1154681D01*
X4450808Y-1154681D01*
X4440394Y-1159761D01*
X4429980Y-1170175D01*
X4424646Y-1180589D01*
X4419566Y-1196337D01*
X4419566Y-1222245D01*
X4424646Y-1237739D01*
X4429980Y-1248153D01*
X4440394Y-1258567D01*
X4450808Y-1263647D01*
X4471636Y-1263647D01*
X4481796Y-1258567D01*
X4492210Y-1248153D01*
X4497544Y-1237739D01*
X4542248Y-1154681D02*
G01*
X4599398Y-1154681D01*
X4568156Y-1196337D01*
X4583650Y-1196337D01*
X4594064Y-1201417D01*
X4599398Y-1206497D01*
X4604478Y-1222245D01*
X4604478Y-1232659D01*
X4599398Y-1248153D01*
X4588984Y-1258567D01*
X4573236Y-1263647D01*
X4557742Y-1263647D01*
X4542248Y-1258567D01*
X4536914Y-1253487D01*
X4531834Y-1243073D01*
X1830557Y-266176D02*
G01*
X1825223Y-255762D01*
X1814809Y-245348D01*
X1804649Y-240268D01*
X1783821Y-240268D01*
X1773407Y-245348D01*
X1762993Y-255762D01*
X1757659Y-266176D01*
X1752579Y-281924D01*
X1752579Y-307832D01*
X1757659Y-323326D01*
X1762993Y-333740D01*
X1773407Y-344154D01*
X1783821Y-349234D01*
X1804649Y-349234D01*
X1814809Y-344154D01*
X1825223Y-333740D01*
X1830557Y-323326D01*
X1916663Y-240268D02*
G01*
X1864847Y-312912D01*
X1942825Y-312912D01*
X1916663Y-240268D02*
G01*
X1916663Y-349234D01*
X5970727Y-1688581D02*
G01*
X5965393Y-1678167D01*
X5954979Y-1667753D01*
X5944819Y-1662673D01*
X5923991Y-1662673D01*
X5913577Y-1667753D01*
X5903163Y-1678167D01*
X5897829Y-1688581D01*
X5892749Y-1704329D01*
X5892749Y-1730237D01*
X5897829Y-1745731D01*
X5903163Y-1756145D01*
X5913577Y-1766559D01*
X5923991Y-1771639D01*
X5944819Y-1771639D01*
X5954979Y-1766559D01*
X5965393Y-1756145D01*
X5970727Y-1745731D01*
X6067247Y-1678167D02*
G01*
X6062167Y-1667753D01*
X6046419Y-1662673D01*
X6036259Y-1662673D01*
X6020511Y-1667753D01*
X6010097Y-1683501D01*
X6005017Y-1709409D01*
X6005017Y-1735317D01*
X6010097Y-1756145D01*
X6020511Y-1766559D01*
X6036259Y-1771639D01*
X6041339Y-1771639D01*
X6056833Y-1766559D01*
X6067247Y-1756145D01*
X6072581Y-1740651D01*
X6072581Y-1735317D01*
X6067247Y-1719823D01*
X6056833Y-1709409D01*
X6041339Y-1704329D01*
X6036259Y-1704329D01*
X6020511Y-1709409D01*
X6010097Y-1719823D01*
X6005017Y-1735317D01*
X5855185Y-2313165D02*
G01*
X5865599Y-2307831D01*
X5876013Y-2297417D01*
X5881093Y-2287257D01*
X5881093Y-2266429D01*
X5876013Y-2256015D01*
X5865599Y-2245601D01*
X5855185Y-2240267D01*
X5839437Y-2235187D01*
X5813529Y-2235187D01*
X5798035Y-2240267D01*
X5787621Y-2245601D01*
X5777207Y-2256015D01*
X5772127Y-2266429D01*
X5772127Y-2287257D01*
X5777207Y-2297417D01*
X5787621Y-2307831D01*
X5798035Y-2313165D01*
X5881093Y-2420099D02*
G01*
X5772127Y-2368283D01*
X5881093Y-2347455D02*
G01*
X5881093Y-2420099D01*
X3454366Y-4634456D02*
G01*
X3454366Y-4743422D01*
X3454366Y-4634456D02*
G01*
X3490688Y-4634456D01*
X3506436Y-4639536D01*
X3516596Y-4649950D01*
X3521930Y-4660364D01*
X3527010Y-4676112D01*
X3527010Y-4702020D01*
X3521930Y-4717514D01*
X3516596Y-4727928D01*
X3506436Y-4738342D01*
X3490688Y-4743422D01*
X3454366Y-4743422D01*
X3561300Y-4655284D02*
G01*
X3571714Y-4649950D01*
X3587462Y-4634456D01*
X3587462Y-4743422D01*
X2971774Y-672063D02*
G01*
X2971774Y-781029D01*
X2971774Y-672063D02*
G01*
X3008096Y-672063D01*
X3023844Y-677143D01*
X3034004Y-687557D01*
X3039338Y-697971D01*
X3044418Y-713719D01*
X3044418Y-739627D01*
X3039338Y-755121D01*
X3034004Y-765535D01*
X3023844Y-775949D01*
X3008096Y-781029D01*
X2971774Y-781029D01*
X3084042Y-697971D02*
G01*
X3084042Y-692891D01*
X3089122Y-682477D01*
X3094456Y-677143D01*
X3104870Y-672063D01*
X3125444Y-672063D01*
X3135858Y-677143D01*
X3141192Y-682477D01*
X3146272Y-692891D01*
X3146272Y-703305D01*
X3141192Y-713719D01*
X3130778Y-729213D01*
X3078708Y-781029D01*
X3151606Y-781029D01*
X3493526Y-1015977D02*
G01*
X3384560Y-1015977D01*
X3493526Y-1015977D02*
G01*
X3493526Y-1052299D01*
X3488446Y-1068047D01*
X3478032Y-1078207D01*
X3467618Y-1083541D01*
X3451870Y-1088621D01*
X3425962Y-1088621D01*
X3410468Y-1083541D01*
X3400054Y-1078207D01*
X3389640Y-1068047D01*
X3384560Y-1052299D01*
X3384560Y-1015977D01*
X3493526Y-1133325D02*
G01*
X3493526Y-1190475D01*
X3451870Y-1159487D01*
X3451870Y-1174981D01*
X3446790Y-1185395D01*
X3441710Y-1190475D01*
X3425962Y-1195809D01*
X3415548Y-1195809D01*
X3400054Y-1190475D01*
X3389640Y-1180061D01*
X3384560Y-1164567D01*
X3384560Y-1149073D01*
X3389640Y-1133325D01*
X3394720Y-1128245D01*
X3405134Y-1122911D01*
X2844782Y-3872468D02*
G01*
X2844782Y-3981434D01*
X2844782Y-3981434D02*
G01*
X2907012Y-3981434D01*
X2941302Y-3893296D02*
G01*
X2951716Y-3887962D01*
X2967464Y-3872468D01*
X2967464Y-3981434D01*
X2926829Y-875284D02*
G01*
X2916415Y-880363D01*
X2906001Y-890778D01*
X2900667Y-901192D01*
X2895587Y-916939D01*
X2895587Y-942847D01*
X2900667Y-958342D01*
X2906001Y-968755D01*
X2916415Y-979170D01*
X2926829Y-984250D01*
X2947657Y-984250D01*
X2957817Y-979170D01*
X2968231Y-968755D01*
X2973565Y-958342D01*
X2978645Y-942847D01*
X2978645Y-916939D01*
X2973565Y-901192D01*
X2968231Y-890778D01*
X2957817Y-880363D01*
X2947657Y-875284D01*
X2926829Y-875284D01*
X2942323Y-963676D02*
G01*
X2973565Y-994663D01*
X3012935Y-896112D02*
G01*
X3023349Y-890778D01*
X3039097Y-875284D01*
X3039097Y-984250D01*
X6389095Y-1854166D02*
G01*
X6280129Y-1854166D01*
X6389095Y-1854166D02*
G01*
X6389095Y-1900902D01*
X6384015Y-1916396D01*
X6378681Y-1921730D01*
X6368267Y-1926810D01*
X6357853Y-1926810D01*
X6347439Y-1921730D01*
X6342359Y-1916396D01*
X6337279Y-1900902D01*
X6337279Y-1854166D01*
X6337279Y-1890488D02*
G01*
X6280129Y-1926810D01*
X6368267Y-1961100D02*
G01*
X6373601Y-1971514D01*
X6389095Y-1987262D01*
X6280129Y-1987262D01*
X5968951Y-1205478D02*
G01*
X5968951Y-1314444D01*
X5968951Y-1205478D02*
G01*
X6015687Y-1205478D01*
X6031181Y-1210558D01*
X6036515Y-1215892D01*
X6041595Y-1226306D01*
X6041595Y-1236720D01*
X6036515Y-1247134D01*
X6031181Y-1252214D01*
X6015687Y-1257294D01*
X5968951Y-1257294D01*
X6005273Y-1257294D02*
G01*
X6041595Y-1314444D01*
X6127955Y-1205478D02*
G01*
X6075885Y-1278122D01*
X6153863Y-1278122D01*
X6127955Y-1205478D02*
G01*
X6127955Y-1314444D01*
X5322310Y-1498569D02*
G01*
X5213344Y-1498569D01*
X5322310Y-1498569D02*
G01*
X5322310Y-1545305D01*
X5317230Y-1560799D01*
X5311896Y-1566133D01*
X5301482Y-1571213D01*
X5291068Y-1571213D01*
X5280654Y-1566133D01*
X5275574Y-1560799D01*
X5270494Y-1545305D01*
X5270494Y-1498569D01*
X5270494Y-1534891D02*
G01*
X5213344Y-1571213D01*
X5306816Y-1667987D02*
G01*
X5317230Y-1662653D01*
X5322310Y-1647159D01*
X5322310Y-1636745D01*
X5317230Y-1621251D01*
X5301482Y-1610837D01*
X5275574Y-1605503D01*
X5249666Y-1605503D01*
X5228838Y-1610837D01*
X5218424Y-1621251D01*
X5213344Y-1636745D01*
X5213344Y-1642079D01*
X5218424Y-1657573D01*
X5228838Y-1667987D01*
X5244332Y-1673067D01*
X5249666Y-1673067D01*
X5265160Y-1667987D01*
X5275574Y-1657573D01*
X5280654Y-1642079D01*
X5280654Y-1636745D01*
X5275574Y-1621251D01*
X5265160Y-1610837D01*
X5249666Y-1605503D01*
X3098774Y-265666D02*
G01*
X3098774Y-374632D01*
X3098774Y-265666D02*
G01*
X3145510Y-265666D01*
X3161004Y-270746D01*
X3166338Y-276080D01*
X3171418Y-286494D01*
X3171418Y-296908D01*
X3166338Y-307322D01*
X3161004Y-312402D01*
X3145510Y-317482D01*
X3098774Y-317482D01*
X3135096Y-317482D02*
G01*
X3171418Y-374632D01*
X3278606Y-265666D02*
G01*
X3226536Y-374632D01*
X3205708Y-265666D02*
G01*
X3278606Y-265666D01*
X6146800Y-2997962D02*
G01*
X6146800Y-3093465D01*
X6146800Y-2997962D02*
G01*
X6187693Y-2997962D01*
X6201409Y-3002534D01*
X6205981Y-3006852D01*
X6210300Y-3015995D01*
X6210300Y-3025139D01*
X6205981Y-3034284D01*
X6201409Y-3038855D01*
X6187693Y-3043428D01*
X6146800Y-3043428D01*
X6178550Y-3043428D02*
G01*
X6210300Y-3093465D01*
X6263131Y-2997962D02*
G01*
X6249415Y-3002534D01*
X6244843Y-3011423D01*
X6244843Y-3020568D01*
X6249415Y-3029712D01*
X6258559Y-3034284D01*
X6276847Y-3038855D01*
X6290309Y-3043428D01*
X6299454Y-3052318D01*
X6304025Y-3061462D01*
X6304025Y-3075178D01*
X6299454Y-3084321D01*
X6294881Y-3088894D01*
X6281420Y-3093465D01*
X6263131Y-3093465D01*
X6249415Y-3088894D01*
X6244843Y-3084321D01*
X6240525Y-3075178D01*
X6240525Y-3061462D01*
X6244843Y-3052318D01*
X6253988Y-3043428D01*
X6267704Y-3038855D01*
X6285991Y-3034284D01*
X6294881Y-3029712D01*
X6299454Y-3020568D01*
X6299454Y-3011423D01*
X6294881Y-3002534D01*
X6281420Y-2997962D01*
X6263131Y-2997962D01*
X6160495Y-1803366D02*
G01*
X6051529Y-1803366D01*
X6160495Y-1803366D02*
G01*
X6160495Y-1850102D01*
X6155415Y-1865596D01*
X6150081Y-1870930D01*
X6139667Y-1876010D01*
X6129253Y-1876010D01*
X6118839Y-1870930D01*
X6113759Y-1865596D01*
X6108679Y-1850102D01*
X6108679Y-1803366D01*
X6108679Y-1839688D02*
G01*
X6051529Y-1876010D01*
X6139667Y-1910300D02*
G01*
X6145001Y-1920714D01*
X6160495Y-1936462D01*
X6051529Y-1936462D01*
X6139667Y-1970752D02*
G01*
X6145001Y-1981166D01*
X6160495Y-1996660D01*
X6051529Y-1996660D01*
X6033505Y-3428966D02*
G01*
X5924539Y-3428966D01*
X6033505Y-3428966D02*
G01*
X6033505Y-3475702D01*
X6028425Y-3491196D01*
X6023091Y-3496530D01*
X6012677Y-3501610D01*
X6002263Y-3501610D01*
X5991849Y-3496530D01*
X5986769Y-3491196D01*
X5981689Y-3475702D01*
X5981689Y-3428966D01*
X5981689Y-3465288D02*
G01*
X5924539Y-3501610D01*
X6012677Y-3535900D02*
G01*
X6018011Y-3546314D01*
X6033505Y-3562062D01*
X5924539Y-3562062D01*
X6033505Y-3606766D02*
G01*
X6033505Y-3663916D01*
X5991849Y-3632674D01*
X5991849Y-3648168D01*
X5986769Y-3658582D01*
X5981689Y-3663916D01*
X5965941Y-3668996D01*
X5955527Y-3668996D01*
X5940033Y-3663916D01*
X5929619Y-3653502D01*
X5924539Y-3637754D01*
X5924539Y-3622260D01*
X5929619Y-3606766D01*
X5934699Y-3601432D01*
X5945113Y-3596352D01*
X5449305Y-3428972D02*
G01*
X5340339Y-3428972D01*
X5449305Y-3428972D02*
G01*
X5449305Y-3475708D01*
X5444225Y-3491202D01*
X5438891Y-3496536D01*
X5428477Y-3501616D01*
X5418063Y-3501616D01*
X5407649Y-3496536D01*
X5402569Y-3491202D01*
X5397489Y-3475708D01*
X5397489Y-3428972D01*
X5397489Y-3465294D02*
G01*
X5340339Y-3501616D01*
X5428477Y-3535906D02*
G01*
X5433811Y-3546320D01*
X5449305Y-3562068D01*
X5340339Y-3562068D01*
X5449305Y-3658588D02*
G01*
X5449305Y-3606772D01*
X5402569Y-3601438D01*
X5407649Y-3606772D01*
X5412983Y-3622266D01*
X5412983Y-3637760D01*
X5407649Y-3653508D01*
X5397489Y-3663922D01*
X5381741Y-3669002D01*
X5371327Y-3669002D01*
X5355833Y-3663922D01*
X5345419Y-3653508D01*
X5340339Y-3637760D01*
X5340339Y-3622266D01*
X5345419Y-3606772D01*
X5350499Y-3601438D01*
X5360913Y-3596358D01*
X5449293Y-812769D02*
G01*
X5340327Y-812769D01*
X5449293Y-812769D02*
G01*
X5449293Y-859505D01*
X5444213Y-874999D01*
X5438879Y-880333D01*
X5428465Y-885413D01*
X5418051Y-885413D01*
X5407637Y-880333D01*
X5402557Y-874999D01*
X5397477Y-859505D01*
X5397477Y-812769D01*
X5397477Y-849091D02*
G01*
X5340327Y-885413D01*
X5428465Y-919703D02*
G01*
X5433799Y-930117D01*
X5449293Y-945865D01*
X5340327Y-945865D01*
X5433799Y-1042385D02*
G01*
X5444213Y-1037305D01*
X5449293Y-1021557D01*
X5449293Y-1011143D01*
X5444213Y-995649D01*
X5428465Y-985235D01*
X5402557Y-980155D01*
X5376649Y-980155D01*
X5355821Y-985235D01*
X5345407Y-995649D01*
X5340327Y-1011143D01*
X5340327Y-1016477D01*
X5345407Y-1031971D01*
X5355821Y-1042385D01*
X5371315Y-1047719D01*
X5376649Y-1047719D01*
X5392143Y-1042385D01*
X5402557Y-1031971D01*
X5407637Y-1016477D01*
X5407637Y-1011143D01*
X5402557Y-995649D01*
X5392143Y-985235D01*
X5376649Y-980155D01*
X4444977Y-4634466D02*
G01*
X4444977Y-4743432D01*
X4444977Y-4634466D02*
G01*
X4491713Y-4634466D01*
X4507207Y-4639546D01*
X4512541Y-4644880D01*
X4517621Y-4655294D01*
X4517621Y-4665708D01*
X4512541Y-4676122D01*
X4507207Y-4681202D01*
X4491713Y-4686282D01*
X4444977Y-4686282D01*
X4481299Y-4686282D02*
G01*
X4517621Y-4743432D01*
X4551911Y-4655294D02*
G01*
X4562325Y-4649960D01*
X4578073Y-4634466D01*
X4578073Y-4743432D01*
X4685007Y-4634466D02*
G01*
X4632937Y-4743432D01*
X4612363Y-4634466D02*
G01*
X4685007Y-4634466D01*
X5156177Y-4634466D02*
G01*
X5156177Y-4743432D01*
X5156177Y-4634466D02*
G01*
X5202913Y-4634466D01*
X5218407Y-4639546D01*
X5223741Y-4644880D01*
X5228821Y-4655294D01*
X5228821Y-4665708D01*
X5223741Y-4676122D01*
X5218407Y-4681202D01*
X5202913Y-4686282D01*
X5156177Y-4686282D01*
X5192499Y-4686282D02*
G01*
X5228821Y-4743432D01*
X5268445Y-4660374D02*
G01*
X5268445Y-4655294D01*
X5273525Y-4644880D01*
X5278859Y-4639546D01*
X5289273Y-4634466D01*
X5309847Y-4634466D01*
X5320261Y-4639546D01*
X5325595Y-4644880D01*
X5330675Y-4655294D01*
X5330675Y-4665708D01*
X5325595Y-4676122D01*
X5315181Y-4691616D01*
X5263111Y-4743432D01*
X5336009Y-4743432D01*
X5370299Y-4655294D02*
G01*
X5380713Y-4649960D01*
X5396207Y-4634466D01*
X5396207Y-4743432D01*
X5460989Y-2947156D02*
G01*
X5460989Y-3042660D01*
X5460989Y-2947156D02*
G01*
X5501883Y-2947156D01*
X5515599Y-2951728D01*
X5520171Y-2956300D01*
X5524743Y-2965190D01*
X5524743Y-2974334D01*
X5520171Y-2983478D01*
X5515599Y-2988050D01*
X5501883Y-2992622D01*
X5460989Y-2992622D01*
X5492739Y-2992622D02*
G01*
X5524743Y-3042660D01*
X5559287Y-2969762D02*
G01*
X5559287Y-2965190D01*
X5563605Y-2956300D01*
X5568177Y-2951728D01*
X5577321Y-2947156D01*
X5595609Y-2947156D01*
X5604499Y-2951728D01*
X5609071Y-2956300D01*
X5613643Y-2965190D01*
X5613643Y-2974334D01*
X5609071Y-2983478D01*
X5600181Y-2997194D01*
X5554715Y-3042660D01*
X5618215Y-3042660D01*
X4165600Y-4242562D02*
G01*
X4165600Y-4337812D01*
X4165600Y-4242562D02*
G01*
X4206493Y-4242562D01*
X4220209Y-4247134D01*
X4224781Y-4251452D01*
X4229354Y-4260595D01*
X4229354Y-4269739D01*
X4224781Y-4278884D01*
X4220209Y-4283455D01*
X4206493Y-4288028D01*
X4165600Y-4288028D01*
X4197350Y-4288028D02*
G01*
X4229354Y-4337812D01*
X4318254Y-4274312D02*
G01*
X4313681Y-4288028D01*
X4304791Y-4296918D01*
X4291075Y-4301489D01*
X4286504Y-4301489D01*
X4272788Y-4296918D01*
X4263897Y-4288028D01*
X4259325Y-4274312D01*
X4259325Y-4269739D01*
X4263897Y-4256023D01*
X4272788Y-4247134D01*
X4286504Y-4242562D01*
X4291075Y-4242562D01*
X4304791Y-4247134D01*
X4313681Y-4256023D01*
X4318254Y-4274312D01*
X4318254Y-4296918D01*
X4313681Y-4319778D01*
X4304791Y-4333494D01*
X4291075Y-4337812D01*
X4281931Y-4337812D01*
X4268215Y-4333494D01*
X4263897Y-4324350D01*
X5715000Y-4242562D02*
G01*
X5715000Y-4337812D01*
X5715000Y-4242562D02*
G01*
X5755893Y-4242562D01*
X5769609Y-4247134D01*
X5774181Y-4251452D01*
X5778500Y-4260595D01*
X5778500Y-4269739D01*
X5774181Y-4278884D01*
X5769609Y-4283455D01*
X5755893Y-4288028D01*
X5715000Y-4288028D01*
X5746750Y-4288028D02*
G01*
X5778500Y-4337812D01*
X5808725Y-4260595D02*
G01*
X5817615Y-4256023D01*
X5831331Y-4242562D01*
X5831331Y-4337812D01*
X5888736Y-4242562D02*
G01*
X5875020Y-4247134D01*
X5865875Y-4260595D01*
X5861304Y-4283455D01*
X5861304Y-4296918D01*
X5865875Y-4319778D01*
X5875020Y-4333494D01*
X5888736Y-4337812D01*
X5897625Y-4337812D01*
X5911341Y-4333494D01*
X5920486Y-4319778D01*
X5925058Y-4296918D01*
X5925058Y-4283455D01*
X5920486Y-4260595D01*
X5911341Y-4247134D01*
X5897625Y-4242562D01*
X5888736Y-4242562D01*
X5486364Y-138686D02*
G01*
X5486364Y-247652D01*
X5486364Y-138686D02*
G01*
X5533100Y-138686D01*
X5548594Y-143766D01*
X5553928Y-149100D01*
X5559008Y-159514D01*
X5559008Y-169928D01*
X5553928Y-180342D01*
X5548594Y-185422D01*
X5533100Y-190502D01*
X5486364Y-190502D01*
X5522686Y-190502D02*
G01*
X5559008Y-247652D01*
X5655782Y-138686D02*
G01*
X5603712Y-138686D01*
X5598632Y-185422D01*
X5603712Y-180342D01*
X5619460Y-175008D01*
X5634954Y-175008D01*
X5650448Y-180342D01*
X5660862Y-190502D01*
X5666196Y-206250D01*
X5666196Y-216664D01*
X5660862Y-232158D01*
X5650448Y-242572D01*
X5634954Y-247652D01*
X5619460Y-247652D01*
X5603712Y-242572D01*
X5598632Y-237492D01*
X5593298Y-227078D01*
X5765754Y-316486D02*
G01*
X5765754Y-425452D01*
X5765754Y-316486D02*
G01*
X5812490Y-316486D01*
X5827984Y-321566D01*
X5833318Y-326900D01*
X5838398Y-337314D01*
X5838398Y-347728D01*
X5833318Y-358142D01*
X5827984Y-363222D01*
X5812490Y-368302D01*
X5765754Y-368302D01*
X5802076Y-368302D02*
G01*
X5838398Y-425452D01*
X5872688Y-337314D02*
G01*
X5883102Y-331980D01*
X5898850Y-316486D01*
X5898850Y-425452D01*
X5938220Y-342394D02*
G01*
X5938220Y-337314D01*
X5943554Y-326900D01*
X5948634Y-321566D01*
X5959048Y-316486D01*
X5979876Y-316486D01*
X5990290Y-321566D01*
X5995370Y-326900D01*
X6000704Y-337314D01*
X6000704Y-347728D01*
X5995370Y-358142D01*
X5984956Y-373636D01*
X5933140Y-425452D01*
X6005784Y-425452D01*
X6109690Y-838172D02*
G01*
X6000724Y-838172D01*
X6109690Y-838172D02*
G01*
X6109690Y-884908D01*
X6104610Y-900402D01*
X6099276Y-905736D01*
X6088862Y-910816D01*
X6078448Y-910816D01*
X6068034Y-905736D01*
X6062954Y-900402D01*
X6057874Y-884908D01*
X6057874Y-838172D01*
X6057874Y-874494D02*
G01*
X6000724Y-910816D01*
X6088862Y-945106D02*
G01*
X6094196Y-955520D01*
X6109690Y-971268D01*
X6000724Y-971268D01*
X6109690Y-1057374D02*
G01*
X6037046Y-1005558D01*
X6037046Y-1083282D01*
X6109690Y-1057374D02*
G01*
X6000724Y-1057374D01*
X4382500Y-228587D02*
G01*
X4273534Y-228587D01*
X4382500Y-228587D02*
G01*
X4382500Y-275323D01*
X4377420Y-290817D01*
X4372086Y-296151D01*
X4361672Y-301231D01*
X4351258Y-301231D01*
X4340844Y-296151D01*
X4335764Y-290817D01*
X4330684Y-275323D01*
X4330684Y-228587D01*
X4330684Y-264909D02*
G01*
X4273534Y-301231D01*
X4361672Y-335521D02*
G01*
X4367006Y-345935D01*
X4382500Y-361683D01*
X4273534Y-361683D01*
X4346178Y-463537D02*
G01*
X4330684Y-458203D01*
X4320270Y-447789D01*
X4314936Y-432295D01*
X4314936Y-426961D01*
X4320270Y-411467D01*
X4330684Y-401053D01*
X4346178Y-395973D01*
X4351258Y-395973D01*
X4367006Y-401053D01*
X4377420Y-411467D01*
X4382500Y-426961D01*
X4382500Y-432295D01*
X4377420Y-447789D01*
X4367006Y-458203D01*
X4346178Y-463537D01*
X4320270Y-463537D01*
X4294108Y-458203D01*
X4278614Y-447789D01*
X4273534Y-432295D01*
X4273534Y-421881D01*
X4278614Y-406387D01*
X4289028Y-401053D01*
X5347715Y-1904984D02*
G01*
X5269738Y-1904984D01*
X5254243Y-1910064D01*
X5243829Y-1920478D01*
X5238750Y-1936226D01*
X5238750Y-1946640D01*
X5243829Y-1962134D01*
X5254243Y-1972548D01*
X5269738Y-1977628D01*
X5347715Y-1977628D01*
X5326888Y-2011918D02*
G01*
X5332222Y-2022332D01*
X5347715Y-2038080D01*
X5238750Y-2038080D01*
X4761463Y-2590789D02*
G01*
X4839441Y-2590789D01*
X4854935Y-2585709D01*
X4865349Y-2575295D01*
X4870429Y-2559547D01*
X4870429Y-2549133D01*
X4865349Y-2533639D01*
X4854935Y-2523225D01*
X4839441Y-2518145D01*
X4761463Y-2518145D01*
X4761463Y-2473441D02*
G01*
X4761463Y-2416291D01*
X4803119Y-2447279D01*
X4803119Y-2431785D01*
X4808199Y-2421371D01*
X4813279Y-2416291D01*
X4829027Y-2410957D01*
X4839441Y-2410957D01*
X4854935Y-2416291D01*
X4865349Y-2426705D01*
X4870429Y-2442199D01*
X4870429Y-2457693D01*
X4865349Y-2473441D01*
X4860269Y-2478521D01*
X4849855Y-2483855D01*
D45*
X1625600Y-2515362D02*
G01*
X1625600Y-2610865D01*
X1625600Y-2515362D02*
G01*
X1666494Y-2515362D01*
X1680210Y-2519934D01*
X1684781Y-2524505D01*
X1689354Y-2533395D01*
X1689354Y-2542539D01*
X1684781Y-2551684D01*
X1680210Y-2556255D01*
X1666494Y-2560828D01*
X1625600Y-2560828D01*
X1657350Y-2560828D02*
G01*
X1689354Y-2610865D01*
X1755647Y-2515362D02*
G01*
X1719326Y-2610865D01*
X1755647Y-2515362D02*
G01*
X1791970Y-2610865D01*
X1732787Y-2578862D02*
G01*
X1778254Y-2578862D01*
X1885695Y-2528823D02*
G01*
X1876552Y-2519934D01*
X1862836Y-2515362D01*
X1844802Y-2515362D01*
X1831086Y-2519934D01*
X1821942Y-2528823D01*
X1821942Y-2537968D01*
X1826513Y-2547112D01*
X1831086Y-2551684D01*
X1840229Y-2556255D01*
X1867407Y-2565400D01*
X1876552Y-2569718D01*
X1881123Y-2574289D01*
X1885695Y-2583434D01*
X1885695Y-2597150D01*
X1876552Y-2606294D01*
X1862836Y-2610865D01*
X1844802Y-2610865D01*
X1831086Y-2606294D01*
X1821942Y-2597150D01*
X1915668Y-2515362D02*
G01*
X1915668Y-2610865D01*
X1915668Y-2515362D02*
G01*
X1956561Y-2515362D01*
X1970024Y-2519934D01*
X1974595Y-2524505D01*
X1979168Y-2533395D01*
X1979168Y-2547112D01*
X1974595Y-2556255D01*
X1970024Y-2560828D01*
X1956561Y-2565400D01*
X1915668Y-2565400D01*
X2009140Y-2515362D02*
G01*
X2009140Y-2610865D01*
X2009140Y-2515362D02*
G01*
X2050034Y-2515362D01*
X2063750Y-2519934D01*
X2068322Y-2524505D01*
X2072893Y-2533395D01*
X2072893Y-2542539D01*
X2068322Y-2551684D01*
X2063750Y-2556255D01*
X2050034Y-2560828D01*
X2009140Y-2560828D02*
G01*
X2050034Y-2560828D01*
X2063750Y-2565400D01*
X2068322Y-2569718D01*
X2072893Y-2578862D01*
X2072893Y-2592578D01*
X2068322Y-2601721D01*
X2063750Y-2606294D01*
X2050034Y-2610865D01*
X2009140Y-2610865D01*
X2102865Y-2515362D02*
G01*
X2102865Y-2610865D01*
X2102865Y-2515362D02*
G01*
X2162047Y-2515362D01*
X2102865Y-2560828D02*
G01*
X2139188Y-2560828D01*
X2102865Y-2610865D02*
G01*
X2162047Y-2610865D01*
X2192020Y-2515362D02*
G01*
X2192020Y-2610865D01*
X2192020Y-2515362D02*
G01*
X2232913Y-2515362D01*
X2246629Y-2519934D01*
X2250947Y-2524505D01*
X2255520Y-2533395D01*
X2255520Y-2542539D01*
X2250947Y-2551684D01*
X2246629Y-2556255D01*
X2232913Y-2560828D01*
X2192020Y-2560828D01*
X2223770Y-2560828D02*
G01*
X2255520Y-2610865D01*
X2285491Y-2515362D02*
G01*
X2285491Y-2610865D01*
X2285491Y-2515362D02*
G01*
X2326386Y-2515362D01*
X2340102Y-2519934D01*
X2344674Y-2524505D01*
X2349245Y-2533395D01*
X2349245Y-2542539D01*
X2344674Y-2551684D01*
X2340102Y-2556255D01*
X2326386Y-2560828D01*
X2285491Y-2560828D01*
X2317495Y-2560828D02*
G01*
X2349245Y-2610865D01*
X2379218Y-2515362D02*
G01*
X2415540Y-2560828D01*
X2415540Y-2610865D01*
X2451861Y-2515362D02*
G01*
X2415540Y-2560828D01*
X2551938Y-2515362D02*
G01*
X2551938Y-2610865D01*
X2551938Y-2515362D02*
G01*
X2592831Y-2515362D01*
X2606547Y-2519934D01*
X2611120Y-2524505D01*
X2615691Y-2533395D01*
X2615691Y-2547112D01*
X2611120Y-2556255D01*
X2606547Y-2560828D01*
X2592831Y-2565400D01*
X2551938Y-2565400D01*
X2645663Y-2515362D02*
G01*
X2645663Y-2610865D01*
X2745486Y-2515362D02*
G01*
X2745486Y-2610865D01*
X2745486Y-2515362D02*
G01*
X2786379Y-2515362D01*
X2800095Y-2519934D01*
X2804668Y-2524505D01*
X2809240Y-2533395D01*
X2809240Y-2547112D01*
X2804668Y-2556255D01*
X2800095Y-2560828D01*
X2786379Y-2565400D01*
X2745486Y-2565400D01*
X2839211Y-2515362D02*
G01*
X2839211Y-2610865D01*
X2937509Y-2537968D02*
G01*
X2932938Y-2528823D01*
X2923793Y-2519934D01*
X2914650Y-2515362D01*
X2896615Y-2515362D01*
X2887472Y-2519934D01*
X2878327Y-2528823D01*
X2873756Y-2537968D01*
X2869184Y-2551684D01*
X2869184Y-2574289D01*
X2873756Y-2588005D01*
X2878327Y-2597150D01*
X2887472Y-2606294D01*
X2896615Y-2610865D01*
X2914650Y-2610865D01*
X2923793Y-2606294D01*
X2932938Y-2597150D01*
X2937509Y-2588005D01*
X2994659Y-2515362D02*
G01*
X2985515Y-2519934D01*
X2976625Y-2528823D01*
X2972054Y-2537968D01*
X2967481Y-2551684D01*
X2967481Y-2574289D01*
X2972054Y-2588005D01*
X2976625Y-2597150D01*
X2985515Y-2606294D01*
X2994659Y-2610865D01*
X3012947Y-2610865D01*
X3021838Y-2606294D01*
X3030981Y-2597150D01*
X3035554Y-2588005D01*
X3040125Y-2574289D01*
X3040125Y-2551684D01*
X3035554Y-2537968D01*
X3030981Y-2528823D01*
X3021838Y-2519934D01*
X3012947Y-2515362D01*
X2994659Y-2515362D01*
D39*
X756152Y-798068D02*
G01*
X764280Y-793750D01*
X772408Y-785621D01*
X776726Y-777494D01*
X776726Y-761237D01*
X772408Y-752855D01*
X764280Y-744728D01*
X756152Y-740663D01*
X743960Y-736600D01*
X723386Y-736600D01*
X711194Y-740663D01*
X703066Y-744728D01*
X694684Y-752855D01*
X690620Y-761237D01*
X690620Y-777494D01*
X694684Y-785621D01*
X703066Y-793750D01*
X711194Y-798068D01*
X723386Y-798068D01*
X723386Y-777494D02*
G01*
X723386Y-798068D01*
X776726Y-824992D02*
G01*
X690620Y-824992D01*
X776726Y-824992D02*
G01*
X690620Y-882142D01*
X776726Y-882142D02*
G01*
X690620Y-882142D01*
X776726Y-909320D02*
G01*
X690620Y-909320D01*
X776726Y-909320D02*
G01*
X776726Y-937768D01*
X772408Y-950213D01*
X764280Y-958342D01*
X756152Y-962405D01*
X743960Y-966470D01*
X723386Y-966470D01*
X711194Y-962405D01*
X703066Y-958342D01*
X694684Y-950213D01*
X690620Y-937768D01*
X690620Y-909320D01*
G36*
X3635197Y-4589424D02*
G01*
X3635197Y-4621428D01*
X3665677Y-4621428D01*
X3665677Y-4589424D01*
G37*
G36*
X3635197Y-4420971D02*
G01*
X3635197Y-4452924D01*
X3665677Y-4452924D01*
X3665677Y-4420971D01*
G37*
G36*
X2887522Y-458571D02*
G01*
X2887522Y-490575D01*
X2918002Y-490575D01*
X2918002Y-458571D01*
G37*
G36*
X2887522Y-627024D02*
G01*
X2887522Y-659028D01*
X2918002Y-659028D01*
X2918002Y-627024D01*
G37*
G36*
X3497224Y-576122D02*
G01*
X3497224Y-606602D01*
X3529228Y-606602D01*
X3529228Y-576122D01*
G37*
G36*
X3328771Y-576122D02*
G01*
X3328771Y-606602D01*
X3360775Y-606602D01*
X3360775Y-576122D01*
G37*
D14*
X7035782Y-25400D02*
G01*
X7035782Y-4978389D01*
X7365984Y-2031994D02*
G01*
X7365984Y-2997194D01*
X11683977Y-2031994D02*
G01*
X11683977Y-2997194D01*
X7365984Y-2031994D02*
G01*
X11683977Y-2031994D01*
X11683977Y-2997194D02*
G01*
X7365984Y-2997194D01*
X7162800Y-2489200D02*
G01*
X7162800Y-812800D01*
X11887200Y-812800D01*
X11887200Y-4216400D01*
X7162800Y-4216400D01*
X7162800Y-2489200D01*
D11*
X6959587Y-25400D02*
G01*
X6959587Y-4978389D01*
X1015997Y-4521189D02*
G01*
X1015997Y-4470392D01*
X1168397Y-4317992D01*
X2087923Y-4317992D01*
X2235194Y-4521189D02*
G01*
X2235194Y-4470392D01*
X2082794Y-4317992D01*
X2235194Y-4521189D02*
G01*
X2235194Y-4978389D01*
X1015997Y-4978389D02*
G01*
X1015997Y-4521189D01*
X6908787Y-1930394D02*
G01*
X6502387Y-1930394D01*
X6400787Y-2031994D01*
X6908787Y-3149594D02*
G01*
X6603987Y-3149594D01*
X6502387Y-3149594D01*
X6400787Y-3047994D01*
X6400787Y-2031994D01*
D39*
X2613014Y-1260106D02*
G01*
X2741508Y-1260106D01*
X2741508Y-1076688D01*
X2613014Y-1076688D01*
X2517775Y-1260106D02*
G01*
X2389281Y-1260106D01*
X2389281Y-1076688D01*
X2517775Y-1076688D01*
X3819890Y-4264019D02*
G01*
X3819890Y-4392513D01*
X4003309Y-4392513D01*
X4003309Y-4264019D01*
X3819890Y-4168780D02*
G01*
X3819890Y-4040286D01*
X4003309Y-4040286D01*
X4003309Y-4168780D01*
X2758704Y-612777D02*
G01*
X2758704Y-484284D01*
X2575285Y-484284D01*
X2575285Y-612777D01*
X2758704Y-708017D02*
G01*
X2758704Y-836510D01*
X2575285Y-836510D01*
X2575285Y-708017D01*
D10*
X3888783Y-671997D02*
G01*
X3888783Y-851999D01*
X3578781Y-671997D02*
G01*
X3578781Y-851999D01*
X2517185Y-545000D02*
G01*
X2517185Y-725002D01*
X2207183Y-545000D02*
G01*
X2207183Y-725002D01*
D40*
X355600Y-1244597D02*
G01*
X101600Y-1244597D01*
X101600Y-990597D01*
X355600Y-990597D01*
X355600Y-1181097D01*
D41*
X355600Y-1244597D02*
G01*
X355600Y-1181097D01*
D40*
X609600Y-1244600D02*
G01*
X355600Y-1244600D01*
X355600Y-990600D01*
X609600Y-990600D01*
X609600Y-1181100D01*
D41*
X609600Y-1244600D02*
G01*
X609600Y-1181100D01*
D39*
X3543315Y-4062473D02*
G01*
X3365474Y-4062473D01*
X3543315Y-4370311D02*
G01*
X3365474Y-4370311D01*
D10*
X4964582Y-1094803D02*
G01*
X5144584Y-1094803D01*
X4964582Y-979804D02*
G01*
X4964582Y-899802D01*
X4964582Y-784801D02*
G01*
X5144584Y-784801D01*
X5741189Y-1618988D02*
G01*
X5593181Y-1619986D01*
X5727181Y-1429986D02*
G01*
X5593181Y-1429986D01*
X5593181Y-1619986D02*
G01*
X5593181Y-1429984D01*
X5966193Y-1428986D02*
G01*
X5966193Y-1428991D01*
X6001186Y-1463984D01*
X5966193Y-1618988D02*
G01*
X5966193Y-1618983D01*
X6001186Y-1583989D01*
X5841189Y-1618988D02*
G01*
X5966193Y-1618988D01*
X5841189Y-1428986D02*
G01*
X5966193Y-1428986D01*
X6001186Y-1583989D02*
G01*
X6001186Y-1463984D01*
X5761182Y-1573987D02*
G01*
X5761182Y-1473987D01*
X5761182Y-1523481D02*
G01*
X5811182Y-1523481D01*
D39*
X4803909Y-951036D02*
G01*
X4662909Y-951036D01*
X4662909Y-1131757D02*
G01*
X4803909Y-1131757D01*
X4819149Y-1116517D02*
G01*
X4819149Y-966276D01*
X4441670Y-951036D02*
G01*
X4582670Y-951036D01*
X4582670Y-1131757D02*
G01*
X4441670Y-1131757D01*
X4426430Y-1116517D02*
G01*
X4426430Y-966276D01*
X3914912Y-290639D02*
G01*
X3773911Y-290639D01*
X3773911Y-471360D02*
G01*
X3914912Y-471360D01*
X3930152Y-456120D02*
G01*
X3930152Y-305879D01*
X3552672Y-290639D02*
G01*
X3693673Y-290639D01*
X3693673Y-471360D02*
G01*
X3552672Y-471360D01*
X3537432Y-456120D02*
G01*
X3537432Y-305879D01*
X2746514Y-874836D02*
G01*
X2605514Y-874836D01*
X2605514Y-1055557D02*
G01*
X2746514Y-1055557D01*
X2761754Y-1040317D02*
G01*
X2761754Y-890076D01*
X2384275Y-874836D02*
G01*
X2525275Y-874836D01*
X2525275Y-1055557D02*
G01*
X2384275Y-1055557D01*
X2369035Y-1040317D02*
G01*
X2369035Y-890076D01*
X5650026Y-4441670D02*
G01*
X5650026Y-4582670D01*
X5830747Y-4582670D02*
G01*
X5830747Y-4441670D01*
X5815507Y-4426430D02*
G01*
X5665266Y-4426430D01*
X5650026Y-4803909D02*
G01*
X5650026Y-4662909D01*
X5830747Y-4662909D02*
G01*
X5830747Y-4803909D01*
X5815507Y-4819149D02*
G01*
X5665266Y-4819149D01*
X3821231Y-4441670D02*
G01*
X3821231Y-4582670D01*
X4001952Y-4582670D02*
G01*
X4001952Y-4441670D01*
X3986712Y-4426430D02*
G01*
X3836471Y-4426430D01*
X3821231Y-4803909D02*
G01*
X3821231Y-4662909D01*
X4001952Y-4662909D02*
G01*
X4001952Y-4803909D01*
X3986712Y-4819149D02*
G01*
X3836471Y-4819149D01*
X3247875Y-4001952D02*
G01*
X3388875Y-4001952D01*
X3388875Y-3821231D02*
G01*
X3247875Y-3821231D01*
X3232635Y-3836471D02*
G01*
X3232635Y-3986712D01*
X3610114Y-4001952D02*
G01*
X3469114Y-4001952D01*
X3469114Y-3821231D02*
G01*
X3610114Y-3821231D01*
X3625354Y-3836471D02*
G01*
X3625354Y-3986712D01*
X5878626Y-4441670D02*
G01*
X5878626Y-4582670D01*
X6059347Y-4582670D02*
G01*
X6059347Y-4441670D01*
X6044107Y-4426430D02*
G01*
X5893866Y-4426430D01*
X5878626Y-4803909D02*
G01*
X5878626Y-4662909D01*
X6059347Y-4662909D02*
G01*
X6059347Y-4803909D01*
X6044107Y-4819149D02*
G01*
X5893866Y-4819149D01*
X5007109Y-1154236D02*
G01*
X4866109Y-1154236D01*
X4866109Y-1334957D02*
G01*
X5007109Y-1334957D01*
X5022349Y-1319717D02*
G01*
X5022349Y-1169476D01*
X4644870Y-1154236D02*
G01*
X4785870Y-1154236D01*
X4785870Y-1334957D02*
G01*
X4644870Y-1334957D01*
X4629630Y-1319717D02*
G01*
X4629630Y-1169476D01*
X2340114Y-214439D02*
G01*
X2199114Y-214439D01*
X2199114Y-395160D02*
G01*
X2340114Y-395160D01*
X2355354Y-379920D02*
G01*
X2355354Y-229679D01*
X1977875Y-214439D02*
G01*
X2118875Y-214439D01*
X2118875Y-395160D02*
G01*
X1977875Y-395160D01*
X1962635Y-379920D02*
G01*
X1962635Y-229679D01*
X5932347Y-2187714D02*
G01*
X5932347Y-2046714D01*
X5751626Y-2046714D02*
G01*
X5751626Y-2187714D01*
X5766866Y-2202954D02*
G01*
X5917107Y-2202954D01*
X5932347Y-1825475D02*
G01*
X5932347Y-1966475D01*
X5751626Y-1966475D02*
G01*
X5751626Y-1825475D01*
X5766866Y-1810235D02*
G01*
X5917107Y-1810235D01*
X5718309Y-2221034D02*
G01*
X5577309Y-2221034D01*
X5577309Y-2401755D02*
G01*
X5718309Y-2401755D01*
X5733549Y-2386515D02*
G01*
X5733549Y-2236274D01*
X5356070Y-2221034D02*
G01*
X5497070Y-2221034D01*
X5497070Y-2401755D02*
G01*
X5356070Y-2401755D01*
X5340830Y-2386515D02*
G01*
X5340830Y-2236274D01*
X3642814Y-4428566D02*
G01*
X3367570Y-4428566D01*
X3642814Y-4613813D02*
G01*
X3367570Y-4613813D01*
X3367570Y-4613813D02*
G01*
X3367570Y-4594509D01*
X3367570Y-4428566D02*
G01*
X3367570Y-4447870D01*
X3596871Y-4608812D02*
G01*
X3596871Y-4433567D01*
X2910372Y-651423D02*
G01*
X3185617Y-651423D01*
X2910372Y-466176D02*
G01*
X3185617Y-466176D01*
X3185617Y-466176D02*
G01*
X3185617Y-485480D01*
X3185617Y-651423D02*
G01*
X3185617Y-632119D01*
X2956316Y-471177D02*
G01*
X2956316Y-646422D01*
X3336368Y-598975D02*
G01*
X3336368Y-874219D01*
X3521616Y-598975D02*
G01*
X3521616Y-874219D01*
X3521616Y-874219D02*
G01*
X3502312Y-874219D01*
X3336368Y-874219D02*
G01*
X3355672Y-874219D01*
X3516614Y-644918D02*
G01*
X3341370Y-644918D01*
D10*
X1096596Y-4902189D02*
G01*
X1096596Y-4648189D01*
X2154598Y-4902189D02*
G01*
X1096596Y-4902189D01*
X1877245Y-4902189D02*
G01*
X1877245Y-4648189D01*
X2154598Y-4648189D02*
G01*
X1096596Y-4648189D01*
X2154598Y-4902189D02*
G01*
X2154598Y-4648189D01*
X6629387Y-2010994D02*
G01*
X6883387Y-2010994D01*
X6629387Y-3068995D02*
G01*
X6629387Y-2010994D01*
X6629387Y-2791642D02*
G01*
X6883387Y-2791642D01*
X6883387Y-3068995D02*
G01*
X6883387Y-2010994D01*
X6629387Y-3068995D02*
G01*
X6883387Y-3068995D01*
D39*
X2669354Y-4570613D02*
G01*
X2642974Y-4570613D01*
X2642974Y-4065371D01*
X2669354Y-4065371D01*
X3121835Y-4570613D02*
G01*
X3148215Y-4570613D01*
X3148215Y-4065371D01*
X3121835Y-4065371D01*
D10*
X2901795Y-1104798D02*
G01*
X2901795Y-1018397D01*
X2901795Y-1018397D02*
G01*
X3001797Y-1018397D01*
X3041794Y-1199794D02*
G01*
X3041794Y-1137000D01*
X2901795Y-1318397D02*
G01*
X2901795Y-1231996D01*
X2901795Y-1318397D02*
G01*
X3001797Y-1318397D01*
D39*
X6156678Y-2257414D02*
G01*
X6156678Y-2385908D01*
X6340096Y-2385908D01*
X6340096Y-2257414D01*
X6156678Y-2162175D02*
G01*
X6156678Y-2033681D01*
X6340096Y-2033681D01*
X6340096Y-2162175D01*
X5718167Y-1152888D02*
G01*
X5589673Y-1152888D01*
X5589673Y-1336306D01*
X5718167Y-1336306D01*
X5813407Y-1152888D02*
G01*
X5941900Y-1152888D01*
X5941900Y-1336306D01*
X5813407Y-1336306D01*
X5343880Y-1622417D02*
G01*
X5343880Y-1750910D01*
X5527299Y-1750910D01*
X5527299Y-1622417D01*
X5343880Y-1527177D02*
G01*
X5343880Y-1398684D01*
X5527299Y-1398684D01*
X5527299Y-1527177D01*
X2943214Y-421909D02*
G01*
X3071708Y-421909D01*
X3071708Y-238490D01*
X2943214Y-238490D01*
X2847975Y-421909D02*
G01*
X2719481Y-421909D01*
X2719481Y-238490D01*
X2847975Y-238490D01*
X5991207Y-3139704D02*
G01*
X6119700Y-3139704D01*
X6119700Y-2956285D01*
X5991207Y-2956285D01*
X5895967Y-3139704D02*
G01*
X5767473Y-3139704D01*
X5767473Y-2956285D01*
X5895967Y-2956285D01*
X5953478Y-2257414D02*
G01*
X5953478Y-2385908D01*
X6136896Y-2385908D01*
X6136896Y-2257414D01*
X5953478Y-2162175D02*
G01*
X5953478Y-2033681D01*
X6136896Y-2033681D01*
X6136896Y-2162175D01*
X5699483Y-3603612D02*
G01*
X5699483Y-3732105D01*
X5882901Y-3732105D01*
X5882901Y-3603612D01*
X5699483Y-3508372D02*
G01*
X5699483Y-3379878D01*
X5882901Y-3379878D01*
X5882901Y-3508372D01*
X5496280Y-3603612D02*
G01*
X5496280Y-3732105D01*
X5679699Y-3732105D01*
X5679699Y-3603612D01*
X5496280Y-3508372D02*
G01*
X5496280Y-3379878D01*
X5679699Y-3379878D01*
X5679699Y-3508372D01*
X5470878Y-987417D02*
G01*
X5470878Y-1115910D01*
X5654296Y-1115910D01*
X5654296Y-987417D01*
X5470878Y-892177D02*
G01*
X5470878Y-763684D01*
X5654296Y-763684D01*
X5654296Y-892177D01*
X4619612Y-4612899D02*
G01*
X4748105Y-4612899D01*
X4748105Y-4429480D01*
X4619612Y-4429480D01*
X4524372Y-4612899D02*
G01*
X4395878Y-4612899D01*
X4395878Y-4429480D01*
X4524372Y-4429480D01*
X5330809Y-4612899D02*
G01*
X5459303Y-4612899D01*
X5459303Y-4429480D01*
X5330809Y-4429480D01*
X5235569Y-4612899D02*
G01*
X5107076Y-4612899D01*
X5107076Y-4429480D01*
X5235569Y-4429480D01*
D10*
X5366986Y-2472791D02*
G01*
X6316987Y-2472791D01*
X5561584Y-2590794D02*
G01*
X5561584Y-2552694D01*
X5561584Y-2514594D01*
X5561584Y-2552694D01*
X5366986Y-2472791D02*
G01*
X5366986Y-2962798D01*
X5366986Y-2967794D01*
X5416486Y-2967794D01*
X5416486Y-2917794D01*
X6267488Y-2917794D01*
X6267488Y-2967794D01*
X6317521Y-2967794D01*
X6317521Y-2962798D01*
X6317521Y-2472791D01*
X4071592Y-3768189D02*
G01*
X5021592Y-3768189D01*
X4266189Y-3886192D02*
G01*
X4266189Y-3848092D01*
X4266189Y-3809992D01*
X4266189Y-3848092D01*
X4071592Y-3768189D02*
G01*
X4071592Y-4258195D01*
X4071592Y-4263191D01*
X4121091Y-4263191D01*
X4121091Y-4213191D01*
X4972093Y-4213191D01*
X4972093Y-4263191D01*
X5022126Y-4263191D01*
X5022126Y-4258195D01*
X5022126Y-3768189D01*
X5062189Y-3768189D02*
G01*
X6012190Y-3768189D01*
X5256786Y-3886192D02*
G01*
X5256786Y-3848092D01*
X5256786Y-3809992D01*
X5256786Y-3848092D01*
X5062189Y-3768189D02*
G01*
X5062189Y-4258195D01*
X5062189Y-4263191D01*
X5111689Y-4263191D01*
X5111689Y-4213191D01*
X5962690Y-4213191D01*
X5962690Y-4263191D01*
X6012723Y-4263191D01*
X6012723Y-4258195D01*
X6012723Y-3768189D01*
D39*
X5654299Y-409580D02*
G01*
X5654299Y-281086D01*
X5470880Y-281086D01*
X5470880Y-409580D01*
X5654299Y-504819D02*
G01*
X5654299Y-633313D01*
X5470880Y-633313D01*
X5470880Y-504819D01*
X5819767Y-467090D02*
G01*
X5691273Y-467090D01*
X5691273Y-650509D01*
X5819767Y-650509D01*
X5915007Y-467090D02*
G01*
X6043500Y-467090D01*
X6043500Y-650509D01*
X5915007Y-650509D01*
X5775678Y-987417D02*
G01*
X5775678Y-1115910D01*
X5959096Y-1115910D01*
X5959096Y-987417D01*
X5775678Y-892177D02*
G01*
X5775678Y-763684D01*
X5959096Y-763684D01*
X5959096Y-892177D01*
X4444956Y-608208D02*
G01*
X4444956Y-107970D01*
X5410197Y-107970D01*
X5410197Y-608208D01*
X4444956Y-608208D01*
X4422096Y-608208D02*
G01*
X4422096Y-107970D01*
D10*
X5692195Y-2071199D02*
G01*
X5692195Y-1891197D01*
X5577197Y-2071199D02*
G01*
X5497195Y-2071199D01*
X5382193Y-2071199D02*
G01*
X5382193Y-1891197D01*
X91688Y-3564592D02*
G01*
X91688Y-1464520D01*
X5191500Y-1464520D01*
X5191500Y-3564592D01*
X91688Y-3564592D01*
D40*
X863597Y-1244597D02*
G01*
X609597Y-1244597D01*
X609597Y-990597D01*
X863597Y-990597D01*
X863597Y-1181097D01*
D41*
X863597Y-1244597D02*
G01*
X863597Y-1181097D01*
D39*
G75*
G01*
X4803910Y-1131758D02*
G03*
X4819150Y-1116518I0J15240D01*
G75*
G01*
X4819150Y-966277D02*
G03*
X4803910Y-951037I-15240J0D01*
G75*
G01*
X4441670Y-1131758D02*
G02*
X4426430Y-1116518I0J15240D01*
G75*
G01*
X4426430Y-966277D02*
G02*
X4441670Y-951037I15240J0D01*
G75*
G01*
X3914912Y-471360D02*
G03*
X3930152Y-456120I0J15240D01*
G75*
G01*
X3930152Y-305880D02*
G03*
X3914912Y-290640I-15240J0D01*
G75*
G01*
X3552673Y-471360D02*
G02*
X3537433Y-456120I0J15240D01*
G75*
G01*
X3537433Y-305880D02*
G02*
X3552673Y-290640I15240J0D01*
G75*
G01*
X2746515Y-1055558D02*
G03*
X2761755Y-1040318I0J15240D01*
G75*
G01*
X2761755Y-890077D02*
G03*
X2746515Y-874837I-15240J0D01*
G75*
G01*
X2384275Y-1055558D02*
G02*
X2369035Y-1040318I0J15240D01*
G75*
G01*
X2369035Y-890077D02*
G02*
X2384275Y-874837I15240J0D01*
G75*
G01*
X5830748Y-4441670D02*
G03*
X5815508Y-4426430I-15240J0D01*
G75*
G01*
X5665267Y-4426430D02*
G03*
X5650027Y-4441670I0J-15240D01*
G75*
G01*
X5830748Y-4803910D02*
G02*
X5815508Y-4819150I-15240J0D01*
G75*
G01*
X5665267Y-4819150D02*
G02*
X5650027Y-4803910I0J15240D01*
G75*
G01*
X4001953Y-4441670D02*
G03*
X3986713Y-4426430I-15240J0D01*
G75*
G01*
X3836472Y-4426430D02*
G03*
X3821232Y-4441670I0J-15240D01*
G75*
G01*
X4001953Y-4803910D02*
G02*
X3986713Y-4819150I-15240J0D01*
G75*
G01*
X3836472Y-4819150D02*
G02*
X3821232Y-4803910I0J15240D01*
G75*
G01*
X3247875Y-3821232D02*
G03*
X3232635Y-3836472I0J-15240D01*
G75*
G01*
X3232635Y-3986713D02*
G03*
X3247875Y-4001953I15240J0D01*
G75*
G01*
X3610115Y-3821232D02*
G02*
X3625355Y-3836472I0J-15240D01*
G75*
G01*
X3625355Y-3986713D02*
G02*
X3610115Y-4001953I-15240J0D01*
G75*
G01*
X6059348Y-4441670D02*
G03*
X6044108Y-4426430I-15240J0D01*
G75*
G01*
X5893867Y-4426430D02*
G03*
X5878627Y-4441670I0J-15240D01*
G75*
G01*
X6059348Y-4803910D02*
G02*
X6044108Y-4819150I-15240J0D01*
G75*
G01*
X5893867Y-4819150D02*
G02*
X5878627Y-4803910I0J15240D01*
G75*
G01*
X5007110Y-1334958D02*
G03*
X5022350Y-1319718I0J15240D01*
G75*
G01*
X5022350Y-1169477D02*
G03*
X5007110Y-1154237I-15240J0D01*
G75*
G01*
X4644870Y-1334958D02*
G02*
X4629630Y-1319718I0J15240D01*
G75*
G01*
X4629630Y-1169477D02*
G02*
X4644870Y-1154237I15240J0D01*
G75*
G01*
X2340115Y-395160D02*
G03*
X2355355Y-379920I0J15240D01*
G75*
G01*
X2355355Y-229680D02*
G03*
X2340115Y-214440I-15240J0D01*
G75*
G01*
X1977875Y-395160D02*
G02*
X1962635Y-379920I0J15240D01*
G75*
G01*
X1962635Y-229680D02*
G02*
X1977875Y-214440I15240J0D01*
G75*
G01*
X5751627Y-2187715D02*
G03*
X5766867Y-2202955I15240J0D01*
G75*
G01*
X5917108Y-2202955D02*
G03*
X5932348Y-2187715I0J15240D01*
G75*
G01*
X5751627Y-1825475D02*
G02*
X5766867Y-1810235I15240J0D01*
G75*
G01*
X5917108Y-1810235D02*
G02*
X5932348Y-1825475I0J-15240D01*
G75*
G01*
X5718310Y-2401755D02*
G03*
X5733550Y-2386515I0J15240D01*
G75*
G01*
X5733550Y-2236274D02*
G03*
X5718310Y-2221034I-15240J0D01*
G75*
G01*
X5356070Y-2401755D02*
G02*
X5340830Y-2386515I0J15240D01*
G75*
G01*
X5340830Y-2236274D02*
G02*
X5356070Y-2221034I15240J0D01*
D10*
G75*
G01*
X5561584Y-2498847D02*
G03*
X5562600Y-2498847I508J-53879D01*
G75*
G01*
X4266189Y-3794244D02*
G03*
X4267205Y-3794244I508J-53880D01*
G75*
G01*
X5256787Y-3794244D02*
G03*
X5257803Y-3794244I508J-53880D01*
G75*
G01
X3581400Y-901700D02*
G03X3581400Y-901700I-12700J0D01*
G75*
G01
X2209800Y-774700D02*
G03X2209800Y-774700I-12700J0D01*
D14*
G75*
G01
X3599561Y-4383227D02*
G03X3599561Y-4383227I-15011J0D01*
D10*
G75*
G01
X5219675Y-1104900D02*
G03X5219675Y-1104900I-12700J0D01*
G75*
G01
X5714975Y-1828775D02*
G03X5714975Y-1828775I-12700J0D01*
M02*
