G04 Layer: BottomLayer*
G04 EasyEDA v6.5.38, 2023-12-09 12:24:54*
G04 bf440a20a08f4097bebf48ea32ac6b6d,9a5be75d700b4a6385dc1106f27949ae,10*
G04 Gerber Generator version 0.2*
G04 Scale: 100 percent, Rotated: No, Reflected: No *
G04 Dimensions in millimeters *
G04 leading zeros omitted , absolute positions ,4 integer and 5 decimal *
%FSLAX45Y45*%
%MOMM*%

%AMMACRO1*4,1,5,0.4572,-0.1588,0.4572,0.5779,-0.4572,0.5779,-0.4572,-0.1588,0,-0.5779,0.4572,-0.1588,0*%
%AMMACRO2*4,1,5,-0.4572,0.5524,-0.4572,-0.5524,0.4572,-0.5524,0.4572,0.5524,0,0.1334,-0.4572,0.5524,0*%
%ADD10C,0.2100*%
%ADD11C,0.4000*%
%ADD12MACRO1*%
%ADD13MACRO2*%
%ADD14R,1.7000X1.7000*%
%ADD15C,1.7000*%
%ADD16C,2.2000*%
%ADD17C,2.0000*%
%ADD18C,1.5240*%
%ADD19R,1.5748X1.7000*%
%ADD20R,1.5748X1.5748*%
%ADD21C,5.5000*%
%ADD22C,0.8200*%
%ADD23C,0.6200*%
%ADD24C,0.0128*%

%LPD*%
G36*
X7051040Y-4971745D02*
G01*
X6742836Y-4971643D01*
X6738569Y-4970678D01*
X6735064Y-4968036D01*
X6733031Y-4964125D01*
X6732828Y-4959756D01*
X6734454Y-4955692D01*
X6737654Y-4952695D01*
X6741820Y-4951374D01*
X6747967Y-4950764D01*
X6771894Y-4946396D01*
X6795363Y-4940198D01*
X6818274Y-4932172D01*
X6840474Y-4922316D01*
X6861860Y-4910734D01*
X6882180Y-4897475D01*
X6901434Y-4882642D01*
X6919468Y-4866335D01*
X6936130Y-4848656D01*
X6951319Y-4829708D01*
X6964984Y-4809642D01*
X6976973Y-4788509D01*
X6987235Y-4766513D01*
X6995769Y-4743754D01*
X7002424Y-4720386D01*
X7007250Y-4696612D01*
X7010146Y-4672482D01*
X7010298Y-4668215D01*
X6725615Y-4668215D01*
X6725615Y-4961432D01*
X6724853Y-4965344D01*
X6722618Y-4968646D01*
X6719316Y-4970830D01*
X6715455Y-4971592D01*
X6695744Y-4971592D01*
X6691884Y-4970830D01*
X6688581Y-4968646D01*
X6686346Y-4965344D01*
X6685584Y-4961432D01*
X6685584Y-4668215D01*
X6400952Y-4668215D01*
X6402273Y-4684572D01*
X6406134Y-4708550D01*
X6411874Y-4732121D01*
X6419443Y-4755235D01*
X6428892Y-4777638D01*
X6440017Y-4799177D01*
X6452870Y-4819802D01*
X6467297Y-4839360D01*
X6483248Y-4857699D01*
X6500571Y-4874666D01*
X6519214Y-4890262D01*
X6539026Y-4904282D01*
X6559905Y-4916728D01*
X6581698Y-4927447D01*
X6604304Y-4936388D01*
X6627520Y-4943551D01*
X6651244Y-4948834D01*
X6669481Y-4951374D01*
X6673545Y-4952898D01*
X6676644Y-4955946D01*
X6678168Y-4959959D01*
X6677863Y-4964277D01*
X6675780Y-4968087D01*
X6672325Y-4970678D01*
X6668109Y-4971592D01*
X407263Y-4969560D01*
X403098Y-4968646D01*
X399643Y-4966106D01*
X397560Y-4962398D01*
X397154Y-4958130D01*
X398576Y-4954117D01*
X401523Y-4951018D01*
X405434Y-4949393D01*
X421893Y-4946396D01*
X445363Y-4940198D01*
X468274Y-4932172D01*
X490524Y-4922316D01*
X511860Y-4910734D01*
X532231Y-4897475D01*
X551484Y-4882642D01*
X569468Y-4866335D01*
X586130Y-4848656D01*
X601319Y-4829708D01*
X614984Y-4809642D01*
X626973Y-4788509D01*
X637286Y-4766513D01*
X645769Y-4743754D01*
X652475Y-4720386D01*
X657250Y-4696612D01*
X660146Y-4672482D01*
X660298Y-4668215D01*
X375615Y-4668215D01*
X375615Y-4959400D01*
X374853Y-4963261D01*
X372618Y-4966563D01*
X369316Y-4968748D01*
X365455Y-4969560D01*
X345744Y-4969510D01*
X341884Y-4968748D01*
X338582Y-4966563D01*
X336397Y-4963261D01*
X335635Y-4959350D01*
X335635Y-4668215D01*
X51003Y-4668215D01*
X52273Y-4684572D01*
X56134Y-4708550D01*
X61874Y-4732121D01*
X69494Y-4755235D01*
X78892Y-4777638D01*
X90017Y-4799177D01*
X102870Y-4819802D01*
X117297Y-4839360D01*
X133248Y-4857699D01*
X150571Y-4874666D01*
X169214Y-4890262D01*
X189077Y-4904282D01*
X209956Y-4916728D01*
X231749Y-4927447D01*
X254304Y-4936388D01*
X277520Y-4943551D01*
X301244Y-4948834D01*
X304647Y-4949291D01*
X308711Y-4950815D01*
X311759Y-4953863D01*
X313283Y-4957876D01*
X312978Y-4962194D01*
X310946Y-4966004D01*
X307441Y-4968595D01*
X303225Y-4969510D01*
X200456Y-4969459D01*
X182880Y-4968544D01*
X166471Y-4966055D01*
X150317Y-4961991D01*
X134721Y-4956352D01*
X119684Y-4949190D01*
X105460Y-4940604D01*
X92151Y-4930648D01*
X79857Y-4919421D01*
X68732Y-4907076D01*
X58826Y-4893716D01*
X50342Y-4879441D01*
X43281Y-4864354D01*
X37693Y-4848707D01*
X33731Y-4832553D01*
X31343Y-4816094D01*
X30530Y-4799025D01*
X30530Y-4666640D01*
X31495Y-4662271D01*
X30530Y-4658055D01*
X30530Y-4638344D01*
X31445Y-4634077D01*
X30530Y-4629759D01*
X30530Y-374040D01*
X31495Y-369671D01*
X30530Y-365455D01*
X30530Y-345744D01*
X31445Y-341477D01*
X30530Y-337210D01*
X30530Y-200964D01*
X31445Y-182880D01*
X33934Y-166471D01*
X37998Y-150317D01*
X43637Y-134721D01*
X50800Y-119684D01*
X59385Y-105460D01*
X69342Y-92151D01*
X80568Y-79857D01*
X92913Y-68732D01*
X106273Y-58826D01*
X120548Y-50342D01*
X135636Y-43281D01*
X151282Y-37693D01*
X167436Y-33731D01*
X183896Y-31343D01*
X200964Y-30530D01*
X338328Y-30530D01*
X341884Y-31292D01*
X345795Y-30530D01*
X365455Y-30530D01*
X369366Y-31292D01*
X370738Y-32207D01*
X371754Y-31445D01*
X376021Y-30530D01*
X6688328Y-30530D01*
X6691884Y-31292D01*
X6695744Y-30530D01*
X6715455Y-30530D01*
X6719316Y-31292D01*
X6720738Y-32207D01*
X6721754Y-31445D01*
X6726021Y-30530D01*
X7051040Y-30530D01*
X7054900Y-31292D01*
X7058202Y-33477D01*
X7060387Y-36779D01*
X7061200Y-40690D01*
X7061200Y-4961585D01*
X7060387Y-4965446D01*
X7058202Y-4968748D01*
X7054900Y-4970932D01*
G37*

%LPC*%
G36*
X886968Y-4890668D02*
G01*
X1043432Y-4890668D01*
X1049883Y-4890058D01*
X1055573Y-4888331D01*
X1060856Y-4885486D01*
X1065479Y-4881727D01*
X1069238Y-4877104D01*
X1072083Y-4871821D01*
X1073810Y-4866132D01*
X1074420Y-4859680D01*
X1074420Y-4690668D01*
X1073810Y-4684217D01*
X1072083Y-4678527D01*
X1069238Y-4673244D01*
X1065479Y-4668621D01*
X1060856Y-4664862D01*
X1055573Y-4662068D01*
X1049883Y-4660290D01*
X1043432Y-4659680D01*
X886968Y-4659680D01*
X880516Y-4660290D01*
X874776Y-4662068D01*
X869543Y-4664862D01*
X864920Y-4668621D01*
X861110Y-4673244D01*
X858316Y-4678527D01*
X856589Y-4684217D01*
X855929Y-4690668D01*
X855929Y-4859680D01*
X856589Y-4866132D01*
X858316Y-4871821D01*
X861110Y-4877104D01*
X864920Y-4881727D01*
X869543Y-4885486D01*
X874776Y-4888331D01*
X880516Y-4890058D01*
G37*
G36*
X1465935Y-4890414D02*
G01*
X1480464Y-4890414D01*
X1494840Y-4888636D01*
X1508861Y-4885029D01*
X1522374Y-4879695D01*
X1535074Y-4872685D01*
X1546809Y-4864150D01*
X1557375Y-4854244D01*
X1566621Y-4843068D01*
X1574393Y-4830826D01*
X1580591Y-4817719D01*
X1585061Y-4803902D01*
X1587754Y-4789678D01*
X1588668Y-4775200D01*
X1587754Y-4760722D01*
X1585061Y-4746447D01*
X1580591Y-4732680D01*
X1574393Y-4719523D01*
X1566621Y-4707280D01*
X1557375Y-4696104D01*
X1546809Y-4686198D01*
X1535074Y-4677664D01*
X1522374Y-4670704D01*
X1508861Y-4665370D01*
X1494840Y-4661763D01*
X1480464Y-4659934D01*
X1465935Y-4659934D01*
X1451559Y-4661763D01*
X1437487Y-4665370D01*
X1424025Y-4670704D01*
X1411325Y-4677664D01*
X1399590Y-4686198D01*
X1389024Y-4696104D01*
X1379778Y-4707280D01*
X1372006Y-4719523D01*
X1365808Y-4732680D01*
X1361338Y-4746447D01*
X1358595Y-4760722D01*
X1357731Y-4775200D01*
X1358595Y-4789678D01*
X1361338Y-4803902D01*
X1365808Y-4817719D01*
X1372006Y-4830826D01*
X1379778Y-4843068D01*
X1389024Y-4854244D01*
X1399590Y-4864150D01*
X1411325Y-4872685D01*
X1424025Y-4879695D01*
X1437487Y-4885029D01*
X1451559Y-4888636D01*
G37*
G36*
X1211935Y-4890414D02*
G01*
X1226464Y-4890414D01*
X1240840Y-4888636D01*
X1254861Y-4885029D01*
X1268374Y-4879695D01*
X1281074Y-4872685D01*
X1292809Y-4864150D01*
X1303375Y-4854244D01*
X1312621Y-4843068D01*
X1320393Y-4830826D01*
X1326591Y-4817719D01*
X1331061Y-4803902D01*
X1333754Y-4789678D01*
X1334668Y-4775200D01*
X1333754Y-4760722D01*
X1331061Y-4746447D01*
X1326591Y-4732680D01*
X1320393Y-4719523D01*
X1312621Y-4707280D01*
X1303375Y-4696104D01*
X1292809Y-4686198D01*
X1281074Y-4677664D01*
X1268374Y-4670704D01*
X1254861Y-4665370D01*
X1240840Y-4661763D01*
X1226464Y-4659934D01*
X1211935Y-4659934D01*
X1197559Y-4661763D01*
X1183487Y-4665370D01*
X1170025Y-4670704D01*
X1157325Y-4677664D01*
X1145590Y-4686198D01*
X1135024Y-4696104D01*
X1125778Y-4707280D01*
X1118006Y-4719523D01*
X1111808Y-4732680D01*
X1107338Y-4746447D01*
X1104595Y-4760722D01*
X1103731Y-4775200D01*
X1104595Y-4789678D01*
X1107338Y-4803902D01*
X1111808Y-4817719D01*
X1118006Y-4830826D01*
X1125778Y-4843068D01*
X1135024Y-4854244D01*
X1145590Y-4864150D01*
X1157325Y-4872685D01*
X1170025Y-4879695D01*
X1183487Y-4885029D01*
X1197559Y-4888636D01*
G37*
G36*
X2989935Y-4890414D02*
G01*
X3004464Y-4890414D01*
X3018840Y-4888636D01*
X3032861Y-4885029D01*
X3046374Y-4879695D01*
X3059074Y-4872685D01*
X3070809Y-4864150D01*
X3081375Y-4854244D01*
X3090621Y-4843068D01*
X3098393Y-4830826D01*
X3104591Y-4817719D01*
X3109061Y-4803902D01*
X3111754Y-4789678D01*
X3112668Y-4775200D01*
X3111754Y-4760722D01*
X3109061Y-4746447D01*
X3104591Y-4732680D01*
X3098393Y-4719523D01*
X3090621Y-4707280D01*
X3081375Y-4696104D01*
X3070809Y-4686198D01*
X3059074Y-4677664D01*
X3046374Y-4670704D01*
X3044647Y-4669993D01*
X3041243Y-4667808D01*
X3039008Y-4664506D01*
X3038195Y-4660544D01*
X3038195Y-3480308D01*
X3037382Y-3471824D01*
X3035046Y-3464102D01*
X3031236Y-3457041D01*
X3025851Y-3450437D01*
X2833014Y-3257600D01*
X2830982Y-3254705D01*
X2830068Y-3251301D01*
X2829255Y-3241090D01*
X2826715Y-3231235D01*
X2822651Y-3221939D01*
X2817114Y-3213455D01*
X2810256Y-3205988D01*
X2802229Y-3199739D01*
X2793288Y-3194913D01*
X2783687Y-3191611D01*
X2773680Y-3189935D01*
X2763520Y-3189935D01*
X2753512Y-3191611D01*
X2743911Y-3194913D01*
X2734970Y-3199739D01*
X2726944Y-3205988D01*
X2720086Y-3213455D01*
X2714548Y-3221939D01*
X2710484Y-3231235D01*
X2707944Y-3241090D01*
X2707132Y-3251200D01*
X2707944Y-3261309D01*
X2710484Y-3271164D01*
X2714548Y-3280460D01*
X2720086Y-3288944D01*
X2726944Y-3296412D01*
X2734970Y-3302660D01*
X2743911Y-3307486D01*
X2753512Y-3310788D01*
X2763520Y-3312464D01*
X2767685Y-3312464D01*
X2771546Y-3313226D01*
X2774848Y-3315462D01*
X2953207Y-3493820D01*
X2955442Y-3497122D01*
X2956204Y-3500983D01*
X2956204Y-4660544D01*
X2955391Y-4664506D01*
X2953156Y-4667808D01*
X2949752Y-4669993D01*
X2948025Y-4670704D01*
X2935325Y-4677664D01*
X2923590Y-4686198D01*
X2913024Y-4696104D01*
X2903778Y-4707280D01*
X2896006Y-4719523D01*
X2889808Y-4732680D01*
X2885338Y-4746447D01*
X2882595Y-4760722D01*
X2881731Y-4775200D01*
X2882595Y-4789678D01*
X2885338Y-4803902D01*
X2889808Y-4817719D01*
X2896006Y-4830826D01*
X2903778Y-4843068D01*
X2913024Y-4854244D01*
X2923590Y-4864150D01*
X2935325Y-4872685D01*
X2948025Y-4879695D01*
X2961487Y-4885029D01*
X2975559Y-4888636D01*
G37*
G36*
X3243935Y-4890414D02*
G01*
X3258464Y-4890414D01*
X3272840Y-4888636D01*
X3286861Y-4885029D01*
X3300374Y-4879695D01*
X3313074Y-4872685D01*
X3324809Y-4864150D01*
X3335375Y-4854244D01*
X3344621Y-4843068D01*
X3352393Y-4830826D01*
X3358591Y-4817719D01*
X3363061Y-4803902D01*
X3365754Y-4789678D01*
X3366668Y-4775200D01*
X3365754Y-4760722D01*
X3363061Y-4746447D01*
X3358591Y-4732680D01*
X3352393Y-4719523D01*
X3344621Y-4707280D01*
X3335375Y-4696104D01*
X3324809Y-4686198D01*
X3313074Y-4677664D01*
X3300374Y-4670704D01*
X3298647Y-4669993D01*
X3295243Y-4667808D01*
X3293008Y-4664506D01*
X3292195Y-4660544D01*
X3292195Y-3480308D01*
X3291382Y-3471824D01*
X3289046Y-3464102D01*
X3285236Y-3457041D01*
X3279851Y-3450437D01*
X3087014Y-3257600D01*
X3084982Y-3254705D01*
X3084068Y-3251301D01*
X3083255Y-3241090D01*
X3080715Y-3231235D01*
X3076651Y-3221939D01*
X3071114Y-3213455D01*
X3064256Y-3205988D01*
X3056229Y-3199739D01*
X3047288Y-3194913D01*
X3037687Y-3191611D01*
X3027680Y-3189935D01*
X3017520Y-3189935D01*
X3007512Y-3191611D01*
X2997911Y-3194913D01*
X2988970Y-3199739D01*
X2980944Y-3205988D01*
X2974086Y-3213455D01*
X2968548Y-3221939D01*
X2964484Y-3231235D01*
X2961944Y-3241090D01*
X2961132Y-3251200D01*
X2961944Y-3261309D01*
X2964484Y-3271164D01*
X2968548Y-3280460D01*
X2974086Y-3288944D01*
X2980944Y-3296412D01*
X2988970Y-3302660D01*
X2997911Y-3307486D01*
X3007512Y-3310788D01*
X3017520Y-3312464D01*
X3021685Y-3312464D01*
X3025546Y-3313226D01*
X3028848Y-3315462D01*
X3207207Y-3493820D01*
X3209442Y-3497122D01*
X3210204Y-3500983D01*
X3210204Y-4660544D01*
X3209391Y-4664506D01*
X3207156Y-4667808D01*
X3203752Y-4669993D01*
X3202025Y-4670704D01*
X3189325Y-4677664D01*
X3177590Y-4686198D01*
X3167024Y-4696104D01*
X3157778Y-4707280D01*
X3150006Y-4719523D01*
X3143808Y-4732680D01*
X3139338Y-4746447D01*
X3136595Y-4760722D01*
X3135731Y-4775200D01*
X3136595Y-4789678D01*
X3139338Y-4803902D01*
X3143808Y-4817719D01*
X3150006Y-4830826D01*
X3157778Y-4843068D01*
X3167024Y-4854244D01*
X3177590Y-4864150D01*
X3189325Y-4872685D01*
X3202025Y-4879695D01*
X3215487Y-4885029D01*
X3229559Y-4888636D01*
G37*
G36*
X2481935Y-4890414D02*
G01*
X2496464Y-4890414D01*
X2510840Y-4888636D01*
X2524861Y-4885029D01*
X2538374Y-4879695D01*
X2551074Y-4872685D01*
X2562809Y-4864150D01*
X2573375Y-4854244D01*
X2582621Y-4843068D01*
X2590393Y-4830826D01*
X2596591Y-4817719D01*
X2601061Y-4803902D01*
X2603754Y-4789678D01*
X2604668Y-4775200D01*
X2603754Y-4760722D01*
X2601061Y-4746447D01*
X2596591Y-4732680D01*
X2590393Y-4719523D01*
X2582621Y-4707280D01*
X2573375Y-4696104D01*
X2562809Y-4686198D01*
X2551074Y-4677664D01*
X2538374Y-4670704D01*
X2536647Y-4669993D01*
X2533243Y-4667808D01*
X2531008Y-4664506D01*
X2530195Y-4660544D01*
X2530195Y-4242308D01*
X2529382Y-4233824D01*
X2527046Y-4226102D01*
X2523236Y-4219041D01*
X2517851Y-4212437D01*
X1563014Y-3257651D01*
X1560982Y-3254705D01*
X1560068Y-3251301D01*
X1559255Y-3241090D01*
X1556766Y-3231235D01*
X1552651Y-3221939D01*
X1547114Y-3213455D01*
X1540256Y-3205988D01*
X1532229Y-3199739D01*
X1523288Y-3194913D01*
X1513687Y-3191611D01*
X1503680Y-3189935D01*
X1493520Y-3189935D01*
X1483512Y-3191611D01*
X1473911Y-3194913D01*
X1464970Y-3199739D01*
X1456944Y-3205988D01*
X1450086Y-3213455D01*
X1444548Y-3221939D01*
X1440484Y-3231235D01*
X1437944Y-3241090D01*
X1437132Y-3251200D01*
X1437944Y-3261309D01*
X1440484Y-3271164D01*
X1444548Y-3280460D01*
X1450086Y-3288944D01*
X1456944Y-3296412D01*
X1464970Y-3302660D01*
X1473911Y-3307486D01*
X1483512Y-3310788D01*
X1493520Y-3312464D01*
X1497685Y-3312464D01*
X1501546Y-3313226D01*
X1504848Y-3315462D01*
X2445207Y-4255820D01*
X2447442Y-4259122D01*
X2448204Y-4262983D01*
X2448204Y-4660544D01*
X2447391Y-4664506D01*
X2445156Y-4667808D01*
X2441752Y-4669993D01*
X2440025Y-4670704D01*
X2427325Y-4677664D01*
X2415590Y-4686198D01*
X2405024Y-4696104D01*
X2395778Y-4707280D01*
X2388006Y-4719523D01*
X2381808Y-4732680D01*
X2377338Y-4746447D01*
X2374595Y-4760722D01*
X2373731Y-4775200D01*
X2374595Y-4789678D01*
X2377338Y-4803902D01*
X2381808Y-4817719D01*
X2388006Y-4830826D01*
X2395778Y-4843068D01*
X2405024Y-4854244D01*
X2415590Y-4864150D01*
X2427325Y-4872685D01*
X2440025Y-4879695D01*
X2453487Y-4885029D01*
X2467559Y-4888636D01*
G37*
G36*
X2735935Y-4890414D02*
G01*
X2750464Y-4890414D01*
X2764840Y-4888636D01*
X2778861Y-4885029D01*
X2792374Y-4879695D01*
X2805074Y-4872685D01*
X2816809Y-4864150D01*
X2827375Y-4854244D01*
X2836621Y-4843068D01*
X2844393Y-4830826D01*
X2850591Y-4817719D01*
X2855061Y-4803902D01*
X2857754Y-4789678D01*
X2858668Y-4775200D01*
X2857754Y-4760722D01*
X2855061Y-4746447D01*
X2850591Y-4732680D01*
X2844393Y-4719523D01*
X2836621Y-4707280D01*
X2827375Y-4696104D01*
X2816809Y-4686198D01*
X2805074Y-4677664D01*
X2792374Y-4670704D01*
X2790647Y-4669993D01*
X2787243Y-4667808D01*
X2785008Y-4664506D01*
X2784195Y-4660544D01*
X2784195Y-4242308D01*
X2783382Y-4233824D01*
X2781046Y-4226102D01*
X2777236Y-4219041D01*
X2771851Y-4212437D01*
X1817014Y-3257600D01*
X1814982Y-3254705D01*
X1814068Y-3251301D01*
X1813255Y-3241090D01*
X1810766Y-3231235D01*
X1806651Y-3221939D01*
X1801114Y-3213455D01*
X1794256Y-3205988D01*
X1786229Y-3199739D01*
X1777288Y-3194913D01*
X1767687Y-3191611D01*
X1757680Y-3189935D01*
X1747520Y-3189935D01*
X1737512Y-3191611D01*
X1727911Y-3194913D01*
X1718970Y-3199739D01*
X1710943Y-3205988D01*
X1704086Y-3213455D01*
X1698548Y-3221939D01*
X1694484Y-3231235D01*
X1691944Y-3241090D01*
X1691132Y-3251200D01*
X1691944Y-3261309D01*
X1694484Y-3271164D01*
X1698548Y-3280460D01*
X1704086Y-3288944D01*
X1710943Y-3296412D01*
X1718970Y-3302660D01*
X1727911Y-3307486D01*
X1737512Y-3310788D01*
X1747520Y-3312464D01*
X1751685Y-3312464D01*
X1755546Y-3313226D01*
X1758848Y-3315462D01*
X2699207Y-4255820D01*
X2701442Y-4259122D01*
X2702204Y-4262983D01*
X2702204Y-4660544D01*
X2701391Y-4664506D01*
X2699156Y-4667808D01*
X2695752Y-4669993D01*
X2694025Y-4670704D01*
X2681325Y-4677664D01*
X2669590Y-4686198D01*
X2659024Y-4696104D01*
X2649778Y-4707280D01*
X2642006Y-4719523D01*
X2635808Y-4732680D01*
X2631338Y-4746447D01*
X2628595Y-4760722D01*
X2627731Y-4775200D01*
X2628595Y-4789678D01*
X2631338Y-4803902D01*
X2635808Y-4817719D01*
X2642006Y-4830826D01*
X2649778Y-4843068D01*
X2659024Y-4854244D01*
X2669590Y-4864150D01*
X2681325Y-4872685D01*
X2694025Y-4879695D01*
X2707487Y-4885029D01*
X2721559Y-4888636D01*
G37*
G36*
X2227935Y-4890414D02*
G01*
X2242464Y-4890414D01*
X2256840Y-4888636D01*
X2270861Y-4885029D01*
X2284374Y-4879695D01*
X2297074Y-4872685D01*
X2308809Y-4864150D01*
X2319375Y-4854244D01*
X2328621Y-4843068D01*
X2336393Y-4830826D01*
X2342591Y-4817719D01*
X2347061Y-4803902D01*
X2349754Y-4789678D01*
X2350668Y-4775200D01*
X2349754Y-4760722D01*
X2347061Y-4746447D01*
X2342591Y-4732680D01*
X2336393Y-4719523D01*
X2328621Y-4707280D01*
X2319375Y-4696104D01*
X2308809Y-4686198D01*
X2297074Y-4677664D01*
X2284374Y-4670704D01*
X2282647Y-4669993D01*
X2279243Y-4667808D01*
X2277008Y-4664506D01*
X2276195Y-4660544D01*
X2276195Y-4242308D01*
X2275382Y-4233824D01*
X2273046Y-4226102D01*
X2269236Y-4219041D01*
X2263851Y-4212437D01*
X1309014Y-3257600D01*
X1306982Y-3254705D01*
X1306068Y-3251301D01*
X1305255Y-3241090D01*
X1302766Y-3231235D01*
X1298651Y-3221939D01*
X1293114Y-3213455D01*
X1286256Y-3205988D01*
X1278229Y-3199739D01*
X1269288Y-3194913D01*
X1259687Y-3191611D01*
X1249680Y-3189935D01*
X1239520Y-3189935D01*
X1229512Y-3191611D01*
X1219911Y-3194913D01*
X1210970Y-3199739D01*
X1202944Y-3205988D01*
X1196086Y-3213455D01*
X1190548Y-3221939D01*
X1186484Y-3231235D01*
X1183944Y-3241090D01*
X1183132Y-3251200D01*
X1183944Y-3261309D01*
X1186484Y-3271164D01*
X1190548Y-3280460D01*
X1196086Y-3288944D01*
X1202944Y-3296412D01*
X1210970Y-3302660D01*
X1219911Y-3307486D01*
X1229512Y-3310788D01*
X1239520Y-3312464D01*
X1243685Y-3312464D01*
X1247546Y-3313226D01*
X1250848Y-3315462D01*
X2191207Y-4255820D01*
X2193442Y-4259122D01*
X2194204Y-4262983D01*
X2194204Y-4660544D01*
X2193391Y-4664506D01*
X2191156Y-4667808D01*
X2187752Y-4669993D01*
X2186025Y-4670704D01*
X2173325Y-4677664D01*
X2161590Y-4686198D01*
X2151024Y-4696104D01*
X2141778Y-4707280D01*
X2134006Y-4719523D01*
X2127808Y-4732680D01*
X2123338Y-4746447D01*
X2120595Y-4760722D01*
X2119731Y-4775200D01*
X2120595Y-4789678D01*
X2123338Y-4803902D01*
X2127808Y-4817719D01*
X2134006Y-4830826D01*
X2141778Y-4843068D01*
X2151024Y-4854244D01*
X2161590Y-4864150D01*
X2173325Y-4872685D01*
X2186025Y-4879695D01*
X2199487Y-4885029D01*
X2213559Y-4888636D01*
G37*
G36*
X1973935Y-4890414D02*
G01*
X1988464Y-4890414D01*
X2002840Y-4888636D01*
X2016861Y-4885029D01*
X2030374Y-4879695D01*
X2043074Y-4872685D01*
X2054809Y-4864150D01*
X2065375Y-4854244D01*
X2074621Y-4843068D01*
X2082393Y-4830826D01*
X2088591Y-4817719D01*
X2093061Y-4803902D01*
X2095754Y-4789678D01*
X2096668Y-4775200D01*
X2095754Y-4760722D01*
X2093061Y-4746447D01*
X2088591Y-4732680D01*
X2082393Y-4719523D01*
X2074621Y-4707280D01*
X2065375Y-4696104D01*
X2054809Y-4686198D01*
X2043074Y-4677664D01*
X2030374Y-4670704D01*
X2028647Y-4669993D01*
X2025243Y-4667808D01*
X2023008Y-4664506D01*
X2022195Y-4660544D01*
X2022195Y-4242308D01*
X2021382Y-4233824D01*
X2019046Y-4226102D01*
X2015236Y-4219041D01*
X2009851Y-4212437D01*
X1055014Y-3257600D01*
X1052982Y-3254705D01*
X1052068Y-3251301D01*
X1051255Y-3241090D01*
X1048766Y-3231235D01*
X1044651Y-3221939D01*
X1039114Y-3213455D01*
X1032256Y-3205988D01*
X1024229Y-3199739D01*
X1015288Y-3194913D01*
X1005687Y-3191611D01*
X995680Y-3189935D01*
X985519Y-3189935D01*
X975512Y-3191611D01*
X965911Y-3194913D01*
X956970Y-3199739D01*
X948944Y-3205988D01*
X942086Y-3213455D01*
X936548Y-3221939D01*
X932484Y-3231235D01*
X929944Y-3241090D01*
X929132Y-3251200D01*
X929944Y-3261309D01*
X932484Y-3271164D01*
X936548Y-3280460D01*
X942086Y-3288944D01*
X948944Y-3296412D01*
X956970Y-3302660D01*
X965911Y-3307486D01*
X975512Y-3310788D01*
X985519Y-3312464D01*
X989685Y-3312464D01*
X993546Y-3313226D01*
X996848Y-3315462D01*
X1937207Y-4255820D01*
X1939442Y-4259122D01*
X1940204Y-4262983D01*
X1940204Y-4660544D01*
X1939391Y-4664506D01*
X1937156Y-4667808D01*
X1933752Y-4669993D01*
X1932025Y-4670704D01*
X1919325Y-4677664D01*
X1907590Y-4686198D01*
X1897024Y-4696104D01*
X1887778Y-4707280D01*
X1880006Y-4719523D01*
X1873808Y-4732680D01*
X1869338Y-4746447D01*
X1866595Y-4760722D01*
X1865731Y-4775200D01*
X1866595Y-4789678D01*
X1869338Y-4803902D01*
X1873808Y-4817719D01*
X1880006Y-4830826D01*
X1887778Y-4843068D01*
X1897024Y-4854244D01*
X1907590Y-4864150D01*
X1919325Y-4872685D01*
X1932025Y-4879695D01*
X1945487Y-4885029D01*
X1959559Y-4888636D01*
G37*
G36*
X1707184Y-4888839D02*
G01*
X1707184Y-4795164D01*
X1613662Y-4795164D01*
X1615338Y-4803902D01*
X1619808Y-4817719D01*
X1626006Y-4830826D01*
X1633778Y-4843068D01*
X1643024Y-4854244D01*
X1653590Y-4864150D01*
X1665325Y-4872685D01*
X1678025Y-4879695D01*
X1691487Y-4885029D01*
X1705559Y-4888636D01*
G37*
G36*
X1747215Y-4888839D02*
G01*
X1748840Y-4888636D01*
X1762861Y-4885029D01*
X1776374Y-4879695D01*
X1789074Y-4872685D01*
X1800809Y-4864150D01*
X1811375Y-4854244D01*
X1820621Y-4843068D01*
X1828393Y-4830826D01*
X1834591Y-4817719D01*
X1839061Y-4803902D01*
X1840687Y-4795164D01*
X1747215Y-4795164D01*
G37*
G36*
X1613662Y-4755184D02*
G01*
X1707184Y-4755184D01*
X1707184Y-4661560D01*
X1705559Y-4661763D01*
X1691487Y-4665370D01*
X1678025Y-4670704D01*
X1665325Y-4677664D01*
X1653590Y-4686198D01*
X1643024Y-4696104D01*
X1633778Y-4707280D01*
X1626006Y-4719523D01*
X1619808Y-4732680D01*
X1615338Y-4746447D01*
G37*
G36*
X1747215Y-4755184D02*
G01*
X1840687Y-4755184D01*
X1839061Y-4746447D01*
X1834591Y-4732680D01*
X1828393Y-4719523D01*
X1820621Y-4707280D01*
X1811375Y-4696104D01*
X1800809Y-4686198D01*
X1789074Y-4677664D01*
X1776374Y-4670704D01*
X1762861Y-4665370D01*
X1748840Y-4661763D01*
X1747215Y-4661560D01*
G37*
G36*
X51003Y-4628184D02*
G01*
X335635Y-4628184D01*
X335635Y-4343603D01*
X325272Y-4344212D01*
X301244Y-4347565D01*
X277520Y-4352848D01*
X254304Y-4360011D01*
X231749Y-4368952D01*
X209956Y-4379671D01*
X189077Y-4392117D01*
X169214Y-4406138D01*
X150571Y-4421733D01*
X133248Y-4438700D01*
X117297Y-4457039D01*
X102870Y-4476597D01*
X90017Y-4497222D01*
X78892Y-4518761D01*
X69494Y-4541164D01*
X61874Y-4564278D01*
X56134Y-4587849D01*
X52273Y-4611827D01*
G37*
G36*
X6400952Y-4628184D02*
G01*
X6685584Y-4628184D01*
X6685584Y-4343603D01*
X6675272Y-4344212D01*
X6651244Y-4347565D01*
X6627520Y-4352848D01*
X6604304Y-4360011D01*
X6581698Y-4368952D01*
X6559905Y-4379671D01*
X6539026Y-4392117D01*
X6519214Y-4406138D01*
X6500571Y-4421733D01*
X6483248Y-4438700D01*
X6467297Y-4457039D01*
X6452870Y-4476597D01*
X6440017Y-4497222D01*
X6428892Y-4518761D01*
X6419443Y-4541164D01*
X6411874Y-4564278D01*
X6406134Y-4587849D01*
X6402273Y-4611827D01*
G37*
G36*
X375615Y-4628184D02*
G01*
X660298Y-4628184D01*
X660146Y-4623917D01*
X657250Y-4599787D01*
X652475Y-4576013D01*
X645769Y-4552645D01*
X637286Y-4529886D01*
X626973Y-4507890D01*
X614984Y-4486757D01*
X601319Y-4466691D01*
X586130Y-4447743D01*
X569468Y-4430064D01*
X551484Y-4413758D01*
X532231Y-4398924D01*
X511860Y-4385665D01*
X490524Y-4374083D01*
X468274Y-4364228D01*
X445363Y-4356201D01*
X421893Y-4350004D01*
X398018Y-4345635D01*
X375615Y-4343400D01*
G37*
G36*
X6725615Y-4628184D02*
G01*
X7010298Y-4628184D01*
X7010146Y-4623917D01*
X7007250Y-4599787D01*
X7002424Y-4576013D01*
X6995769Y-4552645D01*
X6987235Y-4529886D01*
X6976973Y-4507890D01*
X6964984Y-4486757D01*
X6951319Y-4466691D01*
X6936130Y-4447743D01*
X6919468Y-4430064D01*
X6901434Y-4413758D01*
X6882180Y-4398924D01*
X6861860Y-4385665D01*
X6840474Y-4374083D01*
X6818274Y-4364228D01*
X6795363Y-4356201D01*
X6771894Y-4350004D01*
X6747967Y-4345635D01*
X6725615Y-4343400D01*
G37*
G36*
X5199684Y-4053433D02*
G01*
X5214315Y-4053433D01*
X5228844Y-4051604D01*
X5243068Y-4047947D01*
X5256682Y-4042562D01*
X5269534Y-4035501D01*
X5281371Y-4026915D01*
X5292039Y-4016857D01*
X5301386Y-4005579D01*
X5309260Y-3993184D01*
X5315508Y-3979926D01*
X5320030Y-3966006D01*
X5322773Y-3951630D01*
X5323687Y-3937000D01*
X5322773Y-3922369D01*
X5320030Y-3907993D01*
X5315508Y-3894023D01*
X5309260Y-3880764D01*
X5301386Y-3868420D01*
X5292039Y-3857091D01*
X5281371Y-3847084D01*
X5269534Y-3838448D01*
X5256682Y-3831386D01*
X5243068Y-3826001D01*
X5228844Y-3822395D01*
X5214315Y-3820515D01*
X5199684Y-3820515D01*
X5185156Y-3822395D01*
X5170932Y-3826001D01*
X5157317Y-3831386D01*
X5144465Y-3838448D01*
X5132628Y-3847084D01*
X5121960Y-3857091D01*
X5112613Y-3868420D01*
X5104739Y-3880764D01*
X5098491Y-3894023D01*
X5093970Y-3907993D01*
X5091226Y-3922369D01*
X5090312Y-3937000D01*
X5091226Y-3951630D01*
X5093970Y-3966006D01*
X5098491Y-3979926D01*
X5104739Y-3993184D01*
X5112613Y-4005579D01*
X5121960Y-4016857D01*
X5132628Y-4026915D01*
X5144465Y-4035501D01*
X5157317Y-4042562D01*
X5170932Y-4047947D01*
X5185156Y-4051604D01*
G37*
G36*
X6228384Y-4050487D02*
G01*
X6228384Y-3931615D01*
X6109563Y-3931615D01*
X6110681Y-3939489D01*
X6114796Y-3954983D01*
X6120587Y-3969969D01*
X6128054Y-3984142D01*
X6137148Y-3997401D01*
X6147663Y-4009491D01*
X6159449Y-4020362D01*
X6172454Y-4029760D01*
X6186424Y-4037685D01*
X6201156Y-4043934D01*
X6216548Y-4048455D01*
G37*
G36*
X6736384Y-4050487D02*
G01*
X6736384Y-3931615D01*
X6617563Y-3931615D01*
X6618681Y-3939489D01*
X6622796Y-3954983D01*
X6628587Y-3969969D01*
X6636054Y-3984142D01*
X6645148Y-3997401D01*
X6655663Y-4009491D01*
X6667449Y-4020362D01*
X6680453Y-4029760D01*
X6694424Y-4037685D01*
X6709156Y-4043934D01*
X6724548Y-4048455D01*
G37*
G36*
X6268415Y-4050487D02*
G01*
X6280200Y-4048455D01*
X6295593Y-4043934D01*
X6310376Y-4037685D01*
X6324346Y-4029760D01*
X6337300Y-4020362D01*
X6349136Y-4009491D01*
X6359652Y-3997401D01*
X6368694Y-3984142D01*
X6376162Y-3969969D01*
X6382004Y-3954983D01*
X6386068Y-3939489D01*
X6387236Y-3931615D01*
X6268415Y-3931615D01*
G37*
G36*
X6776415Y-4050487D02*
G01*
X6788200Y-4048455D01*
X6803593Y-4043934D01*
X6818375Y-4037685D01*
X6832346Y-4029760D01*
X6845300Y-4020362D01*
X6857136Y-4009491D01*
X6867652Y-3997401D01*
X6876694Y-3984142D01*
X6884162Y-3969969D01*
X6890003Y-3954983D01*
X6894068Y-3939489D01*
X6895236Y-3931615D01*
X6776415Y-3931615D01*
G37*
G36*
X4953000Y-4043679D02*
G01*
X4966919Y-4042765D01*
X4980635Y-4040022D01*
X4993843Y-4035551D01*
X5006340Y-4029405D01*
X5017922Y-4021632D01*
X5028438Y-4012437D01*
X5037632Y-4001922D01*
X5045405Y-3990340D01*
X5051552Y-3977843D01*
X5056073Y-3964584D01*
X5058765Y-3950919D01*
X5059680Y-3937000D01*
X5058765Y-3923080D01*
X5056073Y-3909364D01*
X5051552Y-3896156D01*
X5045405Y-3883660D01*
X5037632Y-3872026D01*
X5028438Y-3861562D01*
X5017922Y-3852367D01*
X5006340Y-3844594D01*
X4993843Y-3838448D01*
X4980635Y-3833926D01*
X4966919Y-3831234D01*
X4953000Y-3830320D01*
X4939080Y-3831234D01*
X4925415Y-3833926D01*
X4912156Y-3838448D01*
X4899660Y-3844594D01*
X4888077Y-3852367D01*
X4877562Y-3861562D01*
X4868367Y-3872026D01*
X4860594Y-3883660D01*
X4854448Y-3896156D01*
X4849977Y-3909364D01*
X4847234Y-3923080D01*
X4846320Y-3937000D01*
X4847234Y-3950919D01*
X4849977Y-3964584D01*
X4854448Y-3977843D01*
X4860594Y-3990340D01*
X4868367Y-4001922D01*
X4877562Y-4012437D01*
X4888077Y-4021632D01*
X4899660Y-4029405D01*
X4912156Y-4035551D01*
X4925415Y-4040022D01*
X4939080Y-4042765D01*
G37*
G36*
X4699000Y-4043679D02*
G01*
X4712919Y-4042765D01*
X4726635Y-4040022D01*
X4739843Y-4035551D01*
X4752340Y-4029405D01*
X4763922Y-4021632D01*
X4774438Y-4012437D01*
X4783632Y-4001922D01*
X4791405Y-3990340D01*
X4797552Y-3977843D01*
X4802073Y-3964584D01*
X4804765Y-3950919D01*
X4805680Y-3937000D01*
X4804765Y-3923080D01*
X4802073Y-3909364D01*
X4797552Y-3896156D01*
X4791405Y-3883660D01*
X4783632Y-3872026D01*
X4774438Y-3861562D01*
X4763922Y-3852367D01*
X4752340Y-3844594D01*
X4739843Y-3838448D01*
X4726635Y-3833926D01*
X4712919Y-3831234D01*
X4699000Y-3830320D01*
X4685080Y-3831234D01*
X4671415Y-3833926D01*
X4658156Y-3838448D01*
X4645660Y-3844594D01*
X4634077Y-3852367D01*
X4623562Y-3861562D01*
X4614367Y-3872026D01*
X4606594Y-3883660D01*
X4600448Y-3896156D01*
X4595977Y-3909364D01*
X4593234Y-3923080D01*
X4592320Y-3937000D01*
X4593234Y-3950919D01*
X4595977Y-3964584D01*
X4600448Y-3977843D01*
X4606594Y-3990340D01*
X4614367Y-4001922D01*
X4623562Y-4012437D01*
X4634077Y-4021632D01*
X4645660Y-4029405D01*
X4658156Y-4035551D01*
X4671415Y-4040022D01*
X4685080Y-4042765D01*
G37*
G36*
X6109309Y-3891584D02*
G01*
X6228384Y-3891584D01*
X6228384Y-3772712D01*
X6224422Y-3773170D01*
X6208826Y-3776776D01*
X6193688Y-3782161D01*
X6179312Y-3789273D01*
X6165799Y-3797909D01*
X6153404Y-3808069D01*
X6142228Y-3819601D01*
X6132423Y-3832301D01*
X6124143Y-3846017D01*
X6117488Y-3860596D01*
X6112510Y-3875887D01*
G37*
G36*
X6617309Y-3891584D02*
G01*
X6736384Y-3891584D01*
X6736384Y-3772712D01*
X6732422Y-3773170D01*
X6716826Y-3776776D01*
X6701688Y-3782161D01*
X6687312Y-3789273D01*
X6673799Y-3797909D01*
X6661403Y-3808069D01*
X6650228Y-3819601D01*
X6640423Y-3832301D01*
X6632143Y-3846017D01*
X6625488Y-3860596D01*
X6620509Y-3875887D01*
G37*
G36*
X6268415Y-3891584D02*
G01*
X6387439Y-3891584D01*
X6384239Y-3875887D01*
X6379311Y-3860596D01*
X6372656Y-3846017D01*
X6364376Y-3832301D01*
X6354572Y-3819601D01*
X6343396Y-3808069D01*
X6330950Y-3797909D01*
X6317488Y-3789273D01*
X6303060Y-3782161D01*
X6287973Y-3776776D01*
X6272326Y-3773170D01*
X6268415Y-3772712D01*
G37*
G36*
X6776415Y-3891584D02*
G01*
X6895439Y-3891584D01*
X6892239Y-3875887D01*
X6887311Y-3860596D01*
X6880656Y-3846017D01*
X6872376Y-3832301D01*
X6862572Y-3819601D01*
X6851396Y-3808069D01*
X6838950Y-3797909D01*
X6825488Y-3789273D01*
X6811060Y-3782161D01*
X6795973Y-3776776D01*
X6780326Y-3773170D01*
X6776415Y-3772712D01*
G37*
G36*
X6502400Y-3808069D02*
G01*
X6519214Y-3807155D01*
X6535877Y-3804310D01*
X6552082Y-3799636D01*
X6567678Y-3793185D01*
X6582460Y-3785006D01*
X6596227Y-3775252D01*
X6608825Y-3764026D01*
X6620052Y-3751427D01*
X6629806Y-3737660D01*
X6637985Y-3722878D01*
X6644436Y-3707282D01*
X6649110Y-3691077D01*
X6651955Y-3674465D01*
X6652869Y-3657600D01*
X6651955Y-3640734D01*
X6649110Y-3624122D01*
X6644436Y-3607866D01*
X6637985Y-3592322D01*
X6629806Y-3577539D01*
X6620052Y-3563772D01*
X6608825Y-3551174D01*
X6596227Y-3539947D01*
X6582460Y-3530142D01*
X6567678Y-3522014D01*
X6552082Y-3515563D01*
X6535877Y-3510889D01*
X6519214Y-3508044D01*
X6502400Y-3507079D01*
X6485534Y-3508044D01*
X6468922Y-3510889D01*
X6452666Y-3515563D01*
X6437071Y-3522014D01*
X6422339Y-3530142D01*
X6408572Y-3539947D01*
X6395974Y-3551174D01*
X6384747Y-3563772D01*
X6374942Y-3577539D01*
X6366814Y-3592322D01*
X6360363Y-3607866D01*
X6355689Y-3624122D01*
X6352844Y-3640734D01*
X6351879Y-3657600D01*
X6352844Y-3674465D01*
X6355689Y-3691077D01*
X6360363Y-3707282D01*
X6366814Y-3722878D01*
X6374942Y-3737660D01*
X6384747Y-3751427D01*
X6395974Y-3764026D01*
X6408572Y-3775252D01*
X6422339Y-3785006D01*
X6437071Y-3793185D01*
X6452666Y-3799636D01*
X6468922Y-3804310D01*
X6485534Y-3807155D01*
G37*
G36*
X2743200Y-3754475D02*
G01*
X2754376Y-3753612D01*
X2765298Y-3750970D01*
X2775661Y-3746703D01*
X2785211Y-3740810D01*
X2793746Y-3733546D01*
X2801010Y-3725011D01*
X2806903Y-3715461D01*
X2811170Y-3705098D01*
X2813812Y-3694176D01*
X2814675Y-3683000D01*
X2813812Y-3671824D01*
X2811170Y-3660901D01*
X2806903Y-3650538D01*
X2801010Y-3640988D01*
X2793746Y-3632454D01*
X2785211Y-3625189D01*
X2775661Y-3619296D01*
X2765298Y-3615029D01*
X2754376Y-3612387D01*
X2746908Y-3611829D01*
X2743454Y-3610914D01*
X2740507Y-3608882D01*
X1610664Y-2479040D01*
X1607261Y-2475890D01*
X1603756Y-2473248D01*
X1600047Y-2470861D01*
X1596136Y-2468829D01*
X1592072Y-2467152D01*
X1587855Y-2465832D01*
X1583588Y-2464866D01*
X1579219Y-2464308D01*
X1574596Y-2464104D01*
X1193546Y-2464104D01*
X1189634Y-2463292D01*
X1186332Y-2461107D01*
X547928Y-1822704D01*
X545693Y-1819351D01*
X544931Y-1815490D01*
X545744Y-1811578D01*
X550570Y-1800047D01*
X553212Y-1789175D01*
X554075Y-1778000D01*
X553212Y-1766824D01*
X550570Y-1755902D01*
X546303Y-1745538D01*
X540410Y-1735988D01*
X533146Y-1727454D01*
X524611Y-1720189D01*
X515061Y-1714296D01*
X504698Y-1710029D01*
X493776Y-1707388D01*
X482600Y-1706524D01*
X471424Y-1707388D01*
X460501Y-1710029D01*
X450138Y-1714296D01*
X440588Y-1720189D01*
X432054Y-1727454D01*
X424789Y-1735988D01*
X418896Y-1745538D01*
X414629Y-1755902D01*
X411988Y-1766824D01*
X411124Y-1778000D01*
X411988Y-1789175D01*
X414629Y-1800098D01*
X418896Y-1810461D01*
X424789Y-1820011D01*
X429869Y-1826006D01*
X431495Y-1828596D01*
X432257Y-1831543D01*
X432917Y-1837689D01*
X433832Y-1841855D01*
X435152Y-1846072D01*
X436829Y-1850136D01*
X438861Y-1854047D01*
X441248Y-1857756D01*
X443941Y-1861261D01*
X447040Y-1864664D01*
X1132535Y-2550160D01*
X1135938Y-2553258D01*
X1139444Y-2555951D01*
X1143152Y-2558338D01*
X1147064Y-2560370D01*
X1151128Y-2562047D01*
X1155344Y-2563368D01*
X1159611Y-2564333D01*
X1163980Y-2564892D01*
X1168603Y-2565095D01*
X1549654Y-2565095D01*
X1553565Y-2565857D01*
X1556867Y-2568092D01*
X2669082Y-3680307D01*
X2671114Y-3683203D01*
X2672029Y-3686657D01*
X2672588Y-3694176D01*
X2675229Y-3705098D01*
X2679496Y-3715461D01*
X2685389Y-3725011D01*
X2692654Y-3733546D01*
X2701188Y-3740810D01*
X2710738Y-3746703D01*
X2721102Y-3750970D01*
X2732024Y-3753612D01*
G37*
G36*
X6736384Y-3542639D02*
G01*
X6736384Y-3423615D01*
X6617512Y-3423615D01*
X6617970Y-3427526D01*
X6621576Y-3443173D01*
X6626961Y-3458260D01*
X6634073Y-3472687D01*
X6642709Y-3486150D01*
X6652869Y-3498596D01*
X6664401Y-3509772D01*
X6677101Y-3519576D01*
X6690817Y-3527856D01*
X6705396Y-3534511D01*
X6720687Y-3539490D01*
G37*
G36*
X6228384Y-3542639D02*
G01*
X6228384Y-3423615D01*
X6109512Y-3423615D01*
X6109970Y-3427526D01*
X6113576Y-3443173D01*
X6118961Y-3458260D01*
X6126073Y-3472687D01*
X6134709Y-3486150D01*
X6144869Y-3498596D01*
X6156401Y-3509772D01*
X6169101Y-3519576D01*
X6182817Y-3527856D01*
X6197396Y-3534511D01*
X6212687Y-3539490D01*
G37*
G36*
X6268415Y-3542436D02*
G01*
X6276289Y-3541268D01*
X6291783Y-3537204D01*
X6306769Y-3531362D01*
X6320942Y-3523894D01*
X6334201Y-3514851D01*
X6346291Y-3504336D01*
X6357162Y-3492500D01*
X6366560Y-3479546D01*
X6374485Y-3465576D01*
X6380683Y-3450793D01*
X6385204Y-3435400D01*
X6387287Y-3423615D01*
X6268415Y-3423615D01*
G37*
G36*
X6776415Y-3542436D02*
G01*
X6784289Y-3541268D01*
X6799783Y-3537204D01*
X6814769Y-3531362D01*
X6828942Y-3523894D01*
X6842201Y-3514851D01*
X6854291Y-3504336D01*
X6865162Y-3492500D01*
X6874560Y-3479546D01*
X6882485Y-3465576D01*
X6888683Y-3450793D01*
X6893204Y-3435400D01*
X6895287Y-3423615D01*
X6776415Y-3423615D01*
G37*
G36*
X6776415Y-3383584D02*
G01*
X6895287Y-3383584D01*
X6893204Y-3371748D01*
X6888683Y-3356406D01*
X6882485Y-3341624D01*
X6874560Y-3327654D01*
X6865162Y-3314649D01*
X6854291Y-3302863D01*
X6842201Y-3292348D01*
X6828942Y-3283305D01*
X6814769Y-3275787D01*
X6799783Y-3269996D01*
X6784289Y-3265881D01*
X6776415Y-3264763D01*
G37*
G36*
X6268415Y-3383584D02*
G01*
X6387287Y-3383584D01*
X6385204Y-3371748D01*
X6380683Y-3356406D01*
X6374485Y-3341624D01*
X6366560Y-3327654D01*
X6357162Y-3314649D01*
X6346291Y-3302863D01*
X6334201Y-3292348D01*
X6320942Y-3283305D01*
X6306769Y-3275787D01*
X6291783Y-3269996D01*
X6276289Y-3265881D01*
X6268415Y-3264763D01*
G37*
G36*
X6109512Y-3383584D02*
G01*
X6228384Y-3383584D01*
X6228384Y-3264560D01*
X6212687Y-3267710D01*
X6197396Y-3272688D01*
X6182817Y-3279343D01*
X6169101Y-3287623D01*
X6156401Y-3297428D01*
X6144869Y-3308604D01*
X6134709Y-3320999D01*
X6126073Y-3334512D01*
X6118961Y-3348888D01*
X6113576Y-3364026D01*
X6109970Y-3379622D01*
G37*
G36*
X6617512Y-3383584D02*
G01*
X6736384Y-3383584D01*
X6736384Y-3264560D01*
X6720687Y-3267710D01*
X6705396Y-3272688D01*
X6690817Y-3279343D01*
X6677101Y-3287623D01*
X6664401Y-3297428D01*
X6652869Y-3308604D01*
X6642709Y-3320999D01*
X6634073Y-3334512D01*
X6626961Y-3348888D01*
X6621576Y-3364026D01*
X6617970Y-3379622D01*
G37*
G36*
X6671818Y-3031083D02*
G01*
X6840931Y-3031083D01*
X6850125Y-3030321D01*
X6858660Y-3028035D01*
X6866636Y-3024327D01*
X6873849Y-3019247D01*
X6880047Y-3013049D01*
X6885076Y-3005836D01*
X6888835Y-2997860D01*
X6891070Y-2989376D01*
X6891883Y-2980131D01*
X6891883Y-2811018D01*
X6891070Y-2801823D01*
X6888835Y-2793339D01*
X6885076Y-2785364D01*
X6880047Y-2778150D01*
X6873849Y-2771952D01*
X6866636Y-2766872D01*
X6858660Y-2763164D01*
X6850125Y-2760878D01*
X6840931Y-2760065D01*
X6819747Y-2760065D01*
X6815531Y-2759151D01*
X6812076Y-2756560D01*
X6809994Y-2752750D01*
X6809689Y-2748432D01*
X6811213Y-2744368D01*
X6814312Y-2741371D01*
X6824268Y-2735021D01*
X6835444Y-2725775D01*
X6845350Y-2715209D01*
X6853885Y-2703474D01*
X6860895Y-2690774D01*
X6866229Y-2677261D01*
X6869836Y-2663240D01*
X6870039Y-2661615D01*
X6776415Y-2661615D01*
X6776415Y-2749905D01*
X6775602Y-2753817D01*
X6773418Y-2757119D01*
X6770116Y-2759303D01*
X6766255Y-2760065D01*
X6746544Y-2760065D01*
X6742633Y-2759303D01*
X6739381Y-2757119D01*
X6737146Y-2753817D01*
X6736384Y-2749905D01*
X6736384Y-2661615D01*
X6642760Y-2661615D01*
X6642963Y-2663240D01*
X6646570Y-2677261D01*
X6651904Y-2690774D01*
X6658864Y-2703474D01*
X6667398Y-2715209D01*
X6677355Y-2725775D01*
X6688531Y-2735021D01*
X6698488Y-2741371D01*
X6701536Y-2744368D01*
X6703059Y-2748432D01*
X6702806Y-2752750D01*
X6700723Y-2756560D01*
X6697268Y-2759151D01*
X6693052Y-2760065D01*
X6671818Y-2760065D01*
X6662623Y-2760878D01*
X6654139Y-2763164D01*
X6646164Y-2766872D01*
X6638950Y-2771952D01*
X6632702Y-2778150D01*
X6627672Y-2785364D01*
X6623964Y-2793339D01*
X6621678Y-2801823D01*
X6620865Y-2811018D01*
X6620865Y-2980131D01*
X6621678Y-2989376D01*
X6623964Y-2997860D01*
X6627672Y-3005836D01*
X6632702Y-3013049D01*
X6638950Y-3019247D01*
X6646164Y-3024327D01*
X6654139Y-3028035D01*
X6662623Y-3030321D01*
G37*
G36*
X6471615Y-2907487D02*
G01*
X6483400Y-2905455D01*
X6498793Y-2900934D01*
X6513576Y-2894685D01*
X6527546Y-2886760D01*
X6540500Y-2877362D01*
X6552336Y-2866491D01*
X6562852Y-2854401D01*
X6571894Y-2841142D01*
X6579362Y-2826969D01*
X6585203Y-2811983D01*
X6589268Y-2796489D01*
X6590436Y-2788615D01*
X6471615Y-2788615D01*
G37*
G36*
X5963615Y-2907487D02*
G01*
X5975400Y-2905455D01*
X5990793Y-2900934D01*
X6005576Y-2894685D01*
X6019546Y-2886760D01*
X6032500Y-2877362D01*
X6044336Y-2866491D01*
X6054852Y-2854401D01*
X6063894Y-2841142D01*
X6071362Y-2826969D01*
X6077204Y-2811983D01*
X6081268Y-2796489D01*
X6082436Y-2788615D01*
X5963615Y-2788615D01*
G37*
G36*
X5923584Y-2907487D02*
G01*
X5923584Y-2788615D01*
X5804763Y-2788615D01*
X5805881Y-2796489D01*
X5809996Y-2811983D01*
X5815787Y-2826969D01*
X5823254Y-2841142D01*
X5832348Y-2854401D01*
X5842863Y-2866491D01*
X5854649Y-2877362D01*
X5867654Y-2886760D01*
X5881624Y-2894685D01*
X5896356Y-2900934D01*
X5911748Y-2905455D01*
G37*
G36*
X6431584Y-2907487D02*
G01*
X6431584Y-2788615D01*
X6312763Y-2788615D01*
X6313881Y-2796489D01*
X6317996Y-2811983D01*
X6323787Y-2826969D01*
X6331254Y-2841142D01*
X6340348Y-2854401D01*
X6350863Y-2866491D01*
X6362649Y-2877362D01*
X6375654Y-2886760D01*
X6389624Y-2894685D01*
X6404356Y-2900934D01*
X6419748Y-2905455D01*
G37*
G36*
X5963615Y-2748584D02*
G01*
X6082639Y-2748584D01*
X6079439Y-2732887D01*
X6074511Y-2717647D01*
X6067856Y-2703017D01*
X6059576Y-2689301D01*
X6049772Y-2676601D01*
X6038596Y-2665069D01*
X6026150Y-2654960D01*
X6012688Y-2646273D01*
X5998260Y-2639212D01*
X5983173Y-2633776D01*
X5967526Y-2630170D01*
X5963615Y-2629712D01*
G37*
G36*
X6471615Y-2748584D02*
G01*
X6590639Y-2748584D01*
X6587439Y-2732887D01*
X6582511Y-2717647D01*
X6575856Y-2703017D01*
X6567576Y-2689301D01*
X6557772Y-2676601D01*
X6546596Y-2665069D01*
X6534150Y-2654960D01*
X6520688Y-2646273D01*
X6506260Y-2639212D01*
X6491173Y-2633776D01*
X6475526Y-2630170D01*
X6471615Y-2629712D01*
G37*
G36*
X6312509Y-2748584D02*
G01*
X6431584Y-2748584D01*
X6431584Y-2629712D01*
X6427622Y-2630170D01*
X6412026Y-2633776D01*
X6396888Y-2639212D01*
X6382512Y-2646273D01*
X6368999Y-2654960D01*
X6356604Y-2665069D01*
X6345428Y-2676601D01*
X6335623Y-2689301D01*
X6327343Y-2703017D01*
X6320688Y-2717647D01*
X6315710Y-2732887D01*
G37*
G36*
X5804509Y-2748584D02*
G01*
X5923584Y-2748584D01*
X5923584Y-2629712D01*
X5919622Y-2630170D01*
X5904026Y-2633776D01*
X5888888Y-2639212D01*
X5874512Y-2646273D01*
X5860999Y-2654960D01*
X5848604Y-2665069D01*
X5837428Y-2676601D01*
X5827623Y-2689301D01*
X5819343Y-2703017D01*
X5812688Y-2717647D01*
X5807710Y-2732887D01*
G37*
G36*
X6201460Y-2645003D02*
G01*
X6216853Y-2643632D01*
X6231991Y-2640482D01*
X6246622Y-2635504D01*
X6260592Y-2628849D01*
X6273647Y-2620619D01*
X6285687Y-2610866D01*
X6296456Y-2599791D01*
X6305804Y-2587498D01*
X6313678Y-2574188D01*
X6319926Y-2560015D01*
X6324447Y-2545232D01*
X6327140Y-2530043D01*
X6328054Y-2514600D01*
X6327140Y-2499156D01*
X6324447Y-2483967D01*
X6319926Y-2469134D01*
X6313678Y-2455011D01*
X6305804Y-2441702D01*
X6296456Y-2429408D01*
X6285687Y-2418334D01*
X6273647Y-2408580D01*
X6260592Y-2400300D01*
X6246622Y-2393696D01*
X6231991Y-2388717D01*
X6216853Y-2385517D01*
X6201460Y-2384145D01*
X6186017Y-2384602D01*
X6170726Y-2386888D01*
X6155791Y-2391003D01*
X6141466Y-2396794D01*
X6127953Y-2404262D01*
X6115354Y-2413254D01*
X6103975Y-2423718D01*
X6093866Y-2435402D01*
X6085230Y-2448255D01*
X6078169Y-2461971D01*
X6072784Y-2476500D01*
X6069177Y-2491536D01*
X6067348Y-2506878D01*
X6067348Y-2522321D01*
X6069177Y-2537663D01*
X6072784Y-2552700D01*
X6078169Y-2567178D01*
X6085230Y-2580944D01*
X6093866Y-2593797D01*
X6103975Y-2605481D01*
X6115354Y-2615946D01*
X6127953Y-2624937D01*
X6141466Y-2632405D01*
X6155791Y-2638196D01*
X6170726Y-2642260D01*
X6186017Y-2644546D01*
G37*
G36*
X6642760Y-2621584D02*
G01*
X6736384Y-2621584D01*
X6736384Y-2528062D01*
X6727647Y-2529738D01*
X6713880Y-2534208D01*
X6700774Y-2540406D01*
X6688531Y-2548178D01*
X6677355Y-2557424D01*
X6667398Y-2567990D01*
X6658864Y-2579725D01*
X6651904Y-2592425D01*
X6646570Y-2605887D01*
X6642963Y-2619959D01*
G37*
G36*
X6776415Y-2621584D02*
G01*
X6870039Y-2621584D01*
X6869836Y-2619959D01*
X6866229Y-2605887D01*
X6860895Y-2592425D01*
X6853885Y-2579725D01*
X6845350Y-2567990D01*
X6835444Y-2557424D01*
X6824268Y-2548178D01*
X6812025Y-2540406D01*
X6798919Y-2534208D01*
X6785102Y-2529738D01*
X6776415Y-2528062D01*
G37*
G36*
X6736384Y-2501138D02*
G01*
X6736384Y-2407615D01*
X6642760Y-2407615D01*
X6642963Y-2409240D01*
X6646570Y-2423261D01*
X6651904Y-2436774D01*
X6658864Y-2449474D01*
X6667398Y-2461209D01*
X6677355Y-2471775D01*
X6688531Y-2481021D01*
X6700774Y-2488793D01*
X6713880Y-2494991D01*
X6727647Y-2499461D01*
G37*
G36*
X6776415Y-2501138D02*
G01*
X6785102Y-2499461D01*
X6798919Y-2494991D01*
X6812025Y-2488793D01*
X6824268Y-2481021D01*
X6835444Y-2471775D01*
X6845350Y-2461209D01*
X6853885Y-2449474D01*
X6860895Y-2436774D01*
X6866229Y-2423261D01*
X6869836Y-2409240D01*
X6870039Y-2407615D01*
X6776415Y-2407615D01*
G37*
G36*
X6431584Y-2399639D02*
G01*
X6431584Y-2280615D01*
X6312712Y-2280615D01*
X6313170Y-2284526D01*
X6316776Y-2300173D01*
X6322161Y-2315260D01*
X6329273Y-2329688D01*
X6337909Y-2343150D01*
X6348069Y-2355596D01*
X6359601Y-2366772D01*
X6372301Y-2376576D01*
X6386017Y-2384856D01*
X6400596Y-2391511D01*
X6415887Y-2396490D01*
G37*
G36*
X5923584Y-2399639D02*
G01*
X5923584Y-2280615D01*
X5804712Y-2280615D01*
X5805170Y-2284526D01*
X5808776Y-2300173D01*
X5814161Y-2315260D01*
X5821273Y-2329688D01*
X5829909Y-2343150D01*
X5840069Y-2355596D01*
X5851601Y-2366772D01*
X5864301Y-2376576D01*
X5878017Y-2384856D01*
X5892596Y-2391511D01*
X5907887Y-2396490D01*
G37*
G36*
X5963615Y-2399436D02*
G01*
X5971489Y-2398268D01*
X5986983Y-2394204D01*
X6001969Y-2388412D01*
X6016142Y-2380894D01*
X6029401Y-2371852D01*
X6041491Y-2361336D01*
X6052362Y-2349550D01*
X6061760Y-2336546D01*
X6069685Y-2322576D01*
X6075883Y-2307793D01*
X6080404Y-2292400D01*
X6082487Y-2280615D01*
X5963615Y-2280615D01*
G37*
G36*
X6471615Y-2399436D02*
G01*
X6479489Y-2398268D01*
X6494983Y-2394204D01*
X6509969Y-2388412D01*
X6524142Y-2380894D01*
X6537401Y-2371852D01*
X6549491Y-2361336D01*
X6560362Y-2349550D01*
X6569760Y-2336546D01*
X6577685Y-2322576D01*
X6583883Y-2307793D01*
X6588404Y-2292400D01*
X6590487Y-2280615D01*
X6471615Y-2280615D01*
G37*
G36*
X6642760Y-2367584D02*
G01*
X6736384Y-2367584D01*
X6736384Y-2274062D01*
X6727647Y-2275738D01*
X6713880Y-2280208D01*
X6700774Y-2286406D01*
X6688531Y-2294178D01*
X6677355Y-2303424D01*
X6667398Y-2313990D01*
X6658864Y-2325725D01*
X6651904Y-2338425D01*
X6646570Y-2351887D01*
X6642963Y-2365959D01*
G37*
G36*
X6776415Y-2367584D02*
G01*
X6870039Y-2367584D01*
X6869836Y-2365959D01*
X6866229Y-2351887D01*
X6860895Y-2338425D01*
X6853885Y-2325725D01*
X6845350Y-2313990D01*
X6835444Y-2303424D01*
X6824268Y-2294178D01*
X6812025Y-2286406D01*
X6798919Y-2280208D01*
X6785102Y-2275738D01*
X6776415Y-2274062D01*
G37*
G36*
X6756400Y-2249068D02*
G01*
X6770878Y-2248154D01*
X6785102Y-2245461D01*
X6798919Y-2240991D01*
X6812025Y-2234793D01*
X6824268Y-2227021D01*
X6835444Y-2217775D01*
X6845350Y-2207209D01*
X6853885Y-2195474D01*
X6860895Y-2182774D01*
X6866229Y-2169261D01*
X6869836Y-2155240D01*
X6871665Y-2140864D01*
X6871665Y-2126335D01*
X6869836Y-2111959D01*
X6866229Y-2097887D01*
X6860895Y-2084425D01*
X6853885Y-2071725D01*
X6845350Y-2059990D01*
X6835444Y-2049424D01*
X6824268Y-2040178D01*
X6812025Y-2032406D01*
X6798919Y-2026208D01*
X6785102Y-2021738D01*
X6770878Y-2018995D01*
X6756400Y-2018131D01*
X6741922Y-2018995D01*
X6727647Y-2021738D01*
X6713880Y-2026208D01*
X6700774Y-2032406D01*
X6688531Y-2040178D01*
X6677355Y-2049424D01*
X6667398Y-2059990D01*
X6658864Y-2071725D01*
X6651904Y-2084425D01*
X6646570Y-2097887D01*
X6642963Y-2111959D01*
X6641134Y-2126335D01*
X6641134Y-2140864D01*
X6642963Y-2155240D01*
X6646570Y-2169261D01*
X6651904Y-2182774D01*
X6658864Y-2195474D01*
X6667398Y-2207209D01*
X6677355Y-2217775D01*
X6688531Y-2227021D01*
X6700774Y-2234793D01*
X6713880Y-2240991D01*
X6727647Y-2245461D01*
X6741922Y-2248154D01*
G37*
G36*
X6471615Y-2240584D02*
G01*
X6590487Y-2240584D01*
X6588404Y-2228799D01*
X6583883Y-2213406D01*
X6577685Y-2198624D01*
X6569760Y-2184654D01*
X6560362Y-2171649D01*
X6549491Y-2159863D01*
X6537401Y-2149348D01*
X6524142Y-2140305D01*
X6509969Y-2132787D01*
X6494983Y-2126996D01*
X6479489Y-2122881D01*
X6471615Y-2121763D01*
G37*
G36*
X5963615Y-2240584D02*
G01*
X6082487Y-2240584D01*
X6080404Y-2228799D01*
X6075883Y-2213406D01*
X6069685Y-2198624D01*
X6061760Y-2184654D01*
X6052362Y-2171649D01*
X6041491Y-2159863D01*
X6029401Y-2149348D01*
X6016142Y-2140305D01*
X6001969Y-2132787D01*
X5986983Y-2126996D01*
X5971489Y-2122881D01*
X5963615Y-2121763D01*
G37*
G36*
X5804712Y-2240584D02*
G01*
X5923584Y-2240584D01*
X5923584Y-2121560D01*
X5907887Y-2124710D01*
X5892596Y-2129688D01*
X5878017Y-2136343D01*
X5864301Y-2144623D01*
X5851601Y-2154428D01*
X5840069Y-2165604D01*
X5829909Y-2177999D01*
X5821273Y-2191512D01*
X5814161Y-2205888D01*
X5808776Y-2221026D01*
X5805170Y-2236622D01*
G37*
G36*
X6312712Y-2240584D02*
G01*
X6431584Y-2240584D01*
X6431584Y-2121560D01*
X6415887Y-2124710D01*
X6400596Y-2129688D01*
X6386017Y-2136343D01*
X6372301Y-2144623D01*
X6359601Y-2154428D01*
X6348069Y-2165604D01*
X6337909Y-2177999D01*
X6329273Y-2191512D01*
X6322161Y-2205888D01*
X6316776Y-2221026D01*
X6313170Y-2236622D01*
G37*
G36*
X1961388Y-2110790D02*
G01*
X1986584Y-2110790D01*
X1986584Y-2087575D01*
X1931416Y-2087575D01*
X1932736Y-2091893D01*
X1935581Y-2097176D01*
X1939340Y-2101799D01*
X1943963Y-2105558D01*
X1949246Y-2108403D01*
X1954936Y-2110130D01*
G37*
G36*
X2026615Y-2110790D02*
G01*
X2051812Y-2110790D01*
X2058263Y-2110130D01*
X2063953Y-2108403D01*
X2069236Y-2105558D01*
X2073859Y-2101799D01*
X2077618Y-2097176D01*
X2080463Y-2091893D01*
X2081784Y-2087575D01*
X2026615Y-2087575D01*
G37*
G36*
X1930400Y-2047544D02*
G01*
X1986584Y-2047544D01*
X1986584Y-2026818D01*
X1987600Y-2022398D01*
X1990394Y-2018893D01*
X1994407Y-2016912D01*
X1998878Y-2016861D01*
X2003399Y-2017826D01*
X2009800Y-2017826D01*
X2014321Y-2016861D01*
X2018792Y-2016912D01*
X2022805Y-2018893D01*
X2025599Y-2022398D01*
X2026615Y-2026818D01*
X2026615Y-2047544D01*
X2082850Y-2047544D01*
X2082850Y-1970328D01*
X2082088Y-1963420D01*
X2081275Y-1960880D01*
X2080768Y-1957730D01*
X2081275Y-1954580D01*
X2082139Y-1951888D01*
X2082850Y-1945132D01*
X2082850Y-1872488D01*
X2082190Y-1866036D01*
X2080463Y-1860346D01*
X2077618Y-1855063D01*
X2073859Y-1850440D01*
X2069236Y-1846681D01*
X2063953Y-1843836D01*
X2058263Y-1842109D01*
X2053183Y-1840941D01*
X2050237Y-1838655D01*
X2048306Y-1835505D01*
X2047595Y-1831848D01*
X2047595Y-1827885D01*
X2048306Y-1824177D01*
X2050288Y-1820976D01*
X2055114Y-1815744D01*
X2060651Y-1807260D01*
X2064715Y-1797964D01*
X2067255Y-1788109D01*
X2068068Y-1778000D01*
X2067255Y-1767890D01*
X2064715Y-1758035D01*
X2060651Y-1748739D01*
X2055114Y-1740255D01*
X2048256Y-1732788D01*
X2040229Y-1726539D01*
X2031288Y-1721713D01*
X2021687Y-1718411D01*
X2011680Y-1716735D01*
X2001520Y-1716735D01*
X1991512Y-1718411D01*
X1981911Y-1721713D01*
X1972970Y-1726539D01*
X1964943Y-1732788D01*
X1958086Y-1740255D01*
X1952548Y-1748739D01*
X1948484Y-1758035D01*
X1945944Y-1767890D01*
X1945132Y-1778000D01*
X1945944Y-1788109D01*
X1948484Y-1797964D01*
X1952548Y-1807260D01*
X1958086Y-1815744D01*
X1962912Y-1820976D01*
X1964893Y-1824177D01*
X1965604Y-1827885D01*
X1965604Y-1831848D01*
X1964893Y-1835505D01*
X1962962Y-1838655D01*
X1960016Y-1840941D01*
X1954936Y-1842109D01*
X1949246Y-1843836D01*
X1943963Y-1846681D01*
X1939340Y-1850440D01*
X1935581Y-1855063D01*
X1932736Y-1860346D01*
X1931009Y-1866036D01*
X1930400Y-1872488D01*
X1930400Y-1945132D01*
X1931060Y-1951888D01*
X1931924Y-1954580D01*
X1932432Y-1957730D01*
X1931924Y-1960880D01*
X1931111Y-1963420D01*
X1930400Y-1970328D01*
G37*
G36*
X5354320Y-1534464D02*
G01*
X5364480Y-1534464D01*
X5374487Y-1532788D01*
X5384088Y-1529486D01*
X5393029Y-1524660D01*
X5401056Y-1518412D01*
X5407914Y-1510944D01*
X5413451Y-1502460D01*
X5417566Y-1493164D01*
X5420055Y-1483309D01*
X5420868Y-1473200D01*
X5420055Y-1463090D01*
X5417566Y-1453235D01*
X5413451Y-1443939D01*
X5407914Y-1435455D01*
X5401056Y-1427988D01*
X5393029Y-1421739D01*
X5384088Y-1416913D01*
X5374487Y-1413611D01*
X5364480Y-1411935D01*
X5360314Y-1411935D01*
X5356453Y-1411173D01*
X5353151Y-1408938D01*
X5276392Y-1332179D01*
X5274157Y-1328877D01*
X5273395Y-1325016D01*
X5273395Y-938885D01*
X5274106Y-935177D01*
X5276088Y-931976D01*
X5280914Y-926744D01*
X5286451Y-918260D01*
X5290566Y-908964D01*
X5293055Y-899109D01*
X5293868Y-889000D01*
X5293055Y-878890D01*
X5290566Y-869035D01*
X5286451Y-859739D01*
X5280914Y-851255D01*
X5274056Y-843787D01*
X5266029Y-837539D01*
X5257088Y-832713D01*
X5247487Y-829411D01*
X5237480Y-827735D01*
X5227320Y-827735D01*
X5217312Y-829411D01*
X5207711Y-832713D01*
X5198770Y-837539D01*
X5190744Y-843787D01*
X5183886Y-851255D01*
X5178348Y-859739D01*
X5174284Y-869035D01*
X5171744Y-878890D01*
X5170932Y-889000D01*
X5171744Y-899109D01*
X5174284Y-908964D01*
X5178348Y-918260D01*
X5183886Y-926744D01*
X5188712Y-931976D01*
X5190693Y-935177D01*
X5191404Y-938885D01*
X5191404Y-1345692D01*
X5192217Y-1354175D01*
X5194554Y-1361846D01*
X5198313Y-1368958D01*
X5203748Y-1375562D01*
X5294985Y-1466799D01*
X5297017Y-1469694D01*
X5297932Y-1473149D01*
X5298744Y-1483309D01*
X5301284Y-1493164D01*
X5305348Y-1502460D01*
X5310886Y-1510944D01*
X5317744Y-1518412D01*
X5325770Y-1524660D01*
X5334711Y-1529486D01*
X5344312Y-1532788D01*
G37*
G36*
X2509520Y-1432864D02*
G01*
X2519680Y-1432864D01*
X2529687Y-1431188D01*
X2539288Y-1427886D01*
X2548229Y-1423060D01*
X2556256Y-1416812D01*
X2563114Y-1409344D01*
X2568651Y-1400860D01*
X2572715Y-1391564D01*
X2575255Y-1381709D01*
X2576068Y-1371498D01*
X2576982Y-1368094D01*
X2579014Y-1365148D01*
X3330651Y-613562D01*
X3336036Y-606958D01*
X3339846Y-599897D01*
X3342182Y-592175D01*
X3342995Y-583692D01*
X3342995Y-481685D01*
X3343706Y-477977D01*
X3345687Y-474776D01*
X3350514Y-469544D01*
X3356051Y-461060D01*
X3360115Y-451764D01*
X3362655Y-441909D01*
X3363468Y-431800D01*
X3362655Y-421690D01*
X3360115Y-411835D01*
X3356051Y-402539D01*
X3350514Y-394055D01*
X3343656Y-386588D01*
X3335629Y-380339D01*
X3326688Y-375513D01*
X3317087Y-372211D01*
X3307079Y-370535D01*
X3296920Y-370535D01*
X3286912Y-372211D01*
X3277311Y-375513D01*
X3268370Y-380339D01*
X3260344Y-386588D01*
X3253486Y-394055D01*
X3247948Y-402539D01*
X3243884Y-411835D01*
X3241344Y-421690D01*
X3240532Y-431800D01*
X3241344Y-441909D01*
X3243884Y-451764D01*
X3247948Y-461060D01*
X3253486Y-469544D01*
X3258312Y-474776D01*
X3260293Y-477977D01*
X3261004Y-481685D01*
X3261004Y-563016D01*
X3260191Y-566877D01*
X3258007Y-570179D01*
X2520848Y-1307338D01*
X2517546Y-1309573D01*
X2513634Y-1310335D01*
X2509520Y-1310335D01*
X2499512Y-1312011D01*
X2489911Y-1315313D01*
X2480970Y-1320139D01*
X2472944Y-1326388D01*
X2466086Y-1333855D01*
X2460548Y-1342339D01*
X2456484Y-1351635D01*
X2453944Y-1361490D01*
X2453132Y-1371600D01*
X2453944Y-1381709D01*
X2456484Y-1391564D01*
X2460548Y-1400860D01*
X2466086Y-1409344D01*
X2472944Y-1416812D01*
X2480970Y-1423060D01*
X2489911Y-1427886D01*
X2499512Y-1431188D01*
G37*
G36*
X6045708Y-1260195D02*
G01*
X6197092Y-1260195D01*
X6205575Y-1259382D01*
X6213246Y-1257046D01*
X6220358Y-1253236D01*
X6226911Y-1247851D01*
X6327851Y-1146962D01*
X6333236Y-1140358D01*
X6337046Y-1133246D01*
X6339332Y-1125575D01*
X6340195Y-1117092D01*
X6340195Y-965708D01*
X6339332Y-957224D01*
X6337046Y-949502D01*
X6333236Y-942441D01*
X6327851Y-935837D01*
X6252311Y-860298D01*
X6250990Y-858672D01*
X6246114Y-851255D01*
X6239256Y-843787D01*
X6231229Y-837539D01*
X6222288Y-832713D01*
X6212687Y-829411D01*
X6202680Y-827735D01*
X6192520Y-827735D01*
X6182512Y-829411D01*
X6172911Y-832713D01*
X6163970Y-837539D01*
X6155944Y-843787D01*
X6149086Y-851255D01*
X6143548Y-859739D01*
X6139484Y-869035D01*
X6136944Y-878890D01*
X6136132Y-889000D01*
X6136944Y-899109D01*
X6139484Y-908964D01*
X6143548Y-918260D01*
X6149086Y-926744D01*
X6155944Y-934212D01*
X6163970Y-940460D01*
X6172911Y-945286D01*
X6182512Y-948588D01*
X6192520Y-950264D01*
X6202680Y-950264D01*
X6212687Y-948588D01*
X6215532Y-947623D01*
X6219291Y-947064D01*
X6222949Y-947928D01*
X6226048Y-950010D01*
X6255207Y-979220D01*
X6257391Y-982522D01*
X6258204Y-986383D01*
X6258204Y-1096416D01*
X6257391Y-1100277D01*
X6255207Y-1103579D01*
X6183579Y-1175207D01*
X6180277Y-1177442D01*
X6176416Y-1178204D01*
X6066383Y-1178204D01*
X6062522Y-1177442D01*
X6059220Y-1175207D01*
X5931814Y-1047851D01*
X5929782Y-1044905D01*
X5928868Y-1041501D01*
X5928055Y-1031290D01*
X5925566Y-1021435D01*
X5921451Y-1012139D01*
X5915914Y-1003655D01*
X5909056Y-996187D01*
X5901029Y-989939D01*
X5887313Y-982624D01*
X5884926Y-979373D01*
X5883960Y-975410D01*
X5884621Y-971448D01*
X5886805Y-967994D01*
X5890158Y-965708D01*
X5894120Y-964895D01*
X5969254Y-964895D01*
X5973165Y-965657D01*
X5976467Y-967892D01*
X6047282Y-1038707D01*
X6049314Y-1041653D01*
X6050229Y-1045108D01*
X6050788Y-1052576D01*
X6053429Y-1063498D01*
X6057696Y-1073861D01*
X6063589Y-1083411D01*
X6070854Y-1091946D01*
X6079388Y-1099210D01*
X6088938Y-1105103D01*
X6099302Y-1109370D01*
X6110224Y-1112012D01*
X6121400Y-1112875D01*
X6132576Y-1112012D01*
X6143498Y-1109370D01*
X6153861Y-1105103D01*
X6163411Y-1099210D01*
X6171946Y-1091946D01*
X6179210Y-1083411D01*
X6185103Y-1073861D01*
X6189370Y-1063498D01*
X6192012Y-1052576D01*
X6192875Y-1041400D01*
X6192012Y-1030224D01*
X6189370Y-1019302D01*
X6185103Y-1008938D01*
X6179210Y-999388D01*
X6171946Y-990853D01*
X6163411Y-983589D01*
X6153861Y-977696D01*
X6143498Y-973429D01*
X6132576Y-970787D01*
X6125057Y-970229D01*
X6121603Y-969314D01*
X6118707Y-967282D01*
X6030264Y-878840D01*
X6026861Y-875690D01*
X6023356Y-873048D01*
X6019647Y-870661D01*
X6015736Y-868629D01*
X6011672Y-866952D01*
X6007455Y-865632D01*
X6003137Y-864666D01*
X5998768Y-864108D01*
X5994146Y-863904D01*
X5496255Y-863904D01*
X5492343Y-863142D01*
X5489092Y-860907D01*
X5486857Y-857605D01*
X5486095Y-853744D01*
X5486095Y-813003D01*
X5485892Y-808380D01*
X5485333Y-804011D01*
X5484368Y-799744D01*
X5483047Y-795528D01*
X5481370Y-791464D01*
X5479338Y-787552D01*
X5476951Y-783844D01*
X5474258Y-780338D01*
X5471160Y-776935D01*
X5319064Y-624840D01*
X5315661Y-621690D01*
X5312156Y-619048D01*
X5308447Y-616661D01*
X5304536Y-614629D01*
X5300472Y-612952D01*
X5296255Y-611632D01*
X5291937Y-610666D01*
X5287568Y-610108D01*
X5282946Y-609904D01*
X4693310Y-609904D01*
X4689094Y-608939D01*
X4685588Y-606348D01*
X4683556Y-602488D01*
X4683302Y-598119D01*
X4684877Y-594106D01*
X4689805Y-586740D01*
X4695952Y-574243D01*
X4700473Y-560984D01*
X4701946Y-553415D01*
X4617415Y-553415D01*
X4617415Y-601776D01*
X4616500Y-605942D01*
X4614011Y-609346D01*
X4610303Y-611479D01*
X4605528Y-612952D01*
X4601464Y-614629D01*
X4597603Y-616661D01*
X4593082Y-619556D01*
X4589018Y-621080D01*
X4584700Y-620776D01*
X4580940Y-618744D01*
X4578299Y-615289D01*
X4577384Y-611022D01*
X4577384Y-553415D01*
X4492853Y-553415D01*
X4494377Y-560984D01*
X4498848Y-574243D01*
X4504994Y-586740D01*
X4512767Y-598322D01*
X4521962Y-608838D01*
X4532477Y-618032D01*
X4544060Y-625805D01*
X4556556Y-631952D01*
X4558436Y-632612D01*
X4561992Y-634644D01*
X4564430Y-637946D01*
X4565345Y-641959D01*
X4564634Y-645972D01*
X4562348Y-649376D01*
X4249267Y-962507D01*
X4245965Y-964742D01*
X4242054Y-965504D01*
X3886403Y-965504D01*
X3881780Y-965708D01*
X3877411Y-966266D01*
X3873144Y-967232D01*
X3868928Y-968552D01*
X3864864Y-970229D01*
X3860952Y-972261D01*
X3857396Y-974496D01*
X3851808Y-979220D01*
X3848455Y-981100D01*
X3844696Y-981608D01*
X3840987Y-980643D01*
X3837889Y-978408D01*
X3835806Y-975207D01*
X3835095Y-971448D01*
X3835095Y-864768D01*
X3835857Y-860907D01*
X3838041Y-857605D01*
X3841292Y-855421D01*
X3845153Y-854608D01*
X3849014Y-855319D01*
X3852316Y-857453D01*
X3854551Y-860704D01*
X3857548Y-867460D01*
X3863086Y-875944D01*
X3869944Y-883412D01*
X3877970Y-889660D01*
X3886911Y-894486D01*
X3896512Y-897788D01*
X3906520Y-899464D01*
X3916679Y-899464D01*
X3926687Y-897788D01*
X3936288Y-894486D01*
X3945229Y-889660D01*
X3953256Y-883412D01*
X3960114Y-875944D01*
X3965651Y-867460D01*
X3969715Y-858164D01*
X3972255Y-848309D01*
X3973068Y-838098D01*
X3973982Y-834694D01*
X3976014Y-831748D01*
X4118000Y-689762D01*
X4123436Y-683158D01*
X4127195Y-676097D01*
X4129532Y-668375D01*
X4130395Y-659892D01*
X4130395Y-638200D01*
X4131056Y-634542D01*
X4133037Y-631342D01*
X4136034Y-629107D01*
X4142740Y-625805D01*
X4154373Y-618032D01*
X4164837Y-608838D01*
X4174032Y-598322D01*
X4181805Y-586740D01*
X4187951Y-574243D01*
X4192473Y-560984D01*
X4195165Y-547319D01*
X4196080Y-533400D01*
X4195165Y-519480D01*
X4192473Y-505764D01*
X4187951Y-492556D01*
X4181805Y-480059D01*
X4174032Y-468477D01*
X4164837Y-457962D01*
X4154373Y-448767D01*
X4142740Y-440994D01*
X4130243Y-434848D01*
X4117035Y-430326D01*
X4103319Y-427634D01*
X4089400Y-426720D01*
X4075480Y-427634D01*
X4061815Y-430326D01*
X4048556Y-434848D01*
X4036060Y-440994D01*
X4024477Y-448767D01*
X4013962Y-457962D01*
X4004767Y-468477D01*
X3996994Y-480059D01*
X3990848Y-492556D01*
X3986377Y-505764D01*
X3983634Y-519480D01*
X3982720Y-533400D01*
X3983634Y-547319D01*
X3986377Y-560984D01*
X3990848Y-574243D01*
X3996994Y-586740D01*
X4004767Y-598322D01*
X4013962Y-608838D01*
X4024477Y-618032D01*
X4036060Y-625805D01*
X4042714Y-629056D01*
X4045712Y-631291D01*
X4047693Y-634492D01*
X4048353Y-639216D01*
X4047591Y-643128D01*
X4045407Y-646379D01*
X3917848Y-773938D01*
X3914546Y-776173D01*
X3910634Y-776935D01*
X3906520Y-776935D01*
X3896512Y-778611D01*
X3886911Y-781913D01*
X3877970Y-786739D01*
X3869944Y-792988D01*
X3863086Y-800455D01*
X3857548Y-808939D01*
X3854551Y-815695D01*
X3852316Y-818946D01*
X3849014Y-821080D01*
X3845153Y-821791D01*
X3841292Y-820978D01*
X3838041Y-818794D01*
X3835857Y-815492D01*
X3835095Y-811631D01*
X3835095Y-533654D01*
X3834892Y-529031D01*
X3834333Y-524662D01*
X3833368Y-520344D01*
X3832047Y-516128D01*
X3830370Y-512064D01*
X3828338Y-508152D01*
X3825951Y-504443D01*
X3823258Y-500938D01*
X3820160Y-497535D01*
X3490264Y-167640D01*
X3486861Y-164541D01*
X3483356Y-161848D01*
X3479647Y-159461D01*
X3475736Y-157429D01*
X3471672Y-155752D01*
X3467455Y-154432D01*
X3463137Y-153466D01*
X3458768Y-152908D01*
X3454146Y-152704D01*
X3124403Y-152704D01*
X3119780Y-152908D01*
X3115411Y-153466D01*
X3111144Y-154432D01*
X3106928Y-155752D01*
X3102864Y-157429D01*
X3098952Y-159461D01*
X3095244Y-161848D01*
X3091738Y-164541D01*
X3088335Y-167640D01*
X2796692Y-459282D01*
X2793796Y-461314D01*
X2790291Y-462229D01*
X2782824Y-462788D01*
X2771902Y-465429D01*
X2761538Y-469696D01*
X2751988Y-475589D01*
X2746248Y-480466D01*
X2743200Y-482244D01*
X2739694Y-482904D01*
X1752803Y-482904D01*
X1748180Y-483108D01*
X1743811Y-483666D01*
X1739544Y-484632D01*
X1735328Y-485952D01*
X1731264Y-487629D01*
X1727352Y-489661D01*
X1723643Y-492048D01*
X1720138Y-494741D01*
X1716735Y-497840D01*
X1679092Y-535482D01*
X1676146Y-537514D01*
X1672691Y-538429D01*
X1665224Y-538988D01*
X1654302Y-541629D01*
X1643938Y-545896D01*
X1634388Y-551789D01*
X1625854Y-559054D01*
X1618589Y-567588D01*
X1612696Y-577138D01*
X1608429Y-587502D01*
X1605788Y-598424D01*
X1604924Y-609600D01*
X1605788Y-620776D01*
X1608429Y-631698D01*
X1612696Y-642061D01*
X1618589Y-651611D01*
X1625854Y-660146D01*
X1634388Y-667410D01*
X1643938Y-673303D01*
X1654302Y-677570D01*
X1665224Y-680212D01*
X1676400Y-681075D01*
X1687575Y-680212D01*
X1698498Y-677570D01*
X1708861Y-673303D01*
X1718411Y-667410D01*
X1726946Y-660146D01*
X1734210Y-651611D01*
X1740103Y-642061D01*
X1744370Y-631698D01*
X1747012Y-620776D01*
X1747570Y-613257D01*
X1748485Y-609803D01*
X1750517Y-606907D01*
X1770532Y-586892D01*
X1773834Y-584657D01*
X1777746Y-583895D01*
X2739694Y-583895D01*
X2743200Y-584555D01*
X2746248Y-586333D01*
X2751988Y-591210D01*
X2761538Y-597103D01*
X2771902Y-601370D01*
X2782824Y-604012D01*
X2794000Y-604875D01*
X2805176Y-604012D01*
X2816098Y-601370D01*
X2826461Y-597103D01*
X2836011Y-591210D01*
X2844546Y-583946D01*
X2851810Y-575411D01*
X2857703Y-565861D01*
X2861970Y-555498D01*
X2864612Y-544576D01*
X2865170Y-537108D01*
X2866085Y-533603D01*
X2868117Y-530707D01*
X3142132Y-256692D01*
X3145434Y-254457D01*
X3149346Y-253695D01*
X3429254Y-253695D01*
X3433165Y-254457D01*
X3436467Y-256692D01*
X3731107Y-551332D01*
X3733342Y-554634D01*
X3734104Y-558546D01*
X3734104Y-1063294D01*
X3733444Y-1066800D01*
X3731666Y-1069848D01*
X3726789Y-1075588D01*
X3720896Y-1085138D01*
X3716629Y-1095502D01*
X3713987Y-1106424D01*
X3713124Y-1117600D01*
X3713987Y-1128776D01*
X3716629Y-1139698D01*
X3720896Y-1150061D01*
X3726789Y-1159611D01*
X3734054Y-1168146D01*
X3742588Y-1175410D01*
X3752138Y-1181303D01*
X3762501Y-1185570D01*
X3773424Y-1188212D01*
X3784600Y-1189075D01*
X3795776Y-1188212D01*
X3806698Y-1185570D01*
X3817061Y-1181303D01*
X3826611Y-1175410D01*
X3835146Y-1168146D01*
X3842410Y-1159611D01*
X3848303Y-1150061D01*
X3852570Y-1139698D01*
X3855212Y-1128776D01*
X3855770Y-1121257D01*
X3856685Y-1117803D01*
X3858717Y-1114907D01*
X3904132Y-1069492D01*
X3907434Y-1067257D01*
X3911346Y-1066495D01*
X4266946Y-1066495D01*
X4271568Y-1066292D01*
X4275937Y-1065733D01*
X4280255Y-1064768D01*
X4284472Y-1063447D01*
X4288536Y-1061770D01*
X4292447Y-1059738D01*
X4296156Y-1057351D01*
X4299661Y-1054658D01*
X4303064Y-1051560D01*
X4640732Y-713892D01*
X4644034Y-711657D01*
X4647946Y-710895D01*
X5258054Y-710895D01*
X5261965Y-711657D01*
X5265267Y-713892D01*
X5382107Y-830732D01*
X5384292Y-834034D01*
X5385104Y-837946D01*
X5385104Y-860094D01*
X5384444Y-863600D01*
X5382666Y-866698D01*
X5377789Y-872388D01*
X5371896Y-881938D01*
X5367629Y-892302D01*
X5364988Y-903224D01*
X5364124Y-914400D01*
X5364988Y-925576D01*
X5367629Y-936498D01*
X5371896Y-946861D01*
X5377789Y-956411D01*
X5385054Y-964946D01*
X5393588Y-972210D01*
X5403138Y-978103D01*
X5413502Y-982370D01*
X5424424Y-985012D01*
X5435600Y-985875D01*
X5446776Y-985012D01*
X5457698Y-982370D01*
X5468061Y-978103D01*
X5477611Y-972210D01*
X5483352Y-967333D01*
X5486400Y-965555D01*
X5489956Y-964895D01*
X5840679Y-964895D01*
X5844641Y-965708D01*
X5847994Y-967994D01*
X5850178Y-971448D01*
X5850839Y-975410D01*
X5849874Y-979373D01*
X5847486Y-982624D01*
X5833770Y-989939D01*
X5825744Y-996187D01*
X5818886Y-1003655D01*
X5813348Y-1012139D01*
X5809284Y-1021435D01*
X5806744Y-1031290D01*
X5805932Y-1041400D01*
X5806744Y-1051509D01*
X5809284Y-1061364D01*
X5813348Y-1070660D01*
X5818886Y-1079144D01*
X5825744Y-1086612D01*
X5833770Y-1092860D01*
X5842711Y-1097686D01*
X5852312Y-1100988D01*
X5862320Y-1102664D01*
X5866485Y-1102664D01*
X5870346Y-1103426D01*
X5873648Y-1105662D01*
X6015837Y-1247851D01*
X6022441Y-1253236D01*
X6029502Y-1257046D01*
X6037224Y-1259382D01*
G37*
G36*
X658368Y-1252270D02*
G01*
X716584Y-1252270D01*
X716584Y-1163015D01*
X627380Y-1163015D01*
X627380Y-1221232D01*
X627989Y-1227683D01*
X629716Y-1233373D01*
X632561Y-1238656D01*
X636320Y-1243279D01*
X640943Y-1247038D01*
X646226Y-1249883D01*
X651916Y-1251610D01*
G37*
G36*
X756615Y-1252270D02*
G01*
X814832Y-1252270D01*
X821283Y-1251610D01*
X826973Y-1249883D01*
X832256Y-1247038D01*
X836879Y-1243279D01*
X840638Y-1238656D01*
X843483Y-1233373D01*
X845210Y-1227683D01*
X845870Y-1221232D01*
X845870Y-1163015D01*
X756615Y-1163015D01*
G37*
G36*
X404368Y-1252220D02*
G01*
X560832Y-1252220D01*
X567283Y-1251610D01*
X572973Y-1249883D01*
X578256Y-1247038D01*
X582879Y-1243279D01*
X586638Y-1238656D01*
X589483Y-1233373D01*
X591210Y-1227683D01*
X591870Y-1221232D01*
X591870Y-1064768D01*
X591210Y-1058316D01*
X589483Y-1052626D01*
X586638Y-1047343D01*
X582879Y-1042720D01*
X578256Y-1038910D01*
X572973Y-1036116D01*
X567283Y-1034389D01*
X560832Y-1033729D01*
X404368Y-1033729D01*
X397916Y-1034389D01*
X392226Y-1036116D01*
X386943Y-1038910D01*
X382320Y-1042720D01*
X378561Y-1047343D01*
X375716Y-1052626D01*
X373989Y-1058316D01*
X373380Y-1064768D01*
X373380Y-1221232D01*
X373989Y-1227683D01*
X375716Y-1233373D01*
X378561Y-1238656D01*
X382320Y-1243279D01*
X386943Y-1247038D01*
X392226Y-1249883D01*
X397916Y-1251610D01*
G37*
G36*
X150368Y-1252220D02*
G01*
X306832Y-1252220D01*
X313283Y-1251610D01*
X318973Y-1249883D01*
X324256Y-1247038D01*
X328879Y-1243279D01*
X332638Y-1238656D01*
X335483Y-1233373D01*
X337210Y-1227683D01*
X337870Y-1221232D01*
X337870Y-1064768D01*
X337210Y-1058316D01*
X335483Y-1052626D01*
X332638Y-1047343D01*
X328879Y-1042720D01*
X324256Y-1038910D01*
X318973Y-1036116D01*
X313283Y-1034389D01*
X306832Y-1033729D01*
X150368Y-1033729D01*
X143916Y-1034389D01*
X138226Y-1036116D01*
X132943Y-1038910D01*
X128320Y-1042720D01*
X124561Y-1047343D01*
X121716Y-1052626D01*
X119989Y-1058316D01*
X119380Y-1064768D01*
X119380Y-1221232D01*
X119989Y-1227683D01*
X121716Y-1233373D01*
X124561Y-1238656D01*
X128320Y-1243279D01*
X132943Y-1247038D01*
X138226Y-1249883D01*
X143916Y-1251610D01*
G37*
G36*
X627380Y-1122984D02*
G01*
X716584Y-1122984D01*
X716584Y-1033780D01*
X658368Y-1033780D01*
X651916Y-1034389D01*
X646226Y-1036116D01*
X640943Y-1038961D01*
X636320Y-1042720D01*
X632561Y-1047343D01*
X629716Y-1052626D01*
X627989Y-1058316D01*
X627380Y-1064768D01*
G37*
G36*
X756615Y-1122984D02*
G01*
X845870Y-1122984D01*
X845870Y-1064768D01*
X845210Y-1058316D01*
X843483Y-1052626D01*
X840638Y-1047343D01*
X836879Y-1042720D01*
X832256Y-1038961D01*
X826973Y-1036116D01*
X821283Y-1034389D01*
X814832Y-1033780D01*
X756615Y-1033780D01*
G37*
G36*
X375615Y-660400D02*
G01*
X398018Y-658164D01*
X421893Y-653846D01*
X445363Y-647598D01*
X468274Y-639572D01*
X490524Y-629716D01*
X511860Y-618134D01*
X532231Y-604875D01*
X551484Y-590092D01*
X569468Y-573786D01*
X586130Y-556107D01*
X601319Y-537159D01*
X614984Y-517042D01*
X626973Y-495909D01*
X637286Y-473913D01*
X645769Y-451154D01*
X652475Y-427837D01*
X657250Y-404012D01*
X660146Y-379882D01*
X660298Y-375615D01*
X375615Y-375615D01*
G37*
G36*
X6725615Y-660400D02*
G01*
X6747967Y-658164D01*
X6771894Y-653846D01*
X6795363Y-647598D01*
X6818274Y-639572D01*
X6840474Y-629716D01*
X6861860Y-618134D01*
X6882180Y-604875D01*
X6901434Y-590092D01*
X6919468Y-573786D01*
X6936130Y-556107D01*
X6951319Y-537159D01*
X6964984Y-517042D01*
X6976973Y-495909D01*
X6987235Y-473913D01*
X6995769Y-451154D01*
X7002424Y-427837D01*
X7007250Y-404012D01*
X7010146Y-379882D01*
X7010298Y-375615D01*
X6725615Y-375615D01*
G37*
G36*
X335635Y-660196D02*
G01*
X335635Y-375615D01*
X51003Y-375615D01*
X52273Y-391972D01*
X56134Y-415950D01*
X61874Y-439572D01*
X69494Y-462635D01*
X78892Y-485038D01*
X90017Y-506577D01*
X102870Y-527202D01*
X117297Y-546760D01*
X133248Y-565099D01*
X150571Y-582117D01*
X169214Y-597662D01*
X189077Y-611733D01*
X209956Y-624128D01*
X231749Y-634847D01*
X254304Y-643839D01*
X277520Y-650951D01*
X301244Y-656234D01*
X325272Y-659587D01*
G37*
G36*
X6685584Y-660196D02*
G01*
X6685584Y-375615D01*
X6400952Y-375615D01*
X6402273Y-391972D01*
X6406134Y-415950D01*
X6411874Y-439572D01*
X6419443Y-462635D01*
X6428892Y-485038D01*
X6440017Y-506577D01*
X6452870Y-527202D01*
X6467297Y-546760D01*
X6483248Y-565099D01*
X6500571Y-582117D01*
X6519214Y-597662D01*
X6539026Y-611733D01*
X6559905Y-624128D01*
X6581698Y-634847D01*
X6604304Y-643839D01*
X6627520Y-650951D01*
X6651244Y-656234D01*
X6675272Y-659587D01*
G37*
G36*
X4343400Y-640080D02*
G01*
X4357319Y-639165D01*
X4371035Y-636422D01*
X4384243Y-631952D01*
X4396740Y-625805D01*
X4408373Y-618032D01*
X4418838Y-608838D01*
X4428032Y-598322D01*
X4435805Y-586740D01*
X4441952Y-574243D01*
X4446473Y-560984D01*
X4449165Y-547319D01*
X4450080Y-533400D01*
X4449165Y-519480D01*
X4446473Y-505764D01*
X4441952Y-492556D01*
X4435805Y-480059D01*
X4428032Y-468477D01*
X4418838Y-457962D01*
X4408373Y-448767D01*
X4396740Y-440994D01*
X4384243Y-434848D01*
X4371035Y-430326D01*
X4357319Y-427634D01*
X4343400Y-426720D01*
X4329480Y-427634D01*
X4315815Y-430326D01*
X4302556Y-434848D01*
X4290060Y-440994D01*
X4278477Y-448767D01*
X4267962Y-457962D01*
X4258767Y-468477D01*
X4250994Y-480059D01*
X4244848Y-492556D01*
X4240377Y-505764D01*
X4237634Y-519480D01*
X4236720Y-533400D01*
X4237634Y-547319D01*
X4240377Y-560984D01*
X4244848Y-574243D01*
X4250994Y-586740D01*
X4258767Y-598322D01*
X4267962Y-608838D01*
X4278477Y-618032D01*
X4290060Y-625805D01*
X4302556Y-631952D01*
X4315815Y-636422D01*
X4329480Y-639165D01*
G37*
G36*
X4492853Y-513384D02*
G01*
X4577384Y-513384D01*
X4577384Y-428853D01*
X4569815Y-430326D01*
X4556556Y-434848D01*
X4544060Y-440994D01*
X4532477Y-448767D01*
X4521962Y-457962D01*
X4512767Y-468477D01*
X4504994Y-480059D01*
X4498848Y-492556D01*
X4494377Y-505764D01*
G37*
G36*
X4617415Y-513384D02*
G01*
X4701946Y-513384D01*
X4700473Y-505764D01*
X4695952Y-492556D01*
X4689805Y-480059D01*
X4682032Y-468477D01*
X4672838Y-457962D01*
X4662373Y-448767D01*
X4650740Y-440994D01*
X4638243Y-434848D01*
X4625035Y-430326D01*
X4617415Y-428853D01*
G37*
G36*
X51003Y-335584D02*
G01*
X335635Y-335584D01*
X335635Y-51003D01*
X325272Y-51612D01*
X301244Y-55016D01*
X277520Y-60248D01*
X254304Y-67411D01*
X231749Y-76352D01*
X209956Y-87071D01*
X189077Y-99517D01*
X169214Y-113537D01*
X150571Y-129133D01*
X133248Y-146151D01*
X117297Y-164439D01*
X102870Y-183997D01*
X90017Y-204622D01*
X78892Y-226212D01*
X69494Y-248615D01*
X61874Y-271678D01*
X56134Y-295249D01*
X52273Y-319227D01*
G37*
G36*
X6400952Y-335584D02*
G01*
X6685584Y-335584D01*
X6685584Y-51003D01*
X6675272Y-51612D01*
X6651244Y-55016D01*
X6627520Y-60248D01*
X6604304Y-67411D01*
X6581698Y-76352D01*
X6559905Y-87071D01*
X6539026Y-99517D01*
X6519214Y-113537D01*
X6500571Y-129133D01*
X6483248Y-146151D01*
X6467297Y-164439D01*
X6452870Y-183997D01*
X6440017Y-204622D01*
X6428892Y-226212D01*
X6419443Y-248615D01*
X6411874Y-271678D01*
X6406134Y-295249D01*
X6402273Y-319227D01*
G37*
G36*
X375615Y-335584D02*
G01*
X660298Y-335584D01*
X660146Y-331317D01*
X657250Y-307238D01*
X652475Y-283413D01*
X645769Y-260045D01*
X637286Y-237286D01*
X626973Y-215290D01*
X614984Y-194157D01*
X601319Y-174091D01*
X586130Y-155143D01*
X569468Y-137464D01*
X551484Y-121158D01*
X532231Y-106324D01*
X511860Y-93065D01*
X490524Y-81483D01*
X468274Y-71678D01*
X445363Y-63601D01*
X421893Y-57404D01*
X398018Y-53086D01*
X375615Y-50850D01*
G37*
G36*
X6725615Y-335584D02*
G01*
X7010298Y-335584D01*
X7010146Y-331317D01*
X7007250Y-307238D01*
X7002424Y-283413D01*
X6995769Y-260045D01*
X6987235Y-237286D01*
X6976973Y-215290D01*
X6964984Y-194157D01*
X6951319Y-174091D01*
X6936130Y-155143D01*
X6919468Y-137464D01*
X6901434Y-121158D01*
X6882180Y-106324D01*
X6861860Y-93065D01*
X6840474Y-81483D01*
X6818274Y-71678D01*
X6795363Y-63601D01*
X6771894Y-57404D01*
X6747967Y-53086D01*
X6725615Y-50850D01*
G37*

%LPD*%
D10*
X1498600Y-3251200D02*
G01*
X2489197Y-4241797D01*
X2489197Y-4775192D01*
X990600Y-3251194D02*
G01*
X1981200Y-4241794D01*
X1981200Y-4775200D01*
X6197587Y-1219197D02*
G01*
X6299187Y-1117597D01*
X6299187Y-965197D01*
X6222987Y-888997D01*
X6197587Y-888997D01*
X5867400Y-1041400D02*
G01*
X6045200Y-1219200D01*
X6197587Y-1219200D01*
D11*
X2743194Y-3682992D02*
G01*
X1574797Y-2514594D01*
X1168397Y-2514594D01*
X482600Y-1828797D01*
X482600Y-1777997D01*
X6121387Y-1041397D02*
G01*
X5994387Y-914397D01*
X5435589Y-914397D01*
X3784592Y-1117597D02*
G01*
X3886192Y-1015997D01*
X4267192Y-1015997D01*
X4622792Y-660397D01*
X5283189Y-660397D01*
X5435589Y-812797D01*
X5435589Y-914397D01*
D10*
X5359389Y-1473197D02*
G01*
X5232389Y-1346197D01*
X5232389Y-888997D01*
X3911592Y-838197D02*
G01*
X4089379Y-660410D01*
X4089379Y-533412D01*
D11*
X2794000Y-533400D02*
G01*
X3124200Y-203200D01*
X3454387Y-203200D01*
X3784600Y-533412D01*
X3784600Y-1117600D01*
X1676397Y-609600D02*
G01*
X1752597Y-533400D01*
X2793994Y-533400D01*
D10*
X2514594Y-1371597D02*
G01*
X3301992Y-584200D01*
X3301992Y-431800D01*
X3022600Y-3251194D02*
G01*
X3251200Y-3479794D01*
X3251200Y-4775200D01*
X2768600Y-3251194D02*
G01*
X2997200Y-3479794D01*
X2997200Y-4775200D01*
X1752600Y-3251194D02*
G01*
X2743200Y-4241794D01*
X2743200Y-4775200D01*
X1244600Y-3251194D02*
G01*
X2235200Y-4241794D01*
X2235200Y-4775200D01*
X2006594Y-1777997D02*
G01*
X2006600Y-1910079D01*
D12*
G01*
X2006600Y-1929764D03*
D13*
G01*
X2006600Y-2025015D03*
D14*
G01*
X6756400Y-2895600D03*
D15*
G01*
X6756400Y-2641600D03*
G01*
X6756400Y-2387600D03*
G01*
X6756400Y-2133600D03*
D16*
G01*
X6248400Y-3403600D03*
G01*
X6756400Y-3403600D03*
G01*
X6248400Y-3911600D03*
G01*
X6756400Y-3911600D03*
D17*
G01*
X6502400Y-3657600D03*
D16*
G01*
X5943600Y-2260600D03*
G01*
X6451600Y-2260600D03*
G01*
X5943600Y-2768600D03*
G01*
X6451600Y-2768600D03*
D17*
G01*
X6197600Y-2514600D03*
D18*
G01*
X4952974Y-3937000D03*
G01*
X5206974Y-3937000D03*
G01*
X4698974Y-3937000D03*
G01*
X4343374Y-533425D03*
G01*
X4597374Y-533425D03*
G01*
X4089374Y-533425D03*
D15*
G01*
X3251200Y-4775200D03*
G01*
X2997200Y-4775200D03*
G01*
X2743200Y-4775200D03*
G01*
X2489200Y-4775200D03*
G01*
X2235200Y-4775200D03*
G01*
X1981200Y-4775200D03*
G01*
X1727200Y-4775200D03*
G01*
X1473200Y-4775200D03*
G01*
X1219200Y-4775200D03*
D19*
G01*
X965200Y-4775174D03*
D20*
G01*
X736600Y-1143000D03*
G01*
X482600Y-1143000D03*
G01*
X228600Y-1143000D03*
D21*
G01*
X355600Y-355600D03*
G01*
X6705600Y-355600D03*
G01*
X6705600Y-4648200D03*
G01*
X355600Y-4648200D03*
D22*
G01*
X736600Y-1778000D03*
G01*
X1752600Y-1778000D03*
G01*
X3276600Y-1778000D03*
G01*
X4546600Y-1778000D03*
G01*
X736600Y-3251200D03*
G01*
X2006600Y-3251200D03*
G01*
X3276600Y-3251200D03*
G01*
X4546600Y-3251200D03*
G01*
X4876800Y-2514600D03*
D23*
G01*
X2006600Y-1778000D03*
G01*
X2514600Y-1371600D03*
G01*
X3302000Y-431800D03*
D22*
G01*
X2794000Y-533400D03*
G01*
X1676400Y-609600D03*
D23*
G01*
X990600Y-3251200D03*
G01*
X1244600Y-3251200D03*
G01*
X1498600Y-3251200D03*
G01*
X1752600Y-3251200D03*
G01*
X2768600Y-3251200D03*
G01*
X3022600Y-3251200D03*
D22*
G01*
X3784600Y-1117600D03*
D23*
G01*
X3911600Y-838200D03*
G01*
X5232400Y-889000D03*
G01*
X5359400Y-1473200D03*
D22*
G01*
X5435600Y-914400D03*
G01*
X6121400Y-1041400D03*
G01*
X2743200Y-3683000D03*
G01*
X482600Y-1778000D03*
D23*
G01*
X5867400Y-1041400D03*
G01*
X6197600Y-889000D03*
D22*
G01*
X990600Y-787400D03*
D23*
G01*
X1244600Y-330200D03*
D22*
G01*
X1854200Y-635000D03*
D23*
G01*
X1778000Y-1295400D03*
D22*
G01*
X2057400Y-1320800D03*
D23*
G01*
X2489200Y-787400D03*
D22*
G01*
X2717800Y-965200D03*
D23*
G01*
X3048000Y-1117600D03*
D22*
G01*
X3378200Y-533400D03*
G01*
X3657600Y-1117600D03*
G01*
X4318000Y-1092200D03*
D23*
G01*
X4648200Y-1193800D03*
G01*
X5689600Y-304800D03*
D22*
G01*
X5740400Y-1270000D03*
D23*
G01*
X5435600Y-508000D03*
D22*
G01*
X6578600Y-1320800D03*
G01*
X5943600Y-1701800D03*
D23*
G01*
X5689600Y-2057400D03*
D22*
G01*
X3403600Y-3683000D03*
G01*
X2641600Y-4292600D03*
G01*
X1854200Y-3759200D03*
G01*
X1701800Y-4216400D03*
G01*
X4013200Y-4216400D03*
G01*
X4191000Y-3937000D03*
G01*
X5435600Y-4724400D03*
G01*
X5867400Y-4013200D03*
G01*
X5715000Y-3479800D03*
D23*
G01*
X1651000Y-508000D03*
G01*
X1625600Y-685800D03*
G01*
X2870200Y-711200D03*
G01*
X3022600Y-584200D03*
G01*
X2438400Y-1320800D03*
G01*
X2641600Y-1371600D03*
G01*
X3302000Y-330200D03*
G01*
X381000Y-1778000D03*
G01*
X584200Y-1778000D03*
G01*
X406400Y-1879600D03*
G01*
X3733800Y-1193800D03*
G01*
X3886200Y-762000D03*
G01*
X4013200Y-889000D03*
G01*
X5435600Y-1016000D03*
G01*
X5511800Y-838200D03*
G01*
X5334000Y-914400D03*
G01*
X5791200Y-990600D03*
G01*
X6121400Y-939800D03*
G01*
X6273800Y-838200D03*
G01*
X5257800Y-1473200D03*
G01*
X5410200Y-1397000D03*
G01*
X5130800Y-889000D03*
G01*
X3124200Y-4724400D03*
G01*
X2870200Y-4724400D03*
G01*
X2616200Y-4724400D03*
G01*
X2362200Y-4724400D03*
G01*
X2108200Y-4724400D03*
G01*
X1854200Y-4724400D03*
G01*
X2641600Y-3708400D03*
G01*
X2641600Y-3810000D03*
G01*
X2870200Y-3657600D03*
G01*
X2870200Y-3733800D03*
G01*
X990600Y-3149600D03*
G01*
X1244600Y-3149600D03*
G01*
X1498600Y-3149600D03*
G01*
X1752600Y-3149600D03*
G01*
X2768600Y-3149600D03*
G01*
X3022600Y-3149600D03*
G01*
X3937000Y-533400D03*
G01*
X3987800Y-635000D03*
G01*
X4165600Y-431800D03*
G01*
X5537200Y-990600D03*
G01*
X3454400Y-1371600D03*
G01*
X3454400Y-1270000D03*
G01*
X3454400Y-1168400D03*
G01*
X3454400Y-1066800D03*
G01*
X3454400Y-965200D03*
G01*
X3454400Y-863600D03*
G01*
X3454400Y-762000D03*
G01*
X3454400Y-660400D03*
G01*
X3454400Y-558800D03*
G01*
X3556000Y-558800D03*
G01*
X3657600Y-558800D03*
G01*
X4368800Y-1016000D03*
G01*
X4470400Y-1016000D03*
G01*
X4572000Y-1016000D03*
G01*
X4673600Y-1016000D03*
G01*
X4775200Y-1066800D03*
G01*
X4876800Y-1117600D03*
G01*
X4876800Y-1219200D03*
G01*
X4876800Y-1320800D03*
G01*
X5232400Y-1651000D03*
G01*
X3327400Y-4064000D03*
G01*
X3327400Y-4165600D03*
G01*
X3327400Y-4267200D03*
G01*
X3314700Y-4368800D03*
G01*
X3314700Y-4470400D03*
G01*
X3352800Y-4572000D03*
G01*
X3403600Y-4673600D03*
G01*
X3403600Y-4775200D03*
G01*
X3403600Y-4876800D03*
G01*
X3175000Y-4064000D03*
G01*
X3073400Y-4064000D03*
G01*
X2844800Y-3911600D03*
G01*
X3149600Y-3632200D03*
G01*
X3606800Y-3860800D03*
G01*
X3708400Y-3860800D03*
G01*
X3810000Y-3860800D03*
G01*
X3911600Y-3860800D03*
G01*
X4013200Y-3860800D03*
G01*
X4114800Y-3860800D03*
G01*
X4521200Y-3911600D03*
G01*
X4622800Y-3810000D03*
G01*
X4775200Y-3759200D03*
G01*
X4927600Y-3759200D03*
G01*
X5080000Y-3759200D03*
G01*
X5232400Y-3759200D03*
G01*
X5384800Y-3759200D03*
G01*
X5486400Y-3657600D03*
G01*
X6502400Y-2997200D03*
G01*
X6400800Y-3098800D03*
G01*
X6299200Y-3200400D03*
G01*
X5994400Y-3556000D03*
G01*
X6096000Y-3556000D03*
G01*
X6604000Y-2540000D03*
G01*
X6146800Y-2743200D03*
G01*
X6248400Y-2743200D03*
G01*
X6502400Y-2590800D03*
G01*
X5842000Y-2082800D03*
G01*
X5537200Y-2057400D03*
G01*
X5384800Y-2057400D03*
G01*
X5232400Y-2057400D03*
G01*
X5232400Y-1879600D03*
G01*
X2209800Y-990600D03*
G01*
X2184400Y-1193800D03*
G01*
X2184400Y-1092200D03*
G01*
X2184400Y-1295400D03*
G01*
X2260600Y-889000D03*
G01*
X2082800Y-609600D03*
G01*
X4521200Y-4216400D03*
G01*
X4521200Y-4318000D03*
G01*
X4521200Y-4419600D03*
G01*
X4445000Y-4013200D03*
G01*
X4216400Y-4673600D03*
G01*
X4114800Y-4673600D03*
G01*
X4013200Y-4673600D03*
G01*
X3911600Y-4673600D03*
G01*
X3810000Y-4673600D03*
G01*
X3708400Y-4673600D03*
G01*
X3606800Y-4673600D03*
G01*
X3505200Y-4673600D03*
G01*
X4318000Y-4673600D03*
G01*
X4419600Y-4673600D03*
G01*
X2133600Y-1778000D03*
G01*
X660400Y-76200D03*
G01*
X863600Y-76200D03*
G01*
X1066800Y-76200D03*
G01*
X1270000Y-76200D03*
G01*
X2082800Y-76200D03*
G01*
X1879600Y-76200D03*
G01*
X1676400Y-76200D03*
G01*
X1473200Y-76200D03*
G01*
X2895600Y-76200D03*
G01*
X2692400Y-76200D03*
G01*
X2489200Y-76200D03*
G01*
X2286000Y-76200D03*
G01*
X3708400Y-76200D03*
G01*
X3505200Y-76200D03*
G01*
X3302000Y-76200D03*
G01*
X3098800Y-76200D03*
G01*
X4114800Y-76200D03*
G01*
X4318000Y-76200D03*
G01*
X4521200Y-76200D03*
G01*
X4724400Y-76200D03*
G01*
X3911600Y-76200D03*
G01*
X5130800Y-76200D03*
G01*
X5334000Y-76200D03*
G01*
X5537200Y-76200D03*
G01*
X5740400Y-76200D03*
G01*
X4927600Y-76200D03*
G01*
X6350000Y-76200D03*
G01*
X6146800Y-76200D03*
G01*
X5943600Y-76200D03*
G01*
X5943600Y-4927600D03*
G01*
X6146800Y-4927600D03*
G01*
X6350000Y-4927600D03*
G01*
X4927600Y-4927600D03*
G01*
X5740400Y-4927600D03*
G01*
X5537200Y-4927600D03*
G01*
X5334000Y-4927600D03*
G01*
X5130800Y-4927600D03*
G01*
X3911600Y-4927600D03*
G01*
X4724400Y-4927600D03*
G01*
X4521200Y-4927600D03*
G01*
X4318000Y-4927600D03*
G01*
X4114800Y-4927600D03*
G01*
X3098800Y-4927600D03*
G01*
X3302000Y-4927600D03*
G01*
X3505200Y-4927600D03*
G01*
X3708400Y-4927600D03*
G01*
X2286000Y-4927600D03*
G01*
X2489200Y-4927600D03*
G01*
X2692400Y-4927600D03*
G01*
X2895600Y-4927600D03*
G01*
X1473200Y-4927600D03*
G01*
X1676400Y-4927600D03*
G01*
X1879600Y-4927600D03*
G01*
X2082800Y-4927600D03*
G01*
X1270000Y-4927600D03*
G01*
X1066800Y-4927600D03*
G01*
X863600Y-4927600D03*
G01*
X660400Y-4927600D03*
G01*
X76200Y-3530600D03*
G01*
X76200Y-3733800D03*
G01*
X76200Y-3937000D03*
G01*
X76200Y-4140200D03*
G01*
X76200Y-4343400D03*
G01*
X76200Y-2108200D03*
G01*
X76200Y-2311400D03*
G01*
X76200Y-2514600D03*
G01*
X76200Y-2717800D03*
G01*
X76200Y-2921000D03*
G01*
X76200Y-3124200D03*
G01*
X76200Y-3327400D03*
G01*
X76200Y-685800D03*
G01*
X76200Y-889000D03*
G01*
X76200Y-1092200D03*
G01*
X76200Y-1295400D03*
G01*
X76200Y-1498600D03*
G01*
X76200Y-1701800D03*
G01*
X76200Y-1905000D03*
G01*
X7010400Y-660400D03*
G01*
X7010400Y-863600D03*
G01*
X7010400Y-1066800D03*
G01*
X7010400Y-1270000D03*
G01*
X7010400Y-1473200D03*
G01*
X7010400Y-1676400D03*
G01*
X7010400Y-1879600D03*
G01*
X7010400Y-2082800D03*
G01*
X7010400Y-2286000D03*
G01*
X7010400Y-2489200D03*
G01*
X7010400Y-2692400D03*
G01*
X7010400Y-2895600D03*
G01*
X7010400Y-3098800D03*
G01*
X7010400Y-3302000D03*
G01*
X7010400Y-3505200D03*
G01*
X7010400Y-3708400D03*
G01*
X7010400Y-3911600D03*
G01*
X7010400Y-4114800D03*
G01*
X7010400Y-4318000D03*
G01*
X76200Y-279400D03*
G01*
X76200Y-482600D03*
G01*
X254000Y-76200D03*
G01*
X457200Y-76200D03*
G01*
X127000Y-127000D03*
G01*
X6756400Y-76200D03*
G01*
X6553200Y-76200D03*
G01*
X7010374Y-254000D03*
G01*
X7010374Y-457200D03*
G01*
X6959600Y-76200D03*
G01*
X6553200Y-4927600D03*
G01*
X6756400Y-4927600D03*
G01*
X6959600Y-4927600D03*
G01*
X7010374Y-4724400D03*
G01*
X7010374Y-4521200D03*
G01*
X457200Y-4927600D03*
G01*
X76200Y-4749800D03*
G01*
X76200Y-4546600D03*
G01*
X254000Y-4927600D03*
G01*
X127000Y-4876774D03*
M02*
