G04 Layer: TopSilkscreenLayer*
G04 EasyEDA v6.5.14, 2022-08-19 22:00:23*
G04 9ad5c0e9e1e244c3a0103b4e9fecf948,9a5be75d700b4a6385dc1106f27949ae,10*
G04 Gerber Generator version 0.2*
G04 Scale: 100 percent, Rotated: No, Reflected: No *
G04 Dimensions in millimeters *
G04 leading zeros omitted , absolute positions ,4 integer and 5 decimal *
%FSLAX45Y45*%
%MOMM*%

%ADD10C,0.1500*%
%ADD11C,0.3000*%
%ADD12C,0.1524*%
%ADD13C,0.2000*%
%ADD14C,0.8000*%
%ADD15C,0.1000*%
%ADD16C,0.2100*%
%ADD17C,0.2540*%
%ADD18C,0.2032*%
%ADD19C,0.2030*%
%ADD20C,0.0120*%

%LPD*%
G36*
X6278270Y-3652113D02*
G01*
X6261963Y-3666286D01*
X6260896Y-3674414D01*
X6260744Y-3678377D01*
X6261214Y-3684879D01*
X6272733Y-3684879D01*
X6277914Y-3668318D01*
X6294831Y-3668318D01*
X6301638Y-3668522D01*
X6307632Y-3669182D01*
X6312154Y-3670096D01*
X6314592Y-3671214D01*
X6317437Y-3674059D01*
X6315100Y-3694633D01*
X6282639Y-3697071D01*
X6272733Y-3684879D01*
X6261214Y-3684879D01*
X6261658Y-3688334D01*
X6262624Y-3693109D01*
X6265367Y-3703726D01*
X6289395Y-3713886D01*
X6318504Y-3709060D01*
X6323482Y-3703878D01*
X6325565Y-3701034D01*
X6327597Y-3697224D01*
X6329324Y-3692906D01*
X6330543Y-3688537D01*
X6332626Y-3678428D01*
X6325463Y-3660749D01*
X6309664Y-3652113D01*
G37*
G36*
X6146342Y-3725011D02*
G01*
X6146342Y-3737152D01*
X6185560Y-3737152D01*
X6205931Y-3745026D01*
X6205931Y-3761130D01*
X6190538Y-3769512D01*
X6146342Y-3769512D01*
X6146342Y-3781653D01*
X6204661Y-3781653D01*
X6218885Y-3765651D01*
X6214364Y-3737152D01*
X6264706Y-3737152D01*
X6263644Y-3745229D01*
X6272834Y-3745229D01*
X6293154Y-3737356D01*
X6317081Y-3744976D01*
X6317081Y-3761587D01*
X6296914Y-3770985D01*
X6275374Y-3763264D01*
X6272834Y-3745229D01*
X6263644Y-3745229D01*
X6260642Y-3768090D01*
X6273952Y-3781653D01*
X6293205Y-3781653D01*
X6301181Y-3781450D01*
X6308750Y-3780891D01*
X6314948Y-3780078D01*
X6319012Y-3779113D01*
X6325616Y-3776522D01*
X6332931Y-3756863D01*
X6323888Y-3739540D01*
X6332931Y-3736441D01*
X6332931Y-3725011D01*
G37*
G36*
X6563207Y-3729024D02*
G01*
X6562902Y-3732072D01*
X6549339Y-3799738D01*
X6494830Y-3822750D01*
X6467551Y-3804208D01*
X6447332Y-3791153D01*
X6440474Y-3787190D01*
X6437071Y-3785717D01*
X6435191Y-3786632D01*
X6431889Y-3789121D01*
X6422491Y-3797808D01*
X6411112Y-3809339D01*
X6395466Y-3826510D01*
X6391808Y-3831031D01*
X6389420Y-3834434D01*
X6388557Y-3836415D01*
X6389979Y-3839972D01*
X6393789Y-3846728D01*
X6399377Y-3855770D01*
X6423761Y-3891737D01*
X6417360Y-3905453D01*
X6415024Y-3910939D01*
X6413398Y-3915765D01*
X6412636Y-3919321D01*
X6412890Y-3921201D01*
X6418021Y-3923842D01*
X6448501Y-3937508D01*
X6525361Y-3970528D01*
X6561328Y-3932885D01*
X6596938Y-3923741D01*
X6631228Y-3931615D01*
X6655308Y-3949649D01*
X6661505Y-3961790D01*
X6664147Y-3967632D01*
X6666788Y-3974541D01*
X6669125Y-3981653D01*
X6670852Y-3988104D01*
X6674002Y-4002278D01*
X6665163Y-4037990D01*
X6635953Y-4067810D01*
X6599631Y-4077106D01*
X6586372Y-4074617D01*
X6579717Y-4072940D01*
X6573062Y-4070553D01*
X6566458Y-4067505D01*
X6559956Y-4063746D01*
X6553708Y-4059377D01*
X6547662Y-4054449D01*
X6541973Y-4049014D01*
X6536639Y-4043019D01*
X6525514Y-4029456D01*
X6459372Y-4057853D01*
X6423914Y-4073651D01*
X6414770Y-4078071D01*
X6413195Y-4079036D01*
X6410909Y-4081322D01*
X6423660Y-4108551D01*
X6399276Y-4145838D01*
X6393688Y-4154982D01*
X6389622Y-4162399D01*
X6402730Y-4162399D01*
X6436918Y-4112920D01*
X6434074Y-4103065D01*
X6431635Y-4096004D01*
X6427825Y-4086453D01*
X6519875Y-4047540D01*
X6549339Y-4076801D01*
X6578853Y-4089349D01*
X6616801Y-4089146D01*
X6648551Y-4074414D01*
X6677609Y-4041546D01*
X6686854Y-3996232D01*
X6674713Y-3953662D01*
X6644589Y-3923741D01*
X6615074Y-3911193D01*
X6578853Y-3911193D01*
X6549339Y-3923741D01*
X6519773Y-3953103D01*
X6430213Y-3915664D01*
X6432499Y-3907688D01*
X6436766Y-3888740D01*
X6403238Y-3837584D01*
X6438493Y-3801668D01*
X6483197Y-3834282D01*
X6502298Y-3834282D01*
X6538061Y-3819398D01*
X6553962Y-3811828D01*
X6557721Y-3809542D01*
X6562140Y-3805885D01*
X6571742Y-3745229D01*
X6621881Y-3745229D01*
X6625081Y-3759403D01*
X6627672Y-3774592D01*
X6631635Y-3802227D01*
X6644589Y-3816908D01*
X6679793Y-3831793D01*
X6688785Y-3835196D01*
X6695694Y-3837482D01*
X6699503Y-3838346D01*
X6703466Y-3836873D01*
X6710832Y-3832860D01*
X6720484Y-3826967D01*
X6731406Y-3819753D01*
X6758635Y-3801160D01*
X6774078Y-3816502D01*
X6780072Y-3822801D01*
X6784949Y-3828643D01*
X6788302Y-3833266D01*
X6789470Y-3836111D01*
X6788251Y-3839667D01*
X6784848Y-3846271D01*
X6779768Y-3854907D01*
X6773621Y-3864660D01*
X6757771Y-3888943D01*
X6757771Y-3898036D01*
X6758584Y-3903573D01*
X6760768Y-3912108D01*
X6764020Y-3922369D01*
X6768033Y-3933240D01*
X6778294Y-3959402D01*
X6796989Y-3965041D01*
X6812127Y-3968496D01*
X6825996Y-3970934D01*
X6838137Y-3973423D01*
X6849059Y-3976522D01*
X6849059Y-4024020D01*
X6838340Y-4027017D01*
X6814718Y-4031996D01*
X6799630Y-4035399D01*
X6778396Y-4040835D01*
X6767322Y-4069587D01*
X6754114Y-4104741D01*
X6778599Y-4143552D01*
X6784187Y-4153306D01*
X6787997Y-4160570D01*
X6789420Y-4164431D01*
X6788200Y-4167276D01*
X6784898Y-4172000D01*
X6779920Y-4177842D01*
X6773875Y-4184243D01*
X6758228Y-4199839D01*
X6702298Y-4160875D01*
X6687362Y-4166006D01*
X6680149Y-4168698D01*
X6662674Y-4176064D01*
X6636816Y-4188510D01*
X6632295Y-4204411D01*
X6628434Y-4222191D01*
X6622186Y-4255312D01*
X6571843Y-4255312D01*
X6562598Y-4199331D01*
X6553301Y-4187088D01*
X6502298Y-4166260D01*
X6483197Y-4166260D01*
X6438493Y-4198874D01*
X6402730Y-4162399D01*
X6389622Y-4162399D01*
X6388506Y-4164990D01*
X6389420Y-4166920D01*
X6391859Y-4170222D01*
X6400292Y-4179874D01*
X6411468Y-4191558D01*
X6422948Y-4202887D01*
X6432499Y-4211472D01*
X6435750Y-4213910D01*
X6437680Y-4214825D01*
X6441186Y-4213352D01*
X6448094Y-4209389D01*
X6457391Y-4203496D01*
X6494627Y-4177690D01*
X6549339Y-4200855D01*
X6556349Y-4237990D01*
X6560108Y-4256786D01*
X6563359Y-4271518D01*
X6634124Y-4271518D01*
X6636207Y-4264406D01*
X6639052Y-4251299D01*
X6642912Y-4229658D01*
X6647535Y-4201972D01*
X6658965Y-4194860D01*
X6664655Y-4191711D01*
X6671716Y-4188307D01*
X6679285Y-4185056D01*
X6686346Y-4182414D01*
X6702298Y-4177080D01*
X6740194Y-4203293D01*
X6749592Y-4209288D01*
X6756501Y-4213352D01*
X6760006Y-4214825D01*
X6761988Y-4213910D01*
X6765391Y-4211421D01*
X6769811Y-4207662D01*
X6780682Y-4197350D01*
X6792264Y-4185462D01*
X6802323Y-4174337D01*
X6806031Y-4169816D01*
X6808470Y-4166412D01*
X6809333Y-4164329D01*
X6807911Y-4160672D01*
X6804050Y-4153763D01*
X6798360Y-4144568D01*
X6791452Y-4134154D01*
X6773621Y-4108145D01*
X6773621Y-4100880D01*
X6774383Y-4096359D01*
X6776415Y-4089349D01*
X6779412Y-4080865D01*
X6783070Y-4071874D01*
X6792468Y-4050131D01*
X6835952Y-4042867D01*
X6846925Y-4040835D01*
X6855256Y-4039057D01*
X6859727Y-4037888D01*
X6864959Y-4035856D01*
X6864959Y-3964381D01*
X6858000Y-3962400D01*
X6844487Y-3959504D01*
X6821728Y-3955287D01*
X6792417Y-3950208D01*
X6783019Y-3928567D01*
X6779361Y-3919575D01*
X6776364Y-3911142D01*
X6774383Y-3904183D01*
X6773621Y-3899662D01*
X6773621Y-3892397D01*
X6791452Y-3866387D01*
X6798360Y-3855974D01*
X6804050Y-3846880D01*
X6807911Y-3840022D01*
X6809333Y-3836415D01*
X6808470Y-3834333D01*
X6806031Y-3830828D01*
X6797649Y-3820922D01*
X6786524Y-3809085D01*
X6774992Y-3797706D01*
X6765340Y-3789121D01*
X6761937Y-3786632D01*
X6759854Y-3785768D01*
X6756247Y-3787190D01*
X6749491Y-3791153D01*
X6740448Y-3796893D01*
X6719874Y-3811015D01*
X6710578Y-3816807D01*
X6703364Y-3820718D01*
X6699199Y-3822141D01*
X6695033Y-3821429D01*
X6688683Y-3819448D01*
X6681063Y-3816553D01*
X6672884Y-3813098D01*
X6664858Y-3809390D01*
X6657848Y-3805834D01*
X6652615Y-3802684D01*
X6649872Y-3800398D01*
X6648500Y-3796741D01*
X6646621Y-3789730D01*
X6644589Y-3780434D01*
X6637121Y-3740962D01*
X6636054Y-3736136D01*
X6634124Y-3729024D01*
G37*
G36*
X6278270Y-3793794D02*
G01*
X6260744Y-3808272D01*
X6259931Y-3837635D01*
X6270345Y-3850386D01*
X6277610Y-3845814D01*
X6272479Y-3818026D01*
X6277406Y-3811981D01*
X6279591Y-3809644D01*
X6281877Y-3807714D01*
X6284061Y-3806444D01*
X6285788Y-3805936D01*
X6304381Y-3805936D01*
X6308598Y-3807510D01*
X6312712Y-3811473D01*
X6315811Y-3816756D01*
X6317081Y-3822141D01*
X6316675Y-3825036D01*
X6315659Y-3828135D01*
X6314135Y-3831082D01*
X6312306Y-3833469D01*
X6310223Y-3835349D01*
X6307988Y-3836924D01*
X6305956Y-3837940D01*
X6304381Y-3838346D01*
X6301181Y-3838346D01*
X6301181Y-3805936D01*
X6289294Y-3805936D01*
X6289294Y-3850487D01*
X6316472Y-3850487D01*
X6332931Y-3829151D01*
X6332931Y-3813708D01*
X6313474Y-3793794D01*
G37*
G36*
X6158433Y-3793794D02*
G01*
X6146901Y-3812032D01*
X6147098Y-3822649D01*
X6158280Y-3822649D01*
X6158687Y-3820871D01*
X6161532Y-3815334D01*
X6168948Y-3804716D01*
X6178143Y-3810457D01*
X6178143Y-3838346D01*
X6174435Y-3838346D01*
X6170066Y-3836466D01*
X6164681Y-3832098D01*
X6160160Y-3826865D01*
X6158280Y-3822649D01*
X6147098Y-3822649D01*
X6147612Y-3850487D01*
X6202476Y-3850487D01*
X6217818Y-3842105D01*
X6217818Y-3802379D01*
X6209893Y-3797401D01*
X6202476Y-3802075D01*
X6207048Y-3831082D01*
X6201511Y-3834637D01*
X6195974Y-3837533D01*
X6192621Y-3836670D01*
X6190538Y-3831031D01*
X6188964Y-3819601D01*
X6186932Y-3800906D01*
X6181547Y-3797401D01*
X6178753Y-3796080D01*
X6175095Y-3794963D01*
X6171133Y-3794150D01*
X6167272Y-3793896D01*
G37*
G36*
X6261506Y-3866692D02*
G01*
X6261506Y-3878427D01*
X6310274Y-3880865D01*
X6318351Y-3893921D01*
X6313322Y-3907180D01*
X6261506Y-3907180D01*
X6261506Y-3923334D01*
X6313474Y-3923334D01*
X6323228Y-3913428D01*
X6329476Y-3906215D01*
X6332321Y-3900220D01*
X6332016Y-3894175D01*
X6328816Y-3886657D01*
X6324752Y-3878834D01*
X6332931Y-3878834D01*
X6332931Y-3866692D01*
G37*
G36*
X6146342Y-3866692D02*
G01*
X6146342Y-3882898D01*
X6201410Y-3882898D01*
X6206642Y-3899662D01*
X6202019Y-3904386D01*
X6206439Y-3909822D01*
X6208420Y-3911955D01*
X6210554Y-3913682D01*
X6212586Y-3914851D01*
X6214262Y-3915257D01*
X6217615Y-3915257D01*
X6216954Y-3866692D01*
G37*
G36*
X6174282Y-3914190D02*
G01*
X6150203Y-3924401D01*
X6145682Y-3942842D01*
X6153501Y-3957777D01*
X6164224Y-3957777D01*
X6164224Y-3933494D01*
X6194552Y-3930904D01*
X6200241Y-3935729D01*
X6202426Y-3938015D01*
X6204254Y-3940606D01*
X6205474Y-3943248D01*
X6205931Y-3945636D01*
X6205474Y-3947972D01*
X6204254Y-3950614D01*
X6202426Y-3953256D01*
X6200241Y-3955491D01*
X6194552Y-3960317D01*
X6164224Y-3957777D01*
X6153501Y-3957777D01*
X6154216Y-3959148D01*
X6144920Y-3962298D01*
X6150051Y-3975963D01*
X6245606Y-3975963D01*
X6245606Y-3959809D01*
X6215634Y-3959809D01*
X6218478Y-3928973D01*
X6206236Y-3918559D01*
G37*
G36*
X6269990Y-3963314D02*
G01*
X6260693Y-3981043D01*
X6259931Y-4008577D01*
X6277203Y-4026204D01*
X6299200Y-4018330D01*
X6300520Y-4004259D01*
X6301333Y-3998417D01*
X6302654Y-3992829D01*
X6304229Y-3988206D01*
X6305956Y-3985158D01*
X6310020Y-3980129D01*
X6317691Y-3984955D01*
X6315100Y-4017772D01*
X6324955Y-4021175D01*
X6328968Y-4010456D01*
X6331966Y-4000398D01*
X6332626Y-3992016D01*
X6330899Y-3984447D01*
X6326784Y-3976878D01*
X6320586Y-3967886D01*
X6301740Y-3967886D01*
X6289294Y-3980586D01*
X6289294Y-4008983D01*
X6275374Y-4006291D01*
X6272834Y-3983583D01*
X6281420Y-3973017D01*
G37*
G36*
X6215075Y-3984091D02*
G01*
X6211417Y-3984955D01*
X6192316Y-3990797D01*
X6146088Y-4006087D01*
X6148374Y-4018229D01*
X6177178Y-4027170D01*
X6189319Y-4031742D01*
X6191808Y-4033113D01*
X6193993Y-4035399D01*
X6145784Y-4049064D01*
X6148324Y-4062222D01*
X6217818Y-4084320D01*
X6217818Y-4069384D01*
X6193790Y-4063136D01*
X6180836Y-4059174D01*
X6169101Y-4054500D01*
X6218123Y-4039362D01*
X6215735Y-4026611D01*
X6174130Y-4015282D01*
X6174130Y-4008932D01*
X6217818Y-3998976D01*
X6217818Y-3991508D01*
X6217615Y-3988663D01*
X6217005Y-3986276D01*
X6216142Y-3984650D01*
G37*
G36*
X6278270Y-4032656D02*
G01*
X6261963Y-4046829D01*
X6260896Y-4054906D01*
X6260744Y-4058920D01*
X6261214Y-4065422D01*
X6272733Y-4065422D01*
X6277914Y-4048861D01*
X6294831Y-4048861D01*
X6306464Y-4049318D01*
X6313220Y-4051350D01*
X6316319Y-4055719D01*
X6317081Y-4063237D01*
X6317081Y-4072280D01*
X6310782Y-4074718D01*
X6307480Y-4075684D01*
X6303111Y-4076446D01*
X6298234Y-4077004D01*
X6293408Y-4077208D01*
X6282334Y-4077208D01*
X6272733Y-4065422D01*
X6261214Y-4065422D01*
X6261658Y-4068876D01*
X6262624Y-4073651D01*
X6265367Y-4084269D01*
X6288836Y-4094175D01*
X6320586Y-4088688D01*
X6324447Y-4083913D01*
X6326124Y-4081272D01*
X6327851Y-4077614D01*
X6329324Y-4073347D01*
X6330492Y-4069079D01*
X6332626Y-4058970D01*
X6325463Y-4041292D01*
X6309664Y-4032656D01*
G37*
G36*
X6162243Y-4085285D02*
G01*
X6146495Y-4101337D01*
X6146987Y-4112818D01*
X6158788Y-4112818D01*
X6163106Y-4101490D01*
X6167932Y-4101490D01*
X6172708Y-4102354D01*
X6175857Y-4105249D01*
X6177584Y-4110431D01*
X6178143Y-4118356D01*
X6178143Y-4129836D01*
X6163157Y-4129836D01*
X6158788Y-4112818D01*
X6146987Y-4112818D01*
X6148374Y-4143959D01*
X6198768Y-4146397D01*
X6217818Y-4133697D01*
X6217818Y-4097883D01*
X6209334Y-4092549D01*
X6206642Y-4095343D01*
X6205575Y-4097578D01*
X6204712Y-4101642D01*
X6204153Y-4106926D01*
X6203899Y-4112869D01*
X6203899Y-4127601D01*
X6190030Y-4130395D01*
X6190030Y-4101490D01*
X6174130Y-4085285D01*
G37*
G36*
X6274917Y-4105503D02*
G01*
X6261506Y-4115663D01*
X6261862Y-4143146D01*
X6261811Y-4162196D01*
X6332931Y-4162196D01*
X6332931Y-4150055D01*
X6288735Y-4150055D01*
X6273393Y-4141673D01*
X6273393Y-4126077D01*
X6288735Y-4117644D01*
X6332931Y-4117644D01*
X6332931Y-4105503D01*
G37*
G36*
X6146342Y-4162196D02*
G01*
X6146342Y-4174337D01*
X6196990Y-4174337D01*
X6206794Y-4186377D01*
X6201664Y-4199991D01*
X6208979Y-4204614D01*
X6213195Y-4206392D01*
X6214719Y-4206646D01*
X6217564Y-4206748D01*
X6216396Y-4162196D01*
G37*
G36*
X6261506Y-4178401D02*
G01*
X6261506Y-4194200D01*
X6315100Y-4196588D01*
X6317538Y-4222242D01*
X6328562Y-4226560D01*
X6333388Y-4211066D01*
X6325006Y-4195064D01*
X6328968Y-4192574D01*
X6331661Y-4190085D01*
X6332778Y-4187190D01*
X6332321Y-4184142D01*
X6330289Y-4181094D01*
X6327648Y-4178401D01*
G37*
G36*
X6166815Y-4209796D02*
G01*
X6146342Y-4230674D01*
X6146342Y-4238752D01*
X6147663Y-4247388D01*
X6150914Y-4256786D01*
X6154928Y-4264355D01*
X6158585Y-4267454D01*
X6161684Y-4265777D01*
X6163360Y-4261408D01*
X6163411Y-4255262D01*
X6161735Y-4248150D01*
X6158382Y-4238955D01*
X6176111Y-4220921D01*
X6176194Y-4222648D01*
X6190030Y-4222648D01*
X6205931Y-4231284D01*
X6205931Y-4238447D01*
X6205524Y-4241596D01*
X6204508Y-4244898D01*
X6202984Y-4247997D01*
X6201156Y-4250436D01*
X6199022Y-4252315D01*
X6196838Y-4253890D01*
X6194806Y-4254906D01*
X6193180Y-4255312D01*
X6190030Y-4255312D01*
X6190030Y-4222648D01*
X6176194Y-4222648D01*
X6178499Y-4272076D01*
X6191199Y-4269333D01*
X6196685Y-4267758D01*
X6202222Y-4265523D01*
X6207150Y-4262932D01*
X6210858Y-4260291D01*
X6217818Y-4254042D01*
X6217818Y-4223918D01*
X6205626Y-4213606D01*
G37*
G36*
X6280810Y-4226966D02*
G01*
X6266281Y-4234891D01*
X6257848Y-4259580D01*
X6261557Y-4269689D01*
X6263132Y-4272991D01*
X6266586Y-4278630D01*
X6270498Y-4283760D01*
X6281420Y-4274464D01*
X6272530Y-4263491D01*
X6277305Y-4244086D01*
X6296660Y-4239107D01*
X6318046Y-4247388D01*
X6313068Y-4279138D01*
X6320485Y-4283760D01*
X6326733Y-4274718D01*
X6330696Y-4267606D01*
X6332372Y-4260748D01*
X6331762Y-4253331D01*
X6328968Y-4244441D01*
X6325463Y-4235602D01*
X6309664Y-4226966D01*
G37*
G36*
X6297168Y-4287062D02*
G01*
X6274206Y-4292193D01*
X6268212Y-4299051D01*
X6263690Y-4305960D01*
X6261303Y-4313936D01*
X6260998Y-4323080D01*
X6262827Y-4333544D01*
X6265722Y-4344974D01*
X6275374Y-4341571D01*
X6272834Y-4315561D01*
X6277559Y-4309719D01*
X6279692Y-4307433D01*
X6281928Y-4305604D01*
X6284061Y-4304334D01*
X6285788Y-4303877D01*
X6306464Y-4303877D01*
X6308750Y-4304131D01*
X6311036Y-4304741D01*
X6313068Y-4305655D01*
X6314592Y-4306773D01*
X6317437Y-4309668D01*
X6315100Y-4330141D01*
X6301181Y-4332833D01*
X6301181Y-4303877D01*
X6289294Y-4303877D01*
X6289294Y-4348429D01*
X6313474Y-4348429D01*
X6332931Y-4328566D01*
X6332677Y-4321302D01*
X6332321Y-4317746D01*
X6331508Y-4313580D01*
X6329019Y-4305300D01*
X6325565Y-4296613D01*
G37*
G36*
X6208776Y-477875D02*
G01*
X6208776Y-777900D01*
X6265926Y-777900D01*
X6265926Y-577900D01*
X6294526Y-577900D01*
X6294526Y-606450D01*
X6380226Y-606450D01*
X6380226Y-635050D01*
X6437376Y-635050D01*
X6437376Y-663600D01*
X6465925Y-663600D01*
X6465925Y-692150D01*
X6494526Y-692150D01*
X6494526Y-663600D01*
X6523075Y-663600D01*
X6523075Y-720750D01*
X6408775Y-720750D01*
X6408775Y-749300D01*
X6380226Y-749300D01*
X6380226Y-777900D01*
X6351625Y-777900D01*
X6351625Y-806450D01*
X6180226Y-806450D01*
X6180226Y-835050D01*
X6151626Y-835050D01*
X6151626Y-977900D01*
X6237376Y-977900D01*
X6237376Y-1006449D01*
X6208776Y-1006449D01*
X6208776Y-1035050D01*
X6237376Y-1035050D01*
X6237376Y-1006449D01*
X6351625Y-1006449D01*
X6351625Y-949299D01*
X6580225Y-949299D01*
X6580225Y-892149D01*
X6608775Y-892149D01*
X6608775Y-863600D01*
X6637375Y-863600D01*
X6637375Y-806450D01*
X6665925Y-806450D01*
X6665925Y-777900D01*
X6694525Y-777900D01*
X6694525Y-835050D01*
X6780225Y-835050D01*
X6780225Y-863600D01*
X6808774Y-863600D01*
X6808774Y-892149D01*
X6780225Y-892149D01*
X6780225Y-920750D01*
X6723075Y-920750D01*
X6723075Y-977900D01*
X6751624Y-977900D01*
X6751624Y-1006449D01*
X6723075Y-1006449D01*
X6723075Y-977900D01*
X6665925Y-977900D01*
X6665925Y-949299D01*
X6408775Y-949299D01*
X6408775Y-1006449D01*
X6494526Y-1006449D01*
X6494526Y-1035050D01*
X6523075Y-1035050D01*
X6523075Y-1063599D01*
X6465925Y-1063599D01*
X6465925Y-1092149D01*
X6437376Y-1092149D01*
X6437376Y-1120749D01*
X6380226Y-1120749D01*
X6380226Y-1149299D01*
X6323076Y-1149299D01*
X6323076Y-1177899D01*
X6294526Y-1177899D01*
X6294526Y-1206449D01*
X6265926Y-1206449D01*
X6265926Y-1035050D01*
X6208776Y-1035050D01*
X6208776Y-1277874D01*
X6265926Y-1277874D01*
X6265926Y-1263599D01*
X6323076Y-1263599D01*
X6323076Y-1235049D01*
X6380226Y-1235049D01*
X6380226Y-1206449D01*
X6408775Y-1206449D01*
X6408775Y-1177899D01*
X6465925Y-1177899D01*
X6465925Y-1149299D01*
X6523075Y-1149299D01*
X6523075Y-1120749D01*
X6580225Y-1120749D01*
X6580225Y-1092149D01*
X6523075Y-1092149D01*
X6523075Y-1063599D01*
X6665925Y-1063599D01*
X6665925Y-1092149D01*
X6694525Y-1092149D01*
X6694525Y-1120749D01*
X6723075Y-1120749D01*
X6723075Y-1149299D01*
X6780225Y-1149299D01*
X6780225Y-1063599D01*
X6751624Y-1063599D01*
X6751624Y-1006449D01*
X6780225Y-1006449D01*
X6780225Y-977900D01*
X6808774Y-977900D01*
X6808774Y-949299D01*
X6865924Y-949299D01*
X6865924Y-920750D01*
X6894525Y-920750D01*
X6894525Y-892149D01*
X6923074Y-892149D01*
X6923074Y-863600D01*
X6894525Y-863600D01*
X6894525Y-835050D01*
X6865924Y-835050D01*
X6865924Y-806450D01*
X6808774Y-806450D01*
X6808774Y-777900D01*
X6694525Y-777900D01*
X6694525Y-749300D01*
X6780225Y-749300D01*
X6780225Y-663600D01*
X6751624Y-663600D01*
X6751624Y-635050D01*
X6694525Y-635050D01*
X6694525Y-606450D01*
X6608775Y-606450D01*
X6608775Y-635050D01*
X6551625Y-635050D01*
X6551625Y-663600D01*
X6523075Y-663600D01*
X6523075Y-635050D01*
X6494526Y-635050D01*
X6494526Y-606450D01*
X6465925Y-606450D01*
X6465925Y-577900D01*
X6408775Y-577900D01*
X6408775Y-549300D01*
X6351625Y-549300D01*
X6351625Y-520750D01*
X6323076Y-520750D01*
X6323076Y-492150D01*
X6265926Y-492150D01*
X6265926Y-477875D01*
G37*
G36*
X1107541Y-244856D02*
G01*
X957681Y-245059D01*
X905916Y-245414D01*
X873048Y-245922D01*
X854608Y-246735D01*
X849376Y-247294D01*
X846074Y-247904D01*
X844092Y-248615D01*
X842568Y-249682D01*
X838352Y-254762D01*
X835710Y-260400D01*
X834593Y-266090D01*
X835456Y-271526D01*
X844750Y-288493D01*
X894181Y-288493D01*
X1129487Y-287680D01*
X1356461Y-287680D01*
X1574495Y-288493D01*
X1321866Y-724204D01*
X1240028Y-865784D01*
X1235049Y-873760D01*
X1234135Y-874725D01*
X894181Y-288493D01*
X844750Y-288493D01*
X883158Y-355904D01*
X944829Y-462991D01*
X1032611Y-614578D01*
X1119479Y-764032D01*
X1179068Y-865886D01*
X1215085Y-926592D01*
X1220927Y-935837D01*
X1226566Y-940053D01*
X1232255Y-942136D01*
X1238199Y-942035D01*
X1244600Y-939800D01*
X1247394Y-936802D01*
X1252423Y-929640D01*
X1259484Y-918768D01*
X1268222Y-904646D01*
X1289710Y-868324D01*
X1473708Y-549656D01*
X1583334Y-359257D01*
X1632305Y-273558D01*
X1633778Y-267665D01*
X1633220Y-261366D01*
X1630883Y-255219D01*
X1626107Y-249123D01*
X1624228Y-248158D01*
X1620672Y-247396D01*
X1615846Y-246837D01*
X1598574Y-246024D01*
X1567484Y-245465D01*
X1518158Y-245110D01*
G37*
G36*
X1235303Y-300583D02*
G01*
X1229817Y-301498D01*
X1224483Y-303834D01*
X1219352Y-307695D01*
X1214628Y-312978D01*
X1213053Y-315315D01*
X1211834Y-317754D01*
X1210970Y-320598D01*
X1210310Y-324205D01*
X1209751Y-335076D01*
X1209852Y-353009D01*
X1210310Y-369316D01*
X1211376Y-383387D01*
X1213053Y-396036D01*
X1215440Y-407822D01*
X1219403Y-425551D01*
X1220063Y-430276D01*
X1220419Y-434746D01*
X1220368Y-439013D01*
X1219809Y-443230D01*
X1218793Y-447598D01*
X1217218Y-452170D01*
X1215034Y-457200D01*
X1212240Y-462788D01*
X1204620Y-476148D01*
X1183182Y-510895D01*
X1167384Y-537057D01*
X1153769Y-560527D01*
X1142746Y-580644D01*
X1134719Y-596747D01*
X1131925Y-603046D01*
X1128572Y-612698D01*
X1126998Y-619506D01*
X1126083Y-625957D01*
X1125880Y-632002D01*
X1126388Y-637540D01*
X1127607Y-642416D01*
X1129487Y-646582D01*
X1132078Y-649986D01*
X1136142Y-653135D01*
X1140714Y-655116D01*
X1145692Y-655929D01*
X1150874Y-655624D01*
X1156055Y-654253D01*
X1161084Y-651764D01*
X1165860Y-648258D01*
X1170127Y-643737D01*
X1171752Y-641248D01*
X1173276Y-638098D01*
X1174750Y-634187D01*
X1177442Y-623976D01*
X1179880Y-610514D01*
X1181811Y-597052D01*
X1183944Y-585368D01*
X1186738Y-572770D01*
X1190142Y-559562D01*
X1194155Y-545846D01*
X1198575Y-531977D01*
X1203452Y-518109D01*
X1208633Y-504545D01*
X1216355Y-486105D01*
X1223975Y-469036D01*
X1225702Y-465886D01*
X1226515Y-465835D01*
X1227480Y-467207D01*
X1228394Y-469798D01*
X1232458Y-489000D01*
X1239367Y-517702D01*
X1247444Y-548335D01*
X1251254Y-561949D01*
X1254658Y-573176D01*
X1258214Y-583641D01*
X1262938Y-595833D01*
X1268069Y-607720D01*
X1273302Y-618642D01*
X1278382Y-628040D01*
X1283004Y-635254D01*
X1285036Y-637844D01*
X1291996Y-644448D01*
X1300327Y-650290D01*
X1308557Y-654456D01*
X1315059Y-655980D01*
X1318310Y-655574D01*
X1322324Y-654507D01*
X1326642Y-652932D01*
X1330655Y-651052D01*
X1335582Y-647903D01*
X1339799Y-643890D01*
X1343406Y-638962D01*
X1346301Y-633018D01*
X1348638Y-626059D01*
X1350416Y-617982D01*
X1351635Y-608685D01*
X1352296Y-598119D01*
X1352753Y-584657D01*
X1352448Y-577392D01*
X1351076Y-574395D01*
X1348333Y-573836D01*
X1345895Y-574294D01*
X1344117Y-575919D01*
X1342796Y-579069D01*
X1341780Y-583996D01*
X1339088Y-592632D01*
X1334312Y-599694D01*
X1328166Y-604469D01*
X1321358Y-606247D01*
X1317650Y-605840D01*
X1313738Y-604723D01*
X1309674Y-602843D01*
X1305560Y-600303D01*
X1301394Y-597154D01*
X1297330Y-593394D01*
X1293368Y-589127D01*
X1289558Y-584301D01*
X1283766Y-575665D01*
X1277721Y-565404D01*
X1271625Y-553821D01*
X1265580Y-541274D01*
X1259687Y-528167D01*
X1254150Y-514756D01*
X1249070Y-501446D01*
X1244600Y-488645D01*
X1240891Y-476605D01*
X1238046Y-465683D01*
X1236218Y-456336D01*
X1235760Y-452323D01*
X1235608Y-448818D01*
X1236319Y-443839D01*
X1238199Y-436321D01*
X1240993Y-427431D01*
X1247140Y-410972D01*
X1251762Y-397459D01*
X1255318Y-384606D01*
X1257960Y-372160D01*
X1259636Y-359867D01*
X1260144Y-353669D01*
X1260500Y-341020D01*
X1260297Y-330149D01*
X1259484Y-322630D01*
X1257757Y-317042D01*
X1254861Y-311962D01*
X1250594Y-306882D01*
X1245819Y-303326D01*
X1240688Y-301193D01*
G37*
D10*
X202437Y-3759200D02*
G01*
X106934Y-3759200D01*
X202437Y-3759200D02*
G01*
X202437Y-3800094D01*
X197865Y-3813810D01*
X193294Y-3818381D01*
X184404Y-3822954D01*
X175260Y-3822954D01*
X166115Y-3818381D01*
X161544Y-3813810D01*
X156971Y-3800094D01*
X156971Y-3759200D01*
X156971Y-3790950D02*
G01*
X106934Y-3822954D01*
X143510Y-3852926D02*
G01*
X143510Y-3907281D01*
X152400Y-3907281D01*
X161544Y-3902710D01*
X166115Y-3898392D01*
X170687Y-3889247D01*
X170687Y-3875531D01*
X166115Y-3866387D01*
X156971Y-3857497D01*
X143510Y-3852926D01*
X134365Y-3852926D01*
X120650Y-3857497D01*
X111505Y-3866387D01*
X106934Y-3875531D01*
X106934Y-3889247D01*
X111505Y-3898392D01*
X120650Y-3907281D01*
X170687Y-3937507D02*
G01*
X106934Y-3964686D01*
X170687Y-3991863D02*
G01*
X106934Y-3964686D01*
X129794Y-4026407D02*
G01*
X125221Y-4021836D01*
X120650Y-4026407D01*
X125221Y-4030979D01*
X129794Y-4026407D01*
X179831Y-4065523D02*
G01*
X184404Y-4065523D01*
X193294Y-4070095D01*
X197865Y-4074668D01*
X202437Y-4083812D01*
X202437Y-4101845D01*
X197865Y-4110989D01*
X193294Y-4115562D01*
X184404Y-4120134D01*
X175260Y-4120134D01*
X166115Y-4115562D01*
X152400Y-4106418D01*
X106934Y-4060952D01*
X106934Y-4124705D01*
X129794Y-4159250D02*
G01*
X125221Y-4154678D01*
X120650Y-4159250D01*
X125221Y-4163821D01*
X129794Y-4159250D01*
X202437Y-4220971D02*
G01*
X197865Y-4207255D01*
X184404Y-4198365D01*
X161544Y-4193794D01*
X148081Y-4193794D01*
X125221Y-4198365D01*
X111505Y-4207255D01*
X106934Y-4220971D01*
X106934Y-4230115D01*
X111505Y-4243831D01*
X125221Y-4252721D01*
X148081Y-4257294D01*
X161544Y-4257294D01*
X184404Y-4252721D01*
X197865Y-4243831D01*
X202437Y-4230115D01*
X202437Y-4220971D01*
X202437Y-4287265D02*
G01*
X106934Y-4287265D01*
X156971Y-4287265D02*
G01*
X166115Y-4296410D01*
X170687Y-4305554D01*
X170687Y-4319270D01*
X166115Y-4328413D01*
X156971Y-4337304D01*
X143510Y-4341876D01*
X134365Y-4341876D01*
X120650Y-4337304D01*
X111505Y-4328413D01*
X106934Y-4319270D01*
X106934Y-4305554D01*
X111505Y-4296410D01*
X120650Y-4287265D01*
D11*
X562610Y-3709670D02*
G01*
X544321Y-3718813D01*
X526287Y-3737102D01*
X517144Y-3755136D01*
X508000Y-3782568D01*
X508000Y-3828034D01*
X517144Y-3855212D01*
X526287Y-3873500D01*
X544321Y-3891534D01*
X562610Y-3900678D01*
X598931Y-3900678D01*
X616965Y-3891534D01*
X635254Y-3873500D01*
X644397Y-3855212D01*
X653542Y-3828034D01*
X653542Y-3782568D01*
X644397Y-3755136D01*
X635254Y-3737102D01*
X616965Y-3718813D01*
X598931Y-3709670D01*
X562610Y-3709670D01*
X713486Y-3773423D02*
G01*
X713486Y-3964431D01*
X713486Y-3800602D02*
G01*
X731520Y-3782568D01*
X749807Y-3773423D01*
X776986Y-3773423D01*
X795273Y-3782568D01*
X813562Y-3800602D01*
X822452Y-3828034D01*
X822452Y-3846068D01*
X813562Y-3873500D01*
X795273Y-3891534D01*
X776986Y-3900678D01*
X749807Y-3900678D01*
X731520Y-3891534D01*
X713486Y-3873500D01*
X882650Y-3828034D02*
G01*
X991615Y-3828034D01*
X991615Y-3809745D01*
X982471Y-3791712D01*
X973328Y-3782568D01*
X955294Y-3773423D01*
X928115Y-3773423D01*
X909828Y-3782568D01*
X891539Y-3800602D01*
X882650Y-3828034D01*
X882650Y-3846068D01*
X891539Y-3873500D01*
X909828Y-3891534D01*
X928115Y-3900678D01*
X955294Y-3900678D01*
X973328Y-3891534D01*
X991615Y-3873500D01*
X1051560Y-3773423D02*
G01*
X1051560Y-3900678D01*
X1051560Y-3809745D02*
G01*
X1078992Y-3782568D01*
X1097026Y-3773423D01*
X1124457Y-3773423D01*
X1142492Y-3782568D01*
X1151636Y-3809745D01*
X1151636Y-3900678D01*
X1487931Y-3755136D02*
G01*
X1478787Y-3737102D01*
X1460754Y-3718813D01*
X1442465Y-3709670D01*
X1406144Y-3709670D01*
X1388110Y-3718813D01*
X1369821Y-3737102D01*
X1360678Y-3755136D01*
X1351534Y-3782568D01*
X1351534Y-3828034D01*
X1360678Y-3855212D01*
X1369821Y-3873500D01*
X1388110Y-3891534D01*
X1406144Y-3900678D01*
X1442465Y-3900678D01*
X1460754Y-3891534D01*
X1478787Y-3873500D01*
X1487931Y-3855212D01*
X1487931Y-3828034D01*
X1442465Y-3828034D02*
G01*
X1487931Y-3828034D01*
X1657095Y-3773423D02*
G01*
X1657095Y-3900678D01*
X1657095Y-3800602D02*
G01*
X1638807Y-3782568D01*
X1620773Y-3773423D01*
X1593342Y-3773423D01*
X1575307Y-3782568D01*
X1557020Y-3800602D01*
X1547876Y-3828034D01*
X1547876Y-3846068D01*
X1557020Y-3873500D01*
X1575307Y-3891534D01*
X1593342Y-3900678D01*
X1620773Y-3900678D01*
X1638807Y-3891534D01*
X1657095Y-3873500D01*
X1717039Y-3773423D02*
G01*
X1717039Y-3900678D01*
X1717039Y-3809745D02*
G01*
X1744471Y-3782568D01*
X1762505Y-3773423D01*
X1789937Y-3773423D01*
X1807971Y-3782568D01*
X1817115Y-3809745D01*
X1817115Y-3900678D01*
X1817115Y-3809745D02*
G01*
X1844294Y-3782568D01*
X1862581Y-3773423D01*
X1889760Y-3773423D01*
X1908047Y-3782568D01*
X1917192Y-3809745D01*
X1917192Y-3900678D01*
X1977136Y-3773423D02*
G01*
X1977136Y-3900678D01*
X1977136Y-3809745D02*
G01*
X2004313Y-3782568D01*
X2022602Y-3773423D01*
X2049779Y-3773423D01*
X2068068Y-3782568D01*
X2077211Y-3809745D01*
X2077211Y-3900678D01*
X2077211Y-3809745D02*
G01*
X2104390Y-3782568D01*
X2122424Y-3773423D01*
X2149856Y-3773423D01*
X2167890Y-3782568D01*
X2177034Y-3809745D01*
X2177034Y-3900678D01*
X2346197Y-3773423D02*
G01*
X2346197Y-3900678D01*
X2346197Y-3800602D02*
G01*
X2327909Y-3782568D01*
X2309875Y-3773423D01*
X2282443Y-3773423D01*
X2264409Y-3782568D01*
X2246122Y-3800602D01*
X2236977Y-3828034D01*
X2236977Y-3846068D01*
X2246122Y-3873500D01*
X2264409Y-3891534D01*
X2282443Y-3900678D01*
X2309875Y-3900678D01*
X2327909Y-3891534D01*
X2346197Y-3873500D01*
D12*
X2026150Y-4430262D02*
G01*
X2034278Y-4425944D01*
X2042406Y-4417816D01*
X2046724Y-4409688D01*
X2046724Y-4393432D01*
X2042406Y-4385050D01*
X2034278Y-4376922D01*
X2026150Y-4372858D01*
X2013958Y-4368794D01*
X1993384Y-4368794D01*
X1981192Y-4372858D01*
X1973064Y-4376922D01*
X1964682Y-4385050D01*
X1960618Y-4393432D01*
X1960618Y-4409688D01*
X1964682Y-4417816D01*
X1973064Y-4425944D01*
X1981192Y-4430262D01*
X1993384Y-4430262D01*
X1993384Y-4409688D02*
G01*
X1993384Y-4430262D01*
X2046724Y-4457186D02*
G01*
X1960618Y-4457186D01*
X2046724Y-4457186D02*
G01*
X1960618Y-4514336D01*
X2046724Y-4514336D02*
G01*
X1960618Y-4514336D01*
X2046724Y-4541514D02*
G01*
X1960618Y-4541514D01*
X2046724Y-4541514D02*
G01*
X2046724Y-4569962D01*
X2042406Y-4582408D01*
X2034278Y-4590536D01*
X2026150Y-4594600D01*
X2013958Y-4598664D01*
X1993384Y-4598664D01*
X1981192Y-4594600D01*
X1973064Y-4590536D01*
X1964682Y-4582408D01*
X1960618Y-4569962D01*
X1960618Y-4541514D01*
X1780275Y-4425944D02*
G01*
X1788403Y-4417816D01*
X1792721Y-4405624D01*
X1792721Y-4389368D01*
X1788403Y-4376922D01*
X1780275Y-4368794D01*
X1772147Y-4368794D01*
X1764019Y-4372858D01*
X1759955Y-4376922D01*
X1755891Y-4385050D01*
X1747509Y-4409688D01*
X1743445Y-4417816D01*
X1739381Y-4421880D01*
X1731253Y-4425944D01*
X1719061Y-4425944D01*
X1710679Y-4417816D01*
X1706615Y-4405624D01*
X1706615Y-4389368D01*
X1710679Y-4376922D01*
X1719061Y-4368794D01*
X1772147Y-4514336D02*
G01*
X1780275Y-4510272D01*
X1788403Y-4502144D01*
X1792721Y-4494016D01*
X1792721Y-4477506D01*
X1788403Y-4469378D01*
X1780275Y-4461250D01*
X1772147Y-4457186D01*
X1759955Y-4453122D01*
X1739381Y-4453122D01*
X1727189Y-4457186D01*
X1719061Y-4461250D01*
X1710679Y-4469378D01*
X1706615Y-4477506D01*
X1706615Y-4494016D01*
X1710679Y-4502144D01*
X1719061Y-4510272D01*
X1727189Y-4514336D01*
X1792721Y-4541514D02*
G01*
X1706615Y-4541514D01*
X1706615Y-4541514D02*
G01*
X1706615Y-4590536D01*
X1526275Y-4425944D02*
G01*
X1534403Y-4417816D01*
X1538721Y-4405624D01*
X1538721Y-4389368D01*
X1534403Y-4376922D01*
X1526275Y-4368794D01*
X1518147Y-4368794D01*
X1510019Y-4372858D01*
X1505955Y-4376922D01*
X1501891Y-4385050D01*
X1493509Y-4409688D01*
X1489445Y-4417816D01*
X1485381Y-4421880D01*
X1477253Y-4425944D01*
X1465061Y-4425944D01*
X1456679Y-4417816D01*
X1452615Y-4405624D01*
X1452615Y-4389368D01*
X1456679Y-4376922D01*
X1465061Y-4368794D01*
X1538721Y-4453122D02*
G01*
X1452615Y-4453122D01*
X1538721Y-4453122D02*
G01*
X1538721Y-4481824D01*
X1534403Y-4494016D01*
X1526275Y-4502144D01*
X1518147Y-4506208D01*
X1505955Y-4510272D01*
X1485381Y-4510272D01*
X1473189Y-4506208D01*
X1465061Y-4502144D01*
X1456679Y-4494016D01*
X1452615Y-4481824D01*
X1452615Y-4453122D01*
X1538721Y-4569962D02*
G01*
X1452615Y-4537450D01*
X1538721Y-4569962D02*
G01*
X1452615Y-4602728D01*
X1481317Y-4549642D02*
G01*
X1481317Y-4590536D01*
X1284721Y-4376922D02*
G01*
X1284721Y-4421880D01*
X1251955Y-4397496D01*
X1251955Y-4409688D01*
X1247891Y-4417816D01*
X1243827Y-4421880D01*
X1231381Y-4425944D01*
X1223253Y-4425944D01*
X1211061Y-4421880D01*
X1202679Y-4413752D01*
X1198615Y-4401560D01*
X1198615Y-4389368D01*
X1202679Y-4376922D01*
X1206997Y-4372858D01*
X1215125Y-4368794D01*
X1284721Y-4453122D02*
G01*
X1198615Y-4485888D01*
X1284721Y-4518400D02*
G01*
X1198615Y-4485888D01*
X1284721Y-4553706D02*
G01*
X1284721Y-4598664D01*
X1251955Y-4574280D01*
X1251955Y-4586472D01*
X1247891Y-4594600D01*
X1243827Y-4598664D01*
X1231381Y-4602728D01*
X1223253Y-4602728D01*
X1211061Y-4598664D01*
X1202679Y-4590536D01*
X1198615Y-4578344D01*
X1198615Y-4565898D01*
X1202679Y-4553706D01*
X1206997Y-4549642D01*
X1215125Y-4545578D01*
X6533629Y-2427719D02*
G01*
X6525501Y-2432037D01*
X6517373Y-2440165D01*
X6513055Y-2448293D01*
X6513055Y-2464549D01*
X6517373Y-2472931D01*
X6525501Y-2481059D01*
X6533629Y-2485123D01*
X6545821Y-2489187D01*
X6566395Y-2489187D01*
X6578587Y-2485123D01*
X6586715Y-2481059D01*
X6595097Y-2472931D01*
X6599161Y-2464549D01*
X6599161Y-2448293D01*
X6595097Y-2440165D01*
X6586715Y-2432037D01*
X6578587Y-2427719D01*
X6566395Y-2427719D01*
X6566395Y-2448293D02*
G01*
X6566395Y-2427719D01*
X6513055Y-2400795D02*
G01*
X6599161Y-2400795D01*
X6513055Y-2400795D02*
G01*
X6599161Y-2343645D01*
X6513055Y-2343645D02*
G01*
X6599161Y-2343645D01*
X6513055Y-2316467D02*
G01*
X6599161Y-2316467D01*
X6513055Y-2316467D02*
G01*
X6513055Y-2288019D01*
X6517373Y-2275573D01*
X6525501Y-2267445D01*
X6533629Y-2263381D01*
X6545821Y-2259317D01*
X6566395Y-2259317D01*
X6578587Y-2263381D01*
X6586715Y-2267445D01*
X6595097Y-2275573D01*
X6599161Y-2288019D01*
X6599161Y-2316467D01*
X6533629Y-2707116D02*
G01*
X6525501Y-2711434D01*
X6517373Y-2719562D01*
X6513055Y-2727690D01*
X6513055Y-2743946D01*
X6517373Y-2752328D01*
X6525501Y-2760456D01*
X6533629Y-2764520D01*
X6545821Y-2768584D01*
X6566395Y-2768584D01*
X6578587Y-2764520D01*
X6586715Y-2760456D01*
X6595097Y-2752328D01*
X6599161Y-2743946D01*
X6599161Y-2727690D01*
X6595097Y-2719562D01*
X6586715Y-2711434D01*
X6578587Y-2707116D01*
X6566395Y-2707116D01*
X6566395Y-2727690D02*
G01*
X6566395Y-2707116D01*
X6513055Y-2680192D02*
G01*
X6599161Y-2680192D01*
X6513055Y-2680192D02*
G01*
X6599161Y-2623042D01*
X6513055Y-2623042D02*
G01*
X6599161Y-2623042D01*
X6513055Y-2595864D02*
G01*
X6599161Y-2595864D01*
X6513055Y-2595864D02*
G01*
X6513055Y-2567416D01*
X6517373Y-2554970D01*
X6525501Y-2546842D01*
X6533629Y-2542778D01*
X6545821Y-2538714D01*
X6566395Y-2538714D01*
X6578587Y-2542778D01*
X6586715Y-2546842D01*
X6595097Y-2554970D01*
X6599161Y-2567416D01*
X6599161Y-2595864D01*
X6513057Y-3073369D02*
G01*
X6599163Y-3073369D01*
X6513057Y-3073369D02*
G01*
X6513057Y-3036539D01*
X6517375Y-3024347D01*
X6521439Y-3020283D01*
X6529567Y-3016219D01*
X6541759Y-3016219D01*
X6549887Y-3020283D01*
X6553951Y-3024347D01*
X6558269Y-3036539D01*
X6558269Y-3073369D01*
X6513057Y-2989041D02*
G01*
X6599163Y-2968721D01*
X6513057Y-2948147D02*
G01*
X6599163Y-2968721D01*
X6513057Y-2948147D02*
G01*
X6599163Y-2927827D01*
X6513057Y-2907253D02*
G01*
X6599163Y-2927827D01*
X6513057Y-2880329D02*
G01*
X6599163Y-2880329D01*
X6513057Y-2880329D02*
G01*
X6513057Y-2843499D01*
X6517375Y-2831307D01*
X6521439Y-2826989D01*
X6529567Y-2822925D01*
X6537695Y-2822925D01*
X6545823Y-2826989D01*
X6549887Y-2831307D01*
X6553951Y-2843499D01*
X6553951Y-2880329D01*
X6553951Y-2851627D02*
G01*
X6599163Y-2822925D01*
X6525503Y-2127219D02*
G01*
X6517375Y-2135347D01*
X6513057Y-2147539D01*
X6513057Y-2164049D01*
X6517375Y-2176241D01*
X6525503Y-2184369D01*
X6533631Y-2184369D01*
X6541759Y-2180305D01*
X6545823Y-2176241D01*
X6549887Y-2168113D01*
X6558269Y-2143475D01*
X6562333Y-2135347D01*
X6566397Y-2131283D01*
X6574525Y-2127219D01*
X6586717Y-2127219D01*
X6595099Y-2135347D01*
X6599163Y-2147539D01*
X6599163Y-2164049D01*
X6595099Y-2176241D01*
X6586717Y-2184369D01*
X6513057Y-2100041D02*
G01*
X6599163Y-2100041D01*
X6533631Y-2011649D02*
G01*
X6525503Y-2015967D01*
X6517375Y-2024095D01*
X6513057Y-2032223D01*
X6513057Y-2048479D01*
X6517375Y-2056861D01*
X6525503Y-2064989D01*
X6533631Y-2069053D01*
X6545823Y-2073117D01*
X6566397Y-2073117D01*
X6578589Y-2069053D01*
X6586717Y-2064989D01*
X6595099Y-2056861D01*
X6599163Y-2048479D01*
X6599163Y-2032223D01*
X6595099Y-2024095D01*
X6586717Y-2015967D01*
X6578589Y-2011649D01*
X6566397Y-2011649D01*
X6566397Y-2032223D02*
G01*
X6566397Y-2011649D01*
D13*
X4485134Y-4315713D02*
G01*
X4419602Y-4352544D01*
X4485134Y-4389373D01*
X4632200Y-4315713D02*
G01*
X4624072Y-4307586D01*
X4611880Y-4303268D01*
X4595624Y-4303268D01*
X4583178Y-4307586D01*
X4575050Y-4315713D01*
X4575050Y-4323842D01*
X4579114Y-4331970D01*
X4583178Y-4336034D01*
X4591306Y-4340097D01*
X4615944Y-4348479D01*
X4624072Y-4352544D01*
X4628136Y-4356607D01*
X4632200Y-4364736D01*
X4632200Y-4376928D01*
X4624072Y-4385310D01*
X4611880Y-4389373D01*
X4595624Y-4389373D01*
X4583178Y-4385310D01*
X4575050Y-4376928D01*
X4659378Y-4303268D02*
G01*
X4663442Y-4307586D01*
X4667506Y-4303268D01*
X4663442Y-4299204D01*
X4659378Y-4303268D01*
X4663442Y-4331970D02*
G01*
X4663442Y-4389373D01*
X4694430Y-4303268D02*
G01*
X4694430Y-4389373D01*
X4694430Y-4303268D02*
G01*
X4731260Y-4303268D01*
X4743706Y-4307586D01*
X4747770Y-4311650D01*
X4751834Y-4319778D01*
X4751834Y-4331970D01*
X4747770Y-4340097D01*
X4743706Y-4344162D01*
X4731260Y-4348479D01*
X4694430Y-4348479D01*
X4778758Y-4303268D02*
G01*
X4778758Y-4389373D01*
X4778758Y-4303268D02*
G01*
X4811524Y-4389373D01*
X4844290Y-4303268D02*
G01*
X4811524Y-4389373D01*
X4844290Y-4303268D02*
G01*
X4844290Y-4389373D01*
X4934206Y-4303268D02*
G01*
X4966972Y-4389373D01*
X4999738Y-4303268D02*
G01*
X4966972Y-4389373D01*
X5051300Y-4303268D02*
G01*
X5043172Y-4307586D01*
X5034790Y-4315713D01*
X5030726Y-4323842D01*
X5026662Y-4336034D01*
X5026662Y-4356607D01*
X5030726Y-4368800D01*
X5034790Y-4376928D01*
X5043172Y-4385310D01*
X5051300Y-4389373D01*
X5067556Y-4389373D01*
X5075684Y-4385310D01*
X5084066Y-4376928D01*
X5088130Y-4368800D01*
X5092194Y-4356607D01*
X5092194Y-4336034D01*
X5088130Y-4323842D01*
X5084066Y-4315713D01*
X5075684Y-4307586D01*
X5067556Y-4303268D01*
X5051300Y-4303268D01*
X5119118Y-4303268D02*
G01*
X5119118Y-4389373D01*
X5119118Y-4389373D02*
G01*
X5168140Y-4389373D01*
X5223766Y-4303268D02*
G01*
X5223766Y-4389373D01*
X5195318Y-4303268D02*
G01*
X5252468Y-4303268D01*
X5312158Y-4303268D02*
G01*
X5279392Y-4389373D01*
X5312158Y-4303268D02*
G01*
X5344924Y-4389373D01*
X5291838Y-4360671D02*
G01*
X5332732Y-4360671D01*
X5433316Y-4323842D02*
G01*
X5429252Y-4315713D01*
X5421124Y-4307586D01*
X5412742Y-4303268D01*
X5396486Y-4303268D01*
X5388358Y-4307586D01*
X5380230Y-4315713D01*
X5376166Y-4323842D01*
X5371848Y-4336034D01*
X5371848Y-4356607D01*
X5376166Y-4368800D01*
X5380230Y-4376928D01*
X5388358Y-4385310D01*
X5396486Y-4389373D01*
X5412742Y-4389373D01*
X5421124Y-4385310D01*
X5429252Y-4376928D01*
X5433316Y-4368800D01*
X5433316Y-4356607D01*
X5412742Y-4356607D02*
G01*
X5433316Y-4356607D01*
X5460240Y-4303268D02*
G01*
X5460240Y-4389373D01*
X5460240Y-4303268D02*
G01*
X5513580Y-4303268D01*
X5460240Y-4344162D02*
G01*
X5493006Y-4344162D01*
X5460240Y-4389373D02*
G01*
X5513580Y-4389373D01*
X5603496Y-4315713D02*
G01*
X5669028Y-4352544D01*
X5603496Y-4389373D01*
X4612131Y-658111D02*
G01*
X4546600Y-694941D01*
X4612131Y-731771D01*
X4763515Y-666239D02*
G01*
X4759197Y-658111D01*
X4751070Y-649983D01*
X4742941Y-645665D01*
X4726686Y-645665D01*
X4718304Y-649983D01*
X4710175Y-658111D01*
X4706111Y-666239D01*
X4702047Y-678431D01*
X4702047Y-699005D01*
X4706111Y-711197D01*
X4710175Y-719325D01*
X4718304Y-727707D01*
X4726686Y-731771D01*
X4742941Y-731771D01*
X4751070Y-727707D01*
X4759197Y-719325D01*
X4763515Y-711197D01*
X4763515Y-699005D01*
X4742941Y-699005D02*
G01*
X4763515Y-699005D01*
X4886197Y-645665D02*
G01*
X4853431Y-731771D01*
X4886197Y-645665D02*
G01*
X4918963Y-731771D01*
X4865624Y-703069D02*
G01*
X4906518Y-703069D01*
X5008879Y-645665D02*
G01*
X5008879Y-731771D01*
X5098795Y-645665D02*
G01*
X5098795Y-731771D01*
X5098795Y-645665D02*
G01*
X5156200Y-731771D01*
X5156200Y-645665D02*
G01*
X5156200Y-731771D01*
X5246115Y-658111D02*
G01*
X5311647Y-694941D01*
X5246115Y-731771D01*
X5399531Y-3172713D02*
G01*
X5334000Y-3209544D01*
X5399531Y-3246373D01*
X5518150Y-3160268D02*
G01*
X5518150Y-3246373D01*
X5489447Y-3160268D02*
G01*
X5546597Y-3160268D01*
X5573775Y-3160268D02*
G01*
X5573775Y-3246373D01*
X5630925Y-3160268D02*
G01*
X5630925Y-3246373D01*
X5573775Y-3201162D02*
G01*
X5630925Y-3201162D01*
X5658104Y-3160268D02*
G01*
X5658104Y-3246373D01*
X5658104Y-3160268D02*
G01*
X5694934Y-3160268D01*
X5707125Y-3164586D01*
X5711190Y-3168650D01*
X5715254Y-3176778D01*
X5715254Y-3184905D01*
X5711190Y-3193034D01*
X5707125Y-3197097D01*
X5694934Y-3201162D01*
X5658104Y-3201162D01*
X5686552Y-3201162D02*
G01*
X5715254Y-3246373D01*
X5742177Y-3160268D02*
G01*
X5742177Y-3246373D01*
X5742177Y-3160268D02*
G01*
X5795518Y-3160268D01*
X5742177Y-3201162D02*
G01*
X5774943Y-3201162D01*
X5742177Y-3246373D02*
G01*
X5795518Y-3246373D01*
X5879591Y-3172713D02*
G01*
X5871463Y-3164586D01*
X5859272Y-3160268D01*
X5843015Y-3160268D01*
X5830570Y-3164586D01*
X5822441Y-3172713D01*
X5822441Y-3180842D01*
X5826506Y-3188970D01*
X5830570Y-3193034D01*
X5838697Y-3197097D01*
X5863336Y-3205479D01*
X5871463Y-3209544D01*
X5875527Y-3213607D01*
X5879591Y-3221736D01*
X5879591Y-3233928D01*
X5871463Y-3242310D01*
X5859272Y-3246373D01*
X5843015Y-3246373D01*
X5830570Y-3242310D01*
X5822441Y-3233928D01*
X5906770Y-3160268D02*
G01*
X5906770Y-3246373D01*
X5963920Y-3160268D02*
G01*
X5963920Y-3246373D01*
X5906770Y-3201162D02*
G01*
X5963920Y-3201162D01*
X6015481Y-3160268D02*
G01*
X6007354Y-3164586D01*
X5999225Y-3172713D01*
X5995161Y-3180842D01*
X5991097Y-3193034D01*
X5991097Y-3213607D01*
X5995161Y-3225800D01*
X5999225Y-3233928D01*
X6007354Y-3242310D01*
X6015481Y-3246373D01*
X6031991Y-3246373D01*
X6040120Y-3242310D01*
X6048247Y-3233928D01*
X6052311Y-3225800D01*
X6056375Y-3213607D01*
X6056375Y-3193034D01*
X6052311Y-3180842D01*
X6048247Y-3172713D01*
X6040120Y-3164586D01*
X6031991Y-3160268D01*
X6015481Y-3160268D01*
X6083554Y-3160268D02*
G01*
X6083554Y-3246373D01*
X6083554Y-3246373D02*
G01*
X6132575Y-3246373D01*
X6159500Y-3160268D02*
G01*
X6159500Y-3246373D01*
X6159500Y-3160268D02*
G01*
X6188202Y-3160268D01*
X6200393Y-3164586D01*
X6208522Y-3172713D01*
X6212840Y-3180842D01*
X6216904Y-3193034D01*
X6216904Y-3213607D01*
X6212840Y-3225800D01*
X6208522Y-3233928D01*
X6200393Y-3242310D01*
X6188202Y-3246373D01*
X6159500Y-3246373D01*
X6306820Y-3172713D02*
G01*
X6372352Y-3209544D01*
X6306820Y-3246373D01*
D11*
X838197Y-3963670D02*
G01*
X838197Y-4154678D01*
X838197Y-3963670D02*
G01*
X901951Y-3963670D01*
X929129Y-3972813D01*
X947163Y-3991102D01*
X956307Y-4009136D01*
X965451Y-4036568D01*
X965451Y-4082034D01*
X956307Y-4109212D01*
X947163Y-4127500D01*
X929129Y-4145534D01*
X901951Y-4154678D01*
X838197Y-4154678D01*
X1025395Y-4082034D02*
G01*
X1134615Y-4082034D01*
X1134615Y-4063745D01*
X1125471Y-4045712D01*
X1116327Y-4036568D01*
X1098293Y-4027423D01*
X1070861Y-4027423D01*
X1052827Y-4036568D01*
X1034539Y-4054602D01*
X1025395Y-4082034D01*
X1025395Y-4100068D01*
X1034539Y-4127500D01*
X1052827Y-4145534D01*
X1070861Y-4154678D01*
X1098293Y-4154678D01*
X1116327Y-4145534D01*
X1134615Y-4127500D01*
X1221737Y-3963670D02*
G01*
X1221737Y-4118355D01*
X1230881Y-4145534D01*
X1249169Y-4154678D01*
X1267203Y-4154678D01*
X1194559Y-4027423D02*
G01*
X1258313Y-4027423D01*
X1327401Y-4082034D02*
G01*
X1436367Y-4082034D01*
X1436367Y-4063745D01*
X1427223Y-4045712D01*
X1418079Y-4036568D01*
X1400045Y-4027423D01*
X1372867Y-4027423D01*
X1354579Y-4036568D01*
X1336291Y-4054602D01*
X1327401Y-4082034D01*
X1327401Y-4100068D01*
X1336291Y-4127500D01*
X1354579Y-4145534D01*
X1372867Y-4154678D01*
X1400045Y-4154678D01*
X1418079Y-4145534D01*
X1436367Y-4127500D01*
X1605531Y-4054602D02*
G01*
X1587243Y-4036568D01*
X1569209Y-4027423D01*
X1541777Y-4027423D01*
X1523743Y-4036568D01*
X1505455Y-4054602D01*
X1496311Y-4082034D01*
X1496311Y-4100068D01*
X1505455Y-4127500D01*
X1523743Y-4145534D01*
X1541777Y-4154678D01*
X1569209Y-4154678D01*
X1587243Y-4145534D01*
X1605531Y-4127500D01*
X1692653Y-3963670D02*
G01*
X1692653Y-4118355D01*
X1701797Y-4145534D01*
X1720085Y-4154678D01*
X1738119Y-4154678D01*
X1665475Y-4027423D02*
G01*
X1729229Y-4027423D01*
X1843529Y-4027423D02*
G01*
X1825495Y-4036568D01*
X1807207Y-4054602D01*
X1798317Y-4082034D01*
X1798317Y-4100068D01*
X1807207Y-4127500D01*
X1825495Y-4145534D01*
X1843529Y-4154678D01*
X1870961Y-4154678D01*
X1888995Y-4145534D01*
X1907283Y-4127500D01*
X1916427Y-4100068D01*
X1916427Y-4082034D01*
X1907283Y-4054602D01*
X1888995Y-4036568D01*
X1870961Y-4027423D01*
X1843529Y-4027423D01*
X1976371Y-4027423D02*
G01*
X1976371Y-4154678D01*
X1976371Y-4082034D02*
G01*
X1985515Y-4054602D01*
X2003549Y-4036568D01*
X2021837Y-4027423D01*
X2049015Y-4027423D01*
D14*
X7823710Y-2368804D02*
G01*
X7787388Y-2332228D01*
X7732778Y-2314194D01*
X7660134Y-2314194D01*
X7605524Y-2332228D01*
X7569202Y-2368804D01*
X7569202Y-2405126D01*
X7587490Y-2441447D01*
X7605524Y-2459736D01*
X7641846Y-2477770D01*
X7751066Y-2514092D01*
X7787388Y-2532379D01*
X7805422Y-2550413D01*
X7823710Y-2586989D01*
X7823710Y-2641345D01*
X7787388Y-2677921D01*
X7732778Y-2695955D01*
X7660134Y-2695955D01*
X7605524Y-2677921D01*
X7569202Y-2641345D01*
X8216394Y-2405126D02*
G01*
X8198360Y-2368804D01*
X8161784Y-2332228D01*
X8125462Y-2314194D01*
X8052818Y-2314194D01*
X8016496Y-2332228D01*
X7980174Y-2368804D01*
X7961886Y-2405126D01*
X7943852Y-2459736D01*
X7943852Y-2550413D01*
X7961886Y-2605023D01*
X7980174Y-2641345D01*
X8016496Y-2677921D01*
X8052818Y-2695955D01*
X8125462Y-2695955D01*
X8161784Y-2677921D01*
X8198360Y-2641345D01*
X8216394Y-2605023D01*
X8336536Y-2314194D02*
G01*
X8336536Y-2695955D01*
X8456424Y-2314194D02*
G01*
X8456424Y-2695955D01*
X8456424Y-2314194D02*
G01*
X8710932Y-2695955D01*
X8710932Y-2314194D02*
G01*
X8710932Y-2695955D01*
X8958328Y-2314194D02*
G01*
X8958328Y-2695955D01*
X8831074Y-2314194D02*
G01*
X9085582Y-2314194D01*
X9205470Y-2314194D02*
G01*
X9205470Y-2695955D01*
X9325612Y-2314194D02*
G01*
X9325612Y-2695955D01*
X9325612Y-2695955D02*
G01*
X9543798Y-2695955D01*
X9663686Y-2314194D02*
G01*
X9663686Y-2695955D01*
X9663686Y-2695955D02*
G01*
X9881872Y-2695955D01*
X10147302Y-2314194D02*
G01*
X10002014Y-2695955D01*
X10147302Y-2314194D02*
G01*
X10292844Y-2695955D01*
X10056370Y-2568702D02*
G01*
X10238234Y-2568702D01*
X10539986Y-2314194D02*
G01*
X10539986Y-2695955D01*
X10412732Y-2314194D02*
G01*
X10667240Y-2314194D01*
X10896348Y-2314194D02*
G01*
X10860026Y-2332228D01*
X10823704Y-2368804D01*
X10805416Y-2405126D01*
X10787382Y-2459736D01*
X10787382Y-2550413D01*
X10805416Y-2605023D01*
X10823704Y-2641345D01*
X10860026Y-2677921D01*
X10896348Y-2695955D01*
X10969246Y-2695955D01*
X11005568Y-2677921D01*
X11041890Y-2641345D01*
X11060178Y-2605023D01*
X11078212Y-2550413D01*
X11078212Y-2459736D01*
X11060178Y-2405126D01*
X11041890Y-2368804D01*
X11005568Y-2332228D01*
X10969246Y-2314194D01*
X10896348Y-2314194D01*
X11198354Y-2314194D02*
G01*
X11198354Y-2695955D01*
X11198354Y-2314194D02*
G01*
X11361930Y-2314194D01*
X11416540Y-2332228D01*
X11434574Y-2350515D01*
X11452862Y-2386837D01*
X11452862Y-2423160D01*
X11434574Y-2459736D01*
X11416540Y-2477770D01*
X11361930Y-2496057D01*
X11198354Y-2496057D01*
X11325608Y-2496057D02*
G01*
X11452862Y-2695955D01*
D12*
X2209794Y-1103881D02*
G01*
X2209794Y-1212847D01*
X2209794Y-1103881D02*
G01*
X2256530Y-1103881D01*
X2272024Y-1108961D01*
X2277358Y-1114295D01*
X2282438Y-1124709D01*
X2282438Y-1135123D01*
X2277358Y-1145537D01*
X2272024Y-1150617D01*
X2256530Y-1155697D01*
X2209794Y-1155697D01*
X2246116Y-1155697D02*
G01*
X2282438Y-1212847D01*
X2327142Y-1103881D02*
G01*
X2384292Y-1103881D01*
X2353304Y-1145537D01*
X2368798Y-1145537D01*
X2379212Y-1150617D01*
X2384292Y-1155697D01*
X2389626Y-1171445D01*
X2389626Y-1181859D01*
X2384292Y-1197353D01*
X2373878Y-1207767D01*
X2358384Y-1212847D01*
X2342890Y-1212847D01*
X2327142Y-1207767D01*
X2322062Y-1202687D01*
X2316728Y-1192273D01*
X4345177Y-1002792D02*
G01*
X4339843Y-992378D01*
X4329429Y-981963D01*
X4319270Y-976884D01*
X4298441Y-976884D01*
X4288027Y-981963D01*
X4277613Y-992378D01*
X4272279Y-1002792D01*
X4267200Y-1018539D01*
X4267200Y-1044447D01*
X4272279Y-1059942D01*
X4277613Y-1070355D01*
X4288027Y-1080770D01*
X4298441Y-1085850D01*
X4319270Y-1085850D01*
X4329429Y-1080770D01*
X4339843Y-1070355D01*
X4345177Y-1059942D01*
X4379468Y-997712D02*
G01*
X4389881Y-992378D01*
X4405375Y-976884D01*
X4405375Y-1085850D01*
X3735577Y-189992D02*
G01*
X3730243Y-179578D01*
X3719829Y-169163D01*
X3709670Y-164084D01*
X3688841Y-164084D01*
X3678427Y-169163D01*
X3668013Y-179578D01*
X3662679Y-189992D01*
X3657600Y-205739D01*
X3657600Y-231647D01*
X3662679Y-247142D01*
X3668013Y-257555D01*
X3678427Y-267970D01*
X3688841Y-273050D01*
X3709670Y-273050D01*
X3719829Y-267970D01*
X3730243Y-257555D01*
X3735577Y-247142D01*
X3832097Y-164084D02*
G01*
X3780281Y-164084D01*
X3774947Y-210820D01*
X3780281Y-205739D01*
X3795775Y-200405D01*
X3811270Y-200405D01*
X3827018Y-205739D01*
X3837431Y-215900D01*
X3842511Y-231647D01*
X3842511Y-242062D01*
X3837431Y-257555D01*
X3827018Y-267970D01*
X3811270Y-273050D01*
X3795775Y-273050D01*
X3780281Y-267970D01*
X3774947Y-262889D01*
X3769868Y-252476D01*
X5601208Y-4624578D02*
G01*
X5611622Y-4619244D01*
X5622036Y-4608829D01*
X5627115Y-4598670D01*
X5627115Y-4577842D01*
X5622036Y-4567428D01*
X5611622Y-4557013D01*
X5601208Y-4551679D01*
X5585459Y-4546600D01*
X5559552Y-4546600D01*
X5544058Y-4551679D01*
X5533643Y-4557013D01*
X5523229Y-4567428D01*
X5518150Y-4577842D01*
X5518150Y-4598670D01*
X5523229Y-4608829D01*
X5533643Y-4619244D01*
X5544058Y-4624578D01*
X5590793Y-4726431D02*
G01*
X5575300Y-4721097D01*
X5564886Y-4710684D01*
X5559552Y-4695189D01*
X5559552Y-4690110D01*
X5564886Y-4674362D01*
X5575300Y-4663947D01*
X5590793Y-4658868D01*
X5595874Y-4658868D01*
X5611622Y-4663947D01*
X5622036Y-4674362D01*
X5627115Y-4690110D01*
X5627115Y-4695189D01*
X5622036Y-4710684D01*
X5611622Y-4721097D01*
X5590793Y-4726431D01*
X5564886Y-4726431D01*
X5538724Y-4721097D01*
X5523229Y-4710684D01*
X5518150Y-4695189D01*
X5518150Y-4684776D01*
X5523229Y-4669281D01*
X5533643Y-4663947D01*
X4128008Y-4573778D02*
G01*
X4138422Y-4568444D01*
X4148836Y-4558029D01*
X4153915Y-4547870D01*
X4153915Y-4527042D01*
X4148836Y-4516628D01*
X4138422Y-4506213D01*
X4128008Y-4500879D01*
X4112259Y-4495800D01*
X4086352Y-4495800D01*
X4070858Y-4500879D01*
X4060443Y-4506213D01*
X4050029Y-4516628D01*
X4044950Y-4527042D01*
X4044950Y-4547870D01*
X4050029Y-4558029D01*
X4060443Y-4568444D01*
X4070858Y-4573778D01*
X4133088Y-4608068D02*
G01*
X4138422Y-4618481D01*
X4153915Y-4633976D01*
X4044950Y-4633976D01*
X4153915Y-4699507D02*
G01*
X4148836Y-4683760D01*
X4133088Y-4673600D01*
X4107179Y-4668265D01*
X4091686Y-4668265D01*
X4065524Y-4673600D01*
X4050029Y-4683760D01*
X4044950Y-4699507D01*
X4044950Y-4709921D01*
X4050029Y-4725415D01*
X4065524Y-4735829D01*
X4091686Y-4740910D01*
X4107179Y-4740910D01*
X4133088Y-4735829D01*
X4148836Y-4725415D01*
X4153915Y-4709921D01*
X4153915Y-4699507D01*
X3405377Y-3720592D02*
G01*
X3400043Y-3710178D01*
X3389629Y-3699763D01*
X3379470Y-3694684D01*
X3358641Y-3694684D01*
X3348227Y-3699763D01*
X3337813Y-3710178D01*
X3332479Y-3720592D01*
X3327400Y-3736339D01*
X3327400Y-3762247D01*
X3332479Y-3777742D01*
X3337813Y-3788155D01*
X3348227Y-3798570D01*
X3358641Y-3803650D01*
X3379470Y-3803650D01*
X3389629Y-3798570D01*
X3400043Y-3788155D01*
X3405377Y-3777742D01*
X3439668Y-3715512D02*
G01*
X3450081Y-3710178D01*
X3465575Y-3694684D01*
X3465575Y-3803650D01*
X3499865Y-3715512D02*
G01*
X3510279Y-3710178D01*
X3525774Y-3694684D01*
X3525774Y-3803650D01*
X2236977Y-926592D02*
G01*
X2231643Y-916178D01*
X2221229Y-905763D01*
X2211070Y-900684D01*
X2190241Y-900684D01*
X2179827Y-905763D01*
X2169413Y-916178D01*
X2164079Y-926592D01*
X2159000Y-942339D01*
X2159000Y-968247D01*
X2164079Y-983742D01*
X2169413Y-994155D01*
X2179827Y-1004570D01*
X2190241Y-1009650D01*
X2211070Y-1009650D01*
X2221229Y-1004570D01*
X2231643Y-994155D01*
X2236977Y-983742D01*
X2297175Y-900684D02*
G01*
X2281681Y-905763D01*
X2276347Y-916178D01*
X2276347Y-926592D01*
X2281681Y-937005D01*
X2292095Y-942339D01*
X2312670Y-947420D01*
X2328418Y-952500D01*
X2338831Y-962913D01*
X2343911Y-973328D01*
X2343911Y-989076D01*
X2338831Y-999489D01*
X2333497Y-1004570D01*
X2318004Y-1009650D01*
X2297175Y-1009650D01*
X2281681Y-1004570D01*
X2276347Y-999489D01*
X2271268Y-989076D01*
X2271268Y-973328D01*
X2276347Y-962913D01*
X2286761Y-952500D01*
X2302509Y-947420D01*
X2323084Y-942339D01*
X2333497Y-937005D01*
X2338831Y-926592D01*
X2338831Y-916178D01*
X2333497Y-905763D01*
X2318004Y-900684D01*
X2297175Y-900684D01*
X3950715Y-3733800D02*
G01*
X3841750Y-3733800D01*
X3950715Y-3733800D02*
G01*
X3950715Y-3780536D01*
X3945636Y-3796029D01*
X3940302Y-3801363D01*
X3929888Y-3806444D01*
X3919474Y-3806444D01*
X3909059Y-3801363D01*
X3903979Y-3796029D01*
X3898900Y-3780536D01*
X3898900Y-3733800D01*
X3898900Y-3770121D02*
G01*
X3841750Y-3806444D01*
X3924808Y-3846068D02*
G01*
X3929888Y-3846068D01*
X3940302Y-3851147D01*
X3945636Y-3856481D01*
X3950715Y-3866895D01*
X3950715Y-3887470D01*
X3945636Y-3897884D01*
X3940302Y-3903218D01*
X3929888Y-3908297D01*
X3919474Y-3908297D01*
X3909059Y-3903218D01*
X3893565Y-3892804D01*
X3841750Y-3840734D01*
X3841750Y-3913631D01*
X3924808Y-3953002D02*
G01*
X3929888Y-3953002D01*
X3940302Y-3958336D01*
X3945636Y-3963415D01*
X3950715Y-3973829D01*
X3950715Y-3994657D01*
X3945636Y-4005071D01*
X3940302Y-4010152D01*
X3929888Y-4015486D01*
X3919474Y-4015486D01*
X3909059Y-4010152D01*
X3893565Y-3999737D01*
X3841750Y-3947921D01*
X3841750Y-4020565D01*
X2655310Y-177800D02*
G01*
X2546344Y-177800D01*
X2655310Y-177800D02*
G01*
X2655310Y-224536D01*
X2650230Y-240029D01*
X2644896Y-245363D01*
X2634482Y-250444D01*
X2624068Y-250444D01*
X2613654Y-245363D01*
X2608574Y-240029D01*
X2603494Y-224536D01*
X2603494Y-177800D01*
X2603494Y-214121D02*
G01*
X2546344Y-250444D01*
X2629402Y-290068D02*
G01*
X2634482Y-290068D01*
X2644896Y-295147D01*
X2650230Y-300481D01*
X2655310Y-310895D01*
X2655310Y-331470D01*
X2650230Y-341884D01*
X2644896Y-347218D01*
X2634482Y-352297D01*
X2624068Y-352297D01*
X2613654Y-347218D01*
X2598160Y-336804D01*
X2546344Y-284734D01*
X2546344Y-357631D01*
X2655310Y-422910D02*
G01*
X2650230Y-407415D01*
X2634482Y-397002D01*
X2608574Y-391921D01*
X2593080Y-391921D01*
X2566918Y-397002D01*
X2551424Y-407415D01*
X2546344Y-422910D01*
X2546344Y-433323D01*
X2551424Y-449071D01*
X2566918Y-459486D01*
X2593080Y-464565D01*
X2608574Y-464565D01*
X2634482Y-459486D01*
X2650230Y-449071D01*
X2655310Y-433323D01*
X2655310Y-422910D01*
X4026908Y-685800D02*
G01*
X3948930Y-685800D01*
X3933436Y-690879D01*
X3923022Y-701294D01*
X3917942Y-717042D01*
X3917942Y-727455D01*
X3923022Y-742950D01*
X3933436Y-753363D01*
X3948930Y-758444D01*
X4026908Y-758444D01*
X4026908Y-865631D02*
G01*
X3917942Y-813562D01*
X4026908Y-792734D02*
G01*
X4026908Y-865631D01*
X2147310Y-558800D02*
G01*
X2069332Y-558800D01*
X2053838Y-563879D01*
X2043424Y-574294D01*
X2038344Y-590042D01*
X2038344Y-600455D01*
X2043424Y-615950D01*
X2053838Y-626363D01*
X2069332Y-631444D01*
X2147310Y-631444D01*
X2147310Y-691895D02*
G01*
X2142230Y-676147D01*
X2131816Y-671068D01*
X2121402Y-671068D01*
X2110988Y-676147D01*
X2105654Y-686562D01*
X2100574Y-707389D01*
X2095494Y-722884D01*
X2085080Y-733297D01*
X2074666Y-738631D01*
X2058918Y-738631D01*
X2048504Y-733297D01*
X2043424Y-728218D01*
X2038344Y-712470D01*
X2038344Y-691895D01*
X2043424Y-676147D01*
X2048504Y-671068D01*
X2058918Y-665734D01*
X2074666Y-665734D01*
X2085080Y-671068D01*
X2095494Y-681481D01*
X2100574Y-696976D01*
X2105654Y-717804D01*
X2110988Y-728218D01*
X2121402Y-733297D01*
X2131816Y-733297D01*
X2142230Y-728218D01*
X2147310Y-712470D01*
X2147310Y-691895D01*
X268731Y-635000D02*
G01*
X182626Y-667765D01*
X268731Y-700531D02*
G01*
X182626Y-667765D01*
X268731Y-727455D02*
G01*
X182626Y-727455D01*
X268731Y-727455D02*
G01*
X268731Y-764286D01*
X264413Y-776478D01*
X260350Y-780542D01*
X252221Y-784605D01*
X244094Y-784605D01*
X235965Y-780542D01*
X231902Y-776478D01*
X227584Y-764286D01*
X227584Y-727455D02*
G01*
X227584Y-764286D01*
X223520Y-776478D01*
X219455Y-780542D01*
X211328Y-784605D01*
X199136Y-784605D01*
X191007Y-780542D01*
X186689Y-776478D01*
X182626Y-764286D01*
X182626Y-727455D01*
X268731Y-811784D02*
G01*
X207263Y-811784D01*
X195071Y-815847D01*
X186689Y-823976D01*
X182626Y-836168D01*
X182626Y-844550D01*
X186689Y-856742D01*
X195071Y-864870D01*
X207263Y-868934D01*
X268731Y-868934D01*
X256286Y-953262D02*
G01*
X264413Y-945134D01*
X268731Y-932942D01*
X268731Y-916431D01*
X264413Y-904239D01*
X256286Y-896112D01*
X248157Y-896112D01*
X240029Y-900176D01*
X235965Y-904239D01*
X231902Y-912368D01*
X223520Y-937005D01*
X219455Y-945134D01*
X215392Y-949197D01*
X207263Y-953262D01*
X195071Y-953262D01*
X186689Y-945134D01*
X182626Y-932942D01*
X182626Y-916431D01*
X186689Y-904239D01*
X195071Y-896112D01*
X522731Y-635000D02*
G01*
X436626Y-667765D01*
X522731Y-700531D02*
G01*
X436626Y-667765D01*
X510286Y-784605D02*
G01*
X518413Y-776478D01*
X522731Y-764286D01*
X522731Y-748029D01*
X518413Y-735584D01*
X510286Y-727455D01*
X502157Y-727455D01*
X494029Y-731520D01*
X489965Y-735584D01*
X485902Y-743712D01*
X477520Y-768350D01*
X473455Y-776478D01*
X469392Y-780542D01*
X461263Y-784605D01*
X449071Y-784605D01*
X440689Y-776478D01*
X436626Y-764286D01*
X436626Y-748029D01*
X440689Y-735584D01*
X449071Y-727455D01*
X522731Y-811784D02*
G01*
X481584Y-844550D01*
X436626Y-844550D01*
X522731Y-877062D02*
G01*
X481584Y-844550D01*
X510286Y-961389D02*
G01*
X518413Y-953262D01*
X522731Y-941070D01*
X522731Y-924560D01*
X518413Y-912368D01*
X510286Y-904239D01*
X502157Y-904239D01*
X494029Y-908304D01*
X489965Y-912368D01*
X485902Y-920495D01*
X477520Y-945134D01*
X473455Y-953262D01*
X469392Y-957326D01*
X461263Y-961389D01*
X449071Y-961389D01*
X440689Y-953262D01*
X436626Y-941070D01*
X436626Y-924560D01*
X440689Y-912368D01*
X449071Y-904239D01*
X3747505Y-4114820D02*
G01*
X3669527Y-4114820D01*
X3654033Y-4119900D01*
X3643619Y-4130314D01*
X3638539Y-4146062D01*
X3638539Y-4156476D01*
X3643619Y-4171970D01*
X3654033Y-4182384D01*
X3669527Y-4187464D01*
X3747505Y-4187464D01*
X3747505Y-4284238D02*
G01*
X3747505Y-4232168D01*
X3700769Y-4227088D01*
X3705849Y-4232168D01*
X3711183Y-4247916D01*
X3711183Y-4263410D01*
X3705849Y-4278904D01*
X3695689Y-4289318D01*
X3679941Y-4294652D01*
X3669527Y-4294652D01*
X3654033Y-4289318D01*
X3643619Y-4278904D01*
X3638539Y-4263410D01*
X3638539Y-4247916D01*
X3643619Y-4232168D01*
X3648699Y-4227088D01*
X3659113Y-4221754D01*
X5130838Y-1154719D02*
G01*
X5130838Y-1232697D01*
X5135918Y-1248191D01*
X5146332Y-1258605D01*
X5162080Y-1263685D01*
X5172240Y-1263685D01*
X5187988Y-1258605D01*
X5198402Y-1248191D01*
X5203482Y-1232697D01*
X5203482Y-1154719D01*
X5300256Y-1170213D02*
G01*
X5294922Y-1159799D01*
X5279428Y-1154719D01*
X5269014Y-1154719D01*
X5253520Y-1159799D01*
X5243106Y-1175547D01*
X5237772Y-1201455D01*
X5237772Y-1227363D01*
X5243106Y-1248191D01*
X5253520Y-1258605D01*
X5269014Y-1263685D01*
X5274094Y-1263685D01*
X5289842Y-1258605D01*
X5300256Y-1248191D01*
X5305336Y-1232697D01*
X5305336Y-1227363D01*
X5300256Y-1211869D01*
X5289842Y-1201455D01*
X5274094Y-1196121D01*
X5269014Y-1196121D01*
X5253520Y-1201455D01*
X5243106Y-1211869D01*
X5237772Y-1227363D01*
D15*
X1772404Y-1098547D02*
G01*
X1772404Y-1133599D01*
X1747004Y-1114549D01*
X1747004Y-1123947D01*
X1743702Y-1130297D01*
X1740654Y-1133599D01*
X1731002Y-1136647D01*
X1724652Y-1136647D01*
X1715254Y-1133599D01*
X1708904Y-1127249D01*
X1705602Y-1117597D01*
X1705602Y-1108199D01*
X1708904Y-1098547D01*
X1711952Y-1095499D01*
X1718302Y-1092197D01*
X1772404Y-1157729D02*
G01*
X1705602Y-1183129D01*
X1772404Y-1208529D02*
G01*
X1705602Y-1183129D01*
X1772404Y-1235961D02*
G01*
X1772404Y-1271013D01*
X1747004Y-1251963D01*
X1747004Y-1261361D01*
X1743702Y-1267711D01*
X1740654Y-1271013D01*
X1731002Y-1274315D01*
X1724652Y-1274315D01*
X1715254Y-1271013D01*
X1708904Y-1264663D01*
X1705602Y-1255011D01*
X1705602Y-1245613D01*
X1708904Y-1235961D01*
X1711952Y-1232913D01*
X1718302Y-1229611D01*
X4444974Y-792967D02*
G01*
X4419574Y-859769D01*
X4444974Y-792967D02*
G01*
X4470374Y-859769D01*
X4429226Y-837417D02*
G01*
X4460976Y-837417D01*
X4491456Y-792967D02*
G01*
X4491456Y-859769D01*
X4491456Y-792967D02*
G01*
X4516856Y-859769D01*
X4542510Y-792967D02*
G01*
X4516856Y-859769D01*
X4542510Y-792967D02*
G01*
X4542510Y-859769D01*
X4563338Y-792967D02*
G01*
X4563338Y-859769D01*
X4563338Y-792967D02*
G01*
X4592040Y-792967D01*
X4601692Y-796269D01*
X4604740Y-799317D01*
X4608042Y-805667D01*
X4608042Y-815319D01*
X4604740Y-821669D01*
X4601692Y-824717D01*
X4592040Y-828019D01*
X4563338Y-828019D01*
X5689574Y-1681982D02*
G01*
X5689574Y-1748784D01*
X5710656Y-1681982D02*
G01*
X5710656Y-1748784D01*
X5710656Y-1681982D02*
G01*
X5755106Y-1748784D01*
X5755106Y-1681982D02*
G01*
X5755106Y-1748784D01*
X5798286Y-1681982D02*
G01*
X5798286Y-1748784D01*
X5776188Y-1681982D02*
G01*
X5820638Y-1681982D01*
X1930392Y-1275585D02*
G01*
X1930392Y-1342387D01*
X1930392Y-1275585D02*
G01*
X1959094Y-1275585D01*
X1968492Y-1278633D01*
X1971794Y-1281935D01*
X1974842Y-1288285D01*
X1974842Y-1297937D01*
X1971794Y-1304287D01*
X1968492Y-1307335D01*
X1959094Y-1310637D01*
X1930392Y-1310637D01*
X1995924Y-1275585D02*
G01*
X1995924Y-1342387D01*
X1995924Y-1275585D02*
G01*
X2037326Y-1275585D01*
X1995924Y-1307335D02*
G01*
X2021324Y-1307335D01*
X1995924Y-1342387D02*
G01*
X2037326Y-1342387D01*
X2083808Y-1275585D02*
G01*
X2058408Y-1342387D01*
X2083808Y-1275585D02*
G01*
X2109208Y-1342387D01*
X2067806Y-1320035D02*
G01*
X2099556Y-1320035D01*
X2130290Y-1275585D02*
G01*
X2130290Y-1342387D01*
X2174740Y-1275585D02*
G01*
X2130290Y-1320035D01*
X2146038Y-1304287D02*
G01*
X2174740Y-1342387D01*
X6476974Y-3358382D02*
G01*
X6476974Y-3425184D01*
X6476974Y-3358382D02*
G01*
X6505676Y-3358382D01*
X6515074Y-3361430D01*
X6518376Y-3364732D01*
X6521424Y-3371082D01*
X6521424Y-3380734D01*
X6518376Y-3387084D01*
X6515074Y-3390132D01*
X6505676Y-3393434D01*
X6476974Y-3393434D01*
X6586956Y-3367780D02*
G01*
X6580606Y-3361430D01*
X6571208Y-3358382D01*
X6558508Y-3358382D01*
X6548856Y-3361430D01*
X6542506Y-3367780D01*
X6542506Y-3374384D01*
X6545808Y-3380734D01*
X6548856Y-3383782D01*
X6555206Y-3387084D01*
X6574256Y-3393434D01*
X6580606Y-3396482D01*
X6583908Y-3399784D01*
X6586956Y-3406134D01*
X6586956Y-3415532D01*
X6580606Y-3421882D01*
X6571208Y-3425184D01*
X6558508Y-3425184D01*
X6548856Y-3421882D01*
X6542506Y-3415532D01*
X6608038Y-3358382D02*
G01*
X6608038Y-3406134D01*
X6611340Y-3415532D01*
X6617690Y-3421882D01*
X6627088Y-3425184D01*
X6633438Y-3425184D01*
X6643090Y-3421882D01*
X6649440Y-3415532D01*
X6652742Y-3406134D01*
X6652742Y-3358382D01*
X6451615Y-1758185D02*
G01*
X6451615Y-1824987D01*
X6451615Y-1758185D02*
G01*
X6480317Y-1758185D01*
X6489715Y-1761233D01*
X6493017Y-1764535D01*
X6496065Y-1770885D01*
X6496065Y-1777235D01*
X6493017Y-1783585D01*
X6489715Y-1786887D01*
X6480317Y-1789935D01*
X6451615Y-1789935D01*
X6473967Y-1789935D02*
G01*
X6496065Y-1824987D01*
X6542547Y-1758185D02*
G01*
X6517147Y-1824987D01*
X6542547Y-1758185D02*
G01*
X6567947Y-1824987D01*
X6526799Y-1802635D02*
G01*
X6558549Y-1802635D01*
X6589029Y-1758185D02*
G01*
X6605031Y-1824987D01*
X6620779Y-1758185D02*
G01*
X6605031Y-1824987D01*
X6620779Y-1758185D02*
G01*
X6636781Y-1824987D01*
X6652783Y-1758185D02*
G01*
X6636781Y-1824987D01*
D11*
X6110731Y-1443989D02*
G01*
X6045200Y-1615694D01*
X6110731Y-1443989D02*
G01*
X6176009Y-1615694D01*
X6069838Y-1558544D02*
G01*
X6151625Y-1558544D01*
X6352793Y-1484884D02*
G01*
X6344665Y-1468628D01*
X6328156Y-1452118D01*
X6311900Y-1443989D01*
X6279134Y-1443989D01*
X6262877Y-1452118D01*
X6246368Y-1468628D01*
X6238240Y-1484884D01*
X6230111Y-1509521D01*
X6230111Y-1550415D01*
X6238240Y-1574800D01*
X6246368Y-1591310D01*
X6262877Y-1607565D01*
X6279134Y-1615694D01*
X6311900Y-1615694D01*
X6328156Y-1607565D01*
X6344665Y-1591310D01*
X6352793Y-1574800D01*
X6464045Y-1443989D02*
G01*
X6464045Y-1615694D01*
X6406895Y-1443989D02*
G01*
X6521450Y-1443989D01*
D12*
X6185413Y-4624544D02*
G01*
X6195827Y-4619210D01*
X6206241Y-4608796D01*
X6211321Y-4598636D01*
X6211321Y-4577808D01*
X6206241Y-4567394D01*
X6195827Y-4556980D01*
X6185413Y-4551646D01*
X6169665Y-4546566D01*
X6143757Y-4546566D01*
X6128263Y-4551646D01*
X6117849Y-4556980D01*
X6107435Y-4567394D01*
X6102355Y-4577808D01*
X6102355Y-4598636D01*
X6107435Y-4608796D01*
X6117849Y-4619210D01*
X6128263Y-4624544D01*
X6185413Y-4663914D02*
G01*
X6190493Y-4663914D01*
X6200907Y-4669248D01*
X6206241Y-4674328D01*
X6211321Y-4684742D01*
X6211321Y-4705570D01*
X6206241Y-4715984D01*
X6200907Y-4721064D01*
X6190493Y-4726398D01*
X6180079Y-4726398D01*
X6169665Y-4721064D01*
X6154171Y-4710650D01*
X6102355Y-4658834D01*
X6102355Y-4731478D01*
X4497544Y-1180589D02*
G01*
X4492210Y-1170175D01*
X4481796Y-1159761D01*
X4471636Y-1154681D01*
X4450808Y-1154681D01*
X4440394Y-1159761D01*
X4429980Y-1170175D01*
X4424646Y-1180589D01*
X4419566Y-1196337D01*
X4419566Y-1222245D01*
X4424646Y-1237739D01*
X4429980Y-1248153D01*
X4440394Y-1258567D01*
X4450808Y-1263647D01*
X4471636Y-1263647D01*
X4481796Y-1258567D01*
X4492210Y-1248153D01*
X4497544Y-1237739D01*
X4542248Y-1154681D02*
G01*
X4599398Y-1154681D01*
X4568156Y-1196337D01*
X4583650Y-1196337D01*
X4594064Y-1201417D01*
X4599398Y-1206497D01*
X4604478Y-1222245D01*
X4604478Y-1232659D01*
X4599398Y-1248153D01*
X4588984Y-1258567D01*
X4573236Y-1263647D01*
X4557742Y-1263647D01*
X4542248Y-1258567D01*
X4536914Y-1253487D01*
X4531834Y-1243073D01*
X1830557Y-266176D02*
G01*
X1825223Y-255762D01*
X1814809Y-245348D01*
X1804649Y-240268D01*
X1783821Y-240268D01*
X1773407Y-245348D01*
X1762993Y-255762D01*
X1757659Y-266176D01*
X1752579Y-281924D01*
X1752579Y-307832D01*
X1757659Y-323326D01*
X1762993Y-333740D01*
X1773407Y-344154D01*
X1783821Y-349234D01*
X1804649Y-349234D01*
X1814809Y-344154D01*
X1825223Y-333740D01*
X1830557Y-323326D01*
X1916663Y-240268D02*
G01*
X1864847Y-312912D01*
X1942825Y-312912D01*
X1916663Y-240268D02*
G01*
X1916663Y-349234D01*
X5970727Y-1688581D02*
G01*
X5965393Y-1678167D01*
X5954979Y-1667753D01*
X5944819Y-1662673D01*
X5923991Y-1662673D01*
X5913577Y-1667753D01*
X5903163Y-1678167D01*
X5897829Y-1688581D01*
X5892749Y-1704329D01*
X5892749Y-1730237D01*
X5897829Y-1745731D01*
X5903163Y-1756145D01*
X5913577Y-1766559D01*
X5923991Y-1771639D01*
X5944819Y-1771639D01*
X5954979Y-1766559D01*
X5965393Y-1756145D01*
X5970727Y-1745731D01*
X6067247Y-1678167D02*
G01*
X6062167Y-1667753D01*
X6046419Y-1662673D01*
X6036259Y-1662673D01*
X6020511Y-1667753D01*
X6010097Y-1683501D01*
X6005017Y-1709409D01*
X6005017Y-1735317D01*
X6010097Y-1756145D01*
X6020511Y-1766559D01*
X6036259Y-1771639D01*
X6041339Y-1771639D01*
X6056833Y-1766559D01*
X6067247Y-1756145D01*
X6072581Y-1740651D01*
X6072581Y-1735317D01*
X6067247Y-1719823D01*
X6056833Y-1709409D01*
X6041339Y-1704329D01*
X6036259Y-1704329D01*
X6020511Y-1709409D01*
X6010097Y-1719823D01*
X6005017Y-1735317D01*
X5855185Y-2313165D02*
G01*
X5865599Y-2307831D01*
X5876013Y-2297417D01*
X5881093Y-2287257D01*
X5881093Y-2266429D01*
X5876013Y-2256015D01*
X5865599Y-2245601D01*
X5855185Y-2240267D01*
X5839437Y-2235187D01*
X5813529Y-2235187D01*
X5798035Y-2240267D01*
X5787621Y-2245601D01*
X5777207Y-2256015D01*
X5772127Y-2266429D01*
X5772127Y-2287257D01*
X5777207Y-2297417D01*
X5787621Y-2307831D01*
X5798035Y-2313165D01*
X5881093Y-2420099D02*
G01*
X5772127Y-2368283D01*
X5881093Y-2347455D02*
G01*
X5881093Y-2420099D01*
X3454366Y-4634456D02*
G01*
X3454366Y-4743422D01*
X3454366Y-4634456D02*
G01*
X3490688Y-4634456D01*
X3506436Y-4639536D01*
X3516596Y-4649950D01*
X3521930Y-4660364D01*
X3527010Y-4676112D01*
X3527010Y-4702020D01*
X3521930Y-4717514D01*
X3516596Y-4727928D01*
X3506436Y-4738342D01*
X3490688Y-4743422D01*
X3454366Y-4743422D01*
X3561300Y-4655284D02*
G01*
X3571714Y-4649950D01*
X3587462Y-4634456D01*
X3587462Y-4743422D01*
X2971774Y-672063D02*
G01*
X2971774Y-781029D01*
X2971774Y-672063D02*
G01*
X3008096Y-672063D01*
X3023844Y-677143D01*
X3034004Y-687557D01*
X3039338Y-697971D01*
X3044418Y-713719D01*
X3044418Y-739627D01*
X3039338Y-755121D01*
X3034004Y-765535D01*
X3023844Y-775949D01*
X3008096Y-781029D01*
X2971774Y-781029D01*
X3084042Y-697971D02*
G01*
X3084042Y-692891D01*
X3089122Y-682477D01*
X3094456Y-677143D01*
X3104870Y-672063D01*
X3125444Y-672063D01*
X3135858Y-677143D01*
X3141192Y-682477D01*
X3146272Y-692891D01*
X3146272Y-703305D01*
X3141192Y-713719D01*
X3130778Y-729213D01*
X3078708Y-781029D01*
X3151606Y-781029D01*
X3493526Y-1015977D02*
G01*
X3384560Y-1015977D01*
X3493526Y-1015977D02*
G01*
X3493526Y-1052299D01*
X3488446Y-1068047D01*
X3478032Y-1078207D01*
X3467618Y-1083541D01*
X3451870Y-1088621D01*
X3425962Y-1088621D01*
X3410468Y-1083541D01*
X3400054Y-1078207D01*
X3389640Y-1068047D01*
X3384560Y-1052299D01*
X3384560Y-1015977D01*
X3493526Y-1133325D02*
G01*
X3493526Y-1190475D01*
X3451870Y-1159487D01*
X3451870Y-1174981D01*
X3446790Y-1185395D01*
X3441710Y-1190475D01*
X3425962Y-1195809D01*
X3415548Y-1195809D01*
X3400054Y-1190475D01*
X3389640Y-1180061D01*
X3384560Y-1164567D01*
X3384560Y-1149073D01*
X3389640Y-1133325D01*
X3394720Y-1128245D01*
X3405134Y-1122911D01*
X2844777Y-4659858D02*
G01*
X2844777Y-4768824D01*
X2844777Y-4768824D02*
G01*
X2907007Y-4768824D01*
X2941297Y-4680686D02*
G01*
X2951711Y-4675352D01*
X2967459Y-4659858D01*
X2967459Y-4768824D01*
X2926829Y-875284D02*
G01*
X2916415Y-880363D01*
X2906001Y-890778D01*
X2900667Y-901192D01*
X2895587Y-916939D01*
X2895587Y-942847D01*
X2900667Y-958342D01*
X2906001Y-968755D01*
X2916415Y-979170D01*
X2926829Y-984250D01*
X2947657Y-984250D01*
X2957817Y-979170D01*
X2968231Y-968755D01*
X2973565Y-958342D01*
X2978645Y-942847D01*
X2978645Y-916939D01*
X2973565Y-901192D01*
X2968231Y-890778D01*
X2957817Y-880363D01*
X2947657Y-875284D01*
X2926829Y-875284D01*
X2942323Y-963676D02*
G01*
X2973565Y-994663D01*
X3012935Y-896112D02*
G01*
X3023349Y-890778D01*
X3039097Y-875284D01*
X3039097Y-984250D01*
X6389095Y-1854166D02*
G01*
X6280129Y-1854166D01*
X6389095Y-1854166D02*
G01*
X6389095Y-1900902D01*
X6384015Y-1916396D01*
X6378681Y-1921730D01*
X6368267Y-1926810D01*
X6357853Y-1926810D01*
X6347439Y-1921730D01*
X6342359Y-1916396D01*
X6337279Y-1900902D01*
X6337279Y-1854166D01*
X6337279Y-1890488D02*
G01*
X6280129Y-1926810D01*
X6368267Y-1961100D02*
G01*
X6373601Y-1971514D01*
X6389095Y-1987262D01*
X6280129Y-1987262D01*
X5968951Y-1205478D02*
G01*
X5968951Y-1314444D01*
X5968951Y-1205478D02*
G01*
X6015687Y-1205478D01*
X6031181Y-1210558D01*
X6036515Y-1215892D01*
X6041595Y-1226306D01*
X6041595Y-1236720D01*
X6036515Y-1247134D01*
X6031181Y-1252214D01*
X6015687Y-1257294D01*
X5968951Y-1257294D01*
X6005273Y-1257294D02*
G01*
X6041595Y-1314444D01*
X6127955Y-1205478D02*
G01*
X6075885Y-1278122D01*
X6153863Y-1278122D01*
X6127955Y-1205478D02*
G01*
X6127955Y-1314444D01*
X5322310Y-1498569D02*
G01*
X5213344Y-1498569D01*
X5322310Y-1498569D02*
G01*
X5322310Y-1545305D01*
X5317230Y-1560799D01*
X5311896Y-1566133D01*
X5301482Y-1571213D01*
X5291068Y-1571213D01*
X5280654Y-1566133D01*
X5275574Y-1560799D01*
X5270494Y-1545305D01*
X5270494Y-1498569D01*
X5270494Y-1534891D02*
G01*
X5213344Y-1571213D01*
X5306816Y-1667987D02*
G01*
X5317230Y-1662653D01*
X5322310Y-1647159D01*
X5322310Y-1636745D01*
X5317230Y-1621251D01*
X5301482Y-1610837D01*
X5275574Y-1605503D01*
X5249666Y-1605503D01*
X5228838Y-1610837D01*
X5218424Y-1621251D01*
X5213344Y-1636745D01*
X5213344Y-1642079D01*
X5218424Y-1657573D01*
X5228838Y-1667987D01*
X5244332Y-1673067D01*
X5249666Y-1673067D01*
X5265160Y-1667987D01*
X5275574Y-1657573D01*
X5280654Y-1642079D01*
X5280654Y-1636745D01*
X5275574Y-1621251D01*
X5265160Y-1610837D01*
X5249666Y-1605503D01*
X3098774Y-265666D02*
G01*
X3098774Y-374632D01*
X3098774Y-265666D02*
G01*
X3145510Y-265666D01*
X3161004Y-270746D01*
X3166338Y-276080D01*
X3171418Y-286494D01*
X3171418Y-296908D01*
X3166338Y-307322D01*
X3161004Y-312402D01*
X3145510Y-317482D01*
X3098774Y-317482D01*
X3135096Y-317482D02*
G01*
X3171418Y-374632D01*
X3278606Y-265666D02*
G01*
X3226536Y-374632D01*
X3205708Y-265666D02*
G01*
X3278606Y-265666D01*
X6146800Y-2997962D02*
G01*
X6146800Y-3093465D01*
X6146800Y-2997962D02*
G01*
X6187693Y-2997962D01*
X6201409Y-3002534D01*
X6205981Y-3006852D01*
X6210300Y-3015995D01*
X6210300Y-3025139D01*
X6205981Y-3034284D01*
X6201409Y-3038855D01*
X6187693Y-3043428D01*
X6146800Y-3043428D01*
X6178550Y-3043428D02*
G01*
X6210300Y-3093465D01*
X6263131Y-2997962D02*
G01*
X6249415Y-3002534D01*
X6244843Y-3011423D01*
X6244843Y-3020568D01*
X6249415Y-3029712D01*
X6258559Y-3034284D01*
X6276847Y-3038855D01*
X6290309Y-3043428D01*
X6299454Y-3052318D01*
X6304025Y-3061462D01*
X6304025Y-3075178D01*
X6299454Y-3084321D01*
X6294881Y-3088894D01*
X6281420Y-3093465D01*
X6263131Y-3093465D01*
X6249415Y-3088894D01*
X6244843Y-3084321D01*
X6240525Y-3075178D01*
X6240525Y-3061462D01*
X6244843Y-3052318D01*
X6253988Y-3043428D01*
X6267704Y-3038855D01*
X6285991Y-3034284D01*
X6294881Y-3029712D01*
X6299454Y-3020568D01*
X6299454Y-3011423D01*
X6294881Y-3002534D01*
X6281420Y-2997962D01*
X6263131Y-2997962D01*
X6160495Y-1803366D02*
G01*
X6051529Y-1803366D01*
X6160495Y-1803366D02*
G01*
X6160495Y-1850102D01*
X6155415Y-1865596D01*
X6150081Y-1870930D01*
X6139667Y-1876010D01*
X6129253Y-1876010D01*
X6118839Y-1870930D01*
X6113759Y-1865596D01*
X6108679Y-1850102D01*
X6108679Y-1803366D01*
X6108679Y-1839688D02*
G01*
X6051529Y-1876010D01*
X6139667Y-1910300D02*
G01*
X6145001Y-1920714D01*
X6160495Y-1936462D01*
X6051529Y-1936462D01*
X6139667Y-1970752D02*
G01*
X6145001Y-1981166D01*
X6160495Y-1996660D01*
X6051529Y-1996660D01*
X6033505Y-3428966D02*
G01*
X5924539Y-3428966D01*
X6033505Y-3428966D02*
G01*
X6033505Y-3475702D01*
X6028425Y-3491196D01*
X6023091Y-3496530D01*
X6012677Y-3501610D01*
X6002263Y-3501610D01*
X5991849Y-3496530D01*
X5986769Y-3491196D01*
X5981689Y-3475702D01*
X5981689Y-3428966D01*
X5981689Y-3465288D02*
G01*
X5924539Y-3501610D01*
X6012677Y-3535900D02*
G01*
X6018011Y-3546314D01*
X6033505Y-3562062D01*
X5924539Y-3562062D01*
X6033505Y-3606766D02*
G01*
X6033505Y-3663916D01*
X5991849Y-3632674D01*
X5991849Y-3648168D01*
X5986769Y-3658582D01*
X5981689Y-3663916D01*
X5965941Y-3668996D01*
X5955527Y-3668996D01*
X5940033Y-3663916D01*
X5929619Y-3653502D01*
X5924539Y-3637754D01*
X5924539Y-3622260D01*
X5929619Y-3606766D01*
X5934699Y-3601432D01*
X5945113Y-3596352D01*
X5449305Y-3428972D02*
G01*
X5340339Y-3428972D01*
X5449305Y-3428972D02*
G01*
X5449305Y-3475708D01*
X5444225Y-3491202D01*
X5438891Y-3496536D01*
X5428477Y-3501616D01*
X5418063Y-3501616D01*
X5407649Y-3496536D01*
X5402569Y-3491202D01*
X5397489Y-3475708D01*
X5397489Y-3428972D01*
X5397489Y-3465294D02*
G01*
X5340339Y-3501616D01*
X5428477Y-3535906D02*
G01*
X5433811Y-3546320D01*
X5449305Y-3562068D01*
X5340339Y-3562068D01*
X5449305Y-3658588D02*
G01*
X5449305Y-3606772D01*
X5402569Y-3601438D01*
X5407649Y-3606772D01*
X5412983Y-3622266D01*
X5412983Y-3637760D01*
X5407649Y-3653508D01*
X5397489Y-3663922D01*
X5381741Y-3669002D01*
X5371327Y-3669002D01*
X5355833Y-3663922D01*
X5345419Y-3653508D01*
X5340339Y-3637760D01*
X5340339Y-3622266D01*
X5345419Y-3606772D01*
X5350499Y-3601438D01*
X5360913Y-3596358D01*
X5449293Y-812769D02*
G01*
X5340327Y-812769D01*
X5449293Y-812769D02*
G01*
X5449293Y-859505D01*
X5444213Y-874999D01*
X5438879Y-880333D01*
X5428465Y-885413D01*
X5418051Y-885413D01*
X5407637Y-880333D01*
X5402557Y-874999D01*
X5397477Y-859505D01*
X5397477Y-812769D01*
X5397477Y-849091D02*
G01*
X5340327Y-885413D01*
X5428465Y-919703D02*
G01*
X5433799Y-930117D01*
X5449293Y-945865D01*
X5340327Y-945865D01*
X5433799Y-1042385D02*
G01*
X5444213Y-1037305D01*
X5449293Y-1021557D01*
X5449293Y-1011143D01*
X5444213Y-995649D01*
X5428465Y-985235D01*
X5402557Y-980155D01*
X5376649Y-980155D01*
X5355821Y-985235D01*
X5345407Y-995649D01*
X5340327Y-1011143D01*
X5340327Y-1016477D01*
X5345407Y-1031971D01*
X5355821Y-1042385D01*
X5371315Y-1047719D01*
X5376649Y-1047719D01*
X5392143Y-1042385D01*
X5402557Y-1031971D01*
X5407637Y-1016477D01*
X5407637Y-1011143D01*
X5402557Y-995649D01*
X5392143Y-985235D01*
X5376649Y-980155D01*
X4444977Y-4634466D02*
G01*
X4444977Y-4743432D01*
X4444977Y-4634466D02*
G01*
X4491713Y-4634466D01*
X4507207Y-4639546D01*
X4512541Y-4644880D01*
X4517621Y-4655294D01*
X4517621Y-4665708D01*
X4512541Y-4676122D01*
X4507207Y-4681202D01*
X4491713Y-4686282D01*
X4444977Y-4686282D01*
X4481299Y-4686282D02*
G01*
X4517621Y-4743432D01*
X4551911Y-4655294D02*
G01*
X4562325Y-4649960D01*
X4578073Y-4634466D01*
X4578073Y-4743432D01*
X4685007Y-4634466D02*
G01*
X4632937Y-4743432D01*
X4612363Y-4634466D02*
G01*
X4685007Y-4634466D01*
X5156177Y-4634466D02*
G01*
X5156177Y-4743432D01*
X5156177Y-4634466D02*
G01*
X5202913Y-4634466D01*
X5218407Y-4639546D01*
X5223741Y-4644880D01*
X5228821Y-4655294D01*
X5228821Y-4665708D01*
X5223741Y-4676122D01*
X5218407Y-4681202D01*
X5202913Y-4686282D01*
X5156177Y-4686282D01*
X5192499Y-4686282D02*
G01*
X5228821Y-4743432D01*
X5268445Y-4660374D02*
G01*
X5268445Y-4655294D01*
X5273525Y-4644880D01*
X5278859Y-4639546D01*
X5289273Y-4634466D01*
X5309847Y-4634466D01*
X5320261Y-4639546D01*
X5325595Y-4644880D01*
X5330675Y-4655294D01*
X5330675Y-4665708D01*
X5325595Y-4676122D01*
X5315181Y-4691616D01*
X5263111Y-4743432D01*
X5336009Y-4743432D01*
X5370299Y-4655294D02*
G01*
X5380713Y-4649960D01*
X5396207Y-4634466D01*
X5396207Y-4743432D01*
X5460989Y-2947156D02*
G01*
X5460989Y-3042660D01*
X5460989Y-2947156D02*
G01*
X5501883Y-2947156D01*
X5515599Y-2951728D01*
X5520171Y-2956300D01*
X5524743Y-2965190D01*
X5524743Y-2974334D01*
X5520171Y-2983478D01*
X5515599Y-2988050D01*
X5501883Y-2992622D01*
X5460989Y-2992622D01*
X5492739Y-2992622D02*
G01*
X5524743Y-3042660D01*
X5559287Y-2969762D02*
G01*
X5559287Y-2965190D01*
X5563605Y-2956300D01*
X5568177Y-2951728D01*
X5577321Y-2947156D01*
X5595609Y-2947156D01*
X5604499Y-2951728D01*
X5609071Y-2956300D01*
X5613643Y-2965190D01*
X5613643Y-2974334D01*
X5609071Y-2983478D01*
X5600181Y-2997194D01*
X5554715Y-3042660D01*
X5618215Y-3042660D01*
X4165600Y-4242562D02*
G01*
X4165600Y-4337812D01*
X4165600Y-4242562D02*
G01*
X4206493Y-4242562D01*
X4220209Y-4247134D01*
X4224781Y-4251452D01*
X4229354Y-4260595D01*
X4229354Y-4269739D01*
X4224781Y-4278884D01*
X4220209Y-4283455D01*
X4206493Y-4288028D01*
X4165600Y-4288028D01*
X4197350Y-4288028D02*
G01*
X4229354Y-4337812D01*
X4318254Y-4274312D02*
G01*
X4313681Y-4288028D01*
X4304791Y-4296918D01*
X4291075Y-4301489D01*
X4286504Y-4301489D01*
X4272788Y-4296918D01*
X4263897Y-4288028D01*
X4259325Y-4274312D01*
X4259325Y-4269739D01*
X4263897Y-4256023D01*
X4272788Y-4247134D01*
X4286504Y-4242562D01*
X4291075Y-4242562D01*
X4304791Y-4247134D01*
X4313681Y-4256023D01*
X4318254Y-4274312D01*
X4318254Y-4296918D01*
X4313681Y-4319778D01*
X4304791Y-4333494D01*
X4291075Y-4337812D01*
X4281931Y-4337812D01*
X4268215Y-4333494D01*
X4263897Y-4324350D01*
X5715000Y-4242562D02*
G01*
X5715000Y-4337812D01*
X5715000Y-4242562D02*
G01*
X5755893Y-4242562D01*
X5769609Y-4247134D01*
X5774181Y-4251452D01*
X5778500Y-4260595D01*
X5778500Y-4269739D01*
X5774181Y-4278884D01*
X5769609Y-4283455D01*
X5755893Y-4288028D01*
X5715000Y-4288028D01*
X5746750Y-4288028D02*
G01*
X5778500Y-4337812D01*
X5808725Y-4260595D02*
G01*
X5817615Y-4256023D01*
X5831331Y-4242562D01*
X5831331Y-4337812D01*
X5888736Y-4242562D02*
G01*
X5875020Y-4247134D01*
X5865875Y-4260595D01*
X5861304Y-4283455D01*
X5861304Y-4296918D01*
X5865875Y-4319778D01*
X5875020Y-4333494D01*
X5888736Y-4337812D01*
X5897625Y-4337812D01*
X5911341Y-4333494D01*
X5920486Y-4319778D01*
X5925058Y-4296918D01*
X5925058Y-4283455D01*
X5920486Y-4260595D01*
X5911341Y-4247134D01*
X5897625Y-4242562D01*
X5888736Y-4242562D01*
X5486364Y-138686D02*
G01*
X5486364Y-247652D01*
X5486364Y-138686D02*
G01*
X5533100Y-138686D01*
X5548594Y-143766D01*
X5553928Y-149100D01*
X5559008Y-159514D01*
X5559008Y-169928D01*
X5553928Y-180342D01*
X5548594Y-185422D01*
X5533100Y-190502D01*
X5486364Y-190502D01*
X5522686Y-190502D02*
G01*
X5559008Y-247652D01*
X5655782Y-138686D02*
G01*
X5603712Y-138686D01*
X5598632Y-185422D01*
X5603712Y-180342D01*
X5619460Y-175008D01*
X5634954Y-175008D01*
X5650448Y-180342D01*
X5660862Y-190502D01*
X5666196Y-206250D01*
X5666196Y-216664D01*
X5660862Y-232158D01*
X5650448Y-242572D01*
X5634954Y-247652D01*
X5619460Y-247652D01*
X5603712Y-242572D01*
X5598632Y-237492D01*
X5593298Y-227078D01*
X5765754Y-316486D02*
G01*
X5765754Y-425452D01*
X5765754Y-316486D02*
G01*
X5812490Y-316486D01*
X5827984Y-321566D01*
X5833318Y-326900D01*
X5838398Y-337314D01*
X5838398Y-347728D01*
X5833318Y-358142D01*
X5827984Y-363222D01*
X5812490Y-368302D01*
X5765754Y-368302D01*
X5802076Y-368302D02*
G01*
X5838398Y-425452D01*
X5872688Y-337314D02*
G01*
X5883102Y-331980D01*
X5898850Y-316486D01*
X5898850Y-425452D01*
X5938220Y-342394D02*
G01*
X5938220Y-337314D01*
X5943554Y-326900D01*
X5948634Y-321566D01*
X5959048Y-316486D01*
X5979876Y-316486D01*
X5990290Y-321566D01*
X5995370Y-326900D01*
X6000704Y-337314D01*
X6000704Y-347728D01*
X5995370Y-358142D01*
X5984956Y-373636D01*
X5933140Y-425452D01*
X6005784Y-425452D01*
X6109690Y-838172D02*
G01*
X6000724Y-838172D01*
X6109690Y-838172D02*
G01*
X6109690Y-884908D01*
X6104610Y-900402D01*
X6099276Y-905736D01*
X6088862Y-910816D01*
X6078448Y-910816D01*
X6068034Y-905736D01*
X6062954Y-900402D01*
X6057874Y-884908D01*
X6057874Y-838172D01*
X6057874Y-874494D02*
G01*
X6000724Y-910816D01*
X6088862Y-945106D02*
G01*
X6094196Y-955520D01*
X6109690Y-971268D01*
X6000724Y-971268D01*
X6109690Y-1057374D02*
G01*
X6037046Y-1005558D01*
X6037046Y-1083282D01*
X6109690Y-1057374D02*
G01*
X6000724Y-1057374D01*
X4382500Y-228587D02*
G01*
X4273534Y-228587D01*
X4382500Y-228587D02*
G01*
X4382500Y-275323D01*
X4377420Y-290817D01*
X4372086Y-296151D01*
X4361672Y-301231D01*
X4351258Y-301231D01*
X4340844Y-296151D01*
X4335764Y-290817D01*
X4330684Y-275323D01*
X4330684Y-228587D01*
X4330684Y-264909D02*
G01*
X4273534Y-301231D01*
X4361672Y-335521D02*
G01*
X4367006Y-345935D01*
X4382500Y-361683D01*
X4273534Y-361683D01*
X4346178Y-463537D02*
G01*
X4330684Y-458203D01*
X4320270Y-447789D01*
X4314936Y-432295D01*
X4314936Y-426961D01*
X4320270Y-411467D01*
X4330684Y-401053D01*
X4346178Y-395973D01*
X4351258Y-395973D01*
X4367006Y-401053D01*
X4377420Y-411467D01*
X4382500Y-426961D01*
X4382500Y-432295D01*
X4377420Y-447789D01*
X4367006Y-458203D01*
X4346178Y-463537D01*
X4320270Y-463537D01*
X4294108Y-458203D01*
X4278614Y-447789D01*
X4273534Y-432295D01*
X4273534Y-421881D01*
X4278614Y-406387D01*
X4289028Y-401053D01*
X5347715Y-1904984D02*
G01*
X5269738Y-1904984D01*
X5254243Y-1910064D01*
X5243829Y-1920478D01*
X5238750Y-1936226D01*
X5238750Y-1946640D01*
X5243829Y-1962134D01*
X5254243Y-1972548D01*
X5269738Y-1977628D01*
X5347715Y-1977628D01*
X5326888Y-2011918D02*
G01*
X5332222Y-2022332D01*
X5347715Y-2038080D01*
X5238750Y-2038080D01*
X4761463Y-2590789D02*
G01*
X4839441Y-2590789D01*
X4854935Y-2585709D01*
X4865349Y-2575295D01*
X4870429Y-2559547D01*
X4870429Y-2549133D01*
X4865349Y-2533639D01*
X4854935Y-2523225D01*
X4839441Y-2518145D01*
X4761463Y-2518145D01*
X4761463Y-2473441D02*
G01*
X4761463Y-2416291D01*
X4803119Y-2447279D01*
X4803119Y-2431785D01*
X4808199Y-2421371D01*
X4813279Y-2416291D01*
X4829027Y-2410957D01*
X4839441Y-2410957D01*
X4854935Y-2416291D01*
X4865349Y-2426705D01*
X4870429Y-2442199D01*
X4870429Y-2457693D01*
X4865349Y-2473441D01*
X4860269Y-2478521D01*
X4849855Y-2483855D01*
D15*
X1625600Y-2515362D02*
G01*
X1625600Y-2610865D01*
X1625600Y-2515362D02*
G01*
X1666494Y-2515362D01*
X1680210Y-2519934D01*
X1684781Y-2524505D01*
X1689354Y-2533395D01*
X1689354Y-2542539D01*
X1684781Y-2551684D01*
X1680210Y-2556255D01*
X1666494Y-2560828D01*
X1625600Y-2560828D01*
X1657350Y-2560828D02*
G01*
X1689354Y-2610865D01*
X1755647Y-2515362D02*
G01*
X1719326Y-2610865D01*
X1755647Y-2515362D02*
G01*
X1791970Y-2610865D01*
X1732787Y-2578862D02*
G01*
X1778254Y-2578862D01*
X1885695Y-2528823D02*
G01*
X1876552Y-2519934D01*
X1862836Y-2515362D01*
X1844802Y-2515362D01*
X1831086Y-2519934D01*
X1821942Y-2528823D01*
X1821942Y-2537968D01*
X1826513Y-2547112D01*
X1831086Y-2551684D01*
X1840229Y-2556255D01*
X1867407Y-2565400D01*
X1876552Y-2569718D01*
X1881123Y-2574289D01*
X1885695Y-2583434D01*
X1885695Y-2597150D01*
X1876552Y-2606294D01*
X1862836Y-2610865D01*
X1844802Y-2610865D01*
X1831086Y-2606294D01*
X1821942Y-2597150D01*
X1915668Y-2515362D02*
G01*
X1915668Y-2610865D01*
X1915668Y-2515362D02*
G01*
X1956561Y-2515362D01*
X1970024Y-2519934D01*
X1974595Y-2524505D01*
X1979168Y-2533395D01*
X1979168Y-2547112D01*
X1974595Y-2556255D01*
X1970024Y-2560828D01*
X1956561Y-2565400D01*
X1915668Y-2565400D01*
X2009140Y-2515362D02*
G01*
X2009140Y-2610865D01*
X2009140Y-2515362D02*
G01*
X2050034Y-2515362D01*
X2063750Y-2519934D01*
X2068322Y-2524505D01*
X2072893Y-2533395D01*
X2072893Y-2542539D01*
X2068322Y-2551684D01*
X2063750Y-2556255D01*
X2050034Y-2560828D01*
X2009140Y-2560828D02*
G01*
X2050034Y-2560828D01*
X2063750Y-2565400D01*
X2068322Y-2569718D01*
X2072893Y-2578862D01*
X2072893Y-2592578D01*
X2068322Y-2601721D01*
X2063750Y-2606294D01*
X2050034Y-2610865D01*
X2009140Y-2610865D01*
X2102865Y-2515362D02*
G01*
X2102865Y-2610865D01*
X2102865Y-2515362D02*
G01*
X2162047Y-2515362D01*
X2102865Y-2560828D02*
G01*
X2139188Y-2560828D01*
X2102865Y-2610865D02*
G01*
X2162047Y-2610865D01*
X2192020Y-2515362D02*
G01*
X2192020Y-2610865D01*
X2192020Y-2515362D02*
G01*
X2232913Y-2515362D01*
X2246629Y-2519934D01*
X2250947Y-2524505D01*
X2255520Y-2533395D01*
X2255520Y-2542539D01*
X2250947Y-2551684D01*
X2246629Y-2556255D01*
X2232913Y-2560828D01*
X2192020Y-2560828D01*
X2223770Y-2560828D02*
G01*
X2255520Y-2610865D01*
X2285491Y-2515362D02*
G01*
X2285491Y-2610865D01*
X2285491Y-2515362D02*
G01*
X2326386Y-2515362D01*
X2340102Y-2519934D01*
X2344674Y-2524505D01*
X2349245Y-2533395D01*
X2349245Y-2542539D01*
X2344674Y-2551684D01*
X2340102Y-2556255D01*
X2326386Y-2560828D01*
X2285491Y-2560828D01*
X2317495Y-2560828D02*
G01*
X2349245Y-2610865D01*
X2379218Y-2515362D02*
G01*
X2415540Y-2560828D01*
X2415540Y-2610865D01*
X2451861Y-2515362D02*
G01*
X2415540Y-2560828D01*
X2551938Y-2515362D02*
G01*
X2551938Y-2610865D01*
X2551938Y-2515362D02*
G01*
X2592831Y-2515362D01*
X2606547Y-2519934D01*
X2611120Y-2524505D01*
X2615691Y-2533395D01*
X2615691Y-2547112D01*
X2611120Y-2556255D01*
X2606547Y-2560828D01*
X2592831Y-2565400D01*
X2551938Y-2565400D01*
X2645663Y-2515362D02*
G01*
X2645663Y-2610865D01*
X2745486Y-2515362D02*
G01*
X2745486Y-2610865D01*
X2745486Y-2515362D02*
G01*
X2786379Y-2515362D01*
X2800095Y-2519934D01*
X2804668Y-2524505D01*
X2809240Y-2533395D01*
X2809240Y-2547112D01*
X2804668Y-2556255D01*
X2800095Y-2560828D01*
X2786379Y-2565400D01*
X2745486Y-2565400D01*
X2839211Y-2515362D02*
G01*
X2839211Y-2610865D01*
X2937509Y-2537968D02*
G01*
X2932938Y-2528823D01*
X2923793Y-2519934D01*
X2914650Y-2515362D01*
X2896615Y-2515362D01*
X2887472Y-2519934D01*
X2878327Y-2528823D01*
X2873756Y-2537968D01*
X2869184Y-2551684D01*
X2869184Y-2574289D01*
X2873756Y-2588005D01*
X2878327Y-2597150D01*
X2887472Y-2606294D01*
X2896615Y-2610865D01*
X2914650Y-2610865D01*
X2923793Y-2606294D01*
X2932938Y-2597150D01*
X2937509Y-2588005D01*
X2994659Y-2515362D02*
G01*
X2985515Y-2519934D01*
X2976625Y-2528823D01*
X2972054Y-2537968D01*
X2967481Y-2551684D01*
X2967481Y-2574289D01*
X2972054Y-2588005D01*
X2976625Y-2597150D01*
X2985515Y-2606294D01*
X2994659Y-2610865D01*
X3012947Y-2610865D01*
X3021838Y-2606294D01*
X3030981Y-2597150D01*
X3035554Y-2588005D01*
X3040125Y-2574289D01*
X3040125Y-2551684D01*
X3035554Y-2537968D01*
X3030981Y-2528823D01*
X3021838Y-2519934D01*
X3012947Y-2515362D01*
X2994659Y-2515362D01*
D12*
X756152Y-798068D02*
G01*
X764280Y-793750D01*
X772408Y-785621D01*
X776726Y-777494D01*
X776726Y-761237D01*
X772408Y-752855D01*
X764280Y-744728D01*
X756152Y-740663D01*
X743960Y-736600D01*
X723386Y-736600D01*
X711194Y-740663D01*
X703066Y-744728D01*
X694684Y-752855D01*
X690620Y-761237D01*
X690620Y-777494D01*
X694684Y-785621D01*
X703066Y-793750D01*
X711194Y-798068D01*
X723386Y-798068D01*
X723386Y-777494D02*
G01*
X723386Y-798068D01*
X776726Y-824992D02*
G01*
X690620Y-824992D01*
X776726Y-824992D02*
G01*
X690620Y-882142D01*
X776726Y-882142D02*
G01*
X690620Y-882142D01*
X776726Y-909320D02*
G01*
X690620Y-909320D01*
X776726Y-909320D02*
G01*
X776726Y-937768D01*
X772408Y-950213D01*
X764280Y-958342D01*
X756152Y-962405D01*
X743960Y-966470D01*
X723386Y-966470D01*
X711194Y-962405D01*
X703066Y-958342D01*
X694684Y-950213D01*
X690620Y-937768D01*
X690620Y-909320D01*
G36*
X3635197Y-4589424D02*
G01*
X3635197Y-4621428D01*
X3665677Y-4621428D01*
X3665677Y-4589424D01*
G37*
G36*
X3635197Y-4420971D02*
G01*
X3635197Y-4452924D01*
X3665677Y-4452924D01*
X3665677Y-4420971D01*
G37*
G36*
X2887522Y-458571D02*
G01*
X2887522Y-490575D01*
X2918002Y-490575D01*
X2918002Y-458571D01*
G37*
G36*
X2887522Y-627024D02*
G01*
X2887522Y-659028D01*
X2918002Y-659028D01*
X2918002Y-627024D01*
G37*
G36*
X3497224Y-576122D02*
G01*
X3497224Y-606602D01*
X3529228Y-606602D01*
X3529228Y-576122D01*
G37*
G36*
X3328771Y-576122D02*
G01*
X3328771Y-606602D01*
X3360775Y-606602D01*
X3360775Y-576122D01*
G37*
D11*
X11683977Y-2997194D02*
G01*
X7365984Y-2997194D01*
X7365984Y-2031994D02*
G01*
X11683977Y-2031994D01*
X7035782Y-25400D02*
G01*
X7035782Y-4978389D01*
X7365984Y-2031994D02*
G01*
X7365984Y-2997194D01*
X11683977Y-2031994D02*
G01*
X11683977Y-2997194D01*
X7162800Y-2489200D02*
G01*
X7162800Y-812800D01*
X11887200Y-812800D01*
X11887200Y-4216400D01*
X7162800Y-4216400D01*
X7162800Y-2489200D01*
D16*
X6959587Y-25400D02*
G01*
X6959587Y-4978389D01*
X1015997Y-4521189D02*
G01*
X1015997Y-4470392D01*
X1168397Y-4317992D01*
X2087923Y-4317992D01*
X2235194Y-4521189D02*
G01*
X2235194Y-4470392D01*
X2082794Y-4317992D01*
X2235194Y-4521189D02*
G01*
X2235194Y-4978389D01*
X1015997Y-4978389D02*
G01*
X1015997Y-4521189D01*
X6908787Y-1930394D02*
G01*
X6502387Y-1930394D01*
X6400787Y-2031994D01*
X6908787Y-3149594D02*
G01*
X6603987Y-3149594D01*
X6502387Y-3149594D01*
X6400787Y-3047994D01*
X6400787Y-2031994D01*
D12*
X2638414Y-1260106D02*
G01*
X2766908Y-1260106D01*
X2766908Y-1076688D01*
X2638414Y-1076688D01*
X2543175Y-1260106D02*
G01*
X2414681Y-1260106D01*
X2414681Y-1076688D01*
X2543175Y-1076688D01*
X4803919Y-951039D02*
G01*
X4662919Y-951039D01*
X4662919Y-1131760D02*
G01*
X4803919Y-1131760D01*
X4819159Y-1116520D02*
G01*
X4819159Y-966279D01*
X4441680Y-951039D02*
G01*
X4582680Y-951039D01*
X4582680Y-1131760D02*
G01*
X4441680Y-1131760D01*
X4426440Y-1116520D02*
G01*
X4426440Y-966279D01*
X3914919Y-290639D02*
G01*
X3773919Y-290639D01*
X3773919Y-471360D02*
G01*
X3914919Y-471360D01*
X3930159Y-456120D02*
G01*
X3930159Y-305879D01*
X3552680Y-290639D02*
G01*
X3693680Y-290639D01*
X3693680Y-471360D02*
G01*
X3552680Y-471360D01*
X3537440Y-456120D02*
G01*
X3537440Y-305879D01*
X5650039Y-4441680D02*
G01*
X5650039Y-4582680D01*
X5830760Y-4582680D02*
G01*
X5830760Y-4441680D01*
X5815520Y-4426440D02*
G01*
X5665279Y-4426440D01*
X5650039Y-4803919D02*
G01*
X5650039Y-4662919D01*
X5830760Y-4662919D02*
G01*
X5830760Y-4803919D01*
X5815520Y-4819159D02*
G01*
X5665279Y-4819159D01*
X3821239Y-4441680D02*
G01*
X3821239Y-4582680D01*
X4001960Y-4582680D02*
G01*
X4001960Y-4441680D01*
X3986720Y-4426440D02*
G01*
X3836479Y-4426440D01*
X3821239Y-4803919D02*
G01*
X3821239Y-4662919D01*
X4001960Y-4662919D02*
G01*
X4001960Y-4803919D01*
X3986720Y-4819159D02*
G01*
X3836479Y-4819159D01*
X3247880Y-4001960D02*
G01*
X3388880Y-4001960D01*
X3388880Y-3821239D02*
G01*
X3247880Y-3821239D01*
X3232640Y-3836479D02*
G01*
X3232640Y-3986720D01*
X3610119Y-4001960D02*
G01*
X3469119Y-4001960D01*
X3469119Y-3821239D02*
G01*
X3610119Y-3821239D01*
X3625359Y-3836479D02*
G01*
X3625359Y-3986720D01*
X2746519Y-874839D02*
G01*
X2605519Y-874839D01*
X2605519Y-1055560D02*
G01*
X2746519Y-1055560D01*
X2761759Y-1040320D02*
G01*
X2761759Y-890079D01*
X2384280Y-874839D02*
G01*
X2525280Y-874839D01*
X2525280Y-1055560D02*
G01*
X2384280Y-1055560D01*
X2369040Y-1040320D02*
G01*
X2369040Y-890079D01*
X3819890Y-4264019D02*
G01*
X3819890Y-4392513D01*
X4003309Y-4392513D01*
X4003309Y-4264019D01*
X3819890Y-4168780D02*
G01*
X3819890Y-4040286D01*
X4003309Y-4040286D01*
X4003309Y-4168780D01*
X2758704Y-612777D02*
G01*
X2758704Y-484284D01*
X2575285Y-484284D01*
X2575285Y-612777D01*
X2758704Y-708017D02*
G01*
X2758704Y-836510D01*
X2575285Y-836510D01*
X2575285Y-708017D01*
D17*
X3888783Y-671997D02*
G01*
X3888783Y-851999D01*
X3578781Y-671997D02*
G01*
X3578781Y-851999D01*
X2517185Y-545000D02*
G01*
X2517185Y-725002D01*
X2207183Y-545000D02*
G01*
X2207183Y-725002D01*
D18*
X355600Y-1244597D02*
G01*
X101600Y-1244597D01*
X101600Y-990597D01*
X355600Y-990597D01*
X355600Y-1181097D01*
D19*
X355600Y-1244597D02*
G01*
X355600Y-1181097D01*
D18*
X609600Y-1244600D02*
G01*
X355600Y-1244600D01*
X355600Y-990600D01*
X609600Y-990600D01*
X609600Y-1181100D01*
D19*
X609600Y-1244600D02*
G01*
X609600Y-1181100D01*
D12*
X3543315Y-4062473D02*
G01*
X3365474Y-4062473D01*
X3543315Y-4370311D02*
G01*
X3365474Y-4370311D01*
D17*
X4964582Y-1094803D02*
G01*
X5144584Y-1094803D01*
X4964582Y-979804D02*
G01*
X4964582Y-899802D01*
X4964582Y-784801D02*
G01*
X5144584Y-784801D01*
X5741189Y-1618988D02*
G01*
X5593181Y-1619986D01*
X5727181Y-1429986D02*
G01*
X5593181Y-1429986D01*
X5593181Y-1619986D02*
G01*
X5593181Y-1429984D01*
X5966193Y-1428986D02*
G01*
X5966193Y-1428991D01*
X6001186Y-1463984D01*
X5966193Y-1618988D02*
G01*
X5966193Y-1618983D01*
X6001186Y-1583989D01*
X5841189Y-1618988D02*
G01*
X5966193Y-1618988D01*
X5841189Y-1428986D02*
G01*
X5966193Y-1428986D01*
X6001186Y-1583989D02*
G01*
X6001186Y-1463984D01*
X5761182Y-1573987D02*
G01*
X5761182Y-1473987D01*
X5761182Y-1523481D02*
G01*
X5811182Y-1523481D01*
D12*
X5878626Y-4441670D02*
G01*
X5878626Y-4582670D01*
X6059347Y-4582670D02*
G01*
X6059347Y-4441670D01*
X6044107Y-4426430D02*
G01*
X5893866Y-4426430D01*
X5878626Y-4803909D02*
G01*
X5878626Y-4662909D01*
X6059347Y-4662909D02*
G01*
X6059347Y-4803909D01*
X6044107Y-4819149D02*
G01*
X5893866Y-4819149D01*
X5007109Y-1154236D02*
G01*
X4866109Y-1154236D01*
X4866109Y-1334957D02*
G01*
X5007109Y-1334957D01*
X5022349Y-1319717D02*
G01*
X5022349Y-1169476D01*
X4644870Y-1154236D02*
G01*
X4785870Y-1154236D01*
X4785870Y-1334957D02*
G01*
X4644870Y-1334957D01*
X4629630Y-1319717D02*
G01*
X4629630Y-1169476D01*
X2340114Y-214439D02*
G01*
X2199114Y-214439D01*
X2199114Y-395160D02*
G01*
X2340114Y-395160D01*
X2355354Y-379920D02*
G01*
X2355354Y-229679D01*
X1977875Y-214439D02*
G01*
X2118875Y-214439D01*
X2118875Y-395160D02*
G01*
X1977875Y-395160D01*
X1962635Y-379920D02*
G01*
X1962635Y-229679D01*
X5932347Y-2187714D02*
G01*
X5932347Y-2046714D01*
X5751626Y-2046714D02*
G01*
X5751626Y-2187714D01*
X5766866Y-2202954D02*
G01*
X5917107Y-2202954D01*
X5932347Y-1825475D02*
G01*
X5932347Y-1966475D01*
X5751626Y-1966475D02*
G01*
X5751626Y-1825475D01*
X5766866Y-1810235D02*
G01*
X5917107Y-1810235D01*
X5718309Y-2221034D02*
G01*
X5577309Y-2221034D01*
X5577309Y-2401755D02*
G01*
X5718309Y-2401755D01*
X5733549Y-2386515D02*
G01*
X5733549Y-2236274D01*
X5356070Y-2221034D02*
G01*
X5497070Y-2221034D01*
X5497070Y-2401755D02*
G01*
X5356070Y-2401755D01*
X5340830Y-2386515D02*
G01*
X5340830Y-2236274D01*
X3642814Y-4428566D02*
G01*
X3367570Y-4428566D01*
X3642814Y-4613813D02*
G01*
X3367570Y-4613813D01*
X3367570Y-4613813D02*
G01*
X3367570Y-4594509D01*
X3367570Y-4428566D02*
G01*
X3367570Y-4447870D01*
X3596871Y-4608812D02*
G01*
X3596871Y-4433567D01*
X2910372Y-651423D02*
G01*
X3185617Y-651423D01*
X2910372Y-466176D02*
G01*
X3185617Y-466176D01*
X3185617Y-466176D02*
G01*
X3185617Y-485480D01*
X3185617Y-651423D02*
G01*
X3185617Y-632119D01*
X2956316Y-471177D02*
G01*
X2956316Y-646422D01*
X3336368Y-598975D02*
G01*
X3336368Y-874219D01*
X3521616Y-598975D02*
G01*
X3521616Y-874219D01*
X3521616Y-874219D02*
G01*
X3502312Y-874219D01*
X3336368Y-874219D02*
G01*
X3355672Y-874219D01*
X3516614Y-644918D02*
G01*
X3341370Y-644918D01*
D17*
X1096596Y-4902189D02*
G01*
X1096596Y-4648189D01*
X2154598Y-4902189D02*
G01*
X1096596Y-4902189D01*
X1877245Y-4902189D02*
G01*
X1877245Y-4648189D01*
X2154598Y-4648189D02*
G01*
X1096596Y-4648189D01*
X2154598Y-4902189D02*
G01*
X2154598Y-4648189D01*
X6629387Y-2010994D02*
G01*
X6883387Y-2010994D01*
X6629387Y-3068995D02*
G01*
X6629387Y-2010994D01*
X6629387Y-2791642D02*
G01*
X6883387Y-2791642D01*
X6883387Y-3068995D02*
G01*
X6883387Y-2010994D01*
X6629387Y-3068995D02*
G01*
X6883387Y-3068995D01*
D12*
X3121835Y-4065371D02*
G01*
X3148215Y-4065371D01*
X3148215Y-4570613D01*
X3121835Y-4570613D01*
X2669354Y-4065371D02*
G01*
X2642974Y-4065371D01*
X2642974Y-4570613D01*
X2669354Y-4570613D01*
D17*
X2901795Y-1104798D02*
G01*
X2901795Y-1018397D01*
X2901795Y-1018397D02*
G01*
X3001797Y-1018397D01*
X3041794Y-1199794D02*
G01*
X3041794Y-1137000D01*
X2901795Y-1318397D02*
G01*
X2901795Y-1231996D01*
X2901795Y-1318397D02*
G01*
X3001797Y-1318397D01*
D12*
X6156678Y-2257414D02*
G01*
X6156678Y-2385908D01*
X6340096Y-2385908D01*
X6340096Y-2257414D01*
X6156678Y-2162175D02*
G01*
X6156678Y-2033681D01*
X6340096Y-2033681D01*
X6340096Y-2162175D01*
X5718167Y-1152888D02*
G01*
X5589673Y-1152888D01*
X5589673Y-1336306D01*
X5718167Y-1336306D01*
X5813407Y-1152888D02*
G01*
X5941900Y-1152888D01*
X5941900Y-1336306D01*
X5813407Y-1336306D01*
X5343880Y-1622417D02*
G01*
X5343880Y-1750910D01*
X5527299Y-1750910D01*
X5527299Y-1622417D01*
X5343880Y-1527177D02*
G01*
X5343880Y-1398684D01*
X5527299Y-1398684D01*
X5527299Y-1527177D01*
X2943214Y-421909D02*
G01*
X3071708Y-421909D01*
X3071708Y-238490D01*
X2943214Y-238490D01*
X2847975Y-421909D02*
G01*
X2719481Y-421909D01*
X2719481Y-238490D01*
X2847975Y-238490D01*
X5991207Y-3139704D02*
G01*
X6119700Y-3139704D01*
X6119700Y-2956285D01*
X5991207Y-2956285D01*
X5895967Y-3139704D02*
G01*
X5767473Y-3139704D01*
X5767473Y-2956285D01*
X5895967Y-2956285D01*
X5953478Y-2257414D02*
G01*
X5953478Y-2385908D01*
X6136896Y-2385908D01*
X6136896Y-2257414D01*
X5953478Y-2162175D02*
G01*
X5953478Y-2033681D01*
X6136896Y-2033681D01*
X6136896Y-2162175D01*
X5699483Y-3603612D02*
G01*
X5699483Y-3732105D01*
X5882901Y-3732105D01*
X5882901Y-3603612D01*
X5699483Y-3508372D02*
G01*
X5699483Y-3379878D01*
X5882901Y-3379878D01*
X5882901Y-3508372D01*
X5496280Y-3603612D02*
G01*
X5496280Y-3732105D01*
X5679699Y-3732105D01*
X5679699Y-3603612D01*
X5496280Y-3508372D02*
G01*
X5496280Y-3379878D01*
X5679699Y-3379878D01*
X5679699Y-3508372D01*
X5470878Y-987417D02*
G01*
X5470878Y-1115910D01*
X5654296Y-1115910D01*
X5654296Y-987417D01*
X5470878Y-892177D02*
G01*
X5470878Y-763684D01*
X5654296Y-763684D01*
X5654296Y-892177D01*
X4619612Y-4612899D02*
G01*
X4748105Y-4612899D01*
X4748105Y-4429480D01*
X4619612Y-4429480D01*
X4524372Y-4612899D02*
G01*
X4395878Y-4612899D01*
X4395878Y-4429480D01*
X4524372Y-4429480D01*
X5330809Y-4612899D02*
G01*
X5459303Y-4612899D01*
X5459303Y-4429480D01*
X5330809Y-4429480D01*
X5235569Y-4612899D02*
G01*
X5107076Y-4612899D01*
X5107076Y-4429480D01*
X5235569Y-4429480D01*
D17*
X5366986Y-2472791D02*
G01*
X6316987Y-2472791D01*
X5561584Y-2590794D02*
G01*
X5561584Y-2552694D01*
X5561584Y-2514594D01*
X5561584Y-2552694D01*
X5366986Y-2472791D02*
G01*
X5366986Y-2962798D01*
X5366986Y-2967794D01*
X5416486Y-2967794D01*
X5416486Y-2917794D01*
X6267488Y-2917794D01*
X6267488Y-2967794D01*
X6317521Y-2967794D01*
X6317521Y-2962798D01*
X6317521Y-2472791D01*
X4071592Y-3768189D02*
G01*
X5021592Y-3768189D01*
X4266189Y-3886192D02*
G01*
X4266189Y-3848092D01*
X4266189Y-3809992D01*
X4266189Y-3848092D01*
X4071592Y-3768189D02*
G01*
X4071592Y-4258195D01*
X4071592Y-4263191D01*
X4121091Y-4263191D01*
X4121091Y-4213191D01*
X4972093Y-4213191D01*
X4972093Y-4263191D01*
X5022126Y-4263191D01*
X5022126Y-4258195D01*
X5022126Y-3768189D01*
X5062189Y-3768189D02*
G01*
X6012190Y-3768189D01*
X5256786Y-3886192D02*
G01*
X5256786Y-3848092D01*
X5256786Y-3809992D01*
X5256786Y-3848092D01*
X5062189Y-3768189D02*
G01*
X5062189Y-4258195D01*
X5062189Y-4263191D01*
X5111689Y-4263191D01*
X5111689Y-4213191D01*
X5962690Y-4213191D01*
X5962690Y-4263191D01*
X6012723Y-4263191D01*
X6012723Y-4258195D01*
X6012723Y-3768189D01*
D12*
X5654299Y-409580D02*
G01*
X5654299Y-281086D01*
X5470880Y-281086D01*
X5470880Y-409580D01*
X5654299Y-504819D02*
G01*
X5654299Y-633313D01*
X5470880Y-633313D01*
X5470880Y-504819D01*
X5819767Y-467090D02*
G01*
X5691273Y-467090D01*
X5691273Y-650509D01*
X5819767Y-650509D01*
X5915007Y-467090D02*
G01*
X6043500Y-467090D01*
X6043500Y-650509D01*
X5915007Y-650509D01*
X5775678Y-987417D02*
G01*
X5775678Y-1115910D01*
X5959096Y-1115910D01*
X5959096Y-987417D01*
X5775678Y-892177D02*
G01*
X5775678Y-763684D01*
X5959096Y-763684D01*
X5959096Y-892177D01*
X4444956Y-608208D02*
G01*
X4444956Y-107970D01*
X5410197Y-107970D01*
X5410197Y-608208D01*
X4444956Y-608208D01*
X4422096Y-608208D02*
G01*
X4422096Y-107970D01*
D17*
X5692195Y-2071199D02*
G01*
X5692195Y-1891197D01*
X5577197Y-2071199D02*
G01*
X5497195Y-2071199D01*
X5382193Y-2071199D02*
G01*
X5382193Y-1891197D01*
X91688Y-3564592D02*
G01*
X91688Y-1464520D01*
X5191500Y-1464520D01*
X5191500Y-3564592D01*
X91688Y-3564592D01*
D18*
X863597Y-1244597D02*
G01*
X609597Y-1244597D01*
X609597Y-990597D01*
X863597Y-990597D01*
X863597Y-1181097D01*
D19*
X863597Y-1244597D02*
G01*
X863597Y-1181097D01*
D12*
G75*
G01*
X4803920Y-1131760D02*
G03*
X4819160Y-1116520I0J15240D01*
G75*
G01*
X4819160Y-966280D02*
G03*
X4803920Y-951040I-15240J0D01*
G75*
G01*
X4441680Y-1131760D02*
G02*
X4426440Y-1116520I0J15240D01*
G75*
G01*
X4426440Y-966280D02*
G02*
X4441680Y-951040I15240J0D01*
G75*
G01*
X3914920Y-471360D02*
G03*
X3930160Y-456120I0J15240D01*
G75*
G01*
X3930160Y-305880D02*
G03*
X3914920Y-290640I-15240J0D01*
G75*
G01*
X3552680Y-471360D02*
G02*
X3537440Y-456120I0J15240D01*
G75*
G01*
X3537440Y-305880D02*
G02*
X3552680Y-290640I15240J0D01*
G75*
G01*
X5830760Y-4441680D02*
G03*
X5815521Y-4426440I-15240J0D01*
G75*
G01*
X5665279Y-4426440D02*
G03*
X5650040Y-4441680I1J-15240D01*
G75*
G01*
X5830760Y-4803920D02*
G02*
X5815521Y-4819160I-15240J0D01*
G75*
G01*
X5665279Y-4819160D02*
G02*
X5650040Y-4803920I1J15240D01*
G75*
G01*
X4001960Y-4441680D02*
G03*
X3986721Y-4426440I-15240J0D01*
G75*
G01*
X3836479Y-4426440D02*
G03*
X3821240Y-4441680I1J-15240D01*
G75*
G01*
X4001960Y-4803920D02*
G02*
X3986721Y-4819160I-15240J0D01*
G75*
G01*
X3836479Y-4819160D02*
G02*
X3821240Y-4803920I1J15240D01*
G75*
G01*
X3247880Y-3821240D02*
G03*
X3232640Y-3836480I0J-15240D01*
G75*
G01*
X3232640Y-3986720D02*
G03*
X3247880Y-4001960I15240J0D01*
G75*
G01*
X3610120Y-3821240D02*
G02*
X3625360Y-3836480I0J-15240D01*
G75*
G01*
X3625360Y-3986720D02*
G02*
X3610120Y-4001960I-15240J0D01*
G75*
G01*
X2746520Y-1055560D02*
G03*
X2761760Y-1040320I0J15240D01*
G75*
G01*
X2761760Y-890080D02*
G03*
X2746520Y-874840I-15240J0D01*
G75*
G01*
X2384280Y-1055560D02*
G02*
X2369040Y-1040320I0J15240D01*
G75*
G01*
X2369040Y-890080D02*
G02*
X2384280Y-874840I15240J0D01*
G75*
G01*
X6059348Y-4441670D02*
G03*
X6044108Y-4426430I-15240J0D01*
G75*
G01*
X5893867Y-4426430D02*
G03*
X5878627Y-4441670I0J-15240D01*
G75*
G01*
X6059348Y-4803910D02*
G02*
X6044108Y-4819150I-15240J0D01*
G75*
G01*
X5893867Y-4819150D02*
G02*
X5878627Y-4803910I0J15240D01*
G75*
G01*
X5007110Y-1334958D02*
G03*
X5022350Y-1319718I0J15240D01*
G75*
G01*
X5022350Y-1169477D02*
G03*
X5007110Y-1154237I-15240J0D01*
G75*
G01*
X4644870Y-1334958D02*
G02*
X4629630Y-1319718I0J15240D01*
G75*
G01*
X4629630Y-1169477D02*
G02*
X4644870Y-1154237I15240J0D01*
G75*
G01*
X2340115Y-395160D02*
G03*
X2355355Y-379920I0J15240D01*
G75*
G01*
X2355355Y-229680D02*
G03*
X2340115Y-214440I-15240J0D01*
G75*
G01*
X1977875Y-395160D02*
G02*
X1962635Y-379920I0J15240D01*
G75*
G01*
X1962635Y-229680D02*
G02*
X1977875Y-214440I15240J0D01*
G75*
G01*
X5751627Y-2187715D02*
G03*
X5766867Y-2202955I15240J0D01*
G75*
G01*
X5917108Y-2202955D02*
G03*
X5932348Y-2187715I0J15240D01*
G75*
G01*
X5751627Y-1825475D02*
G02*
X5766867Y-1810235I15240J0D01*
G75*
G01*
X5917108Y-1810235D02*
G02*
X5932348Y-1825475I0J-15240D01*
G75*
G01*
X5718310Y-2401755D02*
G03*
X5733550Y-2386515I0J15240D01*
G75*
G01*
X5733550Y-2236274D02*
G03*
X5718310Y-2221034I-15240J0D01*
G75*
G01*
X5356070Y-2401755D02*
G02*
X5340830Y-2386515I0J15240D01*
G75*
G01*
X5340830Y-2236274D02*
G02*
X5356070Y-2221034I15240J0D01*
D17*
G75*
G01*
X5561584Y-2498847D02*
G03*
X5562600Y-2498847I508J-53879D01*
G75*
G01*
X4266189Y-3794244D02*
G03*
X4267205Y-3794244I508J-53880D01*
G75*
G01*
X5256787Y-3794244D02*
G03*
X5257803Y-3794244I508J-53880D01*
G75*
G01
X3581400Y-901700D02*
G03X3581400Y-901700I-12700J0D01*
G75*
G01
X2209800Y-774700D02*
G03X2209800Y-774700I-12700J0D01*
D11*
G75*
G01
X3599561Y-4383227D02*
G03X3599561Y-4383227I-15011J0D01*
D17*
G75*
G01
X5219675Y-1104900D02*
G03X5219675Y-1104900I-12700J0D01*
G75*
G01
X5714975Y-1828775D02*
G03X5714975Y-1828775I-12700J0D01*
M02*
