G04 Layer: BottomSilkscreenLayer*
G04 EasyEDA v6.4.31, 2022-02-22 16:37:49*
G04 daaedd2a32134c9ca592902a83472a49,9a5be75d700b4a6385dc1106f27949ae,10*
G04 Gerber Generator version 0.2*
G04 Scale: 100 percent, Rotated: No, Reflected: No *
G04 Dimensions in millimeters *
G04 leading zeros omitted , absolute positions ,4 integer and 5 decimal *
%FSLAX45Y45*%
%MOMM*%

%ADD11C,0.4000*%
%ADD38C,0.2032*%

%LPD*%
G36*
X1511858Y-11198402D02*
G01*
X1511858Y-11232083D01*
X1575054Y-11291062D01*
X1575054Y-11383264D01*
X1617116Y-11413591D01*
X1617116Y-11472113D01*
X1659229Y-11472113D01*
X1659229Y-11514226D01*
X1617116Y-11514226D01*
X1617116Y-11598402D01*
X1638198Y-11598402D01*
X1638198Y-11640515D01*
X1648714Y-11640515D01*
X1652778Y-11639702D01*
X1656130Y-11637416D01*
X1658416Y-11634063D01*
X1660093Y-11625935D01*
X1662328Y-11622582D01*
X1665681Y-11620296D01*
X1669745Y-11619484D01*
X1680311Y-11619484D01*
X1680311Y-11661597D01*
X1712823Y-11661597D01*
X1764487Y-11609882D01*
X1764487Y-11579098D01*
X1738172Y-11566855D01*
X1764487Y-11554561D01*
X1764487Y-11514226D01*
X1753971Y-11514226D01*
X1749907Y-11513362D01*
X1746554Y-11511127D01*
X1744268Y-11507774D01*
X1743456Y-11503660D01*
X1743456Y-11493144D01*
X1797608Y-11493144D01*
X1827682Y-11463070D01*
X1827682Y-11396929D01*
X1842719Y-11381892D01*
X1849831Y-11376050D01*
X1858162Y-11371275D01*
X1866646Y-11368024D01*
X1874266Y-11366855D01*
X1890826Y-11366855D01*
X1890826Y-11305438D01*
X1917141Y-11293144D01*
X1890826Y-11280851D01*
X1890826Y-11240516D01*
X1869744Y-11240516D01*
X1869744Y-11198402D01*
X1806600Y-11198402D01*
X1806600Y-11251996D01*
X1780793Y-11277854D01*
X1775307Y-11283035D01*
X1769618Y-11287861D01*
X1763979Y-11292281D01*
X1758442Y-11296091D01*
X1753209Y-11299240D01*
X1748434Y-11301628D01*
X1744319Y-11303152D01*
X1740966Y-11303660D01*
X1727047Y-11303660D01*
X1696720Y-11345773D01*
X1659229Y-11345773D01*
X1659229Y-11282629D01*
X1638198Y-11282629D01*
X1638198Y-11266068D01*
X1637690Y-11260683D01*
X1636217Y-11255248D01*
X1633880Y-11249812D01*
X1630832Y-11244529D01*
X1627124Y-11239500D01*
X1622856Y-11234826D01*
X1618132Y-11230559D01*
X1613103Y-11226850D01*
X1607820Y-11223752D01*
X1602435Y-11221466D01*
X1596948Y-11219992D01*
X1591564Y-11219484D01*
X1575054Y-11219484D01*
X1575054Y-11198402D01*
G37*
D38*
X5511291Y-12443713D02*
G01*
X5529834Y-12462255D01*
X5538977Y-12489942D01*
X5538977Y-12526771D01*
X5529834Y-12554458D01*
X5511291Y-12573000D01*
X5492750Y-12573000D01*
X5474461Y-12563855D01*
X5465063Y-12554458D01*
X5455920Y-12536170D01*
X5437377Y-12480544D01*
X5428234Y-12462255D01*
X5419090Y-12452858D01*
X5400547Y-12443713D01*
X5372861Y-12443713D01*
X5354320Y-12462255D01*
X5345175Y-12489942D01*
X5345175Y-12526771D01*
X5354320Y-12554458D01*
X5372861Y-12573000D01*
X5446775Y-12272010D02*
G01*
X5465063Y-12290297D01*
X5474461Y-12308839D01*
X5474461Y-12336526D01*
X5465063Y-12355068D01*
X5446775Y-12373610D01*
X5419090Y-12382754D01*
X5400547Y-12382754D01*
X5372861Y-12373610D01*
X5354320Y-12355068D01*
X5345175Y-12336526D01*
X5345175Y-12308839D01*
X5354320Y-12290297D01*
X5372861Y-12272010D01*
X5538977Y-12211050D02*
G01*
X5529834Y-12201652D01*
X5538977Y-12192508D01*
X5548375Y-12201652D01*
X5538977Y-12211050D01*
X5474461Y-12201652D02*
G01*
X5345175Y-12201652D01*
X5474461Y-12131547D02*
G01*
X5345175Y-12131547D01*
X5437377Y-12131547D02*
G01*
X5465063Y-12103862D01*
X5474461Y-12085320D01*
X5474461Y-12057634D01*
X5465063Y-12039092D01*
X5437377Y-12029947D01*
X5345175Y-12029947D01*
X5538977Y-11941302D02*
G01*
X5382006Y-11941302D01*
X5354320Y-11931904D01*
X5345175Y-11913615D01*
X5345175Y-11895074D01*
X5474461Y-11968987D02*
G01*
X5474461Y-11904218D01*
X5538977Y-11834113D02*
G01*
X5529834Y-11824970D01*
X5538977Y-11815571D01*
X5548375Y-11824970D01*
X5538977Y-11834113D01*
X5474461Y-11824970D02*
G01*
X5345175Y-11824970D01*
X5538977Y-11754612D02*
G01*
X5345175Y-11754612D01*
X5538977Y-11693652D02*
G01*
X5345175Y-11693652D01*
X5474461Y-11521947D02*
G01*
X5345175Y-11521947D01*
X5446775Y-11521947D02*
G01*
X5465063Y-11540489D01*
X5474461Y-11558778D01*
X5474461Y-11586463D01*
X5465063Y-11605005D01*
X5446775Y-11623547D01*
X5419090Y-11632692D01*
X5400547Y-11632692D01*
X5372861Y-11623547D01*
X5354320Y-11605005D01*
X5345175Y-11586463D01*
X5345175Y-11558778D01*
X5354320Y-11540489D01*
X5372861Y-11521947D01*
X5538977Y-11433302D02*
G01*
X5382006Y-11433302D01*
X5354320Y-11423904D01*
X5345175Y-11405615D01*
X5345175Y-11387074D01*
X5474461Y-11460987D02*
G01*
X5474461Y-11396218D01*
X5474461Y-11279886D02*
G01*
X5465063Y-11298428D01*
X5446775Y-11316970D01*
X5419090Y-11326113D01*
X5400547Y-11326113D01*
X5372861Y-11316970D01*
X5354320Y-11298428D01*
X5345175Y-11279886D01*
X5345175Y-11252200D01*
X5354320Y-11233658D01*
X5372861Y-11215370D01*
X5400547Y-11205971D01*
X5419090Y-11205971D01*
X5446775Y-11215370D01*
X5465063Y-11233658D01*
X5474461Y-11252200D01*
X5474461Y-11279886D01*
X5474461Y-11145012D02*
G01*
X5345175Y-11145012D01*
X5419090Y-11145012D02*
G01*
X5446775Y-11135868D01*
X5465063Y-11117326D01*
X5474461Y-11098784D01*
X5474461Y-11071097D01*
X4752086Y-11479021D02*
G01*
X4826000Y-11672824D01*
X4752086Y-11479021D02*
G01*
X4678172Y-11672824D01*
X4798313Y-11608308D02*
G01*
X4705858Y-11608308D01*
X4617211Y-11479021D02*
G01*
X4617211Y-11672824D01*
X4617211Y-11479021D02*
G01*
X4487925Y-11672824D01*
X4487925Y-11479021D02*
G01*
X4487925Y-11672824D01*
X4353052Y-11479021D02*
G01*
X4426965Y-11672824D01*
X4353052Y-11479021D02*
G01*
X4279138Y-11672824D01*
X4399279Y-11608308D02*
G01*
X4306824Y-11608308D01*
X4218177Y-11479021D02*
G01*
X4218177Y-11672824D01*
X4218177Y-11672824D02*
G01*
X4107434Y-11672824D01*
X3991102Y-11479021D02*
G01*
X4009390Y-11488165D01*
X4027931Y-11506708D01*
X4037329Y-11525250D01*
X4046474Y-11552936D01*
X4046474Y-11598910D01*
X4037329Y-11626850D01*
X4027931Y-11645137D01*
X4009390Y-11663679D01*
X3991102Y-11672824D01*
X3954018Y-11672824D01*
X3935729Y-11663679D01*
X3917188Y-11645137D01*
X3907790Y-11626850D01*
X3898645Y-11598910D01*
X3898645Y-11552936D01*
X3907790Y-11525250D01*
X3917188Y-11506708D01*
X3935729Y-11488165D01*
X3954018Y-11479021D01*
X3991102Y-11479021D01*
X3699256Y-11525250D02*
G01*
X3708400Y-11506708D01*
X3726941Y-11488165D01*
X3745229Y-11479021D01*
X3782313Y-11479021D01*
X3800856Y-11488165D01*
X3819143Y-11506708D01*
X3828541Y-11525250D01*
X3837686Y-11552936D01*
X3837686Y-11598910D01*
X3828541Y-11626850D01*
X3819143Y-11645137D01*
X3800856Y-11663679D01*
X3782313Y-11672824D01*
X3745229Y-11672824D01*
X3726941Y-11663679D01*
X3708400Y-11645137D01*
X3699256Y-11626850D01*
X3699256Y-11598910D01*
X3745229Y-11598910D02*
G01*
X3699256Y-11598910D01*
X4826000Y-11923521D02*
G01*
X4826000Y-12117324D01*
X4826000Y-11923521D02*
G01*
X4761229Y-11923521D01*
X4733543Y-11932665D01*
X4715256Y-11951208D01*
X4705858Y-11969750D01*
X4696713Y-11997436D01*
X4696713Y-12043410D01*
X4705858Y-12071350D01*
X4715256Y-12089637D01*
X4733543Y-12108179D01*
X4761229Y-12117324D01*
X4826000Y-12117324D01*
X4635754Y-11923521D02*
G01*
X4635754Y-12117324D01*
X4436109Y-11969750D02*
G01*
X4445508Y-11951208D01*
X4464050Y-11932665D01*
X4482338Y-11923521D01*
X4519422Y-11923521D01*
X4537709Y-11932665D01*
X4556252Y-11951208D01*
X4565650Y-11969750D01*
X4574793Y-11997436D01*
X4574793Y-12043410D01*
X4565650Y-12071350D01*
X4556252Y-12089637D01*
X4537709Y-12108179D01*
X4519422Y-12117324D01*
X4482338Y-12117324D01*
X4464050Y-12108179D01*
X4445508Y-12089637D01*
X4436109Y-12071350D01*
X4436109Y-12043410D01*
X4482338Y-12043410D02*
G01*
X4436109Y-12043410D01*
X4375150Y-11923521D02*
G01*
X4375150Y-12117324D01*
X4249674Y-11923521D02*
G01*
X4249674Y-12117324D01*
X4314190Y-11923521D02*
G01*
X4184904Y-11923521D01*
X4050029Y-11923521D02*
G01*
X4123943Y-12117324D01*
X4050029Y-11923521D02*
G01*
X3976370Y-12117324D01*
X4096258Y-12052808D02*
G01*
X4004056Y-12052808D01*
X3915409Y-11923521D02*
G01*
X3915409Y-12117324D01*
X3915409Y-12117324D02*
G01*
X3804411Y-12117324D01*
X3326726Y-12201728D02*
G01*
X3333546Y-12188090D01*
X3347181Y-12174453D01*
X3360818Y-12167636D01*
X3388090Y-12167636D01*
X3401728Y-12174453D01*
X3415362Y-12188090D01*
X3422182Y-12201728D01*
X3429000Y-12222182D01*
X3429000Y-12256272D01*
X3422182Y-12276726D01*
X3415362Y-12290364D01*
X3401728Y-12304000D01*
X3388090Y-12310818D01*
X3360818Y-12310818D01*
X3347181Y-12304000D01*
X3333546Y-12290364D01*
X3326726Y-12276726D01*
X3326726Y-12256272D01*
X3360818Y-12256272D02*
G01*
X3326726Y-12256272D01*
X3281728Y-12167636D02*
G01*
X3274908Y-12174453D01*
X3268090Y-12167636D01*
X3274908Y-12160818D01*
X3281728Y-12167636D01*
X3274908Y-12215362D02*
G01*
X3274908Y-12310818D01*
X3202637Y-12167636D02*
G01*
X3202637Y-12283546D01*
X3195817Y-12304000D01*
X3182183Y-12310818D01*
X3168545Y-12310818D01*
X3223092Y-12215362D02*
G01*
X3175363Y-12215362D01*
X3123547Y-12167636D02*
G01*
X3123547Y-12310818D01*
X3028091Y-12167636D02*
G01*
X3028091Y-12310818D01*
X3123547Y-12235817D02*
G01*
X3028091Y-12235817D01*
X2983092Y-12215362D02*
G01*
X2983092Y-12283546D01*
X2976272Y-12304000D01*
X2962638Y-12310818D01*
X2942183Y-12310818D01*
X2928546Y-12304000D01*
X2908091Y-12283546D01*
X2908091Y-12215362D02*
G01*
X2908091Y-12310818D01*
X2863093Y-12167636D02*
G01*
X2863093Y-12310818D01*
X2863093Y-12235817D02*
G01*
X2849455Y-12222182D01*
X2835818Y-12215362D01*
X2815363Y-12215362D01*
X2801729Y-12222182D01*
X2788091Y-12235817D01*
X2781274Y-12256272D01*
X2781274Y-12269909D01*
X2788091Y-12290364D01*
X2801729Y-12304000D01*
X2815363Y-12310818D01*
X2835818Y-12310818D01*
X2849455Y-12304000D01*
X2863093Y-12290364D01*
X2613548Y-12140364D02*
G01*
X2736273Y-12358545D01*
X2568547Y-12167636D02*
G01*
X2568547Y-12310818D01*
X2568547Y-12167636D02*
G01*
X2507183Y-12167636D01*
X2486728Y-12174453D01*
X2479911Y-12181273D01*
X2473093Y-12194908D01*
X2473093Y-12215362D01*
X2479911Y-12229000D01*
X2486728Y-12235817D01*
X2507183Y-12242637D01*
X2568547Y-12242637D01*
X2428092Y-12167636D02*
G01*
X2428092Y-12310818D01*
X2428092Y-12242637D02*
G01*
X2407638Y-12222182D01*
X2394000Y-12215362D01*
X2373548Y-12215362D01*
X2359911Y-12222182D01*
X2353094Y-12242637D01*
X2353094Y-12310818D01*
X2274001Y-12215362D02*
G01*
X2287638Y-12222182D01*
X2301275Y-12235817D01*
X2308092Y-12256272D01*
X2308092Y-12269909D01*
X2301275Y-12290364D01*
X2287638Y-12304000D01*
X2274001Y-12310818D01*
X2253548Y-12310818D01*
X2239911Y-12304000D01*
X2226274Y-12290364D01*
X2219457Y-12269909D01*
X2219457Y-12256272D01*
X2226274Y-12235817D01*
X2239911Y-12222182D01*
X2253548Y-12215362D01*
X2274001Y-12215362D01*
X2174455Y-12256272D02*
G01*
X2092639Y-12256272D01*
X2092639Y-12242637D01*
X2099457Y-12229000D01*
X2106274Y-12222182D01*
X2119911Y-12215362D01*
X2140366Y-12215362D01*
X2154001Y-12222182D01*
X2167638Y-12235817D01*
X2174455Y-12256272D01*
X2174455Y-12269909D01*
X2167638Y-12290364D01*
X2154001Y-12304000D01*
X2140366Y-12310818D01*
X2119911Y-12310818D01*
X2106274Y-12304000D01*
X2092639Y-12290364D01*
X2047638Y-12215362D02*
G01*
X2047638Y-12310818D01*
X2047638Y-12242637D02*
G01*
X2027184Y-12222182D01*
X2013549Y-12215362D01*
X1993094Y-12215362D01*
X1979457Y-12222182D01*
X1972640Y-12242637D01*
X1972640Y-12310818D01*
X1927639Y-12167636D02*
G01*
X1920821Y-12174453D01*
X1914001Y-12167636D01*
X1920821Y-12160818D01*
X1927639Y-12167636D01*
X1920821Y-12215362D02*
G01*
X1920821Y-12310818D01*
X1869003Y-12215362D02*
G01*
X1794002Y-12310818D01*
X1794002Y-12215362D02*
G01*
X1869003Y-12310818D01*
X1749003Y-12194908D02*
G01*
X1735366Y-12188090D01*
X1714911Y-12167636D01*
X1714911Y-12310818D01*
X1574457Y-12167636D02*
G01*
X1642640Y-12310818D01*
X1669912Y-12167636D02*
G01*
X1574457Y-12167636D01*
X1461277Y-12167636D02*
G01*
X1529458Y-12263092D01*
X1427185Y-12263092D01*
X1461277Y-12167636D02*
G01*
X1461277Y-12310818D01*
X1286730Y-12167636D02*
G01*
X1354912Y-12310818D01*
X1382186Y-12167636D02*
G01*
X1286730Y-12167636D01*
D11*
X1333500Y-11811000D02*
G01*
X5270500Y-11811000D01*
M02*
