G04 Layer: TopPasteMaskLayer*
G04 EasyEDA v6.5.42, 2024-03-29 12:16:20*
G04 9a5be75d700b4a6385dc1106f27949ae,10*
G04 Gerber Generator version 0.2*
G04 Scale: 100 percent, Rotated: No, Reflected: No *
G04 Dimensions in millimeters *
G04 leading zeros omitted , absolute positions ,4 integer and 5 decimal *
%FSLAX45Y45*%
%MOMM*%

%AMMACRO1*21,1,$1,$2,0,0,$3*%
%ADD10R,1.0000X0.6000*%
%ADD11R,0.8000X0.9000*%
%ADD12R,0.9000X0.8000*%
%ADD13R,2.8000X1.6000*%
%ADD14R,1.6000X2.8000*%
%ADD15R,0.8000X0.8000*%
%ADD16R,0.7500X1.0000*%
%ADD17R,1.8000X1.8000*%
%ADD18R,1.0000X0.8000*%
%ADD19R,1.3000X2.0000*%
%ADD20R,2.0000X2.0000*%
%ADD21R,1.1000X1.4000*%
%ADD22R,1.1000X0.6000*%
%ADD23R,1.0000X0.7500*%
%ADD24R,3.7000X1.2000*%
%ADD25R,1.0720X0.5320*%
%ADD26C,1.0000*%
%ADD27MACRO1,0.5319X1.0373X90.0000*%
%ADD28MACRO1,0.5321X1.0373X90.0000*%
%ADD29MACRO1,0.5319X1.0376X90.0000*%
%ADD30R,0.6000X1.0700*%
%ADD31R,0.5320X1.0375*%
%ADD32R,0.0106X1.0375*%

%LPD*%
G36*
X5738012Y-3557473D02*
G01*
X5732983Y-3562502D01*
X5732983Y-3677513D01*
X5738012Y-3682492D01*
X5779973Y-3681984D01*
X5779973Y-3637991D01*
X5824982Y-3637991D01*
X5824982Y-3683000D01*
X5865977Y-3682492D01*
X5871006Y-3677513D01*
X5871006Y-3562502D01*
X5865977Y-3557473D01*
G37*
G36*
X5738012Y-3772509D02*
G01*
X5732983Y-3777487D01*
X5732983Y-3892499D01*
X5738012Y-3897477D01*
X5865977Y-3897477D01*
X5871006Y-3892499D01*
X5871006Y-3777487D01*
X5865977Y-3772509D01*
X5824982Y-3773017D01*
X5824982Y-3817010D01*
X5779973Y-3817010D01*
X5779973Y-3772509D01*
G37*
G36*
X2535021Y-1000506D02*
G01*
X2529992Y-1005484D01*
X2529992Y-1085494D01*
X2535021Y-1090472D01*
X2557780Y-1090472D01*
X2557780Y-1053490D01*
X2590800Y-1053490D01*
X2590800Y-1090472D01*
X2614980Y-1090472D01*
X2620010Y-1085494D01*
X2620010Y-1005484D01*
X2614980Y-1000506D01*
G37*
G36*
X2535021Y-1160475D02*
G01*
X2529992Y-1165504D01*
X2529992Y-1244498D01*
X2535021Y-1249476D01*
X2614980Y-1249476D01*
X2620010Y-1244498D01*
X2620010Y-1165504D01*
X2614980Y-1160475D01*
X2590800Y-1160475D01*
X2590800Y-1198473D01*
X2557780Y-1198473D01*
X2557780Y-1160475D01*
G37*
G36*
X2689504Y-305003D02*
G01*
X2684475Y-309981D01*
X2684475Y-332790D01*
X2721508Y-332790D01*
X2721508Y-365810D01*
X2684475Y-365810D01*
X2684475Y-389991D01*
X2689504Y-395020D01*
X2769514Y-395020D01*
X2774492Y-389991D01*
X2774492Y-309981D01*
X2769514Y-305003D01*
G37*
G36*
X2530500Y-305003D02*
G01*
X2525522Y-309981D01*
X2525522Y-389991D01*
X2530500Y-395020D01*
X2609494Y-395020D01*
X2614472Y-389991D01*
X2614472Y-365810D01*
X2576474Y-365810D01*
X2576474Y-332790D01*
X2614472Y-332790D01*
X2614472Y-309981D01*
X2609494Y-305003D01*
G37*
G36*
X6360007Y-2075484D02*
G01*
X6354978Y-2080514D01*
X6354978Y-2160473D01*
X6360007Y-2165502D01*
X6382766Y-2165502D01*
X6382766Y-2128469D01*
X6415786Y-2128469D01*
X6415786Y-2165502D01*
X6439966Y-2165502D01*
X6444996Y-2160473D01*
X6444996Y-2080514D01*
X6439966Y-2075484D01*
G37*
G36*
X6360007Y-2235504D02*
G01*
X6354978Y-2240483D01*
X6354978Y-2319477D01*
X6360007Y-2324506D01*
X6439966Y-2324506D01*
X6444996Y-2319477D01*
X6444996Y-2240483D01*
X6439966Y-2235504D01*
X6415786Y-2235504D01*
X6415786Y-2273503D01*
X6382766Y-2273503D01*
X6382766Y-2235504D01*
G37*
G36*
X4305503Y-1230020D02*
G01*
X4300474Y-1234998D01*
X4300474Y-1315008D01*
X4305503Y-1319987D01*
X4385513Y-1319987D01*
X4390491Y-1315008D01*
X4390491Y-1292199D01*
X4353509Y-1292199D01*
X4353509Y-1259179D01*
X4390491Y-1259179D01*
X4390491Y-1234998D01*
X4385513Y-1230020D01*
G37*
G36*
X4465472Y-1230020D02*
G01*
X4460494Y-1234998D01*
X4460494Y-1259179D01*
X4498492Y-1259179D01*
X4498492Y-1292199D01*
X4460494Y-1292199D01*
X4460494Y-1315008D01*
X4465472Y-1319987D01*
X4544466Y-1319987D01*
X4549495Y-1315008D01*
X4549495Y-1234998D01*
X4544466Y-1230020D01*
G37*
G36*
X5509971Y-1034491D02*
G01*
X5504992Y-1039520D01*
X5504992Y-1119479D01*
X5509971Y-1124508D01*
X5589981Y-1124508D01*
X5595010Y-1119479D01*
X5595010Y-1039520D01*
X5589981Y-1034491D01*
X5567172Y-1034491D01*
X5567172Y-1071473D01*
X5534202Y-1071473D01*
X5534202Y-1034491D01*
G37*
G36*
X5509971Y-875487D02*
G01*
X5504992Y-880516D01*
X5504992Y-959510D01*
X5509971Y-964488D01*
X5534202Y-964488D01*
X5534202Y-926490D01*
X5567172Y-926490D01*
X5567172Y-964488D01*
X5589981Y-964488D01*
X5595010Y-959510D01*
X5595010Y-880516D01*
X5589981Y-875487D01*
G37*
G36*
X4505502Y-4480001D02*
G01*
X4500473Y-4484979D01*
X4500473Y-4564989D01*
X4505502Y-4569968D01*
X4585512Y-4569968D01*
X4590491Y-4564989D01*
X4590491Y-4542180D01*
X4553508Y-4542180D01*
X4553508Y-4509211D01*
X4590491Y-4509211D01*
X4590491Y-4484979D01*
X4585512Y-4480001D01*
G37*
G36*
X4665472Y-4480001D02*
G01*
X4660493Y-4484979D01*
X4660493Y-4509211D01*
X4698492Y-4509211D01*
X4698492Y-4542180D01*
X4660493Y-4542180D01*
X4660493Y-4564989D01*
X4665472Y-4569968D01*
X4744466Y-4569968D01*
X4749495Y-4564989D01*
X4749495Y-4484979D01*
X4744466Y-4480001D01*
G37*
G36*
X5509971Y-734517D02*
G01*
X5504992Y-739495D01*
X5504992Y-819505D01*
X5509971Y-824484D01*
X5589981Y-824484D01*
X5595010Y-819505D01*
X5595010Y-739495D01*
X5589981Y-734517D01*
X5567172Y-734517D01*
X5567172Y-771499D01*
X5534202Y-771499D01*
X5534202Y-734517D01*
G37*
G36*
X5509971Y-575513D02*
G01*
X5504992Y-580491D01*
X5504992Y-659485D01*
X5509971Y-664514D01*
X5534202Y-664514D01*
X5534202Y-626516D01*
X5567172Y-626516D01*
X5567172Y-664514D01*
X5589981Y-664514D01*
X5595010Y-659485D01*
X5595010Y-580491D01*
X5589981Y-575513D01*
G37*
G36*
X5239512Y-729996D02*
G01*
X5234482Y-735025D01*
X5234482Y-757783D01*
X5271465Y-757783D01*
X5271465Y-790803D01*
X5234482Y-790803D01*
X5234482Y-814984D01*
X5239512Y-820013D01*
X5319471Y-820013D01*
X5324500Y-814984D01*
X5324500Y-735025D01*
X5319471Y-729996D01*
G37*
G36*
X5080508Y-729996D02*
G01*
X5075478Y-735025D01*
X5075478Y-814984D01*
X5080508Y-820013D01*
X5159502Y-820013D01*
X5164480Y-814984D01*
X5164480Y-790803D01*
X5126482Y-790803D01*
X5126482Y-757783D01*
X5164480Y-757783D01*
X5164480Y-735025D01*
X5159502Y-729996D01*
G37*
G36*
X4284980Y-4084472D02*
G01*
X4280001Y-4089501D01*
X4280001Y-4169511D01*
X4284980Y-4174490D01*
X4364990Y-4174490D01*
X4369968Y-4169511D01*
X4369968Y-4089501D01*
X4364990Y-4084472D01*
X4342180Y-4084472D01*
X4342180Y-4121505D01*
X4309211Y-4121505D01*
X4309211Y-4084472D01*
G37*
G36*
X4284980Y-3925519D02*
G01*
X4280001Y-3930497D01*
X4280001Y-4009491D01*
X4284980Y-4014470D01*
X4309211Y-4014470D01*
X4309211Y-3976471D01*
X4342180Y-3976471D01*
X4342180Y-4014470D01*
X4364990Y-4014470D01*
X4369968Y-4009491D01*
X4369968Y-3930497D01*
X4364990Y-3925519D01*
G37*
G36*
X4909972Y-275488D02*
G01*
X4904994Y-280517D01*
X4904994Y-360476D01*
X4909972Y-365506D01*
X4932781Y-365506D01*
X4932781Y-328472D01*
X4965801Y-328472D01*
X4965801Y-365506D01*
X4989982Y-365506D01*
X4995011Y-360476D01*
X4995011Y-280517D01*
X4989982Y-275488D01*
G37*
G36*
X4909972Y-435508D02*
G01*
X4904994Y-440486D01*
X4904994Y-519480D01*
X4909972Y-524510D01*
X4989982Y-524510D01*
X4995011Y-519480D01*
X4995011Y-440486D01*
X4989982Y-435508D01*
X4965801Y-435508D01*
X4965801Y-473506D01*
X4932781Y-473506D01*
X4932781Y-435508D01*
G37*
G36*
X5284978Y-1725472D02*
G01*
X5279999Y-1730502D01*
X5279999Y-1810512D01*
X5284978Y-1815490D01*
X5307787Y-1815490D01*
X5307787Y-1778507D01*
X5340807Y-1778507D01*
X5340807Y-1815490D01*
X5364988Y-1815490D01*
X5369966Y-1810512D01*
X5369966Y-1730502D01*
X5364988Y-1725472D01*
G37*
G36*
X5284978Y-1885492D02*
G01*
X5279999Y-1890471D01*
X5279999Y-1969516D01*
X5284978Y-1974494D01*
X5364988Y-1974494D01*
X5369966Y-1969516D01*
X5369966Y-1890471D01*
X5364988Y-1885492D01*
X5340807Y-1885492D01*
X5340807Y-1923491D01*
X5307787Y-1923491D01*
X5307787Y-1885492D01*
G37*
G36*
X5509971Y-434492D02*
G01*
X5504992Y-439521D01*
X5504992Y-519480D01*
X5509971Y-524510D01*
X5589981Y-524510D01*
X5595010Y-519480D01*
X5595010Y-439521D01*
X5589981Y-434492D01*
X5567172Y-434492D01*
X5567172Y-471525D01*
X5534202Y-471525D01*
X5534202Y-434492D01*
G37*
G36*
X5509971Y-275488D02*
G01*
X5504992Y-280517D01*
X5504992Y-359511D01*
X5509971Y-364490D01*
X5534202Y-364490D01*
X5534202Y-326491D01*
X5567172Y-326491D01*
X5567172Y-364490D01*
X5589981Y-364490D01*
X5595010Y-359511D01*
X5595010Y-280517D01*
X5589981Y-275488D01*
G37*
G36*
X5434990Y-1725472D02*
G01*
X5430012Y-1730502D01*
X5430012Y-1810512D01*
X5434990Y-1815490D01*
X5457799Y-1815490D01*
X5457799Y-1778507D01*
X5490768Y-1778507D01*
X5490768Y-1815490D01*
X5515000Y-1815490D01*
X5519978Y-1810512D01*
X5519978Y-1730502D01*
X5515000Y-1725472D01*
G37*
G36*
X5434990Y-1885492D02*
G01*
X5430012Y-1890471D01*
X5430012Y-1969516D01*
X5434990Y-1974494D01*
X5515000Y-1974494D01*
X5519978Y-1969516D01*
X5519978Y-1890471D01*
X5515000Y-1885492D01*
X5490768Y-1885492D01*
X5490768Y-1923491D01*
X5457799Y-1923491D01*
X5457799Y-1885492D01*
G37*
G36*
X1055471Y-354990D02*
G01*
X1050493Y-360019D01*
X1050493Y-439978D01*
X1055471Y-445008D01*
X1135481Y-445008D01*
X1140510Y-439978D01*
X1140510Y-417220D01*
X1103477Y-417220D01*
X1103477Y-384200D01*
X1140510Y-384200D01*
X1140510Y-360019D01*
X1135481Y-354990D01*
G37*
G36*
X1215491Y-354990D02*
G01*
X1210513Y-360019D01*
X1210513Y-384200D01*
X1248511Y-384200D01*
X1248511Y-417220D01*
X1210513Y-417220D01*
X1210513Y-439978D01*
X1215491Y-445008D01*
X1294485Y-445008D01*
X1299514Y-439978D01*
X1299514Y-360019D01*
X1294485Y-354990D01*
G37*
G36*
X4909972Y-575513D02*
G01*
X4904994Y-580491D01*
X4904994Y-660501D01*
X4909972Y-665480D01*
X4932781Y-665480D01*
X4932781Y-628497D01*
X4965801Y-628497D01*
X4965801Y-665480D01*
X4989982Y-665480D01*
X4995011Y-660501D01*
X4995011Y-580491D01*
X4989982Y-575513D01*
G37*
G36*
X4909972Y-735482D02*
G01*
X4904994Y-740511D01*
X4904994Y-819505D01*
X4909972Y-824484D01*
X4989982Y-824484D01*
X4995011Y-819505D01*
X4995011Y-740511D01*
X4989982Y-735482D01*
X4965801Y-735482D01*
X4965801Y-773480D01*
X4932781Y-773480D01*
X4932781Y-735482D01*
G37*
G36*
X5609996Y-1725472D02*
G01*
X5604967Y-1730502D01*
X5604967Y-1810512D01*
X5609996Y-1815490D01*
X5632805Y-1815490D01*
X5632805Y-1778507D01*
X5665774Y-1778507D01*
X5665774Y-1815490D01*
X5690006Y-1815490D01*
X5694984Y-1810512D01*
X5694984Y-1730502D01*
X5690006Y-1725472D01*
G37*
G36*
X5609996Y-1885492D02*
G01*
X5604967Y-1890471D01*
X5604967Y-1969516D01*
X5609996Y-1974494D01*
X5690006Y-1974494D01*
X5694984Y-1969516D01*
X5694984Y-1890471D01*
X5690006Y-1885492D01*
X5665774Y-1885492D01*
X5665774Y-1923491D01*
X5632805Y-1923491D01*
X5632805Y-1885492D01*
G37*
G36*
X2530500Y-630021D02*
G01*
X2525471Y-635000D01*
X2525471Y-715010D01*
X2530500Y-719988D01*
X2610510Y-719988D01*
X2615488Y-715010D01*
X2615488Y-692200D01*
X2578506Y-692200D01*
X2578506Y-659180D01*
X2615488Y-659180D01*
X2615488Y-635000D01*
X2610510Y-630021D01*
G37*
G36*
X2690469Y-630021D02*
G01*
X2685491Y-635000D01*
X2685491Y-659180D01*
X2723489Y-659180D01*
X2723489Y-692200D01*
X2685491Y-692200D01*
X2685491Y-715010D01*
X2690469Y-719988D01*
X2769514Y-719988D01*
X2774492Y-715010D01*
X2774492Y-635000D01*
X2769514Y-630021D01*
G37*
G36*
X5534964Y-4309516D02*
G01*
X5529986Y-4314494D01*
X5529986Y-4394504D01*
X5534964Y-4399483D01*
X5614974Y-4399483D01*
X5620004Y-4394504D01*
X5620004Y-4314494D01*
X5614974Y-4309516D01*
X5592165Y-4309516D01*
X5592165Y-4346498D01*
X5559196Y-4346498D01*
X5559196Y-4309516D01*
G37*
G36*
X5534964Y-4150512D02*
G01*
X5529986Y-4155490D01*
X5529986Y-4234484D01*
X5534964Y-4239514D01*
X5559196Y-4239514D01*
X5559196Y-4201515D01*
X5592165Y-4201515D01*
X5592165Y-4239514D01*
X5614974Y-4239514D01*
X5620004Y-4234484D01*
X5620004Y-4155490D01*
X5614974Y-4150512D01*
G37*
G36*
X3277565Y-3907282D02*
G01*
X3250133Y-3936644D01*
X3250133Y-3964279D01*
X3277565Y-3993642D01*
X3327908Y-3993642D01*
X3334308Y-3987241D01*
X3334308Y-3913682D01*
X3327908Y-3907282D01*
G37*
G36*
X3120847Y-3908399D02*
G01*
X3114446Y-3914800D01*
X3114446Y-3988409D01*
X3120847Y-3994810D01*
X3171190Y-3994810D01*
X3198571Y-3965397D01*
X3198571Y-3937762D01*
X3171190Y-3908399D01*
G37*
G36*
X1235710Y-1250137D02*
G01*
X1206347Y-1277569D01*
X1206347Y-1327912D01*
X1212748Y-1334312D01*
X1286306Y-1334312D01*
X1292707Y-1327912D01*
X1292707Y-1277569D01*
X1263345Y-1250137D01*
G37*
G36*
X1211580Y-1114450D02*
G01*
X1205179Y-1120851D01*
X1205179Y-1171194D01*
X1234592Y-1198575D01*
X1262227Y-1198575D01*
X1291590Y-1171194D01*
X1291590Y-1120851D01*
X1285189Y-1114450D01*
G37*
G36*
X4677562Y-4632248D02*
G01*
X4650130Y-4661662D01*
X4650130Y-4689297D01*
X4677562Y-4718659D01*
X4727905Y-4718659D01*
X4734306Y-4712258D01*
X4734306Y-4638649D01*
X4727905Y-4632248D01*
G37*
G36*
X4520844Y-4633366D02*
G01*
X4514443Y-4639767D01*
X4514443Y-4713376D01*
X4520844Y-4719777D01*
X4571187Y-4719777D01*
X4598568Y-4690414D01*
X4598568Y-4662779D01*
X4571187Y-4633366D01*
G37*
G36*
X5538012Y-3557473D02*
G01*
X5532983Y-3562502D01*
X5532983Y-3677513D01*
X5538012Y-3682492D01*
X5579973Y-3681984D01*
X5579973Y-3637991D01*
X5624982Y-3637991D01*
X5624982Y-3683000D01*
X5665978Y-3682492D01*
X5671007Y-3677513D01*
X5671007Y-3562502D01*
X5665978Y-3557473D01*
G37*
G36*
X5538012Y-3772509D02*
G01*
X5532983Y-3777487D01*
X5532983Y-3892499D01*
X5538012Y-3897477D01*
X5665978Y-3897477D01*
X5671007Y-3892499D01*
X5671007Y-3777487D01*
X5665978Y-3772509D01*
X5624982Y-3773017D01*
X5624982Y-3817010D01*
X5579973Y-3817010D01*
X5579973Y-3772509D01*
G37*
G36*
X5197500Y-4608017D02*
G01*
X5192471Y-4612995D01*
X5192979Y-4655007D01*
X5236972Y-4655007D01*
X5236972Y-4700016D01*
X5191963Y-4700016D01*
X5192471Y-4741011D01*
X5197500Y-4745990D01*
X5312511Y-4745990D01*
X5317490Y-4741011D01*
X5317490Y-4612995D01*
X5312511Y-4608017D01*
G37*
G36*
X4982514Y-4608017D02*
G01*
X4977485Y-4612995D01*
X4977485Y-4741011D01*
X4982514Y-4745990D01*
X5097475Y-4745990D01*
X5102504Y-4741011D01*
X5101996Y-4700016D01*
X5058003Y-4700016D01*
X5058003Y-4655007D01*
X5102504Y-4655007D01*
X5102504Y-4612995D01*
X5097475Y-4608017D01*
G37*
G36*
X4262983Y-4257497D02*
G01*
X4258005Y-4262475D01*
X4258005Y-4377486D01*
X4262983Y-4382516D01*
X4304995Y-4382008D01*
X4304995Y-4338015D01*
X4350004Y-4338015D01*
X4350004Y-4382973D01*
X4390999Y-4382516D01*
X4395978Y-4377486D01*
X4395978Y-4262475D01*
X4390999Y-4257497D01*
G37*
G36*
X4262983Y-4472482D02*
G01*
X4258005Y-4477512D01*
X4258005Y-4592472D01*
X4262983Y-4597501D01*
X4390999Y-4597501D01*
X4395978Y-4592472D01*
X4395978Y-4477512D01*
X4390999Y-4472482D01*
X4350004Y-4472990D01*
X4350004Y-4516983D01*
X4304995Y-4516983D01*
X4304995Y-4472482D01*
G37*
D10*
G01*
X3920058Y-1244879D03*
G01*
X3920058Y-1054887D03*
G01*
X4180077Y-1054887D03*
G01*
X4180077Y-1149883D03*
G01*
X4180077Y-1244879D03*
D11*
G01*
X3299993Y-249986D03*
G01*
X3439972Y-249986D03*
G01*
X5579999Y-4024985D03*
G01*
X5719978Y-4024985D03*
D12*
G01*
X5899988Y-1419987D03*
G01*
X5899988Y-1280007D03*
D11*
G01*
X3745001Y-1275003D03*
G01*
X3604996Y-1275003D03*
D12*
G01*
X1950008Y-770001D03*
G01*
X1950008Y-629996D03*
D11*
G01*
X3604996Y-1024991D03*
G01*
X3745001Y-1024991D03*
D12*
G01*
X6050000Y-1419987D03*
G01*
X6050000Y-1280007D03*
D11*
G01*
X1245006Y-950010D03*
G01*
X1105001Y-950010D03*
G01*
X1245006Y-799998D03*
G01*
X1105001Y-799998D03*
D12*
G01*
X3474999Y-3945001D03*
G01*
X3474999Y-3804996D03*
D11*
G01*
X1105001Y-650011D03*
G01*
X1245006Y-650011D03*
G01*
X3154984Y-3774998D03*
G01*
X3294989Y-3774998D03*
D13*
G01*
X5100980Y-2246121D03*
G01*
X5100980Y-2500121D03*
G01*
X5100980Y-2754121D03*
D14*
G01*
X236981Y-1550136D03*
G01*
X490981Y-1550136D03*
G01*
X744981Y-1550136D03*
G01*
X998981Y-1550136D03*
G01*
X1252981Y-1550136D03*
G01*
X1506981Y-1550136D03*
G01*
X1760981Y-1550136D03*
G01*
X2014981Y-1550136D03*
G01*
X2268981Y-1550136D03*
G01*
X2522981Y-1550136D03*
G01*
X2776981Y-1550136D03*
G01*
X3030981Y-1550136D03*
G01*
X3284981Y-1550136D03*
G01*
X3538981Y-1550136D03*
G01*
X3792981Y-1550136D03*
G01*
X4046981Y-1550136D03*
G01*
X4300981Y-1550136D03*
G01*
X4554981Y-1550136D03*
G01*
X4808981Y-1550136D03*
G01*
X5062981Y-1550136D03*
G01*
X5062981Y-3450132D03*
G01*
X4808981Y-3450132D03*
G01*
X4554981Y-3450132D03*
G01*
X4300981Y-3450132D03*
G01*
X4046981Y-3450132D03*
G01*
X3792981Y-3450132D03*
G01*
X3538981Y-3450132D03*
G01*
X3284981Y-3450132D03*
G01*
X3030981Y-3450132D03*
G01*
X2776981Y-3450132D03*
G01*
X2522981Y-3450132D03*
G01*
X2268981Y-3450132D03*
G01*
X2014981Y-3450132D03*
G01*
X1760981Y-3450132D03*
G01*
X1506981Y-3450132D03*
G01*
X1252981Y-3450132D03*
G01*
X998981Y-3450132D03*
G01*
X744981Y-3450132D03*
G01*
X490981Y-3450132D03*
G01*
X236981Y-3450132D03*
D15*
G01*
X4645025Y-1275232D03*
G01*
X4804918Y-1274546D03*
G01*
X1255013Y-224764D03*
G01*
X1095120Y-225450D03*
D16*
G01*
X2550007Y-4267250D03*
G01*
X2550007Y-4032732D03*
D17*
G01*
X2314981Y-4364989D03*
G01*
X2314981Y-3734993D03*
G01*
X1684985Y-3734993D03*
G01*
X1684985Y-4364989D03*
D18*
G01*
X2534996Y-3894988D03*
G01*
X2764993Y-3799992D03*
G01*
X2534996Y-3704996D03*
D19*
G01*
X5832475Y-850011D03*
G01*
X6067501Y-850011D03*
D20*
G01*
X5950000Y-450011D03*
D21*
G01*
X6050000Y-2175002D03*
G01*
X6050000Y-2824987D03*
G01*
X5750001Y-2175002D03*
G01*
X5750001Y-2824987D03*
D22*
G01*
X3185007Y-454990D03*
G01*
X3185007Y-550011D03*
G01*
X3185007Y-645007D03*
G01*
X2914980Y-645007D03*
G01*
X2914980Y-550011D03*
G01*
X2914980Y-454990D03*
G01*
X2410002Y-680008D03*
G01*
X2410002Y-775004D03*
G01*
X2410002Y-870000D03*
G01*
X2140000Y-870000D03*
G01*
X2140000Y-775004D03*
G01*
X2140000Y-680008D03*
G01*
X5439994Y-1519986D03*
G01*
X5439994Y-1424990D03*
G01*
X5439994Y-1329994D03*
G01*
X5709996Y-1329994D03*
G01*
X5709996Y-1424990D03*
G01*
X5709996Y-1519986D03*
D23*
G01*
X3882745Y-4524984D03*
G01*
X4117238Y-4524984D03*
D24*
G01*
X3574999Y-4424857D03*
G01*
X3574999Y-4125137D03*
D25*
G01*
X4114901Y-4319981D03*
G01*
X4114901Y-4224985D03*
G01*
X4114901Y-4129989D03*
G01*
X3885082Y-4129989D03*
G01*
X3885082Y-4224985D03*
G01*
X3885082Y-4319981D03*
D11*
G01*
X2580004Y-875004D03*
G01*
X2719984Y-875004D03*
D26*
G01*
X3450005Y-450011D03*
D27*
G01*
X6035116Y-1869998D03*
D28*
G01*
X6035116Y-1679994D03*
D29*
G01*
X5814860Y-1775002D03*
D30*
G01*
X5104993Y-623493D03*
G01*
X5294985Y-623493D03*
G01*
X5199989Y-376504D03*
G01*
X1505000Y-1273505D03*
G01*
X1694992Y-1273505D03*
G01*
X1599996Y-1026490D03*
D31*
G01*
X3194989Y-814882D03*
G01*
X3004997Y-814882D03*
G01*
X3099993Y-1035126D03*
D18*
G01*
X2964992Y-1105001D03*
G01*
X2734995Y-1199997D03*
G01*
X2964992Y-1294993D03*
M02*
