G04 Layer: TopPasteMaskLayer*
G04 EasyEDA v6.5.38, 2023-12-09 12:24:54*
G04 bf440a20a08f4097bebf48ea32ac6b6d,9a5be75d700b4a6385dc1106f27949ae,10*
G04 Gerber Generator version 0.2*
G04 Scale: 100 percent, Rotated: No, Reflected: No *
G04 Dimensions in millimeters *
G04 leading zeros omitted , absolute positions ,4 integer and 5 decimal *
%FSLAX45Y45*%
%MOMM*%

%AMMACRO1*21,1,$1,$2,0,0,$3*%
%ADD10R,0.7500X1.0000*%
%ADD11R,1.8000X1.8000*%
%ADD12R,1.0000X0.8000*%
%ADD13R,1.3000X2.0000*%
%ADD14R,2.0000X2.0000*%
%ADD15R,1.1000X1.4000*%
%ADD16R,1.1000X0.6000*%
%ADD17R,0.8000X0.9000*%
%ADD18R,0.9000X0.8000*%
%ADD19R,1.0000X0.7500*%
%ADD20R,3.7000X1.2000*%
%ADD21R,1.0720X0.5320*%
%ADD22R,1.6000X2.8000*%
%ADD23R,2.8000X1.6000*%
%ADD24C,1.0000*%
%ADD25MACRO1,0.5319X1.0376X90.0000*%
%ADD26MACRO1,0.5319X1.0373X90.0000*%
%ADD27R,0.6000X1.0700*%
%ADD28R,0.8000X0.8000*%
%ADD29R,0.5320X1.0375*%
%ADD30R,1.0000X0.6000*%
%ADD31R,0.0144X0.6000*%

%LPD*%
G36*
X5754573Y-3540912D02*
G01*
X5749594Y-3545890D01*
X5749594Y-3660901D01*
X5754573Y-3665880D01*
X5796584Y-3665372D01*
X5796584Y-3621379D01*
X5841593Y-3621379D01*
X5841593Y-3666388D01*
X5882589Y-3665880D01*
X5887567Y-3660901D01*
X5887567Y-3545890D01*
X5882589Y-3540912D01*
G37*
G36*
X5754573Y-3755898D02*
G01*
X5749594Y-3760876D01*
X5749594Y-3875887D01*
X5754573Y-3880916D01*
X5882589Y-3880916D01*
X5887567Y-3875887D01*
X5887567Y-3760876D01*
X5882589Y-3755898D01*
X5841593Y-3756406D01*
X5841593Y-3800398D01*
X5796584Y-3800398D01*
X5796584Y-3755898D01*
G37*
G36*
X2550820Y-993089D02*
G01*
X2545791Y-998118D01*
X2545791Y-1078077D01*
X2550820Y-1083106D01*
X2573578Y-1083106D01*
X2573578Y-1046073D01*
X2606598Y-1046073D01*
X2606598Y-1083106D01*
X2630779Y-1083106D01*
X2635808Y-1078077D01*
X2635808Y-998118D01*
X2630779Y-993089D01*
G37*
G36*
X2550820Y-1153109D02*
G01*
X2545791Y-1158087D01*
X2545791Y-1237081D01*
X2550820Y-1242110D01*
X2630779Y-1242110D01*
X2635808Y-1237081D01*
X2635808Y-1158087D01*
X2630779Y-1153109D01*
X2606598Y-1153109D01*
X2606598Y-1191107D01*
X2573578Y-1191107D01*
X2573578Y-1153109D01*
G37*
G36*
X2681122Y-310591D02*
G01*
X2676093Y-315620D01*
X2676093Y-338378D01*
X2713075Y-338378D01*
X2713075Y-371398D01*
X2676093Y-371398D01*
X2676093Y-395579D01*
X2681122Y-400608D01*
X2761081Y-400608D01*
X2766110Y-395579D01*
X2766110Y-315620D01*
X2761081Y-310591D01*
G37*
G36*
X2522118Y-310591D02*
G01*
X2517089Y-315620D01*
X2517089Y-395579D01*
X2522118Y-400608D01*
X2601112Y-400608D01*
X2606090Y-395579D01*
X2606090Y-371398D01*
X2568092Y-371398D01*
X2568092Y-338378D01*
X2606090Y-338378D01*
X2606090Y-315620D01*
X2601112Y-310591D01*
G37*
G36*
X5798667Y-1783791D02*
G01*
X5793689Y-1788820D01*
X5793689Y-1868779D01*
X5798667Y-1873808D01*
X5878677Y-1873808D01*
X5883706Y-1868779D01*
X5883706Y-1846021D01*
X5846673Y-1846021D01*
X5846673Y-1813001D01*
X5883706Y-1813001D01*
X5883706Y-1788820D01*
X5878677Y-1783791D01*
G37*
G36*
X5958687Y-1783791D02*
G01*
X5953709Y-1788820D01*
X5953709Y-1813001D01*
X5991707Y-1813001D01*
X5991707Y-1846021D01*
X5953709Y-1846021D01*
X5953709Y-1868779D01*
X5958687Y-1873808D01*
X6037681Y-1873808D01*
X6042660Y-1868779D01*
X6042660Y-1788820D01*
X6037681Y-1783791D01*
G37*
G36*
X4122267Y-1250391D02*
G01*
X4117289Y-1255369D01*
X4117289Y-1335379D01*
X4122267Y-1340408D01*
X4202277Y-1340408D01*
X4207306Y-1335379D01*
X4207306Y-1312621D01*
X4170273Y-1312621D01*
X4170273Y-1279601D01*
X4207306Y-1279601D01*
X4207306Y-1255369D01*
X4202277Y-1250391D01*
G37*
G36*
X4282287Y-1250391D02*
G01*
X4277309Y-1255369D01*
X4277309Y-1279601D01*
X4315307Y-1279601D01*
X4315307Y-1312621D01*
X4277309Y-1312621D01*
X4277309Y-1335379D01*
X4282287Y-1340408D01*
X4361281Y-1340408D01*
X4366310Y-1335379D01*
X4366310Y-1255369D01*
X4361281Y-1250391D01*
G37*
G36*
X5649569Y-1101293D02*
G01*
X5644591Y-1106322D01*
X5644591Y-1186281D01*
X5649569Y-1191310D01*
X5729579Y-1191310D01*
X5734608Y-1186281D01*
X5734608Y-1106322D01*
X5729579Y-1101293D01*
X5706770Y-1101293D01*
X5706770Y-1138275D01*
X5673801Y-1138275D01*
X5673801Y-1101293D01*
G37*
G36*
X5649569Y-942289D02*
G01*
X5644591Y-947318D01*
X5644591Y-1026312D01*
X5649569Y-1031290D01*
X5673801Y-1031290D01*
X5673801Y-993292D01*
X5706770Y-993292D01*
X5706770Y-1031290D01*
X5729579Y-1031290D01*
X5734608Y-1026312D01*
X5734608Y-947318D01*
X5729579Y-942289D01*
G37*
G36*
X4503267Y-4526991D02*
G01*
X4498289Y-4531969D01*
X4498289Y-4611979D01*
X4503267Y-4617008D01*
X4583277Y-4617008D01*
X4588306Y-4611979D01*
X4588306Y-4589170D01*
X4551273Y-4589170D01*
X4551273Y-4556201D01*
X4588306Y-4556201D01*
X4588306Y-4531969D01*
X4583277Y-4526991D01*
G37*
G36*
X4663287Y-4526991D02*
G01*
X4658309Y-4531969D01*
X4658309Y-4556201D01*
X4696307Y-4556201D01*
X4696307Y-4589170D01*
X4658309Y-4589170D01*
X4658309Y-4611979D01*
X4663287Y-4617008D01*
X4742281Y-4617008D01*
X4747310Y-4611979D01*
X4747310Y-4531969D01*
X4742281Y-4526991D01*
G37*
G36*
X5649569Y-821893D02*
G01*
X5644591Y-826922D01*
X5644591Y-906881D01*
X5649569Y-911910D01*
X5729579Y-911910D01*
X5734608Y-906881D01*
X5734608Y-826922D01*
X5729579Y-821893D01*
X5706770Y-821893D01*
X5706770Y-858926D01*
X5673801Y-858926D01*
X5673801Y-821893D01*
G37*
G36*
X5649569Y-662889D02*
G01*
X5644591Y-667918D01*
X5644591Y-746912D01*
X5649569Y-751890D01*
X5673801Y-751890D01*
X5673801Y-713892D01*
X5706770Y-713892D01*
X5706770Y-751890D01*
X5729579Y-751890D01*
X5734608Y-746912D01*
X5734608Y-667918D01*
X5729579Y-662889D01*
G37*
G36*
X5348071Y-742391D02*
G01*
X5343093Y-747420D01*
X5343093Y-770178D01*
X5380075Y-770178D01*
X5380075Y-803198D01*
X5343093Y-803198D01*
X5343093Y-827379D01*
X5348071Y-832408D01*
X5428081Y-832408D01*
X5433110Y-827379D01*
X5433110Y-747420D01*
X5428081Y-742391D01*
G37*
G36*
X5189118Y-742391D02*
G01*
X5184089Y-747420D01*
X5184089Y-827379D01*
X5189118Y-832408D01*
X5268112Y-832408D01*
X5273090Y-827379D01*
X5273090Y-803198D01*
X5235092Y-803198D01*
X5235092Y-770178D01*
X5273090Y-770178D01*
X5273090Y-747420D01*
X5268112Y-742391D01*
G37*
G36*
X4277969Y-4073093D02*
G01*
X4272991Y-4078071D01*
X4272991Y-4158081D01*
X4277969Y-4163110D01*
X4357979Y-4163110D01*
X4363008Y-4158081D01*
X4363008Y-4078071D01*
X4357979Y-4073093D01*
X4335170Y-4073093D01*
X4335170Y-4110075D01*
X4302201Y-4110075D01*
X4302201Y-4073093D01*
G37*
G36*
X4277969Y-3914089D02*
G01*
X4272991Y-3919118D01*
X4272991Y-3998112D01*
X4277969Y-4003090D01*
X4302201Y-4003090D01*
X4302201Y-3965092D01*
X4335170Y-3965092D01*
X4335170Y-4003090D01*
X4357979Y-4003090D01*
X4363008Y-3998112D01*
X4363008Y-3919118D01*
X4357979Y-3914089D01*
G37*
G36*
X4887569Y-281889D02*
G01*
X4882591Y-286918D01*
X4882591Y-366877D01*
X4887569Y-371906D01*
X4910378Y-371906D01*
X4910378Y-334873D01*
X4943398Y-334873D01*
X4943398Y-371906D01*
X4967579Y-371906D01*
X4972608Y-366877D01*
X4972608Y-286918D01*
X4967579Y-281889D01*
G37*
G36*
X4887569Y-441909D02*
G01*
X4882591Y-446887D01*
X4882591Y-525881D01*
X4887569Y-530910D01*
X4967579Y-530910D01*
X4972608Y-525881D01*
X4972608Y-446887D01*
X4967579Y-441909D01*
X4943398Y-441909D01*
X4943398Y-479907D01*
X4910378Y-479907D01*
X4910378Y-441909D01*
G37*
G36*
X5316067Y-1529791D02*
G01*
X5311089Y-1534820D01*
X5311089Y-1614779D01*
X5316067Y-1619808D01*
X5396077Y-1619808D01*
X5401106Y-1614779D01*
X5401106Y-1592021D01*
X5364073Y-1592021D01*
X5364073Y-1559001D01*
X5401106Y-1559001D01*
X5401106Y-1534820D01*
X5396077Y-1529791D01*
G37*
G36*
X5476087Y-1529791D02*
G01*
X5471109Y-1534820D01*
X5471109Y-1559001D01*
X5509107Y-1559001D01*
X5509107Y-1592021D01*
X5471109Y-1592021D01*
X5471109Y-1614779D01*
X5476087Y-1619808D01*
X5555081Y-1619808D01*
X5560110Y-1614779D01*
X5560110Y-1534820D01*
X5555081Y-1529791D01*
G37*
G36*
X5649569Y-542493D02*
G01*
X5644591Y-547522D01*
X5644591Y-627481D01*
X5649569Y-632510D01*
X5729579Y-632510D01*
X5734608Y-627481D01*
X5734608Y-547522D01*
X5729579Y-542493D01*
X5706770Y-542493D01*
X5706770Y-579526D01*
X5673801Y-579526D01*
X5673801Y-542493D01*
G37*
G36*
X5649569Y-383489D02*
G01*
X5644591Y-388518D01*
X5644591Y-467512D01*
X5649569Y-472490D01*
X5673801Y-472490D01*
X5673801Y-434492D01*
X5706770Y-434492D01*
X5706770Y-472490D01*
X5729579Y-472490D01*
X5734608Y-467512D01*
X5734608Y-388518D01*
X5729579Y-383489D01*
G37*
G36*
X5316067Y-1682191D02*
G01*
X5311089Y-1687220D01*
X5311089Y-1767179D01*
X5316067Y-1772208D01*
X5396077Y-1772208D01*
X5401106Y-1767179D01*
X5401106Y-1744421D01*
X5364073Y-1744421D01*
X5364073Y-1711401D01*
X5401106Y-1711401D01*
X5401106Y-1687220D01*
X5396077Y-1682191D01*
G37*
G36*
X5476087Y-1682191D02*
G01*
X5471109Y-1687220D01*
X5471109Y-1711401D01*
X5509107Y-1711401D01*
X5509107Y-1744421D01*
X5471109Y-1744421D01*
X5471109Y-1767179D01*
X5476087Y-1772208D01*
X5555081Y-1772208D01*
X5560110Y-1767179D01*
X5560110Y-1687220D01*
X5555081Y-1682191D01*
G37*
G36*
X849020Y-694893D02*
G01*
X843991Y-699922D01*
X843991Y-779881D01*
X849020Y-784910D01*
X928979Y-784910D01*
X934008Y-779881D01*
X934008Y-699922D01*
X928979Y-694893D01*
X906221Y-694893D01*
X906221Y-731875D01*
X873201Y-731875D01*
X873201Y-694893D01*
G37*
G36*
X849020Y-535889D02*
G01*
X843991Y-540918D01*
X843991Y-619912D01*
X849020Y-624890D01*
X873201Y-624890D01*
X873201Y-586892D01*
X906221Y-586892D01*
X906221Y-624890D01*
X928979Y-624890D01*
X934008Y-619912D01*
X934008Y-540918D01*
X928979Y-535889D01*
G37*
G36*
X5039969Y-434289D02*
G01*
X5034991Y-439318D01*
X5034991Y-519277D01*
X5039969Y-524306D01*
X5062778Y-524306D01*
X5062778Y-487273D01*
X5095798Y-487273D01*
X5095798Y-524306D01*
X5119979Y-524306D01*
X5125008Y-519277D01*
X5125008Y-439318D01*
X5119979Y-434289D01*
G37*
G36*
X5039969Y-594309D02*
G01*
X5034991Y-599287D01*
X5034991Y-678281D01*
X5039969Y-683310D01*
X5119979Y-683310D01*
X5125008Y-678281D01*
X5125008Y-599287D01*
X5119979Y-594309D01*
X5095798Y-594309D01*
X5095798Y-632307D01*
X5062778Y-632307D01*
X5062778Y-594309D01*
G37*
G36*
X5649569Y-1526489D02*
G01*
X5644591Y-1531518D01*
X5644591Y-1611477D01*
X5649569Y-1616506D01*
X5672378Y-1616506D01*
X5672378Y-1579473D01*
X5705398Y-1579473D01*
X5705398Y-1616506D01*
X5729579Y-1616506D01*
X5734608Y-1611477D01*
X5734608Y-1531518D01*
X5729579Y-1526489D01*
G37*
G36*
X5649569Y-1686509D02*
G01*
X5644591Y-1691487D01*
X5644591Y-1770481D01*
X5649569Y-1775510D01*
X5729579Y-1775510D01*
X5734608Y-1770481D01*
X5734608Y-1691487D01*
X5729579Y-1686509D01*
X5705398Y-1686509D01*
X5705398Y-1724507D01*
X5672378Y-1724507D01*
X5672378Y-1686509D01*
G37*
G36*
X2531262Y-626110D02*
G01*
X2526284Y-631139D01*
X2526284Y-711149D01*
X2531262Y-716127D01*
X2611272Y-716127D01*
X2616301Y-711149D01*
X2616301Y-688340D01*
X2579268Y-688340D01*
X2579268Y-655320D01*
X2616301Y-655320D01*
X2616301Y-631139D01*
X2611272Y-626110D01*
G37*
G36*
X2691282Y-626110D02*
G01*
X2686304Y-631139D01*
X2686304Y-655320D01*
X2724302Y-655320D01*
X2724302Y-688340D01*
X2686304Y-688340D01*
X2686304Y-711149D01*
X2691282Y-716127D01*
X2770276Y-716127D01*
X2775305Y-711149D01*
X2775305Y-631139D01*
X2770276Y-626110D01*
G37*
G36*
X5547969Y-4301693D02*
G01*
X5542991Y-4306671D01*
X5542991Y-4386681D01*
X5547969Y-4391710D01*
X5627979Y-4391710D01*
X5633008Y-4386681D01*
X5633008Y-4306671D01*
X5627979Y-4301693D01*
X5605170Y-4301693D01*
X5605170Y-4338675D01*
X5572201Y-4338675D01*
X5572201Y-4301693D01*
G37*
G36*
X5547969Y-4142689D02*
G01*
X5542991Y-4147718D01*
X5542991Y-4226712D01*
X5547969Y-4231690D01*
X5572201Y-4231690D01*
X5572201Y-4193692D01*
X5605170Y-4193692D01*
X5605170Y-4231690D01*
X5627979Y-4231690D01*
X5633008Y-4226712D01*
X5633008Y-4147718D01*
X5627979Y-4142689D01*
G37*
G36*
X3278378Y-3894277D02*
G01*
X3250946Y-3923639D01*
X3250946Y-3951274D01*
X3278378Y-3980687D01*
X3328720Y-3980687D01*
X3335121Y-3974287D01*
X3335121Y-3900678D01*
X3328720Y-3894277D01*
G37*
G36*
X3121660Y-3895394D02*
G01*
X3115259Y-3901795D01*
X3115259Y-3975404D01*
X3121660Y-3981805D01*
X3171952Y-3981805D01*
X3199384Y-3952392D01*
X3199384Y-3924757D01*
X3171952Y-3895394D01*
G37*
G36*
X1230274Y-1218946D02*
G01*
X1200912Y-1246378D01*
X1200912Y-1296720D01*
X1207312Y-1303121D01*
X1280922Y-1303121D01*
X1287322Y-1296720D01*
X1287322Y-1246378D01*
X1257960Y-1218946D01*
G37*
G36*
X1206195Y-1083259D02*
G01*
X1199794Y-1089660D01*
X1199794Y-1139952D01*
X1229156Y-1167384D01*
X1256842Y-1167384D01*
X1286205Y-1139952D01*
X1286205Y-1089660D01*
X1279804Y-1083259D01*
G37*
G36*
X4675378Y-4681677D02*
G01*
X4647946Y-4711039D01*
X4647946Y-4738674D01*
X4675378Y-4768088D01*
X4725720Y-4768088D01*
X4732121Y-4761687D01*
X4732121Y-4688078D01*
X4725720Y-4681677D01*
G37*
G36*
X4518660Y-4682794D02*
G01*
X4512259Y-4689195D01*
X4512259Y-4762804D01*
X4518660Y-4769205D01*
X4568952Y-4769205D01*
X4596384Y-4739792D01*
X4596384Y-4712157D01*
X4568952Y-4682794D01*
G37*
G36*
X5551373Y-3540912D02*
G01*
X5546394Y-3545890D01*
X5546394Y-3660901D01*
X5551373Y-3665880D01*
X5593384Y-3665372D01*
X5593384Y-3621379D01*
X5638393Y-3621379D01*
X5638393Y-3666388D01*
X5679389Y-3665880D01*
X5684418Y-3660901D01*
X5684418Y-3545890D01*
X5679389Y-3540912D01*
G37*
G36*
X5551373Y-3755898D02*
G01*
X5546394Y-3760876D01*
X5546394Y-3875887D01*
X5551373Y-3880916D01*
X5679389Y-3880916D01*
X5684418Y-3875887D01*
X5684418Y-3760876D01*
X5679389Y-3755898D01*
X5638393Y-3756406D01*
X5638393Y-3800398D01*
X5593384Y-3800398D01*
X5593384Y-3755898D01*
G37*
G36*
X5229098Y-4657394D02*
G01*
X5224068Y-4662373D01*
X5224576Y-4704384D01*
X5268569Y-4704384D01*
X5268569Y-4749393D01*
X5223611Y-4749393D01*
X5224068Y-4790389D01*
X5229098Y-4795418D01*
X5344109Y-4795418D01*
X5349087Y-4790389D01*
X5349087Y-4662373D01*
X5344109Y-4657394D01*
G37*
G36*
X5014112Y-4657394D02*
G01*
X5009083Y-4662373D01*
X5009083Y-4790389D01*
X5014112Y-4795418D01*
X5129072Y-4795418D01*
X5134102Y-4790389D01*
X5133594Y-4749393D01*
X5089601Y-4749393D01*
X5089601Y-4704384D01*
X5134102Y-4704384D01*
X5134102Y-4662373D01*
X5129072Y-4657394D01*
G37*
G36*
X4255973Y-4252112D02*
G01*
X4250994Y-4257090D01*
X4250994Y-4372102D01*
X4255973Y-4377080D01*
X4297984Y-4376572D01*
X4297984Y-4332579D01*
X4342993Y-4332579D01*
X4342993Y-4377588D01*
X4383989Y-4377080D01*
X4389018Y-4372102D01*
X4389018Y-4257090D01*
X4383989Y-4252112D01*
G37*
G36*
X4255973Y-4467098D02*
G01*
X4250994Y-4472076D01*
X4250994Y-4587087D01*
X4255973Y-4592116D01*
X4383989Y-4592116D01*
X4389018Y-4587087D01*
X4389018Y-4472076D01*
X4383989Y-4467098D01*
X4342993Y-4467606D01*
X4342993Y-4511598D01*
X4297984Y-4511598D01*
X4297984Y-4467098D01*
G37*
D10*
G01*
X2540000Y-4282846D03*
G01*
X2540000Y-4048353D03*
D11*
G01*
X2321585Y-4379010D03*
G01*
X2321585Y-3748989D03*
G01*
X1691589Y-3748989D03*
G01*
X1691589Y-4379010D03*
D12*
G01*
X2526588Y-3904995D03*
G01*
X2756585Y-3810000D03*
G01*
X2526588Y-3715004D03*
D13*
G01*
X5902274Y-733399D03*
G01*
X6137300Y-733399D03*
D14*
G01*
X6019800Y-333400D03*
D15*
G01*
X5687186Y-2189606D03*
G01*
X5687186Y-2839593D03*
G01*
X5387187Y-2189606D03*
G01*
X5387187Y-2839593D03*
D16*
G01*
X3183000Y-438404D03*
G01*
X3183000Y-533400D03*
G01*
X3183000Y-628395D03*
G01*
X2912999Y-628395D03*
G01*
X2912999Y-533400D03*
G01*
X2912999Y-438404D03*
G01*
X2395600Y-692404D03*
G01*
X2395600Y-787400D03*
G01*
X2395600Y-882395D03*
G01*
X2125599Y-882395D03*
G01*
X2125599Y-787400D03*
G01*
X2125599Y-692404D03*
G01*
X5850839Y-1325143D03*
G01*
X5850839Y-1230147D03*
G01*
X5850839Y-1135151D03*
G01*
X6120866Y-1135151D03*
G01*
X6120866Y-1230147D03*
G01*
X6120866Y-1325143D03*
D17*
G01*
X6445377Y-1397000D03*
G01*
X6305397Y-1397000D03*
D18*
G01*
X1955800Y-641197D03*
G01*
X1955800Y-781202D03*
D17*
G01*
X1098397Y-965200D03*
G01*
X1238402Y-965200D03*
G01*
X1098397Y-787400D03*
G01*
X1238402Y-787400D03*
D18*
G01*
X3479800Y-3790797D03*
G01*
X3479800Y-3930802D03*
D17*
G01*
X3295802Y-3759200D03*
G01*
X3155797Y-3759200D03*
D19*
G01*
X3895928Y-4521200D03*
G01*
X4130446Y-4521200D03*
D20*
G01*
X3581400Y-4417060D03*
G01*
X3581400Y-4117339D03*
D21*
G01*
X4128109Y-4311395D03*
G01*
X4128109Y-4216400D03*
G01*
X4128109Y-4121404D03*
G01*
X3898290Y-4121404D03*
G01*
X3898290Y-4216400D03*
G01*
X3898290Y-4311395D03*
D22*
G01*
X228600Y-3464610D03*
G01*
X482600Y-3464610D03*
G01*
X736600Y-3464610D03*
G01*
X990600Y-3464610D03*
G01*
X1244600Y-3464610D03*
G01*
X1498600Y-3464610D03*
G01*
X1752600Y-3464610D03*
G01*
X2006600Y-3464610D03*
G01*
X2260600Y-3464610D03*
G01*
X2514600Y-3464610D03*
G01*
X2768600Y-3464610D03*
G01*
X3022600Y-3464610D03*
G01*
X3276600Y-3464610D03*
G01*
X3530600Y-3464610D03*
G01*
X3784600Y-3464610D03*
G01*
X4038600Y-3464610D03*
G01*
X4292600Y-3464610D03*
G01*
X4546600Y-3464610D03*
G01*
X4800600Y-3464610D03*
G01*
X5054600Y-3464610D03*
G01*
X5054600Y-1564614D03*
G01*
X4800600Y-1564614D03*
G01*
X4546600Y-1564614D03*
G01*
X4292600Y-1564614D03*
G01*
X4038600Y-1564614D03*
G01*
X3784600Y-1564614D03*
G01*
X3530600Y-1564614D03*
G01*
X3276600Y-1564614D03*
G01*
X3022600Y-1564614D03*
G01*
X2768600Y-1564614D03*
G01*
X2514600Y-1564614D03*
G01*
X2260600Y-1564614D03*
G01*
X2006600Y-1564614D03*
G01*
X1752600Y-1564614D03*
G01*
X1498600Y-1564614D03*
G01*
X1244600Y-1564614D03*
G01*
X990600Y-1564614D03*
G01*
X736600Y-1564614D03*
G01*
X482600Y-1564614D03*
G01*
X228600Y-1564614D03*
D23*
G01*
X5091607Y-2768600D03*
G01*
X5091607Y-2514600D03*
G01*
X5091607Y-2260600D03*
D17*
G01*
X5594197Y-4013200D03*
G01*
X5734177Y-4013200D03*
G01*
X6305397Y-1244600D03*
G01*
X6445377Y-1244600D03*
D18*
G01*
X2057400Y-1047597D03*
G01*
X2057400Y-1187602D03*
D17*
G01*
X3612997Y-914400D03*
G01*
X3753002Y-914400D03*
G01*
X3905402Y-1295400D03*
G01*
X3765397Y-1295400D03*
G01*
X1238402Y-609600D03*
G01*
X1098397Y-609600D03*
G01*
X2580792Y-848944D03*
G01*
X2720797Y-848944D03*
D24*
G01*
X3454400Y-431800D03*
D25*
G01*
X6053721Y-1669796D03*
G01*
X6053721Y-1479803D03*
D26*
G01*
X5833465Y-1574800D03*
D27*
G01*
X5239004Y-631494D03*
G01*
X5428995Y-631494D03*
G01*
X5334000Y-384505D03*
G01*
X1505204Y-1266494D03*
G01*
X1695195Y-1266494D03*
G01*
X1600200Y-1019505D03*
D28*
G01*
X1088440Y-228955D03*
G01*
X1248359Y-228244D03*
G01*
X4492040Y-1295755D03*
G01*
X4651959Y-1295044D03*
D29*
G01*
X3193795Y-804265D03*
G01*
X3003804Y-804265D03*
G01*
X3098800Y-1024534D03*
D30*
G01*
X3908577Y-1110995D03*
G01*
X3908577Y-921004D03*
G01*
X4168597Y-921004D03*
G01*
X4168597Y-1016000D03*
G01*
X4168597Y-1110995D03*
D12*
G01*
X2959785Y-1098804D03*
G01*
X2729788Y-1193800D03*
G01*
X2959785Y-1288795D03*
M02*
