G04 Layer: BottomSolderMaskLayer*
G04 EasyEDA v6.5.5, 2022-07-05 02:26:19*
G04 677f26d251d643acb481b5c6e2656a11,9a5be75d700b4a6385dc1106f27949ae,10*
G04 Gerber Generator version 0.2*
G04 Scale: 100 percent, Rotated: No, Reflected: No *
G04 Dimensions in millimeters *
G04 leading zeros omitted , absolute positions ,4 integer and 5 decimal *
%FSLAX45Y45*%
%MOMM*%

%ADD46C,1.5016*%
%ADD60C,1.8016*%
%ADD63C,1.6256*%

%LPD*%
D46*
X4677613Y-338099D02*
G01*
X4677613Y-373100D01*
X4927600Y-338099D02*
G01*
X4927600Y-373100D01*
X5177612Y-338099D02*
G01*
X5177612Y-373100D01*
G36*
X1932686Y-955802D02*
G01*
X1932686Y-832357D01*
X2080513Y-832357D01*
X2080513Y-955802D01*
G37*
G36*
X1932686Y-1148842D02*
G01*
X1932686Y-1025397D01*
X2080513Y-1025397D01*
X2080513Y-1148842D01*
G37*
G36*
X1443481Y-1146047D02*
G01*
X1443481Y-1075944D01*
X1560576Y-1075944D01*
X1560576Y-1146047D01*
G37*
G36*
X1443481Y-956055D02*
G01*
X1443481Y-885952D01*
X1560576Y-885952D01*
X1560576Y-956055D01*
G37*
G36*
X1690623Y-1051052D02*
G01*
X1690623Y-980947D01*
X1807718Y-980947D01*
X1807718Y-1051052D01*
G37*
G36*
X144779Y-1201420D02*
G01*
X144779Y-1033779D01*
X312420Y-1033779D01*
X312420Y-1201420D01*
G37*
G36*
X398779Y-1201420D02*
G01*
X398779Y-1033779D01*
X566420Y-1033779D01*
X566420Y-1201420D01*
G37*
G36*
X1916429Y-4865370D02*
G01*
X1916429Y-4685029D01*
X2096770Y-4685029D01*
X2096770Y-4865370D01*
G37*
D60*
G01*
X1752600Y-4775200D03*
G01*
X1498600Y-4775200D03*
G01*
X1244600Y-4775200D03*
G36*
X6666229Y-3011170D02*
G01*
X6666229Y-2830829D01*
X6846570Y-2830829D01*
X6846570Y-3011170D01*
G37*
G01*
X6756374Y-2667000D03*
G01*
X6756374Y-2413000D03*
G01*
X6756374Y-2159000D03*
D63*
G01*
X5842000Y-2717800D03*
G01*
X5591987Y-2717800D03*
G01*
X6091986Y-2717800D03*
G01*
X4546600Y-4013200D03*
G01*
X4296587Y-4013200D03*
G01*
X4796586Y-4013200D03*
G01*
X5537200Y-4013200D03*
G01*
X5287187Y-4013200D03*
G01*
X5787186Y-4013200D03*
G36*
X652779Y-1201420D02*
G01*
X652779Y-1033779D01*
X820420Y-1033779D01*
X820420Y-1201420D01*
G37*
M02*
