G04 Layer: BottomLayer*
G04 EasyEDA v6.5.51, 2025-11-10 15:39:41*
G04 16ae97f49be74552a1a67efb210d0a0d,9a5be75d700b4a6385dc1106f27949ae,10*
G04 Gerber Generator version 0.2*
G04 Scale: 100 percent, Rotated: No, Reflected: No *
G04 Dimensions in millimeters *
G04 leading zeros omitted , absolute positions ,4 integer and 5 decimal *
%FSLAX45Y45*%
%MOMM*%

%AMMACRO1*4,1,5,-0.4572,0.1588,-0.4572,-0.5779,0.4572,-0.5779,0.4572,0.1588,0,0.5779,-0.4572,0.1588,0*%
%AMMACRO2*4,1,5,0.4572,-0.5524,0.4572,0.5524,-0.4572,0.5524,-0.4572,-0.5524,0,-0.1333,0.4572,-0.5524,0*%
%ADD10C,0.4000*%
%ADD11C,0.2100*%
%ADD12C,0.6000*%
%ADD13MACRO1*%
%ADD14MACRO2*%
%ADD15R,1.5748X1.5748*%
%ADD16R,0.0186X1.5748*%
%ADD17C,1.7000*%
%ADD18R,1.5748X1.7000*%
%ADD19R,1.7000X1.7000*%
%ADD20C,2.2000*%
%ADD21C,2.0000*%
%ADD22C,1.5240*%
%ADD23C,5.5000*%
%ADD24C,0.8200*%
%ADD25C,0.6200*%

%LPD*%
G36*
X41554Y-297383D02*
G01*
X37388Y-296875D01*
X33782Y-294741D01*
X31343Y-291338D01*
X30530Y-287274D01*
X30530Y-200456D01*
X31445Y-182880D01*
X33934Y-166471D01*
X37998Y-150317D01*
X43637Y-134721D01*
X50800Y-119684D01*
X59385Y-105460D01*
X69342Y-92151D01*
X80568Y-79857D01*
X92913Y-68732D01*
X106273Y-58826D01*
X120548Y-50342D01*
X135636Y-43281D01*
X151282Y-37693D01*
X167436Y-33731D01*
X183896Y-31343D01*
X200964Y-30530D01*
X288086Y-30530D01*
X292201Y-31394D01*
X295605Y-33832D01*
X297738Y-37490D01*
X298196Y-41656D01*
X296875Y-45669D01*
X294081Y-48818D01*
X290271Y-50596D01*
X271932Y-54660D01*
X248716Y-61823D01*
X226110Y-70764D01*
X204317Y-81483D01*
X183438Y-93929D01*
X163626Y-107950D01*
X144983Y-123545D01*
X127660Y-140512D01*
X111709Y-158851D01*
X97282Y-178409D01*
X84429Y-199034D01*
X73304Y-220573D01*
X63855Y-242976D01*
X56286Y-266039D01*
X50546Y-289661D01*
X48717Y-293420D01*
X45567Y-296164D01*
G37*

%LPD*%
G36*
X200456Y-4969459D02*
G01*
X182880Y-4968544D01*
X166471Y-4966055D01*
X150317Y-4961991D01*
X134721Y-4956352D01*
X119684Y-4949190D01*
X105460Y-4940604D01*
X92151Y-4930648D01*
X79857Y-4919421D01*
X68732Y-4907076D01*
X58826Y-4893716D01*
X50342Y-4879441D01*
X43281Y-4864354D01*
X37693Y-4848707D01*
X33731Y-4832553D01*
X31343Y-4816094D01*
X30530Y-4799025D01*
X30530Y-4712766D01*
X31343Y-4708652D01*
X33782Y-4705248D01*
X37388Y-4703114D01*
X41554Y-4702606D01*
X45567Y-4703826D01*
X48717Y-4706569D01*
X50546Y-4710328D01*
X56286Y-4733950D01*
X63855Y-4757013D01*
X73304Y-4779416D01*
X84429Y-4801006D01*
X97282Y-4821580D01*
X111709Y-4841138D01*
X127660Y-4859477D01*
X144983Y-4876495D01*
X163626Y-4892040D01*
X183438Y-4906111D01*
X204317Y-4918506D01*
X226110Y-4929225D01*
X248716Y-4938217D01*
X271932Y-4945329D01*
X290220Y-4949393D01*
X294030Y-4951171D01*
X296824Y-4954320D01*
X298094Y-4958334D01*
X297637Y-4962499D01*
X295554Y-4966157D01*
X292150Y-4968595D01*
X287985Y-4969459D01*
G37*

%LPD*%
G36*
X340156Y-4969459D02*
G01*
X336296Y-4968697D01*
X332994Y-4966512D01*
X330758Y-4963210D01*
X329996Y-4959299D01*
X329996Y-4669993D01*
X40690Y-4669993D01*
X36779Y-4669231D01*
X33477Y-4666996D01*
X31292Y-4663744D01*
X30530Y-4659833D01*
X30530Y-4640173D01*
X31292Y-4636262D01*
X33477Y-4632960D01*
X36779Y-4630775D01*
X40690Y-4630013D01*
X329996Y-4630013D01*
X329996Y-4345381D01*
X319684Y-4345990D01*
X295656Y-4349394D01*
X271932Y-4354626D01*
X248716Y-4361789D01*
X226110Y-4370730D01*
X204317Y-4381449D01*
X183438Y-4393895D01*
X163626Y-4407916D01*
X144983Y-4423511D01*
X127660Y-4440529D01*
X111709Y-4458817D01*
X97282Y-4478375D01*
X84429Y-4499000D01*
X73304Y-4520590D01*
X63855Y-4542993D01*
X56286Y-4566056D01*
X50546Y-4589627D01*
X48717Y-4593386D01*
X45567Y-4596130D01*
X41554Y-4597349D01*
X37388Y-4596841D01*
X33782Y-4594707D01*
X31343Y-4591304D01*
X30530Y-4587240D01*
X30530Y-412750D01*
X31343Y-408686D01*
X33782Y-405282D01*
X37388Y-403148D01*
X41554Y-402640D01*
X45567Y-403860D01*
X48717Y-406603D01*
X50546Y-410362D01*
X56286Y-433933D01*
X63855Y-457047D01*
X73304Y-479399D01*
X84429Y-500989D01*
X97282Y-521614D01*
X111709Y-541172D01*
X127660Y-559511D01*
X144983Y-576478D01*
X163626Y-592074D01*
X183438Y-606094D01*
X204317Y-618540D01*
X226110Y-629259D01*
X248716Y-638200D01*
X271932Y-645363D01*
X295656Y-650646D01*
X319684Y-653999D01*
X329996Y-654608D01*
X329996Y-370027D01*
X40690Y-370027D01*
X36779Y-369214D01*
X33477Y-367030D01*
X31292Y-363728D01*
X30530Y-359867D01*
X30530Y-340156D01*
X31292Y-336296D01*
X33477Y-332994D01*
X36779Y-330758D01*
X40690Y-329996D01*
X329996Y-329996D01*
X329996Y-40690D01*
X330758Y-36779D01*
X332994Y-33477D01*
X336296Y-31292D01*
X340156Y-30530D01*
X359867Y-30530D01*
X363728Y-31292D01*
X367030Y-33477D01*
X369265Y-36779D01*
X370027Y-40690D01*
X370027Y-329996D01*
X654710Y-329996D01*
X654558Y-325729D01*
X651662Y-301599D01*
X646836Y-277825D01*
X640181Y-254457D01*
X631647Y-231698D01*
X621385Y-209702D01*
X609396Y-188569D01*
X595731Y-168503D01*
X580542Y-149555D01*
X563880Y-131876D01*
X545846Y-115570D01*
X526592Y-100736D01*
X506272Y-87477D01*
X484885Y-75895D01*
X462686Y-66040D01*
X439775Y-58013D01*
X416306Y-51816D01*
X410057Y-50647D01*
X406095Y-49022D01*
X403199Y-45923D01*
X401777Y-41910D01*
X402183Y-37642D01*
X404266Y-33934D01*
X407720Y-31394D01*
X411886Y-30530D01*
X6638036Y-30530D01*
X6642150Y-31394D01*
X6645554Y-33832D01*
X6647688Y-37490D01*
X6648145Y-41656D01*
X6646875Y-45669D01*
X6644081Y-48818D01*
X6640220Y-50596D01*
X6621881Y-54660D01*
X6598666Y-61823D01*
X6576110Y-70764D01*
X6554317Y-81483D01*
X6533438Y-93929D01*
X6513626Y-107950D01*
X6494983Y-123545D01*
X6477609Y-140512D01*
X6461658Y-158851D01*
X6447231Y-178409D01*
X6434429Y-199034D01*
X6423253Y-220573D01*
X6413855Y-242976D01*
X6406235Y-266039D01*
X6400495Y-289661D01*
X6396685Y-313639D01*
X6395364Y-329996D01*
X6679996Y-329996D01*
X6679996Y-40690D01*
X6680758Y-36779D01*
X6682943Y-33477D01*
X6686245Y-31292D01*
X6690156Y-30530D01*
X6709816Y-30530D01*
X6713728Y-31292D01*
X6717030Y-33477D01*
X6719214Y-36779D01*
X6719976Y-40690D01*
X6719976Y-329996D01*
X7004710Y-329996D01*
X7004507Y-325729D01*
X7001611Y-301599D01*
X6996836Y-277825D01*
X6990130Y-254457D01*
X6981647Y-231698D01*
X6971334Y-209702D01*
X6959346Y-188569D01*
X6945680Y-168503D01*
X6930491Y-149555D01*
X6913829Y-131876D01*
X6895846Y-115570D01*
X6876592Y-100736D01*
X6856222Y-87477D01*
X6834886Y-75895D01*
X6812686Y-66040D01*
X6789775Y-58013D01*
X6766255Y-51816D01*
X6760057Y-50647D01*
X6756095Y-49022D01*
X6753148Y-45923D01*
X6751777Y-41910D01*
X6752132Y-37642D01*
X6754215Y-33934D01*
X6757670Y-31394D01*
X6761835Y-30530D01*
X7051040Y-30530D01*
X7054900Y-31292D01*
X7058202Y-33477D01*
X7060387Y-36779D01*
X7061200Y-40690D01*
X7061200Y-4959299D01*
X7060387Y-4963210D01*
X7058202Y-4966512D01*
X7054900Y-4968697D01*
X7051040Y-4969459D01*
X6761937Y-4969459D01*
X6757720Y-4968595D01*
X6754317Y-4966055D01*
X6752234Y-4962347D01*
X6751828Y-4958080D01*
X6753250Y-4954066D01*
X6756146Y-4950968D01*
X6760108Y-4949342D01*
X6766255Y-4948224D01*
X6789775Y-4941976D01*
X6812686Y-4933950D01*
X6834886Y-4924094D01*
X6856222Y-4912512D01*
X6876592Y-4899253D01*
X6895846Y-4884470D01*
X6913829Y-4868164D01*
X6930491Y-4850485D01*
X6945680Y-4831537D01*
X6959346Y-4811420D01*
X6971334Y-4790287D01*
X6981647Y-4768291D01*
X6990130Y-4745532D01*
X6996836Y-4722215D01*
X7001611Y-4698390D01*
X7004507Y-4674260D01*
X7004710Y-4669993D01*
X6719976Y-4669993D01*
X6719976Y-4959299D01*
X6719214Y-4963210D01*
X6717030Y-4966512D01*
X6713728Y-4968697D01*
X6709816Y-4969459D01*
X6690156Y-4969459D01*
X6686245Y-4968697D01*
X6682943Y-4966512D01*
X6680758Y-4963210D01*
X6679996Y-4959299D01*
X6679996Y-4669993D01*
X6395364Y-4669993D01*
X6396685Y-4686350D01*
X6400495Y-4710328D01*
X6406235Y-4733950D01*
X6413855Y-4757013D01*
X6423253Y-4779416D01*
X6434429Y-4801006D01*
X6447231Y-4821580D01*
X6461658Y-4841138D01*
X6477609Y-4859477D01*
X6494983Y-4876495D01*
X6513626Y-4892040D01*
X6533438Y-4906111D01*
X6554317Y-4918506D01*
X6576110Y-4929225D01*
X6598666Y-4938217D01*
X6621881Y-4945329D01*
X6640169Y-4949393D01*
X6644030Y-4951171D01*
X6646824Y-4954320D01*
X6648094Y-4958334D01*
X6647637Y-4962499D01*
X6645503Y-4966157D01*
X6642100Y-4968595D01*
X6637985Y-4969459D01*
X411937Y-4969459D01*
X407771Y-4968595D01*
X404317Y-4966055D01*
X402234Y-4962347D01*
X401878Y-4958080D01*
X403250Y-4954066D01*
X406196Y-4950968D01*
X410159Y-4949342D01*
X416306Y-4948224D01*
X439775Y-4941976D01*
X462686Y-4933950D01*
X484885Y-4924094D01*
X506272Y-4912512D01*
X526592Y-4899253D01*
X545846Y-4884470D01*
X563880Y-4868164D01*
X580542Y-4850485D01*
X595731Y-4831537D01*
X609396Y-4811420D01*
X621385Y-4790287D01*
X631647Y-4768291D01*
X640181Y-4745532D01*
X646836Y-4722215D01*
X651662Y-4698390D01*
X654558Y-4674260D01*
X654710Y-4669993D01*
X370027Y-4669993D01*
X370027Y-4959299D01*
X369265Y-4963210D01*
X367030Y-4966512D01*
X363728Y-4968697D01*
X359867Y-4969459D01*
G37*

%LPC*%
G36*
X878840Y-4865573D02*
G01*
X1035303Y-4865573D01*
X1041755Y-4864912D01*
X1047445Y-4863185D01*
X1052728Y-4860391D01*
X1057351Y-4856581D01*
X1061110Y-4851958D01*
X1063955Y-4846726D01*
X1065682Y-4840986D01*
X1066342Y-4834534D01*
X1066342Y-4665573D01*
X1065682Y-4659122D01*
X1063955Y-4653381D01*
X1061110Y-4648149D01*
X1057351Y-4643526D01*
X1052728Y-4639716D01*
X1047445Y-4636922D01*
X1041755Y-4635195D01*
X1035303Y-4634534D01*
X878840Y-4634534D01*
X872388Y-4635195D01*
X866698Y-4636922D01*
X861415Y-4639716D01*
X856792Y-4643526D01*
X853033Y-4648149D01*
X850188Y-4653381D01*
X848461Y-4659122D01*
X847852Y-4665573D01*
X847852Y-4834534D01*
X848461Y-4840986D01*
X850188Y-4846726D01*
X853033Y-4851958D01*
X856792Y-4856581D01*
X861415Y-4860391D01*
X866698Y-4863185D01*
X872388Y-4864912D01*
G37*
G36*
X1457807Y-4865319D02*
G01*
X1472336Y-4865319D01*
X1486712Y-4863490D01*
X1500733Y-4859883D01*
X1514246Y-4854549D01*
X1526946Y-4847539D01*
X1538681Y-4839055D01*
X1549247Y-4829098D01*
X1558493Y-4817922D01*
X1566265Y-4805680D01*
X1572463Y-4792573D01*
X1576933Y-4778756D01*
X1579626Y-4764532D01*
X1580540Y-4750054D01*
X1579626Y-4735576D01*
X1576933Y-4721352D01*
X1572463Y-4707534D01*
X1566265Y-4694428D01*
X1558493Y-4682185D01*
X1549247Y-4671009D01*
X1538681Y-4661052D01*
X1526946Y-4652568D01*
X1514246Y-4645558D01*
X1500733Y-4640224D01*
X1486712Y-4636617D01*
X1472336Y-4634788D01*
X1457807Y-4634788D01*
X1443431Y-4636617D01*
X1429410Y-4640224D01*
X1415897Y-4645558D01*
X1403197Y-4652568D01*
X1391462Y-4661052D01*
X1380896Y-4671009D01*
X1371650Y-4682185D01*
X1363878Y-4694428D01*
X1357680Y-4707534D01*
X1353210Y-4721352D01*
X1350518Y-4735576D01*
X1349603Y-4750054D01*
X1350518Y-4764532D01*
X1353210Y-4778756D01*
X1357680Y-4792573D01*
X1363878Y-4805680D01*
X1371650Y-4817922D01*
X1380896Y-4829098D01*
X1391462Y-4839055D01*
X1403197Y-4847539D01*
X1415897Y-4854549D01*
X1429410Y-4859883D01*
X1443431Y-4863490D01*
G37*
G36*
X1203807Y-4865319D02*
G01*
X1218336Y-4865319D01*
X1232712Y-4863490D01*
X1246733Y-4859883D01*
X1260246Y-4854549D01*
X1272946Y-4847539D01*
X1284681Y-4839055D01*
X1295247Y-4829098D01*
X1304493Y-4817922D01*
X1312265Y-4805680D01*
X1318463Y-4792573D01*
X1322933Y-4778756D01*
X1325626Y-4764532D01*
X1326540Y-4750054D01*
X1325626Y-4735576D01*
X1322933Y-4721352D01*
X1318463Y-4707534D01*
X1312265Y-4694428D01*
X1304493Y-4682185D01*
X1295247Y-4671009D01*
X1284681Y-4661052D01*
X1272946Y-4652568D01*
X1260246Y-4645558D01*
X1246733Y-4640224D01*
X1232712Y-4636617D01*
X1218336Y-4634788D01*
X1203807Y-4634788D01*
X1189431Y-4636617D01*
X1175410Y-4640224D01*
X1161897Y-4645558D01*
X1149197Y-4652568D01*
X1137462Y-4661052D01*
X1126896Y-4671009D01*
X1117650Y-4682185D01*
X1109878Y-4694428D01*
X1103680Y-4707534D01*
X1099210Y-4721352D01*
X1096518Y-4735576D01*
X1095603Y-4750054D01*
X1096518Y-4764532D01*
X1099210Y-4778756D01*
X1103680Y-4792573D01*
X1109878Y-4805680D01*
X1117650Y-4817922D01*
X1126896Y-4829098D01*
X1137462Y-4839055D01*
X1149197Y-4847539D01*
X1161897Y-4854549D01*
X1175410Y-4859883D01*
X1189431Y-4863490D01*
G37*
G36*
X2981807Y-4865319D02*
G01*
X2996336Y-4865319D01*
X3010712Y-4863490D01*
X3024733Y-4859883D01*
X3038246Y-4854549D01*
X3050946Y-4847539D01*
X3062681Y-4839055D01*
X3073247Y-4829098D01*
X3082493Y-4817922D01*
X3090265Y-4805680D01*
X3096463Y-4792573D01*
X3100933Y-4778756D01*
X3103626Y-4764532D01*
X3104540Y-4750054D01*
X3103626Y-4735576D01*
X3100933Y-4721352D01*
X3096463Y-4707534D01*
X3090265Y-4694428D01*
X3082493Y-4680661D01*
X3080512Y-4677511D01*
X3069132Y-4661408D01*
X3059328Y-4649470D01*
X3049676Y-4638141D01*
X3042462Y-4628743D01*
X3037382Y-4619955D01*
X3033674Y-4610252D01*
X3031083Y-4597450D01*
X3030016Y-4579416D01*
X3030016Y-3498494D01*
X3029102Y-3489553D01*
X3025190Y-3469690D01*
X3022549Y-3461054D01*
X3014827Y-3442360D01*
X3010560Y-3434384D01*
X2999333Y-3417570D01*
X2993593Y-3410610D01*
X2847492Y-3264509D01*
X2842768Y-3259023D01*
X2840024Y-3253994D01*
X2835859Y-3238550D01*
X2833268Y-3230321D01*
X2829052Y-3220770D01*
X2823514Y-3212236D01*
X2816656Y-3204768D01*
X2808630Y-3198520D01*
X2799689Y-3193694D01*
X2790088Y-3190392D01*
X2780080Y-3188766D01*
X2769920Y-3188766D01*
X2759913Y-3190392D01*
X2750312Y-3193694D01*
X2741371Y-3198520D01*
X2733344Y-3204768D01*
X2726486Y-3212236D01*
X2720949Y-3220770D01*
X2716834Y-3230067D01*
X2714345Y-3239871D01*
X2713532Y-3250031D01*
X2714345Y-3260140D01*
X2716834Y-3269945D01*
X2720949Y-3279241D01*
X2726486Y-3287776D01*
X2733344Y-3295243D01*
X2741371Y-3301492D01*
X2750464Y-3306368D01*
X2755849Y-3308451D01*
X2763570Y-3310839D01*
X2778760Y-3314954D01*
X2781858Y-3316376D01*
X2786176Y-3319475D01*
X2789529Y-3322523D01*
X2932379Y-3465372D01*
X2933649Y-3466896D01*
X2939846Y-3476193D01*
X2940761Y-3477920D01*
X2945028Y-3488232D01*
X2945638Y-3490163D01*
X2947771Y-3501085D01*
X2947974Y-3503066D01*
X2947974Y-4578858D01*
X2946908Y-4597450D01*
X2944317Y-4610303D01*
X2943809Y-4611979D01*
X2939897Y-4621530D01*
X2934817Y-4629810D01*
X2928010Y-4638598D01*
X2919222Y-4648860D01*
X2907284Y-4663643D01*
X2897479Y-4677664D01*
X2895498Y-4680813D01*
X2886049Y-4697933D01*
X2881731Y-4707483D01*
X2877210Y-4721352D01*
X2874518Y-4735576D01*
X2873603Y-4750054D01*
X2874518Y-4764532D01*
X2877210Y-4778756D01*
X2881680Y-4792573D01*
X2887878Y-4805680D01*
X2895650Y-4817922D01*
X2904896Y-4829098D01*
X2915462Y-4839055D01*
X2927197Y-4847539D01*
X2939897Y-4854549D01*
X2953410Y-4859883D01*
X2967431Y-4863490D01*
G37*
G36*
X3235807Y-4865319D02*
G01*
X3250336Y-4865319D01*
X3264712Y-4863490D01*
X3278733Y-4859883D01*
X3292246Y-4854549D01*
X3304946Y-4847539D01*
X3316681Y-4839055D01*
X3327247Y-4829098D01*
X3336493Y-4817922D01*
X3344265Y-4805680D01*
X3350463Y-4792573D01*
X3354933Y-4778756D01*
X3357626Y-4764532D01*
X3358540Y-4750054D01*
X3357626Y-4735576D01*
X3354933Y-4721352D01*
X3350463Y-4707534D01*
X3344265Y-4694428D01*
X3336493Y-4680661D01*
X3334512Y-4677511D01*
X3323132Y-4661408D01*
X3313328Y-4649470D01*
X3303676Y-4638141D01*
X3296462Y-4628743D01*
X3291382Y-4619955D01*
X3287674Y-4610252D01*
X3285083Y-4597450D01*
X3284016Y-4579416D01*
X3284016Y-3502507D01*
X3283102Y-3493515D01*
X3279190Y-3473704D01*
X3276549Y-3465068D01*
X3268827Y-3446373D01*
X3264560Y-3438398D01*
X3253333Y-3421583D01*
X3247593Y-3414623D01*
X3097479Y-3264509D01*
X3092754Y-3259023D01*
X3090011Y-3253943D01*
X3089452Y-3252368D01*
X3085846Y-3238550D01*
X3083255Y-3230321D01*
X3079038Y-3220770D01*
X3073501Y-3212236D01*
X3066643Y-3204768D01*
X3058617Y-3198520D01*
X3049676Y-3193694D01*
X3040075Y-3190392D01*
X3030067Y-3188766D01*
X3019907Y-3188766D01*
X3009900Y-3190392D01*
X3000298Y-3193694D01*
X2991358Y-3198520D01*
X2983331Y-3204768D01*
X2976473Y-3212236D01*
X2970936Y-3220770D01*
X2966872Y-3230067D01*
X2964332Y-3239871D01*
X2963519Y-3250031D01*
X2964332Y-3260140D01*
X2966872Y-3269945D01*
X2970936Y-3279241D01*
X2976473Y-3287776D01*
X2983331Y-3295243D01*
X2991358Y-3301492D01*
X3000451Y-3306368D01*
X3005836Y-3308451D01*
X3013557Y-3310839D01*
X3028746Y-3314954D01*
X3031845Y-3316376D01*
X3036163Y-3319475D01*
X3039516Y-3322523D01*
X3186379Y-3469386D01*
X3187649Y-3470910D01*
X3193846Y-3480206D01*
X3194761Y-3481933D01*
X3199028Y-3492246D01*
X3199638Y-3494125D01*
X3201771Y-3505098D01*
X3201974Y-3507079D01*
X3201974Y-4578858D01*
X3200908Y-4597450D01*
X3198317Y-4610303D01*
X3197809Y-4611979D01*
X3193897Y-4621530D01*
X3188817Y-4629810D01*
X3182010Y-4638598D01*
X3173222Y-4648860D01*
X3161284Y-4663643D01*
X3151479Y-4677664D01*
X3149498Y-4680813D01*
X3140049Y-4697933D01*
X3135731Y-4707483D01*
X3131210Y-4721352D01*
X3128518Y-4735576D01*
X3127603Y-4750054D01*
X3128518Y-4764532D01*
X3131210Y-4778756D01*
X3135680Y-4792573D01*
X3141878Y-4805680D01*
X3149650Y-4817922D01*
X3158896Y-4829098D01*
X3169462Y-4839055D01*
X3181197Y-4847539D01*
X3193897Y-4854549D01*
X3207410Y-4859883D01*
X3221431Y-4863490D01*
G37*
G36*
X1965807Y-4865319D02*
G01*
X1980336Y-4865319D01*
X1994712Y-4863490D01*
X2008733Y-4859883D01*
X2022246Y-4854549D01*
X2034946Y-4847539D01*
X2046681Y-4839055D01*
X2057247Y-4829098D01*
X2066493Y-4817922D01*
X2074265Y-4805680D01*
X2080463Y-4792573D01*
X2084933Y-4778756D01*
X2087625Y-4764532D01*
X2088540Y-4750054D01*
X2087625Y-4735576D01*
X2084933Y-4721352D01*
X2080463Y-4707534D01*
X2074265Y-4694428D01*
X2066493Y-4680661D01*
X2064512Y-4677511D01*
X2053132Y-4661408D01*
X2043328Y-4649470D01*
X2033676Y-4638141D01*
X2026462Y-4628743D01*
X2021382Y-4619955D01*
X2017674Y-4610252D01*
X2015083Y-4597450D01*
X2014016Y-4579416D01*
X2014016Y-4257497D01*
X2013102Y-4248556D01*
X2009190Y-4228693D01*
X2006549Y-4220057D01*
X1998827Y-4201363D01*
X1994560Y-4193387D01*
X1983333Y-4176572D01*
X1977593Y-4169613D01*
X1072489Y-3264509D01*
X1067765Y-3259023D01*
X1065022Y-3253994D01*
X1060856Y-3238550D01*
X1058265Y-3230321D01*
X1054049Y-3220770D01*
X1048512Y-3212236D01*
X1041653Y-3204768D01*
X1033627Y-3198520D01*
X1024686Y-3193694D01*
X1015085Y-3190392D01*
X1005078Y-3188766D01*
X994918Y-3188766D01*
X984910Y-3190392D01*
X975309Y-3193694D01*
X966368Y-3198520D01*
X958342Y-3204768D01*
X951484Y-3212236D01*
X945946Y-3220770D01*
X941882Y-3230067D01*
X939342Y-3239871D01*
X938530Y-3250031D01*
X939342Y-3260140D01*
X941882Y-3269945D01*
X945946Y-3279241D01*
X951484Y-3287776D01*
X958342Y-3295243D01*
X966368Y-3301492D01*
X975461Y-3306368D01*
X980846Y-3308451D01*
X988568Y-3310839D01*
X1003757Y-3314954D01*
X1006856Y-3316376D01*
X1011174Y-3319475D01*
X1014526Y-3322523D01*
X1916379Y-4224375D01*
X1917649Y-4225899D01*
X1923846Y-4235196D01*
X1924761Y-4236923D01*
X1929028Y-4247235D01*
X1929638Y-4249166D01*
X1931771Y-4260088D01*
X1931974Y-4262069D01*
X1931974Y-4578858D01*
X1930907Y-4597450D01*
X1928317Y-4610303D01*
X1927809Y-4611979D01*
X1923897Y-4621530D01*
X1918817Y-4629810D01*
X1912010Y-4638598D01*
X1903222Y-4648860D01*
X1891284Y-4663643D01*
X1881479Y-4677664D01*
X1879498Y-4680813D01*
X1870049Y-4697933D01*
X1865731Y-4707483D01*
X1861210Y-4721352D01*
X1858518Y-4735576D01*
X1857603Y-4750054D01*
X1858518Y-4764532D01*
X1861210Y-4778756D01*
X1865680Y-4792573D01*
X1871878Y-4805680D01*
X1879650Y-4817922D01*
X1888896Y-4829098D01*
X1899462Y-4839055D01*
X1911197Y-4847539D01*
X1923897Y-4854549D01*
X1937410Y-4859883D01*
X1951431Y-4863490D01*
G37*
G36*
X2219807Y-4865319D02*
G01*
X2234336Y-4865319D01*
X2248712Y-4863490D01*
X2262733Y-4859883D01*
X2276246Y-4854549D01*
X2288946Y-4847539D01*
X2300681Y-4839055D01*
X2311247Y-4829098D01*
X2320493Y-4817922D01*
X2328265Y-4805680D01*
X2334463Y-4792573D01*
X2338933Y-4778756D01*
X2341626Y-4764532D01*
X2342540Y-4750054D01*
X2341626Y-4735576D01*
X2338933Y-4721352D01*
X2334463Y-4707534D01*
X2328265Y-4694428D01*
X2320493Y-4680661D01*
X2318512Y-4677511D01*
X2307132Y-4661408D01*
X2297328Y-4649470D01*
X2287676Y-4638141D01*
X2280462Y-4628743D01*
X2275382Y-4619955D01*
X2271674Y-4610252D01*
X2269083Y-4597450D01*
X2268016Y-4579416D01*
X2268016Y-4261510D01*
X2267102Y-4252518D01*
X2263190Y-4232706D01*
X2260549Y-4224020D01*
X2252827Y-4205376D01*
X2248560Y-4197400D01*
X2237333Y-4180586D01*
X2231593Y-4173575D01*
X1322527Y-3264509D01*
X1317752Y-3259023D01*
X1315059Y-3253994D01*
X1310843Y-3238550D01*
X1308252Y-3230321D01*
X1304086Y-3220770D01*
X1298498Y-3212236D01*
X1291640Y-3204768D01*
X1283614Y-3198520D01*
X1274724Y-3193694D01*
X1265123Y-3190392D01*
X1255064Y-3188766D01*
X1244955Y-3188766D01*
X1234897Y-3190392D01*
X1225296Y-3193694D01*
X1216406Y-3198520D01*
X1208379Y-3204768D01*
X1201521Y-3212236D01*
X1195933Y-3220770D01*
X1191869Y-3230067D01*
X1189380Y-3239871D01*
X1188516Y-3250031D01*
X1189380Y-3260140D01*
X1191869Y-3269945D01*
X1195933Y-3279241D01*
X1201521Y-3287776D01*
X1208379Y-3295243D01*
X1216406Y-3301492D01*
X1225448Y-3306368D01*
X1230833Y-3308451D01*
X1238554Y-3310839D01*
X1253744Y-3314954D01*
X1256842Y-3316376D01*
X1261211Y-3319475D01*
X1264513Y-3322523D01*
X2170379Y-4228388D01*
X2171649Y-4229912D01*
X2177846Y-4239158D01*
X2178761Y-4240936D01*
X2183028Y-4251248D01*
X2183638Y-4253128D01*
X2185771Y-4264050D01*
X2185974Y-4266031D01*
X2185974Y-4578858D01*
X2184908Y-4597450D01*
X2182317Y-4610303D01*
X2181809Y-4611979D01*
X2177897Y-4621530D01*
X2172817Y-4629810D01*
X2166010Y-4638598D01*
X2157222Y-4648860D01*
X2145284Y-4663643D01*
X2135479Y-4677664D01*
X2133498Y-4680813D01*
X2124049Y-4697933D01*
X2119731Y-4707483D01*
X2115210Y-4721352D01*
X2112518Y-4735576D01*
X2111603Y-4750054D01*
X2112518Y-4764532D01*
X2115210Y-4778756D01*
X2119680Y-4792573D01*
X2125878Y-4805680D01*
X2133650Y-4817922D01*
X2142896Y-4829098D01*
X2153462Y-4839055D01*
X2165197Y-4847539D01*
X2177897Y-4854549D01*
X2191410Y-4859883D01*
X2205431Y-4863490D01*
G37*
G36*
X2473807Y-4865319D02*
G01*
X2488336Y-4865319D01*
X2502712Y-4863490D01*
X2516733Y-4859883D01*
X2530246Y-4854549D01*
X2542946Y-4847539D01*
X2554681Y-4839055D01*
X2565247Y-4829098D01*
X2574493Y-4817922D01*
X2582265Y-4805680D01*
X2588463Y-4792573D01*
X2592933Y-4778756D01*
X2595626Y-4764532D01*
X2596540Y-4750054D01*
X2595626Y-4735576D01*
X2592933Y-4721352D01*
X2588463Y-4707534D01*
X2582265Y-4694428D01*
X2574493Y-4680661D01*
X2572512Y-4677511D01*
X2561132Y-4661408D01*
X2551328Y-4649470D01*
X2541676Y-4638141D01*
X2534462Y-4628743D01*
X2529382Y-4619955D01*
X2525674Y-4610252D01*
X2523083Y-4597450D01*
X2522016Y-4579416D01*
X2522016Y-4265523D01*
X2521102Y-4256532D01*
X2517190Y-4236720D01*
X2514549Y-4228033D01*
X2506827Y-4209338D01*
X2502560Y-4201414D01*
X2491333Y-4184599D01*
X2485593Y-4177588D01*
X1572514Y-3264509D01*
X1567738Y-3259023D01*
X1565046Y-3253994D01*
X1560830Y-3238550D01*
X1558239Y-3230321D01*
X1554073Y-3220770D01*
X1548485Y-3212236D01*
X1541627Y-3204768D01*
X1533601Y-3198520D01*
X1524711Y-3193694D01*
X1515110Y-3190392D01*
X1505051Y-3188766D01*
X1494942Y-3188766D01*
X1484884Y-3190392D01*
X1475282Y-3193694D01*
X1466392Y-3198520D01*
X1458366Y-3204768D01*
X1451508Y-3212236D01*
X1445920Y-3220770D01*
X1441856Y-3230067D01*
X1439367Y-3239871D01*
X1438503Y-3250031D01*
X1439367Y-3260140D01*
X1441856Y-3269945D01*
X1445920Y-3279241D01*
X1451508Y-3287776D01*
X1458366Y-3295243D01*
X1466392Y-3301492D01*
X1475435Y-3306368D01*
X1480820Y-3308451D01*
X1488541Y-3310839D01*
X1503730Y-3314954D01*
X1506829Y-3316376D01*
X1511198Y-3319475D01*
X1514500Y-3322523D01*
X2424379Y-4232402D01*
X2425649Y-4233926D01*
X2431846Y-4243171D01*
X2432761Y-4244949D01*
X2437028Y-4255262D01*
X2437638Y-4257141D01*
X2439771Y-4268063D01*
X2439974Y-4270044D01*
X2439974Y-4578858D01*
X2438908Y-4597450D01*
X2436317Y-4610303D01*
X2435809Y-4611979D01*
X2431897Y-4621530D01*
X2426817Y-4629810D01*
X2420010Y-4638598D01*
X2411222Y-4648860D01*
X2399284Y-4663643D01*
X2389479Y-4677664D01*
X2387498Y-4680813D01*
X2378049Y-4697933D01*
X2373731Y-4707483D01*
X2369210Y-4721352D01*
X2366518Y-4735576D01*
X2365603Y-4750054D01*
X2366518Y-4764532D01*
X2369210Y-4778756D01*
X2373680Y-4792573D01*
X2379878Y-4805680D01*
X2387650Y-4817922D01*
X2396896Y-4829098D01*
X2407462Y-4839055D01*
X2419197Y-4847539D01*
X2431897Y-4854549D01*
X2445410Y-4859883D01*
X2459431Y-4863490D01*
G37*
G36*
X2727807Y-4865319D02*
G01*
X2742336Y-4865319D01*
X2756712Y-4863490D01*
X2770733Y-4859883D01*
X2784246Y-4854549D01*
X2796946Y-4847539D01*
X2808681Y-4839055D01*
X2819247Y-4829098D01*
X2828493Y-4817922D01*
X2836265Y-4805680D01*
X2842463Y-4792573D01*
X2846933Y-4778756D01*
X2849626Y-4764532D01*
X2850540Y-4750054D01*
X2849626Y-4735576D01*
X2846933Y-4721352D01*
X2842463Y-4707534D01*
X2836265Y-4694428D01*
X2828493Y-4680661D01*
X2826512Y-4677511D01*
X2815132Y-4661408D01*
X2805328Y-4649470D01*
X2795676Y-4638141D01*
X2788462Y-4628743D01*
X2783382Y-4619955D01*
X2779674Y-4610252D01*
X2777083Y-4597450D01*
X2776016Y-4579416D01*
X2776016Y-4269486D01*
X2775102Y-4260545D01*
X2771190Y-4240682D01*
X2768549Y-4232046D01*
X2760827Y-4213352D01*
X2756560Y-4205376D01*
X2745333Y-4188561D01*
X2739593Y-4181601D01*
X1822500Y-3264509D01*
X1817776Y-3259023D01*
X1815033Y-3253994D01*
X1810867Y-3238550D01*
X1808276Y-3230321D01*
X1804060Y-3220770D01*
X1798523Y-3212236D01*
X1791665Y-3204768D01*
X1783638Y-3198520D01*
X1774698Y-3193694D01*
X1765096Y-3190392D01*
X1755089Y-3188766D01*
X1744929Y-3188766D01*
X1734921Y-3190392D01*
X1725320Y-3193694D01*
X1716379Y-3198520D01*
X1708353Y-3204768D01*
X1701495Y-3212236D01*
X1695957Y-3220770D01*
X1691893Y-3230067D01*
X1689354Y-3239871D01*
X1688541Y-3250031D01*
X1689354Y-3260140D01*
X1691893Y-3269945D01*
X1695957Y-3279241D01*
X1701495Y-3287776D01*
X1708353Y-3295243D01*
X1716379Y-3301492D01*
X1725472Y-3306368D01*
X1730857Y-3308451D01*
X1738579Y-3310839D01*
X1753768Y-3314954D01*
X1756867Y-3316376D01*
X1761185Y-3319475D01*
X1764538Y-3322523D01*
X2678379Y-4236364D01*
X2679649Y-4237888D01*
X2685846Y-4247184D01*
X2686761Y-4248912D01*
X2691028Y-4259224D01*
X2691638Y-4261154D01*
X2693771Y-4272076D01*
X2693974Y-4274058D01*
X2693974Y-4578858D01*
X2692908Y-4597450D01*
X2690317Y-4610303D01*
X2689809Y-4611979D01*
X2685897Y-4621530D01*
X2680817Y-4629810D01*
X2674010Y-4638598D01*
X2665222Y-4648860D01*
X2653284Y-4663643D01*
X2643479Y-4677664D01*
X2641498Y-4680813D01*
X2632049Y-4697933D01*
X2627731Y-4707483D01*
X2623210Y-4721352D01*
X2620518Y-4735576D01*
X2619603Y-4750054D01*
X2620518Y-4764532D01*
X2623210Y-4778756D01*
X2627680Y-4792573D01*
X2633878Y-4805680D01*
X2641650Y-4817922D01*
X2650896Y-4829098D01*
X2661462Y-4839055D01*
X2673197Y-4847539D01*
X2685897Y-4854549D01*
X2699410Y-4859883D01*
X2713431Y-4863490D01*
G37*
G36*
X1699056Y-4863693D02*
G01*
X1699056Y-4770069D01*
X1605534Y-4770069D01*
X1607210Y-4778756D01*
X1611680Y-4792573D01*
X1617878Y-4805680D01*
X1625650Y-4817922D01*
X1634896Y-4829098D01*
X1645462Y-4839055D01*
X1657197Y-4847539D01*
X1669897Y-4854549D01*
X1683410Y-4859883D01*
X1697431Y-4863490D01*
G37*
G36*
X1739087Y-4863693D02*
G01*
X1740712Y-4863490D01*
X1754733Y-4859883D01*
X1768246Y-4854549D01*
X1780946Y-4847539D01*
X1792681Y-4839055D01*
X1803247Y-4829098D01*
X1812493Y-4817922D01*
X1820265Y-4805680D01*
X1826463Y-4792573D01*
X1830933Y-4778756D01*
X1832610Y-4770069D01*
X1739087Y-4770069D01*
G37*
G36*
X1739087Y-4730038D02*
G01*
X1832610Y-4730038D01*
X1830933Y-4721352D01*
X1826463Y-4707534D01*
X1820265Y-4694428D01*
X1812493Y-4682185D01*
X1803247Y-4671009D01*
X1792681Y-4661052D01*
X1780946Y-4652568D01*
X1768246Y-4645558D01*
X1754733Y-4640224D01*
X1740712Y-4636617D01*
X1739087Y-4636414D01*
G37*
G36*
X1605534Y-4730038D02*
G01*
X1699056Y-4730038D01*
X1699056Y-4636414D01*
X1697431Y-4636617D01*
X1683410Y-4640224D01*
X1669897Y-4645558D01*
X1657197Y-4652568D01*
X1645462Y-4661052D01*
X1634896Y-4671009D01*
X1625650Y-4682185D01*
X1617878Y-4694428D01*
X1611680Y-4707534D01*
X1607210Y-4721352D01*
G37*
G36*
X6395364Y-4630013D02*
G01*
X6679996Y-4630013D01*
X6679996Y-4345381D01*
X6669684Y-4345990D01*
X6645605Y-4349394D01*
X6621881Y-4354626D01*
X6598666Y-4361789D01*
X6576110Y-4370730D01*
X6554317Y-4381449D01*
X6533438Y-4393895D01*
X6513626Y-4407916D01*
X6494983Y-4423511D01*
X6477609Y-4440529D01*
X6461658Y-4458817D01*
X6447231Y-4478375D01*
X6434429Y-4499000D01*
X6423253Y-4520590D01*
X6413855Y-4542993D01*
X6406235Y-4566056D01*
X6400495Y-4589627D01*
X6396685Y-4613656D01*
G37*
G36*
X370027Y-4630013D02*
G01*
X654710Y-4630013D01*
X654558Y-4625695D01*
X651662Y-4601616D01*
X646836Y-4577791D01*
X640181Y-4554423D01*
X631647Y-4531664D01*
X621385Y-4509668D01*
X609396Y-4488535D01*
X595731Y-4468469D01*
X580542Y-4449521D01*
X563880Y-4431842D01*
X545846Y-4415536D01*
X526592Y-4400702D01*
X506272Y-4387494D01*
X484885Y-4375912D01*
X462686Y-4366056D01*
X439775Y-4357979D01*
X416306Y-4351782D01*
X392379Y-4347464D01*
X370027Y-4345228D01*
G37*
G36*
X6719976Y-4630013D02*
G01*
X7004710Y-4630013D01*
X7004507Y-4625695D01*
X7001611Y-4601616D01*
X6996836Y-4577791D01*
X6990130Y-4554423D01*
X6981647Y-4531664D01*
X6971334Y-4509668D01*
X6959346Y-4488535D01*
X6945680Y-4468469D01*
X6930491Y-4449521D01*
X6913829Y-4431842D01*
X6895846Y-4415536D01*
X6876592Y-4400702D01*
X6856222Y-4387494D01*
X6834886Y-4375912D01*
X6812686Y-4366056D01*
X6789775Y-4357979D01*
X6766255Y-4351782D01*
X6742379Y-4347464D01*
X6719976Y-4345228D01*
G37*
G36*
X6315913Y-4042867D02*
G01*
X6327698Y-4040835D01*
X6343091Y-4036314D01*
X6357874Y-4030065D01*
X6371844Y-4022191D01*
X6384848Y-4012742D01*
X6396634Y-4001871D01*
X6407150Y-3989781D01*
X6416192Y-3976522D01*
X6423710Y-3962349D01*
X6429502Y-3947414D01*
X6433566Y-3931869D01*
X6434734Y-3923995D01*
X6315913Y-3923995D01*
G37*
G36*
X6275882Y-4042867D02*
G01*
X6275882Y-3923995D01*
X6157061Y-3923995D01*
X6158230Y-3931869D01*
X6162294Y-3947414D01*
X6168085Y-3962349D01*
X6175603Y-3976522D01*
X6184646Y-3989781D01*
X6195161Y-4001871D01*
X6206947Y-4012742D01*
X6219952Y-4022191D01*
X6233922Y-4030065D01*
X6248704Y-4036314D01*
X6264097Y-4040835D01*
G37*
G36*
X6783882Y-4042867D02*
G01*
X6783882Y-3923995D01*
X6665061Y-3923995D01*
X6666230Y-3931869D01*
X6670294Y-3947414D01*
X6676085Y-3962349D01*
X6683603Y-3976522D01*
X6692646Y-3989781D01*
X6703161Y-4001871D01*
X6714947Y-4012742D01*
X6727952Y-4022191D01*
X6741922Y-4030065D01*
X6756704Y-4036314D01*
X6772097Y-4040835D01*
G37*
G36*
X6823913Y-4042867D02*
G01*
X6835698Y-4040835D01*
X6851091Y-4036314D01*
X6865874Y-4030065D01*
X6879844Y-4022191D01*
X6892848Y-4012742D01*
X6904634Y-4001871D01*
X6915150Y-3989781D01*
X6924192Y-3976522D01*
X6931710Y-3962349D01*
X6937502Y-3947414D01*
X6941566Y-3931869D01*
X6942734Y-3923995D01*
X6823913Y-3923995D01*
G37*
G36*
X4696002Y-4031691D02*
G01*
X4709922Y-4030776D01*
X4723638Y-4028033D01*
X4736846Y-4023563D01*
X4749342Y-4017365D01*
X4760925Y-4009644D01*
X4771440Y-4000449D01*
X4780635Y-3989933D01*
X4788408Y-3978351D01*
X4794554Y-3965803D01*
X4799076Y-3952595D01*
X4801768Y-3938930D01*
X4802682Y-3925011D01*
X4801768Y-3911092D01*
X4799076Y-3897376D01*
X4794554Y-3884168D01*
X4788408Y-3871671D01*
X4780635Y-3860037D01*
X4771440Y-3849573D01*
X4760925Y-3840378D01*
X4749342Y-3832606D01*
X4736846Y-3826408D01*
X4723638Y-3821937D01*
X4709922Y-3819245D01*
X4696002Y-3818331D01*
X4682083Y-3819245D01*
X4668367Y-3821937D01*
X4655159Y-3826408D01*
X4642662Y-3832606D01*
X4631080Y-3840378D01*
X4620564Y-3849573D01*
X4611370Y-3860037D01*
X4603597Y-3871671D01*
X4597450Y-3884168D01*
X4592929Y-3897376D01*
X4590237Y-3911092D01*
X4589322Y-3925011D01*
X4590237Y-3938930D01*
X4592929Y-3952595D01*
X4597450Y-3965803D01*
X4603597Y-3978351D01*
X4611370Y-3989933D01*
X4620564Y-4000449D01*
X4631080Y-4009644D01*
X4642662Y-4017365D01*
X4655159Y-4023563D01*
X4668367Y-4028033D01*
X4682083Y-4030776D01*
G37*
G36*
X4950002Y-4031691D02*
G01*
X4963922Y-4030776D01*
X4977638Y-4028033D01*
X4990846Y-4023563D01*
X5003342Y-4017365D01*
X5014925Y-4009644D01*
X5025440Y-4000449D01*
X5034635Y-3989933D01*
X5042408Y-3978351D01*
X5048554Y-3965803D01*
X5053076Y-3952595D01*
X5055768Y-3938930D01*
X5056682Y-3925011D01*
X5055768Y-3911092D01*
X5053076Y-3897376D01*
X5048554Y-3884168D01*
X5042408Y-3871671D01*
X5034635Y-3860037D01*
X5025440Y-3849573D01*
X5014925Y-3840378D01*
X5003342Y-3832606D01*
X4990846Y-3826408D01*
X4977638Y-3821937D01*
X4963922Y-3819245D01*
X4950002Y-3818331D01*
X4936083Y-3819245D01*
X4922367Y-3821937D01*
X4909159Y-3826408D01*
X4896662Y-3832606D01*
X4885080Y-3840378D01*
X4874564Y-3849573D01*
X4865370Y-3860037D01*
X4857597Y-3871671D01*
X4851450Y-3884168D01*
X4846929Y-3897376D01*
X4844237Y-3911092D01*
X4843322Y-3925011D01*
X4844237Y-3938930D01*
X4846929Y-3952595D01*
X4851450Y-3965803D01*
X4857597Y-3978351D01*
X4865370Y-3989933D01*
X4874564Y-4000449D01*
X4885080Y-4009644D01*
X4896662Y-4017365D01*
X4909159Y-4023563D01*
X4922367Y-4028033D01*
X4936083Y-4030776D01*
G37*
G36*
X5204002Y-4031691D02*
G01*
X5217922Y-4030776D01*
X5231638Y-4028033D01*
X5244846Y-4023563D01*
X5257342Y-4017365D01*
X5268925Y-4009644D01*
X5279440Y-4000449D01*
X5288635Y-3989933D01*
X5296408Y-3978351D01*
X5302554Y-3965803D01*
X5307076Y-3952595D01*
X5309768Y-3938930D01*
X5310682Y-3925011D01*
X5309768Y-3911092D01*
X5307076Y-3897376D01*
X5302554Y-3884168D01*
X5296408Y-3871671D01*
X5288635Y-3860037D01*
X5279440Y-3849573D01*
X5268925Y-3840378D01*
X5257342Y-3832606D01*
X5244846Y-3826408D01*
X5231638Y-3821937D01*
X5217922Y-3819245D01*
X5204002Y-3818331D01*
X5190083Y-3819245D01*
X5176367Y-3821937D01*
X5163159Y-3826408D01*
X5150662Y-3832606D01*
X5139080Y-3840378D01*
X5128564Y-3849573D01*
X5119370Y-3860037D01*
X5111597Y-3871671D01*
X5105450Y-3884168D01*
X5100929Y-3897376D01*
X5098237Y-3911092D01*
X5097322Y-3925011D01*
X5098237Y-3938930D01*
X5100929Y-3952595D01*
X5105450Y-3965803D01*
X5111597Y-3978351D01*
X5119370Y-3989933D01*
X5128564Y-4000449D01*
X5139080Y-4009644D01*
X5150662Y-4017365D01*
X5163159Y-4023563D01*
X5176367Y-4028033D01*
X5190083Y-4030776D01*
G37*
G36*
X6315913Y-3883964D02*
G01*
X6434937Y-3883964D01*
X6431788Y-3868267D01*
X6426809Y-3853027D01*
X6420154Y-3838397D01*
X6411874Y-3824681D01*
X6402070Y-3811981D01*
X6390894Y-3800500D01*
X6378498Y-3790340D01*
X6364986Y-3781653D01*
X6350609Y-3774592D01*
X6335471Y-3769207D01*
X6319875Y-3765550D01*
X6315913Y-3765092D01*
G37*
G36*
X6823913Y-3883964D02*
G01*
X6942937Y-3883964D01*
X6939788Y-3868267D01*
X6934809Y-3853027D01*
X6928154Y-3838397D01*
X6919874Y-3824681D01*
X6910070Y-3811981D01*
X6898894Y-3800500D01*
X6886498Y-3790340D01*
X6872986Y-3781653D01*
X6858609Y-3774592D01*
X6843471Y-3769207D01*
X6827875Y-3765550D01*
X6823913Y-3765092D01*
G37*
G36*
X6664858Y-3883964D02*
G01*
X6783882Y-3883964D01*
X6783882Y-3765092D01*
X6779920Y-3765550D01*
X6764324Y-3769207D01*
X6749186Y-3774592D01*
X6734809Y-3781653D01*
X6721297Y-3790340D01*
X6708902Y-3800500D01*
X6697725Y-3811981D01*
X6687921Y-3824681D01*
X6679641Y-3838397D01*
X6672986Y-3853027D01*
X6668008Y-3868267D01*
G37*
G36*
X6156858Y-3883964D02*
G01*
X6275882Y-3883964D01*
X6275882Y-3765092D01*
X6271920Y-3765550D01*
X6256324Y-3769207D01*
X6241186Y-3774592D01*
X6226810Y-3781653D01*
X6213297Y-3790340D01*
X6200902Y-3800500D01*
X6189726Y-3811981D01*
X6179921Y-3824681D01*
X6171641Y-3838397D01*
X6164986Y-3853027D01*
X6160008Y-3868267D01*
G37*
G36*
X6549898Y-3800449D02*
G01*
X6566763Y-3799535D01*
X6583375Y-3796690D01*
X6599580Y-3792016D01*
X6615175Y-3785565D01*
X6629958Y-3777386D01*
X6643725Y-3767632D01*
X6656324Y-3756406D01*
X6667550Y-3743807D01*
X6677304Y-3730040D01*
X6685483Y-3715258D01*
X6691934Y-3699662D01*
X6696608Y-3683457D01*
X6699453Y-3666845D01*
X6700367Y-3649979D01*
X6699453Y-3633114D01*
X6696608Y-3616502D01*
X6691934Y-3600297D01*
X6685483Y-3584701D01*
X6677304Y-3569919D01*
X6667550Y-3556152D01*
X6656324Y-3543554D01*
X6643725Y-3532327D01*
X6629958Y-3522573D01*
X6615175Y-3514394D01*
X6599580Y-3507943D01*
X6583375Y-3503269D01*
X6566763Y-3500424D01*
X6549898Y-3499510D01*
X6533032Y-3500424D01*
X6516420Y-3503269D01*
X6500215Y-3507943D01*
X6484620Y-3514394D01*
X6469837Y-3522573D01*
X6456070Y-3532327D01*
X6443472Y-3543554D01*
X6432245Y-3556152D01*
X6422491Y-3569919D01*
X6414312Y-3584701D01*
X6407861Y-3600297D01*
X6403187Y-3616502D01*
X6400342Y-3633114D01*
X6399428Y-3649979D01*
X6400342Y-3666845D01*
X6403187Y-3683457D01*
X6407861Y-3699662D01*
X6414312Y-3715258D01*
X6422491Y-3730040D01*
X6432245Y-3743807D01*
X6443472Y-3756406D01*
X6456070Y-3767632D01*
X6469837Y-3777386D01*
X6484620Y-3785565D01*
X6500215Y-3792016D01*
X6516420Y-3796690D01*
X6533032Y-3799535D01*
G37*
G36*
X2750007Y-3746449D02*
G01*
X2761183Y-3745585D01*
X2772105Y-3742994D01*
X2782468Y-3738676D01*
X2792018Y-3732834D01*
X2800553Y-3725519D01*
X2807817Y-3717036D01*
X2813710Y-3707434D01*
X2817977Y-3697071D01*
X2820619Y-3686200D01*
X2821482Y-3675024D01*
X2820619Y-3663797D01*
X2817977Y-3652926D01*
X2813710Y-3642563D01*
X2807817Y-3632962D01*
X2800553Y-3624478D01*
X2792018Y-3617163D01*
X2782417Y-3611270D01*
X2772968Y-3607257D01*
X2753461Y-3600399D01*
X2745994Y-3596690D01*
X2738932Y-3591610D01*
X2733903Y-3587191D01*
X2727452Y-3580993D01*
X1664716Y-2518257D01*
X1660652Y-2514600D01*
X1649526Y-2505456D01*
X1645107Y-2502204D01*
X1633118Y-2494178D01*
X1628444Y-2491384D01*
X1615744Y-2484577D01*
X1610817Y-2482240D01*
X1597507Y-2476754D01*
X1592326Y-2474874D01*
X1578559Y-2470708D01*
X1573225Y-2469388D01*
X1559102Y-2466594D01*
X1553718Y-2465781D01*
X1539341Y-2464358D01*
X1533906Y-2464104D01*
X1226820Y-2464104D01*
X1215948Y-2463038D01*
X1206144Y-2461006D01*
X1196644Y-2458110D01*
X1187500Y-2454249D01*
X1178712Y-2449474D01*
X1170482Y-2443937D01*
X1162812Y-2437587D01*
X559104Y-1833880D01*
X556971Y-1830984D01*
X555498Y-1827530D01*
X555345Y-1823821D01*
X556615Y-1820265D01*
X560070Y-1814271D01*
X563676Y-1807464D01*
X567994Y-1797100D01*
X570585Y-1786178D01*
X571449Y-1775002D01*
X570585Y-1763826D01*
X567994Y-1752904D01*
X563676Y-1742541D01*
X557834Y-1732991D01*
X550519Y-1724456D01*
X542036Y-1717192D01*
X532434Y-1711299D01*
X522071Y-1707032D01*
X511200Y-1704390D01*
X500024Y-1703527D01*
X488797Y-1704390D01*
X477926Y-1707032D01*
X467563Y-1711299D01*
X457962Y-1717192D01*
X449478Y-1724456D01*
X442163Y-1732991D01*
X436321Y-1742541D01*
X432003Y-1752904D01*
X429412Y-1763826D01*
X428548Y-1775002D01*
X429412Y-1786178D01*
X432054Y-1797151D01*
X435406Y-1805635D01*
X439115Y-1813915D01*
X441706Y-1820621D01*
X448513Y-1840890D01*
X452780Y-1851710D01*
X457403Y-1861464D01*
X463296Y-1872081D01*
X467156Y-1878431D01*
X476910Y-1893011D01*
X483819Y-1901443D01*
X1093317Y-2510942D01*
X1097330Y-2514600D01*
X1108506Y-2523744D01*
X1112875Y-2526995D01*
X1124864Y-2535021D01*
X1129538Y-2537815D01*
X1142288Y-2544622D01*
X1147216Y-2546908D01*
X1160526Y-2552446D01*
X1165656Y-2554274D01*
X1179474Y-2558491D01*
X1184757Y-2559812D01*
X1198880Y-2562606D01*
X1204315Y-2563418D01*
X1218641Y-2564841D01*
X1224076Y-2565095D01*
X1531162Y-2565095D01*
X1542084Y-2566162D01*
X1551838Y-2568143D01*
X1561338Y-2571089D01*
X1570532Y-2574950D01*
X1579270Y-2579674D01*
X1587550Y-2585262D01*
X1595221Y-2591612D01*
X2656027Y-3652418D01*
X2662580Y-3659276D01*
X2667050Y-3664458D01*
X2670403Y-3668979D01*
X2674213Y-3675735D01*
X2677566Y-3684219D01*
X2682290Y-3697986D01*
X2686304Y-3707384D01*
X2692196Y-3717036D01*
X2699461Y-3725519D01*
X2707995Y-3732834D01*
X2717546Y-3738676D01*
X2727909Y-3742994D01*
X2738831Y-3745585D01*
G37*
G36*
X6783882Y-3535019D02*
G01*
X6783882Y-3415995D01*
X6665010Y-3415995D01*
X6665468Y-3419957D01*
X6669125Y-3435553D01*
X6674510Y-3450691D01*
X6681571Y-3465068D01*
X6690258Y-3478580D01*
X6700418Y-3490976D01*
X6711899Y-3502151D01*
X6724599Y-3511956D01*
X6738315Y-3520236D01*
X6752945Y-3526891D01*
X6768185Y-3531870D01*
G37*
G36*
X6275882Y-3535019D02*
G01*
X6275882Y-3415995D01*
X6157010Y-3415995D01*
X6157468Y-3419957D01*
X6161125Y-3435553D01*
X6166510Y-3450691D01*
X6173571Y-3465068D01*
X6182258Y-3478580D01*
X6192418Y-3490976D01*
X6203899Y-3502151D01*
X6216599Y-3511956D01*
X6230315Y-3520236D01*
X6244945Y-3526891D01*
X6260185Y-3531870D01*
G37*
G36*
X6823913Y-3534816D02*
G01*
X6831787Y-3533648D01*
X6847331Y-3529584D01*
X6862267Y-3523792D01*
X6876440Y-3516274D01*
X6889699Y-3507232D01*
X6901789Y-3496716D01*
X6912660Y-3484930D01*
X6922109Y-3471926D01*
X6929983Y-3457956D01*
X6936231Y-3443173D01*
X6940753Y-3427780D01*
X6942785Y-3415995D01*
X6823913Y-3415995D01*
G37*
G36*
X6315913Y-3534816D02*
G01*
X6323787Y-3533648D01*
X6339332Y-3529584D01*
X6354267Y-3523792D01*
X6368440Y-3516274D01*
X6381699Y-3507232D01*
X6393789Y-3496716D01*
X6404660Y-3484930D01*
X6414109Y-3471926D01*
X6421983Y-3457956D01*
X6428232Y-3443173D01*
X6432753Y-3427780D01*
X6434785Y-3415995D01*
X6315913Y-3415995D01*
G37*
G36*
X6315913Y-3375964D02*
G01*
X6434785Y-3375964D01*
X6432753Y-3364179D01*
X6428232Y-3348786D01*
X6421983Y-3334004D01*
X6414109Y-3320034D01*
X6404660Y-3307029D01*
X6393789Y-3295243D01*
X6381699Y-3284728D01*
X6368440Y-3275685D01*
X6354267Y-3268167D01*
X6339332Y-3262376D01*
X6323787Y-3258312D01*
X6315913Y-3257143D01*
G37*
G36*
X6823913Y-3375964D02*
G01*
X6942785Y-3375964D01*
X6940753Y-3364179D01*
X6936231Y-3348786D01*
X6929983Y-3334004D01*
X6922109Y-3320034D01*
X6912660Y-3307029D01*
X6901789Y-3295243D01*
X6889699Y-3284728D01*
X6876440Y-3275685D01*
X6862267Y-3268167D01*
X6847331Y-3262376D01*
X6831787Y-3258312D01*
X6823913Y-3257143D01*
G37*
G36*
X6665010Y-3375964D02*
G01*
X6783882Y-3375964D01*
X6783882Y-3256940D01*
X6768185Y-3260090D01*
X6752945Y-3265068D01*
X6738315Y-3271723D01*
X6724599Y-3280003D01*
X6711899Y-3289808D01*
X6700418Y-3300984D01*
X6690258Y-3313379D01*
X6681571Y-3326892D01*
X6674510Y-3341268D01*
X6669125Y-3356406D01*
X6665468Y-3372002D01*
G37*
G36*
X6157010Y-3375964D02*
G01*
X6275882Y-3375964D01*
X6275882Y-3256940D01*
X6260185Y-3260090D01*
X6244945Y-3265068D01*
X6230315Y-3271723D01*
X6216599Y-3280003D01*
X6203899Y-3289808D01*
X6192418Y-3300984D01*
X6182258Y-3313379D01*
X6173571Y-3326892D01*
X6166510Y-3341268D01*
X6161125Y-3356406D01*
X6157468Y-3372002D01*
G37*
G36*
X6590334Y-3016605D02*
G01*
X6759397Y-3016605D01*
X6768642Y-3015843D01*
X6777126Y-3013557D01*
X6785102Y-3009849D01*
X6792315Y-3004769D01*
X6798513Y-2998571D01*
X6803593Y-2991358D01*
X6807301Y-2983382D01*
X6809587Y-2974898D01*
X6810349Y-2965653D01*
X6810349Y-2796590D01*
X6809587Y-2787345D01*
X6807301Y-2778861D01*
X6803593Y-2770886D01*
X6798513Y-2763672D01*
X6792315Y-2757474D01*
X6785102Y-2752394D01*
X6777126Y-2748686D01*
X6768642Y-2746400D01*
X6759397Y-2745638D01*
X6738213Y-2745638D01*
X6733997Y-2744673D01*
X6730542Y-2742082D01*
X6728459Y-2738272D01*
X6728155Y-2733954D01*
X6729679Y-2729941D01*
X6732778Y-2726893D01*
X6742734Y-2720543D01*
X6753910Y-2711297D01*
X6763867Y-2700731D01*
X6772351Y-2688996D01*
X6779361Y-2676296D01*
X6784695Y-2662783D01*
X6788302Y-2648762D01*
X6788505Y-2647137D01*
X6694881Y-2647137D01*
X6694881Y-2735478D01*
X6694119Y-2739339D01*
X6691884Y-2742641D01*
X6688581Y-2744825D01*
X6684721Y-2745638D01*
X6665010Y-2745638D01*
X6661150Y-2744825D01*
X6657848Y-2742641D01*
X6655612Y-2739339D01*
X6654850Y-2735478D01*
X6654850Y-2647137D01*
X6561226Y-2647137D01*
X6561429Y-2648762D01*
X6565036Y-2662783D01*
X6570370Y-2676296D01*
X6577380Y-2688996D01*
X6585864Y-2700731D01*
X6595821Y-2711297D01*
X6606997Y-2720543D01*
X6616953Y-2726893D01*
X6620052Y-2729941D01*
X6621576Y-2733954D01*
X6621272Y-2738272D01*
X6619189Y-2742082D01*
X6615734Y-2744673D01*
X6611518Y-2745638D01*
X6590334Y-2745638D01*
X6581089Y-2746400D01*
X6572605Y-2748686D01*
X6564630Y-2752394D01*
X6557416Y-2757474D01*
X6551218Y-2763672D01*
X6546138Y-2770886D01*
X6542430Y-2778861D01*
X6540144Y-2787345D01*
X6539382Y-2796590D01*
X6539382Y-2965653D01*
X6540144Y-2974898D01*
X6542430Y-2983382D01*
X6546138Y-2991358D01*
X6551218Y-2998571D01*
X6557416Y-3004769D01*
X6564630Y-3009849D01*
X6572605Y-3013557D01*
X6581089Y-3015843D01*
G37*
G36*
X6561226Y-2607106D02*
G01*
X6654850Y-2607106D01*
X6654850Y-2513584D01*
X6646164Y-2515260D01*
X6632346Y-2519730D01*
X6619240Y-2525928D01*
X6606997Y-2533700D01*
X6595821Y-2542946D01*
X6585864Y-2553512D01*
X6577380Y-2565247D01*
X6570370Y-2577947D01*
X6565036Y-2591460D01*
X6561429Y-2605481D01*
G37*
G36*
X6694881Y-2607106D02*
G01*
X6788505Y-2607106D01*
X6788302Y-2605481D01*
X6784695Y-2591460D01*
X6779361Y-2577947D01*
X6772351Y-2565247D01*
X6763867Y-2553512D01*
X6753910Y-2542946D01*
X6742734Y-2533700D01*
X6730492Y-2525928D01*
X6717385Y-2519730D01*
X6703568Y-2515260D01*
X6694881Y-2513584D01*
G37*
G36*
X6654850Y-2486660D02*
G01*
X6654850Y-2393137D01*
X6561226Y-2393137D01*
X6561429Y-2394762D01*
X6565036Y-2408783D01*
X6570370Y-2422296D01*
X6577380Y-2434996D01*
X6585864Y-2446731D01*
X6595821Y-2457297D01*
X6606997Y-2466543D01*
X6619240Y-2474315D01*
X6632346Y-2480513D01*
X6646164Y-2484983D01*
G37*
G36*
X6694881Y-2486660D02*
G01*
X6703568Y-2484983D01*
X6717385Y-2480513D01*
X6730492Y-2474315D01*
X6742734Y-2466543D01*
X6753910Y-2457297D01*
X6763867Y-2446731D01*
X6772351Y-2434996D01*
X6779361Y-2422296D01*
X6784695Y-2408783D01*
X6788302Y-2394762D01*
X6788505Y-2393137D01*
X6694881Y-2393137D01*
G37*
G36*
X6694881Y-2353106D02*
G01*
X6788505Y-2353106D01*
X6788302Y-2351481D01*
X6784695Y-2337460D01*
X6779361Y-2323947D01*
X6772351Y-2311247D01*
X6763867Y-2299512D01*
X6753910Y-2288946D01*
X6742734Y-2279700D01*
X6730492Y-2271928D01*
X6717385Y-2265730D01*
X6703568Y-2261260D01*
X6694881Y-2259584D01*
G37*
G36*
X6561226Y-2353106D02*
G01*
X6654850Y-2353106D01*
X6654850Y-2259584D01*
X6646164Y-2261260D01*
X6632346Y-2265730D01*
X6619240Y-2271928D01*
X6606997Y-2279700D01*
X6595821Y-2288946D01*
X6585864Y-2299512D01*
X6577380Y-2311247D01*
X6570370Y-2323947D01*
X6565036Y-2337460D01*
X6561429Y-2351481D01*
G37*
G36*
X6674866Y-2234590D02*
G01*
X6689344Y-2233676D01*
X6703568Y-2230983D01*
X6717385Y-2226513D01*
X6730492Y-2220315D01*
X6742734Y-2212543D01*
X6753910Y-2203297D01*
X6763867Y-2192731D01*
X6772351Y-2180996D01*
X6779361Y-2168296D01*
X6784695Y-2154783D01*
X6788302Y-2140762D01*
X6790131Y-2126386D01*
X6790131Y-2111857D01*
X6788302Y-2097481D01*
X6784695Y-2083460D01*
X6779361Y-2069947D01*
X6772351Y-2057247D01*
X6763867Y-2045512D01*
X6753910Y-2034946D01*
X6742734Y-2025700D01*
X6730492Y-2017928D01*
X6717385Y-2011730D01*
X6703568Y-2007260D01*
X6689344Y-2004568D01*
X6674866Y-2003653D01*
X6660388Y-2004568D01*
X6646164Y-2007260D01*
X6632346Y-2011730D01*
X6619240Y-2017928D01*
X6606997Y-2025700D01*
X6595821Y-2034946D01*
X6585864Y-2045512D01*
X6577380Y-2057247D01*
X6570370Y-2069947D01*
X6565036Y-2083460D01*
X6561429Y-2097481D01*
X6559600Y-2111857D01*
X6559600Y-2126386D01*
X6561429Y-2140762D01*
X6565036Y-2154783D01*
X6570370Y-2168296D01*
X6577380Y-2180996D01*
X6585864Y-2192731D01*
X6595821Y-2203297D01*
X6606997Y-2212543D01*
X6619240Y-2220315D01*
X6632346Y-2226513D01*
X6646164Y-2230983D01*
X6660388Y-2233676D01*
G37*
G36*
X1994916Y-1836267D02*
G01*
X2005075Y-1836267D01*
X2015083Y-1834591D01*
X2024684Y-1831289D01*
X2033625Y-1826463D01*
X2041652Y-1820214D01*
X2048510Y-1812747D01*
X2054047Y-1804263D01*
X2058162Y-1794967D01*
X2060651Y-1785112D01*
X2061464Y-1775002D01*
X2060651Y-1764893D01*
X2058111Y-1754987D01*
X2054809Y-1747113D01*
X2051100Y-1740103D01*
X2043277Y-1726438D01*
X2042058Y-1723237D01*
X2041194Y-1718005D01*
X2040991Y-1713484D01*
X2040991Y-1699361D01*
X2041702Y-1695704D01*
X2043633Y-1692503D01*
X2046579Y-1690268D01*
X2051659Y-1689100D01*
X2057349Y-1687372D01*
X2062632Y-1684528D01*
X2067255Y-1680768D01*
X2071014Y-1676146D01*
X2073859Y-1670862D01*
X2075586Y-1665173D01*
X2076246Y-1658721D01*
X2076246Y-1586077D01*
X2075535Y-1579270D01*
X2074672Y-1576578D01*
X2074164Y-1573479D01*
X2074672Y-1570329D01*
X2075484Y-1567789D01*
X2076246Y-1560880D01*
X2076246Y-1483664D01*
X2020011Y-1483664D01*
X2020011Y-1504391D01*
X2018995Y-1508760D01*
X2016201Y-1512316D01*
X2012188Y-1514297D01*
X2007717Y-1514348D01*
X2003196Y-1513382D01*
X1996795Y-1513382D01*
X1992274Y-1514348D01*
X1987804Y-1514297D01*
X1983790Y-1512316D01*
X1980996Y-1508760D01*
X1979980Y-1504391D01*
X1979980Y-1483664D01*
X1923796Y-1483664D01*
X1923796Y-1560880D01*
X1924507Y-1567789D01*
X1925320Y-1570329D01*
X1925828Y-1573479D01*
X1925320Y-1576578D01*
X1924456Y-1579270D01*
X1923796Y-1586077D01*
X1923796Y-1658721D01*
X1924405Y-1665173D01*
X1926132Y-1670862D01*
X1928977Y-1676146D01*
X1932736Y-1680768D01*
X1937359Y-1684528D01*
X1942642Y-1687372D01*
X1948332Y-1689100D01*
X1953412Y-1690268D01*
X1956358Y-1692503D01*
X1958289Y-1695704D01*
X1959000Y-1699361D01*
X1958949Y-1714246D01*
X1958441Y-1720697D01*
X1956816Y-1726234D01*
X1948840Y-1740103D01*
X1945182Y-1747113D01*
X1941880Y-1754987D01*
X1939340Y-1764893D01*
X1938528Y-1775002D01*
X1939340Y-1785112D01*
X1941880Y-1794967D01*
X1945944Y-1804263D01*
X1951482Y-1812747D01*
X1958339Y-1820214D01*
X1966366Y-1826463D01*
X1975307Y-1831289D01*
X1984908Y-1834591D01*
G37*
G36*
X5119928Y-1836267D02*
G01*
X5130038Y-1836267D01*
X5140096Y-1834591D01*
X5149697Y-1831289D01*
X5158587Y-1826463D01*
X5166614Y-1820214D01*
X5173472Y-1812747D01*
X5179060Y-1804263D01*
X5183124Y-1794967D01*
X5185613Y-1785112D01*
X5186476Y-1775002D01*
X5185613Y-1764893D01*
X5183124Y-1755038D01*
X5179060Y-1745742D01*
X5173472Y-1737258D01*
X5166614Y-1729790D01*
X5158587Y-1723542D01*
X5149545Y-1718614D01*
X5143855Y-1716481D01*
X5134508Y-1713992D01*
X5126939Y-1712620D01*
X5123789Y-1711502D01*
X5121148Y-1709369D01*
X5119319Y-1706524D01*
X5117490Y-1701596D01*
X5116169Y-1694992D01*
X5116017Y-1693011D01*
X5116017Y-961542D01*
X5116525Y-954278D01*
X5118150Y-948791D01*
X5126126Y-934923D01*
X5129784Y-927912D01*
X5133136Y-920038D01*
X5135626Y-910132D01*
X5136489Y-900023D01*
X5135626Y-889863D01*
X5133136Y-880059D01*
X5129072Y-870762D01*
X5123484Y-862228D01*
X5116626Y-854760D01*
X5108600Y-848512D01*
X5099710Y-843686D01*
X5090109Y-840384D01*
X5080050Y-838758D01*
X5069941Y-838758D01*
X5059883Y-840384D01*
X5050282Y-843686D01*
X5041392Y-848512D01*
X5033365Y-854760D01*
X5026507Y-862228D01*
X5020919Y-870762D01*
X5016855Y-880059D01*
X5014366Y-889863D01*
X5013502Y-900023D01*
X5014366Y-910132D01*
X5016855Y-920038D01*
X5020157Y-927862D01*
X5023866Y-934923D01*
X5031740Y-948588D01*
X5032908Y-951788D01*
X5033772Y-957021D01*
X5033975Y-961542D01*
X5033975Y-1697532D01*
X5034889Y-1706524D01*
X5037937Y-1722069D01*
X5040579Y-1730705D01*
X5057190Y-1770075D01*
X5062626Y-1783435D01*
X5066792Y-1794967D01*
X5070906Y-1804263D01*
X5076494Y-1812747D01*
X5083352Y-1820214D01*
X5091379Y-1826463D01*
X5100269Y-1831289D01*
X5109870Y-1834591D01*
G37*
G36*
X6315913Y-1742897D02*
G01*
X6327698Y-1740865D01*
X6343091Y-1736343D01*
X6357874Y-1730095D01*
X6371844Y-1722221D01*
X6384848Y-1712772D01*
X6396634Y-1701901D01*
X6407150Y-1689811D01*
X6416192Y-1676552D01*
X6423710Y-1662379D01*
X6429502Y-1647443D01*
X6433566Y-1631899D01*
X6434734Y-1624025D01*
X6315913Y-1624025D01*
G37*
G36*
X6823913Y-1742897D02*
G01*
X6835698Y-1740865D01*
X6851091Y-1736343D01*
X6865874Y-1730095D01*
X6879844Y-1722221D01*
X6892848Y-1712772D01*
X6904634Y-1701901D01*
X6915150Y-1689811D01*
X6924192Y-1676552D01*
X6931710Y-1662379D01*
X6937502Y-1647443D01*
X6941566Y-1631899D01*
X6942734Y-1624025D01*
X6823913Y-1624025D01*
G37*
G36*
X6275882Y-1742897D02*
G01*
X6275882Y-1624025D01*
X6157061Y-1624025D01*
X6158230Y-1631899D01*
X6162294Y-1647443D01*
X6168085Y-1662379D01*
X6175603Y-1676552D01*
X6184646Y-1689811D01*
X6195161Y-1701901D01*
X6206947Y-1712772D01*
X6219952Y-1722221D01*
X6233922Y-1730095D01*
X6248704Y-1736343D01*
X6264097Y-1740865D01*
G37*
G36*
X6783882Y-1742897D02*
G01*
X6783882Y-1624025D01*
X6665061Y-1624025D01*
X6666230Y-1631899D01*
X6670294Y-1647443D01*
X6676085Y-1662379D01*
X6683603Y-1676552D01*
X6692646Y-1689811D01*
X6703161Y-1701901D01*
X6714947Y-1712772D01*
X6727952Y-1722221D01*
X6741922Y-1730095D01*
X6756704Y-1736343D01*
X6772097Y-1740865D01*
G37*
G36*
X5669940Y-1686255D02*
G01*
X5680049Y-1686255D01*
X5690108Y-1684578D01*
X5699709Y-1681276D01*
X5708599Y-1676450D01*
X5716625Y-1670202D01*
X5723483Y-1662734D01*
X5729020Y-1654251D01*
X5733491Y-1643938D01*
X5735828Y-1636420D01*
X5739942Y-1621231D01*
X5741365Y-1618132D01*
X5744464Y-1613814D01*
X5747512Y-1610461D01*
X5919368Y-1438605D01*
X5924753Y-1432052D01*
X5928766Y-1424482D01*
X5937605Y-1403197D01*
X5940094Y-1395069D01*
X5940907Y-1386586D01*
X5940907Y-1109472D01*
X5940044Y-1100480D01*
X5936081Y-1080617D01*
X5933490Y-1071981D01*
X5925718Y-1053287D01*
X5921451Y-1045311D01*
X5910224Y-1028496D01*
X5904484Y-1021537D01*
X5896965Y-1013968D01*
X5892749Y-1009040D01*
X5890006Y-1003960D01*
X5889447Y-1002385D01*
X5885840Y-988517D01*
X5883249Y-980287D01*
X5879033Y-970737D01*
X5873496Y-962253D01*
X5866638Y-954786D01*
X5858611Y-948537D01*
X5849670Y-943711D01*
X5840069Y-940409D01*
X5830062Y-938733D01*
X5819902Y-938733D01*
X5809894Y-940409D01*
X5800293Y-943711D01*
X5791352Y-948537D01*
X5783326Y-954786D01*
X5776468Y-962253D01*
X5770930Y-970737D01*
X5766866Y-980033D01*
X5764326Y-989888D01*
X5763514Y-999998D01*
X5764326Y-1010107D01*
X5766866Y-1019962D01*
X5770930Y-1029258D01*
X5776468Y-1037742D01*
X5783326Y-1045210D01*
X5791352Y-1051458D01*
X5800445Y-1056386D01*
X5805830Y-1058418D01*
X5813552Y-1060856D01*
X5828741Y-1064920D01*
X5831840Y-1066393D01*
X5836361Y-1069644D01*
X5843168Y-1076147D01*
X5844540Y-1077823D01*
X5850737Y-1087120D01*
X5851702Y-1088847D01*
X5855970Y-1099159D01*
X5856528Y-1101090D01*
X5858713Y-1112012D01*
X5858916Y-1113993D01*
X5858916Y-1376883D01*
X5858154Y-1380794D01*
X5856732Y-1384198D01*
X5854496Y-1387500D01*
X5689498Y-1552498D01*
X5684012Y-1557223D01*
X5678982Y-1559966D01*
X5663539Y-1564182D01*
X5655868Y-1566570D01*
X5650433Y-1568602D01*
X5641390Y-1573530D01*
X5633364Y-1579778D01*
X5626506Y-1587246D01*
X5620918Y-1595729D01*
X5616854Y-1605026D01*
X5614365Y-1614881D01*
X5613501Y-1624990D01*
X5614365Y-1635099D01*
X5616854Y-1644954D01*
X5620918Y-1654251D01*
X5626506Y-1662734D01*
X5633364Y-1670202D01*
X5641390Y-1676450D01*
X5650280Y-1681276D01*
X5659882Y-1684578D01*
G37*
G36*
X6315913Y-1583994D02*
G01*
X6434937Y-1583994D01*
X6431788Y-1568297D01*
X6426809Y-1553057D01*
X6420154Y-1538427D01*
X6411874Y-1524711D01*
X6402070Y-1512011D01*
X6390894Y-1500530D01*
X6378498Y-1490370D01*
X6364986Y-1481683D01*
X6350609Y-1474622D01*
X6335471Y-1469237D01*
X6319875Y-1465580D01*
X6315913Y-1465122D01*
G37*
G36*
X6823913Y-1583994D02*
G01*
X6942937Y-1583994D01*
X6939788Y-1568297D01*
X6934809Y-1553057D01*
X6928154Y-1538427D01*
X6919874Y-1524711D01*
X6910070Y-1512011D01*
X6898894Y-1500530D01*
X6886498Y-1490370D01*
X6872986Y-1481683D01*
X6858609Y-1474622D01*
X6843471Y-1469237D01*
X6827875Y-1465580D01*
X6823913Y-1465122D01*
G37*
G36*
X6664858Y-1583994D02*
G01*
X6783882Y-1583994D01*
X6783882Y-1465122D01*
X6779920Y-1465580D01*
X6764324Y-1469237D01*
X6749186Y-1474622D01*
X6734809Y-1481683D01*
X6721297Y-1490370D01*
X6708902Y-1500530D01*
X6697725Y-1512011D01*
X6687921Y-1524711D01*
X6679641Y-1538427D01*
X6672986Y-1553057D01*
X6668008Y-1568297D01*
G37*
G36*
X6156858Y-1583994D02*
G01*
X6275882Y-1583994D01*
X6275882Y-1465122D01*
X6271920Y-1465580D01*
X6256324Y-1469237D01*
X6241186Y-1474622D01*
X6226810Y-1481683D01*
X6213297Y-1490370D01*
X6200902Y-1500530D01*
X6189726Y-1512011D01*
X6179921Y-1524711D01*
X6171641Y-1538427D01*
X6164986Y-1553057D01*
X6160008Y-1568297D01*
G37*
G36*
X6553758Y-1480464D02*
G01*
X6569151Y-1479042D01*
X6584289Y-1475892D01*
X6598920Y-1470914D01*
X6612890Y-1464259D01*
X6625945Y-1456029D01*
X6637985Y-1446276D01*
X6648754Y-1435201D01*
X6658102Y-1422908D01*
X6665975Y-1409598D01*
X6672224Y-1395425D01*
X6676745Y-1380642D01*
X6679488Y-1365453D01*
X6680403Y-1350010D01*
X6679488Y-1334566D01*
X6676745Y-1319377D01*
X6672224Y-1304594D01*
X6665975Y-1290421D01*
X6658102Y-1277112D01*
X6648754Y-1264818D01*
X6637985Y-1253744D01*
X6625945Y-1243990D01*
X6612890Y-1235760D01*
X6598920Y-1229106D01*
X6584289Y-1224127D01*
X6569151Y-1220978D01*
X6553758Y-1219555D01*
X6538315Y-1220063D01*
X6523024Y-1222298D01*
X6508089Y-1226413D01*
X6493764Y-1232204D01*
X6480251Y-1239672D01*
X6467703Y-1248664D01*
X6456273Y-1259128D01*
X6446164Y-1270812D01*
X6437528Y-1283665D01*
X6430467Y-1297432D01*
X6425082Y-1311910D01*
X6421475Y-1326946D01*
X6419646Y-1342288D01*
X6419646Y-1357731D01*
X6421475Y-1373073D01*
X6425082Y-1388110D01*
X6430467Y-1402588D01*
X6437528Y-1416354D01*
X6446164Y-1429207D01*
X6456273Y-1440891D01*
X6467703Y-1451356D01*
X6480251Y-1460347D01*
X6493764Y-1467815D01*
X6508089Y-1473606D01*
X6523024Y-1477721D01*
X6538315Y-1480007D01*
G37*
G36*
X2020011Y-1443634D02*
G01*
X2075180Y-1443634D01*
X2073859Y-1439265D01*
X2071014Y-1434033D01*
X2067255Y-1429410D01*
X2062632Y-1425600D01*
X2057349Y-1422806D01*
X2051659Y-1421079D01*
X2045207Y-1420418D01*
X2020011Y-1420418D01*
G37*
G36*
X1924812Y-1443634D02*
G01*
X1979980Y-1443634D01*
X1979980Y-1420418D01*
X1954784Y-1420418D01*
X1948332Y-1421079D01*
X1942642Y-1422806D01*
X1937359Y-1425600D01*
X1932736Y-1429410D01*
X1928977Y-1434033D01*
X1926132Y-1439265D01*
G37*
G36*
X2519934Y-1411274D02*
G01*
X2530043Y-1411274D01*
X2540101Y-1409598D01*
X2549702Y-1406296D01*
X2558592Y-1401470D01*
X2566619Y-1395222D01*
X2573477Y-1387754D01*
X2579014Y-1379270D01*
X2583484Y-1368958D01*
X2585821Y-1361440D01*
X2589936Y-1346250D01*
X2591358Y-1343152D01*
X2594457Y-1338834D01*
X2597505Y-1335481D01*
X3304590Y-628396D01*
X3310331Y-621436D01*
X3321558Y-604621D01*
X3325825Y-596646D01*
X3333546Y-577951D01*
X3336188Y-569315D01*
X3340100Y-549452D01*
X3341014Y-540512D01*
X3341014Y-510743D01*
X3341522Y-504291D01*
X3343148Y-498805D01*
X3351123Y-484885D01*
X3354781Y-477875D01*
X3358134Y-470052D01*
X3360623Y-460146D01*
X3361486Y-450037D01*
X3360623Y-439877D01*
X3358134Y-430072D01*
X3354070Y-420776D01*
X3348482Y-412242D01*
X3341624Y-404774D01*
X3333597Y-398526D01*
X3324707Y-393700D01*
X3315106Y-390398D01*
X3305048Y-388772D01*
X3294938Y-388772D01*
X3284880Y-390398D01*
X3275279Y-393700D01*
X3266389Y-398526D01*
X3258362Y-404774D01*
X3251504Y-412242D01*
X3245916Y-420776D01*
X3241852Y-430072D01*
X3239363Y-439877D01*
X3238500Y-450037D01*
X3239363Y-460146D01*
X3241852Y-470052D01*
X3245205Y-477875D01*
X3248863Y-484936D01*
X3256737Y-498601D01*
X3257905Y-501802D01*
X3258769Y-507034D01*
X3258972Y-511556D01*
X3258972Y-535940D01*
X3258769Y-537921D01*
X3256635Y-548843D01*
X3256026Y-550773D01*
X3251758Y-561086D01*
X3250844Y-562813D01*
X3244646Y-572109D01*
X3243376Y-573633D01*
X2539492Y-1277518D01*
X2534005Y-1282242D01*
X2528976Y-1284986D01*
X2513533Y-1289202D01*
X2505862Y-1291590D01*
X2500426Y-1293622D01*
X2491384Y-1298549D01*
X2483358Y-1304798D01*
X2476500Y-1312265D01*
X2470912Y-1320749D01*
X2466848Y-1330045D01*
X2464358Y-1339900D01*
X2463495Y-1350010D01*
X2464358Y-1360119D01*
X2466848Y-1369974D01*
X2470912Y-1379270D01*
X2476500Y-1387754D01*
X2483358Y-1395222D01*
X2491384Y-1401470D01*
X2500274Y-1406296D01*
X2509875Y-1409598D01*
G37*
G36*
X3905707Y-1300480D02*
G01*
X4294276Y-1300480D01*
X4299762Y-1300226D01*
X4314088Y-1298803D01*
X4319473Y-1298041D01*
X4333646Y-1295196D01*
X4338929Y-1293876D01*
X4352747Y-1289710D01*
X4357878Y-1287881D01*
X4371187Y-1282344D01*
X4376115Y-1280007D01*
X4388866Y-1273200D01*
X4393539Y-1270406D01*
X4405528Y-1262380D01*
X4409897Y-1259128D01*
X4421073Y-1249984D01*
X4425086Y-1246327D01*
X4604512Y-1066901D01*
X4606086Y-1065631D01*
X4615891Y-1059027D01*
X4617669Y-1058113D01*
X4628591Y-1053592D01*
X4630470Y-1052982D01*
X4642104Y-1050696D01*
X4644085Y-1050493D01*
X4661357Y-1050493D01*
X4672228Y-1049426D01*
X4694580Y-1045006D01*
X4704994Y-1041806D01*
X4726025Y-1033119D01*
X4735626Y-1027988D01*
X4754575Y-1015339D01*
X4763008Y-1008430D01*
X4994402Y-777036D01*
X5002834Y-770077D01*
X5011166Y-764590D01*
X5019954Y-759917D01*
X5029200Y-756158D01*
X5038699Y-753313D01*
X5048504Y-751433D01*
X5058410Y-750519D01*
X5091582Y-750519D01*
X5102453Y-751586D01*
X5112207Y-753567D01*
X5121757Y-756513D01*
X5130901Y-760374D01*
X5139690Y-765098D01*
X5147919Y-770686D01*
X5155590Y-777036D01*
X5256174Y-877620D01*
X5262575Y-884275D01*
X5267045Y-889457D01*
X5270398Y-893978D01*
X5274208Y-900734D01*
X5277561Y-909218D01*
X5282285Y-922985D01*
X5286298Y-932383D01*
X5292191Y-942035D01*
X5299456Y-950518D01*
X5307990Y-957834D01*
X5317591Y-963726D01*
X5327040Y-967740D01*
X5346547Y-974598D01*
X5354015Y-978357D01*
X5361076Y-983386D01*
X5366105Y-987806D01*
X5372506Y-993952D01*
X5446522Y-1067917D01*
X5448706Y-1071219D01*
X5449468Y-1075080D01*
X5449519Y-1088948D01*
X5450738Y-1097940D01*
X5453481Y-1106728D01*
X5463286Y-1130249D01*
X5467858Y-1138123D01*
X5473801Y-1145235D01*
X5561990Y-1233424D01*
X5570372Y-1240332D01*
X5589320Y-1252982D01*
X5598922Y-1258112D01*
X5620004Y-1266850D01*
X5630418Y-1270000D01*
X5644083Y-1272743D01*
X5659780Y-1276197D01*
X5670550Y-1279296D01*
X5680456Y-1283157D01*
X5693714Y-1289304D01*
X5702858Y-1292961D01*
X5713780Y-1295603D01*
X5725007Y-1296466D01*
X5736183Y-1295603D01*
X5747054Y-1292961D01*
X5757418Y-1288694D01*
X5767019Y-1282801D01*
X5775502Y-1275537D01*
X5782818Y-1267002D01*
X5788660Y-1257452D01*
X5792978Y-1247089D01*
X5795568Y-1236167D01*
X5796432Y-1224991D01*
X5795568Y-1213815D01*
X5792978Y-1202893D01*
X5788660Y-1192530D01*
X5782818Y-1182979D01*
X5775502Y-1174445D01*
X5767019Y-1167180D01*
X5757418Y-1161288D01*
X5747054Y-1157020D01*
X5736183Y-1154379D01*
X5725007Y-1153515D01*
X5713780Y-1154379D01*
X5702909Y-1157020D01*
X5692038Y-1161542D01*
X5674868Y-1170279D01*
X5670956Y-1171854D01*
X5667248Y-1172565D01*
X5659374Y-1172514D01*
X5653125Y-1171194D01*
X5642660Y-1166876D01*
X5640882Y-1165961D01*
X5631078Y-1159357D01*
X5629503Y-1158087D01*
X5553456Y-1082040D01*
X5551271Y-1078788D01*
X5550509Y-1074928D01*
X5550458Y-1061008D01*
X5549239Y-1052068D01*
X5546496Y-1043228D01*
X5536692Y-1019759D01*
X5532120Y-1011885D01*
X5526176Y-1004773D01*
X5443778Y-922375D01*
X5437428Y-915771D01*
X5432958Y-910539D01*
X5429605Y-906018D01*
X5425795Y-899312D01*
X5422442Y-890828D01*
X5417718Y-877011D01*
X5413705Y-867562D01*
X5407812Y-857961D01*
X5400548Y-849477D01*
X5392013Y-842162D01*
X5382412Y-836269D01*
X5372912Y-832256D01*
X5353456Y-825398D01*
X5345988Y-821690D01*
X5338927Y-816610D01*
X5333898Y-812241D01*
X5327497Y-806043D01*
X5225084Y-703681D01*
X5221071Y-700024D01*
X5209895Y-690880D01*
X5205526Y-687628D01*
X5193538Y-679602D01*
X5188864Y-676808D01*
X5176113Y-670001D01*
X5171186Y-667664D01*
X5157876Y-662127D01*
X5152745Y-660298D01*
X5138928Y-656132D01*
X5133644Y-654812D01*
X5119471Y-651967D01*
X5114086Y-651154D01*
X5099761Y-649782D01*
X5094274Y-649478D01*
X5055666Y-649478D01*
X5050231Y-649782D01*
X5035905Y-651154D01*
X5030470Y-651967D01*
X5016347Y-654812D01*
X5011064Y-656132D01*
X4997246Y-660298D01*
X4992116Y-662127D01*
X4978806Y-667664D01*
X4973878Y-670001D01*
X4961128Y-676808D01*
X4956454Y-679602D01*
X4944465Y-687628D01*
X4940096Y-690880D01*
X4928920Y-700024D01*
X4924907Y-703681D01*
X4695444Y-933094D01*
X4693920Y-934364D01*
X4684064Y-940968D01*
X4682337Y-941882D01*
X4671415Y-946403D01*
X4669485Y-947013D01*
X4657902Y-949299D01*
X4655921Y-949502D01*
X4638598Y-949502D01*
X4627778Y-950569D01*
X4605426Y-954989D01*
X4595012Y-958189D01*
X4573930Y-966876D01*
X4564329Y-972007D01*
X4545380Y-984656D01*
X4536998Y-991565D01*
X4355592Y-1172972D01*
X4347108Y-1179931D01*
X4338828Y-1185418D01*
X4330039Y-1190040D01*
X4320794Y-1193850D01*
X4311243Y-1196644D01*
X4301490Y-1198575D01*
X4291584Y-1199489D01*
X3908399Y-1199489D01*
X3897528Y-1198422D01*
X3887774Y-1196441D01*
X3878224Y-1193495D01*
X3869080Y-1189634D01*
X3860292Y-1184910D01*
X3852011Y-1179271D01*
X3843832Y-1172413D01*
X3837432Y-1165656D01*
X3832809Y-1160170D01*
X3827729Y-1152347D01*
X3824325Y-1144879D01*
X3801110Y-1082090D01*
X3800500Y-1078585D01*
X3800500Y-982268D01*
X3800652Y-980541D01*
X3806799Y-945134D01*
X3807307Y-940257D01*
X3809288Y-883056D01*
X3809237Y-879195D01*
X3804615Y-817676D01*
X3800500Y-787450D01*
X3800551Y-710692D01*
X3803243Y-683463D01*
X3805732Y-601167D01*
X3800348Y-502005D01*
X3798824Y-485901D01*
X3798011Y-480517D01*
X3795217Y-466343D01*
X3793896Y-461060D01*
X3789679Y-447243D01*
X3787851Y-442112D01*
X3782314Y-428802D01*
X3779977Y-423875D01*
X3773220Y-411124D01*
X3770376Y-406450D01*
X3762400Y-394462D01*
X3759149Y-390093D01*
X3750005Y-378968D01*
X3746296Y-374904D01*
X3625087Y-253695D01*
X3621024Y-249986D01*
X3609898Y-240842D01*
X3605529Y-237591D01*
X3593541Y-229616D01*
X3588867Y-226771D01*
X3576116Y-220014D01*
X3571189Y-217678D01*
X3557879Y-212140D01*
X3552748Y-210312D01*
X3538931Y-206095D01*
X3533648Y-204774D01*
X3519474Y-201980D01*
X3514090Y-201168D01*
X3499764Y-199745D01*
X3494278Y-199491D01*
X3257194Y-199491D01*
X3247948Y-199288D01*
X3241090Y-198780D01*
X3235553Y-197967D01*
X3228086Y-195884D01*
X3219704Y-192278D01*
X3206597Y-185877D01*
X3197148Y-182067D01*
X3186176Y-179425D01*
X3175000Y-178562D01*
X3163824Y-179425D01*
X3152851Y-182067D01*
X3143808Y-185674D01*
X3135731Y-189484D01*
X3122879Y-195021D01*
X3092500Y-206552D01*
X3075686Y-213461D01*
X3067202Y-217881D01*
X3050336Y-229209D01*
X3003702Y-264058D01*
X3000705Y-266547D01*
X2964586Y-300228D01*
X2962148Y-302717D01*
X2932023Y-337007D01*
X2900527Y-378053D01*
X2816301Y-462280D01*
X2811576Y-465582D01*
X2750362Y-494131D01*
X2741726Y-497179D01*
X2733141Y-498805D01*
X2726537Y-499313D01*
X2717596Y-499516D01*
X1805686Y-499516D01*
X1800250Y-499770D01*
X1785874Y-501192D01*
X1780489Y-502005D01*
X1766316Y-504799D01*
X1761032Y-506120D01*
X1747266Y-510336D01*
X1742084Y-512165D01*
X1728774Y-517651D01*
X1723847Y-519988D01*
X1711147Y-526796D01*
X1706473Y-529590D01*
X1694434Y-537616D01*
X1690065Y-540867D01*
X1679041Y-549960D01*
X1665732Y-562559D01*
X1660550Y-567080D01*
X1655978Y-570433D01*
X1649272Y-574192D01*
X1640789Y-577545D01*
X1627022Y-582320D01*
X1617624Y-586282D01*
X1607972Y-592175D01*
X1599488Y-599490D01*
X1592173Y-607974D01*
X1586331Y-617575D01*
X1582013Y-627938D01*
X1579422Y-638810D01*
X1578559Y-650036D01*
X1579422Y-661212D01*
X1582013Y-672084D01*
X1586331Y-682447D01*
X1592173Y-692048D01*
X1599488Y-700532D01*
X1607972Y-707847D01*
X1617573Y-713689D01*
X1627936Y-718007D01*
X1638807Y-720598D01*
X1650034Y-721461D01*
X1661210Y-720598D01*
X1672082Y-718007D01*
X1682445Y-713689D01*
X1692046Y-707847D01*
X1700530Y-700532D01*
X1707845Y-692048D01*
X1713738Y-682447D01*
X1717751Y-672947D01*
X1724609Y-653440D01*
X1728317Y-645972D01*
X1733346Y-638911D01*
X1737766Y-633882D01*
X1745132Y-626364D01*
X1752854Y-620064D01*
X1761134Y-614578D01*
X1769973Y-609955D01*
X1779168Y-606196D01*
X1788718Y-603351D01*
X1798523Y-601421D01*
X1808429Y-600506D01*
X2717901Y-600506D01*
X2727096Y-600659D01*
X2734056Y-601116D01*
X2739644Y-601827D01*
X2746908Y-603707D01*
X2754376Y-606958D01*
X2767228Y-613562D01*
X2777896Y-617982D01*
X2788818Y-620623D01*
X2799994Y-621487D01*
X2811170Y-620623D01*
X2822092Y-617982D01*
X2832455Y-613714D01*
X2842006Y-607822D01*
X2850540Y-600557D01*
X2857804Y-592023D01*
X2863697Y-582472D01*
X2868168Y-571550D01*
X2877159Y-545744D01*
X2879547Y-541883D01*
X3111296Y-310134D01*
X3116529Y-306527D01*
X3119831Y-305206D01*
X3124606Y-305257D01*
X3127756Y-306222D01*
X3144469Y-314655D01*
X3152902Y-318008D01*
X3163824Y-320598D01*
X3175000Y-321462D01*
X3186176Y-320598D01*
X3197148Y-317957D01*
X3206699Y-314096D01*
X3225342Y-305206D01*
X3233216Y-302564D01*
X3241802Y-301142D01*
X3248456Y-300685D01*
X3257397Y-300482D01*
X3491585Y-300482D01*
X3502456Y-301599D01*
X3512210Y-303580D01*
X3521760Y-306527D01*
X3530904Y-310337D01*
X3539693Y-315112D01*
X3547922Y-320649D01*
X3555593Y-327050D01*
X3672941Y-444398D01*
X3679901Y-452882D01*
X3685387Y-461162D01*
X3690061Y-469950D01*
X3693820Y-479196D01*
X3696665Y-488746D01*
X3698544Y-498500D01*
X3699510Y-508406D01*
X3699510Y-1086967D01*
X3698544Y-1091234D01*
X3686200Y-1117803D01*
X3682034Y-1127912D01*
X3679393Y-1138834D01*
X3678529Y-1150010D01*
X3679393Y-1161186D01*
X3682034Y-1172108D01*
X3686301Y-1182471D01*
X3692194Y-1192022D01*
X3699459Y-1200556D01*
X3707993Y-1207820D01*
X3717544Y-1213713D01*
X3728212Y-1218133D01*
X3736594Y-1220724D01*
X3747465Y-1224584D01*
X3754120Y-1228039D01*
X3760978Y-1233170D01*
X3766058Y-1237691D01*
X3774846Y-1246276D01*
X3778961Y-1249984D01*
X3790086Y-1259128D01*
X3794455Y-1262380D01*
X3806444Y-1270406D01*
X3811117Y-1273200D01*
X3823868Y-1280007D01*
X3828796Y-1282344D01*
X3842105Y-1287881D01*
X3847236Y-1289710D01*
X3861054Y-1293876D01*
X3866337Y-1295196D01*
X3880510Y-1298041D01*
X3885895Y-1298803D01*
X3900220Y-1300226D01*
G37*
G36*
X654812Y-1259382D02*
G01*
X713028Y-1259382D01*
X713028Y-1170127D01*
X623824Y-1170127D01*
X623824Y-1228344D01*
X624433Y-1234795D01*
X626160Y-1240485D01*
X629005Y-1245768D01*
X632764Y-1250391D01*
X637387Y-1254150D01*
X642670Y-1256995D01*
X648360Y-1258722D01*
G37*
G36*
X753059Y-1259382D02*
G01*
X811276Y-1259382D01*
X817727Y-1258722D01*
X823417Y-1256995D01*
X828700Y-1254150D01*
X833323Y-1250391D01*
X837082Y-1245768D01*
X839927Y-1240485D01*
X841654Y-1234795D01*
X842314Y-1228344D01*
X842314Y-1170127D01*
X753059Y-1170127D01*
G37*
G36*
X400812Y-1259382D02*
G01*
X557276Y-1259382D01*
X563727Y-1258722D01*
X569417Y-1256995D01*
X574700Y-1254150D01*
X579323Y-1250391D01*
X583082Y-1245768D01*
X585927Y-1240485D01*
X587654Y-1234795D01*
X588314Y-1228344D01*
X588314Y-1071880D01*
X587654Y-1065428D01*
X585927Y-1059738D01*
X583082Y-1054455D01*
X579323Y-1049832D01*
X574700Y-1046073D01*
X569417Y-1043228D01*
X563727Y-1041501D01*
X557276Y-1040892D01*
X400812Y-1040892D01*
X394360Y-1041501D01*
X388670Y-1043228D01*
X383387Y-1046073D01*
X378764Y-1049832D01*
X375005Y-1054455D01*
X372160Y-1059738D01*
X370433Y-1065428D01*
X369824Y-1071880D01*
X369824Y-1228344D01*
X370433Y-1234795D01*
X372160Y-1240485D01*
X375005Y-1245768D01*
X378764Y-1250391D01*
X383387Y-1254150D01*
X388670Y-1256995D01*
X394360Y-1258722D01*
G37*
G36*
X146812Y-1259382D02*
G01*
X303276Y-1259382D01*
X309727Y-1258722D01*
X315417Y-1256995D01*
X320700Y-1254150D01*
X325323Y-1250391D01*
X329082Y-1245768D01*
X331927Y-1240485D01*
X333654Y-1234795D01*
X334314Y-1228344D01*
X334314Y-1071880D01*
X333654Y-1065428D01*
X331927Y-1059738D01*
X329082Y-1054455D01*
X325323Y-1049832D01*
X320700Y-1046073D01*
X315417Y-1043228D01*
X309727Y-1041501D01*
X303276Y-1040892D01*
X146812Y-1040892D01*
X140360Y-1041501D01*
X134670Y-1043228D01*
X129387Y-1046073D01*
X124764Y-1049832D01*
X121005Y-1054455D01*
X118160Y-1059738D01*
X116433Y-1065428D01*
X115824Y-1071880D01*
X115824Y-1228344D01*
X116433Y-1234795D01*
X118160Y-1240485D01*
X121005Y-1245768D01*
X124764Y-1250391D01*
X129387Y-1254150D01*
X134670Y-1256995D01*
X140360Y-1258722D01*
G37*
G36*
X6783882Y-1235049D02*
G01*
X6783882Y-1116025D01*
X6665010Y-1116025D01*
X6665468Y-1119987D01*
X6669125Y-1135583D01*
X6674510Y-1150721D01*
X6681571Y-1165098D01*
X6690258Y-1178610D01*
X6700418Y-1191006D01*
X6711899Y-1202182D01*
X6724599Y-1211986D01*
X6738315Y-1220266D01*
X6752945Y-1226921D01*
X6768185Y-1231900D01*
G37*
G36*
X6275882Y-1235049D02*
G01*
X6275882Y-1116025D01*
X6157010Y-1116025D01*
X6157468Y-1119987D01*
X6161125Y-1135583D01*
X6166510Y-1150721D01*
X6173571Y-1165098D01*
X6182258Y-1178610D01*
X6192418Y-1191006D01*
X6203899Y-1202182D01*
X6216599Y-1211986D01*
X6230315Y-1220266D01*
X6244945Y-1226921D01*
X6260185Y-1231900D01*
G37*
G36*
X6315913Y-1234846D02*
G01*
X6323787Y-1233678D01*
X6339332Y-1229614D01*
X6354267Y-1223822D01*
X6368440Y-1216304D01*
X6381699Y-1207262D01*
X6393789Y-1196746D01*
X6404660Y-1184960D01*
X6414109Y-1171956D01*
X6421983Y-1157986D01*
X6428232Y-1143203D01*
X6432753Y-1127810D01*
X6434785Y-1116025D01*
X6315913Y-1116025D01*
G37*
G36*
X6823913Y-1234846D02*
G01*
X6831787Y-1233678D01*
X6847331Y-1229614D01*
X6862267Y-1223822D01*
X6876440Y-1216304D01*
X6889699Y-1207262D01*
X6901789Y-1196746D01*
X6912660Y-1184960D01*
X6922109Y-1171956D01*
X6929983Y-1157986D01*
X6936231Y-1143203D01*
X6940753Y-1127810D01*
X6942785Y-1116025D01*
X6823913Y-1116025D01*
G37*
G36*
X753059Y-1130096D02*
G01*
X842314Y-1130096D01*
X842314Y-1071880D01*
X841654Y-1065428D01*
X839927Y-1059738D01*
X837082Y-1054455D01*
X833323Y-1049832D01*
X828700Y-1046073D01*
X823417Y-1043228D01*
X817727Y-1041501D01*
X811276Y-1040892D01*
X753059Y-1040892D01*
G37*
G36*
X623824Y-1130096D02*
G01*
X713028Y-1130096D01*
X713028Y-1040892D01*
X654812Y-1040892D01*
X648360Y-1041501D01*
X642670Y-1043228D01*
X637387Y-1046073D01*
X632764Y-1049832D01*
X629005Y-1054455D01*
X626160Y-1059738D01*
X624433Y-1065428D01*
X623824Y-1071880D01*
G37*
G36*
X6315913Y-1075994D02*
G01*
X6434785Y-1075994D01*
X6432753Y-1064209D01*
X6428232Y-1048816D01*
X6421983Y-1034034D01*
X6414109Y-1020064D01*
X6404660Y-1007059D01*
X6393789Y-995273D01*
X6381699Y-984758D01*
X6368440Y-975715D01*
X6354267Y-968197D01*
X6339332Y-962406D01*
X6323787Y-958342D01*
X6315913Y-957173D01*
G37*
G36*
X6823913Y-1075994D02*
G01*
X6942785Y-1075994D01*
X6940753Y-1064209D01*
X6936231Y-1048816D01*
X6929983Y-1034034D01*
X6922109Y-1020064D01*
X6912660Y-1007059D01*
X6901789Y-995273D01*
X6889699Y-984758D01*
X6876440Y-975715D01*
X6862267Y-968197D01*
X6847331Y-962406D01*
X6831787Y-958342D01*
X6823913Y-957173D01*
G37*
G36*
X6157010Y-1075994D02*
G01*
X6275882Y-1075994D01*
X6275882Y-956970D01*
X6260185Y-960119D01*
X6244945Y-965098D01*
X6230315Y-971753D01*
X6216599Y-980033D01*
X6203899Y-989837D01*
X6192418Y-1001014D01*
X6182258Y-1013409D01*
X6173571Y-1026921D01*
X6166510Y-1041298D01*
X6161125Y-1056436D01*
X6157468Y-1072032D01*
G37*
G36*
X6665010Y-1075994D02*
G01*
X6783882Y-1075994D01*
X6783882Y-956970D01*
X6768185Y-960119D01*
X6752945Y-965098D01*
X6738315Y-971753D01*
X6724599Y-980033D01*
X6711899Y-989837D01*
X6700418Y-1001014D01*
X6690258Y-1013409D01*
X6681571Y-1026921D01*
X6674510Y-1041298D01*
X6669125Y-1056436D01*
X6665468Y-1072032D01*
G37*
G36*
X3919931Y-1011275D02*
G01*
X3930040Y-1011275D01*
X3940098Y-1009599D01*
X3949700Y-1006297D01*
X3958590Y-1001471D01*
X3966616Y-995222D01*
X3973474Y-987755D01*
X3979011Y-979271D01*
X3983482Y-968959D01*
X3985818Y-961440D01*
X3989933Y-946251D01*
X3991356Y-943152D01*
X3994454Y-938834D01*
X3997502Y-935482D01*
X4100576Y-832408D01*
X4106265Y-825449D01*
X4117543Y-808634D01*
X4121759Y-800658D01*
X4129532Y-781964D01*
X4132173Y-773328D01*
X4134662Y-760628D01*
X4139031Y-742340D01*
X4143451Y-728929D01*
X4147972Y-718566D01*
X4152900Y-709726D01*
X4158640Y-700989D01*
X4174185Y-678281D01*
X4183227Y-663295D01*
X4191457Y-647649D01*
X4194505Y-640943D01*
X4199077Y-627634D01*
X4201769Y-613918D01*
X4202684Y-599998D01*
X4201769Y-586079D01*
X4199077Y-572414D01*
X4194556Y-559155D01*
X4188409Y-546658D01*
X4180636Y-535076D01*
X4171442Y-524560D01*
X4160926Y-515366D01*
X4149344Y-507593D01*
X4136847Y-501446D01*
X4123639Y-496976D01*
X4109923Y-494233D01*
X4096004Y-493318D01*
X4082084Y-494233D01*
X4068368Y-496976D01*
X4055160Y-501446D01*
X4042664Y-507593D01*
X4031081Y-515366D01*
X4020565Y-524560D01*
X4011371Y-535076D01*
X4003598Y-546658D01*
X3997451Y-559155D01*
X3992930Y-572414D01*
X3990238Y-586079D01*
X3989324Y-599998D01*
X3990238Y-613918D01*
X3992930Y-627634D01*
X3997502Y-640994D01*
X4000652Y-647852D01*
X4009796Y-663752D01*
X4012336Y-667613D01*
X4023766Y-682294D01*
X4033520Y-692912D01*
X4043121Y-702970D01*
X4049674Y-710895D01*
X4052366Y-715264D01*
X4054398Y-720394D01*
X4054957Y-723696D01*
X4054906Y-738327D01*
X4053992Y-745896D01*
X4052620Y-752856D01*
X4052011Y-754786D01*
X4047744Y-765098D01*
X4046829Y-766826D01*
X4040632Y-776122D01*
X4039362Y-777646D01*
X3939489Y-877519D01*
X3934002Y-882243D01*
X3928973Y-884986D01*
X3913479Y-889203D01*
X3905808Y-891590D01*
X3900424Y-893622D01*
X3891381Y-898550D01*
X3883355Y-904798D01*
X3876497Y-912266D01*
X3870909Y-920750D01*
X3866845Y-930046D01*
X3864356Y-939901D01*
X3863492Y-950010D01*
X3864356Y-960119D01*
X3866845Y-969975D01*
X3870909Y-979271D01*
X3876497Y-987755D01*
X3883355Y-995222D01*
X3891381Y-1001471D01*
X3900271Y-1006297D01*
X3909872Y-1009599D01*
G37*
G36*
X4350004Y-706678D02*
G01*
X4363923Y-705764D01*
X4377639Y-703072D01*
X4390847Y-698550D01*
X4403344Y-692404D01*
X4414926Y-684631D01*
X4425442Y-675436D01*
X4434636Y-664921D01*
X4442409Y-653338D01*
X4448556Y-640842D01*
X4453077Y-627634D01*
X4455769Y-613918D01*
X4456684Y-599998D01*
X4455769Y-586079D01*
X4453077Y-572414D01*
X4448556Y-559155D01*
X4442409Y-546658D01*
X4434636Y-535076D01*
X4425442Y-524560D01*
X4414926Y-515366D01*
X4403344Y-507593D01*
X4390847Y-501446D01*
X4377639Y-496976D01*
X4363923Y-494233D01*
X4350004Y-493318D01*
X4336084Y-494233D01*
X4322368Y-496976D01*
X4309160Y-501446D01*
X4296664Y-507593D01*
X4285081Y-515366D01*
X4274566Y-524560D01*
X4265371Y-535076D01*
X4257598Y-546658D01*
X4251452Y-559155D01*
X4246930Y-572414D01*
X4244238Y-586079D01*
X4243324Y-599998D01*
X4244238Y-613918D01*
X4246930Y-627634D01*
X4251452Y-640842D01*
X4257598Y-653338D01*
X4265371Y-664921D01*
X4274566Y-675436D01*
X4285081Y-684631D01*
X4296664Y-692404D01*
X4309160Y-698550D01*
X4322368Y-703072D01*
X4336084Y-705764D01*
G37*
G36*
X4624019Y-704545D02*
G01*
X4631639Y-703072D01*
X4644847Y-698550D01*
X4657344Y-692404D01*
X4668926Y-684631D01*
X4679442Y-675436D01*
X4688636Y-664921D01*
X4696409Y-653338D01*
X4702556Y-640842D01*
X4707077Y-627634D01*
X4708550Y-620014D01*
X4624019Y-620014D01*
G37*
G36*
X4583988Y-704545D02*
G01*
X4583988Y-620014D01*
X4499457Y-620014D01*
X4500930Y-627634D01*
X4505452Y-640842D01*
X4511598Y-653338D01*
X4519371Y-664921D01*
X4528566Y-675436D01*
X4539081Y-684631D01*
X4550664Y-692404D01*
X4563160Y-698550D01*
X4576368Y-703072D01*
G37*
G36*
X370027Y-654761D02*
G01*
X392379Y-652576D01*
X416306Y-648208D01*
X439775Y-642010D01*
X462686Y-633984D01*
X484885Y-624128D01*
X506272Y-612546D01*
X526592Y-599287D01*
X545846Y-584454D01*
X563880Y-568147D01*
X580542Y-550468D01*
X595731Y-531520D01*
X609396Y-511454D01*
X621385Y-490321D01*
X631647Y-468325D01*
X640181Y-445566D01*
X646836Y-422198D01*
X651662Y-398424D01*
X654558Y-374294D01*
X654710Y-370027D01*
X370027Y-370027D01*
G37*
G36*
X6719976Y-654761D02*
G01*
X6742379Y-652576D01*
X6766255Y-648208D01*
X6789775Y-642010D01*
X6812686Y-633984D01*
X6834886Y-624128D01*
X6856222Y-612546D01*
X6876592Y-599287D01*
X6895846Y-584454D01*
X6913829Y-568147D01*
X6930491Y-550468D01*
X6945680Y-531520D01*
X6959346Y-511454D01*
X6971334Y-490321D01*
X6981647Y-468325D01*
X6990130Y-445566D01*
X6996836Y-422198D01*
X7001611Y-398424D01*
X7004507Y-374294D01*
X7004710Y-370027D01*
X6719976Y-370027D01*
G37*
G36*
X6679996Y-654608D02*
G01*
X6679996Y-370027D01*
X6395364Y-370027D01*
X6396685Y-386384D01*
X6400495Y-410362D01*
X6406235Y-433933D01*
X6413855Y-457047D01*
X6423253Y-479399D01*
X6434429Y-500989D01*
X6447231Y-521614D01*
X6461658Y-541172D01*
X6477609Y-559511D01*
X6494983Y-576478D01*
X6513626Y-592074D01*
X6533438Y-606094D01*
X6554317Y-618540D01*
X6576110Y-629259D01*
X6598666Y-638200D01*
X6621881Y-645363D01*
X6645605Y-650646D01*
X6669684Y-653999D01*
G37*
G36*
X4499457Y-579983D02*
G01*
X4583988Y-579983D01*
X4583988Y-495452D01*
X4576368Y-496976D01*
X4563160Y-501446D01*
X4550664Y-507593D01*
X4539081Y-515366D01*
X4528566Y-524560D01*
X4519371Y-535076D01*
X4511598Y-546658D01*
X4505452Y-559155D01*
X4500930Y-572414D01*
G37*
G36*
X4624019Y-579983D02*
G01*
X4708550Y-579983D01*
X4707077Y-572414D01*
X4702556Y-559155D01*
X4696409Y-546658D01*
X4688636Y-535076D01*
X4679442Y-524560D01*
X4668926Y-515366D01*
X4657344Y-507593D01*
X4644847Y-501446D01*
X4631639Y-496976D01*
X4624019Y-495452D01*
G37*

%LPD*%
G36*
X3769918Y-503478D02*
G01*
X3730091Y-507390D01*
X3741420Y-603199D01*
X3753865Y-685647D01*
X3765194Y-756005D01*
X3772763Y-682701D01*
X3775252Y-600049D01*
G37*
G36*
X3765194Y-756005D02*
G01*
X3756151Y-818896D01*
X3748125Y-878535D01*
X3744214Y-936701D01*
X3747465Y-996543D01*
X3755136Y-1033526D01*
X3766565Y-998423D01*
X3776827Y-939546D01*
X3778808Y-881735D01*
X3774389Y-822045D01*
G37*
G36*
X6999986Y-99974D02*
G01*
X6999986Y-4999990D01*
X7049973Y-4999990D01*
X7049973Y-99974D01*
G37*
G36*
X0Y-49987D02*
G01*
X0Y-4950002D01*
X99974Y-4950002D01*
X99974Y-49987D01*
G37*
G36*
X0Y-4899964D02*
G01*
X0Y-4999990D01*
X7049973Y-4999990D01*
X7049973Y-4899964D01*
G37*
G36*
X0Y0D02*
G01*
X0Y-99974D01*
X7049973Y-99974D01*
X7049973Y0D01*
G37*
G36*
X177800Y-76200D02*
G01*
X127000Y-127000D01*
X127000Y-149199D01*
X76200Y-199999D01*
X76200Y-254000D01*
X99974Y-249986D01*
X249986Y-99974D01*
X254000Y-76200D01*
G37*
G36*
X76200Y-4749800D02*
G01*
X76200Y-4799990D01*
X150114Y-4873904D01*
X150114Y-4899863D01*
X177850Y-4927600D01*
X300024Y-4927600D01*
X300024Y-4849977D01*
X150012Y-4750003D01*
G37*
G36*
X7010349Y-4674971D02*
G01*
X6949998Y-4700016D01*
X6757771Y-4927600D01*
X6925005Y-4927600D01*
X7010349Y-4842205D01*
G37*
G36*
X6756400Y-76200D02*
G01*
X6749999Y-99974D01*
X6949998Y-300024D01*
X7010349Y-330149D01*
X7010349Y-126949D01*
X6959600Y-76200D01*
G37*
G36*
X3068675Y-253593D02*
G01*
X3021736Y-288645D01*
X2985211Y-322681D01*
X2956306Y-355498D01*
X2932226Y-386740D01*
X2910179Y-416255D01*
X2887218Y-443738D01*
X2860649Y-469036D01*
X2827578Y-491743D01*
X2785211Y-511759D01*
X2786024Y-564997D01*
X2839161Y-562102D01*
X2854350Y-518312D01*
X2870911Y-481482D01*
X2889656Y-450037D01*
X2911297Y-422401D01*
X2936697Y-397052D01*
X2966567Y-372414D01*
X3001721Y-346862D01*
X3042869Y-318820D01*
X3090926Y-286816D01*
G37*
G36*
X2783433Y-512521D02*
G01*
X2769006Y-519176D01*
X2757068Y-524357D01*
X2751074Y-526338D01*
X2744520Y-527913D01*
X2737104Y-529082D01*
X2728417Y-529793D01*
X2718104Y-529996D01*
X2718104Y-570026D01*
X2728010Y-570179D01*
X2736443Y-570636D01*
X2743657Y-571500D01*
X2750007Y-572770D01*
X2755849Y-574497D01*
X2761538Y-576630D01*
X2767380Y-579323D01*
X2780842Y-586282D01*
X2820466Y-550722D01*
G37*
G36*
X1693824Y-577850D02*
G01*
X1686509Y-584911D01*
X1680057Y-590550D01*
X1674164Y-595020D01*
X1668576Y-598576D01*
X1663090Y-601472D01*
X1657400Y-603961D01*
X1636522Y-611276D01*
X1635506Y-664514D01*
X1688744Y-663448D01*
X1696059Y-642620D01*
X1698548Y-636879D01*
X1701444Y-631393D01*
X1705000Y-625805D01*
X1709470Y-619963D01*
X1715109Y-613460D01*
X1722120Y-606145D01*
G37*
G36*
X3755136Y-1033526D02*
G01*
X3746144Y-1061262D01*
X3713734Y-1130858D01*
X3749294Y-1170482D01*
X3787495Y-1133398D01*
X3760876Y-1061059D01*
G37*
G36*
X3788257Y-1135227D02*
G01*
X3735019Y-1136040D01*
X3737914Y-1189177D01*
X3752342Y-1193800D01*
X3758387Y-1196035D01*
X3763924Y-1198524D01*
X3769258Y-1201470D01*
X3774643Y-1205077D01*
X3780332Y-1209548D01*
X3786632Y-1215136D01*
X3793794Y-1222044D01*
X3822090Y-1193800D01*
X3814927Y-1186332D01*
X3809288Y-1179677D01*
X3804869Y-1173632D01*
X3801364Y-1167892D01*
X3798519Y-1162202D01*
X3793693Y-1150112D01*
G37*
G36*
X5335524Y-885494D02*
G01*
X5336540Y-938733D01*
X5357368Y-946048D01*
X5363108Y-948537D01*
X5368594Y-951433D01*
X5374182Y-954989D01*
X5380075Y-959459D01*
X5386527Y-965098D01*
X5393842Y-972108D01*
X5422138Y-943864D01*
X5415076Y-936548D01*
X5409438Y-930046D01*
X5404967Y-924153D01*
X5401411Y-918616D01*
X5398566Y-913079D01*
X5396077Y-907389D01*
X5388711Y-886561D01*
G37*
G36*
X5306161Y-827887D02*
G01*
X5277866Y-856183D01*
X5284927Y-863447D01*
X5290515Y-869950D01*
X5294985Y-875842D01*
X5298541Y-881430D01*
X5301437Y-886917D01*
X5303926Y-892606D01*
X5311292Y-913485D01*
X5364480Y-914501D01*
X5363464Y-861263D01*
X5342585Y-853948D01*
X5336895Y-851458D01*
X5331409Y-848563D01*
X5325821Y-845007D01*
X5319928Y-840536D01*
X5313476Y-834898D01*
G37*
G36*
X5707126Y-1188110D02*
G01*
X5688431Y-1197660D01*
X5682894Y-1200048D01*
X5677306Y-1201877D01*
X5671210Y-1203045D01*
X5664403Y-1203401D01*
X5656529Y-1202944D01*
X5647283Y-1201470D01*
X5639460Y-1240688D01*
X5659069Y-1244701D01*
X5666740Y-1246479D01*
X5679795Y-1250188D01*
X5692241Y-1255014D01*
X5707126Y-1261872D01*
X5745480Y-1224991D01*
G37*
G36*
X3157118Y-213106D02*
G01*
X3141268Y-220421D01*
X3128111Y-225755D01*
X3097733Y-237439D01*
X3087065Y-241808D01*
X3102356Y-278739D01*
X3110280Y-275894D01*
X3117240Y-274370D01*
X3123438Y-274015D01*
X3129127Y-274574D01*
X3134461Y-275996D01*
X3139694Y-278130D01*
X3157118Y-286918D01*
X3195523Y-250037D01*
G37*
G36*
X3192881Y-213106D02*
G01*
X3154476Y-250037D01*
X3192881Y-286918D01*
X3206851Y-280060D01*
X3212795Y-277368D01*
X3218586Y-275082D01*
X3224530Y-273202D01*
X3230981Y-271780D01*
X3238296Y-270814D01*
X3246882Y-270205D01*
X3256991Y-270002D01*
X3256991Y-230022D01*
X3246882Y-229819D01*
X3238296Y-229209D01*
X3230981Y-228193D01*
X3224530Y-226771D01*
X3218586Y-224942D01*
X3212795Y-222656D01*
G37*
G36*
X5814009Y-989025D02*
G01*
X5814822Y-1029258D01*
X5821222Y-1031341D01*
X5836716Y-1035405D01*
X5841288Y-1036980D01*
X5845810Y-1039063D01*
X5850534Y-1041958D01*
X5855665Y-1045971D01*
X5861405Y-1051255D01*
X5876239Y-1036421D01*
X5870956Y-1030681D01*
X5866942Y-1025550D01*
X5864047Y-1020826D01*
X5861964Y-1016304D01*
X5860389Y-1011732D01*
X5856325Y-996238D01*
X5854242Y-989837D01*
G37*
G36*
X5711393Y-1573733D02*
G01*
X5705703Y-1579016D01*
X5700572Y-1583029D01*
X5695848Y-1585925D01*
X5691276Y-1588008D01*
X5686755Y-1589582D01*
X5671261Y-1593646D01*
X5664809Y-1595729D01*
X5664047Y-1635963D01*
X5704281Y-1635150D01*
X5706313Y-1628749D01*
X5709107Y-1617980D01*
X5711952Y-1608683D01*
X5714085Y-1604162D01*
X5716981Y-1599438D01*
X5720943Y-1594307D01*
X5726277Y-1588566D01*
G37*
G36*
X5075021Y-884478D02*
G01*
X5047081Y-913485D01*
X5050180Y-919530D01*
X5058257Y-933348D01*
X5060391Y-937666D01*
X5062118Y-942340D01*
X5063388Y-947775D01*
X5064201Y-954176D01*
X5064506Y-961999D01*
X5085486Y-961999D01*
X5085791Y-954227D01*
X5086604Y-947775D01*
X5087874Y-942340D01*
X5089601Y-937666D01*
X5091734Y-933348D01*
X5099812Y-919530D01*
X5102910Y-913536D01*
G37*
G36*
X5093868Y-1724710D02*
G01*
X5074462Y-1732788D01*
X5089093Y-1767332D01*
X5095697Y-1785162D01*
X5135930Y-1785975D01*
X5135168Y-1745742D01*
X5129174Y-1744014D01*
X5113223Y-1741373D01*
X5108600Y-1740154D01*
X5104384Y-1738274D01*
X5100523Y-1735277D01*
X5097018Y-1730857D01*
G37*
G36*
X2724505Y-4580077D02*
G01*
X2723184Y-4602226D01*
X2719476Y-4619955D01*
X2713736Y-4634382D01*
X2706420Y-4646574D01*
X2697835Y-4657699D01*
X2688336Y-4668774D01*
X2678379Y-4680966D01*
X2668320Y-4695342D01*
X2658516Y-4713071D01*
X2735122Y-4792573D01*
X2811526Y-4712919D01*
X2801721Y-4695240D01*
X2791612Y-4680864D01*
X2781655Y-4668672D01*
X2772206Y-4657598D01*
X2763570Y-4646523D01*
X2756255Y-4634331D01*
X2750515Y-4619955D01*
X2746806Y-4602226D01*
X2745486Y-4580077D01*
G37*
G36*
X1739036Y-3239058D02*
G01*
X1739849Y-3279292D01*
X1746250Y-3281324D01*
X1757070Y-3284118D01*
X1766316Y-3286963D01*
X1770837Y-3289096D01*
X1775561Y-3291992D01*
X1780692Y-3295954D01*
X1786432Y-3301288D01*
X1801266Y-3286404D01*
X1795983Y-3280714D01*
X1791970Y-3275584D01*
X1789074Y-3270859D01*
X1786991Y-3266287D01*
X1785416Y-3261766D01*
X1781352Y-3246272D01*
X1779270Y-3239820D01*
G37*
G36*
X4096004Y-561949D02*
G01*
X4027373Y-633222D01*
X4036364Y-648766D01*
X4046118Y-661517D01*
X4056075Y-672388D01*
X4065574Y-682294D01*
X4074007Y-692251D01*
X4080713Y-703072D01*
X4085082Y-715721D01*
X4086453Y-731113D01*
X4084218Y-750214D01*
X4104843Y-754329D01*
X4109465Y-734517D01*
X4114698Y-718515D01*
X4120387Y-705459D01*
X4126585Y-694283D01*
X4133291Y-684022D01*
X4140454Y-673811D01*
X4148023Y-662533D01*
X4156100Y-649376D01*
X4164533Y-633222D01*
G37*
G36*
X3961384Y-898753D02*
G01*
X3955694Y-904036D01*
X3950563Y-908050D01*
X3945788Y-910945D01*
X3941267Y-913028D01*
X3936746Y-914603D01*
X3921251Y-918667D01*
X3914800Y-920750D01*
X3914038Y-960983D01*
X3954272Y-960170D01*
X3956304Y-953719D01*
X3960368Y-938225D01*
X3961942Y-933703D01*
X3964025Y-929182D01*
X3966972Y-924458D01*
X3970934Y-919327D01*
X3976268Y-913587D01*
G37*
G36*
X2978505Y-4580077D02*
G01*
X2977184Y-4602226D01*
X2973476Y-4619955D01*
X2967736Y-4634382D01*
X2960420Y-4646574D01*
X2951835Y-4657699D01*
X2942336Y-4668774D01*
X2932379Y-4680966D01*
X2922320Y-4695342D01*
X2912516Y-4713071D01*
X2989122Y-4792573D01*
X3065526Y-4712919D01*
X3055721Y-4695240D01*
X3045612Y-4680864D01*
X3035655Y-4668672D01*
X3026206Y-4657598D01*
X3017570Y-4646523D01*
X3010255Y-4634331D01*
X3004515Y-4619955D01*
X3000806Y-4602226D01*
X2999486Y-4580077D01*
G37*
G36*
X2764028Y-3239058D02*
G01*
X2764840Y-3279292D01*
X2771241Y-3281324D01*
X2782062Y-3284118D01*
X2791307Y-3286963D01*
X2795828Y-3289046D01*
X2800553Y-3291992D01*
X2805684Y-3295954D01*
X2811424Y-3301288D01*
X2826258Y-3286404D01*
X2820974Y-3280714D01*
X2816961Y-3275584D01*
X2814066Y-3270859D01*
X2811983Y-3266287D01*
X2810408Y-3261766D01*
X2806344Y-3246272D01*
X2804261Y-3239820D01*
G37*
G36*
X1962505Y-4580077D02*
G01*
X1961184Y-4602226D01*
X1957476Y-4619955D01*
X1951736Y-4634382D01*
X1944420Y-4646574D01*
X1935835Y-4657699D01*
X1926336Y-4668774D01*
X1916379Y-4680966D01*
X1906320Y-4695342D01*
X1896516Y-4713071D01*
X1973122Y-4792573D01*
X2049525Y-4712919D01*
X2039721Y-4695240D01*
X2029612Y-4680864D01*
X2019655Y-4668672D01*
X2010206Y-4657598D01*
X2001570Y-4646523D01*
X1994255Y-4634331D01*
X1988515Y-4619955D01*
X1984806Y-4602226D01*
X1983486Y-4580077D01*
G37*
G36*
X989025Y-3239058D02*
G01*
X989837Y-3279292D01*
X996238Y-3281324D01*
X1011783Y-3285388D01*
X1016304Y-3286963D01*
X1020826Y-3289046D01*
X1025550Y-3291992D01*
X1030681Y-3295954D01*
X1036421Y-3301288D01*
X1051255Y-3286404D01*
X1045971Y-3280714D01*
X1041958Y-3275584D01*
X1039063Y-3270859D01*
X1036980Y-3266287D01*
X1035405Y-3261766D01*
X1031341Y-3246272D01*
X1029258Y-3239820D01*
G37*
G36*
X2470505Y-4580077D02*
G01*
X2469184Y-4602226D01*
X2465476Y-4619955D01*
X2459736Y-4634382D01*
X2452420Y-4646574D01*
X2443835Y-4657699D01*
X2434336Y-4668774D01*
X2424379Y-4680966D01*
X2414320Y-4695342D01*
X2404516Y-4713071D01*
X2481122Y-4792573D01*
X2557526Y-4712919D01*
X2547721Y-4695240D01*
X2537612Y-4680864D01*
X2527655Y-4668672D01*
X2518206Y-4657598D01*
X2509570Y-4646523D01*
X2502255Y-4634331D01*
X2496515Y-4619955D01*
X2492806Y-4602226D01*
X2491486Y-4580077D01*
G37*
G36*
X1489049Y-3239058D02*
G01*
X1489811Y-3279292D01*
X1496263Y-3281324D01*
X1507032Y-3284118D01*
X1516278Y-3286963D01*
X1520850Y-3289096D01*
X1525574Y-3291992D01*
X1530705Y-3295954D01*
X1536395Y-3301288D01*
X1551279Y-3286404D01*
X1545945Y-3280714D01*
X1541983Y-3275584D01*
X1539087Y-3270859D01*
X1536954Y-3266287D01*
X1534109Y-3257042D01*
X1531315Y-3246272D01*
X1529283Y-3239820D01*
G37*
G36*
X2706166Y-3602888D02*
G01*
X2677871Y-3631133D01*
X2684932Y-3638448D01*
X2690520Y-3644950D01*
X2694990Y-3650843D01*
X2698597Y-3656380D01*
X2701442Y-3661918D01*
X2703931Y-3667607D01*
X2711297Y-3688435D01*
X2764485Y-3689502D01*
X2763469Y-3636264D01*
X2742590Y-3628948D01*
X2736900Y-3626459D01*
X2731414Y-3623564D01*
X2725826Y-3620008D01*
X2719933Y-3615537D01*
X2713482Y-3609898D01*
G37*
G36*
X499973Y-1754479D02*
G01*
X463092Y-1792884D01*
X467156Y-1801875D01*
X470255Y-1809902D01*
X477418Y-1831238D01*
X480314Y-1838604D01*
X484022Y-1846580D01*
X488950Y-1855520D01*
X495401Y-1865833D01*
X528675Y-1843582D01*
X524916Y-1836826D01*
X522935Y-1830730D01*
X522478Y-1825091D01*
X523290Y-1819757D01*
X525068Y-1814626D01*
X527608Y-1809546D01*
X533755Y-1798828D01*
X536905Y-1792884D01*
G37*
G36*
X3232505Y-4580077D02*
G01*
X3231184Y-4602226D01*
X3227476Y-4619955D01*
X3221736Y-4634382D01*
X3214420Y-4646574D01*
X3205835Y-4657699D01*
X3196336Y-4668774D01*
X3186379Y-4680966D01*
X3176320Y-4695342D01*
X3166516Y-4713071D01*
X3243122Y-4792573D01*
X3319526Y-4712919D01*
X3309721Y-4695240D01*
X3299612Y-4680864D01*
X3289655Y-4668672D01*
X3280206Y-4657598D01*
X3271570Y-4646523D01*
X3264255Y-4634331D01*
X3258515Y-4619955D01*
X3254806Y-4602226D01*
X3253486Y-4580077D01*
G37*
G36*
X3014014Y-3239058D02*
G01*
X3014827Y-3279292D01*
X3021279Y-3281324D01*
X3036773Y-3285388D01*
X3041294Y-3286963D01*
X3045815Y-3289046D01*
X3050540Y-3291992D01*
X3055670Y-3295954D01*
X3061411Y-3301288D01*
X3076244Y-3286404D01*
X3070961Y-3280714D01*
X3066948Y-3275584D01*
X3064052Y-3270859D01*
X3061970Y-3266287D01*
X3060395Y-3261766D01*
X3056331Y-3246272D01*
X3054248Y-3239820D01*
G37*
G36*
X2216505Y-4580077D02*
G01*
X2215184Y-4602226D01*
X2211476Y-4619955D01*
X2205736Y-4634382D01*
X2198420Y-4646574D01*
X2189835Y-4657699D01*
X2180336Y-4668774D01*
X2170379Y-4680966D01*
X2160320Y-4695342D01*
X2150516Y-4713071D01*
X2227122Y-4792573D01*
X2303526Y-4712919D01*
X2293721Y-4695240D01*
X2283612Y-4680864D01*
X2273655Y-4668672D01*
X2264206Y-4657598D01*
X2255570Y-4646523D01*
X2248255Y-4634331D01*
X2242515Y-4619955D01*
X2238806Y-4602226D01*
X2237486Y-4580077D01*
G37*
G36*
X1239062Y-3239058D02*
G01*
X1239824Y-3279292D01*
X1246276Y-3281324D01*
X1257046Y-3284118D01*
X1266291Y-3286963D01*
X1270863Y-3289096D01*
X1275588Y-3291992D01*
X1280718Y-3295954D01*
X1286408Y-3301288D01*
X1301292Y-3286404D01*
X1295958Y-3280714D01*
X1291996Y-3275584D01*
X1289100Y-3270859D01*
X1286967Y-3266287D01*
X1285392Y-3261766D01*
X1281328Y-3246272D01*
X1279296Y-3239820D01*
G37*
G36*
X1989480Y-1712975D02*
G01*
X1989226Y-1720799D01*
X1988413Y-1727250D01*
X1987092Y-1732635D01*
X1985365Y-1737360D01*
X1983282Y-1741627D01*
X1975205Y-1755495D01*
X1972106Y-1761489D01*
X1999996Y-1790496D01*
X2027885Y-1761489D01*
X2024786Y-1755495D01*
X2016709Y-1741627D01*
X2014626Y-1737360D01*
X2012899Y-1732635D01*
X2011578Y-1727250D01*
X2010765Y-1720799D01*
X2010511Y-1712975D01*
G37*
G36*
X2561386Y-1298752D02*
G01*
X2555697Y-1304036D01*
X2550566Y-1308049D01*
X2545842Y-1310944D01*
X2541270Y-1313027D01*
X2536748Y-1314602D01*
X2521254Y-1318666D01*
X2514803Y-1320749D01*
X2514041Y-1360982D01*
X2554274Y-1360170D01*
X2556306Y-1353769D01*
X2560370Y-1338275D01*
X2561945Y-1333703D01*
X2564079Y-1329182D01*
X2566974Y-1324457D01*
X2570937Y-1319326D01*
X2576271Y-1313586D01*
G37*
G36*
X3300018Y-434492D02*
G01*
X3272078Y-463499D01*
X3275177Y-469544D01*
X3283254Y-483362D01*
X3285388Y-487680D01*
X3287115Y-492353D01*
X3288385Y-497789D01*
X3289198Y-504240D01*
X3289503Y-512013D01*
X3310483Y-512013D01*
X3310788Y-504240D01*
X3311601Y-497789D01*
X3312871Y-492353D01*
X3314598Y-487680D01*
X3316732Y-483362D01*
X3324809Y-469544D01*
X3327908Y-463499D01*
G37*
D10*
X3174994Y-249999D02*
G01*
X3128586Y-249999D01*
X3111096Y-253479D01*
X3094624Y-260301D01*
X3079798Y-270207D01*
X2839201Y-510804D01*
X3749992Y-1094549D02*
G01*
X3749992Y-505447D01*
X3748529Y-490598D01*
X3745618Y-475960D01*
X3741287Y-461680D01*
X3735575Y-447893D01*
X3728542Y-434733D01*
X3720251Y-422325D01*
X3710785Y-410791D01*
X3589200Y-289206D01*
X3577666Y-279740D01*
X3565258Y-271449D01*
X3552098Y-264416D01*
X3538311Y-258704D01*
X3524031Y-254373D01*
X3509393Y-251462D01*
X3494544Y-249999D01*
X3174994Y-249999D01*
X2839201Y-510804D02*
G01*
X2827667Y-520270D01*
X2815259Y-528561D01*
X2802100Y-535594D01*
X2788312Y-541307D01*
X2774033Y-545637D01*
X2759395Y-548548D01*
X2744546Y-550011D01*
X1805431Y-550011D01*
X1790583Y-551474D01*
X1775945Y-554385D01*
X1761665Y-558716D01*
X1747878Y-564428D01*
X1734718Y-571461D01*
X1722310Y-579752D01*
X1710776Y-589219D01*
X1649994Y-650001D01*
X5724989Y-1224998D02*
G01*
X5663100Y-1224998D01*
X5639780Y-1220360D01*
X5617811Y-1211259D01*
X5598040Y-1198049D01*
X5509178Y-1109187D01*
X5499988Y-1087003D01*
X5499988Y-1062992D01*
X5490799Y-1040808D01*
X5349989Y-899998D01*
D11*
X5899911Y-1350010D02*
G01*
X5899911Y-1387063D01*
X5890712Y-1409275D01*
X5674989Y-1624998D01*
X5899911Y-1350010D02*
G01*
X5899911Y-1108948D01*
X5895771Y-1088130D01*
X5887648Y-1068519D01*
X5875855Y-1050871D01*
X5824981Y-999997D01*
X5124991Y-1774997D02*
G01*
X5094046Y-1744052D01*
X5084706Y-1730072D01*
X5078270Y-1714540D01*
X5074991Y-1698048D01*
X5074991Y-899998D01*
X2734995Y-4750003D02*
G01*
X2734995Y-4269011D01*
X2730855Y-4248193D01*
X2722732Y-4228581D01*
X2710939Y-4210933D01*
X1750006Y-3250003D01*
D12*
X76200Y-4749800D02*
G01*
X76200Y-279400D01*
D11*
X4095973Y-600029D02*
G01*
X4095973Y-744997D01*
X4091833Y-765815D01*
X4083710Y-785426D01*
X4071917Y-803074D01*
X3924993Y-949998D01*
X2988995Y-4750003D02*
G01*
X2988995Y-3498019D01*
X2984855Y-3477201D01*
X2976732Y-3457590D01*
X2964939Y-3439942D01*
X2775000Y-3250003D01*
X1972995Y-4750003D02*
G01*
X1972995Y-4257019D01*
X1968855Y-4236201D01*
X1960732Y-4216590D01*
X1948939Y-4198942D01*
X1000000Y-3250003D01*
D12*
X6959600Y-4927600D02*
G01*
X254000Y-4927600D01*
X127000Y-4876774D02*
G01*
X158455Y-4908229D01*
X172666Y-4917724D01*
X188455Y-4924264D01*
X205219Y-4927600D01*
X254000Y-4927600D01*
X127000Y-4876774D02*
G01*
X95559Y-4845334D01*
X86070Y-4831130D01*
X79532Y-4815349D01*
X76200Y-4798595D01*
X76200Y-4749800D01*
X127000Y-127000D02*
G01*
X95559Y-158440D01*
X86070Y-172643D01*
X79532Y-188424D01*
X76200Y-205178D01*
X76200Y-279400D01*
X127000Y-127000D02*
G01*
X158440Y-95559D01*
X172643Y-86070D01*
X188424Y-79532D01*
X205178Y-76200D01*
X254000Y-76200D01*
X6959600Y-4927600D02*
G01*
X6991024Y-4896175D01*
X7000509Y-4881979D01*
X7007044Y-4866205D01*
X7010374Y-4849459D01*
X7010374Y-4724400D01*
X7010374Y-254000D02*
G01*
X7010374Y-4724400D01*
X254000Y-76200D02*
G01*
X6959600Y-76200D01*
D11*
X2480995Y-4750003D02*
G01*
X2480995Y-4265023D01*
X2476855Y-4244205D01*
X2468732Y-4224594D01*
X2456939Y-4206946D01*
X1499994Y-3250003D01*
D10*
X500001Y-1775005D02*
G01*
X500001Y-1819064D01*
X503303Y-1835665D01*
X509780Y-1851304D01*
X519186Y-1865378D01*
X1129192Y-2475384D01*
X1140726Y-2484854D01*
X1153134Y-2493144D01*
X1166294Y-2500177D01*
X1180081Y-2505890D01*
X1194361Y-2510221D01*
X1208999Y-2513131D01*
X1223848Y-2514594D01*
X1534154Y-2514594D01*
X1549003Y-2516057D01*
X1563641Y-2518968D01*
X1577921Y-2523299D01*
X1591708Y-2529011D01*
X1604868Y-2536045D01*
X1617276Y-2544335D01*
X1628810Y-2553802D01*
X2750007Y-3674998D01*
D11*
X3242995Y-4750003D02*
G01*
X3242995Y-3502025D01*
X3238855Y-3481207D01*
X3230732Y-3461595D01*
X3218939Y-3443947D01*
X3024992Y-3250003D01*
X2226995Y-4750003D02*
G01*
X2226995Y-4261012D01*
X2222855Y-4240194D01*
X2214732Y-4220583D01*
X2202939Y-4202935D01*
X1250007Y-3250003D01*
D12*
X6959600Y-76200D02*
G01*
X6991024Y-107624D01*
X7000509Y-121820D01*
X7007044Y-137594D01*
X7010374Y-154340D01*
X7010374Y-254000D01*
D11*
X1999995Y-1621129D02*
G01*
X1999995Y-1775002D01*
D10*
X3749992Y-1094549D02*
G01*
X3751455Y-1109398D01*
X3754366Y-1124036D01*
X3758697Y-1138316D01*
X3764409Y-1152103D01*
X3771442Y-1165263D01*
X3779733Y-1177670D01*
X3789199Y-1189205D01*
X3810784Y-1210790D01*
X3822318Y-1220256D01*
X3834726Y-1228547D01*
X3847886Y-1235580D01*
X3861673Y-1241292D01*
X3875953Y-1245623D01*
X3890591Y-1248534D01*
X3905440Y-1249997D01*
X4294543Y-1249997D01*
X4309391Y-1248534D01*
X4324029Y-1245623D01*
X4338309Y-1241292D01*
X4352096Y-1235580D01*
X4365256Y-1228547D01*
X4377664Y-1220256D01*
X4389198Y-1210790D01*
X4573041Y-1026947D01*
X4592812Y-1013736D01*
X4614781Y-1004636D01*
X4638100Y-999997D01*
X4661880Y-999997D01*
X4685200Y-995359D01*
X4707168Y-986259D01*
X4726940Y-973048D01*
X4960782Y-739206D01*
X4972316Y-729739D01*
X4984724Y-721448D01*
X4997884Y-714415D01*
X5011671Y-708703D01*
X5025951Y-704372D01*
X5040589Y-701461D01*
X5055438Y-699998D01*
X5094541Y-699998D01*
X5109390Y-701461D01*
X5124028Y-704372D01*
X5138308Y-708703D01*
X5152095Y-714415D01*
X5165255Y-721448D01*
X5177663Y-729739D01*
X5189197Y-739206D01*
X5349989Y-899998D01*
D11*
X3299993Y-450011D02*
G01*
X3299993Y-540986D01*
X3295853Y-561804D01*
X3287730Y-581416D01*
X3275937Y-599064D01*
X2524993Y-1350007D01*
D13*
G01*
X1999995Y-1601431D03*
D14*
G01*
X1999995Y-1506181D03*
D12*
G75*
G01*
X6918114Y-4927600D02*
G03*
X6988934Y-4898266I1J100155D01*
G75*
G01*
X6988934Y-105534D02*
G03*
X6918114Y-76200I-70819J-70821D01*
D15*
G01*
X733044Y-1150112D03*
D17*
G01*
X3243072Y-4750054D03*
G01*
X2989072Y-4750054D03*
G01*
X2735072Y-4750054D03*
G01*
X2481072Y-4750054D03*
G01*
X2227072Y-4750054D03*
G01*
X1973072Y-4750054D03*
G01*
X1719071Y-4750054D03*
G01*
X1465071Y-4750054D03*
G01*
X1211071Y-4750054D03*
D18*
G01*
X957071Y-4750054D03*
D19*
G01*
X6674865Y-2881121D03*
D17*
G01*
X6674865Y-2627121D03*
G01*
X6674865Y-2373121D03*
G01*
X6674865Y-2119121D03*
D20*
G01*
X6295897Y-3395979D03*
G01*
X6803897Y-3395979D03*
G01*
X6295897Y-3903979D03*
G01*
X6803897Y-3903979D03*
D21*
G01*
X6549897Y-3649979D03*
D20*
G01*
X6295897Y-1096010D03*
G01*
X6803897Y-1096010D03*
G01*
X6295897Y-1604010D03*
G01*
X6803897Y-1604010D03*
D21*
G01*
X6549897Y-1350010D03*
D15*
G01*
X225044Y-1150112D03*
G01*
X479044Y-1150112D03*
D22*
G01*
X4949977Y-3925011D03*
G01*
X5203977Y-3925011D03*
G01*
X4695977Y-3925011D03*
G01*
X4349978Y-600024D03*
G01*
X4603978Y-600024D03*
G01*
X4095978Y-600024D03*
D23*
G01*
X350012Y-350012D03*
G01*
X6699986Y-350012D03*
G01*
X6699986Y-4650003D03*
G01*
X350012Y-4650003D03*
D24*
G01*
X724992Y-1775002D03*
G01*
X1750009Y-1775002D03*
G01*
X3274999Y-1775002D03*
G01*
X4550003Y-1775002D03*
G01*
X724992Y-3250006D03*
G01*
X1999995Y-3250006D03*
G01*
X3274999Y-3250006D03*
G01*
X4550003Y-3250006D03*
G01*
X4874996Y-2499995D03*
D25*
G01*
X1999995Y-1775002D03*
G01*
X2524988Y-1350010D03*
G01*
X3299993Y-450011D03*
D24*
G01*
X2799994Y-550011D03*
G01*
X1650009Y-650011D03*
D25*
G01*
X999997Y-3250006D03*
G01*
X1250010Y-3250006D03*
G01*
X1499996Y-3250006D03*
G01*
X1750009Y-3250006D03*
G01*
X2775000Y-3250006D03*
G01*
X3024987Y-3250006D03*
D24*
G01*
X3750005Y-1150010D03*
D25*
G01*
X3924985Y-950010D03*
G01*
X5074996Y-899998D03*
G01*
X5124983Y-1775002D03*
D24*
G01*
X5350002Y-899998D03*
G01*
X5724982Y-1224991D03*
G01*
X2750007Y-3674998D03*
G01*
X499998Y-1775002D03*
D25*
G01*
X5824981Y-999997D03*
D24*
G01*
X990600Y-787400D03*
D25*
G01*
X975004Y-224993D03*
D24*
G01*
X1799996Y-650011D03*
D25*
G01*
X1775002Y-1275003D03*
D24*
G01*
X1824989Y-1075004D03*
D25*
G01*
X2499995Y-775004D03*
D24*
G01*
X2724988Y-999997D03*
D25*
G01*
X2850006Y-1199997D03*
D24*
G01*
X3374999Y-550011D03*
G01*
X3599992Y-1150010D03*
G01*
X4050004Y-1150010D03*
D25*
G01*
X5550001Y-224993D03*
G01*
X5299989Y-524992D03*
D24*
G01*
X6549999Y-699998D03*
G01*
X3403600Y-3683000D03*
G01*
X2641600Y-4292600D03*
G01*
X3999991Y-4224985D03*
G01*
X4199991Y-4024985D03*
G01*
X5399989Y-4674996D03*
G01*
X5724982Y-4150004D03*
G01*
X5699988Y-3474999D03*
D25*
G01*
X1599996Y-575005D03*
G01*
X1599996Y-724992D03*
G01*
X2350008Y-1350010D03*
G01*
X2624988Y-1350010D03*
G01*
X399999Y-1775002D03*
G01*
X599998Y-1775002D03*
G01*
X424992Y-1850009D03*
G01*
X5150002Y-1875002D03*
G01*
X2650007Y-3699992D03*
G01*
X2850006Y-3650005D03*
G01*
X999997Y-3150006D03*
G01*
X1250010Y-3150006D03*
G01*
X1499996Y-3150006D03*
G01*
X1750009Y-3150006D03*
G01*
X2775000Y-3150006D03*
G01*
X3024987Y-3150006D03*
G01*
X4999990Y-1150010D03*
G01*
X3099993Y-4550003D03*
G01*
X3350006Y-4550003D03*
G01*
X3450005Y-4650003D03*
G01*
X2899994Y-3899992D03*
G01*
X3149600Y-3632200D03*
G01*
X3599992Y-3699992D03*
G01*
X4550003Y-3750005D03*
G01*
X5450001Y-3599992D03*
G01*
X2149983Y-1350010D03*
G01*
X4424984Y-4199991D03*
G01*
X2099995Y-1775002D03*
G01*
X660400Y-76200D03*
G01*
X863600Y-76200D03*
G01*
X1066800Y-76200D03*
G01*
X1270000Y-76200D03*
G01*
X2082800Y-76200D03*
G01*
X1879600Y-76200D03*
G01*
X1676400Y-76200D03*
G01*
X1473200Y-76200D03*
G01*
X2895600Y-76200D03*
G01*
X2692400Y-76200D03*
G01*
X2489200Y-76200D03*
G01*
X2286000Y-76200D03*
G01*
X3708400Y-76200D03*
G01*
X3505200Y-76200D03*
G01*
X3302000Y-76200D03*
G01*
X3098800Y-76200D03*
G01*
X4114800Y-76200D03*
G01*
X4318000Y-76200D03*
G01*
X4521200Y-76200D03*
G01*
X4724400Y-76200D03*
G01*
X3911600Y-76200D03*
G01*
X5130800Y-76200D03*
G01*
X5334000Y-76200D03*
G01*
X5537200Y-76200D03*
G01*
X5740400Y-76200D03*
G01*
X4927600Y-76200D03*
G01*
X6350000Y-76200D03*
G01*
X6146800Y-76200D03*
G01*
X5943600Y-76200D03*
G01*
X5943600Y-4927600D03*
G01*
X6146800Y-4927600D03*
G01*
X6350000Y-4927600D03*
G01*
X4927600Y-4927600D03*
G01*
X5740400Y-4927600D03*
G01*
X5537200Y-4927600D03*
G01*
X5334000Y-4927600D03*
G01*
X5130800Y-4927600D03*
G01*
X3911600Y-4927600D03*
G01*
X4724400Y-4927600D03*
G01*
X4521200Y-4927600D03*
G01*
X4318000Y-4927600D03*
G01*
X4114800Y-4927600D03*
G01*
X3098800Y-4927600D03*
G01*
X3302000Y-4927600D03*
G01*
X3505200Y-4927600D03*
G01*
X3708400Y-4927600D03*
G01*
X2286000Y-4927600D03*
G01*
X2489200Y-4927600D03*
G01*
X2692400Y-4927600D03*
G01*
X2895600Y-4927600D03*
G01*
X1473200Y-4927600D03*
G01*
X1676400Y-4927600D03*
G01*
X1879600Y-4927600D03*
G01*
X2082800Y-4927600D03*
G01*
X1270000Y-4927600D03*
G01*
X1066800Y-4927600D03*
G01*
X863600Y-4927600D03*
G01*
X660400Y-4927600D03*
G01*
X76200Y-3530600D03*
G01*
X76200Y-3733800D03*
G01*
X76200Y-3937000D03*
G01*
X76200Y-4140200D03*
G01*
X76200Y-4343400D03*
G01*
X76200Y-2108200D03*
G01*
X76200Y-2311400D03*
G01*
X76200Y-2514600D03*
G01*
X76200Y-2717800D03*
G01*
X76200Y-2921000D03*
G01*
X76200Y-3124200D03*
G01*
X76200Y-3327400D03*
G01*
X76200Y-685800D03*
G01*
X76200Y-889000D03*
G01*
X76200Y-1092200D03*
G01*
X76200Y-1295400D03*
G01*
X76200Y-1498600D03*
G01*
X76200Y-1701800D03*
G01*
X76200Y-1905000D03*
G01*
X7010400Y-660400D03*
G01*
X7010400Y-863600D03*
G01*
X7010400Y-1066800D03*
G01*
X7010400Y-1270000D03*
G01*
X7010400Y-1473200D03*
G01*
X7010400Y-1676400D03*
G01*
X7010400Y-1879600D03*
G01*
X7010400Y-2082800D03*
G01*
X7010400Y-2286000D03*
G01*
X7010400Y-2489200D03*
G01*
X7010400Y-2692400D03*
G01*
X7010400Y-2895600D03*
G01*
X7010400Y-3098800D03*
G01*
X7010400Y-3302000D03*
G01*
X7010400Y-3505200D03*
G01*
X7010400Y-3708400D03*
G01*
X7010400Y-3911600D03*
G01*
X7010400Y-4114800D03*
G01*
X7010400Y-4318000D03*
G01*
X76200Y-279400D03*
G01*
X76200Y-482600D03*
G01*
X254000Y-76200D03*
G01*
X457200Y-76200D03*
G01*
X127000Y-127000D03*
G01*
X6756400Y-76200D03*
G01*
X6553200Y-76200D03*
G01*
X7010374Y-254000D03*
G01*
X7010374Y-457200D03*
G01*
X6959600Y-76200D03*
G01*
X6553200Y-4927600D03*
G01*
X6756400Y-4927600D03*
G01*
X6959600Y-4927600D03*
G01*
X7010374Y-4724400D03*
G01*
X7010374Y-4521200D03*
G01*
X457200Y-4927600D03*
G01*
X76200Y-4749800D03*
G01*
X76200Y-4546600D03*
G01*
X254000Y-4927600D03*
G01*
X127000Y-4876774D03*
D24*
G01*
X4299991Y-1150010D03*
D25*
G01*
X3849979Y-899998D03*
G01*
X4099991Y-450011D03*
G01*
X4350004Y-450011D03*
G01*
X2350008Y-1150010D03*
G01*
X2450007Y-999997D03*
G01*
X2975000Y-1199997D03*
G01*
X3024987Y-650011D03*
G01*
X3024987Y-475005D03*
G01*
X2899994Y-724992D03*
G01*
X3350006Y-374980D03*
G01*
X3450005Y-4799990D03*
G01*
X4999990Y-999997D03*
G01*
X5150002Y-999997D03*
G01*
X5950000Y-3950004D03*
G01*
X6099987Y-3950004D03*
G01*
X5974994Y-3599992D03*
G01*
X6099987Y-3499993D03*
G01*
X6449999Y-2899994D03*
G01*
X6399987Y-3050006D03*
G01*
X6849999Y-3199993D03*
G01*
X5050002Y-4099991D03*
G01*
X5050002Y-4450003D03*
G01*
X4950002Y-4524984D03*
G01*
X5024983Y-1774977D03*
G01*
X5150002Y-1150010D03*
G01*
X5299989Y-1150010D03*
G01*
X5450001Y-1150010D03*
G01*
X5299989Y-999997D03*
G01*
X5574995Y-1324990D03*
G01*
X5574995Y-1424990D03*
G01*
X5574995Y-1524990D03*
G01*
X5774994Y-1624990D03*
G01*
X5924981Y-1674977D03*
G01*
X5924981Y-1774952D03*
G01*
X5924981Y-1875002D03*
G01*
X6149975Y-2049983D03*
G01*
X5150002Y-2050008D03*
G01*
X5399989Y-2250008D03*
G01*
X5299989Y-1299997D03*
G01*
X5424982Y-850011D03*
G01*
X5674995Y-1624990D03*
G01*
X5674995Y-1149985D03*
G01*
X5774994Y-1149985D03*
G01*
X5699988Y-999972D03*
G01*
X5950000Y-999972D03*
G01*
X5574995Y-2174951D03*
G01*
X4750003Y-3750005D03*
G01*
X4950002Y-3750005D03*
G01*
X5150002Y-3750005D03*
G01*
X5350002Y-3750005D03*
G01*
X4850002Y-4099991D03*
G01*
X4650003Y-4099991D03*
G01*
X3750005Y-3899992D03*
G01*
X3949979Y-3899992D03*
G01*
X4150004Y-3899992D03*
G01*
X3099993Y-4350004D03*
G01*
X3099993Y-4150004D03*
G01*
X5424982Y-1650009D03*
G01*
X5250002Y-1650009D03*
G01*
X5950000Y-2050008D03*
G01*
X5750001Y-2050008D03*
G01*
X4850002Y-1150010D03*
G01*
X4699990Y-1150010D03*
G01*
X4550003Y-1150010D03*
G01*
X4299991Y-950010D03*
G01*
X4499990Y-950010D03*
G01*
X2149983Y-1150010D03*
G01*
X2199995Y-999997D03*
G01*
X2375001Y-475005D03*
G01*
X2524988Y-474853D03*
D24*
G01*
X3274999Y-1324990D03*
G01*
X5350002Y-2499995D03*
G01*
X1999995Y-3650005D03*
G01*
X724992Y-3650005D03*
D25*
G01*
X4424984Y-4674996D03*
D24*
G01*
X3175000Y-250012D03*
D25*
G01*
X3175000Y-350012D03*
G01*
X3550005Y-375005D03*
M02*
