G04 Layer: TopLayer*
G04 EasyEDA v6.5.22, 2023-03-08 13:12:16*
G04 37ab446038db4d519e82eb444407bca9,9a5be75d700b4a6385dc1106f27949ae,10*
G04 Gerber Generator version 0.2*
G04 Scale: 100 percent, Rotated: No, Reflected: No *
G04 Dimensions in millimeters *
G04 leading zeros omitted , absolute positions ,4 integer and 5 decimal *
%FSLAX45Y45*%
%MOMM*%

%AMMACRO1*21,1,$1,$2,0,0,$3*%
%ADD10C,0.2100*%
%ADD11C,0.4000*%
%ADD12C,0.3000*%
%ADD13R,0.8000X0.9000*%
%ADD14R,0.9000X0.8000*%
%ADD15R,3.5000X1.6000*%
%ADD16MACRO1,0.864X0.8065X0.0000*%
%ADD17R,0.8640X0.8065*%
%ADD18MACRO1,0.864X0.8065X90.0000*%
%ADD19R,0.5500X1.0000*%
%ADD20C,1.0000*%
%ADD21R,0.5320X1.0375*%
%ADD22MACRO1,0.864X0.8065X-90.0000*%
%ADD23R,0.8000X0.8640*%
%ADD24R,0.8640X0.8000*%
%ADD25R,1.0700X0.6000*%
%ADD26R,0.6000X1.0700*%
%ADD27MACRO1,1.35X1.41X-90.0000*%
%ADD28MACRO1,1.35X1.41X0.0000*%
%ADD29R,1.3500X1.4100*%
%ADD30R,0.9500X1.1500*%
%ADD31R,0.8000X0.8000*%
%ADD32R,1.0720X0.5320*%
%ADD33MACRO1,0.532X1.0375X90.0000*%
%ADD34R,1.6000X3.2000*%
%ADD35R,3.2000X1.6000*%
%ADD36R,1.0000X0.5500*%
%ADD37R,1.0000X0.6000*%
%ADD38R,1.0000X0.8000*%
%ADD39C,1.8000*%
%ADD40R,1.8000X1.8000*%
%ADD41C,1.5240*%
%ADD42R,1.7000X1.7000*%
%ADD43C,1.7000*%
%ADD44R,1.5748X1.5748*%
%ADD45C,5.0000*%
%ADD46C,0.6200*%
%ADD47C,0.8200*%
%ADD48C,0.0188*%

%LPD*%
D10*
X6070587Y-1802533D02*
G01*
X6400787Y-1802533D01*
X6400787Y-1651861D02*
G01*
X5871855Y-1122928D01*
X5486389Y-1122928D01*
X6756400Y-2159000D02*
G01*
X6756400Y-1855073D01*
X6553187Y-1651861D01*
X6553189Y-1651866D02*
G01*
X6400789Y-1651866D01*
X6553189Y-1802528D02*
G01*
X6400789Y-1802528D01*
D11*
X4267187Y-838192D02*
G01*
X4241779Y-863600D01*
X3492804Y-863600D01*
D10*
X3022600Y-3483584D02*
G01*
X3022600Y-4317997D01*
X3479792Y-4775189D01*
X3225792Y-4775189D02*
G01*
X2768600Y-4317997D01*
X2768600Y-3483584D01*
X1752600Y-3483584D02*
G01*
X1752600Y-3555994D01*
X2971794Y-4775189D01*
X1498600Y-3483584D02*
G01*
X1498600Y-3555994D01*
X2717794Y-4775189D01*
X1244600Y-3483584D02*
G01*
X1244600Y-3555994D01*
X2463794Y-4775189D01*
X990600Y-3483584D02*
G01*
X990600Y-3555994D01*
X2209794Y-4775189D01*
D11*
X4775189Y-838197D02*
G01*
X4775192Y-704387D01*
X4775192Y-704387D02*
G01*
X4680196Y-704387D01*
D10*
X4680196Y-984397D02*
G01*
X4680196Y-1784601D01*
X4997190Y-2101595D01*
X5457977Y-2101595D01*
X4680196Y-984397D02*
G01*
X4572396Y-1092197D01*
X3886192Y-1092197D01*
X4419589Y-698190D02*
G01*
X4425779Y-691995D01*
X4521189Y-691995D01*
X4267189Y-698190D02*
G01*
X4419589Y-698190D01*
X5276590Y-759675D02*
G01*
X5283202Y-766284D01*
X5283202Y-869795D01*
X5283202Y-869795D02*
G01*
X5385658Y-972256D01*
X5486389Y-972256D01*
X5276590Y-759675D02*
G01*
X5307733Y-728538D01*
X5307733Y-514195D01*
D11*
X4775189Y-984399D02*
G01*
X4775189Y-1098395D01*
X4775200Y-838200D02*
G01*
X5008072Y-838200D01*
X5086598Y-759673D01*
D10*
X4870190Y-704385D02*
G01*
X5028333Y-546249D01*
X5028333Y-514195D01*
X5028333Y-514195D02*
G01*
X5157058Y-514195D01*
X4877658Y-514195D02*
G01*
X4748933Y-514195D01*
D11*
X4419602Y-838205D02*
G01*
X4419602Y-971395D01*
X4267189Y-838194D02*
G01*
X4419589Y-838194D01*
D10*
X4598258Y-514195D02*
G01*
X4598258Y-902456D01*
X4680201Y-984399D01*
X4870190Y-984399D02*
G01*
X4874668Y-979914D01*
X5181589Y-979914D01*
X5182471Y-1123795D02*
G01*
X5181589Y-979914D01*
X5333108Y-1123795D02*
G01*
X5486389Y-1122926D01*
X3212795Y-958595D02*
G01*
X3346396Y-1092197D01*
X3886192Y-1092197D01*
D11*
X4724400Y-2006600D02*
G01*
X2108200Y-2006600D01*
X1879600Y-1778000D01*
X1879600Y-1041400D01*
X1574800Y-736600D01*
X1238404Y-736600D01*
D10*
X6070587Y-1802533D02*
G01*
X6074079Y-1806026D01*
X6074079Y-1962404D01*
D11*
X5842000Y-1727200D02*
G01*
X5917338Y-1651861D01*
X6070587Y-1651861D01*
X5842000Y-1727200D02*
G01*
X5708802Y-1727200D01*
X4317992Y-4310395D02*
G01*
X4332607Y-4325010D01*
X4672075Y-4325010D01*
X4672075Y-4230014D02*
G01*
X4672075Y-4323156D01*
X6326174Y-3429000D02*
G01*
X6326174Y-3351225D01*
X6756400Y-2921000D01*
X6203797Y-3632200D02*
G01*
X6203797Y-3551377D01*
X6326174Y-3429000D01*
X6197600Y-3937863D02*
G01*
X6203797Y-3931665D01*
X6203797Y-3632200D01*
X5955385Y-4428185D02*
G01*
X6197600Y-4185970D01*
X6197600Y-4088511D01*
X5689600Y-4476597D02*
G01*
X5738012Y-4428185D01*
X5955385Y-4428185D01*
X5384800Y-4621911D02*
G01*
X5390108Y-4616602D01*
X5689600Y-4616602D01*
X5193385Y-4628210D02*
G01*
X5199684Y-4621911D01*
X5384800Y-4621911D01*
X5007102Y-4629657D02*
G01*
X5193284Y-4628134D01*
X4668520Y-4629657D02*
G01*
X4318000Y-4630420D01*
X4672075Y-4230014D02*
G01*
X4405375Y-3963314D01*
X4253484Y-3963314D01*
X4083304Y-3962400D02*
G01*
X4253484Y-3963415D01*
X482600Y-1545589D02*
G01*
X482600Y-2158997D01*
X812797Y-2489194D01*
X3149594Y-2489194D01*
X3911592Y-3251192D01*
X3911592Y-3773619D01*
X3929583Y-3791610D01*
X1244600Y-1238504D02*
G01*
X1244600Y-1545589D01*
X1244587Y-1098392D02*
G01*
X1238402Y-1092207D01*
X1238402Y-914400D01*
X4546600Y-3483584D02*
G01*
X4546600Y-3632184D01*
X4355586Y-3823197D01*
X4253577Y-3823197D01*
D10*
X5664187Y-1600200D02*
G01*
X5689587Y-1574800D01*
X5841987Y-1574800D01*
X5943922Y-1472872D01*
X5972733Y-1472872D01*
X5664187Y-1600200D02*
G01*
X5568789Y-1695599D01*
X5568789Y-1727205D01*
X5457974Y-1911591D02*
G01*
X5461855Y-1907702D01*
X5461855Y-1473212D01*
D11*
X5588000Y-2006600D02*
G01*
X5457974Y-2006600D01*
D10*
X5612505Y-1473212D02*
G01*
X5612853Y-1473553D01*
X5812843Y-1473553D01*
X5054600Y-1545589D02*
G01*
X5126979Y-1473210D01*
X5461855Y-1473210D01*
D11*
X2355997Y-330212D02*
G01*
X2432210Y-254000D01*
X3251192Y-254000D01*
X3498997Y-501804D01*
X3498997Y-584202D01*
X2355997Y-330212D02*
G01*
X2362200Y-336415D01*
X2362200Y-520390D01*
D12*
X5955370Y-4628194D02*
G01*
X5975375Y-4648200D01*
X6096000Y-4648200D01*
D11*
X4069588Y-3791595D02*
G01*
X4101188Y-3823197D01*
X4253575Y-3823197D01*
X5193375Y-4428195D02*
G01*
X5185166Y-4419986D01*
X4901895Y-4419986D01*
X4668532Y-4629795D02*
G01*
X4672081Y-4626262D01*
X4672081Y-4419986D01*
X4901895Y-4324990D02*
G01*
X4786988Y-4324990D01*
X4901895Y-4419986D02*
G01*
X4901895Y-4324990D01*
D10*
X3492797Y-958608D02*
G01*
X3486205Y-965200D01*
X3352800Y-965200D01*
D11*
X3492797Y-768614D02*
G01*
X3492797Y-863610D01*
X3492797Y-768614D02*
G01*
X3498997Y-762414D01*
X3498997Y-584202D01*
X3212787Y-863610D02*
G01*
X3301979Y-863610D01*
X3358992Y-806597D01*
X3358992Y-584202D01*
X2215992Y-330212D02*
G01*
X2082794Y-330200D01*
D10*
X3022600Y-1545589D02*
G01*
X3061385Y-1506804D01*
X3061385Y-1212595D01*
X2267204Y-800399D02*
G01*
X2260600Y-807003D01*
X2260600Y-1545589D01*
D11*
X2362200Y-520390D02*
G01*
X2267198Y-520390D01*
D10*
X2457188Y-520390D02*
G01*
X2457188Y-590804D01*
X2267198Y-780795D01*
X2267198Y-800397D01*
X1269646Y-174043D02*
G01*
X1265887Y-177800D01*
X1143000Y-177800D01*
X939800Y-559686D02*
G01*
X1165527Y-333959D01*
X1270355Y-333959D01*
D11*
X482600Y-1143000D02*
G01*
X915266Y-710333D01*
X939797Y-710333D01*
X482600Y-1142997D02*
G01*
X482600Y-1545589D01*
D10*
X1695195Y-1241094D02*
G01*
X1666293Y-1269997D01*
X1600197Y-1269997D01*
X2006600Y-1752600D02*
G01*
X2006600Y-1545592D01*
X1752600Y-1752600D02*
G01*
X1752600Y-1545592D01*
X1505201Y-1241104D02*
G01*
X1498600Y-1247706D01*
X1498600Y-1545589D01*
D11*
X1098400Y-558812D02*
G01*
X1098395Y-736597D01*
X1098395Y-736597D02*
G01*
X1098395Y-914397D01*
X1098395Y-736597D02*
G01*
X736600Y-1098392D01*
X736600Y-1143000D01*
X736600Y-1143000D02*
G01*
X736600Y-1545589D01*
X4546600Y-1778000D02*
G01*
X4546600Y-1545592D01*
X3276600Y-1545592D02*
G01*
X3276600Y-1778000D01*
X736600Y-1545592D02*
G01*
X736600Y-1778000D01*
X736600Y-3251200D02*
G01*
X736600Y-3483582D01*
X2006600Y-3251200D02*
G01*
X2006600Y-3483582D01*
X4546600Y-3251200D02*
G01*
X4546600Y-3483582D01*
X3276600Y-3251200D02*
G01*
X3276600Y-3483582D01*
X228600Y-1545589D02*
G01*
X228600Y-1143000D01*
D10*
X4901326Y-4063992D02*
G01*
X5002926Y-3962392D01*
X5363390Y-3962392D01*
X4901438Y-4064000D02*
G01*
X4901945Y-4230115D01*
D11*
X4750653Y-4063992D02*
G01*
X4786985Y-4100324D01*
X4786985Y-4325010D01*
X4927600Y-1828800D02*
G01*
X5257787Y-1828800D01*
X5359389Y-1727197D01*
X5568789Y-1727200D02*
G01*
X5588000Y-1746410D01*
X5588000Y-2006600D01*
X3098794Y-888997D02*
G01*
X3124192Y-863600D01*
X3212795Y-863600D01*
D10*
X3212795Y-958595D02*
G01*
X3212795Y-1003597D01*
X3124194Y-1092197D01*
X2997194Y-1092197D01*
X2844794Y-1244597D01*
X2768594Y-1244597D01*
X2514600Y-1498592D01*
X2514600Y-1545589D01*
X6070587Y-2057394D02*
G01*
X6074079Y-2060887D01*
X6074079Y-2152390D01*
D12*
X5892787Y-1956658D02*
G01*
X5898527Y-1962398D01*
X6074079Y-1962398D01*
D11*
X5588000Y-2006600D02*
G01*
X5588000Y-2152792D01*
X5721197Y-2285989D01*
D10*
X5861177Y-2285989D02*
G01*
X5892787Y-2254379D01*
X5892787Y-2107331D01*
D11*
X5708787Y-1727200D02*
G01*
X5717989Y-1736402D01*
X5717989Y-1911591D01*
X1238404Y-558812D02*
G01*
X1238399Y-736597D01*
D12*
X6502387Y-3632192D02*
G01*
X6526197Y-3608382D01*
X6526197Y-3429000D01*
X6343777Y-3632200D02*
G01*
X6502387Y-3632192D01*
D10*
X5867400Y-2666994D02*
G01*
X6117386Y-2666994D01*
X5867400Y-2666994D02*
G01*
X5861177Y-2660771D01*
X5861177Y-2285989D01*
X5892800Y-2107336D02*
G01*
X5887059Y-2101595D01*
X5718002Y-2101595D01*
X2937865Y-508000D02*
G01*
X2912455Y-482589D01*
X2767711Y-482589D01*
X2457195Y-520395D02*
G01*
X2495001Y-482589D01*
X2617063Y-482589D01*
D11*
X1244600Y-1098395D02*
G01*
X1136804Y-1098395D01*
X863600Y-1371600D01*
X863600Y-2311400D01*
D10*
X5384800Y-4471263D02*
G01*
X5384800Y-4440986D01*
X5863394Y-3962394D01*
D11*
X3943184Y-3962405D02*
G01*
X3929481Y-3948701D01*
X3929481Y-3791712D01*
D10*
X5363390Y-3962392D02*
G01*
X5613377Y-3962392D01*
D11*
X863597Y-2641594D02*
G01*
X863597Y-3759192D01*
X1701800Y-4597394D01*
X1701800Y-4775200D01*
D10*
X482600Y-3483584D02*
G01*
X482600Y-3810000D01*
X1447800Y-4775200D01*
X228600Y-3483584D02*
G01*
X228600Y-3810000D01*
X1193800Y-4775200D01*
D11*
X1238399Y-736597D02*
G01*
X1238399Y-914397D01*
X1238402Y-558800D02*
G01*
X1276812Y-520390D01*
X2267204Y-520390D01*
D12*
X2818511Y-812800D02*
G01*
X3158109Y-473202D01*
X3158109Y-413004D01*
X3212787Y-768614D02*
G01*
X3158111Y-713938D01*
X3158111Y-603001D01*
X2667761Y-812800D02*
G01*
X2667000Y-965962D01*
D10*
X2463794Y-971395D02*
G01*
X2457195Y-964796D01*
X2457195Y-800404D01*
X2667000Y-966081D02*
G01*
X2667881Y-965200D01*
X2946400Y-965200D01*
D12*
X2667000Y-1116837D02*
G01*
X2831338Y-1117600D01*
X3098794Y-888997D02*
G01*
X3061385Y-926406D01*
X3061385Y-1022604D01*
X2463794Y-971395D02*
G01*
X2469126Y-966063D01*
X2667000Y-966063D01*
X2362194Y-1041397D02*
G01*
X2432197Y-1111399D01*
X2463794Y-1111399D01*
X2362200Y-800404D02*
G01*
X2362200Y-1041392D01*
D13*
G01*
X6203797Y-3632200D03*
G01*
X6343802Y-3632200D03*
D14*
G01*
X4267200Y-838098D03*
G01*
X4267200Y-698093D03*
D13*
G01*
X2356002Y-330200D03*
G01*
X2215997Y-330200D03*
G01*
X5721197Y-2286000D03*
G01*
X5861202Y-2286000D03*
G01*
X5708802Y-1727200D03*
G01*
X5568797Y-1727200D03*
G01*
X1238402Y-558800D03*
G01*
X1098397Y-558800D03*
D14*
G01*
X2463800Y-971397D03*
G01*
X2463800Y-1111402D03*
G01*
X4419600Y-698195D03*
G01*
X4419600Y-838200D03*
D15*
G01*
X4318000Y-4310379D03*
G01*
X4318000Y-4630394D03*
D16*
G01*
X5486389Y-972267D03*
D17*
G01*
X5486400Y-1122908D03*
D18*
G01*
X4748917Y-514195D03*
G01*
X4598267Y-514195D03*
G01*
X5028317Y-514195D03*
G01*
X4877667Y-514195D03*
D16*
G01*
X6070587Y-1802522D03*
D17*
G01*
X6070600Y-1651863D03*
D16*
G01*
X6400787Y-1651872D03*
D17*
G01*
X6400800Y-1802511D03*
D18*
G01*
X5307717Y-514195D03*
G01*
X5157067Y-514195D03*
D16*
G01*
X6553187Y-1651872D03*
D17*
G01*
X6553200Y-1802511D03*
D19*
G01*
X4870195Y-984402D03*
G01*
X4775200Y-984402D03*
G01*
X4680204Y-984402D03*
G01*
X4680204Y-704392D03*
G01*
X4775200Y-704392D03*
G01*
X4870195Y-704392D03*
D18*
G01*
X2767724Y-482600D03*
G01*
X2617075Y-482600D03*
G01*
X4901324Y-4064000D03*
G01*
X4750675Y-4064000D03*
D16*
G01*
X939800Y-710324D03*
D17*
G01*
X939800Y-559663D03*
D20*
G01*
X3886200Y-1092200D03*
D21*
G01*
X5276595Y-759663D03*
G01*
X5086604Y-759663D03*
G01*
X5181600Y-979906D03*
D22*
G01*
X5182467Y-1123792D03*
G01*
X5333117Y-1123792D03*
D16*
G01*
X5384789Y-4621914D03*
D17*
G01*
X5384800Y-4471263D03*
D22*
G01*
X2667869Y-812797D03*
G01*
X2818519Y-812797D03*
D16*
G01*
X5892787Y-2107319D03*
D17*
G01*
X5892800Y-1956663D03*
D16*
G01*
X6197587Y-4088517D03*
D17*
G01*
X6197600Y-3937863D03*
D23*
G01*
X4083202Y-3962400D03*
G01*
X3943197Y-3962400D03*
D24*
G01*
X1244574Y-1238402D03*
G01*
X1244574Y-1098397D03*
G01*
X5689600Y-4476597D03*
G01*
X5689600Y-4616602D03*
D25*
G01*
X6074079Y-1962404D03*
G01*
X6074079Y-2152395D03*
G01*
X6321094Y-2057400D03*
D13*
G01*
X3358997Y-584200D03*
G01*
X3499002Y-584200D03*
G01*
X1098397Y-914400D03*
G01*
X1238402Y-914400D03*
G01*
X1098397Y-736600D03*
G01*
X1238402Y-736600D03*
G01*
X4069486Y-3791712D03*
G01*
X3929481Y-3791712D03*
D14*
G01*
X4253484Y-3823309D03*
G01*
X4253484Y-3963314D03*
D26*
G01*
X1505204Y-1241094D03*
G01*
X1695195Y-1241094D03*
G01*
X1600200Y-994105D03*
D27*
G01*
X6326184Y-3428992D03*
G01*
X6526189Y-3428992D03*
D28*
G01*
X5955377Y-4428195D03*
D29*
G01*
X5955385Y-4628210D03*
D28*
G01*
X5193377Y-4628200D03*
D29*
G01*
X5193385Y-4428185D03*
D30*
G01*
X4668545Y-4629785D03*
G01*
X5007025Y-4629785D03*
D19*
G01*
X2457195Y-800404D03*
G01*
X2362200Y-800404D03*
G01*
X2267204Y-800404D03*
G01*
X2267204Y-520395D03*
G01*
X2362200Y-520395D03*
G01*
X2457195Y-520395D03*
D31*
G01*
X1270355Y-333933D03*
G01*
X1269644Y-174040D03*
G01*
X5812840Y-1473555D03*
G01*
X5972733Y-1472844D03*
D16*
G01*
X2666994Y-966072D03*
D17*
G01*
X2667000Y-1116711D03*
D18*
G01*
X5612514Y-1473197D03*
G01*
X5461864Y-1473197D03*
D32*
G01*
X4901895Y-4420006D03*
G01*
X4901895Y-4325010D03*
G01*
X4901895Y-4230014D03*
G01*
X4672075Y-4230014D03*
G01*
X4672075Y-4325010D03*
G01*
X4672075Y-4420006D03*
D33*
G01*
X3158120Y-602999D03*
G01*
X3158120Y-413000D03*
G01*
X2937869Y-508000D03*
D34*
G01*
X228600Y-3483584D03*
G01*
X482600Y-3483584D03*
G01*
X736600Y-3483584D03*
G01*
X990600Y-3483584D03*
G01*
X1244600Y-3483584D03*
G01*
X1498600Y-3483584D03*
G01*
X1752600Y-3483584D03*
G01*
X2006600Y-3483584D03*
G01*
X2260600Y-3483584D03*
G01*
X2514600Y-3483584D03*
G01*
X2768600Y-3483584D03*
G01*
X3022600Y-3483584D03*
G01*
X3276600Y-3483584D03*
G01*
X3530600Y-3483584D03*
G01*
X3784600Y-3483584D03*
G01*
X4038600Y-3483584D03*
G01*
X4292600Y-3483584D03*
G01*
X4546600Y-3483584D03*
G01*
X4800600Y-3483584D03*
G01*
X5054600Y-3483584D03*
G01*
X5054600Y-1545589D03*
G01*
X4800600Y-1545589D03*
G01*
X4546600Y-1545589D03*
G01*
X4292600Y-1545589D03*
G01*
X4038600Y-1545589D03*
G01*
X3784600Y-1545589D03*
G01*
X3530600Y-1545589D03*
G01*
X3276600Y-1545589D03*
G01*
X3022600Y-1545589D03*
G01*
X2768600Y-1545589D03*
G01*
X2514600Y-1545589D03*
G01*
X2260600Y-1545589D03*
G01*
X2006600Y-1545589D03*
G01*
X1752600Y-1545589D03*
G01*
X1498600Y-1545589D03*
G01*
X1244600Y-1545589D03*
G01*
X990600Y-1545589D03*
G01*
X736600Y-1545589D03*
G01*
X482600Y-1545589D03*
G01*
X228600Y-1545589D03*
D35*
G01*
X5111597Y-2768600D03*
G01*
X5111597Y-2514600D03*
G01*
X5111597Y-2260600D03*
D36*
G01*
X3212795Y-958595D03*
G01*
X3212795Y-863600D03*
G01*
X3212795Y-768604D03*
G01*
X3492804Y-768604D03*
G01*
X3492804Y-863600D03*
G01*
X3492804Y-958595D03*
D37*
G01*
X5717997Y-1911604D03*
G01*
X5717997Y-2101595D03*
G01*
X5457977Y-2101595D03*
G01*
X5457977Y-2006600D03*
G01*
X5457977Y-1911604D03*
D38*
G01*
X3061385Y-1022604D03*
G01*
X2831388Y-1117600D03*
G01*
X3061385Y-1212595D03*
D39*
G01*
X3225800Y-4775200D03*
D40*
G01*
X3479800Y-4775200D03*
D41*
G01*
X5613374Y-3962400D03*
G01*
X5863386Y-3962400D03*
G01*
X5363387Y-3962400D03*
G01*
X5867400Y-2667000D03*
G01*
X5617387Y-2667000D03*
G01*
X6117386Y-2667000D03*
D42*
G01*
X1955800Y-4775200D03*
D43*
G01*
X1701800Y-4775200D03*
G01*
X1447800Y-4775200D03*
G01*
X1193800Y-4775200D03*
D42*
G01*
X6756400Y-2921000D03*
D43*
G01*
X6756400Y-2667000D03*
G01*
X6756400Y-2413000D03*
G01*
X6756400Y-2159000D03*
D42*
G01*
X2971800Y-4775200D03*
D43*
G01*
X2717800Y-4775200D03*
G01*
X2463800Y-4775200D03*
G01*
X2209800Y-4775200D03*
D44*
G01*
X736600Y-1143000D03*
G01*
X482600Y-1143000D03*
G01*
X228600Y-1143000D03*
D45*
G01*
X355600Y-355600D03*
G01*
X6705600Y-355600D03*
G01*
X6705600Y-4648200D03*
G01*
X355600Y-4648200D03*
D46*
G01*
X2006600Y-1752600D03*
G01*
X1752600Y-1752600D03*
G01*
X1600200Y-1270000D03*
D47*
G01*
X736600Y-1778000D03*
G01*
X3276600Y-1778000D03*
G01*
X4546600Y-1778000D03*
G01*
X736600Y-3251200D03*
G01*
X2006600Y-3251200D03*
G01*
X4546600Y-3251200D03*
G01*
X3276600Y-3251200D03*
G01*
X4786985Y-4325010D03*
G01*
X863600Y-2311400D03*
G01*
X863600Y-2641600D03*
G01*
X6096000Y-4648200D03*
G01*
X6502400Y-3632200D03*
D46*
G01*
X6070600Y-2057400D03*
D47*
G01*
X5588000Y-2006600D03*
D46*
G01*
X1143000Y-177800D03*
D47*
G01*
X3098800Y-889000D03*
D46*
G01*
X3352800Y-965200D03*
G01*
X2082800Y-330200D03*
G01*
X2362200Y-1041400D03*
G01*
X2946400Y-965200D03*
G01*
X5664200Y-1600200D03*
D47*
G01*
X4724400Y-2006600D03*
G01*
X4927600Y-1828800D03*
G01*
X5359400Y-1727200D03*
G01*
X5842000Y-1727200D03*
G01*
X4419600Y-971397D03*
G01*
X4775200Y-838200D03*
G01*
X4775200Y-1098397D03*
D46*
G01*
X4521200Y-691997D03*
G01*
X5283200Y-869797D03*
M02*
