G04 Layer: BottomSilkscreenLayer*
G04 EasyEDA v6.5.42, 2024-03-29 12:16:20*
G04 9a5be75d700b4a6385dc1106f27949ae,10*
G04 Gerber Generator version 0.2*
G04 Scale: 100 percent, Rotated: No, Reflected: No *
G04 Dimensions in millimeters *
G04 leading zeros omitted , absolute positions ,4 integer and 5 decimal *
%FSLAX45Y45*%
%MOMM*%

%ADD10C,0.4000*%
%ADD11C,0.2540*%

%LPD*%
G36*
X2182012Y-3765600D02*
G01*
X2181606Y-3768191D01*
X2181453Y-3783431D01*
X2300935Y-3904640D01*
X2300624Y-3922420D01*
X2315921Y-3922420D01*
X2317597Y-3922623D01*
X2318918Y-3923487D01*
X2324252Y-3928668D01*
X2336088Y-3941978D01*
X2336088Y-3949344D01*
X2315921Y-3949344D01*
X2315921Y-3922420D01*
X2300624Y-3922420D01*
X2299919Y-3962755D01*
X2336190Y-3962755D01*
X2337114Y-3965295D01*
X2353970Y-3965295D01*
X2354173Y-3964279D01*
X2354580Y-3963517D01*
X2355240Y-3962958D01*
X2356002Y-3962755D01*
X2358339Y-3964635D01*
X2372309Y-3977995D01*
X2395169Y-4000804D01*
X2459380Y-4066336D01*
X2459042Y-4066692D01*
X2477008Y-4066692D01*
X2539746Y-4000754D01*
X2558288Y-3981653D01*
X2567889Y-3972153D01*
X2568498Y-3971747D01*
X2568854Y-3972560D01*
X2568803Y-3978249D01*
X2564993Y-4019194D01*
X2557830Y-4102760D01*
X2555138Y-4129532D01*
X2553614Y-4140301D01*
X2552192Y-4141927D01*
X2477008Y-4066692D01*
X2459042Y-4066692D01*
X2392222Y-4137507D01*
X2372461Y-4158792D01*
X2370124Y-4138828D01*
X2357831Y-4008983D01*
X2353970Y-3965295D01*
X2337114Y-3965295D01*
X2337917Y-3971137D01*
X2342896Y-4020616D01*
X2349703Y-4092854D01*
X2356205Y-4167886D01*
X2356256Y-4175150D01*
X2342276Y-4189882D01*
X2375306Y-4189882D01*
X2375306Y-4174185D01*
X2439060Y-4106773D01*
X2457907Y-4087215D01*
X2468219Y-4077055D01*
X2472029Y-4080357D01*
X2494940Y-4102760D01*
X2553055Y-4161078D01*
X2545588Y-4241749D01*
X2417165Y-4242968D01*
X2415641Y-4233367D01*
X2414676Y-4228947D01*
X2411577Y-4218889D01*
X2405380Y-4205274D01*
X2392883Y-4196842D01*
X2384856Y-4192727D01*
X2381707Y-4191609D01*
X2375306Y-4189882D01*
X2342276Y-4189882D01*
X2212695Y-4326432D01*
X2218029Y-4332224D01*
X2220823Y-4334408D01*
X2221636Y-4334764D01*
X2229104Y-4327652D01*
X2247239Y-4309008D01*
X2321255Y-4231030D01*
X2322243Y-4235399D01*
X2345182Y-4235399D01*
X2346198Y-4230319D01*
X2348687Y-4225036D01*
X2352344Y-4218838D01*
X2358542Y-4215180D01*
X2363876Y-4212590D01*
X2368804Y-4211777D01*
X2374036Y-4212590D01*
X2380183Y-4215130D01*
X2387295Y-4218635D01*
X2394661Y-4234129D01*
X2391816Y-4247032D01*
X2380386Y-4258462D01*
X2365349Y-4261256D01*
X2350262Y-4251960D01*
X2347671Y-4246168D01*
X2345690Y-4240580D01*
X2345182Y-4235399D01*
X2322243Y-4235399D01*
X2325116Y-4247184D01*
X2326894Y-4252366D01*
X2328824Y-4257192D01*
X2330754Y-4261053D01*
X2335174Y-4268622D01*
X2342692Y-4273702D01*
X2346299Y-4275836D01*
X2350617Y-4277969D01*
X2355037Y-4279798D01*
X2359050Y-4281119D01*
X2367940Y-4283506D01*
X2385263Y-4280611D01*
X2398064Y-4271772D01*
X2401722Y-4268774D01*
X2404770Y-4265879D01*
X2406802Y-4263491D01*
X2410256Y-4258564D01*
X2524302Y-4258564D01*
X2524302Y-4283202D01*
X2553411Y-4283202D01*
X2553411Y-4260646D01*
X2561894Y-4248454D01*
X2565603Y-4200296D01*
X2567381Y-4181449D01*
X2567838Y-4178401D01*
X2574340Y-4184446D01*
X2609748Y-4219803D01*
X2726029Y-4337913D01*
X2735834Y-4328109D01*
X2593848Y-4184294D01*
X2568905Y-4158538D01*
X2586990Y-3950665D01*
X2648559Y-3885996D01*
X2746146Y-3782923D01*
X2746146Y-3767836D01*
X2744470Y-3767836D01*
X2742590Y-3769461D01*
X2725928Y-3786276D01*
X2674366Y-3840124D01*
X2590393Y-3928770D01*
X2589834Y-3923944D01*
X2589733Y-3920642D01*
X2590342Y-3908501D01*
X2592628Y-3883202D01*
X2611678Y-3881831D01*
X2611678Y-3866387D01*
X2594305Y-3866387D01*
X2588717Y-3852926D01*
X2577439Y-3843172D01*
X2570429Y-3838244D01*
X2567736Y-3836771D01*
X2562402Y-3834333D01*
X2562402Y-3823817D01*
X2546400Y-3823817D01*
X2538628Y-3823614D01*
X2519527Y-3822242D01*
X2490673Y-3818534D01*
X2490673Y-3812641D01*
X2412796Y-3812641D01*
X2410612Y-3821023D01*
X2399792Y-3822598D01*
X2394508Y-3823563D01*
X2381351Y-3826764D01*
X2375772Y-3828338D01*
X2474976Y-3828338D01*
X2474976Y-3835044D01*
X2427935Y-3835044D01*
X2427935Y-3828338D01*
X2375772Y-3828338D01*
X2361031Y-3832860D01*
X2337917Y-3848455D01*
X2328367Y-3841750D01*
X2313432Y-3841750D01*
X2302611Y-3852570D01*
X2299716Y-3864254D01*
X2300612Y-3866438D01*
X2346706Y-3866438D01*
X2353360Y-3856329D01*
X2362047Y-3851249D01*
X2365908Y-3849217D01*
X2375103Y-3845407D01*
X2385720Y-3842004D01*
X2397048Y-3839362D01*
X2412238Y-3836873D01*
X2412238Y-3852976D01*
X2490673Y-3852976D01*
X2490673Y-3835044D01*
X2504135Y-3836568D01*
X2513177Y-3837889D01*
X2535732Y-3842105D01*
X2534361Y-3865270D01*
X2355235Y-3866387D01*
X2562402Y-3866387D01*
X2562504Y-3857091D01*
X2563063Y-3853484D01*
X2563469Y-3852976D01*
X2564485Y-3853484D01*
X2568956Y-3857040D01*
X2579217Y-3866286D01*
X2300612Y-3866438D01*
X2305304Y-3877818D01*
X2313564Y-3882085D01*
X2576423Y-3882085D01*
X2574137Y-3913378D01*
X2572461Y-3931361D01*
X2570226Y-3949700D01*
X2469388Y-4056481D01*
X2433726Y-4021074D01*
X2415082Y-4001871D01*
X2410002Y-3995877D01*
X2410002Y-3994150D01*
X2492908Y-3994150D01*
X2492908Y-3962755D01*
X2394356Y-3962755D01*
X2394356Y-3981704D01*
X2356256Y-3943807D01*
X2356256Y-3908551D01*
X2347264Y-3906215D01*
X2347264Y-3882085D01*
X2313564Y-3882085D01*
X2318715Y-3884777D01*
X2329129Y-3882745D01*
X2330348Y-3885996D01*
X2330856Y-3887927D01*
X2331466Y-3894328D01*
X2331567Y-3906774D01*
X2320747Y-3906774D01*
X2207666Y-3791407D01*
G37*
G36*
X2365806Y-4220464D02*
G01*
X2353970Y-4229760D01*
X2353970Y-4241495D01*
X2363724Y-4251858D01*
X2374392Y-4251858D01*
X2385364Y-4240834D01*
X2385364Y-4231487D01*
X2374392Y-4220464D01*
G37*
G36*
X2232964Y-4451299D02*
G01*
X2232964Y-4565548D01*
X2699105Y-4565548D01*
X2699105Y-4451299D01*
G37*
G36*
X4731816Y-1741830D02*
G01*
X4723028Y-1743557D01*
X4714240Y-1746554D01*
X4706874Y-1751228D01*
X4700320Y-1757934D01*
X4695444Y-1765960D01*
X4692243Y-1774545D01*
X4692243Y-1853285D01*
X4774336Y-1853285D01*
X4776419Y-1856181D01*
X4779060Y-1856181D01*
X4779060Y-1857654D01*
X4781956Y-1857654D01*
X4781956Y-1859127D01*
X4784598Y-1859127D01*
X4786680Y-1862074D01*
X4789322Y-1862074D01*
X4789322Y-1863547D01*
X4791913Y-1863547D01*
X4793996Y-1866442D01*
X4796637Y-1866442D01*
X4796637Y-1867916D01*
X4799533Y-1867916D01*
X4799533Y-1869389D01*
X4802174Y-1869389D01*
X4804257Y-1872335D01*
X4806899Y-1872335D01*
X4806899Y-1873757D01*
X4809794Y-1873757D01*
X4809794Y-1875231D01*
X4812436Y-1875231D01*
X4814519Y-1878177D01*
X4817110Y-1878177D01*
X4817110Y-1879650D01*
X4819751Y-1879650D01*
X4821834Y-1882546D01*
X4824476Y-1882546D01*
X4824476Y-1884019D01*
X4827371Y-1884019D01*
X4827371Y-1885492D01*
X4830013Y-1885492D01*
X4832096Y-1888439D01*
X4834686Y-1888439D01*
X4834686Y-1889912D01*
X4837633Y-1889912D01*
X4837633Y-1891334D01*
X4840224Y-1891334D01*
X4842357Y-1894281D01*
X4844948Y-1894281D01*
X4844948Y-1895754D01*
X4847590Y-1895754D01*
X4849672Y-1898700D01*
X4852263Y-1898700D01*
X4852263Y-1900123D01*
X4855210Y-1900123D01*
X4855210Y-1901596D01*
X4857800Y-1901596D01*
X4859934Y-1904542D01*
X4862525Y-1904542D01*
X4862525Y-1906016D01*
X4865166Y-1906016D01*
X4867249Y-1908911D01*
X4869840Y-1908911D01*
X4869840Y-1910384D01*
X4872786Y-1910384D01*
X4872786Y-1911857D01*
X4875377Y-1911857D01*
X4877511Y-1914804D01*
X4880102Y-1914804D01*
X4880102Y-1916277D01*
X4883048Y-1916277D01*
X4883048Y-1917700D01*
X4885639Y-1917700D01*
X4887772Y-1920646D01*
X4890363Y-1920646D01*
X4890363Y-1922119D01*
X4892954Y-1922119D01*
X4895088Y-1925066D01*
X4897678Y-1925066D01*
X4897678Y-1926488D01*
X4900625Y-1926488D01*
X4900625Y-1927961D01*
X4903216Y-1927961D01*
X4905349Y-1930907D01*
X4907940Y-1930907D01*
X4907940Y-1932381D01*
X4910886Y-1932381D01*
X4910886Y-1933854D01*
X4913477Y-1933854D01*
X4915611Y-1936750D01*
X4918202Y-1936750D01*
X4918202Y-1938223D01*
X4920792Y-1938223D01*
X4922926Y-1941169D01*
X4925517Y-1941169D01*
X4925517Y-1942642D01*
X4928463Y-1942642D01*
X4928463Y-1944065D01*
X4931054Y-1944065D01*
X4933188Y-1947011D01*
X4935778Y-1947011D01*
X4935778Y-1948484D01*
X4938369Y-1948484D01*
X4940503Y-1951431D01*
X4943094Y-1951431D01*
X4943094Y-1952853D01*
X4946040Y-1952853D01*
X4946040Y-1954326D01*
X4948631Y-1954326D01*
X4950764Y-1957273D01*
X4953355Y-1957273D01*
X4953355Y-1958746D01*
X4956302Y-1958746D01*
X4956302Y-1960219D01*
X4958892Y-1960219D01*
X4961026Y-1963115D01*
X4963617Y-1963115D01*
X4963617Y-1964588D01*
X4966208Y-1964588D01*
X4968341Y-1967534D01*
X4970932Y-1967534D01*
X4970932Y-1969007D01*
X4973878Y-1969007D01*
X4973878Y-1970481D01*
X4976469Y-1970481D01*
X4978603Y-1973376D01*
X4981194Y-1973376D01*
X4981194Y-1974850D01*
X4984140Y-1974850D01*
X4984140Y-1976323D01*
X4986731Y-1976323D01*
X4988814Y-1979218D01*
X4991455Y-1979218D01*
X4991455Y-1980692D01*
X4994046Y-1980692D01*
X4996180Y-1983638D01*
X4998770Y-1983638D01*
X4998770Y-1985111D01*
X5001717Y-1985111D01*
X5001717Y-1986584D01*
X5004308Y-1986584D01*
X5006441Y-1989480D01*
X5009032Y-1989480D01*
X5009032Y-1990953D01*
X5011928Y-1990953D01*
X5011928Y-1992426D01*
X5014569Y-1992426D01*
X5016652Y-1995373D01*
X5019294Y-1995373D01*
X5019294Y-1996795D01*
X5021884Y-1996795D01*
X5024018Y-1999742D01*
X5026609Y-1999742D01*
X5026609Y-2001215D01*
X5029504Y-2001215D01*
X5029504Y-2002688D01*
X5032146Y-2002688D01*
X5034229Y-2005634D01*
X5036870Y-2005634D01*
X5036870Y-2007057D01*
X5039461Y-2007057D01*
X5041595Y-2010003D01*
X5044186Y-2010003D01*
X5044186Y-2011476D01*
X5047081Y-2011476D01*
X5047081Y-2012950D01*
X5049723Y-2012950D01*
X5051806Y-2015845D01*
X5054447Y-2015845D01*
X5054447Y-2017318D01*
X5057343Y-2017318D01*
X5057343Y-2018792D01*
X5059984Y-2018792D01*
X5062067Y-2021738D01*
X5064709Y-2021738D01*
X5064709Y-2023211D01*
X5067300Y-2023211D01*
X5069382Y-2026107D01*
X5072024Y-2026107D01*
X5072024Y-2027580D01*
X5074920Y-2027580D01*
X5074920Y-2029053D01*
X5077561Y-2029053D01*
X5079644Y-2032000D01*
X5082286Y-2032000D01*
X5082286Y-2033422D01*
X5085181Y-2033422D01*
X5085181Y-2034895D01*
X5087823Y-2034895D01*
X5089906Y-2037842D01*
X5092496Y-2037842D01*
X5092496Y-2039315D01*
X5095138Y-2039315D01*
X5097221Y-2042210D01*
X5099862Y-2042210D01*
X5099862Y-2043684D01*
X5102758Y-2043684D01*
X5102758Y-2045157D01*
X5105400Y-2045157D01*
X5107482Y-2048103D01*
X5110073Y-2048103D01*
X5110073Y-2049576D01*
X5113020Y-2049576D01*
X5113020Y-2050999D01*
X5115610Y-2050999D01*
X5117744Y-2053945D01*
X5120335Y-2053945D01*
X5120335Y-2055418D01*
X5122976Y-2055418D01*
X5125059Y-2058365D01*
X5127650Y-2058365D01*
X5127650Y-2059787D01*
X5130596Y-2059787D01*
X5130596Y-2061260D01*
X5133187Y-2061260D01*
X5135321Y-2064207D01*
X5137912Y-2064207D01*
X5137912Y-2065680D01*
X5140553Y-2065680D01*
X5142636Y-2068575D01*
X5145278Y-2068575D01*
X5145278Y-2070049D01*
X5148173Y-2070049D01*
X5148173Y-2071522D01*
X5150764Y-2071522D01*
X5152898Y-2074468D01*
X5155488Y-2074468D01*
X5155488Y-2075942D01*
X5158435Y-2075942D01*
X5158435Y-2077364D01*
X5161026Y-2077364D01*
X5163159Y-2080310D01*
X5165750Y-2080310D01*
X5165750Y-2081784D01*
X5168392Y-2081784D01*
X5170474Y-2084730D01*
X5173065Y-2084730D01*
X5173065Y-2086152D01*
X5176012Y-2086152D01*
X5176012Y-2087625D01*
X5178602Y-2087625D01*
X5180736Y-2090572D01*
X5183327Y-2090572D01*
X5183327Y-2092045D01*
X5186273Y-2092045D01*
X5186273Y-2093518D01*
X5188864Y-2093518D01*
X5190998Y-2096414D01*
X5193588Y-2096414D01*
X5193588Y-2097887D01*
X5196179Y-2097887D01*
X5198313Y-2100834D01*
X5200904Y-2100834D01*
X5200904Y-2102307D01*
X5203850Y-2102307D01*
X5203850Y-2103729D01*
X5206441Y-2103729D01*
X5208574Y-2106676D01*
X5211165Y-2106676D01*
X5211165Y-2108149D01*
X5213756Y-2108149D01*
X5215890Y-2111095D01*
X5218480Y-2111095D01*
X5218480Y-2112518D01*
X5221427Y-2112518D01*
X5221427Y-2113991D01*
X5224018Y-2113991D01*
X5226151Y-2116937D01*
X5228742Y-2116937D01*
X5228742Y-2118410D01*
X5231688Y-2118410D01*
X5231688Y-2119884D01*
X5234279Y-2119884D01*
X5236413Y-2122779D01*
X5239004Y-2122779D01*
X5239004Y-2124252D01*
X5241594Y-2124252D01*
X5243728Y-2127199D01*
X5246319Y-2127199D01*
X5246319Y-2128672D01*
X5249265Y-2128672D01*
X5249265Y-2130145D01*
X5251856Y-2130145D01*
X5253990Y-2133041D01*
X5256580Y-2133041D01*
X5256580Y-2134514D01*
X5259527Y-2134514D01*
X5259527Y-2135987D01*
X5262118Y-2135987D01*
X5264251Y-2138934D01*
X5266842Y-2138934D01*
X5266842Y-2140356D01*
X5269433Y-2140356D01*
X5271566Y-2143302D01*
X5274157Y-2143302D01*
X5274157Y-2144776D01*
X5277104Y-2144776D01*
X5277104Y-2146249D01*
X5279694Y-2146249D01*
X5281828Y-2149144D01*
X5284419Y-2149144D01*
X5284419Y-2150618D01*
X5287365Y-2150618D01*
X5287365Y-2152091D01*
X5289956Y-2152091D01*
X5292039Y-2155037D01*
X5294680Y-2155037D01*
X5294680Y-2156510D01*
X5297271Y-2156510D01*
X5299405Y-2159406D01*
X5301996Y-2159406D01*
X5301996Y-2160879D01*
X5304942Y-2160879D01*
X5304942Y-2162352D01*
X5307533Y-2162352D01*
X5309616Y-2165299D01*
X5312257Y-2165299D01*
X5312257Y-2166721D01*
X5314848Y-2166721D01*
X5316982Y-2169668D01*
X5319572Y-2169668D01*
X5319572Y-2171141D01*
X5322519Y-2171141D01*
X5322519Y-2172614D01*
X5325110Y-2172614D01*
X5327192Y-2175510D01*
X5329834Y-2175510D01*
X5329834Y-2176983D01*
X5332730Y-2176983D01*
X5332730Y-2178456D01*
X5335371Y-2178456D01*
X5337454Y-2181402D01*
X5340096Y-2181402D01*
X5340096Y-2182876D01*
X5342686Y-2182876D01*
X5344820Y-2185771D01*
X5347411Y-2185771D01*
X5347411Y-2187244D01*
X5350306Y-2187244D01*
X5350306Y-2188718D01*
X5352948Y-2188718D01*
X5355031Y-2191664D01*
X5357672Y-2191664D01*
X5357672Y-2193086D01*
X5360568Y-2193086D01*
X5360568Y-2194560D01*
X5363210Y-2194560D01*
X5365292Y-2197506D01*
X5367934Y-2197506D01*
X5367934Y-2198979D01*
X5370525Y-2198979D01*
X5372608Y-2201875D01*
X5375249Y-2201875D01*
X5375249Y-2203348D01*
X5378145Y-2203348D01*
X5378145Y-2204821D01*
X5380786Y-2204821D01*
X5382869Y-2207768D01*
X5385511Y-2207768D01*
X5385511Y-2209241D01*
X5388102Y-2209241D01*
X5390184Y-2212136D01*
X5392826Y-2212136D01*
X5392826Y-2213610D01*
X5395722Y-2213610D01*
X5395722Y-2215083D01*
X5398363Y-2215083D01*
X5400446Y-2218029D01*
X5403088Y-2218029D01*
X5403088Y-2219452D01*
X5405983Y-2219452D01*
X5405983Y-2220925D01*
X5408574Y-2220925D01*
X5410708Y-2223871D01*
X5413298Y-2223871D01*
X5413298Y-2225344D01*
X5415940Y-2225344D01*
X5418023Y-2228240D01*
X5420664Y-2228240D01*
X5420664Y-2229713D01*
X5423560Y-2229713D01*
X5423560Y-2231186D01*
X5426202Y-2231186D01*
X5428284Y-2234133D01*
X5430875Y-2234133D01*
X5430875Y-2235606D01*
X5433822Y-2235606D01*
X5433822Y-2237079D01*
X5436412Y-2237079D01*
X5438546Y-2239975D01*
X5441137Y-2239975D01*
X5441137Y-2241448D01*
X5443778Y-2241448D01*
X5445861Y-2244394D01*
X5448452Y-2244394D01*
X5448452Y-2245868D01*
X5451398Y-2245868D01*
X5451398Y-2247290D01*
X5453989Y-2247290D01*
X5456123Y-2250236D01*
X5458714Y-2250236D01*
X5458714Y-2251710D01*
X5461660Y-2251710D01*
X5461660Y-2253183D01*
X5464251Y-2253183D01*
X5466384Y-2256078D01*
X5468975Y-2256078D01*
X5468975Y-2257552D01*
X5471566Y-2257552D01*
X5473700Y-2260498D01*
X5476290Y-2260498D01*
X5476290Y-2261971D01*
X5479237Y-2261971D01*
X5479237Y-2263444D01*
X5481828Y-2263444D01*
X5483961Y-2266340D01*
X5486552Y-2266340D01*
X5486552Y-2267813D01*
X5489143Y-2267813D01*
X5491276Y-2270760D01*
X5493867Y-2270760D01*
X5493867Y-2272233D01*
X5496814Y-2272233D01*
X5496814Y-2273655D01*
X5499404Y-2273655D01*
X5501538Y-2276602D01*
X5504129Y-2276602D01*
X5504129Y-2278075D01*
X5507075Y-2278075D01*
X5507075Y-2279548D01*
X5509666Y-2279548D01*
X5511800Y-2282444D01*
X5514390Y-2282444D01*
X5514390Y-2283917D01*
X5516981Y-2283917D01*
X5519115Y-2286863D01*
X5521706Y-2286863D01*
X5521706Y-2288336D01*
X5524652Y-2288336D01*
X5524652Y-2289810D01*
X5527243Y-2289810D01*
X5529376Y-2292705D01*
X5531967Y-2292705D01*
X5531967Y-2294178D01*
X5534914Y-2294178D01*
X5534914Y-2295652D01*
X5537504Y-2295652D01*
X5539638Y-2298598D01*
X5542229Y-2298598D01*
X5542229Y-2300020D01*
X5544820Y-2300020D01*
X5546953Y-2302967D01*
X5549544Y-2302967D01*
X5549544Y-2304440D01*
X5552490Y-2304440D01*
X5552490Y-2305913D01*
X5555081Y-2305913D01*
X5557215Y-2308809D01*
X5559806Y-2308809D01*
X5559806Y-2310282D01*
X5562396Y-2310282D01*
X5564530Y-2313228D01*
X5567121Y-2313228D01*
X5567121Y-2314702D01*
X5570067Y-2314702D01*
X5570067Y-2316175D01*
X5572658Y-2316175D01*
X5574792Y-2319070D01*
X5577382Y-2319070D01*
X5577382Y-2320544D01*
X5580329Y-2320544D01*
X5580329Y-2322017D01*
X5582920Y-2322017D01*
X5585002Y-2324963D01*
X5587644Y-2324963D01*
X5587644Y-2326386D01*
X5590235Y-2326386D01*
X5592368Y-2329332D01*
X5594959Y-2329332D01*
X5594959Y-2330805D01*
X5597906Y-2330805D01*
X5597906Y-2332278D01*
X5600496Y-2332278D01*
X5602579Y-2335174D01*
X5605221Y-2335174D01*
X5605221Y-2336647D01*
X5608116Y-2336647D01*
X5608116Y-2338120D01*
X5610758Y-2338120D01*
X5612841Y-2341067D01*
X5615482Y-2341067D01*
X5615482Y-2342540D01*
X5618073Y-2342540D01*
X5620207Y-2345436D01*
X5622798Y-2345436D01*
X5622798Y-2346909D01*
X5625693Y-2346909D01*
X5625693Y-2348382D01*
X5628335Y-2348382D01*
X5630418Y-2351328D01*
X5633059Y-2351328D01*
X5633059Y-2352802D01*
X5635955Y-2352802D01*
X5635955Y-2354224D01*
X5638596Y-2354224D01*
X5640679Y-2357170D01*
X5643321Y-2357170D01*
X5643321Y-2358644D01*
X5645912Y-2358644D01*
X5647994Y-2361590D01*
X5650636Y-2361590D01*
X5650636Y-2363012D01*
X5653532Y-2363012D01*
X5653532Y-2364486D01*
X5656173Y-2364486D01*
X5658256Y-2367432D01*
X5660898Y-2367432D01*
X5660898Y-2368905D01*
X5663488Y-2368905D01*
X5665571Y-2371801D01*
X5668213Y-2371801D01*
X5668213Y-2373274D01*
X5671108Y-2373274D01*
X5671108Y-2374747D01*
X5673750Y-2374747D01*
X5675833Y-2377694D01*
X5678474Y-2377694D01*
X5678474Y-2379167D01*
X5681370Y-2379167D01*
X5681370Y-2380589D01*
X5684012Y-2380589D01*
X5686094Y-2383536D01*
X5688685Y-2383536D01*
X5688685Y-2385009D01*
X5691327Y-2385009D01*
X5693410Y-2387955D01*
X5696051Y-2387955D01*
X5696051Y-2389378D01*
X5698947Y-2389378D01*
X5698947Y-2390851D01*
X5701588Y-2390851D01*
X5703671Y-2393797D01*
X5706262Y-2393797D01*
X5706262Y-2395270D01*
X5709208Y-2395270D01*
X5709208Y-2396744D01*
X5711799Y-2396744D01*
X5713933Y-2399639D01*
X5716524Y-2399639D01*
X5716524Y-2401112D01*
X5719165Y-2401112D01*
X5721248Y-2404059D01*
X5723890Y-2404059D01*
X5723890Y-2405532D01*
X5726785Y-2405532D01*
X5726785Y-2406954D01*
X5729427Y-2406954D01*
X5731510Y-2409901D01*
X5734100Y-2409901D01*
X5734100Y-2411374D01*
X5737047Y-2411374D01*
X5737047Y-2412847D01*
X5739638Y-2412847D01*
X5741771Y-2415743D01*
X5744362Y-2415743D01*
X5744362Y-2417216D01*
X5747004Y-2417216D01*
X5749086Y-2420162D01*
X5751677Y-2420162D01*
X5751677Y-2421636D01*
X5754624Y-2421636D01*
X5754624Y-2423109D01*
X5757214Y-2423109D01*
X5759348Y-2426004D01*
X5761939Y-2426004D01*
X5761939Y-2427478D01*
X5764580Y-2427478D01*
X5766663Y-2430424D01*
X5769254Y-2430424D01*
X5769254Y-2431897D01*
X5772200Y-2431897D01*
X5772200Y-2433320D01*
X5774791Y-2433320D01*
X5776925Y-2436266D01*
X5779516Y-2436266D01*
X5779516Y-2437739D01*
X5782462Y-2437739D01*
X5782462Y-2439212D01*
X5785053Y-2439212D01*
X5787186Y-2442108D01*
X5789777Y-2442108D01*
X5789777Y-2443581D01*
X5792368Y-2443581D01*
X5794502Y-2446528D01*
X5797092Y-2446528D01*
X5797092Y-2448001D01*
X5800039Y-2448001D01*
X5800039Y-2449474D01*
X5802630Y-2449474D01*
X5804763Y-2452370D01*
X5807354Y-2452370D01*
X5807354Y-2453843D01*
X5810300Y-2453843D01*
X5810300Y-2455316D01*
X5812891Y-2455316D01*
X5815025Y-2458262D01*
X5817616Y-2458262D01*
X5817616Y-2459685D01*
X5820206Y-2459685D01*
X5822340Y-2462631D01*
X5824931Y-2462631D01*
X5824931Y-2464104D01*
X5827877Y-2464104D01*
X5827877Y-2465578D01*
X5830468Y-2465578D01*
X5832602Y-2468524D01*
X5835192Y-2468524D01*
X5835192Y-2469946D01*
X5837783Y-2469946D01*
X5839917Y-2472893D01*
X5842508Y-2472893D01*
X5842508Y-2474366D01*
X5845454Y-2474366D01*
X5845454Y-2475839D01*
X5848045Y-2475839D01*
X5850178Y-2478735D01*
X5852769Y-2478735D01*
X5852769Y-2480208D01*
X5855716Y-2480208D01*
X5855716Y-2481681D01*
X5858306Y-2481681D01*
X5860440Y-2484628D01*
X5863031Y-2484628D01*
X5863031Y-2486101D01*
X5865622Y-2486101D01*
X5867755Y-2488996D01*
X5870346Y-2488996D01*
X5870346Y-2490470D01*
X5873292Y-2490470D01*
X5873292Y-2493416D01*
X5870346Y-2493416D01*
X5870346Y-2494889D01*
X5867755Y-2494889D01*
X5865622Y-2497785D01*
X5863031Y-2497785D01*
X5863031Y-2499258D01*
X5860440Y-2499258D01*
X5858306Y-2502204D01*
X5855716Y-2502204D01*
X5855716Y-2503678D01*
X5852769Y-2503678D01*
X5852769Y-2505100D01*
X5850178Y-2505100D01*
X5848045Y-2508046D01*
X5845454Y-2508046D01*
X5845454Y-2509520D01*
X5842508Y-2509520D01*
X5842508Y-2510993D01*
X5839917Y-2510993D01*
X5837783Y-2513888D01*
X5835192Y-2513888D01*
X5835192Y-2515362D01*
X5832602Y-2515362D01*
X5830468Y-2518308D01*
X5827877Y-2518308D01*
X5827877Y-2519781D01*
X5824931Y-2519781D01*
X5824931Y-2521254D01*
X5822340Y-2521254D01*
X5820206Y-2524150D01*
X5817616Y-2524150D01*
X5817616Y-2525623D01*
X5815025Y-2525623D01*
X5812891Y-2528570D01*
X5810300Y-2528570D01*
X5810300Y-2530043D01*
X5807354Y-2530043D01*
X5807354Y-2531465D01*
X5804763Y-2531465D01*
X5802630Y-2534412D01*
X5800039Y-2534412D01*
X5800039Y-2535885D01*
X5797092Y-2535885D01*
X5797092Y-2537358D01*
X5794502Y-2537358D01*
X5792368Y-2540254D01*
X5789777Y-2540254D01*
X5789777Y-2541727D01*
X5787186Y-2541727D01*
X5785053Y-2544673D01*
X5782462Y-2544673D01*
X5782462Y-2546146D01*
X5779516Y-2546146D01*
X5779516Y-2547620D01*
X5776925Y-2547620D01*
X5774791Y-2550515D01*
X5772200Y-2550515D01*
X5772200Y-2551988D01*
X5769254Y-2551988D01*
X5769254Y-2553462D01*
X5766663Y-2553462D01*
X5764580Y-2556408D01*
X5761939Y-2556408D01*
X5761939Y-2557830D01*
X5759348Y-2557830D01*
X5757214Y-2560777D01*
X5754624Y-2560777D01*
X5754624Y-2562250D01*
X5751677Y-2562250D01*
X5751677Y-2563723D01*
X5749086Y-2563723D01*
X5747004Y-2566619D01*
X5744362Y-2566619D01*
X5744362Y-2568092D01*
X5741771Y-2568092D01*
X5739638Y-2571038D01*
X5737047Y-2571038D01*
X5737047Y-2572512D01*
X5734100Y-2572512D01*
X5734100Y-2573985D01*
X5731510Y-2573985D01*
X5729427Y-2576880D01*
X5726785Y-2576880D01*
X5726785Y-2578354D01*
X5723890Y-2578354D01*
X5723890Y-2579827D01*
X5721248Y-2579827D01*
X5719165Y-2582773D01*
X5716524Y-2582773D01*
X5716524Y-2584246D01*
X5713933Y-2584246D01*
X5711799Y-2587142D01*
X5709208Y-2587142D01*
X5709208Y-2588615D01*
X5706262Y-2588615D01*
X5706262Y-2590088D01*
X5703671Y-2590088D01*
X5701588Y-2593035D01*
X5698947Y-2593035D01*
X5698947Y-2594457D01*
X5696051Y-2594457D01*
X5696051Y-2595930D01*
X5693410Y-2595930D01*
X5691327Y-2598877D01*
X5688685Y-2598877D01*
X5688685Y-2600350D01*
X5686094Y-2600350D01*
X5684012Y-2603246D01*
X5681370Y-2603246D01*
X5681370Y-2604719D01*
X5678474Y-2604719D01*
X5678474Y-2606192D01*
X5675833Y-2606192D01*
X5673750Y-2609138D01*
X5671108Y-2609138D01*
X5671108Y-2610612D01*
X5668213Y-2610612D01*
X5668213Y-2612034D01*
X5665571Y-2612034D01*
X5663488Y-2614980D01*
X5660898Y-2614980D01*
X5660898Y-2616454D01*
X5658256Y-2616454D01*
X5656173Y-2619400D01*
X5653532Y-2619400D01*
X5653532Y-2620822D01*
X5650636Y-2620822D01*
X5650636Y-2622296D01*
X5647994Y-2622296D01*
X5645912Y-2625242D01*
X5643321Y-2625242D01*
X5643321Y-2626715D01*
X5640679Y-2626715D01*
X5638596Y-2629611D01*
X5635955Y-2629611D01*
X5635955Y-2631084D01*
X5633059Y-2631084D01*
X5633059Y-2632557D01*
X5630418Y-2632557D01*
X5628335Y-2635504D01*
X5625693Y-2635504D01*
X5625693Y-2636977D01*
X5622798Y-2636977D01*
X5622798Y-2638399D01*
X5620207Y-2638399D01*
X5618073Y-2641346D01*
X5615482Y-2641346D01*
X5615482Y-2642819D01*
X5612841Y-2642819D01*
X5610758Y-2645765D01*
X5608116Y-2645765D01*
X5608116Y-2647188D01*
X5605221Y-2647188D01*
X5605221Y-2648661D01*
X5602579Y-2648661D01*
X5600496Y-2651607D01*
X5597906Y-2651607D01*
X5597906Y-2653080D01*
X5594959Y-2653080D01*
X5594959Y-2654554D01*
X5592368Y-2654554D01*
X5590235Y-2657449D01*
X5587644Y-2657449D01*
X5587644Y-2658922D01*
X5585002Y-2658922D01*
X5582920Y-2661869D01*
X5580329Y-2661869D01*
X5580329Y-2663342D01*
X5577382Y-2663342D01*
X5577382Y-2664815D01*
X5574792Y-2664815D01*
X5572658Y-2667711D01*
X5570067Y-2667711D01*
X5570067Y-2669184D01*
X5567426Y-2669184D01*
X5565343Y-2672130D01*
X5562752Y-2672130D01*
X5562752Y-2673604D01*
X5559806Y-2673604D01*
X5559806Y-2675026D01*
X5557215Y-2675026D01*
X5555081Y-2677972D01*
X5552490Y-2677972D01*
X5552490Y-2679446D01*
X5549544Y-2679446D01*
X5549544Y-2680919D01*
X5546953Y-2680919D01*
X5544820Y-2683814D01*
X5542229Y-2683814D01*
X5542229Y-2685288D01*
X5539638Y-2685288D01*
X5537504Y-2688234D01*
X5534914Y-2688234D01*
X5534914Y-2689707D01*
X5531967Y-2689707D01*
X5531967Y-2691180D01*
X5529376Y-2691180D01*
X5527243Y-2694076D01*
X5524652Y-2694076D01*
X5524652Y-2695549D01*
X5521706Y-2695549D01*
X5521706Y-2697022D01*
X5519115Y-2697022D01*
X5516981Y-2699969D01*
X5514390Y-2699969D01*
X5514390Y-2701391D01*
X5511800Y-2701391D01*
X5509666Y-2704338D01*
X5507075Y-2704338D01*
X5507075Y-2705811D01*
X5504129Y-2705811D01*
X5504129Y-2707284D01*
X5501538Y-2707284D01*
X5499404Y-2710180D01*
X5496814Y-2710180D01*
X5496814Y-2711653D01*
X5493867Y-2711653D01*
X5493867Y-2713126D01*
X5491276Y-2713126D01*
X5489143Y-2716072D01*
X5486552Y-2716072D01*
X5486552Y-2717546D01*
X5483961Y-2717546D01*
X5481828Y-2720441D01*
X5479237Y-2720441D01*
X5479237Y-2721914D01*
X5476290Y-2721914D01*
X5476290Y-2723388D01*
X5473700Y-2723388D01*
X5471566Y-2726334D01*
X5468975Y-2726334D01*
X5468975Y-2727756D01*
X5466384Y-2727756D01*
X5464251Y-2730703D01*
X5461660Y-2730703D01*
X5461660Y-2732176D01*
X5458714Y-2732176D01*
X5458714Y-2733649D01*
X5456123Y-2733649D01*
X5453989Y-2736545D01*
X5451398Y-2736545D01*
X5451398Y-2738018D01*
X5448452Y-2738018D01*
X5448452Y-2739491D01*
X5445861Y-2739491D01*
X5443778Y-2742438D01*
X5441137Y-2742438D01*
X5441137Y-2743911D01*
X5438546Y-2743911D01*
X5436412Y-2746806D01*
X5433822Y-2746806D01*
X5433822Y-2748280D01*
X5430875Y-2748280D01*
X5430875Y-2749753D01*
X5428284Y-2749753D01*
X5426202Y-2752699D01*
X5423560Y-2752699D01*
X5423560Y-2754122D01*
X5420664Y-2754122D01*
X5420664Y-2755595D01*
X5418023Y-2755595D01*
X5415940Y-2758541D01*
X5413298Y-2758541D01*
X5413298Y-2760014D01*
X5410708Y-2760014D01*
X5408574Y-2762910D01*
X5405983Y-2762910D01*
X5405983Y-2764383D01*
X5403088Y-2764383D01*
X5403088Y-2765856D01*
X5400446Y-2765856D01*
X5398363Y-2768803D01*
X5395722Y-2768803D01*
X5395722Y-2770276D01*
X5393131Y-2770276D01*
X5390997Y-2773172D01*
X5388406Y-2773172D01*
X5388406Y-2774645D01*
X5385511Y-2774645D01*
X5385511Y-2776118D01*
X5382869Y-2776118D01*
X5380786Y-2779064D01*
X5378145Y-2779064D01*
X5378145Y-2780538D01*
X5375249Y-2780538D01*
X5375249Y-2781960D01*
X5372608Y-2781960D01*
X5370525Y-2784906D01*
X5367934Y-2784906D01*
X5367934Y-2786380D01*
X5365292Y-2786380D01*
X5363210Y-2789326D01*
X5360568Y-2789326D01*
X5360568Y-2790748D01*
X5357672Y-2790748D01*
X5357672Y-2792222D01*
X5355031Y-2792222D01*
X5352948Y-2795168D01*
X5350306Y-2795168D01*
X5350306Y-2796641D01*
X5347411Y-2796641D01*
X5347411Y-2798114D01*
X5344820Y-2798114D01*
X5342686Y-2801010D01*
X5340096Y-2801010D01*
X5340096Y-2802483D01*
X5337454Y-2802483D01*
X5335371Y-2805430D01*
X5332730Y-2805430D01*
X5332730Y-2806903D01*
X5329834Y-2806903D01*
X5329834Y-2808325D01*
X5327192Y-2808325D01*
X5325110Y-2811272D01*
X5322519Y-2811272D01*
X5322519Y-2812745D01*
X5319572Y-2812745D01*
X5319572Y-2814218D01*
X5316982Y-2814218D01*
X5314848Y-2817114D01*
X5312257Y-2817114D01*
X5312257Y-2818587D01*
X5309616Y-2818587D01*
X5307533Y-2821533D01*
X5304942Y-2821533D01*
X5304942Y-2823006D01*
X5301996Y-2823006D01*
X5301996Y-2824480D01*
X5299405Y-2824480D01*
X5297271Y-2827375D01*
X5294680Y-2827375D01*
X5294680Y-2828848D01*
X5292039Y-2828848D01*
X5289956Y-2831795D01*
X5287365Y-2831795D01*
X5287365Y-2833268D01*
X5284419Y-2833268D01*
X5284419Y-2834690D01*
X5281828Y-2834690D01*
X5279694Y-2837637D01*
X5277104Y-2837637D01*
X5277104Y-2839110D01*
X5274157Y-2839110D01*
X5274157Y-2840583D01*
X5271566Y-2840583D01*
X5269433Y-2843479D01*
X5266842Y-2843479D01*
X5266842Y-2844952D01*
X5264251Y-2844952D01*
X5262118Y-2847898D01*
X5259527Y-2847898D01*
X5259527Y-2849372D01*
X5256580Y-2849372D01*
X5256580Y-2850845D01*
X5253990Y-2850845D01*
X5251856Y-2853740D01*
X5249265Y-2853740D01*
X5249265Y-2855214D01*
X5246319Y-2855214D01*
X5246319Y-2856687D01*
X5243728Y-2856687D01*
X5241594Y-2859633D01*
X5239004Y-2859633D01*
X5239004Y-2861056D01*
X5236413Y-2861056D01*
X5234279Y-2864002D01*
X5231688Y-2864002D01*
X5231688Y-2865475D01*
X5228742Y-2865475D01*
X5228742Y-2866948D01*
X5226151Y-2866948D01*
X5224018Y-2869844D01*
X5221427Y-2869844D01*
X5221427Y-2871317D01*
X5218480Y-2871317D01*
X5218480Y-2872790D01*
X5215890Y-2872790D01*
X5213756Y-2875737D01*
X5211165Y-2875737D01*
X5211165Y-2877210D01*
X5208574Y-2877210D01*
X5206441Y-2880106D01*
X5203850Y-2880106D01*
X5203850Y-2881579D01*
X5200904Y-2881579D01*
X5200904Y-2883052D01*
X5198313Y-2883052D01*
X5196179Y-2885998D01*
X5193588Y-2885998D01*
X5193588Y-2887421D01*
X5190998Y-2887421D01*
X5188864Y-2890367D01*
X5186273Y-2890367D01*
X5186273Y-2891840D01*
X5183327Y-2891840D01*
X5183327Y-2893314D01*
X5180736Y-2893314D01*
X5178602Y-2896260D01*
X5176012Y-2896260D01*
X5176012Y-2897682D01*
X5173065Y-2897682D01*
X5173065Y-2899156D01*
X5170474Y-2899156D01*
X5168392Y-2902102D01*
X5165750Y-2902102D01*
X5165750Y-2903575D01*
X5163159Y-2903575D01*
X5161026Y-2906471D01*
X5158435Y-2906471D01*
X5158435Y-2907944D01*
X5155488Y-2907944D01*
X5155488Y-2909417D01*
X5152898Y-2909417D01*
X5150764Y-2912364D01*
X5148173Y-2912364D01*
X5148173Y-2913837D01*
X5145278Y-2913837D01*
X5145278Y-2915259D01*
X5142636Y-2915259D01*
X5140553Y-2918206D01*
X5137912Y-2918206D01*
X5137912Y-2919679D01*
X5135321Y-2919679D01*
X5133187Y-2922625D01*
X5130596Y-2922625D01*
X5130596Y-2924048D01*
X5127650Y-2924048D01*
X5127650Y-2925521D01*
X5125059Y-2925521D01*
X5122976Y-2928467D01*
X5120335Y-2928467D01*
X5120335Y-2929940D01*
X5117744Y-2929940D01*
X5115610Y-2932836D01*
X5113020Y-2932836D01*
X5113020Y-2934309D01*
X5110073Y-2934309D01*
X5110073Y-2935782D01*
X5107482Y-2935782D01*
X5105400Y-2938729D01*
X5102758Y-2938729D01*
X5102758Y-2940202D01*
X5099862Y-2940202D01*
X5099862Y-2941624D01*
X5097221Y-2941624D01*
X5095138Y-2944571D01*
X5092496Y-2944571D01*
X5092496Y-2946044D01*
X5089906Y-2946044D01*
X5087823Y-2948990D01*
X5085181Y-2948990D01*
X5085181Y-2950413D01*
X5082286Y-2950413D01*
X5082286Y-2951886D01*
X5079644Y-2951886D01*
X5077561Y-2954832D01*
X5074920Y-2954832D01*
X5074920Y-2956306D01*
X5072024Y-2956306D01*
X5072024Y-2957779D01*
X5069382Y-2957779D01*
X5067300Y-2960674D01*
X5064709Y-2960674D01*
X5064709Y-2962148D01*
X5062067Y-2962148D01*
X5059984Y-2965094D01*
X5057343Y-2965094D01*
X5057343Y-2966567D01*
X5054447Y-2966567D01*
X5054447Y-2967990D01*
X5051806Y-2967990D01*
X5049723Y-2970936D01*
X5047081Y-2970936D01*
X5047081Y-2972409D01*
X5044186Y-2972409D01*
X5044186Y-2973882D01*
X5041595Y-2973882D01*
X5039461Y-2976778D01*
X5036870Y-2976778D01*
X5036870Y-2978251D01*
X5034229Y-2978251D01*
X5032146Y-2981198D01*
X5029504Y-2981198D01*
X5029504Y-2982671D01*
X5026609Y-2982671D01*
X5026609Y-2984144D01*
X5024018Y-2984144D01*
X5021884Y-2987040D01*
X5019294Y-2987040D01*
X5019294Y-2988513D01*
X5016652Y-2988513D01*
X5014569Y-2991459D01*
X5011928Y-2991459D01*
X5011928Y-2992932D01*
X5009032Y-2992932D01*
X5009032Y-2994355D01*
X5006441Y-2994355D01*
X5004308Y-2997301D01*
X5001717Y-2997301D01*
X5001717Y-2998774D01*
X4998770Y-2998774D01*
X4998770Y-3000248D01*
X4996180Y-3000248D01*
X4994046Y-3003143D01*
X4991455Y-3003143D01*
X4991455Y-3004616D01*
X4988814Y-3004616D01*
X4986731Y-3007563D01*
X4984140Y-3007563D01*
X4984140Y-3009036D01*
X4981194Y-3009036D01*
X4981194Y-3010509D01*
X4978603Y-3010509D01*
X4976469Y-3013405D01*
X4973878Y-3013405D01*
X4973878Y-3014878D01*
X4970932Y-3014878D01*
X4970932Y-3016351D01*
X4968341Y-3016351D01*
X4966208Y-3019298D01*
X4963617Y-3019298D01*
X4963617Y-3020771D01*
X4961026Y-3020771D01*
X4958892Y-3023666D01*
X4956302Y-3023666D01*
X4956302Y-3025140D01*
X4953355Y-3025140D01*
X4953355Y-3026613D01*
X4950764Y-3026613D01*
X4948631Y-3029559D01*
X4946040Y-3029559D01*
X4946040Y-3030982D01*
X4943449Y-3030982D01*
X4941316Y-3033928D01*
X4938725Y-3033928D01*
X4938725Y-3035401D01*
X4935778Y-3035401D01*
X4935778Y-3036874D01*
X4933188Y-3036874D01*
X4931054Y-3039770D01*
X4928463Y-3039770D01*
X4928463Y-3041243D01*
X4925517Y-3041243D01*
X4925517Y-3042716D01*
X4922926Y-3042716D01*
X4920792Y-3045663D01*
X4918202Y-3045663D01*
X4918202Y-3047136D01*
X4915611Y-3047136D01*
X4913477Y-3050032D01*
X4910886Y-3050032D01*
X4910886Y-3051505D01*
X4907940Y-3051505D01*
X4907940Y-3052978D01*
X4905349Y-3052978D01*
X4903216Y-3055924D01*
X4900625Y-3055924D01*
X4900625Y-3057347D01*
X4897678Y-3057347D01*
X4897678Y-3058820D01*
X4895088Y-3058820D01*
X4892954Y-3061766D01*
X4890363Y-3061766D01*
X4890363Y-3063240D01*
X4887772Y-3063240D01*
X4885639Y-3066135D01*
X4883048Y-3066135D01*
X4883048Y-3067608D01*
X4880102Y-3067608D01*
X4880102Y-3069082D01*
X4877511Y-3069082D01*
X4875377Y-3072028D01*
X4872786Y-3072028D01*
X4872786Y-3073501D01*
X4869840Y-3073501D01*
X4869840Y-3074924D01*
X4867249Y-3074924D01*
X4865166Y-3077870D01*
X4862525Y-3077870D01*
X4862525Y-3079343D01*
X4859934Y-3079343D01*
X4857800Y-3082290D01*
X4855210Y-3082290D01*
X4855210Y-3083712D01*
X4852263Y-3083712D01*
X4852263Y-3085185D01*
X4849672Y-3085185D01*
X4847590Y-3088132D01*
X4844948Y-3088132D01*
X4844948Y-3089605D01*
X4842357Y-3089605D01*
X4840224Y-3092500D01*
X4837633Y-3092500D01*
X4837633Y-3093974D01*
X4834686Y-3093974D01*
X4834686Y-3095447D01*
X4832096Y-3095447D01*
X4830013Y-3098393D01*
X4827371Y-3098393D01*
X4827371Y-3099866D01*
X4824476Y-3099866D01*
X4824476Y-3101289D01*
X4821834Y-3101289D01*
X4819751Y-3104235D01*
X4817110Y-3104235D01*
X4817110Y-3105708D01*
X4814519Y-3105708D01*
X4812436Y-3108655D01*
X4809794Y-3108655D01*
X4809794Y-3110077D01*
X4806899Y-3110077D01*
X4806899Y-3111550D01*
X4804257Y-3111550D01*
X4802174Y-3114497D01*
X4799533Y-3114497D01*
X4799533Y-3115970D01*
X4796637Y-3115970D01*
X4796637Y-3117443D01*
X4793996Y-3117443D01*
X4791913Y-3120339D01*
X4789322Y-3120339D01*
X4789322Y-3121812D01*
X4786680Y-3121812D01*
X4784598Y-3124758D01*
X4781956Y-3124758D01*
X4781956Y-3126232D01*
X4779060Y-3126232D01*
X4779060Y-3127705D01*
X4776419Y-3127705D01*
X4774336Y-3130600D01*
X4773168Y-3130600D01*
X4773168Y-1853285D01*
X4692243Y-1853285D01*
X4692243Y-3209340D01*
X4694936Y-3217672D01*
X4700320Y-3226358D01*
X4703216Y-3229914D01*
X4711344Y-3236518D01*
X4720793Y-3240278D01*
X4726025Y-3241954D01*
X4738674Y-3241954D01*
X4739589Y-3240481D01*
X4743246Y-3240481D01*
X4753051Y-3235807D01*
X5016703Y-3083560D01*
X5018176Y-3082493D01*
X5026253Y-3078073D01*
X5158790Y-3001568D01*
X5160264Y-3000451D01*
X5168341Y-2996031D01*
X5338978Y-2897530D01*
X5340451Y-2896463D01*
X5348478Y-2892044D01*
X5661253Y-2711500D01*
X5662726Y-2710434D01*
X5670753Y-2706014D01*
X5765241Y-2651455D01*
X5766714Y-2650337D01*
X5774791Y-2645918D01*
X5977636Y-2528773D01*
X5984951Y-2524150D01*
X5993536Y-2515768D01*
X5999276Y-2503932D01*
X5999276Y-2501087D01*
X6000699Y-2498902D01*
X6000699Y-2484678D01*
X5999276Y-2483815D01*
X5999276Y-2480208D01*
X5996076Y-2473248D01*
X5991707Y-2466644D01*
X5987897Y-2462479D01*
X5979363Y-2456637D01*
X5938824Y-2433167D01*
X5930747Y-2428748D01*
X5929325Y-2427630D01*
X5796737Y-2351125D01*
X5788660Y-2346706D01*
X5787237Y-2345588D01*
X5512562Y-2187041D01*
X5504484Y-2182622D01*
X5503062Y-2181555D01*
X5474462Y-2165096D01*
X5466435Y-2160676D01*
X5464962Y-2159558D01*
X5190286Y-2001012D01*
X5182260Y-1996592D01*
X5180787Y-1995525D01*
X5010099Y-1897024D01*
X5002072Y-1892604D01*
X5000599Y-1891487D01*
X4906111Y-1836978D01*
X4898085Y-1832559D01*
X4896612Y-1831441D01*
X4749393Y-1746605D01*
X4743145Y-1744167D01*
G37*
G36*
X5403088Y-2286863D02*
G01*
X5403088Y-2288336D01*
X5395722Y-2288336D01*
X5395722Y-2289810D01*
X5389981Y-2289810D01*
X5389067Y-2291232D01*
X5384342Y-2291232D01*
X5382209Y-2294178D01*
X5376672Y-2294178D01*
X5376672Y-2295652D01*
X5372303Y-2295652D01*
X5372303Y-2297125D01*
X5367934Y-2297125D01*
X5367934Y-2298598D01*
X5366004Y-2298598D01*
X5362041Y-2300427D01*
X5362041Y-2301494D01*
X5359095Y-2301494D01*
X5359095Y-2302967D01*
X5354726Y-2302967D01*
X5354726Y-2304440D01*
X5351780Y-2304440D01*
X5351780Y-2305913D01*
X5347716Y-2305913D01*
X5345633Y-2308809D01*
X5342991Y-2308809D01*
X5342991Y-2310282D01*
X5338622Y-2310282D01*
X5338622Y-2311755D01*
X5335676Y-2311755D01*
X5335676Y-2313228D01*
X5333441Y-2313228D01*
X5330291Y-2316175D01*
X5328361Y-2316175D01*
X5328361Y-2317597D01*
X5325465Y-2317597D01*
X5320233Y-2320544D01*
X5318760Y-2320544D01*
X5314086Y-2324963D01*
X5310784Y-2324963D01*
X5310784Y-2326386D01*
X5307838Y-2326386D01*
X5307838Y-2327859D01*
X5304942Y-2327859D01*
X5304942Y-2329332D01*
X5303012Y-2329332D01*
X5299862Y-2332278D01*
X5297576Y-2332278D01*
X5297576Y-2333752D01*
X5294680Y-2333752D01*
X5294680Y-2335174D01*
X5291734Y-2335174D01*
X5291734Y-2336342D01*
X5285892Y-2339949D01*
X5285892Y-2341067D01*
X5283047Y-2341067D01*
X5282133Y-2342540D01*
X5279491Y-2342540D01*
X5274919Y-2346909D01*
X5272684Y-2346909D01*
X5272684Y-2348382D01*
X5269738Y-2348382D01*
X5269738Y-2349855D01*
X5266842Y-2349855D01*
X5266842Y-2351328D01*
X5264251Y-2351328D01*
X5262118Y-2354224D01*
X5259527Y-2354224D01*
X5259527Y-2355697D01*
X5256580Y-2355697D01*
X5256580Y-2357018D01*
X5254040Y-2357831D01*
X5249621Y-2360472D01*
X5247233Y-2363012D01*
X5244846Y-2363012D01*
X5244846Y-2364486D01*
X5241950Y-2364486D01*
X5241950Y-2365959D01*
X5239308Y-2365959D01*
X5237226Y-2368905D01*
X5234584Y-2368905D01*
X5234584Y-2370124D01*
X5224729Y-2375103D01*
X5222341Y-2377694D01*
X5219954Y-2377694D01*
X5219954Y-2379167D01*
X5217007Y-2379167D01*
X5217007Y-2380589D01*
X5215026Y-2380589D01*
X5210454Y-2385009D01*
X5208219Y-2385009D01*
X5208219Y-2386482D01*
X5205323Y-2386482D01*
X5205323Y-2387955D01*
X5202377Y-2387955D01*
X5202377Y-2389073D01*
X5196535Y-2392680D01*
X5196535Y-2393797D01*
X5193588Y-2393797D01*
X5193588Y-2395270D01*
X5190642Y-2395270D01*
X5190642Y-2396744D01*
X5188458Y-2396744D01*
X5183835Y-2401112D01*
X5181854Y-2401112D01*
X5181854Y-2402586D01*
X5178958Y-2402586D01*
X5178958Y-2404059D01*
X5176621Y-2404059D01*
X5172506Y-2408428D01*
X5170170Y-2408428D01*
X5170170Y-2409901D01*
X5167223Y-2409901D01*
X5167223Y-2411374D01*
X5164836Y-2411374D01*
X5162448Y-2413965D01*
X5158435Y-2415997D01*
X5158435Y-2417216D01*
X5155488Y-2417216D01*
X5155488Y-2418689D01*
X5153152Y-2418689D01*
X5149037Y-2423109D01*
X5146700Y-2423109D01*
X5146700Y-2424531D01*
X5143804Y-2424531D01*
X5143804Y-2426004D01*
X5140858Y-2426004D01*
X5140858Y-2427122D01*
X5135016Y-2430780D01*
X5135016Y-2431897D01*
X5132070Y-2431897D01*
X5132070Y-2433320D01*
X5129123Y-2433320D01*
X5129123Y-2434793D01*
X5126786Y-2434793D01*
X5126024Y-2437739D01*
X5124297Y-2437739D01*
X5120335Y-2439568D01*
X5120335Y-2440686D01*
X5117439Y-2440686D01*
X5117439Y-2442108D01*
X5115204Y-2442108D01*
X5110632Y-2446528D01*
X5107178Y-2446528D01*
X5107178Y-2448001D01*
X5104536Y-2448001D01*
X5102453Y-2450896D01*
X5100167Y-2450896D01*
X5098034Y-2453843D01*
X5095443Y-2453843D01*
X5095443Y-2455316D01*
X5092496Y-2455316D01*
X5092496Y-2456789D01*
X5089601Y-2456789D01*
X5089601Y-2458262D01*
X5087670Y-2458262D01*
X5084521Y-2461158D01*
X5082286Y-2461158D01*
X5082286Y-2462631D01*
X5077866Y-2462631D01*
X5077866Y-2464104D01*
X5074920Y-2464104D01*
X5074920Y-2465578D01*
X5073040Y-2465578D01*
X5069078Y-2467406D01*
X5069078Y-2468524D01*
X5057343Y-2468524D01*
X5057343Y-2467051D01*
X5050840Y-2467051D01*
X5049977Y-2465578D01*
X5041239Y-2465578D01*
X5041239Y-2464104D01*
X5030978Y-2464104D01*
X5030978Y-2462631D01*
X5022189Y-2462631D01*
X5022189Y-2461158D01*
X5013401Y-2461158D01*
X5013401Y-2459685D01*
X5009845Y-2459685D01*
X5008930Y-2458262D01*
X5004612Y-2458262D01*
X5004612Y-2456789D01*
X4997297Y-2456789D01*
X4997297Y-2455316D01*
X4989982Y-2455316D01*
X4989982Y-2453843D01*
X4981194Y-2453843D01*
X4981194Y-2452370D01*
X4973218Y-2452370D01*
X4972304Y-2450896D01*
X4967986Y-2450896D01*
X4967986Y-2449474D01*
X4955641Y-2449474D01*
X4954727Y-2448001D01*
X4938064Y-2448001D01*
X4937150Y-2446528D01*
X4912360Y-2446528D01*
X4912360Y-2445054D01*
X4846421Y-2445054D01*
X4846421Y-2446528D01*
X4839208Y-2446528D01*
X4838293Y-2448001D01*
X4833315Y-2448001D01*
X4832400Y-2449474D01*
X4829860Y-2449474D01*
X4825949Y-2451303D01*
X4825898Y-2452370D01*
X4823002Y-2452370D01*
X4823002Y-2453843D01*
X4819599Y-2453843D01*
X4816449Y-2456789D01*
X4814925Y-2456789D01*
X4803952Y-2467762D01*
X4803952Y-2469946D01*
X4802479Y-2469946D01*
X4802479Y-2472893D01*
X4801006Y-2472893D01*
X4801006Y-2476296D01*
X4798060Y-2479446D01*
X4798060Y-2483815D01*
X4796637Y-2484678D01*
X4796637Y-2505100D01*
X4798060Y-2505100D01*
X4798060Y-2509266D01*
X4801006Y-2511958D01*
X4801006Y-2515362D01*
X4802479Y-2515362D01*
X4802479Y-2517698D01*
X4814925Y-2530043D01*
X4817110Y-2530043D01*
X4817110Y-2531465D01*
X4820056Y-2531465D01*
X4820056Y-2532938D01*
X4823612Y-2532938D01*
X4824526Y-2534412D01*
X4826711Y-2534412D01*
X4829860Y-2537358D01*
X4833264Y-2537358D01*
X4833264Y-2538831D01*
X4839106Y-2538831D01*
X4839106Y-2540254D01*
X4846421Y-2540254D01*
X4846421Y-2541727D01*
X4888890Y-2541727D01*
X4888890Y-2540254D01*
X4909413Y-2540254D01*
X4909413Y-2538831D01*
X4923231Y-2538831D01*
X4924145Y-2537358D01*
X4932070Y-2537358D01*
X4937302Y-2534412D01*
X4946040Y-2534412D01*
X4946040Y-2532938D01*
X4954828Y-2532938D01*
X4954828Y-2531465D01*
X4962144Y-2531465D01*
X4962144Y-2530043D01*
X4967325Y-2530043D01*
X4970475Y-2527096D01*
X4975250Y-2527096D01*
X4976164Y-2525623D01*
X4981194Y-2525623D01*
X4981194Y-2524150D01*
X4987036Y-2524150D01*
X4987036Y-2522677D01*
X4989982Y-2522677D01*
X4989982Y-2521254D01*
X4992928Y-2521254D01*
X4992928Y-2519781D01*
X4995824Y-2519781D01*
X4995824Y-2518308D01*
X5000244Y-2518308D01*
X5000244Y-2516835D01*
X5004612Y-2516835D01*
X5004612Y-2515362D01*
X5006543Y-2515362D01*
X5010454Y-2513533D01*
X5010505Y-2512466D01*
X5013401Y-2512466D01*
X5013401Y-2510993D01*
X5017820Y-2510993D01*
X5017820Y-2509520D01*
X5022189Y-2509520D01*
X5022189Y-2508046D01*
X5025491Y-2507996D01*
X5029149Y-2505151D01*
X5031638Y-2505100D01*
X5032552Y-2503678D01*
X5036870Y-2503678D01*
X5036870Y-2502204D01*
X5041239Y-2502204D01*
X5041239Y-2500731D01*
X5047081Y-2500731D01*
X5047081Y-2499258D01*
X5050688Y-2499258D01*
X5051602Y-2497785D01*
X5054447Y-2497785D01*
X5054447Y-2496312D01*
X5061762Y-2496312D01*
X5061762Y-2494889D01*
X5087315Y-2494889D01*
X5088229Y-2496312D01*
X5098389Y-2496312D01*
X5098389Y-2497785D01*
X5101945Y-2497785D01*
X5102860Y-2499258D01*
X5107838Y-2499258D01*
X5108702Y-2500731D01*
X5115153Y-2500731D01*
X5116017Y-2502204D01*
X5121808Y-2502204D01*
X5121808Y-2503678D01*
X5129123Y-2503678D01*
X5129123Y-2505100D01*
X5131968Y-2505100D01*
X5132882Y-2506573D01*
X5136438Y-2506573D01*
X5136438Y-2508046D01*
X5142331Y-2508046D01*
X5142331Y-2509520D01*
X5148173Y-2509520D01*
X5148173Y-2510993D01*
X5152593Y-2510993D01*
X5152593Y-2512466D01*
X5157419Y-2512466D01*
X5160568Y-2515362D01*
X5164277Y-2515362D01*
X5164277Y-2516835D01*
X5170170Y-2516835D01*
X5170170Y-2518308D01*
X5174538Y-2518308D01*
X5174538Y-2519781D01*
X5179466Y-2519781D01*
X5182108Y-2522677D01*
X5186273Y-2522677D01*
X5186273Y-2524150D01*
X5190642Y-2524150D01*
X5190642Y-2525623D01*
X5195062Y-2525623D01*
X5195062Y-2527096D01*
X5199126Y-2527096D01*
X5201259Y-2530043D01*
X5205323Y-2530043D01*
X5205323Y-2531465D01*
X5209692Y-2531465D01*
X5209692Y-2532938D01*
X5213299Y-2532938D01*
X5214162Y-2534412D01*
X5217515Y-2534412D01*
X5220208Y-2537358D01*
X5222900Y-2537358D01*
X5222900Y-2538831D01*
X5226456Y-2538831D01*
X5227370Y-2540254D01*
X5230876Y-2540254D01*
X5231790Y-2541727D01*
X5233924Y-2541727D01*
X5237073Y-2544673D01*
X5239004Y-2544673D01*
X5239004Y-2546146D01*
X5243372Y-2546146D01*
X5243372Y-2547620D01*
X5246319Y-2547620D01*
X5246319Y-2549042D01*
X5249722Y-2549042D01*
X5252872Y-2551988D01*
X5255107Y-2551988D01*
X5255107Y-2553462D01*
X5258054Y-2553462D01*
X5258054Y-2554935D01*
X5262422Y-2554935D01*
X5262422Y-2556408D01*
X5265369Y-2556408D01*
X5265369Y-2557830D01*
X5267299Y-2557830D01*
X5270449Y-2560777D01*
X5272684Y-2560777D01*
X5272684Y-2562250D01*
X5275630Y-2562250D01*
X5275630Y-2563723D01*
X5278577Y-2563723D01*
X5278577Y-2565196D01*
X5281168Y-2565196D01*
X5283250Y-2568092D01*
X5285892Y-2568092D01*
X5285892Y-2569565D01*
X5288788Y-2569565D01*
X5288788Y-2571038D01*
X5291023Y-2571038D01*
X5294274Y-2572867D01*
X5296662Y-2575407D01*
X5299049Y-2575407D01*
X5299049Y-2576880D01*
X5301996Y-2576880D01*
X5301996Y-2578354D01*
X5304942Y-2578354D01*
X5304942Y-2579827D01*
X5307279Y-2579827D01*
X5311343Y-2584246D01*
X5313730Y-2584246D01*
X5313730Y-2585669D01*
X5316321Y-2585669D01*
X5318404Y-2588615D01*
X5320436Y-2588615D01*
X5324551Y-2593035D01*
X5326888Y-2593035D01*
X5326888Y-2594457D01*
X5329224Y-2594457D01*
X5334812Y-2600350D01*
X5336438Y-2600350D01*
X5356199Y-2620111D01*
X5356199Y-2621534D01*
X5362041Y-2627325D01*
X5362041Y-2629611D01*
X5363514Y-2629611D01*
X5363514Y-2632557D01*
X5364988Y-2632557D01*
X5364988Y-2635148D01*
X5367934Y-2637282D01*
X5367934Y-2641346D01*
X5369356Y-2641346D01*
X5369356Y-2647188D01*
X5370830Y-2647188D01*
X5370830Y-2658821D01*
X5369356Y-2659735D01*
X5369356Y-2666238D01*
X5367934Y-2666238D01*
X5367934Y-2669692D01*
X5363514Y-2674315D01*
X5363514Y-2675839D01*
X5356961Y-2682392D01*
X5355437Y-2682392D01*
X5350865Y-2686761D01*
X5348884Y-2686761D01*
X5348884Y-2688234D01*
X5344464Y-2688234D01*
X5344464Y-2689707D01*
X5340096Y-2689707D01*
X5340096Y-2691180D01*
X5335676Y-2691180D01*
X5335676Y-2692603D01*
X5332120Y-2692603D01*
X5331206Y-2694076D01*
X5326888Y-2694076D01*
X5326888Y-2695549D01*
X5309311Y-2695549D01*
X5309311Y-2716072D01*
X5354726Y-2716072D01*
X5354726Y-2714599D01*
X5369356Y-2714599D01*
X5369356Y-2713126D01*
X5380278Y-2713126D01*
X5381193Y-2711653D01*
X5387644Y-2711653D01*
X5392877Y-2708757D01*
X5400141Y-2708757D01*
X5400141Y-2707284D01*
X5407456Y-2707284D01*
X5407456Y-2705811D01*
X5413298Y-2705811D01*
X5413298Y-2704338D01*
X5417362Y-2704287D01*
X5421020Y-2701442D01*
X5423560Y-2701391D01*
X5423560Y-2699969D01*
X5426405Y-2699969D01*
X5427319Y-2698496D01*
X5430875Y-2698496D01*
X5430875Y-2697022D01*
X5433060Y-2697022D01*
X5434634Y-2694076D01*
X5436768Y-2694076D01*
X5436768Y-2692603D01*
X5439003Y-2692603D01*
X5448452Y-2683103D01*
X5448452Y-2681478D01*
X5452872Y-2677363D01*
X5452872Y-2675026D01*
X5454345Y-2675026D01*
X5454345Y-2672130D01*
X5455818Y-2672130D01*
X5455818Y-2669895D01*
X5460187Y-2661005D01*
X5460187Y-2657449D01*
X5461660Y-2657449D01*
X5461660Y-2648661D01*
X5463133Y-2648661D01*
X5463133Y-2638399D01*
X5461660Y-2638399D01*
X5461660Y-2630474D01*
X5460187Y-2629560D01*
X5460187Y-2625242D01*
X5459018Y-2625242D01*
X5455818Y-2619248D01*
X5455818Y-2616454D01*
X5454345Y-2616454D01*
X5454345Y-2613507D01*
X5452872Y-2613507D01*
X5452872Y-2611170D01*
X5448452Y-2607056D01*
X5448452Y-2605379D01*
X5438241Y-2595067D01*
X5438241Y-2593238D01*
X5434177Y-2591155D01*
X5427319Y-2584246D01*
X5425338Y-2584246D01*
X5423255Y-2581300D01*
X5421223Y-2581300D01*
X5417108Y-2576880D01*
X5414772Y-2576880D01*
X5414772Y-2575407D01*
X5411876Y-2575407D01*
X5411876Y-2573985D01*
X5409692Y-2573985D01*
X5408117Y-2571038D01*
X5405983Y-2571038D01*
X5405983Y-2569565D01*
X5403088Y-2569565D01*
X5403088Y-2568092D01*
X5400141Y-2568092D01*
X5400141Y-2566619D01*
X5395874Y-2566619D01*
X5395112Y-2564587D01*
X5390388Y-2562250D01*
X5388406Y-2562250D01*
X5388406Y-2560777D01*
X5385511Y-2560777D01*
X5385511Y-2559304D01*
X5381091Y-2559304D01*
X5381091Y-2557830D01*
X5379262Y-2557830D01*
X5375605Y-2554935D01*
X5372303Y-2554935D01*
X5372303Y-2553462D01*
X5369458Y-2553462D01*
X5368544Y-2551988D01*
X5364988Y-2551988D01*
X5364988Y-2550515D01*
X5362041Y-2550515D01*
X5362041Y-2549042D01*
X5359095Y-2549042D01*
X5359095Y-2547620D01*
X5355539Y-2547620D01*
X5354624Y-2546146D01*
X5351170Y-2546146D01*
X5350256Y-2544673D01*
X5347411Y-2544673D01*
X5347411Y-2543200D01*
X5343702Y-2543200D01*
X5340553Y-2540254D01*
X5337149Y-2540254D01*
X5337149Y-2538831D01*
X5332730Y-2538831D01*
X5332730Y-2537358D01*
X5328361Y-2537358D01*
X5328361Y-2535885D01*
X5323484Y-2535885D01*
X5320385Y-2532938D01*
X5316626Y-2532938D01*
X5316626Y-2531465D01*
X5312257Y-2531465D01*
X5312257Y-2530043D01*
X5306364Y-2530043D01*
X5306364Y-2528570D01*
X5302656Y-2528570D01*
X5299506Y-2525623D01*
X5295493Y-2525623D01*
X5294579Y-2524150D01*
X5290261Y-2524150D01*
X5290261Y-2522677D01*
X5284419Y-2522677D01*
X5284419Y-2521254D01*
X5278577Y-2521254D01*
X5278526Y-2520137D01*
X5274614Y-2518308D01*
X5271211Y-2518308D01*
X5271211Y-2516835D01*
X5265369Y-2516835D01*
X5265369Y-2515362D01*
X5259527Y-2515362D01*
X5259527Y-2513888D01*
X5253685Y-2513888D01*
X5248452Y-2510993D01*
X5244846Y-2510993D01*
X5244846Y-2509520D01*
X5238343Y-2509520D01*
X5237429Y-2508046D01*
X5231688Y-2508046D01*
X5231688Y-2506573D01*
X5224373Y-2506573D01*
X5224373Y-2505100D01*
X5220055Y-2505100D01*
X5219141Y-2503678D01*
X5215585Y-2503678D01*
X5215585Y-2502204D01*
X5208219Y-2502204D01*
X5208219Y-2500731D01*
X5200904Y-2500731D01*
X5200904Y-2499258D01*
X5193588Y-2499258D01*
X5193588Y-2497785D01*
X5188458Y-2497785D01*
X5182616Y-2494889D01*
X5177485Y-2494889D01*
X5177485Y-2493416D01*
X5170170Y-2493416D01*
X5170170Y-2491943D01*
X5162854Y-2491943D01*
X5162854Y-2490470D01*
X5155488Y-2490470D01*
X5155488Y-2489352D01*
X5151577Y-2487523D01*
X5146090Y-2487523D01*
X5145176Y-2486101D01*
X5137912Y-2486101D01*
X5137912Y-2484628D01*
X5130596Y-2484628D01*
X5130596Y-2483154D01*
X5123281Y-2483154D01*
X5123281Y-2481681D01*
X5120335Y-2481681D01*
X5120335Y-2480208D01*
X5113832Y-2480208D01*
X5112918Y-2478735D01*
X5105704Y-2478735D01*
X5105704Y-2477312D01*
X5103520Y-2477312D01*
X5103520Y-2475839D01*
X5105704Y-2475839D01*
X5105704Y-2474366D01*
X5108651Y-2474366D01*
X5108651Y-2472893D01*
X5113020Y-2472893D01*
X5113020Y-2471420D01*
X5115966Y-2471420D01*
X5115966Y-2469946D01*
X5120030Y-2469946D01*
X5122113Y-2467051D01*
X5124754Y-2467051D01*
X5124754Y-2465578D01*
X5129123Y-2465578D01*
X5129123Y-2464104D01*
X5131968Y-2464104D01*
X5132882Y-2462631D01*
X5136337Y-2462631D01*
X5136845Y-2461564D01*
X5143195Y-2458262D01*
X5145278Y-2458262D01*
X5145278Y-2456789D01*
X5149646Y-2456789D01*
X5149646Y-2455316D01*
X5154015Y-2455316D01*
X5154015Y-2453843D01*
X5155946Y-2453843D01*
X5159095Y-2450896D01*
X5162854Y-2450896D01*
X5162854Y-2449474D01*
X5167223Y-2449474D01*
X5167223Y-2448001D01*
X5170170Y-2448001D01*
X5170170Y-2446528D01*
X5174234Y-2446528D01*
X5176316Y-2443581D01*
X5180431Y-2443581D01*
X5180431Y-2442108D01*
X5184800Y-2442108D01*
X5184800Y-2440686D01*
X5189220Y-2440686D01*
X5189220Y-2439212D01*
X5191810Y-2439212D01*
X5193893Y-2436266D01*
X5198618Y-2436266D01*
X5199532Y-2434793D01*
X5203850Y-2434793D01*
X5203850Y-2433320D01*
X5206796Y-2433320D01*
X5209336Y-2431999D01*
X5214112Y-2430068D01*
X5214112Y-2428951D01*
X5218480Y-2428951D01*
X5218480Y-2427478D01*
X5222900Y-2427478D01*
X5222900Y-2426004D01*
X5227269Y-2426004D01*
X5227269Y-2424531D01*
X5230672Y-2424531D01*
X5234584Y-2422702D01*
X5234584Y-2421636D01*
X5239004Y-2421636D01*
X5239004Y-2420162D01*
X5243322Y-2420162D01*
X5244236Y-2418689D01*
X5249265Y-2418689D01*
X5249265Y-2417216D01*
X5255107Y-2417216D01*
X5255107Y-2415743D01*
X5258054Y-2415743D01*
X5258054Y-2414320D01*
X5262422Y-2414320D01*
X5262422Y-2412847D01*
X5268315Y-2412847D01*
X5268315Y-2411374D01*
X5274157Y-2411374D01*
X5274157Y-2409901D01*
X5279999Y-2409901D01*
X5279999Y-2408428D01*
X5284317Y-2408428D01*
X5285232Y-2406954D01*
X5288788Y-2406954D01*
X5288788Y-2405532D01*
X5294680Y-2405532D01*
X5294680Y-2404059D01*
X5301996Y-2404059D01*
X5301996Y-2402586D01*
X5309311Y-2402586D01*
X5309311Y-2401112D01*
X5314391Y-2401112D01*
X5319623Y-2398166D01*
X5326888Y-2398166D01*
X5326888Y-2396744D01*
X5337149Y-2396744D01*
X5337149Y-2395270D01*
X5348884Y-2395270D01*
X5348884Y-2393797D01*
X5359044Y-2393797D01*
X5359958Y-2392324D01*
X5363514Y-2392324D01*
X5363514Y-2390851D01*
X5375859Y-2390851D01*
X5376773Y-2389378D01*
X5386933Y-2389378D01*
X5386933Y-2387955D01*
X5397195Y-2387955D01*
X5397195Y-2386482D01*
X5404967Y-2386482D01*
X5408930Y-2384653D01*
X5408930Y-2383536D01*
X5416143Y-2383536D01*
X5417058Y-2382062D01*
X5422087Y-2382062D01*
X5422087Y-2380589D01*
X5426506Y-2380589D01*
X5426506Y-2379167D01*
X5429097Y-2379167D01*
X5431231Y-2376220D01*
X5433822Y-2376220D01*
X5433822Y-2374747D01*
X5436768Y-2374747D01*
X5436768Y-2373274D01*
X5438952Y-2373274D01*
X5444998Y-2367432D01*
X5446471Y-2367432D01*
X5449925Y-2363419D01*
X5449925Y-2362149D01*
X5454345Y-2358034D01*
X5454345Y-2355697D01*
X5455818Y-2355697D01*
X5455818Y-2352802D01*
X5457240Y-2352802D01*
X5457240Y-2350160D01*
X5460187Y-2348077D01*
X5460187Y-2343962D01*
X5461660Y-2343962D01*
X5461660Y-2335174D01*
X5463133Y-2335174D01*
X5463133Y-2320544D01*
X5461660Y-2320544D01*
X5461660Y-2313228D01*
X5460187Y-2313228D01*
X5460187Y-2309825D01*
X5457240Y-2306675D01*
X5457240Y-2305354D01*
X5447842Y-2295652D01*
X5445556Y-2295652D01*
X5445556Y-2294178D01*
X5442915Y-2294178D01*
X5440832Y-2291232D01*
X5438241Y-2291232D01*
X5438241Y-2289810D01*
X5433822Y-2289810D01*
X5433822Y-2288336D01*
X5428030Y-2288336D01*
X5427167Y-2286863D01*
G37*
G36*
X984503Y-3859834D02*
G01*
X985062Y-3861765D01*
X1074216Y-4272991D01*
X1104595Y-4272991D01*
X1136497Y-4133443D01*
X1137107Y-4133443D01*
X1168857Y-4272991D01*
X1199388Y-4272991D01*
X1199388Y-4271924D01*
X1234541Y-4036923D01*
X1234541Y-4035653D01*
X1203858Y-4035653D01*
X1203299Y-4036517D01*
X1181252Y-4224375D01*
X1180439Y-4227576D01*
X1153617Y-4101033D01*
X1120089Y-4101287D01*
X1093114Y-4227423D01*
X1092454Y-4227423D01*
X1015746Y-3859834D01*
G37*
G36*
X912571Y-3919169D02*
G01*
X912571Y-4380179D01*
X1912569Y-4380179D01*
X1912569Y-3919169D01*
X1090066Y-3919169D01*
X1090066Y-3959809D01*
X1871929Y-3959809D01*
X1871929Y-4340047D01*
X953414Y-4340047D01*
X952703Y-4161180D01*
X952703Y-3969461D01*
X951941Y-3919169D01*
G37*
G36*
X1716278Y-4031792D02*
G01*
X1704797Y-4033520D01*
X1695399Y-4036263D01*
X1687423Y-4039920D01*
X1679346Y-4045153D01*
X1670100Y-4054043D01*
X1664360Y-4061764D01*
X1658772Y-4071620D01*
X1654352Y-4082694D01*
X1651050Y-4093514D01*
X1647799Y-4109008D01*
X1645513Y-4127093D01*
X1644243Y-4154881D01*
X1644727Y-4165041D01*
X1677974Y-4165041D01*
X1677974Y-4144721D01*
X1679041Y-4124909D01*
X1680768Y-4109008D01*
X1683512Y-4094835D01*
X1687169Y-4083659D01*
X1691589Y-4074922D01*
X1697736Y-4067098D01*
X1702968Y-4063237D01*
X1709572Y-4059834D01*
X1716125Y-4058107D01*
X1727707Y-4057700D01*
X1734261Y-4058716D01*
X1739747Y-4060545D01*
X1744929Y-4063085D01*
X1751685Y-4068724D01*
X1756664Y-4075480D01*
X1760778Y-4083710D01*
X1764233Y-4094734D01*
X1766925Y-4108450D01*
X1768602Y-4123283D01*
X1769719Y-4143603D01*
X1769719Y-4167225D01*
X1768602Y-4185920D01*
X1766925Y-4201312D01*
X1764233Y-4214774D01*
X1760829Y-4225493D01*
X1756460Y-4234180D01*
X1751584Y-4240530D01*
X1745792Y-4245610D01*
X1738122Y-4249369D01*
X1730959Y-4251299D01*
X1716684Y-4251299D01*
X1709572Y-4249369D01*
X1702968Y-4246168D01*
X1696364Y-4240834D01*
X1691030Y-4233722D01*
X1686255Y-4223816D01*
X1682445Y-4210050D01*
X1680210Y-4195826D01*
X1679041Y-4184802D01*
X1677974Y-4165041D01*
X1644727Y-4165041D01*
X1645513Y-4182618D01*
X1647189Y-4196384D01*
X1649425Y-4208983D01*
X1653235Y-4223664D01*
X1658874Y-4237888D01*
X1664512Y-4247743D01*
X1669440Y-4254550D01*
X1677771Y-4262932D01*
X1687169Y-4269181D01*
X1695399Y-4272991D01*
X1705102Y-4275785D01*
X1715058Y-4277410D01*
X1732788Y-4277410D01*
X1745284Y-4275277D01*
X1754073Y-4272381D01*
X1762607Y-4268114D01*
X1770837Y-4262424D01*
X1779981Y-4252772D01*
X1785112Y-4245152D01*
X1789938Y-4235907D01*
X1793849Y-4226052D01*
X1796694Y-4216146D01*
X1799386Y-4203700D01*
X1801520Y-4189222D01*
X1802892Y-4174388D01*
X1802892Y-4134815D01*
X1800961Y-4115612D01*
X1798320Y-4100068D01*
X1795068Y-4087571D01*
X1791614Y-4077665D01*
X1785670Y-4065219D01*
X1780793Y-4057904D01*
X1773783Y-4049674D01*
X1765960Y-4043273D01*
X1757375Y-4038396D01*
X1748789Y-4035044D01*
X1739493Y-4032859D01*
X1733194Y-4031945D01*
G37*
G36*
X1535379Y-4031894D02*
G01*
X1511757Y-4032250D01*
X1495399Y-4035094D01*
X1480413Y-4038904D01*
X1465326Y-4043883D01*
X1465326Y-4076293D01*
X1465834Y-4076293D01*
X1473301Y-4071721D01*
X1487576Y-4064863D01*
X1499108Y-4061053D01*
X1509572Y-4058767D01*
X1522171Y-4057497D01*
X1534312Y-4058158D01*
X1540865Y-4059326D01*
X1548587Y-4061612D01*
X1556004Y-4065320D01*
X1561846Y-4069638D01*
X1567434Y-4075887D01*
X1570837Y-4082287D01*
X1573072Y-4090873D01*
X1573072Y-4102963D01*
X1571345Y-4110431D01*
X1568348Y-4116679D01*
X1561185Y-4123893D01*
X1552397Y-4128414D01*
X1539798Y-4132732D01*
X1522171Y-4136847D01*
X1505051Y-4141114D01*
X1493062Y-4145381D01*
X1483715Y-4149851D01*
X1473301Y-4156659D01*
X1464360Y-4165600D01*
X1459077Y-4173778D01*
X1455420Y-4182465D01*
X1453337Y-4190390D01*
X1451914Y-4199128D01*
X1451965Y-4217771D01*
X1453337Y-4226560D01*
X1456029Y-4235907D01*
X1459992Y-4244695D01*
X1465529Y-4252925D01*
X1473301Y-4260697D01*
X1482750Y-4266946D01*
X1490065Y-4270298D01*
X1499006Y-4273550D01*
X1512366Y-4276293D01*
X1523288Y-4277410D01*
X1543050Y-4277410D01*
X1554581Y-4276242D01*
X1567230Y-4274058D01*
X1583740Y-4269790D01*
X1601012Y-4263440D01*
X1601012Y-4229608D01*
X1600352Y-4229608D01*
X1591411Y-4234942D01*
X1583182Y-4239361D01*
X1572717Y-4244035D01*
X1560118Y-4248251D01*
X1551838Y-4249978D01*
X1540865Y-4251553D01*
X1527149Y-4251553D01*
X1515618Y-4250029D01*
X1506270Y-4247083D01*
X1499006Y-4243273D01*
X1492504Y-4238091D01*
X1486763Y-4230471D01*
X1484071Y-4223715D01*
X1482191Y-4214520D01*
X1482852Y-4201312D01*
X1484579Y-4194708D01*
X1488592Y-4186478D01*
X1495856Y-4179315D01*
X1505712Y-4174236D01*
X1516786Y-4170375D01*
X1548587Y-4162958D01*
X1563319Y-4158183D01*
X1575968Y-4152087D01*
X1584807Y-4146194D01*
X1592326Y-4138726D01*
X1597202Y-4131310D01*
X1600606Y-4123842D01*
X1603400Y-4113377D01*
X1603502Y-4090873D01*
X1601520Y-4081526D01*
X1598726Y-4073296D01*
X1593900Y-4063949D01*
X1588516Y-4056786D01*
X1579270Y-4047896D01*
X1570634Y-4042105D01*
X1561642Y-4037837D01*
X1551432Y-4034536D01*
G37*
G36*
X1256538Y-4035653D02*
G01*
X1256538Y-4272991D01*
X1288389Y-4272991D01*
X1288389Y-4160367D01*
X1376324Y-4160367D01*
X1376324Y-4272991D01*
X1408734Y-4272991D01*
X1408734Y-4036364D01*
X1407972Y-4035653D01*
X1376578Y-4035907D01*
X1376324Y-4132884D01*
X1288389Y-4132884D01*
X1288389Y-4035653D01*
G37*
G36*
X1595272Y-4421428D02*
G01*
X1584807Y-4422038D01*
X1576984Y-4424019D01*
X1569974Y-4427524D01*
X1563268Y-4432858D01*
X1558798Y-4438650D01*
X1554937Y-4445101D01*
X1551635Y-4453026D01*
X1548790Y-4462830D01*
X1546707Y-4475683D01*
X1545506Y-4492498D01*
X1565198Y-4492498D01*
X1566468Y-4474616D01*
X1568602Y-4461916D01*
X1571955Y-4451858D01*
X1575460Y-4445812D01*
X1580540Y-4440682D01*
X1586484Y-4437684D01*
X1596898Y-4437278D01*
X1601774Y-4439056D01*
X1605686Y-4441545D01*
X1610309Y-4446524D01*
X1613814Y-4453483D01*
X1616456Y-4461205D01*
X1618589Y-4472940D01*
X1619859Y-4487519D01*
X1619250Y-4516120D01*
X1617014Y-4529886D01*
X1614728Y-4538116D01*
X1610410Y-4547006D01*
X1604467Y-4553051D01*
X1599488Y-4555490D01*
X1592783Y-4556709D01*
X1585366Y-4555337D01*
X1580134Y-4552492D01*
X1574596Y-4546600D01*
X1570278Y-4537506D01*
X1567586Y-4526584D01*
X1565859Y-4513529D01*
X1565198Y-4492498D01*
X1545506Y-4492498D01*
X1545386Y-4494174D01*
X1546148Y-4512259D01*
X1547774Y-4525213D01*
X1549400Y-4533087D01*
X1551736Y-4540859D01*
X1555343Y-4549394D01*
X1561490Y-4558639D01*
X1568856Y-4565396D01*
X1577695Y-4569714D01*
X1584807Y-4571644D01*
X1600758Y-4571593D01*
X1607921Y-4569612D01*
X1615592Y-4565904D01*
X1621840Y-4560671D01*
X1626768Y-4554626D01*
X1630476Y-4548022D01*
X1633931Y-4539792D01*
X1636776Y-4529175D01*
X1639011Y-4514494D01*
X1639671Y-4489653D01*
X1638300Y-4473854D01*
X1636166Y-4461764D01*
X1632813Y-4450740D01*
X1629206Y-4443018D01*
X1625396Y-4437024D01*
X1619453Y-4430522D01*
X1611325Y-4425188D01*
X1602384Y-4422444D01*
G37*
G36*
X1475486Y-4421428D02*
G01*
X1465072Y-4422038D01*
X1457045Y-4424070D01*
X1449628Y-4427982D01*
X1443329Y-4433163D01*
X1437233Y-4441291D01*
X1433372Y-4449013D01*
X1429664Y-4460290D01*
X1427429Y-4472178D01*
X1426362Y-4483201D01*
X1425889Y-4493056D01*
X1445412Y-4493056D01*
X1446733Y-4474362D01*
X1448765Y-4462322D01*
X1451152Y-4454601D01*
X1454404Y-4447895D01*
X1458468Y-4442612D01*
X1463751Y-4438954D01*
X1469390Y-4437278D01*
X1477162Y-4437329D01*
X1482902Y-4439412D01*
X1487017Y-4442714D01*
X1489964Y-4445812D01*
X1493113Y-4451299D01*
X1495501Y-4457344D01*
X1497685Y-4465574D01*
X1499666Y-4478223D01*
X1499666Y-4515053D01*
X1497685Y-4527702D01*
X1495602Y-4536186D01*
X1492148Y-4544466D01*
X1487322Y-4551019D01*
X1481531Y-4554829D01*
X1474978Y-4556506D01*
X1471066Y-4556506D01*
X1464868Y-4555032D01*
X1459941Y-4552137D01*
X1454810Y-4546447D01*
X1450594Y-4537557D01*
X1447749Y-4526076D01*
X1446123Y-4513224D01*
X1445412Y-4493056D01*
X1425889Y-4493056D01*
X1425651Y-4498035D01*
X1426870Y-4517390D01*
X1429054Y-4530445D01*
X1431645Y-4539792D01*
X1434693Y-4547463D01*
X1439773Y-4556252D01*
X1448562Y-4565142D01*
X1457909Y-4569714D01*
X1465072Y-4571644D01*
X1480972Y-4571644D01*
X1489557Y-4569155D01*
X1494739Y-4566513D01*
X1501648Y-4561332D01*
X1508201Y-4552950D01*
X1513027Y-4543044D01*
X1516380Y-4532071D01*
X1518513Y-4519980D01*
X1519885Y-4505248D01*
X1519275Y-4478782D01*
X1516989Y-4464151D01*
X1514246Y-4454042D01*
X1512011Y-4448200D01*
X1508607Y-4441393D01*
X1503883Y-4434738D01*
X1497177Y-4428540D01*
X1490319Y-4424730D01*
X1482547Y-4422394D01*
G37*
G36*
X1355699Y-4421428D02*
G01*
X1345793Y-4421987D01*
X1338681Y-4423664D01*
X1329893Y-4427880D01*
X1324203Y-4432604D01*
X1318666Y-4439513D01*
X1314856Y-4446371D01*
X1311503Y-4454702D01*
X1308811Y-4465574D01*
X1307134Y-4476597D01*
X1305915Y-4496358D01*
X1306063Y-4499102D01*
X1325626Y-4499102D01*
X1326337Y-4482084D01*
X1327505Y-4470552D01*
X1329537Y-4460494D01*
X1331925Y-4453483D01*
X1335887Y-4445965D01*
X1341120Y-4440529D01*
X1347470Y-4437634D01*
X1357376Y-4437329D01*
X1361948Y-4438802D01*
X1365808Y-4441190D01*
X1371346Y-4447286D01*
X1375156Y-4455210D01*
X1377899Y-4465574D01*
X1379728Y-4477156D01*
X1380286Y-4507331D01*
X1379067Y-4520539D01*
X1377289Y-4531004D01*
X1374546Y-4539792D01*
X1371447Y-4545888D01*
X1367078Y-4551375D01*
X1361694Y-4554829D01*
X1354632Y-4556658D01*
X1348384Y-4555998D01*
X1342237Y-4553712D01*
X1336497Y-4548378D01*
X1332738Y-4542180D01*
X1329080Y-4531512D01*
X1326896Y-4518812D01*
X1325626Y-4499102D01*
X1306063Y-4499102D01*
X1306576Y-4509566D01*
X1307744Y-4521657D01*
X1309928Y-4533188D01*
X1313230Y-4543602D01*
X1318615Y-4554067D01*
X1324102Y-4560874D01*
X1330452Y-4566056D01*
X1338122Y-4569663D01*
X1345285Y-4571644D01*
X1361186Y-4571644D01*
X1368348Y-4569714D01*
X1376019Y-4565904D01*
X1382674Y-4560519D01*
X1387348Y-4554474D01*
X1392123Y-4546041D01*
X1396085Y-4534154D01*
X1397812Y-4526026D01*
X1399489Y-4515053D01*
X1400098Y-4487926D01*
X1398727Y-4473295D01*
X1396644Y-4461764D01*
X1393799Y-4451858D01*
X1388973Y-4441596D01*
X1384096Y-4434738D01*
X1377289Y-4428490D01*
X1371650Y-4425238D01*
X1363116Y-4422394D01*
G37*
G36*
X1235913Y-4421428D02*
G01*
X1226058Y-4421987D01*
X1218895Y-4423664D01*
X1209751Y-4428032D01*
X1201572Y-4435805D01*
X1196441Y-4443526D01*
X1192174Y-4453382D01*
X1189024Y-4465624D01*
X1187246Y-4477664D01*
X1186453Y-4495241D01*
X1205890Y-4495241D01*
X1207109Y-4475480D01*
X1208786Y-4465066D01*
X1211021Y-4456277D01*
X1215847Y-4446168D01*
X1221333Y-4440682D01*
X1227632Y-4437634D01*
X1237589Y-4437278D01*
X1243228Y-4439310D01*
X1248156Y-4443069D01*
X1252677Y-4449114D01*
X1256030Y-4457090D01*
X1258163Y-4465624D01*
X1260094Y-4477664D01*
X1260094Y-4515612D01*
X1258112Y-4528210D01*
X1255877Y-4536998D01*
X1251153Y-4546904D01*
X1247241Y-4551426D01*
X1241958Y-4554829D01*
X1234846Y-4556658D01*
X1228648Y-4555998D01*
X1222552Y-4553762D01*
X1217320Y-4549140D01*
X1213205Y-4542790D01*
X1209852Y-4533442D01*
X1207668Y-4522165D01*
X1206550Y-4511192D01*
X1205890Y-4495241D01*
X1186453Y-4495241D01*
X1186383Y-4496917D01*
X1187297Y-4516729D01*
X1189990Y-4532630D01*
X1193901Y-4544568D01*
X1199083Y-4554372D01*
X1204925Y-4561535D01*
X1211732Y-4566564D01*
X1218336Y-4569663D01*
X1225499Y-4571644D01*
X1241399Y-4571644D01*
X1248562Y-4569714D01*
X1256233Y-4565954D01*
X1262786Y-4560671D01*
X1268679Y-4552950D01*
X1272997Y-4544364D01*
X1276807Y-4532477D01*
X1278991Y-4520488D01*
X1280312Y-4506518D01*
X1279702Y-4478223D01*
X1278026Y-4467250D01*
X1276299Y-4459071D01*
X1273048Y-4449419D01*
X1269034Y-4441393D01*
X1264310Y-4434789D01*
X1257350Y-4428236D01*
X1250746Y-4424730D01*
X1243380Y-4422394D01*
G37*
G36*
X1116126Y-4421428D02*
G01*
X1106271Y-4421987D01*
X1099108Y-4423664D01*
X1090066Y-4427982D01*
X1082751Y-4434840D01*
X1078382Y-4440682D01*
X1074064Y-4449114D01*
X1070305Y-4460798D01*
X1068171Y-4472736D01*
X1066850Y-4485741D01*
X1067036Y-4496866D01*
X1086205Y-4496866D01*
X1087323Y-4476038D01*
X1088999Y-4464710D01*
X1091742Y-4455160D01*
X1096060Y-4446270D01*
X1101547Y-4440682D01*
X1107846Y-4437634D01*
X1117803Y-4437278D01*
X1123391Y-4439259D01*
X1128115Y-4442764D01*
X1132535Y-4448556D01*
X1135634Y-4455414D01*
X1138275Y-4464507D01*
X1140206Y-4477664D01*
X1140866Y-4496917D01*
X1140155Y-4516678D01*
X1138428Y-4527905D01*
X1136142Y-4536998D01*
X1131112Y-4547412D01*
X1124915Y-4553610D01*
X1118362Y-4556150D01*
X1109014Y-4556150D01*
X1102410Y-4553610D01*
X1095756Y-4546904D01*
X1091742Y-4538675D01*
X1088999Y-4528210D01*
X1087323Y-4517796D01*
X1086205Y-4496866D01*
X1067036Y-4496866D01*
X1067409Y-4516120D01*
X1069238Y-4527702D01*
X1071880Y-4538218D01*
X1074623Y-4545584D01*
X1078484Y-4552950D01*
X1084376Y-4560671D01*
X1090879Y-4565954D01*
X1098550Y-4569714D01*
X1105712Y-4571644D01*
X1121664Y-4571644D01*
X1128776Y-4569714D01*
X1136497Y-4565904D01*
X1142746Y-4560925D01*
X1148232Y-4554067D01*
X1153109Y-4544720D01*
X1156411Y-4534814D01*
X1158798Y-4523841D01*
X1160373Y-4509008D01*
X1160373Y-4484674D01*
X1159256Y-4473295D01*
X1157122Y-4461205D01*
X1153261Y-4449114D01*
X1148791Y-4440428D01*
X1145032Y-4435246D01*
X1137564Y-4428236D01*
X1130960Y-4424730D01*
X1123594Y-4422394D01*
G37*
G36*
X995832Y-4421479D02*
G01*
X986485Y-4421987D01*
X978865Y-4423156D01*
X971245Y-4425746D01*
X963980Y-4429810D01*
X956259Y-4437583D01*
X952652Y-4444390D01*
X950417Y-4452975D01*
X950417Y-4463948D01*
X969568Y-4463948D01*
X970178Y-4453483D01*
X972566Y-4447133D01*
X976071Y-4442510D01*
X981354Y-4438954D01*
X987044Y-4437176D01*
X998575Y-4436821D01*
X1003503Y-4437837D01*
X1010412Y-4441342D01*
X1014374Y-4445660D01*
X1016965Y-4451400D01*
X1018082Y-4457242D01*
X1018082Y-4464608D01*
X1016965Y-4470450D01*
X1014323Y-4476191D01*
X1009853Y-4480661D01*
X1004620Y-4483303D01*
X998575Y-4484725D01*
X989228Y-4484725D01*
X983183Y-4483303D01*
X977900Y-4480661D01*
X973429Y-4476191D01*
X970787Y-4470400D01*
X969568Y-4463948D01*
X950417Y-4463948D01*
X950417Y-4465066D01*
X952144Y-4471365D01*
X955344Y-4477715D01*
X959764Y-4483354D01*
X967130Y-4488637D01*
X976020Y-4492193D01*
X969975Y-4494022D01*
X961339Y-4498492D01*
X954684Y-4504588D01*
X950569Y-4510989D01*
X947724Y-4519422D01*
X946987Y-4525467D01*
X966317Y-4525467D01*
X967994Y-4517034D01*
X970889Y-4510989D01*
X975715Y-4505604D01*
X982167Y-4502150D01*
X988618Y-4500473D01*
X999642Y-4500575D01*
X1005332Y-4501946D01*
X1011326Y-4504893D01*
X1017016Y-4510938D01*
X1019759Y-4516882D01*
X1021486Y-4524908D01*
X1020876Y-4536033D01*
X1018540Y-4542942D01*
X1014882Y-4548682D01*
X1010107Y-4552543D01*
X1005484Y-4554880D01*
X998575Y-4556506D01*
X989228Y-4556506D01*
X982319Y-4554880D01*
X976782Y-4552086D01*
X971854Y-4547514D01*
X969060Y-4542739D01*
X966978Y-4536084D01*
X966317Y-4525467D01*
X946987Y-4525467D01*
X946556Y-4528769D01*
X947267Y-4538624D01*
X949350Y-4546701D01*
X953922Y-4555439D01*
X962914Y-4563973D01*
X969721Y-4567580D01*
X977696Y-4570323D01*
X988110Y-4571898D01*
X999642Y-4571898D01*
X1010310Y-4570323D01*
X1017269Y-4567986D01*
X1025550Y-4563567D01*
X1031748Y-4558131D01*
X1037285Y-4549902D01*
X1040130Y-4540859D01*
X1041298Y-4530598D01*
X1040079Y-4519422D01*
X1037336Y-4511395D01*
X1033424Y-4504944D01*
X1025906Y-4498035D01*
X1017778Y-4494022D01*
X1011783Y-4492193D01*
X1020521Y-4488637D01*
X1025499Y-4485487D01*
X1032103Y-4478782D01*
X1035659Y-4471619D01*
X1037488Y-4464507D01*
X1037437Y-4452975D01*
X1035050Y-4444187D01*
X1031544Y-4437583D01*
X1023823Y-4429760D01*
X1016609Y-4425746D01*
X1010107Y-4423511D01*
X1005179Y-4422343D01*
G37*
G36*
X1843836Y-4424070D02*
G01*
X1820113Y-4424375D01*
X1792083Y-4515866D01*
X1811375Y-4515866D01*
X1831949Y-4442510D01*
X1832305Y-4442155D01*
X1852675Y-4515358D01*
X1852675Y-4515866D01*
X1792083Y-4515866D01*
X1775663Y-4569206D01*
X1796186Y-4568901D01*
X1806397Y-4532934D01*
X1807057Y-4531258D01*
X1857654Y-4531258D01*
X1868170Y-4569155D01*
X1888540Y-4569155D01*
X1887982Y-4567783D01*
G37*
G36*
X1657096Y-4424121D02*
G01*
X1657096Y-4440580D01*
X1702155Y-4440580D01*
X1702155Y-4569155D01*
X1721916Y-4569155D01*
X1722170Y-4440885D01*
X1767535Y-4440580D01*
X1767535Y-4424121D01*
G37*
G36*
X1589786Y-4483455D02*
G01*
X1585264Y-4485487D01*
X1581353Y-4489602D01*
X1579626Y-4494631D01*
X1579626Y-4498086D01*
X1581353Y-4503115D01*
X1585163Y-4507077D01*
X1588566Y-4508855D01*
X1594967Y-4509414D01*
X1599742Y-4507585D01*
X1603400Y-4504029D01*
X1605381Y-4499660D01*
X1605432Y-4494174D01*
X1604264Y-4489958D01*
X1600200Y-4485487D01*
X1595831Y-4483455D01*
G37*
G36*
X1469999Y-4483455D02*
G01*
X1465580Y-4485487D01*
X1462074Y-4489094D01*
X1460398Y-4492599D01*
X1459687Y-4497070D01*
X1461414Y-4502962D01*
X1465529Y-4507128D01*
X1468780Y-4508855D01*
X1475232Y-4509414D01*
X1479956Y-4507585D01*
X1483614Y-4504029D01*
X1485646Y-4499660D01*
X1485646Y-4493310D01*
X1483969Y-4489196D01*
X1480413Y-4485538D01*
X1476044Y-4483455D01*
G37*
G36*
X1350213Y-4483455D02*
G01*
X1345793Y-4485487D01*
X1341221Y-4490669D01*
X1340002Y-4496409D01*
X1341272Y-4502302D01*
X1346911Y-4508093D01*
X1351838Y-4509363D01*
X1357579Y-4508906D01*
X1362811Y-4505706D01*
X1365859Y-4499813D01*
X1365859Y-4493310D01*
X1364183Y-4489196D01*
X1360627Y-4485538D01*
X1356258Y-4483455D01*
G37*
G36*
X1230680Y-4483455D02*
G01*
X1226566Y-4485132D01*
X1222908Y-4488688D01*
X1220622Y-4493056D01*
X1220622Y-4499660D01*
X1222959Y-4504131D01*
X1227328Y-4508093D01*
X1232052Y-4509363D01*
X1237792Y-4508906D01*
X1243076Y-4505655D01*
X1246174Y-4499559D01*
X1246174Y-4493514D01*
X1244396Y-4489196D01*
X1240891Y-4485538D01*
X1236472Y-4483455D01*
G37*
G36*
X1110894Y-4483455D02*
G01*
X1106830Y-4485132D01*
X1103122Y-4488688D01*
X1100886Y-4493006D01*
X1100886Y-4499711D01*
X1103172Y-4504232D01*
X1107846Y-4508195D01*
X1111758Y-4509262D01*
X1116736Y-4509262D01*
X1122375Y-4506468D01*
X1125220Y-4502759D01*
X1126388Y-4499711D01*
X1126388Y-4493412D01*
X1124254Y-4488688D01*
X1121105Y-4485538D01*
X1117244Y-4483506D01*
G37*
G36*
X2500020Y-1999996D02*
G01*
X2500020Y-2024380D01*
X2646324Y-2024380D01*
X2646324Y-2146300D01*
X2524404Y-2146300D01*
X2524404Y-2024380D01*
X2500020Y-2024380D01*
X2500020Y-2170684D01*
X2670708Y-2170684D01*
X2670708Y-1999996D01*
G37*
G36*
X3329330Y-1999996D02*
G01*
X3329330Y-2024380D01*
X3475634Y-2024380D01*
X3475634Y-2146300D01*
X3353714Y-2146300D01*
X3353714Y-2024380D01*
X3329330Y-2024380D01*
X3329330Y-2170684D01*
X3500018Y-2170684D01*
X3500018Y-1999996D01*
G37*
G36*
X3109874Y-1999996D02*
G01*
X3109874Y-2024380D01*
X3134258Y-2024380D01*
X3134258Y-2073148D01*
X3061106Y-2073148D01*
X3061106Y-2121916D01*
X3012338Y-2121916D01*
X3012338Y-2146300D01*
X3036722Y-2146300D01*
X3036722Y-2170684D01*
X3061106Y-2170684D01*
X3061106Y-2146300D01*
X3085490Y-2146300D01*
X3085490Y-2097532D01*
X3109874Y-2097532D01*
X3109874Y-2121916D01*
X3231794Y-2121916D01*
X3231794Y-2073148D01*
X3207410Y-2073148D01*
X3207410Y-2097532D01*
X3158642Y-2097532D01*
X3158642Y-2073148D01*
X3183026Y-2073148D01*
X3183026Y-2048764D01*
X3158642Y-2048764D01*
X3158642Y-2024380D01*
X3183026Y-2024380D01*
X3183026Y-1999996D01*
G37*
G36*
X3036722Y-1999996D02*
G01*
X3036722Y-2024380D01*
X3012338Y-2024380D01*
X3012338Y-2048764D01*
X2987954Y-2048764D01*
X2987954Y-2097532D01*
X3012338Y-2097532D01*
X3012338Y-2073148D01*
X3061106Y-2073148D01*
X3061106Y-2048764D01*
X3085490Y-2048764D01*
X3085490Y-2024380D01*
X3061106Y-2024380D01*
X3061106Y-1999996D01*
G37*
G36*
X2914548Y-1999996D02*
G01*
X2914548Y-2024380D01*
X2963316Y-2024380D01*
X2963316Y-2048764D01*
X2938932Y-2048764D01*
X2938932Y-2073148D01*
X2963316Y-2073148D01*
X2963316Y-2121916D01*
X2987700Y-2121916D01*
X2987700Y-1999996D01*
G37*
G36*
X3280562Y-1999996D02*
G01*
X3280562Y-2024380D01*
X3304946Y-2024380D01*
X3304946Y-1999996D01*
G37*
G36*
X3207410Y-1999996D02*
G01*
X3207410Y-2024380D01*
X3231794Y-2024380D01*
X3231794Y-1999996D01*
G37*
G36*
X2987954Y-1999996D02*
G01*
X2987954Y-2024380D01*
X3012338Y-2024380D01*
X3012338Y-1999996D01*
G37*
G36*
X3231794Y-2024380D02*
G01*
X3231794Y-2048764D01*
X3280562Y-2048764D01*
X3280562Y-2024380D01*
G37*
G36*
X3378098Y-2048764D02*
G01*
X3378098Y-2121916D01*
X3451250Y-2121916D01*
X3451250Y-2048764D01*
G37*
G36*
X2695092Y-2048764D02*
G01*
X2695092Y-2073148D01*
X2719476Y-2073148D01*
X2719476Y-2048764D01*
G37*
G36*
X2548788Y-2048764D02*
G01*
X2548788Y-2121916D01*
X2621940Y-2121916D01*
X2621940Y-2048764D01*
G37*
G36*
X3256178Y-2073148D02*
G01*
X3256178Y-2097532D01*
X3304946Y-2097532D01*
X3304946Y-2073148D01*
G37*
G36*
X2719476Y-2073148D02*
G01*
X2719476Y-2097532D01*
X2743860Y-2097532D01*
X2743860Y-2121916D01*
X2719476Y-2121916D01*
X2719476Y-2146300D01*
X2743860Y-2146300D01*
X2743860Y-2195068D01*
X2768244Y-2195068D01*
X2768244Y-2268220D01*
X2743860Y-2268220D01*
X2743860Y-2292604D01*
X2768244Y-2292604D01*
X2768244Y-2341372D01*
X2792628Y-2341372D01*
X2792628Y-2292604D01*
X2841396Y-2292604D01*
X2841396Y-2316988D01*
X2865780Y-2316988D01*
X2865780Y-2365756D01*
X2890164Y-2365756D01*
X2890164Y-2341372D01*
X2914548Y-2341372D01*
X2914548Y-2292604D01*
X2890164Y-2292604D01*
X2890164Y-2268220D01*
X2938932Y-2268220D01*
X2938932Y-2219452D01*
X2914548Y-2219452D01*
X2914548Y-2243836D01*
X2890164Y-2243836D01*
X2890164Y-2219452D01*
X2841396Y-2219452D01*
X2841396Y-2268220D01*
X2792628Y-2268220D01*
X2792628Y-2243836D01*
X2817012Y-2243836D01*
X2817012Y-2195068D01*
X2792628Y-2195068D01*
X2792628Y-2170684D01*
X2768244Y-2170684D01*
X2768244Y-2048764D01*
X2841396Y-2048764D01*
X2841396Y-2073148D01*
X2817012Y-2073148D01*
X2817012Y-2048764D01*
X2792628Y-2048764D01*
X2792628Y-2097532D01*
X2841396Y-2097532D01*
X2841396Y-2121916D01*
X2792628Y-2121916D01*
X2792628Y-2170684D01*
X2817012Y-2170684D01*
X2817012Y-2146300D01*
X2841396Y-2146300D01*
X2841396Y-2170684D01*
X2865780Y-2170684D01*
X2865780Y-2146300D01*
X2890164Y-2146300D01*
X2890164Y-2121916D01*
X2865780Y-2121916D01*
X2865780Y-2097532D01*
X2938932Y-2097532D01*
X2938932Y-2073148D01*
X2890164Y-2073148D01*
X2890164Y-2048764D01*
X2865780Y-2048764D01*
X2865780Y-2024380D01*
X2890164Y-2024380D01*
X2890164Y-1999996D01*
X2817012Y-1999996D01*
X2817012Y-2024380D01*
X2768244Y-2024380D01*
X2768244Y-1999996D01*
X2719476Y-1999996D01*
X2719476Y-2048764D01*
X2743860Y-2048764D01*
X2743860Y-2073148D01*
G37*
G36*
X3256178Y-2121916D02*
G01*
X3256178Y-2146300D01*
X3280562Y-2146300D01*
X3280562Y-2121916D01*
G37*
G36*
X3183026Y-2146300D02*
G01*
X3183026Y-2219452D01*
X3134258Y-2219452D01*
X3134258Y-2195068D01*
X3109874Y-2195068D01*
X3109874Y-2219452D01*
X3061106Y-2219452D01*
X3061106Y-2243836D01*
X3036722Y-2243836D01*
X3036722Y-2268220D01*
X3012338Y-2268220D01*
X3012338Y-2292604D01*
X3036722Y-2292604D01*
X3036722Y-2341372D01*
X2987954Y-2341372D01*
X2987954Y-2365756D01*
X3012338Y-2365756D01*
X3012338Y-2390140D01*
X2987954Y-2390140D01*
X2987954Y-2414524D01*
X3012338Y-2414524D01*
X3012338Y-2438908D01*
X3036722Y-2438908D01*
X3036722Y-2463292D01*
X3061106Y-2463292D01*
X3061106Y-2390140D01*
X3036722Y-2390140D01*
X3036722Y-2365756D01*
X3061106Y-2365756D01*
X3061106Y-2316988D01*
X3085490Y-2316988D01*
X3085490Y-2292604D01*
X3061106Y-2292604D01*
X3061106Y-2268220D01*
X3085490Y-2268220D01*
X3085490Y-2243836D01*
X3158642Y-2243836D01*
X3158642Y-2268220D01*
X3134258Y-2268220D01*
X3134258Y-2292604D01*
X3109874Y-2292604D01*
X3109874Y-2341372D01*
X3134258Y-2341372D01*
X3134258Y-2316988D01*
X3158642Y-2316988D01*
X3158642Y-2292604D01*
X3231794Y-2292604D01*
X3231794Y-2341372D01*
X3256178Y-2341372D01*
X3256178Y-2316988D01*
X3280562Y-2316988D01*
X3280562Y-2292604D01*
X3256178Y-2292604D01*
X3256178Y-2268220D01*
X3231794Y-2268220D01*
X3231794Y-2219452D01*
X3280562Y-2219452D01*
X3280562Y-2243836D01*
X3304946Y-2243836D01*
X3304946Y-2195068D01*
X3231794Y-2195068D01*
X3231794Y-2170684D01*
X3207410Y-2170684D01*
X3207410Y-2146300D01*
G37*
G36*
X2695092Y-2146300D02*
G01*
X2695092Y-2195068D01*
X2670708Y-2195068D01*
X2670708Y-2219452D01*
X2695092Y-2219452D01*
X2695092Y-2243836D01*
X2719476Y-2243836D01*
X2719476Y-2219452D01*
X2743860Y-2219452D01*
X2743860Y-2195068D01*
X2719476Y-2195068D01*
X2719476Y-2146300D01*
G37*
G36*
X2938932Y-2146300D02*
G01*
X2938932Y-2170684D01*
X2914548Y-2170684D01*
X2914548Y-2195068D01*
X2963316Y-2195068D01*
X2963316Y-2146300D01*
G37*
G36*
X3280562Y-2146300D02*
G01*
X3280562Y-2170684D01*
X3304946Y-2170684D01*
X3304946Y-2146300D01*
G37*
G36*
X3231794Y-2146300D02*
G01*
X3231794Y-2170684D01*
X3256178Y-2170684D01*
X3256178Y-2146300D01*
G37*
G36*
X3134258Y-2146300D02*
G01*
X3134258Y-2195068D01*
X3158642Y-2195068D01*
X3158642Y-2146300D01*
G37*
G36*
X3085490Y-2146300D02*
G01*
X3085490Y-2195068D01*
X3109874Y-2195068D01*
X3109874Y-2146300D01*
G37*
G36*
X2987954Y-2146300D02*
G01*
X2987954Y-2170684D01*
X3012338Y-2170684D01*
X3012338Y-2146300D01*
G37*
G36*
X2890164Y-2146300D02*
G01*
X2890164Y-2170684D01*
X2914548Y-2170684D01*
X2914548Y-2146300D01*
G37*
G36*
X3012338Y-2170684D02*
G01*
X3012338Y-2219452D01*
X3061106Y-2219452D01*
X3061106Y-2195068D01*
X3036722Y-2195068D01*
X3036722Y-2170684D01*
G37*
G36*
X2865780Y-2170684D02*
G01*
X2865780Y-2195068D01*
X2890164Y-2195068D01*
X2890164Y-2170684D01*
G37*
G36*
X2817012Y-2170684D02*
G01*
X2817012Y-2195068D01*
X2841396Y-2195068D01*
X2841396Y-2170684D01*
G37*
G36*
X3329330Y-2195068D02*
G01*
X3329330Y-2219452D01*
X3353714Y-2219452D01*
X3353714Y-2243836D01*
X3304946Y-2243836D01*
X3304946Y-2268220D01*
X3402482Y-2268220D01*
X3402482Y-2195068D01*
G37*
G36*
X3426866Y-2195068D02*
G01*
X3426866Y-2219452D01*
X3451250Y-2219452D01*
X3451250Y-2195068D01*
G37*
G36*
X2890164Y-2195068D02*
G01*
X2890164Y-2219452D01*
X2914548Y-2219452D01*
X2914548Y-2195068D01*
G37*
G36*
X2500020Y-2195068D02*
G01*
X2500020Y-2268220D01*
X2573172Y-2268220D01*
X2573172Y-2243836D01*
X2597556Y-2243836D01*
X2597556Y-2195068D01*
X2573172Y-2195068D01*
X2573172Y-2219452D01*
X2524404Y-2219452D01*
X2524404Y-2195068D01*
G37*
G36*
X3451250Y-2219452D02*
G01*
X3451250Y-2243836D01*
X3426866Y-2243836D01*
X3426866Y-2268220D01*
X3402482Y-2268220D01*
X3402482Y-2292604D01*
X3378098Y-2292604D01*
X3378098Y-2390140D01*
X3329330Y-2390140D01*
X3329330Y-2414524D01*
X3402482Y-2414524D01*
X3402482Y-2341372D01*
X3426866Y-2341372D01*
X3426866Y-2390140D01*
X3451250Y-2390140D01*
X3451250Y-2341372D01*
X3500018Y-2341372D01*
X3500018Y-2292604D01*
X3475634Y-2292604D01*
X3475634Y-2316988D01*
X3426866Y-2316988D01*
X3426866Y-2292604D01*
X3451250Y-2292604D01*
X3451250Y-2268220D01*
X3475634Y-2268220D01*
X3475634Y-2219452D01*
G37*
G36*
X2646324Y-2219452D02*
G01*
X2646324Y-2243836D01*
X2621940Y-2243836D01*
X2621940Y-2292604D01*
X2646324Y-2292604D01*
X2646324Y-2268220D01*
X2695092Y-2268220D01*
X2695092Y-2243836D01*
X2670708Y-2243836D01*
X2670708Y-2219452D01*
G37*
G36*
X2963316Y-2219452D02*
G01*
X2963316Y-2243836D01*
X2987700Y-2243836D01*
X2987700Y-2219452D01*
G37*
G36*
X3256178Y-2243836D02*
G01*
X3256178Y-2268220D01*
X3280562Y-2268220D01*
X3280562Y-2243836D01*
G37*
G36*
X3085490Y-2268220D02*
G01*
X3085490Y-2292604D01*
X3109874Y-2292604D01*
X3109874Y-2268220D01*
G37*
G36*
X2938932Y-2268220D02*
G01*
X2938932Y-2365756D01*
X2963316Y-2365756D01*
X2963316Y-2341372D01*
X2987700Y-2341372D01*
X2987700Y-2292604D01*
X2963316Y-2292604D01*
X2963316Y-2268220D01*
G37*
G36*
X2695092Y-2268220D02*
G01*
X2695092Y-2292604D01*
X2719476Y-2292604D01*
X2719476Y-2268220D01*
G37*
G36*
X2646324Y-2292604D02*
G01*
X2646324Y-2341372D01*
X2621940Y-2341372D01*
X2621940Y-2365756D01*
X2646324Y-2365756D01*
X2646324Y-2390140D01*
X2621940Y-2390140D01*
X2621940Y-2414524D01*
X2646324Y-2414524D01*
X2646324Y-2438908D01*
X2670708Y-2438908D01*
X2670708Y-2316988D01*
X2695092Y-2316988D01*
X2695092Y-2292604D01*
G37*
G36*
X2524404Y-2292604D02*
G01*
X2524404Y-2316988D01*
X2500020Y-2316988D01*
X2500020Y-2487676D01*
X2524404Y-2487676D01*
X2524404Y-2512060D01*
X2548788Y-2512060D01*
X2548788Y-2438908D01*
X2573172Y-2438908D01*
X2573172Y-2414524D01*
X2524404Y-2414524D01*
X2524404Y-2390140D01*
X2548788Y-2390140D01*
X2548788Y-2292604D01*
G37*
G36*
X3304946Y-2292604D02*
G01*
X3304946Y-2365756D01*
X3353714Y-2365756D01*
X3353714Y-2341372D01*
X3329330Y-2341372D01*
X3329330Y-2316988D01*
X3353714Y-2316988D01*
X3353714Y-2292604D01*
G37*
G36*
X2719476Y-2292604D02*
G01*
X2719476Y-2316988D01*
X2743860Y-2316988D01*
X2743860Y-2292604D01*
G37*
G36*
X2573172Y-2292604D02*
G01*
X2573172Y-2365756D01*
X2597556Y-2365756D01*
X2597556Y-2316988D01*
X2621940Y-2316988D01*
X2621940Y-2292604D01*
G37*
G36*
X3158642Y-2316988D02*
G01*
X3158642Y-2341372D01*
X3134258Y-2341372D01*
X3134258Y-2365756D01*
X3109874Y-2365756D01*
X3109874Y-2390140D01*
X3158642Y-2390140D01*
X3158642Y-2365756D01*
X3183026Y-2365756D01*
X3183026Y-2390140D01*
X3158642Y-2390140D01*
X3158642Y-2414524D01*
X3085490Y-2414524D01*
X3085490Y-2438908D01*
X3134258Y-2438908D01*
X3134258Y-2463292D01*
X3158642Y-2463292D01*
X3158642Y-2438908D01*
X3183026Y-2438908D01*
X3183026Y-2414524D01*
X3231794Y-2414524D01*
X3231794Y-2390140D01*
X3256178Y-2390140D01*
X3256178Y-2365756D01*
X3207410Y-2365756D01*
X3207410Y-2316988D01*
G37*
G36*
X2817012Y-2316988D02*
G01*
X2817012Y-2341372D01*
X2841396Y-2341372D01*
X2841396Y-2316988D01*
G37*
G36*
X2695092Y-2316988D02*
G01*
X2695092Y-2341372D01*
X2719476Y-2341372D01*
X2719476Y-2316988D01*
G37*
G36*
X2914548Y-2365756D02*
G01*
X2914548Y-2390140D01*
X2841396Y-2390140D01*
X2841396Y-2463292D01*
X2865780Y-2463292D01*
X2865780Y-2414524D01*
X2938932Y-2414524D01*
X2938932Y-2365756D01*
G37*
G36*
X2817012Y-2365756D02*
G01*
X2817012Y-2390140D01*
X2841396Y-2390140D01*
X2841396Y-2365756D01*
G37*
G36*
X2743860Y-2365756D02*
G01*
X2743860Y-2390140D01*
X2768244Y-2390140D01*
X2768244Y-2414524D01*
X2792628Y-2414524D01*
X2792628Y-2438908D01*
X2817012Y-2438908D01*
X2817012Y-2390140D01*
X2792628Y-2390140D01*
X2792628Y-2365756D01*
G37*
G36*
X2597556Y-2365756D02*
G01*
X2597556Y-2390140D01*
X2621940Y-2390140D01*
X2621940Y-2365756D01*
G37*
G36*
X2963316Y-2390140D02*
G01*
X2963316Y-2438908D01*
X2938932Y-2438908D01*
X2938932Y-2463292D01*
X2963316Y-2463292D01*
X2963316Y-2487676D01*
X2938932Y-2487676D01*
X2938932Y-2463292D01*
X2890164Y-2463292D01*
X2890164Y-2487676D01*
X2841396Y-2487676D01*
X2841396Y-2512060D01*
X2987700Y-2512060D01*
X2987700Y-2390140D01*
G37*
G36*
X3451250Y-2390140D02*
G01*
X3451250Y-2463292D01*
X3402482Y-2463292D01*
X3402482Y-2438908D01*
X3378098Y-2438908D01*
X3378098Y-2487676D01*
X3426866Y-2487676D01*
X3426866Y-2512060D01*
X3451250Y-2512060D01*
X3451250Y-2487676D01*
X3500018Y-2487676D01*
X3500018Y-2414524D01*
X3475634Y-2414524D01*
X3475634Y-2390140D01*
G37*
G36*
X3280562Y-2390140D02*
G01*
X3280562Y-2414524D01*
X3304946Y-2414524D01*
X3304946Y-2390140D01*
G37*
G36*
X3256178Y-2414524D02*
G01*
X3256178Y-2438908D01*
X3207410Y-2438908D01*
X3207410Y-2463292D01*
X3158642Y-2463292D01*
X3158642Y-2512060D01*
X3256178Y-2512060D01*
X3256178Y-2487676D01*
X3231794Y-2487676D01*
X3231794Y-2463292D01*
X3256178Y-2463292D01*
X3256178Y-2487676D01*
X3280562Y-2487676D01*
X3280562Y-2463292D01*
X3353714Y-2463292D01*
X3353714Y-2438908D01*
X3280562Y-2438908D01*
X3280562Y-2414524D01*
G37*
G36*
X2695092Y-2414524D02*
G01*
X2695092Y-2438908D01*
X2719476Y-2438908D01*
X2719476Y-2414524D01*
G37*
G36*
X2768244Y-2438908D02*
G01*
X2768244Y-2463292D01*
X2743860Y-2463292D01*
X2743860Y-2487676D01*
X2768244Y-2487676D01*
X2768244Y-2512060D01*
X2817012Y-2512060D01*
X2817012Y-2463292D01*
X2792628Y-2463292D01*
X2792628Y-2438908D01*
G37*
G36*
X2670708Y-2438908D02*
G01*
X2670708Y-2463292D01*
X2695092Y-2463292D01*
X2695092Y-2438908D01*
G37*
G36*
X2573172Y-2438908D02*
G01*
X2573172Y-2463292D01*
X2621940Y-2463292D01*
X2621940Y-2438908D01*
G37*
G36*
X3061106Y-2463292D02*
G01*
X3061106Y-2487676D01*
X3134258Y-2487676D01*
X3134258Y-2463292D01*
G37*
G36*
X2987954Y-2463292D02*
G01*
X2987954Y-2487676D01*
X3012338Y-2487676D01*
X3012338Y-2512060D01*
X3036722Y-2512060D01*
X3036722Y-2463292D01*
G37*
G36*
X2621940Y-2463292D02*
G01*
X2621940Y-2487676D01*
X2646324Y-2487676D01*
X2646324Y-2512060D01*
X2743860Y-2512060D01*
X2743860Y-2487676D01*
X2719476Y-2487676D01*
X2719476Y-2463292D01*
X2695092Y-2463292D01*
X2695092Y-2487676D01*
X2670708Y-2487676D01*
X2670708Y-2463292D01*
G37*
G36*
X3329330Y-2487676D02*
G01*
X3329330Y-2512060D01*
X3378098Y-2512060D01*
X3378098Y-2487676D01*
G37*
G36*
X2646324Y-2512314D02*
G01*
X2646324Y-2561082D01*
X2670708Y-2561082D01*
X2670708Y-2585466D01*
X2695092Y-2585466D01*
X2695092Y-2609850D01*
X2719476Y-2609850D01*
X2719476Y-2585466D01*
X2768244Y-2585466D01*
X2768244Y-2609850D01*
X2743860Y-2609850D01*
X2743860Y-2683002D01*
X2768244Y-2683002D01*
X2768244Y-2707386D01*
X2792628Y-2707386D01*
X2792628Y-2731770D01*
X2768244Y-2731770D01*
X2768244Y-2780538D01*
X2743860Y-2780538D01*
X2743860Y-2804922D01*
X2768244Y-2804922D01*
X2768244Y-2829306D01*
X2743860Y-2829306D01*
X2743860Y-2853690D01*
X2768244Y-2853690D01*
X2768244Y-2878074D01*
X2792628Y-2878074D01*
X2792628Y-2902458D01*
X2768244Y-2902458D01*
X2768244Y-2926842D01*
X2817012Y-2926842D01*
X2817012Y-2902458D01*
X2841396Y-2902458D01*
X2841396Y-2878074D01*
X2865780Y-2878074D01*
X2865780Y-2853690D01*
X2792628Y-2853690D01*
X2792628Y-2829306D01*
X2841396Y-2829306D01*
X2841396Y-2804922D01*
X2865780Y-2804922D01*
X2865780Y-2829306D01*
X2890164Y-2829306D01*
X2890164Y-2804922D01*
X2914548Y-2804922D01*
X2914548Y-2829306D01*
X2963316Y-2829306D01*
X2963316Y-2804922D01*
X2938932Y-2804922D01*
X2938932Y-2780538D01*
X2817012Y-2780538D01*
X2817012Y-2756154D01*
X2938932Y-2756154D01*
X2938932Y-2731770D01*
X2890164Y-2731770D01*
X2890164Y-2707386D01*
X2938932Y-2707386D01*
X2938932Y-2658618D01*
X2890164Y-2658618D01*
X2890164Y-2683002D01*
X2865780Y-2683002D01*
X2865780Y-2707386D01*
X2841396Y-2707386D01*
X2841396Y-2658618D01*
X2817012Y-2658618D01*
X2817012Y-2683002D01*
X2792628Y-2683002D01*
X2792628Y-2658618D01*
X2768244Y-2658618D01*
X2768244Y-2634234D01*
X2792628Y-2634234D01*
X2792628Y-2658618D01*
X2817012Y-2658618D01*
X2817012Y-2609850D01*
X2792628Y-2609850D01*
X2792628Y-2585466D01*
X2817012Y-2585466D01*
X2817012Y-2609850D01*
X2841396Y-2609850D01*
X2841396Y-2585466D01*
X2865780Y-2585466D01*
X2865780Y-2609850D01*
X2841396Y-2609850D01*
X2841396Y-2658618D01*
X2890164Y-2658618D01*
X2890164Y-2634234D01*
X2987700Y-2634234D01*
X2987700Y-2512314D01*
X2963316Y-2512314D01*
X2963316Y-2561082D01*
X2914548Y-2561082D01*
X2914548Y-2585466D01*
X2938932Y-2585466D01*
X2938932Y-2609850D01*
X2914548Y-2609850D01*
X2914548Y-2585466D01*
X2890164Y-2585466D01*
X2890164Y-2561082D01*
X2768244Y-2561082D01*
X2768244Y-2512314D01*
X2743860Y-2512314D01*
X2743860Y-2561082D01*
X2695092Y-2561082D01*
X2695092Y-2536698D01*
X2670708Y-2536698D01*
X2670708Y-2512314D01*
G37*
G36*
X3304946Y-2512314D02*
G01*
X3304946Y-2536698D01*
X3280562Y-2536698D01*
X3280562Y-2561082D01*
X3353714Y-2561082D01*
X3353714Y-2585466D01*
X3378098Y-2585466D01*
X3378098Y-2561082D01*
X3402482Y-2561082D01*
X3402482Y-2609850D01*
X3426866Y-2609850D01*
X3426866Y-2634234D01*
X3451250Y-2634234D01*
X3451250Y-2609850D01*
X3475634Y-2609850D01*
X3475634Y-2585466D01*
X3426866Y-2585466D01*
X3426866Y-2536698D01*
X3402482Y-2536698D01*
X3402482Y-2512314D01*
X3378098Y-2512314D01*
X3378098Y-2536698D01*
X3329330Y-2536698D01*
X3329330Y-2512314D01*
G37*
G36*
X3451250Y-2512314D02*
G01*
X3451250Y-2536698D01*
X3475634Y-2536698D01*
X3475634Y-2585466D01*
X3500018Y-2585466D01*
X3500018Y-2512314D01*
G37*
G36*
X3256178Y-2512314D02*
G01*
X3256178Y-2536698D01*
X3280562Y-2536698D01*
X3280562Y-2512314D01*
G37*
G36*
X3134258Y-2512314D02*
G01*
X3134258Y-2536698D01*
X3158642Y-2536698D01*
X3158642Y-2512314D01*
G37*
G36*
X2987954Y-2512314D02*
G01*
X2987954Y-2561082D01*
X3012338Y-2561082D01*
X3012338Y-2536698D01*
X3036722Y-2536698D01*
X3036722Y-2585466D01*
X3061106Y-2585466D01*
X3061106Y-2536698D01*
X3085490Y-2536698D01*
X3085490Y-2512314D01*
G37*
G36*
X2890164Y-2512314D02*
G01*
X2890164Y-2561082D01*
X2914548Y-2561082D01*
X2914548Y-2536698D01*
X2938932Y-2536698D01*
X2938932Y-2512314D01*
G37*
G36*
X2841396Y-2512314D02*
G01*
X2841396Y-2536698D01*
X2865780Y-2536698D01*
X2865780Y-2512314D01*
G37*
G36*
X2792628Y-2512314D02*
G01*
X2792628Y-2536698D01*
X2817012Y-2536698D01*
X2817012Y-2512314D01*
G37*
G36*
X2695092Y-2512314D02*
G01*
X2695092Y-2536698D01*
X2719476Y-2536698D01*
X2719476Y-2512314D01*
G37*
G36*
X2500020Y-2512314D02*
G01*
X2500020Y-2658618D01*
X2573172Y-2658618D01*
X2573172Y-2634234D01*
X2548788Y-2634234D01*
X2548788Y-2585466D01*
X2524404Y-2585466D01*
X2524404Y-2561082D01*
X2573172Y-2561082D01*
X2573172Y-2585466D01*
X2597556Y-2585466D01*
X2597556Y-2561082D01*
X2621940Y-2561082D01*
X2621940Y-2536698D01*
X2597556Y-2536698D01*
X2597556Y-2512314D01*
X2573172Y-2512314D01*
X2573172Y-2536698D01*
X2548788Y-2536698D01*
X2548788Y-2512314D01*
G37*
G36*
X3158642Y-2536698D02*
G01*
X3158642Y-2561082D01*
X3134258Y-2561082D01*
X3134258Y-2585466D01*
X3085490Y-2585466D01*
X3085490Y-2609850D01*
X3158642Y-2609850D01*
X3158642Y-2585466D01*
X3207410Y-2585466D01*
X3207410Y-2609850D01*
X3158642Y-2609850D01*
X3158642Y-2658618D01*
X3207410Y-2658618D01*
X3207410Y-2634234D01*
X3256178Y-2634234D01*
X3256178Y-2609850D01*
X3231794Y-2609850D01*
X3231794Y-2536698D01*
G37*
G36*
X3085490Y-2536698D02*
G01*
X3085490Y-2561082D01*
X3109874Y-2561082D01*
X3109874Y-2536698D01*
G37*
G36*
X3256178Y-2561082D02*
G01*
X3256178Y-2609850D01*
X3280562Y-2609850D01*
X3280562Y-2561082D01*
G37*
G36*
X2646324Y-2585466D02*
G01*
X2646324Y-2634234D01*
X2597556Y-2634234D01*
X2597556Y-2658618D01*
X2670708Y-2658618D01*
X2670708Y-2683002D01*
X2646324Y-2683002D01*
X2646324Y-2707386D01*
X2621940Y-2707386D01*
X2621940Y-2731770D01*
X2573172Y-2731770D01*
X2573172Y-2756154D01*
X2597556Y-2756154D01*
X2597556Y-2804922D01*
X2695092Y-2804922D01*
X2695092Y-2878074D01*
X2621940Y-2878074D01*
X2621940Y-2804922D01*
X2524404Y-2804922D01*
X2524404Y-2780538D01*
X2500020Y-2780538D01*
X2500020Y-2951226D01*
X2524404Y-2951226D01*
X2524404Y-2878074D01*
X2548788Y-2878074D01*
X2548788Y-2853690D01*
X2524404Y-2853690D01*
X2524404Y-2829306D01*
X2597556Y-2829306D01*
X2597556Y-2926842D01*
X2573172Y-2926842D01*
X2573172Y-2902458D01*
X2548788Y-2902458D01*
X2548788Y-2951226D01*
X2621940Y-2951226D01*
X2621940Y-2975610D01*
X2597556Y-2975610D01*
X2597556Y-2999994D01*
X2670708Y-2999994D01*
X2670708Y-2975610D01*
X2646324Y-2975610D01*
X2646324Y-2926842D01*
X2621940Y-2926842D01*
X2621940Y-2902458D01*
X2670708Y-2902458D01*
X2670708Y-2926842D01*
X2719476Y-2926842D01*
X2719476Y-2829306D01*
X2743860Y-2829306D01*
X2743860Y-2804922D01*
X2719476Y-2804922D01*
X2719476Y-2780538D01*
X2743860Y-2780538D01*
X2743860Y-2756154D01*
X2646324Y-2756154D01*
X2646324Y-2780538D01*
X2621940Y-2780538D01*
X2621940Y-2756154D01*
X2646324Y-2756154D01*
X2646324Y-2731770D01*
X2719476Y-2731770D01*
X2719476Y-2707386D01*
X2743860Y-2707386D01*
X2743860Y-2683002D01*
X2719476Y-2683002D01*
X2719476Y-2658618D01*
X2695092Y-2658618D01*
X2695092Y-2609850D01*
X2670708Y-2609850D01*
X2670708Y-2585466D01*
G37*
G36*
X3329330Y-2585466D02*
G01*
X3329330Y-2609850D01*
X3353714Y-2609850D01*
X3353714Y-2585466D01*
G37*
G36*
X2987954Y-2585466D02*
G01*
X2987954Y-2609850D01*
X3036722Y-2609850D01*
X3036722Y-2585466D01*
G37*
G36*
X3061106Y-2609850D02*
G01*
X3061106Y-2658618D01*
X3085490Y-2658618D01*
X3085490Y-2683002D01*
X3134258Y-2683002D01*
X3134258Y-2707386D01*
X3109874Y-2707386D01*
X3109874Y-2683002D01*
X3061106Y-2683002D01*
X3061106Y-2707386D01*
X3085490Y-2707386D01*
X3085490Y-2731770D01*
X3061106Y-2731770D01*
X3061106Y-2756154D01*
X3085490Y-2756154D01*
X3085490Y-2804922D01*
X3134258Y-2804922D01*
X3134258Y-2780538D01*
X3109874Y-2780538D01*
X3109874Y-2731770D01*
X3134258Y-2731770D01*
X3134258Y-2780538D01*
X3158642Y-2780538D01*
X3158642Y-2804922D01*
X3231794Y-2804922D01*
X3231794Y-2756154D01*
X3207410Y-2756154D01*
X3207410Y-2780538D01*
X3183026Y-2780538D01*
X3183026Y-2756154D01*
X3158642Y-2756154D01*
X3158642Y-2707386D01*
X3207410Y-2707386D01*
X3207410Y-2683002D01*
X3158642Y-2683002D01*
X3158642Y-2658618D01*
X3134258Y-2658618D01*
X3134258Y-2634234D01*
X3085490Y-2634234D01*
X3085490Y-2609850D01*
G37*
G36*
X3353714Y-2609850D02*
G01*
X3353714Y-2634234D01*
X3329330Y-2634234D01*
X3329330Y-2658618D01*
X3378098Y-2658618D01*
X3378098Y-2634234D01*
X3402482Y-2634234D01*
X3402482Y-2609850D01*
G37*
G36*
X3304946Y-2609850D02*
G01*
X3304946Y-2634234D01*
X3329330Y-2634234D01*
X3329330Y-2609850D01*
G37*
G36*
X3280562Y-2634234D02*
G01*
X3280562Y-2658618D01*
X3304946Y-2658618D01*
X3304946Y-2634234D01*
G37*
G36*
X2987954Y-2634234D02*
G01*
X2987954Y-2731770D01*
X3061106Y-2731770D01*
X3061106Y-2707386D01*
X3012338Y-2707386D01*
X3012338Y-2683002D01*
X3036722Y-2683002D01*
X3036722Y-2634234D01*
G37*
G36*
X3304946Y-2658618D02*
G01*
X3304946Y-2683002D01*
X3280562Y-2683002D01*
X3280562Y-2707386D01*
X3304946Y-2707386D01*
X3304946Y-2731770D01*
X3280562Y-2731770D01*
X3280562Y-2756154D01*
X3353714Y-2756154D01*
X3353714Y-2731770D01*
X3329330Y-2731770D01*
X3329330Y-2707386D01*
X3353714Y-2707386D01*
X3353714Y-2731770D01*
X3402482Y-2731770D01*
X3402482Y-2804922D01*
X3426866Y-2804922D01*
X3426866Y-2780538D01*
X3475634Y-2780538D01*
X3475634Y-2756154D01*
X3451250Y-2756154D01*
X3451250Y-2731770D01*
X3475634Y-2731770D01*
X3475634Y-2707386D01*
X3500018Y-2707386D01*
X3500018Y-2658618D01*
X3426866Y-2658618D01*
X3426866Y-2683002D01*
X3402482Y-2683002D01*
X3402482Y-2707386D01*
X3378098Y-2707386D01*
X3378098Y-2683002D01*
X3329330Y-2683002D01*
X3329330Y-2658618D01*
G37*
G36*
X3207410Y-2658618D02*
G01*
X3207410Y-2683002D01*
X3231794Y-2683002D01*
X3231794Y-2658618D01*
G37*
G36*
X2963316Y-2658618D02*
G01*
X2963316Y-2683002D01*
X2987700Y-2683002D01*
X2987700Y-2658618D01*
G37*
G36*
X2573172Y-2683002D02*
G01*
X2573172Y-2707386D01*
X2597556Y-2707386D01*
X2597556Y-2683002D01*
G37*
G36*
X2524404Y-2683002D02*
G01*
X2524404Y-2707386D01*
X2548788Y-2707386D01*
X2548788Y-2683002D01*
G37*
G36*
X3207410Y-2707386D02*
G01*
X3207410Y-2731770D01*
X3231794Y-2731770D01*
X3231794Y-2707386D01*
G37*
G36*
X2548788Y-2707386D02*
G01*
X2548788Y-2731770D01*
X2573172Y-2731770D01*
X2573172Y-2707386D01*
G37*
G36*
X2500020Y-2707386D02*
G01*
X2500020Y-2756154D01*
X2524404Y-2756154D01*
X2524404Y-2780538D01*
X2548788Y-2780538D01*
X2548788Y-2731770D01*
X2524404Y-2731770D01*
X2524404Y-2707386D01*
G37*
G36*
X3475634Y-2731770D02*
G01*
X3475634Y-2756154D01*
X3500018Y-2756154D01*
X3500018Y-2731770D01*
G37*
G36*
X3231794Y-2731770D02*
G01*
X3231794Y-2756154D01*
X3256178Y-2756154D01*
X3256178Y-2731770D01*
G37*
G36*
X3183026Y-2731770D02*
G01*
X3183026Y-2756154D01*
X3207410Y-2756154D01*
X3207410Y-2731770D01*
G37*
G36*
X3475634Y-2780538D02*
G01*
X3475634Y-2804922D01*
X3500018Y-2804922D01*
X3500018Y-2780538D01*
G37*
G36*
X3329330Y-2780538D02*
G01*
X3329330Y-2804922D01*
X3378098Y-2804922D01*
X3378098Y-2780538D01*
G37*
G36*
X3256178Y-2780538D02*
G01*
X3256178Y-2878074D01*
X3280562Y-2878074D01*
X3280562Y-2902458D01*
X3304946Y-2902458D01*
X3304946Y-2853690D01*
X3280562Y-2853690D01*
X3280562Y-2829306D01*
X3304946Y-2829306D01*
X3304946Y-2780538D01*
G37*
G36*
X2987954Y-2780538D02*
G01*
X2987954Y-2829306D01*
X3036722Y-2829306D01*
X3036722Y-2804922D01*
X3061106Y-2804922D01*
X3061106Y-2780538D01*
G37*
G36*
X3329330Y-2829306D02*
G01*
X3329330Y-2853690D01*
X3475634Y-2853690D01*
X3475634Y-2975610D01*
X3353714Y-2975610D01*
X3353714Y-2853690D01*
X3329330Y-2853690D01*
X3329330Y-2999994D01*
X3500018Y-2999994D01*
X3500018Y-2829306D01*
G37*
G36*
X3109874Y-2829306D02*
G01*
X3109874Y-2853690D01*
X3158642Y-2853690D01*
X3158642Y-2878074D01*
X3109874Y-2878074D01*
X3109874Y-2853690D01*
X3085490Y-2853690D01*
X3085490Y-2902458D01*
X3109874Y-2902458D01*
X3109874Y-2926842D01*
X3134258Y-2926842D01*
X3134258Y-2902458D01*
X3158642Y-2902458D01*
X3158642Y-2975610D01*
X3256178Y-2975610D01*
X3256178Y-2951226D01*
X3207410Y-2951226D01*
X3207410Y-2926842D01*
X3183026Y-2926842D01*
X3183026Y-2902458D01*
X3231794Y-2902458D01*
X3231794Y-2829306D01*
G37*
G36*
X3036722Y-2829306D02*
G01*
X3036722Y-2853690D01*
X3085490Y-2853690D01*
X3085490Y-2829306D01*
G37*
G36*
X2890164Y-2829306D02*
G01*
X2890164Y-2878074D01*
X2938932Y-2878074D01*
X2938932Y-2853690D01*
X2914548Y-2853690D01*
X2914548Y-2829306D01*
G37*
G36*
X2646324Y-2829306D02*
G01*
X2646324Y-2853690D01*
X2670708Y-2853690D01*
X2670708Y-2829306D01*
G37*
G36*
X2987954Y-2853690D02*
G01*
X2987954Y-2926842D01*
X3061106Y-2926842D01*
X3061106Y-2951226D01*
X3036722Y-2951226D01*
X3036722Y-2999994D01*
X3085490Y-2999994D01*
X3085490Y-2951226D01*
X3109874Y-2951226D01*
X3109874Y-2926842D01*
X3085490Y-2926842D01*
X3085490Y-2902458D01*
X3036722Y-2902458D01*
X3036722Y-2878074D01*
X3012338Y-2878074D01*
X3012338Y-2853690D01*
G37*
G36*
X2963316Y-2853690D02*
G01*
X2963316Y-2902458D01*
X2987700Y-2902458D01*
X2987700Y-2853690D01*
G37*
G36*
X2865780Y-2878074D02*
G01*
X2865780Y-2902458D01*
X2841396Y-2902458D01*
X2841396Y-2951226D01*
X2865780Y-2951226D01*
X2865780Y-2926842D01*
X2890164Y-2926842D01*
X2890164Y-2878074D01*
G37*
G36*
X3378098Y-2878074D02*
G01*
X3378098Y-2951226D01*
X3451250Y-2951226D01*
X3451250Y-2878074D01*
G37*
G36*
X2743860Y-2878074D02*
G01*
X2743860Y-2902458D01*
X2768244Y-2902458D01*
X2768244Y-2878074D01*
G37*
G36*
X2914548Y-2902458D02*
G01*
X2914548Y-2951226D01*
X2890164Y-2951226D01*
X2890164Y-2975610D01*
X2914548Y-2975610D01*
X2914548Y-2999994D01*
X2938932Y-2999994D01*
X2938932Y-2975610D01*
X2963316Y-2975610D01*
X2963316Y-2999994D01*
X2987700Y-2999994D01*
X2987700Y-2951226D01*
X2938932Y-2951226D01*
X2938932Y-2926842D01*
X2963316Y-2926842D01*
X2963316Y-2902458D01*
G37*
G36*
X2719476Y-2926842D02*
G01*
X2719476Y-2951226D01*
X2670708Y-2951226D01*
X2670708Y-2975610D01*
X2695092Y-2975610D01*
X2695092Y-2999994D01*
X2743860Y-2999994D01*
X2743860Y-2926842D01*
G37*
G36*
X3280562Y-2926842D02*
G01*
X3280562Y-2951226D01*
X3304946Y-2951226D01*
X3304946Y-2926842D01*
G37*
G36*
X2524404Y-2951226D02*
G01*
X2524404Y-2975610D01*
X2500020Y-2975610D01*
X2500020Y-2999994D01*
X2573172Y-2999994D01*
X2573172Y-2975610D01*
X2548788Y-2975610D01*
X2548788Y-2951226D01*
G37*
G36*
X2768244Y-2951226D02*
G01*
X2768244Y-2999994D01*
X2890164Y-2999994D01*
X2890164Y-2975610D01*
X2841396Y-2975610D01*
X2841396Y-2951226D01*
G37*
G36*
X3271012Y-4430014D02*
G01*
X3256584Y-4432147D01*
X3244850Y-4438650D01*
X3235756Y-4449267D01*
X3229356Y-4463796D01*
X3227120Y-4472482D01*
X3225546Y-4481931D01*
X3224580Y-4492294D01*
X3224286Y-4503674D01*
X3250946Y-4503674D01*
X3251453Y-4487418D01*
X3252978Y-4474210D01*
X3254044Y-4468723D01*
X3255365Y-4463999D01*
X3257092Y-4459986D01*
X3259074Y-4456684D01*
X3261512Y-4454144D01*
X3264357Y-4452315D01*
X3267506Y-4451197D01*
X3271012Y-4450842D01*
X3274517Y-4451197D01*
X3277615Y-4452315D01*
X3280359Y-4454144D01*
X3282696Y-4456684D01*
X3284829Y-4459986D01*
X3286556Y-4463999D01*
X3287979Y-4468723D01*
X3289046Y-4474210D01*
X3290366Y-4487418D01*
X3290824Y-4503674D01*
X3290366Y-4519523D01*
X3289046Y-4532630D01*
X3287979Y-4538116D01*
X3286556Y-4542942D01*
X3284829Y-4547006D01*
X3282696Y-4550410D01*
X3280359Y-4552950D01*
X3277615Y-4554778D01*
X3274517Y-4555896D01*
X3271012Y-4556252D01*
X3267506Y-4555896D01*
X3264357Y-4554778D01*
X3261512Y-4552950D01*
X3259074Y-4550410D01*
X3257092Y-4547108D01*
X3255365Y-4543094D01*
X3254044Y-4538370D01*
X3252978Y-4532884D01*
X3251453Y-4519625D01*
X3250946Y-4503674D01*
X3224286Y-4503674D01*
X3224936Y-4519828D01*
X3226816Y-4534408D01*
X3228289Y-4541012D01*
X3230118Y-4547057D01*
X3232353Y-4552543D01*
X3234944Y-4557522D01*
X3237839Y-4561941D01*
X3241141Y-4565853D01*
X3244951Y-4569206D01*
X3249168Y-4572000D01*
X3253943Y-4574235D01*
X3259175Y-4575810D01*
X3264865Y-4576775D01*
X3271012Y-4577080D01*
X3285540Y-4574844D01*
X3297174Y-4568190D01*
X3306165Y-4557420D01*
X3312414Y-4542790D01*
X3314649Y-4534154D01*
X3316224Y-4524756D01*
X3317189Y-4514596D01*
X3317494Y-4503674D01*
X3317189Y-4492447D01*
X3316325Y-4482084D01*
X3314903Y-4472635D01*
X3312922Y-4464050D01*
X3306927Y-4449521D01*
X3298190Y-4438904D01*
X3286302Y-4432249D01*
G37*
G36*
X3164840Y-4430268D02*
G01*
X3146145Y-4432554D01*
X3132328Y-4439412D01*
X3123742Y-4450486D01*
X3120898Y-4464812D01*
X3121152Y-4469485D01*
X3121863Y-4473854D01*
X3123031Y-4477867D01*
X3124708Y-4481576D01*
X3126790Y-4484979D01*
X3129229Y-4488027D01*
X3131972Y-4490821D01*
X3135122Y-4493260D01*
X3138424Y-4495393D01*
X3142030Y-4497171D01*
X3145942Y-4498695D01*
X3150108Y-4499864D01*
X3150108Y-4500372D01*
X3135833Y-4504080D01*
X3125470Y-4511040D01*
X3119170Y-4521047D01*
X3117088Y-4533900D01*
X3117443Y-4539843D01*
X3118459Y-4545533D01*
X3120237Y-4550918D01*
X3122676Y-4555998D01*
X3125876Y-4560671D01*
X3129838Y-4564837D01*
X3134614Y-4568444D01*
X3140202Y-4571492D01*
X3153867Y-4575657D01*
X3170936Y-4577080D01*
X3176524Y-4576978D01*
X3181807Y-4576572D01*
X3191510Y-4575048D01*
X3196132Y-4574032D01*
X3200654Y-4572711D01*
X3205022Y-4571085D01*
X3209290Y-4569206D01*
X3209290Y-4547108D01*
X3205022Y-4549241D01*
X3200603Y-4551121D01*
X3195980Y-4552696D01*
X3186633Y-4555083D01*
X3177743Y-4556353D01*
X3173476Y-4556506D01*
X3166313Y-4556099D01*
X3160268Y-4554931D01*
X3155391Y-4552950D01*
X3151632Y-4550156D01*
X3148838Y-4546701D01*
X3146856Y-4542586D01*
X3145688Y-4537913D01*
X3145282Y-4532630D01*
X3145485Y-4529226D01*
X3146094Y-4526076D01*
X3147161Y-4523232D01*
X3148584Y-4520692D01*
X3150463Y-4518558D01*
X3152851Y-4516678D01*
X3155696Y-4515104D01*
X3158998Y-4513834D01*
X3162858Y-4512818D01*
X3167380Y-4512106D01*
X3172510Y-4511700D01*
X3188462Y-4511548D01*
X3188462Y-4491482D01*
X3172612Y-4491329D01*
X3167837Y-4490770D01*
X3163620Y-4489907D01*
X3160014Y-4488688D01*
X3156915Y-4487164D01*
X3154273Y-4485335D01*
X3152089Y-4483201D01*
X3150362Y-4480814D01*
X3149041Y-4478172D01*
X3148076Y-4475327D01*
X3147517Y-4472330D01*
X3147314Y-4469130D01*
X3147618Y-4465066D01*
X3148584Y-4461510D01*
X3150158Y-4458462D01*
X3152394Y-4455922D01*
X3155188Y-4453788D01*
X3158540Y-4452315D01*
X3162452Y-4451400D01*
X3166872Y-4451096D01*
X3173222Y-4451502D01*
X3179064Y-4452620D01*
X3184550Y-4454398D01*
X3189224Y-4456684D01*
X3193338Y-4459274D01*
X3197098Y-4462018D01*
X3209036Y-4444492D01*
X3203448Y-4440834D01*
X3197352Y-4437380D01*
X3190544Y-4434382D01*
X3182874Y-4432046D01*
X3174288Y-4430725D01*
X3169666Y-4430369D01*
G37*
G36*
X2977896Y-4430268D02*
G01*
X2971546Y-4430572D01*
X2965653Y-4431487D01*
X2960217Y-4432960D01*
X2955290Y-4435094D01*
X2950870Y-4437735D01*
X2946908Y-4440885D01*
X2943504Y-4444492D01*
X2940558Y-4448556D01*
X2938322Y-4453026D01*
X2936748Y-4457903D01*
X2935782Y-4463084D01*
X2935478Y-4468622D01*
X2935630Y-4472990D01*
X2936036Y-4477105D01*
X2936748Y-4481118D01*
X2937764Y-4484878D01*
X2940862Y-4492193D01*
X2942844Y-4495800D01*
X2947670Y-4503013D01*
X2953359Y-4510379D01*
X2967329Y-4526381D01*
X2990850Y-4551934D01*
X2990850Y-4553204D01*
X2931414Y-4553204D01*
X2931414Y-4575048D01*
X3024378Y-4575048D01*
X3024378Y-4556506D01*
X2985770Y-4514291D01*
X2977489Y-4504791D01*
X2971241Y-4496765D01*
X2968802Y-4493006D01*
X2966821Y-4489399D01*
X2963875Y-4482490D01*
X2962910Y-4478934D01*
X2962351Y-4475124D01*
X2962148Y-4471162D01*
X2962452Y-4466640D01*
X2963367Y-4462627D01*
X2964840Y-4459274D01*
X2966974Y-4456430D01*
X2969666Y-4454296D01*
X2972765Y-4452823D01*
X2976168Y-4451908D01*
X2979928Y-4451604D01*
X2983941Y-4451858D01*
X2987802Y-4452569D01*
X2991561Y-4453737D01*
X2995168Y-4455414D01*
X2998774Y-4457395D01*
X3002381Y-4459782D01*
X3006140Y-4462627D01*
X3009900Y-4465828D01*
X3024632Y-4449318D01*
X3018688Y-4444238D01*
X3012440Y-4439666D01*
X3009138Y-4437634D01*
X3005531Y-4435805D01*
X3001619Y-4434179D01*
X2997454Y-4432808D01*
X2993085Y-4431690D01*
X2988360Y-4430928D01*
X2983331Y-4430420D01*
G37*
G36*
X2835656Y-4431792D02*
G01*
X2835656Y-4460494D01*
X2861564Y-4460494D01*
X2868168Y-4474311D01*
X2896616Y-4523740D01*
X2861818Y-4523740D01*
X2861767Y-4487570D01*
X2860802Y-4460494D01*
X2835656Y-4460494D01*
X2835656Y-4523740D01*
X2818892Y-4523740D01*
X2818892Y-4544314D01*
X2835656Y-4544314D01*
X2835656Y-4575048D01*
X2861818Y-4575048D01*
X2861818Y-4544314D01*
X2920492Y-4544314D01*
X2920492Y-4525518D01*
X2861056Y-4431792D01*
G37*
G36*
X3033014Y-4432300D02*
G01*
X3083052Y-4575048D01*
X3107182Y-4575048D01*
X3057144Y-4432300D01*
G37*
G36*
X4350004Y-1723542D02*
G01*
X4350004Y-1746656D01*
X4368800Y-1753260D01*
X4368800Y-1754276D01*
X4362094Y-1759864D01*
X4356608Y-1765452D01*
X4354372Y-1768449D01*
X4352391Y-1771650D01*
X4350816Y-1775053D01*
X4349496Y-1778660D01*
X4348581Y-1782521D01*
X4348266Y-1784756D01*
X4371340Y-1784756D01*
X4371848Y-1779117D01*
X4373321Y-1773885D01*
X4375759Y-1769059D01*
X4379214Y-1764690D01*
X4389018Y-1758594D01*
X4402582Y-1756562D01*
X4414012Y-1756562D01*
X4413504Y-1770786D01*
X4411319Y-1785823D01*
X4406392Y-1795424D01*
X4402937Y-1798523D01*
X4398873Y-1800758D01*
X4394301Y-1802079D01*
X4389120Y-1802536D01*
X4384751Y-1802231D01*
X4380992Y-1801317D01*
X4377893Y-1799793D01*
X4375404Y-1797710D01*
X4373626Y-1795068D01*
X4372356Y-1792020D01*
X4371594Y-1788617D01*
X4371340Y-1784756D01*
X4348266Y-1784756D01*
X4347565Y-1791563D01*
X4347464Y-1796694D01*
X4347768Y-1802231D01*
X4348581Y-1807464D01*
X4350054Y-1812391D01*
X4352036Y-1817014D01*
X4354626Y-1821230D01*
X4357776Y-1824989D01*
X4361484Y-1828342D01*
X4365752Y-1831238D01*
X4370730Y-1833575D01*
X4376369Y-1835251D01*
X4382566Y-1836216D01*
X4389374Y-1836572D01*
X4399280Y-1835657D01*
X4407865Y-1832914D01*
X4415129Y-1828393D01*
X4421124Y-1822094D01*
X4425848Y-1813915D01*
X4429404Y-1803857D01*
X4431690Y-1791919D01*
X4432808Y-1778152D01*
X4433570Y-1756816D01*
X4440174Y-1756816D01*
X4446168Y-1757121D01*
X4451299Y-1758137D01*
X4455464Y-1759813D01*
X4458716Y-1762150D01*
X4461154Y-1765096D01*
X4462881Y-1768551D01*
X4463948Y-1772564D01*
X4464304Y-1777136D01*
X4464100Y-1781708D01*
X4463542Y-1786280D01*
X4462576Y-1790852D01*
X4461256Y-1795424D01*
X4457954Y-1804416D01*
X4454144Y-1813204D01*
X4476242Y-1823618D01*
X4478782Y-1818386D01*
X4481017Y-1812798D01*
X4482947Y-1806956D01*
X4484624Y-1800758D01*
X4487113Y-1787855D01*
X4487926Y-1774088D01*
X4487214Y-1762506D01*
X4485081Y-1752346D01*
X4481474Y-1743710D01*
X4476496Y-1736496D01*
X4470095Y-1730806D01*
X4462018Y-1726742D01*
X4452315Y-1724355D01*
X4440936Y-1723542D01*
G37*
G36*
X4350004Y-1863750D02*
G01*
X4350004Y-1896516D01*
X4432300Y-1896516D01*
X4439310Y-1896821D01*
X4445457Y-1897786D01*
X4450638Y-1899361D01*
X4454906Y-1901596D01*
X4458258Y-1904339D01*
X4460595Y-1907895D01*
X4462068Y-1912112D01*
X4462526Y-1917090D01*
X4459884Y-1929384D01*
X4451858Y-1937410D01*
X4438599Y-1941982D01*
X4420616Y-1943506D01*
X4350004Y-1943506D01*
X4350004Y-1976526D01*
X4432300Y-1976526D01*
X4437075Y-1976678D01*
X4441444Y-1977085D01*
X4445457Y-1977796D01*
X4449064Y-1978812D01*
X4452162Y-1980082D01*
X4454906Y-1981606D01*
X4457242Y-1983384D01*
X4459224Y-1985416D01*
X4460646Y-1987753D01*
X4461713Y-1990496D01*
X4462322Y-1993595D01*
X4462526Y-1997100D01*
X4462170Y-2001774D01*
X4461205Y-2005990D01*
X4459528Y-2009648D01*
X4457192Y-2012848D01*
X4454194Y-2015439D01*
X4450588Y-2017674D01*
X4446320Y-2019503D01*
X4441444Y-2020976D01*
X4436059Y-2021941D01*
X4430064Y-2022652D01*
X4423511Y-2023110D01*
X4416298Y-2023262D01*
X4350004Y-2023262D01*
X4350004Y-2056536D01*
X4485386Y-2056536D01*
X4485386Y-2030882D01*
X4467860Y-2026310D01*
X4467860Y-2024786D01*
X4471162Y-2022754D01*
X4474159Y-2020468D01*
X4476851Y-2017928D01*
X4479290Y-2015134D01*
X4481423Y-2012238D01*
X4483252Y-2009139D01*
X4484725Y-2005888D01*
X4485894Y-2002434D01*
X4487418Y-1995017D01*
X4487926Y-1986940D01*
X4487621Y-1980082D01*
X4486656Y-1973834D01*
X4485081Y-1968144D01*
X4482846Y-1963064D01*
X4479950Y-1958492D01*
X4476343Y-1954530D01*
X4472076Y-1951126D01*
X4467098Y-1948332D01*
X4467098Y-1946554D01*
X4472178Y-1943100D01*
X4476546Y-1939188D01*
X4480204Y-1934718D01*
X4483100Y-1929790D01*
X4485233Y-1924608D01*
X4486706Y-1919173D01*
X4487621Y-1913534D01*
X4487926Y-1907692D01*
X4484979Y-1888489D01*
X4476242Y-1874672D01*
X4469485Y-1869897D01*
X4460900Y-1866493D01*
X4450435Y-1864410D01*
X4438142Y-1863750D01*
G37*
G36*
X4350004Y-2092096D02*
G01*
X4350004Y-2124862D01*
X4432300Y-2124862D01*
X4439310Y-2125167D01*
X4445457Y-2126030D01*
X4450638Y-2127554D01*
X4454906Y-2129688D01*
X4458258Y-2132533D01*
X4460595Y-2136089D01*
X4462068Y-2140305D01*
X4462526Y-2145182D01*
X4459884Y-2157526D01*
X4451858Y-2165756D01*
X4438599Y-2170328D01*
X4420616Y-2171852D01*
X4350004Y-2171852D01*
X4350004Y-2204872D01*
X4437075Y-2204974D01*
X4445457Y-2205990D01*
X4449064Y-2206904D01*
X4452162Y-2208174D01*
X4454906Y-2209698D01*
X4457242Y-2211476D01*
X4459224Y-2213508D01*
X4460646Y-2215946D01*
X4461713Y-2218690D01*
X4462322Y-2221788D01*
X4462526Y-2225192D01*
X4462170Y-2229967D01*
X4461205Y-2234184D01*
X4459528Y-2237841D01*
X4457192Y-2240940D01*
X4454194Y-2243632D01*
X4450588Y-2245868D01*
X4446320Y-2247696D01*
X4441444Y-2249068D01*
X4430064Y-2250948D01*
X4416298Y-2251608D01*
X4350004Y-2251608D01*
X4350004Y-2284882D01*
X4485386Y-2284882D01*
X4485386Y-2259228D01*
X4467860Y-2254402D01*
X4467860Y-2253132D01*
X4471162Y-2251100D01*
X4474159Y-2248814D01*
X4476851Y-2246274D01*
X4479290Y-2243480D01*
X4481423Y-2240483D01*
X4483252Y-2237333D01*
X4484725Y-2233980D01*
X4485894Y-2230526D01*
X4487418Y-2223160D01*
X4487926Y-2215286D01*
X4487621Y-2208428D01*
X4486656Y-2202180D01*
X4485081Y-2196490D01*
X4482846Y-2191410D01*
X4479950Y-2186838D01*
X4476343Y-2182825D01*
X4472076Y-2179370D01*
X4467098Y-2176424D01*
X4467098Y-2174646D01*
X4472178Y-2171293D01*
X4476546Y-2167483D01*
X4480204Y-2163064D01*
X4483100Y-2158136D01*
X4485233Y-2152853D01*
X4486706Y-2147366D01*
X4487621Y-2141778D01*
X4487926Y-2136038D01*
X4484979Y-2116734D01*
X4476242Y-2103018D01*
X4469485Y-2098243D01*
X4460900Y-2094788D01*
X4450435Y-2092756D01*
X4438142Y-2092096D01*
G37*
G36*
X4350004Y-2319934D02*
G01*
X4350004Y-2343302D01*
X4368800Y-2349652D01*
X4368800Y-2350668D01*
X4362094Y-2356307D01*
X4356608Y-2362098D01*
X4354372Y-2364994D01*
X4352391Y-2368143D01*
X4350816Y-2371445D01*
X4349496Y-2375052D01*
X4348581Y-2378964D01*
X4348273Y-2381148D01*
X4371340Y-2381148D01*
X4371848Y-2375509D01*
X4373321Y-2370328D01*
X4375759Y-2365603D01*
X4379214Y-2361336D01*
X4389018Y-2355037D01*
X4402582Y-2352954D01*
X4414012Y-2352954D01*
X4413504Y-2367178D01*
X4411319Y-2382266D01*
X4406392Y-2392070D01*
X4402937Y-2395067D01*
X4398873Y-2397201D01*
X4394301Y-2398471D01*
X4389120Y-2398928D01*
X4384751Y-2398623D01*
X4380992Y-2397709D01*
X4377893Y-2396185D01*
X4375404Y-2394102D01*
X4373626Y-2391460D01*
X4372356Y-2388463D01*
X4371594Y-2385009D01*
X4371340Y-2381148D01*
X4348273Y-2381148D01*
X4347565Y-2388108D01*
X4347464Y-2393340D01*
X4347768Y-2398776D01*
X4348581Y-2403957D01*
X4350054Y-2408783D01*
X4352036Y-2413406D01*
X4354626Y-2417724D01*
X4357776Y-2421585D01*
X4361484Y-2424988D01*
X4365752Y-2427884D01*
X4370730Y-2430068D01*
X4376369Y-2431694D01*
X4382566Y-2432659D01*
X4389374Y-2432964D01*
X4399280Y-2432050D01*
X4407865Y-2429357D01*
X4415129Y-2424785D01*
X4421124Y-2418486D01*
X4425848Y-2410307D01*
X4429404Y-2400300D01*
X4431690Y-2388463D01*
X4432808Y-2374798D01*
X4433570Y-2353208D01*
X4440174Y-2353208D01*
X4446168Y-2353513D01*
X4451299Y-2354529D01*
X4455464Y-2356205D01*
X4458716Y-2358542D01*
X4461154Y-2361590D01*
X4462881Y-2365146D01*
X4463948Y-2369210D01*
X4464304Y-2373782D01*
X4464100Y-2378252D01*
X4463542Y-2382723D01*
X4462576Y-2387244D01*
X4461256Y-2391816D01*
X4457954Y-2400909D01*
X4454144Y-2409850D01*
X4476242Y-2420010D01*
X4478782Y-2414879D01*
X4481017Y-2409393D01*
X4482947Y-2403551D01*
X4484624Y-2397404D01*
X4487113Y-2384298D01*
X4487926Y-2370480D01*
X4487214Y-2358999D01*
X4485081Y-2348890D01*
X4481474Y-2340152D01*
X4476496Y-2332888D01*
X4470095Y-2327198D01*
X4462018Y-2323134D01*
X4452315Y-2320747D01*
X4440936Y-2319934D01*
G37*
G36*
X4357116Y-2460142D02*
G01*
X4353052Y-2473706D01*
X4350004Y-2488082D01*
X4348073Y-2503881D01*
X4347464Y-2521356D01*
X4348124Y-2533345D01*
X4350105Y-2544470D01*
X4353458Y-2554681D01*
X4358132Y-2564028D01*
X4364177Y-2572512D01*
X4371390Y-2579878D01*
X4379823Y-2586228D01*
X4389374Y-2591460D01*
X4400194Y-2595676D01*
X4412183Y-2598674D01*
X4425238Y-2600502D01*
X4439412Y-2601112D01*
X4453026Y-2600452D01*
X4465624Y-2598470D01*
X4477258Y-2595219D01*
X4487926Y-2590698D01*
X4497628Y-2585008D01*
X4506163Y-2578150D01*
X4513478Y-2570175D01*
X4519676Y-2560980D01*
X4524654Y-2550668D01*
X4528261Y-2539238D01*
X4530394Y-2526792D01*
X4531106Y-2513228D01*
X4530344Y-2499258D01*
X4528058Y-2485796D01*
X4526534Y-2479446D01*
X4524705Y-2473350D01*
X4522571Y-2467508D01*
X4520184Y-2461920D01*
X4494022Y-2473350D01*
X4496104Y-2477668D01*
X4497984Y-2482240D01*
X4499660Y-2487066D01*
X4501134Y-2492146D01*
X4502353Y-2497378D01*
X4503216Y-2502712D01*
X4503775Y-2508199D01*
X4503928Y-2513736D01*
X4501946Y-2529382D01*
X4496054Y-2542438D01*
X4486351Y-2552700D01*
X4473448Y-2560218D01*
X4457446Y-2564790D01*
X4438904Y-2566314D01*
X4421124Y-2565044D01*
X4405376Y-2561234D01*
X4392320Y-2554579D01*
X4382516Y-2545232D01*
X4376420Y-2532837D01*
X4374388Y-2517546D01*
X4374896Y-2507640D01*
X4376166Y-2499258D01*
X4377690Y-2492400D01*
X4420616Y-2492400D01*
X4420616Y-2525420D01*
X4448048Y-2525420D01*
X4448048Y-2460142D01*
G37*
G36*
X4350004Y-2692552D02*
G01*
X4350004Y-2725826D01*
X4432046Y-2725826D01*
X4439208Y-2726131D01*
X4445406Y-2727096D01*
X4450638Y-2728671D01*
X4454906Y-2730906D01*
X4458258Y-2733903D01*
X4460595Y-2737713D01*
X4462068Y-2742184D01*
X4462526Y-2747416D01*
X4459528Y-2761488D01*
X4450588Y-2770276D01*
X4436059Y-2774848D01*
X4416298Y-2776372D01*
X4350004Y-2776372D01*
X4350004Y-2809392D01*
X4485386Y-2809392D01*
X4485386Y-2783992D01*
X4467860Y-2779166D01*
X4467860Y-2777642D01*
X4471162Y-2775559D01*
X4474159Y-2773222D01*
X4476851Y-2770632D01*
X4479290Y-2767736D01*
X4481423Y-2764485D01*
X4483252Y-2761132D01*
X4484725Y-2757627D01*
X4485894Y-2754020D01*
X4487418Y-2746248D01*
X4487926Y-2738272D01*
X4487214Y-2728163D01*
X4484979Y-2719222D01*
X4481372Y-2711399D01*
X4476242Y-2704744D01*
X4469485Y-2699410D01*
X4460900Y-2695600D01*
X4450435Y-2693314D01*
X4438142Y-2692552D01*
G37*
G36*
X4410456Y-2838094D02*
G01*
X4410456Y-2869590D01*
X4437126Y-2869742D01*
X4441444Y-2870200D01*
X4445508Y-2871012D01*
X4449318Y-2872130D01*
X4452670Y-2873705D01*
X4455668Y-2875584D01*
X4458258Y-2877870D01*
X4460494Y-2880512D01*
X4462373Y-2883458D01*
X4463745Y-2886710D01*
X4464558Y-2890316D01*
X4464812Y-2894228D01*
X4464304Y-2899460D01*
X4462780Y-2904185D01*
X4460240Y-2908452D01*
X4456684Y-2912262D01*
X4446574Y-2917850D01*
X4432554Y-2920390D01*
X4432554Y-2869590D01*
X4410456Y-2869590D01*
X4410456Y-2920898D01*
X4393996Y-2918409D01*
X4381754Y-2912008D01*
X4374337Y-2901594D01*
X4371848Y-2887624D01*
X4372000Y-2881528D01*
X4372508Y-2875788D01*
X4373270Y-2870352D01*
X4374388Y-2865272D01*
X4375810Y-2860344D01*
X4379620Y-2850184D01*
X4382008Y-2844952D01*
X4356862Y-2844952D01*
X4354626Y-2849778D01*
X4352645Y-2854706D01*
X4351070Y-2859684D01*
X4349750Y-2864764D01*
X4348022Y-2876143D01*
X4347464Y-2889910D01*
X4349343Y-2907893D01*
X4355084Y-2923692D01*
X4364685Y-2936646D01*
X4378198Y-2946552D01*
X4386427Y-2950108D01*
X4395571Y-2952648D01*
X4405731Y-2954172D01*
X4416806Y-2954680D01*
X4427931Y-2954223D01*
X4438142Y-2952851D01*
X4447489Y-2950514D01*
X4455922Y-2947314D01*
X4469790Y-2938221D01*
X4479798Y-2926232D01*
X4485894Y-2911500D01*
X4487926Y-2894736D01*
X4486097Y-2878378D01*
X4480560Y-2864510D01*
X4471670Y-2853385D01*
X4459732Y-2844952D01*
X4444542Y-2839770D01*
X4426458Y-2838094D01*
G37*
G36*
X4418076Y-2977286D02*
G01*
X4407001Y-2977642D01*
X4396790Y-2978810D01*
X4387545Y-2980690D01*
X4379214Y-2983382D01*
X4365447Y-2990951D01*
X4355592Y-3000908D01*
X4349496Y-3013151D01*
X4347464Y-3027070D01*
X4347616Y-3031490D01*
X4348148Y-3035960D01*
X4373118Y-3035960D01*
X4373473Y-3031947D01*
X4374540Y-3028238D01*
X4376267Y-3024936D01*
X4378706Y-3021990D01*
X4381804Y-3019399D01*
X4385462Y-3017164D01*
X4389678Y-3015335D01*
X4394454Y-3013862D01*
X4399788Y-3012643D01*
X4405579Y-3011779D01*
X4411827Y-3011220D01*
X4418584Y-3011068D01*
X4437126Y-3012592D01*
X4451096Y-3017164D01*
X4459681Y-3025140D01*
X4462526Y-3036468D01*
X4462272Y-3041040D01*
X4461459Y-3045155D01*
X4460087Y-3048812D01*
X4458208Y-3051962D01*
X4455668Y-3054654D01*
X4452569Y-3056991D01*
X4448911Y-3058871D01*
X4444746Y-3060344D01*
X4440021Y-3061309D01*
X4434636Y-3062020D01*
X4428693Y-3062478D01*
X4418330Y-3062630D01*
X4411370Y-3062478D01*
X4404918Y-3062020D01*
X4399026Y-3061309D01*
X4393692Y-3060344D01*
X4389018Y-3058972D01*
X4384954Y-3057144D01*
X4381398Y-3054908D01*
X4378452Y-3052216D01*
X4376115Y-3049016D01*
X4374438Y-3045206D01*
X4373473Y-3040888D01*
X4373118Y-3035960D01*
X4348148Y-3035960D01*
X4348886Y-3039465D01*
X4350004Y-3043072D01*
X4353102Y-3049422D01*
X4356862Y-3054756D01*
X4361129Y-3059125D01*
X4363364Y-3061004D01*
X4365752Y-3062630D01*
X4365752Y-3064408D01*
X4360926Y-3063697D01*
X4352848Y-3062884D01*
X4347514Y-3062630D01*
X4290060Y-3062630D01*
X4290060Y-3095904D01*
X4485386Y-3095904D01*
X4485386Y-3068980D01*
X4467606Y-3064408D01*
X4467606Y-3062630D01*
X4472940Y-3059074D01*
X4477766Y-3054502D01*
X4480052Y-3051860D01*
X4482033Y-3048965D01*
X4483709Y-3045866D01*
X4485132Y-3042564D01*
X4486351Y-3038856D01*
X4487214Y-3034893D01*
X4487773Y-3030575D01*
X4487926Y-3026054D01*
X4486808Y-3015437D01*
X4483557Y-3005988D01*
X4478070Y-2997657D01*
X4470400Y-2990494D01*
X4460443Y-2984703D01*
X4448454Y-2980588D01*
X4434281Y-2978099D01*
G37*
G36*
X4439412Y-3127400D02*
G01*
X4429353Y-3127705D01*
X4419752Y-3128670D01*
X4410557Y-3130245D01*
X4401820Y-3132480D01*
X4386224Y-3138525D01*
X4372864Y-3146958D01*
X4361942Y-3158134D01*
X4354068Y-3171850D01*
X4349140Y-3188106D01*
X4347464Y-3206902D01*
X4374642Y-3206902D01*
X4376623Y-3192830D01*
X4382516Y-3181756D01*
X4391914Y-3173374D01*
X4404868Y-3167532D01*
X4420768Y-3164078D01*
X4439412Y-3162960D01*
X4453737Y-3163620D01*
X4466386Y-3165551D01*
X4477461Y-3168802D01*
X4486910Y-3173374D01*
X4494479Y-3179267D01*
X4499864Y-3186734D01*
X4503115Y-3195878D01*
X4504182Y-3206648D01*
X4502302Y-3220923D01*
X4496562Y-3232302D01*
X4487062Y-3240836D01*
X4474210Y-3246780D01*
X4458258Y-3250184D01*
X4439412Y-3251352D01*
X4420768Y-3250184D01*
X4404868Y-3246780D01*
X4391914Y-3240836D01*
X4382516Y-3232302D01*
X4376623Y-3220974D01*
X4374642Y-3206902D01*
X4347464Y-3206902D01*
X4349140Y-3226054D01*
X4354068Y-3242462D01*
X4362094Y-3256178D01*
X4372864Y-3267354D01*
X4386275Y-3275787D01*
X4402074Y-3281832D01*
X4410811Y-3283915D01*
X4420006Y-3285439D01*
X4429607Y-3286353D01*
X4439666Y-3286658D01*
X4453178Y-3286099D01*
X4465675Y-3284474D01*
X4477308Y-3281781D01*
X4487926Y-3278022D01*
X4497628Y-3273145D01*
X4506214Y-3267151D01*
X4513630Y-3260039D01*
X4519930Y-3251860D01*
X4524908Y-3242360D01*
X4528515Y-3231642D01*
X4530648Y-3219754D01*
X4531360Y-3206648D01*
X4530648Y-3193745D01*
X4528515Y-3182061D01*
X4524908Y-3171545D01*
X4519930Y-3162198D01*
X4513630Y-3153968D01*
X4506214Y-3146907D01*
X4497628Y-3140913D01*
X4487926Y-3136036D01*
X4477156Y-3132226D01*
X4465523Y-3129534D01*
X4452924Y-3127908D01*
G37*
G36*
X4028033Y-2114600D02*
G01*
X4025950Y-2120290D01*
X4024223Y-2127300D01*
X4022902Y-2135276D01*
X4022445Y-2144064D01*
X4022699Y-2149500D01*
X4023410Y-2154732D01*
X4024629Y-2159660D01*
X4026255Y-2164384D01*
X4028643Y-2168702D01*
X4031691Y-2172512D01*
X4035348Y-2175814D01*
X4039717Y-2178608D01*
X4051046Y-2182418D01*
X4066133Y-2183688D01*
X4136745Y-2183688D01*
X4136745Y-2200706D01*
X4150461Y-2200706D01*
X4161383Y-2181656D01*
X4190339Y-2171750D01*
X4190339Y-2150668D01*
X4160367Y-2150668D01*
X4160367Y-2115870D01*
X4136745Y-2115870D01*
X4136745Y-2150668D01*
X4066387Y-2150668D01*
X4062018Y-2150414D01*
X4058208Y-2149602D01*
X4055008Y-2148230D01*
X4052417Y-2146350D01*
X4050436Y-2144014D01*
X4049014Y-2141270D01*
X4048150Y-2138172D01*
X4047845Y-2134666D01*
X4048099Y-2129383D01*
X4048861Y-2124252D01*
X4050029Y-2119172D01*
X4051401Y-2114600D01*
G37*
G36*
X4154525Y-2212644D02*
G01*
X4130141Y-2222804D01*
X4132783Y-2229459D01*
X4135882Y-2239670D01*
X4136898Y-2246528D01*
X4136999Y-2249982D01*
X4136694Y-2254758D01*
X4135729Y-2259126D01*
X4134154Y-2263140D01*
X4131919Y-2266746D01*
X4129227Y-2269947D01*
X4125823Y-2272792D01*
X4121861Y-2275179D01*
X4117187Y-2277160D01*
X4106011Y-2279802D01*
X4092295Y-2280716D01*
X4085386Y-2280513D01*
X4078986Y-2279802D01*
X4073194Y-2278735D01*
X4067911Y-2277160D01*
X4063390Y-2275179D01*
X4059478Y-2272792D01*
X4056176Y-2269947D01*
X4053433Y-2266746D01*
X4051249Y-2263140D01*
X4049623Y-2259177D01*
X4048709Y-2254859D01*
X4048353Y-2250236D01*
X4048556Y-2245461D01*
X4049064Y-2240889D01*
X4049928Y-2236470D01*
X4051147Y-2232202D01*
X4052671Y-2228037D01*
X4056481Y-2220061D01*
X4058767Y-2216200D01*
X4031589Y-2216200D01*
X4029354Y-2220163D01*
X4027424Y-2224278D01*
X4025798Y-2228443D01*
X4024477Y-2232710D01*
X4023614Y-2237333D01*
X4022953Y-2242413D01*
X4022445Y-2253792D01*
X4024325Y-2271268D01*
X4029811Y-2286050D01*
X4039209Y-2298192D01*
X4052671Y-2307132D01*
X4060850Y-2310333D01*
X4070146Y-2312670D01*
X4080560Y-2314041D01*
X4092041Y-2314498D01*
X4103928Y-2313990D01*
X4114647Y-2312466D01*
X4124248Y-2309926D01*
X4132681Y-2306370D01*
X4146143Y-2296718D01*
X4155541Y-2284018D01*
X4161078Y-2268728D01*
X4162907Y-2251252D01*
X4162755Y-2245614D01*
X4162298Y-2240127D01*
X4161485Y-2234793D01*
X4159148Y-2224786D01*
X4157776Y-2220315D01*
X4156252Y-2216251D01*
G37*
G36*
X4085437Y-2336342D02*
G01*
X4085437Y-2367838D01*
X4112107Y-2367991D01*
X4116425Y-2368448D01*
X4120489Y-2369261D01*
X4124299Y-2370378D01*
X4127703Y-2371953D01*
X4130649Y-2373884D01*
X4133291Y-2376119D01*
X4135475Y-2378760D01*
X4137406Y-2381707D01*
X4138726Y-2384958D01*
X4139539Y-2388565D01*
X4139793Y-2392476D01*
X4139285Y-2397709D01*
X4137761Y-2402433D01*
X4135221Y-2406700D01*
X4131665Y-2410510D01*
X4121607Y-2416098D01*
X4107535Y-2418638D01*
X4107535Y-2367838D01*
X4085437Y-2367838D01*
X4085437Y-2419146D01*
X4069029Y-2416606D01*
X4056735Y-2410002D01*
X4049318Y-2399792D01*
X4046829Y-2385872D01*
X4047032Y-2379827D01*
X4047490Y-2374036D01*
X4048302Y-2368651D01*
X4049369Y-2363520D01*
X4052570Y-2353614D01*
X4056989Y-2343200D01*
X4031843Y-2343200D01*
X4029608Y-2348077D01*
X4027678Y-2352954D01*
X4026052Y-2357983D01*
X4024731Y-2363012D01*
X4023766Y-2368397D01*
X4023055Y-2374392D01*
X4022598Y-2380945D01*
X4022445Y-2388158D01*
X4024376Y-2406142D01*
X4030065Y-2421940D01*
X4039666Y-2434894D01*
X4053179Y-2444800D01*
X4061409Y-2448356D01*
X4070604Y-2450896D01*
X4080713Y-2452420D01*
X4091787Y-2452928D01*
X4102912Y-2452471D01*
X4113123Y-2451100D01*
X4122470Y-2448763D01*
X4130903Y-2445562D01*
X4144772Y-2436469D01*
X4154779Y-2424480D01*
X4160875Y-2409748D01*
X4162907Y-2392984D01*
X4161078Y-2376678D01*
X4155541Y-2362758D01*
X4146651Y-2351633D01*
X4134713Y-2343200D01*
X4119575Y-2338070D01*
X4101439Y-2336342D01*
G37*
G36*
X4196181Y-2480868D02*
G01*
X4192066Y-2481173D01*
X4188510Y-2482189D01*
X4185564Y-2483866D01*
X4183227Y-2486202D01*
X4181601Y-2488996D01*
X4180382Y-2491994D01*
X4179671Y-2495194D01*
X4179417Y-2498648D01*
X4179671Y-2502306D01*
X4180382Y-2505710D01*
X4181601Y-2508808D01*
X4183227Y-2511602D01*
X4185564Y-2513838D01*
X4188510Y-2515412D01*
X4192066Y-2516378D01*
X4196181Y-2516682D01*
X4200550Y-2516378D01*
X4204157Y-2515412D01*
X4207002Y-2513838D01*
X4209135Y-2511602D01*
X4210710Y-2508808D01*
X4211828Y-2505710D01*
X4212488Y-2502306D01*
X4212691Y-2498648D01*
X4212488Y-2495194D01*
X4211828Y-2491994D01*
X4210710Y-2488996D01*
X4209135Y-2486202D01*
X4207002Y-2483866D01*
X4204157Y-2482189D01*
X4200550Y-2481173D01*
G37*
G36*
X4008221Y-2482392D02*
G01*
X4002176Y-2482646D01*
X3996436Y-2483459D01*
X3991000Y-2484831D01*
X3985869Y-2486710D01*
X3981297Y-2489047D01*
X3977233Y-2492095D01*
X3973677Y-2495804D01*
X3970629Y-2500172D01*
X3966464Y-2511298D01*
X3965041Y-2525318D01*
X3965244Y-2531008D01*
X3965803Y-2537002D01*
X3966921Y-2542438D01*
X3968089Y-2546654D01*
X3992981Y-2546654D01*
X3991203Y-2539288D01*
X3990644Y-2535529D01*
X3990441Y-2531414D01*
X3990746Y-2528214D01*
X3991559Y-2525268D01*
X3992879Y-2522524D01*
X3994759Y-2519984D01*
X3997553Y-2517851D01*
X4001262Y-2516378D01*
X4005935Y-2515463D01*
X4011523Y-2515158D01*
X4160367Y-2515158D01*
X4160367Y-2482392D01*
G37*
G36*
X4093057Y-2544622D02*
G01*
X4077055Y-2545638D01*
X4063085Y-2548686D01*
X4050893Y-2553970D01*
X4040733Y-2561132D01*
X4036568Y-2565400D01*
X4032859Y-2570073D01*
X4029710Y-2575153D01*
X4027017Y-2580690D01*
X4023614Y-2592984D01*
X4022489Y-2606090D01*
X4048099Y-2606090D01*
X4048455Y-2601366D01*
X4049369Y-2597150D01*
X4050995Y-2593390D01*
X4053179Y-2590088D01*
X4056176Y-2587244D01*
X4059732Y-2584805D01*
X4063898Y-2582773D01*
X4068673Y-2581198D01*
X4074007Y-2579878D01*
X4079849Y-2578912D01*
X4086199Y-2578354D01*
X4093057Y-2578150D01*
X4100017Y-2578354D01*
X4106418Y-2578912D01*
X4112209Y-2579878D01*
X4117441Y-2581198D01*
X4122115Y-2582773D01*
X4126179Y-2584805D01*
X4129582Y-2587244D01*
X4132427Y-2590088D01*
X4134662Y-2593390D01*
X4136237Y-2597200D01*
X4137202Y-2601518D01*
X4137507Y-2606344D01*
X4134662Y-2618994D01*
X4126077Y-2627426D01*
X4112006Y-2632354D01*
X4093057Y-2634030D01*
X4086199Y-2633827D01*
X4079849Y-2633319D01*
X4074007Y-2632456D01*
X4068673Y-2631236D01*
X4063898Y-2629509D01*
X4059732Y-2627426D01*
X4056176Y-2624937D01*
X4053179Y-2622092D01*
X4050995Y-2618790D01*
X4049369Y-2615031D01*
X4048455Y-2610815D01*
X4048099Y-2606090D01*
X4022489Y-2606090D01*
X4022750Y-2613050D01*
X4023614Y-2619298D01*
X4025036Y-2625242D01*
X4027017Y-2630982D01*
X4029710Y-2636367D01*
X4032859Y-2641447D01*
X4036568Y-2646172D01*
X4040733Y-2650540D01*
X4050893Y-2657754D01*
X4063085Y-2663240D01*
X4077055Y-2666644D01*
X4093057Y-2667812D01*
X4103827Y-2667355D01*
X4113784Y-2665882D01*
X4122877Y-2663545D01*
X4131157Y-2660192D01*
X4144822Y-2651150D01*
X4154779Y-2638856D01*
X4160875Y-2623616D01*
X4162907Y-2605836D01*
X4160875Y-2589022D01*
X4154779Y-2574086D01*
X4144619Y-2561844D01*
X4130903Y-2552496D01*
X4122724Y-2549042D01*
X4113733Y-2546604D01*
X4103827Y-2545130D01*
G37*
G36*
X4161637Y-2677972D02*
G01*
X4132427Y-2681020D01*
X4133443Y-2686862D01*
X4133697Y-2693974D01*
X4133596Y-2697124D01*
X4132427Y-2703220D01*
X4131411Y-2706166D01*
X4130040Y-2709011D01*
X4126484Y-2714345D01*
X4124299Y-2716834D01*
X4121861Y-2719120D01*
X4119067Y-2721203D01*
X4115866Y-2723083D01*
X4112361Y-2724708D01*
X4108653Y-2725928D01*
X4104589Y-2726791D01*
X4100118Y-2727299D01*
X4095343Y-2727502D01*
X4024985Y-2727502D01*
X4024985Y-2760776D01*
X4160367Y-2760776D01*
X4160367Y-2735376D01*
X4136999Y-2730804D01*
X4136999Y-2729026D01*
X4143857Y-2724759D01*
X4147108Y-2722321D01*
X4150207Y-2719628D01*
X4153001Y-2716733D01*
X4155440Y-2713634D01*
X4157573Y-2710383D01*
X4159351Y-2706928D01*
X4160926Y-2703271D01*
X4162044Y-2699512D01*
X4162704Y-2695549D01*
X4162907Y-2689656D01*
X4162298Y-2680817D01*
G37*
G36*
X4148937Y-2789478D02*
G01*
X4134154Y-2791002D01*
X4120235Y-2795574D01*
X4108297Y-2803499D01*
X4098899Y-2815640D01*
X4095343Y-2823514D01*
X4092803Y-2832608D01*
X4091279Y-2842920D01*
X4090771Y-2854502D01*
X4090771Y-2870504D01*
X4117187Y-2870504D01*
X4117187Y-2858058D01*
X4117390Y-2852674D01*
X4117949Y-2847746D01*
X4118914Y-2843276D01*
X4120235Y-2839262D01*
X4122115Y-2835554D01*
X4124401Y-2832354D01*
X4127042Y-2829610D01*
X4130141Y-2827324D01*
X4133850Y-2825546D01*
X4137964Y-2824276D01*
X4142587Y-2823514D01*
X4147667Y-2823260D01*
X4154576Y-2823718D01*
X4160570Y-2825089D01*
X4165650Y-2827375D01*
X4169765Y-2830626D01*
X4175099Y-2840228D01*
X4176877Y-2853740D01*
X4176877Y-2870504D01*
X4024985Y-2870504D01*
X4024985Y-2904032D01*
X4203547Y-2904032D01*
X4203547Y-2852470D01*
X4202684Y-2837281D01*
X4199940Y-2824276D01*
X4195419Y-2813405D01*
X4189069Y-2804718D01*
X4181144Y-2798064D01*
X4171797Y-2793288D01*
X4161078Y-2790444D01*
G37*
G36*
X6109106Y-198120D02*
G01*
X6109208Y-240487D01*
X6110376Y-255778D01*
X6108852Y-255778D01*
X6107125Y-253085D01*
X6103162Y-248513D01*
X6100978Y-246634D01*
X6096152Y-243636D01*
X6090818Y-241300D01*
X6088075Y-240487D01*
X6082080Y-239623D01*
X6078880Y-239521D01*
X6073495Y-239775D01*
X6068466Y-240588D01*
X6063843Y-241960D01*
X6059576Y-243840D01*
X6055614Y-246176D01*
X6052108Y-249123D01*
X6049111Y-252628D01*
X6046622Y-256794D01*
X6044590Y-261416D01*
X6043168Y-266750D01*
X6042304Y-272745D01*
X6042050Y-279400D01*
X6042050Y-350012D01*
X6068720Y-350012D01*
X6068720Y-284480D01*
X6068974Y-278638D01*
X6069736Y-273608D01*
X6071006Y-269392D01*
X6072784Y-265938D01*
X6075222Y-263347D01*
X6078220Y-261569D01*
X6081826Y-260451D01*
X6085992Y-260096D01*
X6090056Y-260350D01*
X6093714Y-261162D01*
X6096914Y-262534D01*
X6099708Y-264414D01*
X6102045Y-266801D01*
X6104026Y-269646D01*
X6105601Y-272999D01*
X6106820Y-276860D01*
X6107785Y-281228D01*
X6108547Y-286054D01*
X6108954Y-291287D01*
X6109106Y-296926D01*
X6109106Y-350012D01*
X6135522Y-350012D01*
X6135522Y-198120D01*
G37*
G36*
X5072786Y-198120D02*
G01*
X5072786Y-350012D01*
X5099456Y-350012D01*
X5099456Y-198120D01*
G37*
G36*
X4592726Y-198120D02*
G01*
X4592777Y-240487D01*
X4592980Y-246634D01*
X4593996Y-255778D01*
X4592472Y-255778D01*
X4590745Y-253085D01*
X4588865Y-250698D01*
X4586782Y-248513D01*
X4584598Y-246634D01*
X4579772Y-243636D01*
X4574438Y-241300D01*
X4571695Y-240487D01*
X4565700Y-239623D01*
X4562500Y-239521D01*
X4557115Y-239775D01*
X4552086Y-240588D01*
X4547412Y-241960D01*
X4543196Y-243840D01*
X4539234Y-246176D01*
X4535779Y-249123D01*
X4532731Y-252628D01*
X4530242Y-256794D01*
X4528210Y-261416D01*
X4526788Y-266750D01*
X4525924Y-272745D01*
X4525670Y-279400D01*
X4525670Y-350012D01*
X4552086Y-350012D01*
X4552086Y-284480D01*
X4552340Y-278638D01*
X4553153Y-273608D01*
X4554524Y-269392D01*
X4556404Y-265938D01*
X4558842Y-263347D01*
X4561840Y-261569D01*
X4565446Y-260451D01*
X4569612Y-260096D01*
X4573676Y-260350D01*
X4577334Y-261162D01*
X4580534Y-262534D01*
X4583328Y-264414D01*
X4585665Y-266801D01*
X4587646Y-269646D01*
X4589221Y-272999D01*
X4590440Y-276860D01*
X4591405Y-281228D01*
X4592116Y-286054D01*
X4592574Y-291287D01*
X4592726Y-296926D01*
X4592726Y-350012D01*
X4619142Y-350012D01*
X4619142Y-198120D01*
G37*
G36*
X4134764Y-199898D02*
G01*
X4131919Y-200050D01*
X4129379Y-200558D01*
X4126992Y-201472D01*
X4124858Y-202692D01*
X4122978Y-204368D01*
X4121607Y-206654D01*
X4120794Y-209600D01*
X4120540Y-213106D01*
X4120794Y-216408D01*
X4121607Y-219202D01*
X4122978Y-221488D01*
X4124858Y-223266D01*
X4126992Y-224586D01*
X4129379Y-225552D01*
X4131919Y-226110D01*
X4134764Y-226314D01*
X4137761Y-226110D01*
X4140504Y-225552D01*
X4142994Y-224586D01*
X4145178Y-223266D01*
X4147058Y-221488D01*
X4148429Y-219202D01*
X4149191Y-216408D01*
X4149496Y-213106D01*
X4149191Y-209600D01*
X4148429Y-206705D01*
X4147058Y-204368D01*
X4145178Y-202692D01*
X4142994Y-201472D01*
X4140504Y-200558D01*
X4137761Y-200050D01*
G37*
G36*
X5531002Y-207264D02*
G01*
X5581040Y-350012D01*
X5605170Y-350012D01*
X5555132Y-207264D01*
G37*
G36*
X5454294Y-207264D02*
G01*
X5504332Y-350012D01*
X5528716Y-350012D01*
X5478678Y-207264D01*
G37*
G36*
X5984138Y-217932D02*
G01*
X5984138Y-241554D01*
X5956198Y-241554D01*
X5956198Y-260604D01*
X5984138Y-260604D01*
X5984138Y-316738D01*
X5983884Y-320294D01*
X5983224Y-323392D01*
X5982106Y-326034D01*
X5980582Y-328168D01*
X5978753Y-329692D01*
X5976620Y-330809D01*
X5974181Y-331470D01*
X5971438Y-331724D01*
X5967120Y-331520D01*
X5962802Y-330962D01*
X5955182Y-328930D01*
X5955182Y-347726D01*
X5959957Y-349351D01*
X5965596Y-350774D01*
X5971946Y-351739D01*
X5978804Y-352044D01*
X5983122Y-351840D01*
X5987288Y-351282D01*
X5991250Y-350316D01*
X5995060Y-348996D01*
X5998514Y-347065D01*
X6001562Y-344678D01*
X6004255Y-341731D01*
X6006490Y-338328D01*
X6008268Y-334111D01*
X6009538Y-329184D01*
X6010300Y-323443D01*
X6010554Y-316992D01*
X6010554Y-260604D01*
X6024270Y-260604D01*
X6024270Y-249682D01*
X6009030Y-240792D01*
X6000902Y-217932D01*
G37*
G36*
X5905906Y-217932D02*
G01*
X5905906Y-241554D01*
X5877712Y-241554D01*
X5877712Y-260604D01*
X5905906Y-260604D01*
X5905906Y-316738D01*
X5905652Y-320294D01*
X5904992Y-323392D01*
X5903874Y-326034D01*
X5902350Y-328168D01*
X5900420Y-329692D01*
X5898184Y-330809D01*
X5895695Y-331470D01*
X5892952Y-331724D01*
X5888685Y-331520D01*
X5884570Y-330962D01*
X5876696Y-328930D01*
X5876696Y-347726D01*
X5881420Y-349351D01*
X5887110Y-350774D01*
X5893460Y-351739D01*
X5900318Y-352044D01*
X5904738Y-351840D01*
X5908954Y-351282D01*
X5912866Y-350316D01*
X5916574Y-348996D01*
X5920028Y-347065D01*
X5923076Y-344678D01*
X5925769Y-341731D01*
X5928004Y-338328D01*
X5929884Y-334111D01*
X5931255Y-329184D01*
X5932017Y-323443D01*
X5932322Y-316992D01*
X5932322Y-260604D01*
X5945784Y-260604D01*
X5945784Y-249682D01*
X5930544Y-240792D01*
X5922670Y-217932D01*
G37*
G36*
X5633110Y-239267D02*
G01*
X5630011Y-239471D01*
X5627166Y-240131D01*
X5624576Y-241249D01*
X5622188Y-242824D01*
X5620156Y-244805D01*
X5618734Y-247446D01*
X5617870Y-250748D01*
X5617616Y-254762D01*
X5617870Y-258521D01*
X5618734Y-261772D01*
X5620156Y-264515D01*
X5622188Y-266700D01*
X5624576Y-268224D01*
X5627166Y-269341D01*
X5630011Y-270002D01*
X5633110Y-270256D01*
X5636158Y-270002D01*
X5638952Y-269341D01*
X5641492Y-268224D01*
X5643778Y-266700D01*
X5645759Y-264515D01*
X5647182Y-261772D01*
X5648045Y-258521D01*
X5648350Y-254762D01*
X5648045Y-250748D01*
X5647182Y-247446D01*
X5645759Y-244805D01*
X5643778Y-242824D01*
X5641492Y-241249D01*
X5638952Y-240131D01*
X5636158Y-239471D01*
G37*
G36*
X5801004Y-239521D02*
G01*
X5785002Y-243078D01*
X5772556Y-253746D01*
X5767882Y-261569D01*
X5764530Y-271170D01*
X5762548Y-282549D01*
X5761913Y-295148D01*
X5789066Y-295148D01*
X5790234Y-280263D01*
X5793892Y-269240D01*
X5796737Y-265226D01*
X5800293Y-262382D01*
X5804509Y-260654D01*
X5809386Y-260096D01*
X5812993Y-260299D01*
X5816244Y-260908D01*
X5819089Y-261924D01*
X5821578Y-263398D01*
X5823813Y-265379D01*
X5825693Y-267919D01*
X5827217Y-270865D01*
X5828436Y-274320D01*
X5829300Y-278079D01*
X5829960Y-282295D01*
X5830468Y-292100D01*
X5830316Y-300990D01*
X5829960Y-306120D01*
X5829300Y-310794D01*
X5828436Y-314960D01*
X5827318Y-318770D01*
X5825896Y-322072D01*
X5824016Y-324866D01*
X5821832Y-327152D01*
X5819292Y-329031D01*
X5816295Y-330403D01*
X5812840Y-331165D01*
X5808878Y-331470D01*
X5805678Y-331165D01*
X5802782Y-330301D01*
X5800090Y-328879D01*
X5797702Y-326898D01*
X5795670Y-324510D01*
X5793892Y-321614D01*
X5792368Y-318262D01*
X5791098Y-314452D01*
X5790184Y-310184D01*
X5789168Y-300532D01*
X5789066Y-295148D01*
X5761913Y-295148D01*
X5763158Y-312521D01*
X5766968Y-326644D01*
X5769711Y-332486D01*
X5773013Y-337616D01*
X5776722Y-342036D01*
X5780938Y-345694D01*
X5785662Y-348437D01*
X5790692Y-350469D01*
X5796076Y-351637D01*
X5801766Y-352044D01*
X5808675Y-351536D01*
X5811824Y-350875D01*
X5814720Y-350012D01*
X5819851Y-347472D01*
X5824118Y-344424D01*
X5827471Y-340969D01*
X5830468Y-337312D01*
X5831738Y-337312D01*
X5830722Y-345440D01*
X5830519Y-349859D01*
X5830468Y-398018D01*
X5856884Y-398018D01*
X5856884Y-241554D01*
X5835294Y-241554D01*
X5831738Y-256032D01*
X5830468Y-256032D01*
X5827420Y-251612D01*
X5823864Y-247650D01*
X5821730Y-245922D01*
X5816904Y-243027D01*
X5814212Y-241808D01*
X5811266Y-240792D01*
X5808116Y-240080D01*
X5804662Y-239674D01*
G37*
G36*
X5703976Y-239521D02*
G01*
X5699201Y-239623D01*
X5690057Y-240639D01*
X5681472Y-242570D01*
X5672937Y-245617D01*
X5668670Y-247650D01*
X5676290Y-266192D01*
X5681167Y-264058D01*
X5690920Y-260756D01*
X5695594Y-259588D01*
X5700115Y-258825D01*
X5704484Y-258571D01*
X5707684Y-258724D01*
X5710529Y-259181D01*
X5712917Y-259994D01*
X5714898Y-261112D01*
X5716574Y-262483D01*
X5717743Y-264058D01*
X5718454Y-265887D01*
X5718708Y-267970D01*
X5718200Y-271221D01*
X5716676Y-273812D01*
X5715558Y-275082D01*
X5712155Y-277622D01*
X5707126Y-280365D01*
X5700115Y-283667D01*
X5691428Y-287426D01*
X5683554Y-291338D01*
X5680100Y-293370D01*
X5677103Y-295503D01*
X5674512Y-297942D01*
X5672277Y-300583D01*
X5670448Y-303530D01*
X5668975Y-306628D01*
X5667959Y-310184D01*
X5667349Y-314147D01*
X5667146Y-318516D01*
X5667451Y-323748D01*
X5668365Y-328523D01*
X5669838Y-332892D01*
X5671972Y-336804D01*
X5674664Y-340360D01*
X5677916Y-343458D01*
X5681776Y-346100D01*
X5686196Y-348234D01*
X5691174Y-349910D01*
X5696762Y-351078D01*
X5703011Y-351790D01*
X5709818Y-352044D01*
X5719826Y-351637D01*
X5728614Y-350520D01*
X5736386Y-348335D01*
X5744108Y-345440D01*
X5744108Y-324104D01*
X5735675Y-327558D01*
X5726582Y-330454D01*
X5722112Y-331571D01*
X5713730Y-332841D01*
X5709818Y-332994D01*
X5705551Y-332790D01*
X5701995Y-332130D01*
X5699099Y-331114D01*
X5696864Y-329692D01*
X5695086Y-328015D01*
X5693816Y-326034D01*
X5693054Y-323799D01*
X5692800Y-321310D01*
X5692902Y-319684D01*
X5693765Y-316788D01*
X5695645Y-314147D01*
X5699099Y-311353D01*
X5704230Y-308356D01*
X5720384Y-300431D01*
X5728258Y-296265D01*
X5731662Y-294132D01*
X5734507Y-291998D01*
X5737047Y-289610D01*
X5739231Y-287020D01*
X5741060Y-284226D01*
X5742381Y-280974D01*
X5743346Y-277418D01*
X5743905Y-273507D01*
X5744108Y-269240D01*
X5741365Y-256336D01*
X5733186Y-247142D01*
X5720283Y-241401D01*
G37*
G36*
X5381904Y-239521D02*
G01*
X5366715Y-241858D01*
X5355234Y-248920D01*
X5347766Y-261213D01*
X5345328Y-279400D01*
X5345328Y-350012D01*
X5371998Y-350012D01*
X5371998Y-284480D01*
X5372252Y-278739D01*
X5373065Y-273812D01*
X5374436Y-269595D01*
X5376316Y-266192D01*
X5378653Y-263499D01*
X5381650Y-261620D01*
X5385257Y-260451D01*
X5389524Y-260096D01*
X5395569Y-260654D01*
X5400598Y-262432D01*
X5404612Y-265379D01*
X5407558Y-269494D01*
X5411165Y-281025D01*
X5412384Y-296926D01*
X5412384Y-350012D01*
X5439054Y-350012D01*
X5439054Y-241554D01*
X5418480Y-241554D01*
X5414924Y-255778D01*
X5413654Y-255778D01*
X5411876Y-253085D01*
X5409946Y-250698D01*
X5407812Y-248513D01*
X5405526Y-246634D01*
X5400395Y-243484D01*
X5397550Y-242265D01*
X5391505Y-240487D01*
X5385155Y-239623D01*
G37*
G36*
X5150256Y-239521D02*
G01*
X5145735Y-239623D01*
X5137099Y-240639D01*
X5129072Y-242620D01*
X5122367Y-245008D01*
X5119522Y-246379D01*
X5127396Y-265938D01*
X5132781Y-263855D01*
X5138318Y-262128D01*
X5143703Y-260756D01*
X5149240Y-260350D01*
X5152999Y-260604D01*
X5156504Y-261366D01*
X5159756Y-262636D01*
X5162702Y-264414D01*
X5165191Y-266649D01*
X5167376Y-269392D01*
X5169255Y-272643D01*
X5170830Y-276352D01*
X5172151Y-280517D01*
X5173116Y-285242D01*
X5173675Y-290423D01*
X5173878Y-296164D01*
X5173675Y-301752D01*
X5173116Y-306882D01*
X5172151Y-311556D01*
X5170830Y-315722D01*
X5169255Y-319278D01*
X5167376Y-322427D01*
X5165191Y-325120D01*
X5162702Y-327406D01*
X5159756Y-329082D01*
X5156606Y-330250D01*
X5153152Y-330962D01*
X5149494Y-331216D01*
X5145633Y-331063D01*
X5141925Y-330657D01*
X5135016Y-328930D01*
X5131663Y-327812D01*
X5125313Y-324866D01*
X5122316Y-323088D01*
X5122316Y-344932D01*
X5125415Y-346608D01*
X5132019Y-349250D01*
X5135524Y-350266D01*
X5139131Y-351028D01*
X5147513Y-351942D01*
X5152288Y-352044D01*
X5166258Y-350570D01*
X5178196Y-346202D01*
X5187848Y-338582D01*
X5194960Y-327914D01*
X5199329Y-313944D01*
X5200802Y-296418D01*
X5199126Y-278231D01*
X5194198Y-263906D01*
X5186578Y-253085D01*
X5176418Y-245617D01*
X5164175Y-241046D01*
G37*
G36*
X5001412Y-239521D02*
G01*
X4988407Y-241046D01*
X4977282Y-245617D01*
X4972456Y-248869D01*
X4968240Y-252729D01*
X4964582Y-257200D01*
X4961534Y-262382D01*
X4957318Y-274421D01*
X4956406Y-283972D01*
X4981092Y-283972D01*
X4981244Y-280263D01*
X4981651Y-276758D01*
X4982362Y-273507D01*
X4983378Y-270510D01*
X4984648Y-267868D01*
X4986172Y-265480D01*
X4987950Y-263398D01*
X4989982Y-261620D01*
X4992268Y-260146D01*
X4994859Y-259130D01*
X4997754Y-258521D01*
X5000904Y-258317D01*
X5005120Y-258724D01*
X5008930Y-259892D01*
X5012385Y-261874D01*
X5015382Y-264668D01*
X5017871Y-268325D01*
X5019802Y-272796D01*
X5021173Y-277977D01*
X5021986Y-283972D01*
X4956406Y-283972D01*
X4955946Y-288798D01*
X4955946Y-301498D01*
X5022494Y-301498D01*
X5020411Y-314756D01*
X5015128Y-324612D01*
X5011318Y-328066D01*
X5006797Y-330504D01*
X5001564Y-331978D01*
X4995570Y-332486D01*
X4986274Y-331978D01*
X4977790Y-330454D01*
X4969764Y-327914D01*
X4961534Y-324358D01*
X4961534Y-344678D01*
X4965344Y-346456D01*
X4969256Y-347980D01*
X4973218Y-349250D01*
X4977282Y-350266D01*
X4981702Y-351028D01*
X4991862Y-351942D01*
X4997602Y-352044D01*
X5011928Y-350520D01*
X5024526Y-345948D01*
X5034940Y-338277D01*
X5042814Y-327406D01*
X5047742Y-313486D01*
X5049418Y-296672D01*
X5047894Y-279603D01*
X5043322Y-265430D01*
X5036210Y-254254D01*
X5026558Y-246125D01*
X5014823Y-241147D01*
G37*
G36*
X4889906Y-239521D02*
G01*
X4872431Y-241808D01*
X4859680Y-248666D01*
X4852060Y-260350D01*
X4849520Y-277114D01*
X4849520Y-298704D01*
X4875682Y-298704D01*
X4887112Y-299212D01*
X4893665Y-299720D01*
X4899152Y-300837D01*
X4903571Y-302514D01*
X4906924Y-304800D01*
X4909362Y-307644D01*
X4911090Y-310896D01*
X4912156Y-314502D01*
X4912512Y-318516D01*
X4912258Y-322072D01*
X4911547Y-325120D01*
X4910378Y-327660D01*
X4908702Y-329692D01*
X4906619Y-331114D01*
X4904181Y-332181D01*
X4901387Y-332790D01*
X4898288Y-332994D01*
X4893767Y-332587D01*
X4889601Y-331419D01*
X4885740Y-329387D01*
X4882286Y-326644D01*
X4879390Y-323088D01*
X4877308Y-318820D01*
X4876088Y-313842D01*
X4875682Y-308102D01*
X4875682Y-298704D01*
X4849520Y-298704D01*
X4849520Y-350012D01*
X4868062Y-350012D01*
X4873142Y-335026D01*
X4873904Y-335026D01*
X4878476Y-340360D01*
X4883048Y-344678D01*
X4885385Y-346456D01*
X4887925Y-347980D01*
X4890617Y-349250D01*
X4893462Y-350266D01*
X4896561Y-351028D01*
X4903774Y-351942D01*
X4907940Y-352044D01*
X4912360Y-351790D01*
X4916576Y-351129D01*
X4920488Y-350012D01*
X4924196Y-348488D01*
X4927549Y-346456D01*
X4930597Y-343916D01*
X4933289Y-340868D01*
X4935626Y-337312D01*
X4937404Y-333248D01*
X4938674Y-328777D01*
X4939436Y-323850D01*
X4939690Y-318516D01*
X4936794Y-303631D01*
X4928260Y-293116D01*
X4913630Y-286562D01*
X4893208Y-283718D01*
X4875936Y-283210D01*
X4875936Y-277876D01*
X4876190Y-272999D01*
X4877003Y-268884D01*
X4878374Y-265531D01*
X4880254Y-262890D01*
X4882642Y-261010D01*
X4885436Y-259638D01*
X4888738Y-258825D01*
X4892446Y-258571D01*
X4896002Y-258724D01*
X4899609Y-259181D01*
X4903266Y-259994D01*
X4910582Y-262280D01*
X4917694Y-265074D01*
X4921148Y-266700D01*
X4929276Y-248920D01*
X4920843Y-245211D01*
X4911242Y-242316D01*
X4906060Y-241096D01*
X4900828Y-240182D01*
X4895443Y-239674D01*
G37*
G36*
X4764278Y-239521D02*
G01*
X4758639Y-239928D01*
X4755032Y-240538D01*
X4757318Y-263906D01*
X4764786Y-262991D01*
X4770221Y-262991D01*
X4775047Y-264007D01*
X4779721Y-265938D01*
X4781956Y-267208D01*
X4784039Y-268732D01*
X4787950Y-272491D01*
X4791100Y-277215D01*
X4792370Y-279908D01*
X4793335Y-282956D01*
X4794097Y-286308D01*
X4794504Y-289966D01*
X4794656Y-293878D01*
X4794656Y-350012D01*
X4821326Y-350012D01*
X4821326Y-241554D01*
X4800752Y-241554D01*
X4797196Y-260350D01*
X4795926Y-260350D01*
X4792472Y-254812D01*
X4790490Y-252272D01*
X4785969Y-247650D01*
X4783480Y-245617D01*
X4778146Y-242316D01*
X4775149Y-241096D01*
X4772101Y-240182D01*
X4768951Y-239674D01*
G37*
G36*
X4681626Y-239521D02*
G01*
X4665624Y-243078D01*
X4653178Y-253746D01*
X4648504Y-261569D01*
X4645152Y-271170D01*
X4643170Y-282549D01*
X4642535Y-295148D01*
X4669688Y-295148D01*
X4670907Y-280263D01*
X4674514Y-269240D01*
X4677359Y-265226D01*
X4680915Y-262382D01*
X4685131Y-260654D01*
X4690008Y-260096D01*
X4693615Y-260299D01*
X4696866Y-260908D01*
X4699711Y-261924D01*
X4702200Y-263398D01*
X4704435Y-265379D01*
X4706315Y-267919D01*
X4707839Y-270865D01*
X4709058Y-274320D01*
X4709922Y-278079D01*
X4710582Y-282295D01*
X4711090Y-292100D01*
X4710938Y-300990D01*
X4710582Y-306120D01*
X4709922Y-310794D01*
X4709058Y-314960D01*
X4707991Y-318770D01*
X4706518Y-322072D01*
X4704638Y-324866D01*
X4702454Y-327152D01*
X4699914Y-329031D01*
X4696917Y-330403D01*
X4693462Y-331165D01*
X4689500Y-331470D01*
X4686300Y-331165D01*
X4683404Y-330301D01*
X4680712Y-328879D01*
X4678324Y-326898D01*
X4676292Y-324510D01*
X4674514Y-321614D01*
X4672990Y-318262D01*
X4671720Y-314452D01*
X4670806Y-310184D01*
X4669790Y-300532D01*
X4669688Y-295148D01*
X4642535Y-295148D01*
X4643780Y-312521D01*
X4647590Y-326644D01*
X4650333Y-332486D01*
X4653584Y-337616D01*
X4657344Y-342036D01*
X4661560Y-345694D01*
X4666284Y-348437D01*
X4671314Y-350469D01*
X4676698Y-351637D01*
X4682388Y-352044D01*
X4689297Y-351536D01*
X4692446Y-350875D01*
X4695342Y-350012D01*
X4700270Y-347472D01*
X4704486Y-344424D01*
X4708042Y-340969D01*
X4711090Y-337312D01*
X4712360Y-337312D01*
X4711344Y-345440D01*
X4711141Y-349859D01*
X4711090Y-398018D01*
X4737506Y-398018D01*
X4737506Y-241554D01*
X4715916Y-241554D01*
X4712360Y-256032D01*
X4711090Y-256032D01*
X4708042Y-251612D01*
X4704486Y-247650D01*
X4702352Y-245922D01*
X4697526Y-243027D01*
X4694834Y-241808D01*
X4691888Y-240792D01*
X4688738Y-240080D01*
X4685284Y-239674D01*
G37*
G36*
X4453280Y-239521D02*
G01*
X4439818Y-241147D01*
X4427880Y-246125D01*
X4417974Y-254203D01*
X4410608Y-265176D01*
X4405833Y-278993D01*
X4404258Y-295656D01*
X4431182Y-295656D01*
X4431334Y-290017D01*
X4431741Y-284937D01*
X4432452Y-280263D01*
X4433468Y-276098D01*
X4434738Y-272389D01*
X4436364Y-269138D01*
X4438294Y-266395D01*
X4440580Y-264160D01*
X4443272Y-262382D01*
X4446320Y-261112D01*
X4449775Y-260350D01*
X4453534Y-260096D01*
X4459071Y-260654D01*
X4463745Y-262382D01*
X4467555Y-265226D01*
X4470552Y-269240D01*
X4474565Y-280416D01*
X4475886Y-295656D01*
X4475734Y-301142D01*
X4475327Y-306273D01*
X4474565Y-310946D01*
X4473600Y-315214D01*
X4472279Y-318922D01*
X4470603Y-322173D01*
X4468571Y-325018D01*
X4466234Y-327406D01*
X4463592Y-329285D01*
X4460544Y-330606D01*
X4457141Y-331419D01*
X4453280Y-331724D01*
X4449622Y-331419D01*
X4446270Y-330606D01*
X4443272Y-329285D01*
X4440580Y-327406D01*
X4438294Y-325018D01*
X4436364Y-322173D01*
X4434738Y-318922D01*
X4433468Y-315214D01*
X4432452Y-310946D01*
X4431741Y-306222D01*
X4431334Y-301142D01*
X4431182Y-295656D01*
X4404258Y-295656D01*
X4404461Y-302209D01*
X4405071Y-308356D01*
X4406087Y-314147D01*
X4407560Y-319532D01*
X4409490Y-324510D01*
X4411827Y-329184D01*
X4414469Y-333451D01*
X4417466Y-337312D01*
X4420920Y-340766D01*
X4424680Y-343712D01*
X4428794Y-346202D01*
X4433214Y-348234D01*
X4437938Y-349910D01*
X4442917Y-351078D01*
X4448200Y-351790D01*
X4453788Y-352044D01*
X4459020Y-351790D01*
X4463999Y-351078D01*
X4468774Y-349910D01*
X4473346Y-348234D01*
X4477766Y-346202D01*
X4481830Y-343712D01*
X4485640Y-340766D01*
X4489094Y-337312D01*
X4492193Y-333400D01*
X4494936Y-329184D01*
X4497273Y-324561D01*
X4499254Y-319532D01*
X4500778Y-314096D01*
X4501896Y-308356D01*
X4502556Y-302158D01*
X4502810Y-295656D01*
X4501286Y-278993D01*
X4496714Y-265176D01*
X4489551Y-254203D01*
X4479696Y-246125D01*
X4467504Y-241147D01*
G37*
G36*
X4338472Y-239521D02*
G01*
X4325416Y-241046D01*
X4314342Y-245617D01*
X4309516Y-248869D01*
X4305300Y-252729D01*
X4301642Y-257200D01*
X4298594Y-262382D01*
X4294378Y-274421D01*
X4293466Y-283972D01*
X4318152Y-283972D01*
X4318304Y-280263D01*
X4318711Y-276758D01*
X4319422Y-273507D01*
X4320438Y-270510D01*
X4321708Y-267868D01*
X4323232Y-265480D01*
X4325010Y-263398D01*
X4327042Y-261620D01*
X4329328Y-260146D01*
X4331919Y-259130D01*
X4334814Y-258521D01*
X4337964Y-258317D01*
X4342180Y-258724D01*
X4346041Y-259892D01*
X4349445Y-261874D01*
X4352442Y-264668D01*
X4354931Y-268325D01*
X4356862Y-272796D01*
X4358233Y-277977D01*
X4359046Y-283972D01*
X4293466Y-283972D01*
X4293006Y-288798D01*
X4293006Y-301498D01*
X4359300Y-301498D01*
X4357370Y-314756D01*
X4352188Y-324612D01*
X4348378Y-328066D01*
X4343857Y-330504D01*
X4338624Y-331978D01*
X4332630Y-332486D01*
X4323232Y-331978D01*
X4314850Y-330454D01*
X4306824Y-327914D01*
X4298594Y-324358D01*
X4298594Y-344678D01*
X4302404Y-346456D01*
X4306316Y-347980D01*
X4310278Y-349250D01*
X4314342Y-350266D01*
X4318762Y-351028D01*
X4328922Y-351942D01*
X4334662Y-352044D01*
X4348988Y-350520D01*
X4361586Y-345948D01*
X4372000Y-338277D01*
X4379874Y-327406D01*
X4384802Y-313486D01*
X4386478Y-296672D01*
X4384954Y-279603D01*
X4380382Y-265430D01*
X4373118Y-254254D01*
X4363618Y-246125D01*
X4351883Y-241147D01*
G37*
G36*
X4213250Y-239521D02*
G01*
X4198010Y-241858D01*
X4186326Y-248920D01*
X4179062Y-261213D01*
X4176674Y-279400D01*
X4176674Y-350012D01*
X4203090Y-350012D01*
X4203090Y-284480D01*
X4203344Y-278739D01*
X4204157Y-273812D01*
X4205528Y-269595D01*
X4207408Y-266192D01*
X4209846Y-263499D01*
X4212844Y-261620D01*
X4216450Y-260451D01*
X4220616Y-260096D01*
X4226814Y-260654D01*
X4231894Y-262432D01*
X4235958Y-265379D01*
X4238904Y-269494D01*
X4242511Y-281025D01*
X4243730Y-296926D01*
X4243730Y-350012D01*
X4270146Y-350012D01*
X4270146Y-241554D01*
X4249826Y-241554D01*
X4246016Y-255778D01*
X4244746Y-255778D01*
X4243070Y-253085D01*
X4241190Y-250698D01*
X4239006Y-248513D01*
X4234129Y-244957D01*
X4231436Y-243484D01*
X4228642Y-242265D01*
X4222699Y-240487D01*
X4216501Y-239623D01*
G37*
G36*
X5224424Y-241554D02*
G01*
X5224424Y-350012D01*
X5244490Y-350012D01*
X5248300Y-336042D01*
X5249570Y-336042D01*
X5251297Y-338683D01*
X5253329Y-341122D01*
X5255514Y-343255D01*
X5257952Y-345186D01*
X5263184Y-348081D01*
X5268874Y-350266D01*
X5274868Y-351586D01*
X5278069Y-351942D01*
X5281320Y-352044D01*
X5286705Y-351739D01*
X5291734Y-350977D01*
X5296357Y-349605D01*
X5300624Y-347726D01*
X5304434Y-345389D01*
X5307838Y-342493D01*
X5310784Y-339039D01*
X5313324Y-335026D01*
X5315305Y-330250D01*
X5316728Y-324916D01*
X5317591Y-318973D01*
X5317896Y-312420D01*
X5317896Y-241554D01*
X5291226Y-241554D01*
X5291226Y-307340D01*
X5290972Y-313029D01*
X5290210Y-318008D01*
X5288940Y-322173D01*
X5287162Y-325628D01*
X5284825Y-328269D01*
X5281828Y-330200D01*
X5278170Y-331317D01*
X5273954Y-331724D01*
X5269738Y-331419D01*
X5266029Y-330606D01*
X5262727Y-329285D01*
X5259984Y-327406D01*
X5257647Y-324967D01*
X5255666Y-322072D01*
X5254091Y-318617D01*
X5252872Y-314706D01*
X5251958Y-310388D01*
X5250942Y-300380D01*
X5250840Y-241554D01*
G37*
G36*
X4121810Y-241554D02*
G01*
X4121810Y-350012D01*
X4148226Y-350012D01*
X4148226Y-241554D01*
G37*
G36*
X4002176Y-241554D02*
G01*
X4035958Y-294640D01*
X4000652Y-350012D01*
X4030624Y-350012D01*
X4052976Y-310642D01*
X4075582Y-350012D01*
X4105554Y-350012D01*
X4070502Y-294640D01*
X4104030Y-241554D01*
X4073804Y-241554D01*
X4052976Y-278384D01*
X4032148Y-241554D01*
G37*
G36*
X3840886Y-241554D02*
G01*
X3874668Y-294640D01*
X3839108Y-350012D01*
X3869080Y-350012D01*
X3891686Y-310642D01*
X3914292Y-350012D01*
X3944264Y-350012D01*
X3909212Y-294640D01*
X3942486Y-241554D01*
X3912514Y-241554D01*
X3891686Y-278384D01*
X3870858Y-241554D01*
G37*
G36*
X3731920Y-241554D02*
G01*
X3774846Y-364236D01*
X3776827Y-369366D01*
X3779113Y-374142D01*
X3781551Y-378510D01*
X3784244Y-382524D01*
X3787292Y-386080D01*
X3790645Y-389229D01*
X3794302Y-391922D01*
X3798214Y-394208D01*
X3802379Y-395884D01*
X3806951Y-397052D01*
X3812032Y-397764D01*
X3819702Y-397967D01*
X3823665Y-397713D01*
X3831488Y-396494D01*
X3831488Y-376428D01*
X3826662Y-377190D01*
X3820312Y-377698D01*
X3817569Y-377545D01*
X3815029Y-377037D01*
X3812641Y-376275D01*
X3810406Y-375158D01*
X3808425Y-373786D01*
X3805021Y-370332D01*
X3802227Y-366064D01*
X3801110Y-363677D01*
X3796690Y-349504D01*
X3837330Y-241554D01*
X3808882Y-241554D01*
X3787800Y-308457D01*
X3786124Y-316077D01*
X3784498Y-325628D01*
X3783990Y-325628D01*
X3781958Y-314706D01*
X3778910Y-302768D01*
X3759860Y-241554D01*
G37*
G36*
X3647846Y-241554D02*
G01*
X3647846Y-258571D01*
X3694836Y-330708D01*
X3646068Y-330708D01*
X3646068Y-350012D01*
X3726078Y-350012D01*
X3726078Y-334518D01*
X3677564Y-260858D01*
X3723284Y-260858D01*
X3723284Y-241554D01*
G37*
G36*
X5633110Y-321818D02*
G01*
X5630011Y-322021D01*
X5627166Y-322630D01*
X5624576Y-323646D01*
X5622188Y-325120D01*
X5620156Y-327202D01*
X5618734Y-329946D01*
X5617870Y-333298D01*
X5617616Y-337312D01*
X5617870Y-341071D01*
X5618734Y-344271D01*
X5620156Y-346913D01*
X5622188Y-348996D01*
X5624576Y-350520D01*
X5627166Y-351637D01*
X5630011Y-352298D01*
X5633110Y-352552D01*
X5636158Y-352298D01*
X5638952Y-351637D01*
X5641492Y-350520D01*
X5643778Y-348996D01*
X5645759Y-346913D01*
X5647182Y-344271D01*
X5648045Y-341071D01*
X5648350Y-337312D01*
X5648045Y-333298D01*
X5647182Y-329946D01*
X5645759Y-327202D01*
X5643778Y-325120D01*
X5641492Y-323646D01*
X5638952Y-322630D01*
X5636158Y-322021D01*
G37*
G36*
X3972458Y-321818D02*
G01*
X3969359Y-322021D01*
X3966565Y-322630D01*
X3963924Y-323646D01*
X3961536Y-325120D01*
X3959504Y-327202D01*
X3958082Y-329946D01*
X3957218Y-333298D01*
X3956964Y-337312D01*
X3957218Y-341071D01*
X3958082Y-344271D01*
X3959504Y-346913D01*
X3961536Y-348996D01*
X3963924Y-350520D01*
X3966514Y-351637D01*
X3969359Y-352298D01*
X3972458Y-352552D01*
X3975506Y-352298D01*
X3978351Y-351637D01*
X3980992Y-350520D01*
X3983380Y-348996D01*
X3985260Y-346913D01*
X3986631Y-344271D01*
X3987393Y-341071D01*
X3987698Y-337312D01*
X3987393Y-333298D01*
X3986580Y-329946D01*
X3985260Y-327202D01*
X3983380Y-325120D01*
X3980992Y-323646D01*
X3978351Y-322630D01*
X3975506Y-322021D01*
G37*
G36*
X7971434Y-2139238D02*
G01*
X7971434Y-2189835D01*
X7929270Y-2189835D01*
X7929270Y-2142794D01*
X7907934Y-2142794D01*
X7907934Y-2189835D01*
X7850022Y-2189835D01*
X7850022Y-2216251D01*
X7992770Y-2216251D01*
X7992770Y-2139238D01*
G37*
G36*
X7971434Y-2240127D02*
G01*
X7971434Y-2290622D01*
X7929270Y-2290622D01*
X7929270Y-2243683D01*
X7907934Y-2243683D01*
X7907934Y-2290622D01*
X7850022Y-2290622D01*
X7850022Y-2317038D01*
X7992770Y-2317038D01*
X7992770Y-2240127D01*
G37*
G36*
X7921650Y-2344470D02*
G01*
X7905699Y-2345486D01*
X7891424Y-2348585D01*
X7878876Y-2353411D01*
X7868310Y-2360218D01*
X7859522Y-2369108D01*
X7853070Y-2380030D01*
X7849260Y-2393086D01*
X7847990Y-2408275D01*
X7869834Y-2408275D01*
X7870190Y-2402332D01*
X7871358Y-2396947D01*
X7873238Y-2392172D01*
X7875930Y-2387904D01*
X7879384Y-2384348D01*
X7883550Y-2381250D01*
X7888325Y-2378659D01*
X7893710Y-2376525D01*
X7906512Y-2373833D01*
X7921650Y-2372918D01*
X7933029Y-2373477D01*
X7943138Y-2375001D01*
X7951978Y-2377541D01*
X7959496Y-2381046D01*
X7969961Y-2391968D01*
X7973466Y-2407970D01*
X7973059Y-2414066D01*
X7971891Y-2419502D01*
X7969859Y-2424328D01*
X7967116Y-2428544D01*
X7963712Y-2432253D01*
X7959598Y-2435352D01*
X7954822Y-2437942D01*
X7949336Y-2440025D01*
X7936687Y-2442667D01*
X7921650Y-2443530D01*
X7906512Y-2442667D01*
X7893710Y-2440025D01*
X7888325Y-2437942D01*
X7883550Y-2435352D01*
X7879384Y-2432253D01*
X7875930Y-2428544D01*
X7873238Y-2424328D01*
X7871358Y-2419553D01*
X7870190Y-2414168D01*
X7869834Y-2408275D01*
X7847990Y-2408275D01*
X7849311Y-2423515D01*
X7853324Y-2436672D01*
X7859725Y-2447594D01*
X7868310Y-2456535D01*
X7878978Y-2463241D01*
X7891678Y-2468168D01*
X7905953Y-2471064D01*
X7921904Y-2471978D01*
X7932572Y-2471572D01*
X7942580Y-2470302D01*
X7951876Y-2468168D01*
X7960512Y-2465120D01*
X7974990Y-2456434D01*
X7985912Y-2444038D01*
X7989925Y-2436469D01*
X7992770Y-2427935D01*
X7994497Y-2418435D01*
X7995056Y-2407970D01*
X7994497Y-2397658D01*
X7992770Y-2388311D01*
X7989925Y-2379878D01*
X7985912Y-2372410D01*
X7974888Y-2360269D01*
X7960258Y-2351633D01*
X7951622Y-2348484D01*
X7942325Y-2346299D01*
X7932318Y-2344928D01*
G37*
G36*
X7971180Y-2534767D02*
G01*
X7971180Y-2571851D01*
X7850022Y-2571851D01*
X7850022Y-2598775D01*
X7971180Y-2598775D01*
X7971180Y-2636062D01*
X7992770Y-2636062D01*
X7992770Y-2534767D01*
G37*
G36*
X7900314Y-2654909D02*
G01*
X7886293Y-2656382D01*
X7873644Y-2660954D01*
X7862976Y-2668676D01*
X7854848Y-2679496D01*
X7849666Y-2693365D01*
X7847990Y-2710535D01*
X7848904Y-2722829D01*
X7851597Y-2733649D01*
X7856118Y-2742895D01*
X7862468Y-2750667D01*
X7870291Y-2756662D01*
X7879283Y-2760929D01*
X7889443Y-2763520D01*
X7900822Y-2764383D01*
X7992770Y-2764383D01*
X7992770Y-2737662D01*
X7903362Y-2737662D01*
X7888376Y-2735935D01*
X7877962Y-2730601D01*
X7874406Y-2726588D01*
X7871866Y-2721762D01*
X7870342Y-2716072D01*
X7869834Y-2709468D01*
X7870037Y-2704896D01*
X7870748Y-2700731D01*
X7871968Y-2697022D01*
X7873644Y-2693720D01*
X7875778Y-2690977D01*
X7878368Y-2688590D01*
X7881467Y-2686558D01*
X7885074Y-2684830D01*
X7889087Y-2683611D01*
X7893507Y-2682748D01*
X7898333Y-2682240D01*
X7903616Y-2682036D01*
X7992770Y-2682036D01*
X7992770Y-2654909D01*
G37*
G36*
X7985404Y-2785922D02*
G01*
X7964322Y-2795117D01*
X7967624Y-2802128D01*
X7971637Y-2813304D01*
X7972501Y-2817215D01*
X7973009Y-2821178D01*
X7973212Y-2825343D01*
X7972958Y-2829407D01*
X7972298Y-2833319D01*
X7971180Y-2837027D01*
X7969656Y-2840583D01*
X7967675Y-2843834D01*
X7965287Y-2846832D01*
X7962442Y-2849575D01*
X7959242Y-2851962D01*
X7955635Y-2854248D01*
X7951673Y-2856179D01*
X7947355Y-2857804D01*
X7942732Y-2859125D01*
X7937753Y-2860192D01*
X7932470Y-2861005D01*
X7926933Y-2861462D01*
X7921142Y-2861665D01*
X7906054Y-2860649D01*
X7893456Y-2857601D01*
X7888020Y-2855315D01*
X7883296Y-2852470D01*
X7879130Y-2849168D01*
X7875676Y-2845409D01*
X7872984Y-2841040D01*
X7871104Y-2836164D01*
X7869936Y-2830779D01*
X7869580Y-2824835D01*
X7869681Y-2820517D01*
X7870698Y-2812135D01*
X7872577Y-2803956D01*
X7875117Y-2795574D01*
X7876692Y-2791307D01*
X7854848Y-2791307D01*
X7851698Y-2799740D01*
X7850479Y-2804007D01*
X7849514Y-2808325D01*
X7848346Y-2817520D01*
X7847990Y-2827883D01*
X7850276Y-2846882D01*
X7857134Y-2862427D01*
X7868107Y-2874365D01*
X7882788Y-2882696D01*
X7891373Y-2885592D01*
X7900670Y-2887675D01*
X7910677Y-2888894D01*
X7921396Y-2889351D01*
X7936941Y-2888284D01*
X7951114Y-2885236D01*
X7963509Y-2880004D01*
X7974228Y-2872841D01*
X7982864Y-2863646D01*
X7989468Y-2852470D01*
X7993481Y-2839720D01*
X7994802Y-2825343D01*
X7994650Y-2820212D01*
X7993380Y-2809798D01*
X7992262Y-2804515D01*
X7990890Y-2799435D01*
X7989265Y-2794660D01*
X7987436Y-2790139D01*
G37*
G36*
X7599984Y-2286711D02*
G01*
X7599984Y-2363673D01*
X7742732Y-2363673D01*
X7742732Y-2286711D01*
X7721447Y-2286711D01*
X7721447Y-2336749D01*
X7685125Y-2336749D01*
X7685125Y-2289759D01*
X7663484Y-2289759D01*
X7663484Y-2336749D01*
X7621625Y-2336749D01*
X7621625Y-2286711D01*
G37*
G36*
X7599984Y-2380691D02*
G01*
X7599984Y-2410917D01*
X7656423Y-2441905D01*
X7656423Y-2459431D01*
X7677454Y-2459431D01*
X7677454Y-2447239D01*
X7677658Y-2442972D01*
X7678115Y-2439162D01*
X7678928Y-2435758D01*
X7680045Y-2432761D01*
X7681468Y-2430018D01*
X7683195Y-2427681D01*
X7685278Y-2425700D01*
X7687614Y-2424125D01*
X7690205Y-2422906D01*
X7693152Y-2421991D01*
X7696453Y-2421483D01*
X7700111Y-2421331D01*
X7703718Y-2421483D01*
X7707020Y-2422042D01*
X7709966Y-2422906D01*
X7712557Y-2424125D01*
X7714691Y-2425700D01*
X7716520Y-2427681D01*
X7718094Y-2430018D01*
X7719364Y-2432761D01*
X7720279Y-2435860D01*
X7721295Y-2443226D01*
X7721447Y-2459431D01*
X7599984Y-2459431D01*
X7599984Y-2486101D01*
X7742732Y-2486101D01*
X7742732Y-2446477D01*
X7741615Y-2430221D01*
X7738211Y-2417013D01*
X7735620Y-2411628D01*
X7732420Y-2407056D01*
X7728610Y-2403144D01*
X7724241Y-2399995D01*
X7719314Y-2397404D01*
X7713827Y-2395626D01*
X7707630Y-2394508D01*
X7700873Y-2394153D01*
X7695844Y-2394356D01*
X7691170Y-2395016D01*
X7686954Y-2396134D01*
X7683093Y-2397709D01*
X7679537Y-2399487D01*
X7676286Y-2401570D01*
X7673289Y-2403957D01*
X7670647Y-2406599D01*
X7668310Y-2409444D01*
X7666228Y-2412492D01*
X7662773Y-2419045D01*
G37*
G36*
X7599984Y-2513533D02*
G01*
X7599984Y-2590495D01*
X7742732Y-2590495D01*
X7742732Y-2513533D01*
X7721447Y-2513533D01*
X7721447Y-2563825D01*
X7685125Y-2563825D01*
X7685125Y-2516835D01*
X7663484Y-2516835D01*
X7663484Y-2563825D01*
X7621625Y-2563825D01*
X7621625Y-2513533D01*
G37*
G36*
X7599984Y-2624277D02*
G01*
X7599984Y-2651201D01*
X7663484Y-2651201D01*
X7663484Y-2706319D01*
X7599984Y-2706319D01*
X7599984Y-2733243D01*
X7742732Y-2733243D01*
X7742732Y-2706319D01*
X7685125Y-2706319D01*
X7685125Y-2651201D01*
X7742732Y-2651201D01*
X7742732Y-2624277D01*
G37*
G36*
X7508494Y-2444597D02*
G01*
X7399985Y-2483713D01*
X7399985Y-2510891D01*
X7508494Y-2550007D01*
X7508494Y-2522321D01*
X7441793Y-2501544D01*
X7437628Y-2500477D01*
X7428738Y-2498699D01*
X7424623Y-2498090D01*
X7421067Y-2497937D01*
X7421067Y-2497175D01*
X7428992Y-2496159D01*
X7445756Y-2492095D01*
X7508494Y-2472283D01*
G37*
G36*
X2036673Y-1987905D02*
G01*
X2007463Y-1990953D01*
X2008479Y-1996795D01*
X2008682Y-2002129D01*
X2008581Y-2007057D01*
X2008174Y-2010156D01*
X2006447Y-2016099D01*
X2005025Y-2018995D01*
X2003399Y-2021687D01*
X2001469Y-2024329D01*
X1999335Y-2026767D01*
X1996846Y-2029155D01*
X1994052Y-2031288D01*
X1990902Y-2033117D01*
X1987397Y-2034641D01*
X1983638Y-2035860D01*
X1979574Y-2036724D01*
X1975154Y-2037283D01*
X1970379Y-2037435D01*
X1900021Y-2037435D01*
X1900021Y-2070709D01*
X2035403Y-2070709D01*
X2035403Y-2045309D01*
X2012035Y-2040737D01*
X2012035Y-2038959D01*
X2015540Y-2036978D01*
X2022144Y-2032254D01*
X2025243Y-2029561D01*
X2027986Y-2026666D01*
X2030425Y-2023618D01*
X2032558Y-2020316D01*
X2034387Y-2016861D01*
X2035911Y-2013254D01*
X2037029Y-2009444D01*
X2037689Y-2005482D01*
X2037892Y-1999691D01*
X2037537Y-1992426D01*
G37*
G36*
X1968093Y-2099665D02*
G01*
X1952091Y-2100783D01*
X1938121Y-2103983D01*
X1925929Y-2109266D01*
X1915769Y-2116429D01*
X1911553Y-2120696D01*
X1907895Y-2125370D01*
X1904695Y-2130501D01*
X1902053Y-2135987D01*
X1898599Y-2148128D01*
X1897523Y-2161133D01*
X1923135Y-2161133D01*
X1923440Y-2156561D01*
X1924405Y-2152396D01*
X1925980Y-2148687D01*
X1928215Y-2145385D01*
X1931162Y-2142540D01*
X1934768Y-2140051D01*
X1938934Y-2137968D01*
X1943709Y-2136241D01*
X1949043Y-2135022D01*
X1954885Y-2134158D01*
X1961235Y-2133650D01*
X1968093Y-2133447D01*
X1975053Y-2133650D01*
X1981403Y-2134158D01*
X1987245Y-2135022D01*
X1992477Y-2136241D01*
X1997100Y-2137968D01*
X2001164Y-2140051D01*
X2004618Y-2142540D01*
X2007463Y-2145385D01*
X2009698Y-2148687D01*
X2011273Y-2152446D01*
X2012238Y-2156663D01*
X2012543Y-2161387D01*
X2009698Y-2174087D01*
X2001113Y-2182723D01*
X1986991Y-2187702D01*
X1968093Y-2189327D01*
X1961235Y-2189175D01*
X1954885Y-2188565D01*
X1949043Y-2187651D01*
X1943709Y-2186279D01*
X1938934Y-2184704D01*
X1934768Y-2182672D01*
X1931162Y-2180234D01*
X1928215Y-2177389D01*
X1925980Y-2174087D01*
X1924405Y-2170277D01*
X1923440Y-2165959D01*
X1923135Y-2161133D01*
X1897523Y-2161133D01*
X1898599Y-2174544D01*
X1902053Y-2186279D01*
X1904695Y-2191715D01*
X1907895Y-2196795D01*
X1911553Y-2201468D01*
X1915769Y-2205837D01*
X1925929Y-2213102D01*
X1938121Y-2218537D01*
X1952091Y-2221992D01*
X1968093Y-2223109D01*
X1978863Y-2222652D01*
X1988769Y-2221230D01*
X1997913Y-2218842D01*
X2006193Y-2215489D01*
X2019858Y-2206345D01*
X2029815Y-2194153D01*
X2035911Y-2178862D01*
X2037943Y-2160879D01*
X2035911Y-2144268D01*
X2029815Y-2129383D01*
X2019655Y-2116937D01*
X2005939Y-2107539D01*
X1997760Y-2104085D01*
X1988718Y-2101646D01*
X1978812Y-2100173D01*
G37*
G36*
X1903069Y-2240889D02*
G01*
X1900986Y-2246782D01*
X1898446Y-2257755D01*
X1897583Y-2266137D01*
X1897481Y-2270607D01*
X1897684Y-2276094D01*
X1898446Y-2281275D01*
X1899615Y-2286254D01*
X1901291Y-2290927D01*
X1903628Y-2295245D01*
X1906676Y-2299055D01*
X1910384Y-2302357D01*
X1914753Y-2305151D01*
X1926031Y-2308961D01*
X1941169Y-2310231D01*
X2011781Y-2310231D01*
X2011781Y-2327249D01*
X2025497Y-2327249D01*
X2036419Y-2308199D01*
X2065375Y-2298293D01*
X2065375Y-2277211D01*
X2035403Y-2277211D01*
X2035403Y-2242159D01*
X2011781Y-2242159D01*
X2011781Y-2277211D01*
X1941423Y-2277211D01*
X1937004Y-2276957D01*
X1933244Y-2276144D01*
X1930044Y-2274773D01*
X1927453Y-2272893D01*
X1925421Y-2270556D01*
X1923999Y-2267813D01*
X1923135Y-2264714D01*
X1922881Y-2261209D01*
X1923135Y-2255774D01*
X1923897Y-2250541D01*
X1925015Y-2245614D01*
X1926437Y-2240889D01*
G37*
G36*
X2029561Y-2339187D02*
G01*
X2005177Y-2349347D01*
X2007768Y-2356002D01*
X2010003Y-2362809D01*
X2011527Y-2369566D01*
X2012035Y-2376525D01*
X2011730Y-2381300D01*
X2010765Y-2385669D01*
X2009190Y-2389682D01*
X2006955Y-2393289D01*
X2004212Y-2396439D01*
X2000859Y-2399182D01*
X1996846Y-2401620D01*
X1992223Y-2403703D01*
X1981047Y-2406396D01*
X1967331Y-2407259D01*
X1960372Y-2407056D01*
X1953971Y-2406396D01*
X1948180Y-2405278D01*
X1942947Y-2403703D01*
X1938426Y-2401620D01*
X1934514Y-2399233D01*
X1931162Y-2396439D01*
X1928469Y-2393289D01*
X1926234Y-2389682D01*
X1924659Y-2385771D01*
X1923694Y-2381453D01*
X1923389Y-2376779D01*
X1923542Y-2371953D01*
X1924100Y-2367280D01*
X1924964Y-2362809D01*
X1926183Y-2358491D01*
X1927707Y-2354376D01*
X1929485Y-2350363D01*
X1931517Y-2346502D01*
X1933803Y-2342743D01*
X1906625Y-2342743D01*
X1904339Y-2346655D01*
X1902409Y-2350719D01*
X1900783Y-2354884D01*
X1899513Y-2359253D01*
X1898599Y-2363825D01*
X1897583Y-2374341D01*
X1897481Y-2380335D01*
X1899310Y-2397709D01*
X1904847Y-2412593D01*
X1914245Y-2424734D01*
X1927707Y-2433675D01*
X1935886Y-2436926D01*
X1945182Y-2439212D01*
X1955546Y-2440584D01*
X1967077Y-2441041D01*
X1978964Y-2440533D01*
X1989683Y-2439009D01*
X1999284Y-2436469D01*
X2007717Y-2432913D01*
X2021179Y-2423261D01*
X2030577Y-2410561D01*
X2036114Y-2395270D01*
X2037943Y-2377795D01*
X2037791Y-2372055D01*
X2037283Y-2366568D01*
X2036521Y-2361285D01*
X2034184Y-2351328D01*
X2032812Y-2346858D01*
G37*
G36*
X1960473Y-2462631D02*
G01*
X1960473Y-2494127D01*
X1982571Y-2494127D01*
X1987143Y-2494330D01*
X1991461Y-2494838D01*
X1995525Y-2495702D01*
X1999335Y-2496921D01*
X2002688Y-2498496D01*
X2005685Y-2500426D01*
X2008276Y-2502712D01*
X2010511Y-2505303D01*
X2012391Y-2508199D01*
X2013762Y-2511399D01*
X2014524Y-2515057D01*
X2014829Y-2519019D01*
X2014321Y-2524252D01*
X2012797Y-2528976D01*
X2010257Y-2533294D01*
X2006701Y-2537053D01*
X1996592Y-2542540D01*
X1982571Y-2545181D01*
X1982571Y-2494127D01*
X1960473Y-2494127D01*
X1960473Y-2545689D01*
X1944014Y-2543149D01*
X1931771Y-2536545D01*
X1924354Y-2526131D01*
X1921865Y-2512161D01*
X1922018Y-2506218D01*
X1922475Y-2500579D01*
X1923288Y-2495194D01*
X1924405Y-2490063D01*
X1925828Y-2485085D01*
X1927555Y-2480056D01*
X1929638Y-2474925D01*
X1932025Y-2469743D01*
X1906879Y-2469743D01*
X1904593Y-2474518D01*
X1902663Y-2479395D01*
X1901037Y-2484424D01*
X1899767Y-2489555D01*
X1898751Y-2494940D01*
X1898040Y-2500934D01*
X1897634Y-2507538D01*
X1897481Y-2514701D01*
X1899361Y-2532684D01*
X1905101Y-2548483D01*
X1914702Y-2561437D01*
X1928215Y-2571343D01*
X1936445Y-2574899D01*
X1945589Y-2577439D01*
X1955749Y-2578963D01*
X1966823Y-2579471D01*
X1977948Y-2579014D01*
X1988159Y-2577642D01*
X1997506Y-2575356D01*
X2005939Y-2572105D01*
X2019757Y-2562961D01*
X2029815Y-2550769D01*
X2035911Y-2536240D01*
X2037943Y-2519527D01*
X2036114Y-2503220D01*
X2030577Y-2489301D01*
X2021687Y-2478227D01*
X2009749Y-2469743D01*
X1994560Y-2464409D01*
X1976475Y-2462631D01*
G37*
G36*
X1903069Y-2597505D02*
G01*
X1900986Y-2603398D01*
X1898446Y-2614371D01*
X1897583Y-2622600D01*
X1897481Y-2626969D01*
X1897684Y-2632456D01*
X1898446Y-2637637D01*
X1899615Y-2642616D01*
X1901291Y-2647289D01*
X1903628Y-2651607D01*
X1906676Y-2655417D01*
X1910384Y-2658719D01*
X1914753Y-2661513D01*
X1926031Y-2665526D01*
X1941169Y-2666847D01*
X2011781Y-2666847D01*
X2011781Y-2683611D01*
X2025497Y-2683611D01*
X2036419Y-2664815D01*
X2065375Y-2654655D01*
X2065375Y-2633827D01*
X2035403Y-2633827D01*
X2035403Y-2598775D01*
X2011781Y-2598775D01*
X2011781Y-2633827D01*
X1941423Y-2633827D01*
X1937004Y-2633573D01*
X1933244Y-2632710D01*
X1930044Y-2631287D01*
X1927453Y-2629255D01*
X1925421Y-2626918D01*
X1923999Y-2624226D01*
X1923135Y-2621229D01*
X1922881Y-2617825D01*
X1923135Y-2612390D01*
X1923897Y-2607157D01*
X1925015Y-2602230D01*
X1926437Y-2597505D01*
G37*
G36*
X1960473Y-2699105D02*
G01*
X1960473Y-2730855D01*
X1987143Y-2731008D01*
X1991461Y-2731516D01*
X1995525Y-2732278D01*
X1999335Y-2733395D01*
X2002688Y-2734970D01*
X2005685Y-2736900D01*
X2008276Y-2739186D01*
X2010511Y-2741777D01*
X2012391Y-2744673D01*
X2013762Y-2747873D01*
X2014524Y-2751531D01*
X2014829Y-2755493D01*
X2014321Y-2760726D01*
X2012797Y-2765450D01*
X2010257Y-2769768D01*
X2006701Y-2773527D01*
X1996592Y-2779014D01*
X1982571Y-2781655D01*
X1982571Y-2730855D01*
X1960473Y-2730855D01*
X1960473Y-2782163D01*
X1944014Y-2779623D01*
X1931771Y-2773019D01*
X1924354Y-2762605D01*
X1921865Y-2748635D01*
X1922018Y-2742692D01*
X1922475Y-2737002D01*
X1923288Y-2731668D01*
X1924405Y-2726537D01*
X1925828Y-2721559D01*
X1927555Y-2716530D01*
X1929638Y-2711399D01*
X1932025Y-2706217D01*
X1906879Y-2706217D01*
X1904593Y-2710992D01*
X1902663Y-2715869D01*
X1901037Y-2720898D01*
X1899767Y-2726029D01*
X1898751Y-2731414D01*
X1898040Y-2737408D01*
X1897634Y-2744012D01*
X1897481Y-2751175D01*
X1899361Y-2769158D01*
X1905101Y-2784957D01*
X1914702Y-2797911D01*
X1928215Y-2807817D01*
X1936445Y-2811373D01*
X1945589Y-2813913D01*
X1955749Y-2815437D01*
X1966823Y-2815945D01*
X1977948Y-2815488D01*
X1988159Y-2814116D01*
X1997506Y-2811830D01*
X2005939Y-2808579D01*
X2019757Y-2799435D01*
X2029815Y-2787243D01*
X2035911Y-2772714D01*
X2037943Y-2756001D01*
X2036114Y-2739694D01*
X2030577Y-2725775D01*
X2021687Y-2714650D01*
X2009749Y-2706217D01*
X1994560Y-2700883D01*
X1976475Y-2699105D01*
G37*
G36*
X1990953Y-2840837D02*
G01*
X1976577Y-2841498D01*
X1963369Y-2843479D01*
X1951431Y-2846730D01*
X1940661Y-2851251D01*
X1931212Y-2857195D01*
X1922983Y-2864307D01*
X1915972Y-2872536D01*
X1910181Y-2881985D01*
X1905711Y-2892501D01*
X1902561Y-2904032D01*
X1900631Y-2916529D01*
X1900021Y-2929991D01*
X1900021Y-2945485D01*
X1926691Y-2945485D01*
X1926691Y-2929229D01*
X1927656Y-2916529D01*
X1930704Y-2905556D01*
X1935683Y-2896311D01*
X1942693Y-2888843D01*
X1951532Y-2883103D01*
X1962353Y-2878937D01*
X1975154Y-2876499D01*
X1989937Y-2875635D01*
X2009343Y-2877108D01*
X2024989Y-2881477D01*
X2036927Y-2888386D01*
X2045309Y-2897987D01*
X2050237Y-2910433D01*
X2051913Y-2925419D01*
X2051913Y-2945485D01*
X1900021Y-2945485D01*
X1900021Y-2979013D01*
X2078583Y-2979013D01*
X2078583Y-2925165D01*
X2077923Y-2912516D01*
X2076043Y-2900781D01*
X2072843Y-2889961D01*
X2068423Y-2879953D01*
X2062886Y-2871012D01*
X2056180Y-2863138D01*
X2048256Y-2856382D01*
X2039213Y-2850743D01*
X2028850Y-2846425D01*
X2017369Y-2843326D01*
X2004720Y-2841447D01*
G37*
G36*
X2199995Y-1723542D02*
G01*
X2199995Y-1746656D01*
X2218791Y-1753260D01*
X2218791Y-1754276D01*
X2212086Y-1759864D01*
X2206599Y-1765452D01*
X2204364Y-1768449D01*
X2202434Y-1771650D01*
X2200808Y-1775053D01*
X2199487Y-1778660D01*
X2198282Y-1784756D01*
X2221331Y-1784756D01*
X2221839Y-1779117D01*
X2223312Y-1773885D01*
X2225751Y-1769059D01*
X2229205Y-1764690D01*
X2239010Y-1758594D01*
X2252573Y-1756562D01*
X2264003Y-1756562D01*
X2263495Y-1770786D01*
X2261362Y-1785823D01*
X2256383Y-1795424D01*
X2252929Y-1798523D01*
X2248916Y-1800758D01*
X2244293Y-1802079D01*
X2239111Y-1802536D01*
X2234742Y-1802231D01*
X2230983Y-1801317D01*
X2227884Y-1799793D01*
X2225395Y-1797710D01*
X2223617Y-1795068D01*
X2222347Y-1792020D01*
X2221585Y-1788617D01*
X2221331Y-1784756D01*
X2198282Y-1784756D01*
X2197608Y-1791563D01*
X2197455Y-1796694D01*
X2197760Y-1802231D01*
X2198624Y-1807464D01*
X2200046Y-1812391D01*
X2202027Y-1817014D01*
X2204618Y-1821230D01*
X2207768Y-1824989D01*
X2211476Y-1828342D01*
X2215743Y-1831238D01*
X2220772Y-1833575D01*
X2226360Y-1835251D01*
X2232558Y-1836216D01*
X2239365Y-1836572D01*
X2249271Y-1835657D01*
X2257856Y-1832914D01*
X2265121Y-1828393D01*
X2271115Y-1822094D01*
X2275840Y-1813915D01*
X2279396Y-1803857D01*
X2281682Y-1791919D01*
X2282799Y-1778152D01*
X2283561Y-1756816D01*
X2290165Y-1756816D01*
X2296210Y-1757121D01*
X2301290Y-1758137D01*
X2305456Y-1759813D01*
X2308707Y-1762150D01*
X2311146Y-1765096D01*
X2312924Y-1768551D01*
X2313940Y-1772564D01*
X2314295Y-1777136D01*
X2314143Y-1781708D01*
X2313533Y-1786280D01*
X2312619Y-1790852D01*
X2309672Y-1799945D01*
X2306116Y-1808835D01*
X2304135Y-1813204D01*
X2326233Y-1823618D01*
X2328773Y-1818386D01*
X2331008Y-1812798D01*
X2332939Y-1806956D01*
X2334615Y-1800758D01*
X2337104Y-1787855D01*
X2337917Y-1774088D01*
X2337206Y-1762506D01*
X2335072Y-1752346D01*
X2331516Y-1743710D01*
X2326487Y-1736496D01*
X2320086Y-1730806D01*
X2312009Y-1726742D01*
X2302306Y-1724355D01*
X2290927Y-1723542D01*
G37*
G36*
X2199995Y-1863750D02*
G01*
X2199995Y-1896516D01*
X2282291Y-1896516D01*
X2289352Y-1896821D01*
X2295448Y-1897786D01*
X2300630Y-1899361D01*
X2304897Y-1901596D01*
X2308250Y-1904339D01*
X2310638Y-1907895D01*
X2312060Y-1912112D01*
X2312517Y-1917090D01*
X2309876Y-1929384D01*
X2301849Y-1937410D01*
X2288590Y-1941982D01*
X2270607Y-1943506D01*
X2199995Y-1943506D01*
X2199995Y-1976526D01*
X2282291Y-1976526D01*
X2287066Y-1976678D01*
X2291435Y-1977085D01*
X2295448Y-1977796D01*
X2299055Y-1978812D01*
X2302205Y-1980082D01*
X2304897Y-1981606D01*
X2307285Y-1983384D01*
X2309215Y-1985416D01*
X2310688Y-1987753D01*
X2311704Y-1990496D01*
X2312314Y-1993595D01*
X2312517Y-1997100D01*
X2312212Y-2001774D01*
X2311196Y-2005990D01*
X2309520Y-2009648D01*
X2307183Y-2012848D01*
X2304237Y-2015439D01*
X2300579Y-2017674D01*
X2296363Y-2019503D01*
X2291435Y-2020976D01*
X2280107Y-2022652D01*
X2266289Y-2023262D01*
X2199995Y-2023262D01*
X2199995Y-2056536D01*
X2335377Y-2056536D01*
X2335377Y-2030882D01*
X2317851Y-2026310D01*
X2317851Y-2024786D01*
X2321153Y-2022754D01*
X2324150Y-2020468D01*
X2326843Y-2017928D01*
X2329281Y-2015134D01*
X2331415Y-2012238D01*
X2333244Y-2009139D01*
X2334717Y-2005888D01*
X2335885Y-2002434D01*
X2336800Y-1998776D01*
X2337816Y-1991055D01*
X2337917Y-1986940D01*
X2337612Y-1980082D01*
X2336647Y-1973834D01*
X2335072Y-1968144D01*
X2332837Y-1963064D01*
X2329942Y-1958492D01*
X2326386Y-1954530D01*
X2322068Y-1951126D01*
X2317089Y-1948332D01*
X2317089Y-1946554D01*
X2322220Y-1943100D01*
X2326589Y-1939188D01*
X2330196Y-1934718D01*
X2333091Y-1929790D01*
X2335225Y-1924608D01*
X2336749Y-1919173D01*
X2337612Y-1913534D01*
X2337917Y-1907692D01*
X2335022Y-1888489D01*
X2326233Y-1874672D01*
X2319477Y-1869897D01*
X2310892Y-1866493D01*
X2300427Y-1864410D01*
X2288133Y-1863750D01*
G37*
G36*
X2199995Y-2092096D02*
G01*
X2199995Y-2124862D01*
X2282291Y-2124862D01*
X2289352Y-2125167D01*
X2295448Y-2126030D01*
X2300630Y-2127554D01*
X2304897Y-2129688D01*
X2308250Y-2132533D01*
X2310638Y-2136089D01*
X2312060Y-2140305D01*
X2312517Y-2145182D01*
X2309876Y-2157526D01*
X2301849Y-2165756D01*
X2288590Y-2170328D01*
X2270607Y-2171852D01*
X2199995Y-2171852D01*
X2199995Y-2204872D01*
X2287066Y-2204974D01*
X2295448Y-2205990D01*
X2299055Y-2206904D01*
X2302205Y-2208174D01*
X2304897Y-2209698D01*
X2307285Y-2211476D01*
X2309215Y-2213508D01*
X2310688Y-2215946D01*
X2311704Y-2218690D01*
X2312314Y-2221788D01*
X2312517Y-2225192D01*
X2312212Y-2229967D01*
X2311196Y-2234184D01*
X2309520Y-2237841D01*
X2307183Y-2240940D01*
X2304237Y-2243632D01*
X2300579Y-2245868D01*
X2296363Y-2247696D01*
X2291435Y-2249068D01*
X2280107Y-2250948D01*
X2266289Y-2251608D01*
X2199995Y-2251608D01*
X2199995Y-2284882D01*
X2335377Y-2284882D01*
X2335377Y-2259228D01*
X2317851Y-2254402D01*
X2317851Y-2253132D01*
X2321153Y-2251100D01*
X2324150Y-2248814D01*
X2326843Y-2246274D01*
X2329281Y-2243480D01*
X2331415Y-2240483D01*
X2333244Y-2237333D01*
X2334717Y-2233980D01*
X2335885Y-2230526D01*
X2336800Y-2226919D01*
X2337816Y-2219248D01*
X2337917Y-2215286D01*
X2337612Y-2208428D01*
X2336647Y-2202180D01*
X2335072Y-2196490D01*
X2332837Y-2191410D01*
X2329942Y-2186838D01*
X2326386Y-2182825D01*
X2322068Y-2179370D01*
X2317089Y-2176424D01*
X2317089Y-2174646D01*
X2322220Y-2171293D01*
X2326589Y-2167483D01*
X2330196Y-2163064D01*
X2333091Y-2158136D01*
X2335225Y-2152853D01*
X2336749Y-2147366D01*
X2337612Y-2141778D01*
X2337917Y-2136038D01*
X2335022Y-2116734D01*
X2326233Y-2103018D01*
X2319477Y-2098243D01*
X2310892Y-2094788D01*
X2300427Y-2092756D01*
X2288133Y-2092096D01*
G37*
G36*
X2199995Y-2319934D02*
G01*
X2199995Y-2343302D01*
X2218791Y-2349652D01*
X2218791Y-2350668D01*
X2212086Y-2356307D01*
X2206599Y-2362098D01*
X2204364Y-2364994D01*
X2202434Y-2368143D01*
X2200808Y-2371445D01*
X2199487Y-2375052D01*
X2198289Y-2381148D01*
X2221331Y-2381148D01*
X2221839Y-2375509D01*
X2223312Y-2370328D01*
X2225751Y-2365603D01*
X2229205Y-2361336D01*
X2239010Y-2355037D01*
X2252573Y-2352954D01*
X2264003Y-2352954D01*
X2263495Y-2367178D01*
X2261362Y-2382266D01*
X2256383Y-2392070D01*
X2252929Y-2395067D01*
X2248916Y-2397201D01*
X2244293Y-2398471D01*
X2239111Y-2398928D01*
X2234742Y-2398623D01*
X2230983Y-2397709D01*
X2227884Y-2396185D01*
X2225395Y-2394102D01*
X2223617Y-2391460D01*
X2222347Y-2388463D01*
X2221585Y-2385009D01*
X2221331Y-2381148D01*
X2198289Y-2381148D01*
X2197608Y-2388108D01*
X2197455Y-2393340D01*
X2197760Y-2398776D01*
X2198624Y-2403957D01*
X2200046Y-2408783D01*
X2202027Y-2413406D01*
X2204618Y-2417724D01*
X2207768Y-2421585D01*
X2211476Y-2424988D01*
X2215743Y-2427884D01*
X2220772Y-2430068D01*
X2226360Y-2431694D01*
X2232558Y-2432659D01*
X2239365Y-2432964D01*
X2249271Y-2432050D01*
X2257856Y-2429357D01*
X2265121Y-2424785D01*
X2271115Y-2418486D01*
X2275840Y-2410307D01*
X2279396Y-2400300D01*
X2281682Y-2388463D01*
X2282799Y-2374798D01*
X2283561Y-2353208D01*
X2290165Y-2353208D01*
X2296210Y-2353513D01*
X2301290Y-2354529D01*
X2305456Y-2356205D01*
X2308707Y-2358542D01*
X2311146Y-2361590D01*
X2312924Y-2365146D01*
X2313940Y-2369210D01*
X2314295Y-2373782D01*
X2314143Y-2378252D01*
X2313533Y-2382723D01*
X2312619Y-2387244D01*
X2309672Y-2396337D01*
X2306116Y-2405380D01*
X2304135Y-2409850D01*
X2326233Y-2420010D01*
X2328773Y-2414879D01*
X2331008Y-2409393D01*
X2332939Y-2403551D01*
X2334615Y-2397404D01*
X2337104Y-2384298D01*
X2337917Y-2370480D01*
X2337206Y-2358999D01*
X2335072Y-2348890D01*
X2331516Y-2340152D01*
X2326487Y-2332888D01*
X2320086Y-2327198D01*
X2312009Y-2323134D01*
X2302306Y-2320747D01*
X2290927Y-2319934D01*
G37*
G36*
X2207107Y-2460142D02*
G01*
X2203043Y-2473706D01*
X2199995Y-2488082D01*
X2198116Y-2503881D01*
X2197455Y-2521356D01*
X2198116Y-2533345D01*
X2200148Y-2544470D01*
X2203450Y-2554681D01*
X2208123Y-2564028D01*
X2214168Y-2572512D01*
X2221433Y-2579878D01*
X2229815Y-2586228D01*
X2239365Y-2591460D01*
X2250236Y-2595676D01*
X2262174Y-2598674D01*
X2275230Y-2600502D01*
X2289403Y-2601112D01*
X2303018Y-2600452D01*
X2315667Y-2598470D01*
X2327300Y-2595219D01*
X2337917Y-2590698D01*
X2347620Y-2585008D01*
X2356154Y-2578150D01*
X2363520Y-2570175D01*
X2369667Y-2560980D01*
X2374696Y-2550668D01*
X2378252Y-2539238D01*
X2380386Y-2526792D01*
X2381097Y-2513228D01*
X2380335Y-2499258D01*
X2378049Y-2485796D01*
X2376525Y-2479446D01*
X2374696Y-2473350D01*
X2372563Y-2467508D01*
X2370175Y-2461920D01*
X2344013Y-2473350D01*
X2346096Y-2477668D01*
X2347976Y-2482240D01*
X2349652Y-2487066D01*
X2351125Y-2492146D01*
X2352344Y-2497378D01*
X2353259Y-2502712D01*
X2353767Y-2508199D01*
X2353919Y-2513736D01*
X2351989Y-2529382D01*
X2346045Y-2542438D01*
X2336342Y-2552700D01*
X2323439Y-2560218D01*
X2307437Y-2564790D01*
X2288895Y-2566314D01*
X2271115Y-2565044D01*
X2255367Y-2561234D01*
X2242312Y-2554579D01*
X2232507Y-2545232D01*
X2226411Y-2532837D01*
X2224379Y-2517546D01*
X2224887Y-2507640D01*
X2226564Y-2497378D01*
X2227681Y-2492400D01*
X2270607Y-2492400D01*
X2270607Y-2525420D01*
X2298039Y-2525420D01*
X2298039Y-2460142D01*
G37*
G36*
X2199995Y-2692552D02*
G01*
X2199995Y-2725826D01*
X2282037Y-2725826D01*
X2289200Y-2726131D01*
X2295398Y-2727096D01*
X2300630Y-2728671D01*
X2304897Y-2730906D01*
X2308250Y-2733903D01*
X2310638Y-2737713D01*
X2312060Y-2742184D01*
X2312517Y-2747416D01*
X2309571Y-2761488D01*
X2300579Y-2770276D01*
X2286050Y-2774848D01*
X2266289Y-2776372D01*
X2199995Y-2776372D01*
X2199995Y-2809392D01*
X2335377Y-2809392D01*
X2335377Y-2783992D01*
X2317851Y-2779166D01*
X2317851Y-2777642D01*
X2321153Y-2775559D01*
X2324150Y-2773222D01*
X2326843Y-2770632D01*
X2329281Y-2767736D01*
X2331415Y-2764485D01*
X2333244Y-2761132D01*
X2334717Y-2757627D01*
X2335885Y-2754020D01*
X2336800Y-2750159D01*
X2337816Y-2742285D01*
X2337917Y-2738272D01*
X2337206Y-2728163D01*
X2335022Y-2719222D01*
X2331364Y-2711399D01*
X2326233Y-2704744D01*
X2319477Y-2699410D01*
X2310892Y-2695600D01*
X2300427Y-2693314D01*
X2288133Y-2692552D01*
G37*
G36*
X2260447Y-2838094D02*
G01*
X2260447Y-2869590D01*
X2287117Y-2869742D01*
X2291435Y-2870200D01*
X2295499Y-2871012D01*
X2299309Y-2872130D01*
X2302713Y-2873705D01*
X2305659Y-2875584D01*
X2308301Y-2877870D01*
X2310485Y-2880512D01*
X2312365Y-2883458D01*
X2313736Y-2886710D01*
X2314549Y-2890316D01*
X2314803Y-2894228D01*
X2314295Y-2899460D01*
X2312771Y-2904185D01*
X2310231Y-2908452D01*
X2306675Y-2912262D01*
X2296617Y-2917850D01*
X2282545Y-2920390D01*
X2282545Y-2869590D01*
X2260447Y-2869590D01*
X2260447Y-2920898D01*
X2244039Y-2918409D01*
X2231745Y-2912008D01*
X2224328Y-2901594D01*
X2221839Y-2887624D01*
X2221992Y-2881528D01*
X2222500Y-2875788D01*
X2223262Y-2870352D01*
X2224379Y-2865272D01*
X2225802Y-2860344D01*
X2229612Y-2850184D01*
X2231999Y-2844952D01*
X2206853Y-2844952D01*
X2204618Y-2849778D01*
X2202688Y-2854706D01*
X2201062Y-2859684D01*
X2199741Y-2864764D01*
X2198065Y-2876143D01*
X2197455Y-2889910D01*
X2199386Y-2907893D01*
X2205075Y-2923692D01*
X2214676Y-2936646D01*
X2228189Y-2946552D01*
X2236419Y-2950108D01*
X2245614Y-2952648D01*
X2255723Y-2954172D01*
X2266797Y-2954680D01*
X2277922Y-2954223D01*
X2288133Y-2952851D01*
X2297480Y-2950514D01*
X2305913Y-2947314D01*
X2319782Y-2938221D01*
X2329789Y-2926232D01*
X2335885Y-2911500D01*
X2337917Y-2894736D01*
X2336088Y-2878378D01*
X2330551Y-2864510D01*
X2321661Y-2853385D01*
X2309723Y-2844952D01*
X2294585Y-2839770D01*
X2276449Y-2838094D01*
G37*
G36*
X2268067Y-2977286D02*
G01*
X2256993Y-2977642D01*
X2246833Y-2978810D01*
X2237536Y-2980690D01*
X2229205Y-2983382D01*
X2215438Y-2990951D01*
X2205583Y-3000908D01*
X2199487Y-3013151D01*
X2197455Y-3027070D01*
X2197608Y-3031490D01*
X2198186Y-3035960D01*
X2223109Y-3035960D01*
X2223465Y-3031947D01*
X2224532Y-3028238D01*
X2226259Y-3024936D01*
X2228697Y-3021990D01*
X2231796Y-3019399D01*
X2235454Y-3017164D01*
X2239670Y-3015335D01*
X2244445Y-3013862D01*
X2249779Y-3012643D01*
X2255570Y-3011779D01*
X2261819Y-3011220D01*
X2268575Y-3011068D01*
X2287117Y-3012592D01*
X2301087Y-3017164D01*
X2309672Y-3025140D01*
X2312517Y-3036468D01*
X2312263Y-3041040D01*
X2311450Y-3045155D01*
X2310079Y-3048812D01*
X2308199Y-3051962D01*
X2305659Y-3054654D01*
X2302560Y-3056991D01*
X2298903Y-3058871D01*
X2294737Y-3060344D01*
X2290013Y-3061309D01*
X2284679Y-3062020D01*
X2278684Y-3062478D01*
X2268321Y-3062630D01*
X2261362Y-3062478D01*
X2254961Y-3062020D01*
X2249068Y-3061309D01*
X2243683Y-3060344D01*
X2239010Y-3058972D01*
X2234946Y-3057144D01*
X2231390Y-3054908D01*
X2228443Y-3052216D01*
X2226106Y-3049016D01*
X2224481Y-3045206D01*
X2223465Y-3040888D01*
X2223109Y-3035960D01*
X2198186Y-3035960D01*
X2198878Y-3039465D01*
X2199995Y-3043072D01*
X2201468Y-3046374D01*
X2204923Y-3052216D01*
X2206853Y-3054756D01*
X2211120Y-3059125D01*
X2215743Y-3062630D01*
X2215743Y-3064408D01*
X2210917Y-3063697D01*
X2202840Y-3062884D01*
X2197506Y-3062630D01*
X2140051Y-3062630D01*
X2140051Y-3095904D01*
X2335377Y-3095904D01*
X2335377Y-3068980D01*
X2317597Y-3064408D01*
X2317597Y-3062630D01*
X2322931Y-3059074D01*
X2327757Y-3054502D01*
X2330043Y-3051860D01*
X2332024Y-3048965D01*
X2333701Y-3045866D01*
X2335123Y-3042564D01*
X2336342Y-3038856D01*
X2337257Y-3034893D01*
X2337765Y-3030575D01*
X2337917Y-3026054D01*
X2336850Y-3015437D01*
X2333548Y-3005988D01*
X2328062Y-2997657D01*
X2320391Y-2990494D01*
X2310485Y-2984703D01*
X2298446Y-2980588D01*
X2284323Y-2978099D01*
G37*
G36*
X2289403Y-3127400D02*
G01*
X2279345Y-3127705D01*
X2269744Y-3128670D01*
X2260549Y-3130245D01*
X2251811Y-3132480D01*
X2236216Y-3138525D01*
X2222855Y-3146958D01*
X2211933Y-3158134D01*
X2204059Y-3171850D01*
X2199132Y-3188106D01*
X2197455Y-3206902D01*
X2224633Y-3206902D01*
X2226614Y-3192830D01*
X2232507Y-3181756D01*
X2241905Y-3173374D01*
X2254859Y-3167532D01*
X2270760Y-3164078D01*
X2289403Y-3162960D01*
X2303729Y-3163620D01*
X2316429Y-3165551D01*
X2327452Y-3168802D01*
X2336901Y-3173374D01*
X2344470Y-3179267D01*
X2349855Y-3186734D01*
X2353106Y-3195878D01*
X2354173Y-3206648D01*
X2352294Y-3220923D01*
X2346553Y-3232302D01*
X2337054Y-3240836D01*
X2324201Y-3246780D01*
X2308301Y-3250184D01*
X2289403Y-3251352D01*
X2270760Y-3250184D01*
X2254859Y-3246780D01*
X2241905Y-3240836D01*
X2232507Y-3232302D01*
X2226614Y-3220974D01*
X2224633Y-3206902D01*
X2197455Y-3206902D01*
X2199132Y-3226054D01*
X2204059Y-3242462D01*
X2212086Y-3256178D01*
X2222855Y-3267354D01*
X2236266Y-3275787D01*
X2252065Y-3281832D01*
X2260803Y-3283915D01*
X2269998Y-3285439D01*
X2279599Y-3286353D01*
X2289657Y-3286658D01*
X2303170Y-3286099D01*
X2315718Y-3284474D01*
X2327300Y-3281781D01*
X2337917Y-3278022D01*
X2347671Y-3273145D01*
X2356205Y-3267151D01*
X2363673Y-3260039D01*
X2369921Y-3251860D01*
X2374950Y-3242360D01*
X2378506Y-3231642D01*
X2380640Y-3219754D01*
X2381351Y-3206648D01*
X2380640Y-3193745D01*
X2378506Y-3182061D01*
X2374950Y-3171545D01*
X2369921Y-3162198D01*
X2363673Y-3153968D01*
X2356205Y-3146907D01*
X2347671Y-3140913D01*
X2337917Y-3136036D01*
X2327198Y-3132226D01*
X2315514Y-3129534D01*
X2302916Y-3127908D01*
G37*
G36*
X1885950Y-1490726D02*
G01*
X1887118Y-1496923D01*
X1887118Y-1501089D01*
X1886508Y-1504137D01*
X1885188Y-1506626D01*
X1884121Y-1507693D01*
X1881124Y-1509268D01*
X1876856Y-1510233D01*
X1871218Y-1510538D01*
X1782064Y-1510538D01*
X1782064Y-1528318D01*
X1870710Y-1528318D01*
X1875891Y-1528114D01*
X1880565Y-1527454D01*
X1884680Y-1526336D01*
X1888236Y-1524762D01*
X1891436Y-1522933D01*
X1894128Y-1520748D01*
X1896364Y-1518259D01*
X1898142Y-1515364D01*
X1899462Y-1512214D01*
X1900428Y-1508810D01*
X1900986Y-1505204D01*
X1901139Y-1499666D01*
X1900529Y-1493824D01*
X1899920Y-1490726D01*
G37*
G36*
X1782064Y-1549654D02*
G01*
X1782064Y-1567180D01*
X1827022Y-1567180D01*
X1826920Y-1576324D01*
X1826158Y-1581302D01*
X1825498Y-1583436D01*
X1824482Y-1585264D01*
X1821840Y-1588312D01*
X1820164Y-1589532D01*
X1818386Y-1590395D01*
X1816303Y-1591056D01*
X1811274Y-1591564D01*
X1807616Y-1591310D01*
X1804466Y-1590598D01*
X1801875Y-1589430D01*
X1799843Y-1587754D01*
X1798167Y-1585569D01*
X1796999Y-1582877D01*
X1796288Y-1579626D01*
X1796034Y-1575816D01*
X1796034Y-1567180D01*
X1782064Y-1567180D01*
X1782064Y-1576324D01*
X1783943Y-1591056D01*
X1789684Y-1601216D01*
X1793849Y-1604670D01*
X1798726Y-1607108D01*
X1804263Y-1608582D01*
X1810512Y-1609090D01*
X1814423Y-1608886D01*
X1818182Y-1608328D01*
X1821891Y-1607362D01*
X1825498Y-1606042D01*
X1828749Y-1604264D01*
X1831695Y-1601927D01*
X1834337Y-1599031D01*
X1836674Y-1595628D01*
X1838452Y-1591614D01*
X1839722Y-1586890D01*
X1840484Y-1581454D01*
X1840738Y-1575308D01*
X1840738Y-1567180D01*
X1875028Y-1567180D01*
X1875028Y-1549654D01*
G37*
G36*
X1804416Y-1622552D02*
G01*
X1782064Y-1649730D01*
X1782064Y-1664462D01*
X1875028Y-1664462D01*
X1875028Y-1647189D01*
X1808225Y-1647240D01*
X1805178Y-1647443D01*
X1799589Y-1647443D01*
X1805279Y-1641957D01*
X1814575Y-1631442D01*
G37*
D10*
X7238984Y-4317992D02*
G01*
X7238984Y-4902189D01*
X7213584Y-4317992D02*
G01*
X7213584Y-4902189D01*
X7238984Y-685797D02*
G01*
X7238984Y-101600D01*
X7213584Y-685797D02*
G01*
X7213584Y-101600D01*
D11*
X1928876Y-1450936D02*
G01*
X1928876Y-1662076D01*
X2070635Y-1662076D02*
G01*
X2070635Y-1451025D01*
G75*
G01*
X1959356Y-1682077D02*
G02*
X1929356Y-1662077I-5007J24990D01*
G75*
G01*
X1928876Y-1450937D02*
G02*
X1958876Y-1430937I24993J-4990D01*
G75*
G01*
X2040636Y-1682077D02*
G03*
X2070636Y-1662077I5007J24990D01*
G75*
G01*
X2070877Y-1451026D02*
G03*
X2040877Y-1431026I-24987J-4981D01*
M02*
