G04 Layer: BottomLayer*
G04 EasyEDA v6.4.31, 2022-02-22 16:37:49*
G04 daaedd2a32134c9ca592902a83472a49,9a5be75d700b4a6385dc1106f27949ae,10*
G04 Gerber Generator version 0.2*
G04 Scale: 100 percent, Rotated: No, Reflected: No *
G04 Dimensions in millimeters *
G04 leading zeros omitted , absolute positions ,4 integer and 5 decimal *
%FSLAX45Y45*%
%MOMM*%

%ADD10C,0.2540*%
%ADD11C,0.4000*%
%ADD15C,0.8000*%
%ADD16C,0.6096*%
%ADD17C,0.6100*%
%ADD31C,1.5240*%
%ADD32R,1.5240X1.5240*%
%ADD33R,1.5748X1.5748*%
%ADD34R,1.7000X1.7000*%
%ADD35C,1.7000*%

%LPD*%
G36*
X747268Y-14769592D02*
G01*
X743356Y-14768830D01*
X740105Y-14766594D01*
X737870Y-14763343D01*
X737108Y-14759432D01*
X737108Y-8926068D01*
X737870Y-8922156D01*
X740105Y-8918905D01*
X743356Y-8916670D01*
X747268Y-8915908D01*
X6821931Y-8915908D01*
X6825843Y-8916670D01*
X6829094Y-8918905D01*
X6831330Y-8922156D01*
X6832092Y-8926068D01*
X6832092Y-14759432D01*
X6831330Y-14763343D01*
X6829094Y-14766594D01*
X6825843Y-14768830D01*
X6821931Y-14769592D01*
G37*

%LPC*%
G36*
X1020876Y-14678863D02*
G01*
X1040231Y-14677440D01*
X1059332Y-14674189D01*
X1078077Y-14669058D01*
X1096213Y-14662200D01*
X1113637Y-14653564D01*
X1130147Y-14643354D01*
X1145540Y-14631568D01*
X1159764Y-14618309D01*
X1172616Y-14603780D01*
X1184046Y-14588083D01*
X1193901Y-14571370D01*
X1202080Y-14553742D01*
X1208532Y-14535454D01*
X1213154Y-14516607D01*
X1215948Y-14497405D01*
X1216914Y-14478000D01*
X1215948Y-14458594D01*
X1213154Y-14439392D01*
X1208532Y-14420545D01*
X1202080Y-14402257D01*
X1193901Y-14384629D01*
X1184046Y-14367916D01*
X1172616Y-14352219D01*
X1159764Y-14337690D01*
X1145540Y-14324431D01*
X1130147Y-14312646D01*
X1113637Y-14302435D01*
X1096213Y-14293799D01*
X1078077Y-14286941D01*
X1059332Y-14281861D01*
X1040231Y-14278559D01*
X1020876Y-14277136D01*
X1001471Y-14277644D01*
X982167Y-14279981D01*
X963218Y-14284147D01*
X944778Y-14290141D01*
X926947Y-14297913D01*
X909980Y-14307362D01*
X894029Y-14318386D01*
X879195Y-14330883D01*
X865632Y-14344802D01*
X853490Y-14359940D01*
X842822Y-14376146D01*
X833831Y-14393367D01*
X826516Y-14411299D01*
X820928Y-14429943D01*
X817219Y-14448993D01*
X815340Y-14468297D01*
X815340Y-14487702D01*
X817219Y-14507006D01*
X820928Y-14526056D01*
X826516Y-14544700D01*
X833831Y-14562683D01*
X842822Y-14579854D01*
X853490Y-14596059D01*
X865632Y-14611197D01*
X879195Y-14625116D01*
X894029Y-14637613D01*
X909980Y-14648637D01*
X926947Y-14658086D01*
X944778Y-14665858D01*
X963218Y-14671852D01*
X982167Y-14676018D01*
X1001471Y-14678355D01*
G37*
G36*
X6545376Y-14678863D02*
G01*
X6564731Y-14677440D01*
X6583832Y-14674189D01*
X6602577Y-14669058D01*
X6620713Y-14662200D01*
X6638137Y-14653564D01*
X6654647Y-14643354D01*
X6670040Y-14631568D01*
X6684264Y-14618309D01*
X6697116Y-14603780D01*
X6708546Y-14588083D01*
X6718401Y-14571370D01*
X6726580Y-14553742D01*
X6733031Y-14535454D01*
X6737654Y-14516607D01*
X6740448Y-14497405D01*
X6741414Y-14478000D01*
X6740448Y-14458594D01*
X6737654Y-14439392D01*
X6733031Y-14420545D01*
X6726580Y-14402257D01*
X6718401Y-14384629D01*
X6708546Y-14367916D01*
X6697116Y-14352219D01*
X6684264Y-14337690D01*
X6670040Y-14324431D01*
X6654647Y-14312646D01*
X6638137Y-14302435D01*
X6620713Y-14293799D01*
X6602577Y-14286941D01*
X6583832Y-14281861D01*
X6564731Y-14278559D01*
X6545376Y-14277136D01*
X6525971Y-14277644D01*
X6506667Y-14279981D01*
X6487718Y-14284147D01*
X6469278Y-14290141D01*
X6451447Y-14297913D01*
X6434480Y-14307362D01*
X6418529Y-14318386D01*
X6403695Y-14330883D01*
X6390132Y-14344802D01*
X6377990Y-14359940D01*
X6367322Y-14376146D01*
X6358331Y-14393367D01*
X6351016Y-14411299D01*
X6345428Y-14429943D01*
X6341719Y-14448993D01*
X6339840Y-14468297D01*
X6339840Y-14487702D01*
X6341719Y-14507006D01*
X6345428Y-14526056D01*
X6351016Y-14544700D01*
X6358331Y-14562683D01*
X6367322Y-14579854D01*
X6377990Y-14596059D01*
X6390132Y-14611197D01*
X6403695Y-14625116D01*
X6418529Y-14637613D01*
X6434480Y-14648637D01*
X6451447Y-14658086D01*
X6469278Y-14665858D01*
X6487718Y-14671852D01*
X6506667Y-14676018D01*
X6525971Y-14678355D01*
G37*
G36*
X4874818Y-14074648D02*
G01*
X5031181Y-14074648D01*
X5037480Y-14073936D01*
X5042966Y-14072006D01*
X5047843Y-14068958D01*
X5051958Y-14064843D01*
X5055006Y-14059966D01*
X5056936Y-14054480D01*
X5057648Y-14048181D01*
X5057648Y-13891818D01*
X5056936Y-13885519D01*
X5055006Y-13880033D01*
X5051958Y-13875156D01*
X5047843Y-13871041D01*
X5042966Y-13867993D01*
X5037480Y-13866063D01*
X5031181Y-13865351D01*
X4874818Y-13865351D01*
X4868519Y-13866063D01*
X4863033Y-13867993D01*
X4858156Y-13871041D01*
X4854041Y-13875156D01*
X4850993Y-13880033D01*
X4849063Y-13885519D01*
X4848352Y-13891818D01*
X4848352Y-14048181D01*
X4849063Y-14054480D01*
X4850993Y-14059966D01*
X4854041Y-14064843D01*
X4858156Y-14068958D01*
X4863033Y-14072006D01*
X4868519Y-14073936D01*
G37*
G36*
X4034790Y-13881557D02*
G01*
X4048404Y-13880642D01*
X4061764Y-13877950D01*
X4074668Y-13873480D01*
X4086809Y-13867333D01*
X4098036Y-13859611D01*
X4108196Y-13850467D01*
X4116984Y-13840053D01*
X4124299Y-13828572D01*
X4130040Y-13816177D01*
X4134104Y-13803172D01*
X4136339Y-13789710D01*
X4136796Y-13776096D01*
X4135475Y-13762532D01*
X4132275Y-13749223D01*
X4127398Y-13736523D01*
X4120845Y-13724534D01*
X4112768Y-13713561D01*
X4103268Y-13703757D01*
X4092549Y-13695324D01*
X4080814Y-13688364D01*
X4068267Y-13683030D01*
X4055110Y-13679424D01*
X4041597Y-13677646D01*
X4027982Y-13677646D01*
X4014470Y-13679424D01*
X4001312Y-13683030D01*
X3988765Y-13688364D01*
X3977030Y-13695324D01*
X3966311Y-13703757D01*
X3956812Y-13713561D01*
X3948734Y-13724534D01*
X3942181Y-13736523D01*
X3937304Y-13749223D01*
X3934104Y-13762532D01*
X3932783Y-13776096D01*
X3933240Y-13789710D01*
X3935476Y-13803172D01*
X3939540Y-13816177D01*
X3945280Y-13828572D01*
X3952595Y-13840053D01*
X3961384Y-13850467D01*
X3971544Y-13859611D01*
X3982770Y-13867333D01*
X3994912Y-13873480D01*
X4007815Y-13877950D01*
X4021175Y-13880642D01*
G37*
G36*
X4034790Y-13627557D02*
G01*
X4048404Y-13626642D01*
X4061764Y-13623950D01*
X4074668Y-13619480D01*
X4086809Y-13613333D01*
X4098036Y-13605611D01*
X4108196Y-13596467D01*
X4116984Y-13586053D01*
X4124299Y-13574572D01*
X4130040Y-13562177D01*
X4134104Y-13549172D01*
X4136339Y-13535710D01*
X4136796Y-13522096D01*
X4135475Y-13508532D01*
X4132275Y-13495223D01*
X4127398Y-13482523D01*
X4120845Y-13470534D01*
X4112768Y-13459561D01*
X4103268Y-13449757D01*
X4092549Y-13441324D01*
X4080814Y-13434364D01*
X4068267Y-13429030D01*
X4055110Y-13425424D01*
X4041597Y-13423646D01*
X4027982Y-13423646D01*
X4014470Y-13425424D01*
X4001312Y-13429030D01*
X3988765Y-13434364D01*
X3977030Y-13441324D01*
X3966311Y-13449757D01*
X3956812Y-13459561D01*
X3948734Y-13470534D01*
X3942181Y-13482523D01*
X3937304Y-13495223D01*
X3934104Y-13508532D01*
X3932783Y-13522096D01*
X3933240Y-13535710D01*
X3935476Y-13549172D01*
X3939540Y-13562177D01*
X3945280Y-13574572D01*
X3952595Y-13586053D01*
X3961384Y-13596467D01*
X3971544Y-13605611D01*
X3982770Y-13613333D01*
X3994912Y-13619480D01*
X4007815Y-13623950D01*
X4021175Y-13626642D01*
G37*
G36*
X4034790Y-13373557D02*
G01*
X4048404Y-13372642D01*
X4061764Y-13369950D01*
X4074668Y-13365480D01*
X4086809Y-13359333D01*
X4098036Y-13351611D01*
X4108196Y-13342467D01*
X4116984Y-13332053D01*
X4124299Y-13320572D01*
X4130040Y-13308177D01*
X4134104Y-13295172D01*
X4136339Y-13281710D01*
X4136796Y-13268096D01*
X4135475Y-13254532D01*
X4132275Y-13241223D01*
X4127398Y-13228523D01*
X4120845Y-13216534D01*
X4112768Y-13205561D01*
X4103268Y-13195757D01*
X4092549Y-13187324D01*
X4080814Y-13180364D01*
X4068267Y-13175030D01*
X4055110Y-13171424D01*
X4041597Y-13169646D01*
X4027982Y-13169646D01*
X4014470Y-13171424D01*
X4001312Y-13175030D01*
X3988765Y-13180364D01*
X3977030Y-13187324D01*
X3966311Y-13195757D01*
X3956812Y-13205561D01*
X3948734Y-13216534D01*
X3942181Y-13228523D01*
X3937304Y-13241223D01*
X3934104Y-13254532D01*
X3932783Y-13268096D01*
X3933240Y-13281710D01*
X3935476Y-13295172D01*
X3939540Y-13308177D01*
X3945280Y-13320572D01*
X3952595Y-13332053D01*
X3961384Y-13342467D01*
X3971544Y-13351611D01*
X3982770Y-13359333D01*
X3994912Y-13365480D01*
X4007815Y-13369950D01*
X4021175Y-13372642D01*
G37*
G36*
X5446318Y-13312648D02*
G01*
X5478780Y-13312648D01*
X5478780Y-13253719D01*
X5419852Y-13253719D01*
X5419852Y-13286181D01*
X5420563Y-13292480D01*
X5422493Y-13297966D01*
X5425541Y-13302843D01*
X5429656Y-13306958D01*
X5434533Y-13310006D01*
X5440019Y-13311936D01*
G37*
G36*
X5570220Y-13312648D02*
G01*
X5602681Y-13312648D01*
X5608980Y-13311936D01*
X5614466Y-13310006D01*
X5619343Y-13306958D01*
X5623458Y-13302843D01*
X5626506Y-13297966D01*
X5628436Y-13292480D01*
X5629148Y-13286181D01*
X5629148Y-13253719D01*
X5570220Y-13253719D01*
G37*
G36*
X5419852Y-13162280D02*
G01*
X5478780Y-13162280D01*
X5478780Y-13103352D01*
X5446318Y-13103352D01*
X5440019Y-13104063D01*
X5434533Y-13105993D01*
X5429656Y-13109041D01*
X5425541Y-13113156D01*
X5422493Y-13118033D01*
X5420563Y-13123519D01*
X5419852Y-13129818D01*
G37*
G36*
X5570220Y-13162280D02*
G01*
X5629148Y-13162280D01*
X5629148Y-13129818D01*
X5628436Y-13123519D01*
X5626506Y-13118033D01*
X5623458Y-13113156D01*
X5619343Y-13109041D01*
X5614466Y-13105993D01*
X5608980Y-13104063D01*
X5602681Y-13103352D01*
X5570220Y-13103352D01*
G37*
G36*
X3981450Y-12802108D02*
G01*
X4012641Y-12802108D01*
X4018940Y-12801396D01*
X4024426Y-12799466D01*
X4029303Y-12796418D01*
X4033418Y-12792303D01*
X4036466Y-12787426D01*
X4038396Y-12781940D01*
X4039108Y-12775641D01*
X4039108Y-12744450D01*
X3981450Y-12744450D01*
G37*
G36*
X2711450Y-12802108D02*
G01*
X2742641Y-12802108D01*
X2748940Y-12801396D01*
X2754426Y-12799466D01*
X2759303Y-12796418D01*
X2763418Y-12792303D01*
X2766466Y-12787426D01*
X2768396Y-12781940D01*
X2769108Y-12775641D01*
X2769108Y-12744450D01*
X2711450Y-12744450D01*
G37*
G36*
X2591358Y-12802108D02*
G01*
X2622550Y-12802108D01*
X2622550Y-12744450D01*
X2564892Y-12744450D01*
X2564892Y-12775641D01*
X2565603Y-12781940D01*
X2567533Y-12787426D01*
X2570581Y-12792303D01*
X2574696Y-12796418D01*
X2579573Y-12799466D01*
X2585059Y-12801396D01*
G37*
G36*
X3861358Y-12802108D02*
G01*
X3892550Y-12802108D01*
X3892550Y-12744450D01*
X3834892Y-12744450D01*
X3834892Y-12775641D01*
X3835603Y-12781940D01*
X3837533Y-12787426D01*
X3840581Y-12792303D01*
X3844696Y-12796418D01*
X3849573Y-12799466D01*
X3855059Y-12801396D01*
G37*
G36*
X5131358Y-12802108D02*
G01*
X5162550Y-12802108D01*
X5162550Y-12744450D01*
X5104892Y-12744450D01*
X5104892Y-12775641D01*
X5105603Y-12781940D01*
X5107533Y-12787426D01*
X5110581Y-12792303D01*
X5114696Y-12796418D01*
X5119573Y-12799466D01*
X5125059Y-12801396D01*
G37*
G36*
X1441450Y-12802108D02*
G01*
X1472641Y-12802108D01*
X1478940Y-12801396D01*
X1484426Y-12799466D01*
X1489303Y-12796418D01*
X1493418Y-12792303D01*
X1496466Y-12787426D01*
X1498396Y-12781940D01*
X1499108Y-12775641D01*
X1499108Y-12744450D01*
X1441450Y-12744450D01*
G37*
G36*
X5251450Y-12802108D02*
G01*
X5282641Y-12802108D01*
X5288940Y-12801396D01*
X5294426Y-12799466D01*
X5299303Y-12796418D01*
X5303418Y-12792303D01*
X5306466Y-12787426D01*
X5308396Y-12781940D01*
X5309108Y-12775641D01*
X5309108Y-12744450D01*
X5251450Y-12744450D01*
G37*
G36*
X1321358Y-12802108D02*
G01*
X1352550Y-12802108D01*
X1352550Y-12744450D01*
X1294892Y-12744450D01*
X1294892Y-12775641D01*
X1295603Y-12781940D01*
X1297533Y-12787426D01*
X1300581Y-12792303D01*
X1304696Y-12796418D01*
X1309573Y-12799466D01*
X1315059Y-12801396D01*
G37*
G36*
X4692192Y-12801854D02*
G01*
X4705807Y-12801854D01*
X4719320Y-12800025D01*
X4732477Y-12796418D01*
X4745024Y-12791135D01*
X4756759Y-12784175D01*
X4767478Y-12775692D01*
X4776978Y-12765887D01*
X4785055Y-12754914D01*
X4791608Y-12742976D01*
X4796485Y-12730226D01*
X4799685Y-12716967D01*
X4801006Y-12703403D01*
X4800549Y-12689789D01*
X4798314Y-12676327D01*
X4794250Y-12663322D01*
X4788509Y-12650927D01*
X4781194Y-12639446D01*
X4772406Y-12629032D01*
X4762246Y-12619888D01*
X4751019Y-12612166D01*
X4738878Y-12606020D01*
X4725974Y-12601549D01*
X4712614Y-12598806D01*
X4699000Y-12597892D01*
X4685385Y-12598806D01*
X4672025Y-12601549D01*
X4659122Y-12606020D01*
X4646980Y-12612166D01*
X4635754Y-12619888D01*
X4625594Y-12629032D01*
X4616805Y-12639446D01*
X4609490Y-12650927D01*
X4603750Y-12663322D01*
X4599686Y-12676327D01*
X4597450Y-12689789D01*
X4596993Y-12703403D01*
X4598314Y-12716967D01*
X4601514Y-12730226D01*
X4606391Y-12742976D01*
X4612944Y-12754914D01*
X4621022Y-12765887D01*
X4630521Y-12775692D01*
X4641240Y-12784175D01*
X4652975Y-12791135D01*
X4665522Y-12796418D01*
X4678680Y-12800025D01*
G37*
G36*
X4184192Y-12801854D02*
G01*
X4197807Y-12801854D01*
X4211320Y-12800025D01*
X4224477Y-12796418D01*
X4237024Y-12791135D01*
X4248759Y-12784175D01*
X4259478Y-12775692D01*
X4268978Y-12765887D01*
X4277055Y-12754914D01*
X4283608Y-12742976D01*
X4288485Y-12730226D01*
X4291685Y-12716967D01*
X4293006Y-12703403D01*
X4292549Y-12689789D01*
X4290314Y-12676327D01*
X4286250Y-12663322D01*
X4280509Y-12650927D01*
X4273194Y-12639446D01*
X4264406Y-12629032D01*
X4254246Y-12619888D01*
X4243019Y-12612166D01*
X4230878Y-12606020D01*
X4217974Y-12601549D01*
X4204614Y-12598806D01*
X4191000Y-12597892D01*
X4177385Y-12598806D01*
X4164025Y-12601549D01*
X4151122Y-12606020D01*
X4138980Y-12612166D01*
X4127754Y-12619888D01*
X4117594Y-12629032D01*
X4108805Y-12639446D01*
X4101490Y-12650927D01*
X4095750Y-12663322D01*
X4091686Y-12676327D01*
X4089450Y-12689789D01*
X4088993Y-12703403D01*
X4090314Y-12716967D01*
X4093514Y-12730226D01*
X4098391Y-12742976D01*
X4104944Y-12754914D01*
X4113022Y-12765887D01*
X4122521Y-12775692D01*
X4133240Y-12784175D01*
X4144975Y-12791135D01*
X4157522Y-12796418D01*
X4170679Y-12800025D01*
G37*
G36*
X2914192Y-12801854D02*
G01*
X2927807Y-12801854D01*
X2941320Y-12800025D01*
X2954477Y-12796418D01*
X2967024Y-12791135D01*
X2978759Y-12784175D01*
X2989478Y-12775692D01*
X2998978Y-12765887D01*
X3007055Y-12754914D01*
X3013608Y-12742976D01*
X3018485Y-12730226D01*
X3021685Y-12716967D01*
X3023006Y-12703403D01*
X3022549Y-12689789D01*
X3020314Y-12676327D01*
X3016250Y-12663322D01*
X3010509Y-12650927D01*
X3003194Y-12639446D01*
X2994406Y-12629032D01*
X2984246Y-12619888D01*
X2973019Y-12612166D01*
X2960878Y-12606020D01*
X2947974Y-12601549D01*
X2934614Y-12598806D01*
X2921000Y-12597892D01*
X2907385Y-12598806D01*
X2894025Y-12601549D01*
X2881122Y-12606020D01*
X2868980Y-12612166D01*
X2857754Y-12619888D01*
X2847594Y-12629032D01*
X2838805Y-12639446D01*
X2831490Y-12650927D01*
X2825750Y-12663322D01*
X2821686Y-12676327D01*
X2819450Y-12689789D01*
X2818993Y-12703403D01*
X2820314Y-12716967D01*
X2823514Y-12730226D01*
X2828391Y-12742976D01*
X2834944Y-12754914D01*
X2843022Y-12765887D01*
X2852521Y-12775692D01*
X2863240Y-12784175D01*
X2874975Y-12791135D01*
X2887522Y-12796418D01*
X2900680Y-12800025D01*
G37*
G36*
X2152192Y-12801854D02*
G01*
X2165807Y-12801854D01*
X2179320Y-12800025D01*
X2192477Y-12796418D01*
X2205024Y-12791135D01*
X2216759Y-12784175D01*
X2227478Y-12775692D01*
X2236978Y-12765887D01*
X2245055Y-12754914D01*
X2251608Y-12742976D01*
X2256485Y-12730226D01*
X2259685Y-12716967D01*
X2261006Y-12703403D01*
X2260549Y-12689789D01*
X2258314Y-12676327D01*
X2254250Y-12663322D01*
X2248509Y-12650927D01*
X2241194Y-12639446D01*
X2232406Y-12629032D01*
X2222246Y-12619888D01*
X2211019Y-12612166D01*
X2198878Y-12606020D01*
X2185974Y-12601549D01*
X2172614Y-12598806D01*
X2159000Y-12597892D01*
X2145385Y-12598806D01*
X2132025Y-12601549D01*
X2119122Y-12606020D01*
X2106980Y-12612166D01*
X2095754Y-12619888D01*
X2085593Y-12629032D01*
X2076805Y-12639446D01*
X2069490Y-12650927D01*
X2063750Y-12663322D01*
X2059686Y-12676327D01*
X2057450Y-12689789D01*
X2056993Y-12703403D01*
X2058314Y-12716967D01*
X2061514Y-12730226D01*
X2066391Y-12742976D01*
X2072944Y-12754914D01*
X2081022Y-12765887D01*
X2090521Y-12775692D01*
X2101240Y-12784175D01*
X2112975Y-12791135D01*
X2125522Y-12796418D01*
X2138680Y-12800025D01*
G37*
G36*
X3676192Y-12801854D02*
G01*
X3689807Y-12801854D01*
X3703320Y-12800025D01*
X3716477Y-12796418D01*
X3729024Y-12791135D01*
X3740759Y-12784175D01*
X3751478Y-12775692D01*
X3760978Y-12765887D01*
X3769055Y-12754914D01*
X3775608Y-12742976D01*
X3780485Y-12730226D01*
X3783685Y-12716967D01*
X3785006Y-12703403D01*
X3784549Y-12689789D01*
X3782314Y-12676327D01*
X3778250Y-12663322D01*
X3772509Y-12650927D01*
X3765194Y-12639446D01*
X3756406Y-12629032D01*
X3746246Y-12619888D01*
X3735019Y-12612166D01*
X3722878Y-12606020D01*
X3709974Y-12601549D01*
X3696614Y-12598806D01*
X3683000Y-12597892D01*
X3669385Y-12598806D01*
X3656025Y-12601549D01*
X3643122Y-12606020D01*
X3630980Y-12612166D01*
X3619754Y-12619888D01*
X3609594Y-12629032D01*
X3600805Y-12639446D01*
X3593490Y-12650927D01*
X3587750Y-12663322D01*
X3583686Y-12676327D01*
X3581450Y-12689789D01*
X3580993Y-12703403D01*
X3582314Y-12716967D01*
X3585514Y-12730226D01*
X3590391Y-12742976D01*
X3596944Y-12754914D01*
X3605022Y-12765887D01*
X3614521Y-12775692D01*
X3625240Y-12784175D01*
X3636975Y-12791135D01*
X3649522Y-12796418D01*
X3662679Y-12800025D01*
G37*
G36*
X2406192Y-12801854D02*
G01*
X2419807Y-12801854D01*
X2433320Y-12800025D01*
X2446477Y-12796418D01*
X2459024Y-12791135D01*
X2470759Y-12784175D01*
X2481478Y-12775692D01*
X2490978Y-12765887D01*
X2499055Y-12754914D01*
X2505608Y-12742976D01*
X2510485Y-12730226D01*
X2513685Y-12716967D01*
X2515006Y-12703403D01*
X2514549Y-12689789D01*
X2512314Y-12676327D01*
X2508250Y-12663322D01*
X2502509Y-12650927D01*
X2495194Y-12639446D01*
X2486406Y-12629032D01*
X2476246Y-12619888D01*
X2465019Y-12612166D01*
X2452878Y-12606020D01*
X2439974Y-12601549D01*
X2426614Y-12598806D01*
X2413000Y-12597892D01*
X2399385Y-12598806D01*
X2386025Y-12601549D01*
X2373122Y-12606020D01*
X2360980Y-12612166D01*
X2349754Y-12619888D01*
X2339594Y-12629032D01*
X2330805Y-12639446D01*
X2323490Y-12650927D01*
X2317750Y-12663322D01*
X2313686Y-12676327D01*
X2311450Y-12689789D01*
X2310993Y-12703403D01*
X2312314Y-12716967D01*
X2315514Y-12730226D01*
X2320391Y-12742976D01*
X2326944Y-12754914D01*
X2335022Y-12765887D01*
X2344521Y-12775692D01*
X2355240Y-12784175D01*
X2366975Y-12791135D01*
X2379522Y-12796418D01*
X2392680Y-12800025D01*
G37*
G36*
X4438192Y-12801854D02*
G01*
X4451807Y-12801854D01*
X4465320Y-12800025D01*
X4478477Y-12796418D01*
X4491024Y-12791135D01*
X4502759Y-12784175D01*
X4513478Y-12775692D01*
X4522978Y-12765887D01*
X4531055Y-12754914D01*
X4537608Y-12742976D01*
X4542485Y-12730226D01*
X4545685Y-12716967D01*
X4547006Y-12703403D01*
X4546549Y-12689789D01*
X4544314Y-12676327D01*
X4540250Y-12663322D01*
X4534509Y-12650927D01*
X4527194Y-12639446D01*
X4518406Y-12629032D01*
X4508246Y-12619888D01*
X4497019Y-12612166D01*
X4484878Y-12606020D01*
X4471974Y-12601549D01*
X4458614Y-12598806D01*
X4445000Y-12597892D01*
X4431385Y-12598806D01*
X4418025Y-12601549D01*
X4405122Y-12606020D01*
X4392980Y-12612166D01*
X4381754Y-12619888D01*
X4371594Y-12629032D01*
X4362805Y-12639446D01*
X4355490Y-12650927D01*
X4349750Y-12663322D01*
X4345686Y-12676327D01*
X4343450Y-12689789D01*
X4342993Y-12703403D01*
X4344314Y-12716967D01*
X4347514Y-12730226D01*
X4352391Y-12742976D01*
X4358944Y-12754914D01*
X4367022Y-12765887D01*
X4376521Y-12775692D01*
X4387240Y-12784175D01*
X4398975Y-12791135D01*
X4411522Y-12796418D01*
X4424680Y-12800025D01*
G37*
G36*
X5454192Y-12801854D02*
G01*
X5467807Y-12801854D01*
X5481320Y-12800025D01*
X5494477Y-12796418D01*
X5507024Y-12791135D01*
X5518759Y-12784175D01*
X5529478Y-12775692D01*
X5538978Y-12765887D01*
X5547055Y-12754914D01*
X5553608Y-12742976D01*
X5558485Y-12730226D01*
X5561685Y-12716967D01*
X5563006Y-12703403D01*
X5562549Y-12689789D01*
X5560314Y-12676327D01*
X5556250Y-12663322D01*
X5550509Y-12650927D01*
X5543194Y-12639446D01*
X5534406Y-12629032D01*
X5524246Y-12619888D01*
X5513019Y-12612166D01*
X5500878Y-12606020D01*
X5487974Y-12601549D01*
X5474614Y-12598806D01*
X5461000Y-12597892D01*
X5447385Y-12598806D01*
X5434025Y-12601549D01*
X5421122Y-12606020D01*
X5408980Y-12612166D01*
X5397754Y-12619888D01*
X5387594Y-12629032D01*
X5378805Y-12639446D01*
X5371490Y-12650927D01*
X5365750Y-12663322D01*
X5361686Y-12676327D01*
X5359450Y-12689789D01*
X5358993Y-12703403D01*
X5360314Y-12716967D01*
X5363514Y-12730226D01*
X5368391Y-12742976D01*
X5374944Y-12754914D01*
X5383022Y-12765887D01*
X5392521Y-12775692D01*
X5403240Y-12784175D01*
X5414975Y-12791135D01*
X5427522Y-12796418D01*
X5440680Y-12800025D01*
G37*
G36*
X3168192Y-12801854D02*
G01*
X3181807Y-12801854D01*
X3195320Y-12800025D01*
X3208477Y-12796418D01*
X3221024Y-12791135D01*
X3232759Y-12784175D01*
X3243478Y-12775692D01*
X3252978Y-12765887D01*
X3261055Y-12754914D01*
X3267608Y-12742976D01*
X3272485Y-12730226D01*
X3275685Y-12716967D01*
X3277006Y-12703403D01*
X3276549Y-12689789D01*
X3274314Y-12676327D01*
X3270250Y-12663322D01*
X3264509Y-12650927D01*
X3257194Y-12639446D01*
X3248406Y-12629032D01*
X3238246Y-12619888D01*
X3227019Y-12612166D01*
X3214878Y-12606020D01*
X3201974Y-12601549D01*
X3188614Y-12598806D01*
X3175000Y-12597892D01*
X3161385Y-12598806D01*
X3148025Y-12601549D01*
X3135122Y-12606020D01*
X3122980Y-12612166D01*
X3111754Y-12619888D01*
X3101594Y-12629032D01*
X3092805Y-12639446D01*
X3085490Y-12650927D01*
X3079750Y-12663322D01*
X3075686Y-12676327D01*
X3073450Y-12689789D01*
X3072993Y-12703403D01*
X3074314Y-12716967D01*
X3077514Y-12730226D01*
X3082391Y-12742976D01*
X3088944Y-12754914D01*
X3097022Y-12765887D01*
X3106521Y-12775692D01*
X3117240Y-12784175D01*
X3128975Y-12791135D01*
X3141522Y-12796418D01*
X3154680Y-12800025D01*
G37*
G36*
X3422192Y-12801854D02*
G01*
X3435807Y-12801854D01*
X3449320Y-12800025D01*
X3462477Y-12796418D01*
X3475024Y-12791135D01*
X3486759Y-12784175D01*
X3497478Y-12775692D01*
X3506978Y-12765887D01*
X3515055Y-12754914D01*
X3521608Y-12742976D01*
X3526485Y-12730226D01*
X3529685Y-12716967D01*
X3531006Y-12703403D01*
X3530549Y-12689789D01*
X3528314Y-12676327D01*
X3524250Y-12663322D01*
X3518509Y-12650927D01*
X3511194Y-12639446D01*
X3502406Y-12629032D01*
X3492246Y-12619888D01*
X3481019Y-12612166D01*
X3468878Y-12606020D01*
X3455974Y-12601549D01*
X3442614Y-12598806D01*
X3429000Y-12597892D01*
X3415385Y-12598806D01*
X3402025Y-12601549D01*
X3389122Y-12606020D01*
X3376980Y-12612166D01*
X3365754Y-12619888D01*
X3355594Y-12629032D01*
X3346805Y-12639446D01*
X3339490Y-12650927D01*
X3333750Y-12663322D01*
X3329686Y-12676327D01*
X3327450Y-12689789D01*
X3326993Y-12703403D01*
X3328314Y-12716967D01*
X3331514Y-12730226D01*
X3336391Y-12742976D01*
X3342944Y-12754914D01*
X3351022Y-12765887D01*
X3360521Y-12775692D01*
X3371240Y-12784175D01*
X3382975Y-12791135D01*
X3395522Y-12796418D01*
X3408679Y-12800025D01*
G37*
G36*
X4946192Y-12801854D02*
G01*
X4959807Y-12801854D01*
X4973320Y-12800025D01*
X4986477Y-12796418D01*
X4999024Y-12791135D01*
X5010759Y-12784175D01*
X5021478Y-12775692D01*
X5030978Y-12765887D01*
X5039055Y-12754914D01*
X5045608Y-12742976D01*
X5050485Y-12730226D01*
X5053685Y-12716967D01*
X5055006Y-12703403D01*
X5054549Y-12689789D01*
X5052314Y-12676327D01*
X5048250Y-12663322D01*
X5042509Y-12650927D01*
X5035194Y-12639446D01*
X5026406Y-12629032D01*
X5016246Y-12619888D01*
X5005019Y-12612166D01*
X4992878Y-12606020D01*
X4979974Y-12601549D01*
X4966614Y-12598806D01*
X4953000Y-12597892D01*
X4939385Y-12598806D01*
X4926025Y-12601549D01*
X4913122Y-12606020D01*
X4900980Y-12612166D01*
X4889754Y-12619888D01*
X4879594Y-12629032D01*
X4870805Y-12639446D01*
X4863490Y-12650927D01*
X4857750Y-12663322D01*
X4853686Y-12676327D01*
X4851450Y-12689789D01*
X4850993Y-12703403D01*
X4852314Y-12716967D01*
X4855514Y-12730226D01*
X4860391Y-12742976D01*
X4866944Y-12754914D01*
X4875022Y-12765887D01*
X4884521Y-12775692D01*
X4895240Y-12784175D01*
X4906975Y-12791135D01*
X4919522Y-12796418D01*
X4932680Y-12800025D01*
G37*
G36*
X5708192Y-12801854D02*
G01*
X5721807Y-12801854D01*
X5735320Y-12800025D01*
X5748477Y-12796418D01*
X5761024Y-12791135D01*
X5772759Y-12784175D01*
X5783478Y-12775692D01*
X5792978Y-12765887D01*
X5801055Y-12754914D01*
X5807608Y-12742976D01*
X5812485Y-12730226D01*
X5815685Y-12716967D01*
X5817006Y-12703403D01*
X5816549Y-12689789D01*
X5814314Y-12676327D01*
X5810250Y-12663322D01*
X5804509Y-12650927D01*
X5797194Y-12639446D01*
X5788406Y-12629032D01*
X5778246Y-12619888D01*
X5767019Y-12612166D01*
X5754878Y-12606020D01*
X5741974Y-12601549D01*
X5728614Y-12598806D01*
X5715000Y-12597892D01*
X5701385Y-12598806D01*
X5688025Y-12601549D01*
X5675122Y-12606020D01*
X5662980Y-12612166D01*
X5651754Y-12619888D01*
X5641594Y-12629032D01*
X5632805Y-12639446D01*
X5625490Y-12650927D01*
X5619750Y-12663322D01*
X5615686Y-12676327D01*
X5613450Y-12689789D01*
X5612993Y-12703403D01*
X5614314Y-12716967D01*
X5617514Y-12730226D01*
X5622391Y-12742976D01*
X5628944Y-12754914D01*
X5637022Y-12765887D01*
X5646521Y-12775692D01*
X5657240Y-12784175D01*
X5668975Y-12791135D01*
X5681522Y-12796418D01*
X5694680Y-12800025D01*
G37*
G36*
X1898192Y-12801854D02*
G01*
X1911807Y-12801854D01*
X1925320Y-12800025D01*
X1938477Y-12796418D01*
X1951024Y-12791135D01*
X1962759Y-12784175D01*
X1973478Y-12775692D01*
X1982978Y-12765887D01*
X1991055Y-12754914D01*
X1997608Y-12742976D01*
X2002485Y-12730226D01*
X2005685Y-12716967D01*
X2007006Y-12703403D01*
X2006549Y-12689789D01*
X2004314Y-12676327D01*
X2000250Y-12663322D01*
X1994509Y-12650927D01*
X1987194Y-12639446D01*
X1978406Y-12629032D01*
X1968246Y-12619888D01*
X1957019Y-12612166D01*
X1944878Y-12606020D01*
X1931974Y-12601549D01*
X1918614Y-12598806D01*
X1905000Y-12597892D01*
X1891385Y-12598806D01*
X1878025Y-12601549D01*
X1865122Y-12606020D01*
X1852980Y-12612166D01*
X1841754Y-12619888D01*
X1831593Y-12629032D01*
X1822805Y-12639446D01*
X1815490Y-12650927D01*
X1809750Y-12663322D01*
X1805686Y-12676327D01*
X1803450Y-12689789D01*
X1802993Y-12703403D01*
X1804314Y-12716967D01*
X1807514Y-12730226D01*
X1812391Y-12742976D01*
X1818944Y-12754914D01*
X1827022Y-12765887D01*
X1836521Y-12775692D01*
X1847240Y-12784175D01*
X1858975Y-12791135D01*
X1871522Y-12796418D01*
X1884680Y-12800025D01*
G37*
G36*
X1644192Y-12801854D02*
G01*
X1657807Y-12801854D01*
X1671320Y-12800025D01*
X1684477Y-12796418D01*
X1697024Y-12791135D01*
X1708759Y-12784175D01*
X1719478Y-12775692D01*
X1728978Y-12765887D01*
X1737055Y-12754914D01*
X1743608Y-12742976D01*
X1748485Y-12730226D01*
X1751685Y-12716967D01*
X1753006Y-12703403D01*
X1752549Y-12689789D01*
X1750314Y-12676327D01*
X1746250Y-12663322D01*
X1740509Y-12650927D01*
X1733194Y-12639446D01*
X1724406Y-12629032D01*
X1714246Y-12619888D01*
X1703019Y-12612166D01*
X1690878Y-12606020D01*
X1677974Y-12601549D01*
X1664614Y-12598806D01*
X1651000Y-12597892D01*
X1637385Y-12598806D01*
X1624025Y-12601549D01*
X1611122Y-12606020D01*
X1598980Y-12612166D01*
X1587754Y-12619888D01*
X1577594Y-12629032D01*
X1568805Y-12639446D01*
X1561490Y-12650927D01*
X1555750Y-12663322D01*
X1551686Y-12676327D01*
X1549450Y-12689789D01*
X1548993Y-12703403D01*
X1550314Y-12716967D01*
X1553514Y-12730226D01*
X1558391Y-12742976D01*
X1564944Y-12754914D01*
X1573022Y-12765887D01*
X1582521Y-12775692D01*
X1593240Y-12784175D01*
X1604975Y-12791135D01*
X1617522Y-12796418D01*
X1630680Y-12800025D01*
G37*
G36*
X1136192Y-12801854D02*
G01*
X1149807Y-12801854D01*
X1163320Y-12800025D01*
X1176477Y-12796418D01*
X1189024Y-12791135D01*
X1200759Y-12784175D01*
X1211478Y-12775692D01*
X1220978Y-12765887D01*
X1229055Y-12754914D01*
X1235608Y-12742976D01*
X1240485Y-12730226D01*
X1243685Y-12716967D01*
X1245006Y-12703403D01*
X1244549Y-12689789D01*
X1242314Y-12676327D01*
X1238250Y-12663322D01*
X1232509Y-12650927D01*
X1225194Y-12639446D01*
X1216406Y-12629032D01*
X1206246Y-12619888D01*
X1195019Y-12612166D01*
X1182878Y-12606020D01*
X1169974Y-12601549D01*
X1156614Y-12598806D01*
X1143000Y-12597892D01*
X1129385Y-12598806D01*
X1116025Y-12601549D01*
X1103122Y-12606020D01*
X1090980Y-12612166D01*
X1079754Y-12619888D01*
X1069594Y-12629032D01*
X1060805Y-12639446D01*
X1053490Y-12650927D01*
X1047750Y-12663322D01*
X1043686Y-12676327D01*
X1041450Y-12689789D01*
X1040993Y-12703403D01*
X1042314Y-12716967D01*
X1045514Y-12730226D01*
X1050391Y-12742976D01*
X1056944Y-12754914D01*
X1065022Y-12765887D01*
X1074521Y-12775692D01*
X1085240Y-12784175D01*
X1096975Y-12791135D01*
X1109522Y-12796418D01*
X1122680Y-12800025D01*
G37*
G36*
X882192Y-12801854D02*
G01*
X895807Y-12801854D01*
X909319Y-12800025D01*
X922477Y-12796418D01*
X935024Y-12791135D01*
X946759Y-12784175D01*
X957478Y-12775692D01*
X966978Y-12765887D01*
X975055Y-12754914D01*
X981608Y-12742976D01*
X986485Y-12730226D01*
X989685Y-12716967D01*
X991006Y-12703403D01*
X990549Y-12689789D01*
X988314Y-12676327D01*
X984250Y-12663322D01*
X978509Y-12650927D01*
X971194Y-12639446D01*
X962406Y-12629032D01*
X952246Y-12619888D01*
X941019Y-12612166D01*
X928878Y-12606020D01*
X915974Y-12601549D01*
X902614Y-12598806D01*
X889000Y-12597892D01*
X875385Y-12598806D01*
X862025Y-12601549D01*
X849121Y-12606020D01*
X836980Y-12612166D01*
X825753Y-12619888D01*
X815594Y-12629032D01*
X806805Y-12639446D01*
X799490Y-12650927D01*
X793750Y-12663322D01*
X789686Y-12676327D01*
X787450Y-12689789D01*
X786993Y-12703403D01*
X788314Y-12716967D01*
X791514Y-12730226D01*
X796391Y-12742976D01*
X802944Y-12754914D01*
X811022Y-12765887D01*
X820521Y-12775692D01*
X831240Y-12784175D01*
X842975Y-12791135D01*
X855522Y-12796418D01*
X868680Y-12800025D01*
G37*
G36*
X3834892Y-12655550D02*
G01*
X3892550Y-12655550D01*
X3892550Y-12597892D01*
X3861358Y-12597892D01*
X3855059Y-12598603D01*
X3849573Y-12600533D01*
X3844696Y-12603581D01*
X3840581Y-12607696D01*
X3837533Y-12612573D01*
X3835603Y-12618059D01*
X3834892Y-12624358D01*
G37*
G36*
X5251450Y-12655550D02*
G01*
X5309108Y-12655550D01*
X5309108Y-12624358D01*
X5308396Y-12618059D01*
X5306466Y-12612573D01*
X5303418Y-12607696D01*
X5299303Y-12603581D01*
X5294426Y-12600533D01*
X5288940Y-12598603D01*
X5282641Y-12597892D01*
X5251450Y-12597892D01*
G37*
G36*
X2711450Y-12655550D02*
G01*
X2769108Y-12655550D01*
X2769108Y-12624358D01*
X2768396Y-12618059D01*
X2766466Y-12612573D01*
X2763418Y-12607696D01*
X2759303Y-12603581D01*
X2754426Y-12600533D01*
X2748940Y-12598603D01*
X2742641Y-12597892D01*
X2711450Y-12597892D01*
G37*
G36*
X1294892Y-12655550D02*
G01*
X1352550Y-12655550D01*
X1352550Y-12597892D01*
X1321358Y-12597892D01*
X1315059Y-12598603D01*
X1309573Y-12600533D01*
X1304696Y-12603581D01*
X1300581Y-12607696D01*
X1297533Y-12612573D01*
X1295603Y-12618059D01*
X1294892Y-12624358D01*
G37*
G36*
X3981450Y-12655550D02*
G01*
X4039108Y-12655550D01*
X4039108Y-12624358D01*
X4038396Y-12618059D01*
X4036466Y-12612573D01*
X4033418Y-12607696D01*
X4029303Y-12603581D01*
X4024426Y-12600533D01*
X4018940Y-12598603D01*
X4012641Y-12597892D01*
X3981450Y-12597892D01*
G37*
G36*
X2564892Y-12655550D02*
G01*
X2622550Y-12655550D01*
X2622550Y-12597892D01*
X2591358Y-12597892D01*
X2585059Y-12598603D01*
X2579573Y-12600533D01*
X2574696Y-12603581D01*
X2570581Y-12607696D01*
X2567533Y-12612573D01*
X2565603Y-12618059D01*
X2564892Y-12624358D01*
G37*
G36*
X1441450Y-12655550D02*
G01*
X1499108Y-12655550D01*
X1499108Y-12624358D01*
X1498396Y-12618059D01*
X1496466Y-12612573D01*
X1493418Y-12607696D01*
X1489303Y-12603581D01*
X1484426Y-12600533D01*
X1478940Y-12598603D01*
X1472641Y-12597892D01*
X1441450Y-12597892D01*
G37*
G36*
X5104892Y-12655550D02*
G01*
X5162550Y-12655550D01*
X5162550Y-12597892D01*
X5131358Y-12597892D01*
X5125059Y-12598603D01*
X5119573Y-12600533D01*
X5114696Y-12603581D01*
X5110581Y-12607696D01*
X5107533Y-12612573D01*
X5105603Y-12618059D01*
X5104892Y-12624358D01*
G37*
G36*
X6265570Y-12175896D02*
G01*
X6434429Y-12175896D01*
X6440728Y-12175185D01*
X6446215Y-12173305D01*
X6451092Y-12170206D01*
X6455206Y-12166092D01*
X6458305Y-12161215D01*
X6460185Y-12155728D01*
X6460896Y-12149429D01*
X6460896Y-11980570D01*
X6460185Y-11974271D01*
X6458305Y-11968784D01*
X6455206Y-11963908D01*
X6451092Y-11959793D01*
X6446215Y-11956694D01*
X6440728Y-11954814D01*
X6434429Y-11954103D01*
X6265570Y-11954103D01*
X6259271Y-11954814D01*
X6253784Y-11956694D01*
X6248908Y-11959793D01*
X6244793Y-11963908D01*
X6241694Y-11968784D01*
X6239814Y-11974271D01*
X6239103Y-11980570D01*
X6239103Y-12149429D01*
X6239814Y-12155728D01*
X6241694Y-12161215D01*
X6244793Y-12166092D01*
X6248908Y-12170206D01*
X6253784Y-12173305D01*
X6259271Y-12175185D01*
G37*
G36*
X6589318Y-12169648D02*
G01*
X6745681Y-12169648D01*
X6751980Y-12168936D01*
X6757466Y-12167006D01*
X6762343Y-12163958D01*
X6766458Y-12159843D01*
X6769506Y-12154966D01*
X6771436Y-12149480D01*
X6772148Y-12143181D01*
X6772148Y-11986818D01*
X6771436Y-11980519D01*
X6769506Y-11975033D01*
X6766458Y-11970156D01*
X6762343Y-11966041D01*
X6757466Y-11962993D01*
X6751980Y-11961063D01*
X6745681Y-11960352D01*
X6589318Y-11960352D01*
X6583019Y-11961063D01*
X6577533Y-11962993D01*
X6572656Y-11966041D01*
X6568541Y-11970156D01*
X6565493Y-11975033D01*
X6563563Y-11980519D01*
X6562852Y-11986818D01*
X6562852Y-12143181D01*
X6563563Y-12149480D01*
X6565493Y-12154966D01*
X6568541Y-12159843D01*
X6572656Y-12163958D01*
X6577533Y-12167006D01*
X6583019Y-12168936D01*
G37*
G36*
X5685180Y-12166854D02*
G01*
X5698794Y-12166854D01*
X5712358Y-12165025D01*
X5725464Y-12161418D01*
X5738063Y-12156135D01*
X5749798Y-12149175D01*
X5760466Y-12140692D01*
X5769965Y-12130887D01*
X5778042Y-12119914D01*
X5784596Y-12107976D01*
X5789523Y-12095226D01*
X5792673Y-12081967D01*
X5794044Y-12068403D01*
X5793587Y-12054789D01*
X5791301Y-12041327D01*
X5787288Y-12028322D01*
X5781548Y-12015927D01*
X5774182Y-12004446D01*
X5765393Y-11994032D01*
X5755284Y-11984888D01*
X5744006Y-11977166D01*
X5731865Y-11971020D01*
X5718962Y-11966549D01*
X5705602Y-11963806D01*
X5691987Y-11962892D01*
X5678373Y-11963806D01*
X5665012Y-11966549D01*
X5652160Y-11971020D01*
X5639968Y-11977166D01*
X5628741Y-11984888D01*
X5618632Y-11994032D01*
X5609793Y-12004446D01*
X5602478Y-12015927D01*
X5596737Y-12028322D01*
X5592673Y-12041327D01*
X5590438Y-12054789D01*
X5589981Y-12068403D01*
X5591352Y-12081967D01*
X5594502Y-12095226D01*
X5599379Y-12107976D01*
X5605932Y-12119914D01*
X5614060Y-12130887D01*
X5623509Y-12140692D01*
X5634228Y-12149175D01*
X5645962Y-12156135D01*
X5658510Y-12161418D01*
X5671667Y-12165025D01*
G37*
G36*
X6047130Y-12164466D02*
G01*
X6047130Y-12113869D01*
X5996584Y-12113869D01*
X5997702Y-12116308D01*
X6005068Y-12128449D01*
X6013907Y-12139574D01*
X6024118Y-12149429D01*
X6035497Y-12157913D01*
G37*
G36*
X6144869Y-12164466D02*
G01*
X6156502Y-12157913D01*
X6167882Y-12149429D01*
X6178092Y-12139574D01*
X6186932Y-12128449D01*
X6194298Y-12116308D01*
X6195415Y-12113869D01*
X6144869Y-12113869D01*
G37*
G36*
X5996686Y-12016130D02*
G01*
X6047130Y-12016130D01*
X6047130Y-11965686D01*
X6041593Y-11968378D01*
X6029655Y-11976150D01*
X6018834Y-11985345D01*
X6009284Y-11995861D01*
X6001156Y-12007494D01*
G37*
G36*
X6144869Y-12016130D02*
G01*
X6195314Y-12016130D01*
X6190843Y-12007494D01*
X6182715Y-11995861D01*
X6173165Y-11985345D01*
X6162344Y-11976150D01*
X6150406Y-11968378D01*
X6144869Y-11965686D01*
G37*
G36*
X6342888Y-11921642D02*
G01*
X6357112Y-11921642D01*
X6371183Y-11919864D01*
X6384950Y-11916257D01*
X6398107Y-11910923D01*
X6410502Y-11903913D01*
X6421882Y-11895429D01*
X6432092Y-11885574D01*
X6440932Y-11874449D01*
X6448298Y-11862308D01*
X6454089Y-11849303D01*
X6458102Y-11835688D01*
X6460388Y-11821668D01*
X6460845Y-11807444D01*
X6459474Y-11793321D01*
X6456324Y-11779453D01*
X6451396Y-11766092D01*
X6444843Y-11753494D01*
X6436715Y-11741861D01*
X6427165Y-11731345D01*
X6416344Y-11722150D01*
X6404406Y-11714378D01*
X6391605Y-11708231D01*
X6378143Y-11703761D01*
X6364173Y-11701018D01*
X6350000Y-11700103D01*
X6335826Y-11701018D01*
X6321856Y-11703761D01*
X6308394Y-11708231D01*
X6295593Y-11714378D01*
X6283655Y-11722150D01*
X6272834Y-11731345D01*
X6263284Y-11741861D01*
X6255156Y-11753494D01*
X6248603Y-11766092D01*
X6243675Y-11779453D01*
X6240526Y-11793321D01*
X6239154Y-11807444D01*
X6239611Y-11821668D01*
X6241897Y-11835688D01*
X6245961Y-11849303D01*
X6251702Y-11862308D01*
X6259068Y-11874449D01*
X6267907Y-11885574D01*
X6278118Y-11895429D01*
X6289497Y-11903913D01*
X6301892Y-11910923D01*
X6315049Y-11916257D01*
X6328816Y-11919864D01*
G37*
G36*
X5616346Y-11913108D02*
G01*
X5767628Y-11913108D01*
X5773928Y-11912396D01*
X5779414Y-11910466D01*
X5784291Y-11907418D01*
X5788406Y-11903303D01*
X5791504Y-11898426D01*
X5793384Y-11892940D01*
X5794095Y-11886641D01*
X5794095Y-11735358D01*
X5793384Y-11729059D01*
X5791504Y-11723573D01*
X5788406Y-11718696D01*
X5784291Y-11714581D01*
X5779414Y-11711533D01*
X5773928Y-11709603D01*
X5767628Y-11708892D01*
X5616346Y-11708892D01*
X5610047Y-11709603D01*
X5604611Y-11711533D01*
X5599684Y-11714581D01*
X5595620Y-11718696D01*
X5592521Y-11723573D01*
X5590590Y-11729059D01*
X5589879Y-11735358D01*
X5589879Y-11886641D01*
X5590590Y-11892940D01*
X5592521Y-11898426D01*
X5595620Y-11903303D01*
X5599684Y-11907418D01*
X5604611Y-11910466D01*
X5610047Y-11912396D01*
G37*
G36*
X6144869Y-11910466D02*
G01*
X6156502Y-11903913D01*
X6167882Y-11895429D01*
X6178092Y-11885574D01*
X6186932Y-11874449D01*
X6194298Y-11862308D01*
X6195415Y-11859869D01*
X6144869Y-11859869D01*
G37*
G36*
X6047130Y-11910466D02*
G01*
X6047130Y-11859869D01*
X5996584Y-11859869D01*
X5997702Y-11862308D01*
X6005068Y-11874449D01*
X6013907Y-11885574D01*
X6024118Y-11895429D01*
X6035497Y-11903913D01*
G37*
G36*
X5996686Y-11762130D02*
G01*
X6047130Y-11762130D01*
X6047130Y-11711686D01*
X6041593Y-11714378D01*
X6029655Y-11722150D01*
X6018834Y-11731345D01*
X6009284Y-11741861D01*
X6001156Y-11753494D01*
G37*
G36*
X6144869Y-11762130D02*
G01*
X6195314Y-11762130D01*
X6190843Y-11753494D01*
X6182715Y-11741861D01*
X6173165Y-11731345D01*
X6162344Y-11722150D01*
X6150406Y-11714378D01*
X6144869Y-11711686D01*
G37*
G36*
X6088888Y-11667642D02*
G01*
X6103112Y-11667642D01*
X6117183Y-11665864D01*
X6130950Y-11662257D01*
X6144107Y-11656923D01*
X6156502Y-11649913D01*
X6167882Y-11641429D01*
X6178092Y-11631574D01*
X6186932Y-11620449D01*
X6194298Y-11608308D01*
X6200089Y-11595303D01*
X6204102Y-11581688D01*
X6206388Y-11567668D01*
X6206845Y-11553444D01*
X6205474Y-11539321D01*
X6202324Y-11525453D01*
X6197396Y-11512092D01*
X6190843Y-11499494D01*
X6182715Y-11487861D01*
X6173165Y-11477345D01*
X6162344Y-11468150D01*
X6150406Y-11460378D01*
X6137605Y-11454231D01*
X6124143Y-11449761D01*
X6110173Y-11447018D01*
X6096000Y-11446103D01*
X6081826Y-11447018D01*
X6067856Y-11449761D01*
X6054394Y-11454231D01*
X6041593Y-11460378D01*
X6029655Y-11468150D01*
X6018834Y-11477345D01*
X6009284Y-11487861D01*
X6001156Y-11499494D01*
X5994603Y-11512092D01*
X5989675Y-11525453D01*
X5986526Y-11539321D01*
X5985154Y-11553444D01*
X5985611Y-11567668D01*
X5987897Y-11581688D01*
X5991961Y-11595303D01*
X5997702Y-11608308D01*
X6005068Y-11620449D01*
X6013907Y-11631574D01*
X6024118Y-11641429D01*
X6035497Y-11649913D01*
X6047892Y-11656923D01*
X6061049Y-11662257D01*
X6074816Y-11665864D01*
G37*
G36*
X6342888Y-11667642D02*
G01*
X6357112Y-11667642D01*
X6371183Y-11665864D01*
X6384950Y-11662257D01*
X6398107Y-11656923D01*
X6410502Y-11649913D01*
X6421882Y-11641429D01*
X6432092Y-11631574D01*
X6440932Y-11620449D01*
X6448298Y-11608308D01*
X6454089Y-11595303D01*
X6458102Y-11581688D01*
X6460388Y-11567668D01*
X6460845Y-11553444D01*
X6459474Y-11539321D01*
X6456324Y-11525453D01*
X6451396Y-11512092D01*
X6444843Y-11499494D01*
X6436715Y-11487861D01*
X6427165Y-11477345D01*
X6416344Y-11468150D01*
X6404406Y-11460378D01*
X6391605Y-11454231D01*
X6378143Y-11449761D01*
X6364173Y-11447018D01*
X6350000Y-11446103D01*
X6335826Y-11447018D01*
X6321856Y-11449761D01*
X6308394Y-11454231D01*
X6295593Y-11460378D01*
X6283655Y-11468150D01*
X6272834Y-11477345D01*
X6263284Y-11487861D01*
X6255156Y-11499494D01*
X6248603Y-11512092D01*
X6243675Y-11525453D01*
X6240526Y-11539321D01*
X6239154Y-11553444D01*
X6239611Y-11567668D01*
X6241897Y-11581688D01*
X6245961Y-11595303D01*
X6251702Y-11608308D01*
X6259068Y-11620449D01*
X6267907Y-11631574D01*
X6278118Y-11641429D01*
X6289497Y-11649913D01*
X6301892Y-11656923D01*
X6315049Y-11662257D01*
X6328816Y-11665864D01*
G37*
G36*
X5685180Y-11658854D02*
G01*
X5698794Y-11658854D01*
X5712358Y-11657025D01*
X5725464Y-11653418D01*
X5738063Y-11648135D01*
X5749798Y-11641175D01*
X5760466Y-11632692D01*
X5769965Y-11622887D01*
X5778042Y-11611914D01*
X5784596Y-11599976D01*
X5789523Y-11587226D01*
X5792673Y-11573967D01*
X5794044Y-11560403D01*
X5793587Y-11546789D01*
X5791301Y-11533327D01*
X5787288Y-11520322D01*
X5781548Y-11507927D01*
X5774182Y-11496446D01*
X5765393Y-11486032D01*
X5755284Y-11476888D01*
X5744006Y-11469166D01*
X5731865Y-11463020D01*
X5718962Y-11458549D01*
X5705602Y-11455806D01*
X5691987Y-11454892D01*
X5678373Y-11455806D01*
X5665012Y-11458549D01*
X5652160Y-11463020D01*
X5639968Y-11469166D01*
X5628741Y-11476888D01*
X5618632Y-11486032D01*
X5609793Y-11496446D01*
X5602478Y-11507927D01*
X5596737Y-11520322D01*
X5592673Y-11533327D01*
X5590438Y-11546789D01*
X5589981Y-11560403D01*
X5591352Y-11573967D01*
X5594502Y-11587226D01*
X5599379Y-11599976D01*
X5605932Y-11611914D01*
X5614060Y-11622887D01*
X5623509Y-11632692D01*
X5634228Y-11641175D01*
X5645962Y-11648135D01*
X5658510Y-11653418D01*
X5671667Y-11657025D01*
G37*
G36*
X2029358Y-11559336D02*
G01*
X2039924Y-11558879D01*
X2050338Y-11556796D01*
X2060244Y-11553037D01*
X2069439Y-11547703D01*
X2077618Y-11540998D01*
X2082495Y-11535511D01*
X2085898Y-11533022D01*
X2090115Y-11532108D01*
X2367991Y-11532108D01*
X2371902Y-11532870D01*
X2375204Y-11535105D01*
X2376779Y-11536680D01*
X2384806Y-11542318D01*
X2393746Y-11546433D01*
X2403195Y-11548973D01*
X2413000Y-11549837D01*
X2422804Y-11548973D01*
X2432253Y-11546433D01*
X2441194Y-11542318D01*
X2449220Y-11536680D01*
X2456180Y-11529720D01*
X2461818Y-11521694D01*
X2465933Y-11512753D01*
X2468473Y-11503304D01*
X2469337Y-11493500D01*
X2468473Y-11483695D01*
X2465933Y-11474246D01*
X2461818Y-11465306D01*
X2456180Y-11457279D01*
X2449220Y-11450320D01*
X2441194Y-11444681D01*
X2432253Y-11440566D01*
X2422804Y-11438026D01*
X2413000Y-11437162D01*
X2403195Y-11438026D01*
X2393746Y-11440566D01*
X2384806Y-11444681D01*
X2376779Y-11450320D01*
X2375204Y-11451894D01*
X2371902Y-11454130D01*
X2367991Y-11454892D01*
X2090115Y-11454892D01*
X2085898Y-11453977D01*
X2082495Y-11451488D01*
X2077618Y-11446002D01*
X2069439Y-11439296D01*
X2060244Y-11433962D01*
X2050338Y-11430203D01*
X2039924Y-11428120D01*
X2029358Y-11427663D01*
X2018842Y-11428933D01*
X2008632Y-11431930D01*
X1999081Y-11436451D01*
X1990343Y-11442496D01*
X1982673Y-11449812D01*
X1976323Y-11458295D01*
X1971395Y-11467693D01*
X1968042Y-11477752D01*
X1966315Y-11488216D01*
X1966315Y-11498783D01*
X1968042Y-11509248D01*
X1971395Y-11519306D01*
X1976323Y-11528704D01*
X1982673Y-11537188D01*
X1990343Y-11544503D01*
X1999081Y-11550548D01*
X2008632Y-11555069D01*
X2018842Y-11558066D01*
G37*
G36*
X6081318Y-11344148D02*
G01*
X6237681Y-11344148D01*
X6243980Y-11343436D01*
X6249466Y-11341506D01*
X6254343Y-11338458D01*
X6258458Y-11334343D01*
X6261506Y-11329466D01*
X6263436Y-11323980D01*
X6264148Y-11317681D01*
X6264148Y-11161318D01*
X6263436Y-11155019D01*
X6261506Y-11149533D01*
X6258458Y-11144656D01*
X6254343Y-11140541D01*
X6249466Y-11137493D01*
X6243980Y-11135563D01*
X6237681Y-11134852D01*
X6081318Y-11134852D01*
X6075019Y-11135563D01*
X6069533Y-11137493D01*
X6064656Y-11140541D01*
X6060541Y-11144656D01*
X6057493Y-11149533D01*
X6055563Y-11155019D01*
X6054852Y-11161318D01*
X6054852Y-11317681D01*
X6055563Y-11323980D01*
X6057493Y-11329466D01*
X6060541Y-11334343D01*
X6064656Y-11338458D01*
X6069533Y-11341506D01*
X6075019Y-11343436D01*
G37*
G36*
X1441450Y-11024108D02*
G01*
X1472641Y-11024108D01*
X1478940Y-11023396D01*
X1484426Y-11021466D01*
X1489303Y-11018418D01*
X1493418Y-11014303D01*
X1496466Y-11009426D01*
X1498396Y-11003940D01*
X1499108Y-10997641D01*
X1499108Y-10966450D01*
X1441450Y-10966450D01*
G37*
G36*
X3981450Y-11024108D02*
G01*
X4012641Y-11024108D01*
X4018940Y-11023396D01*
X4024426Y-11021466D01*
X4029303Y-11018418D01*
X4033418Y-11014303D01*
X4036466Y-11009426D01*
X4038396Y-11003940D01*
X4039108Y-10997641D01*
X4039108Y-10966450D01*
X3981450Y-10966450D01*
G37*
G36*
X5251450Y-11024108D02*
G01*
X5282641Y-11024108D01*
X5288940Y-11023396D01*
X5294426Y-11021466D01*
X5299303Y-11018418D01*
X5303418Y-11014303D01*
X5306466Y-11009426D01*
X5308396Y-11003940D01*
X5309108Y-10997641D01*
X5309108Y-10966450D01*
X5251450Y-10966450D01*
G37*
G36*
X1321358Y-11024108D02*
G01*
X1352550Y-11024108D01*
X1352550Y-10966450D01*
X1294892Y-10966450D01*
X1294892Y-10997641D01*
X1295603Y-11003940D01*
X1297533Y-11009426D01*
X1300581Y-11014303D01*
X1304696Y-11018418D01*
X1309573Y-11021466D01*
X1315059Y-11023396D01*
G37*
G36*
X3861358Y-11024108D02*
G01*
X3892550Y-11024108D01*
X3892550Y-10966450D01*
X3834892Y-10966450D01*
X3834892Y-10997641D01*
X3835603Y-11003940D01*
X3837533Y-11009426D01*
X3840581Y-11014303D01*
X3844696Y-11018418D01*
X3849573Y-11021466D01*
X3855059Y-11023396D01*
G37*
G36*
X5131358Y-11024108D02*
G01*
X5162550Y-11024108D01*
X5162550Y-10966450D01*
X5104892Y-10966450D01*
X5104892Y-10997641D01*
X5105603Y-11003940D01*
X5107533Y-11009426D01*
X5110581Y-11014303D01*
X5114696Y-11018418D01*
X5119573Y-11021466D01*
X5125059Y-11023396D01*
G37*
G36*
X2591358Y-11024108D02*
G01*
X2742641Y-11024108D01*
X2748940Y-11023396D01*
X2754426Y-11021466D01*
X2759303Y-11018418D01*
X2763418Y-11014303D01*
X2766466Y-11009426D01*
X2768396Y-11003940D01*
X2769108Y-10997641D01*
X2769108Y-10846358D01*
X2768396Y-10840059D01*
X2766466Y-10834573D01*
X2763418Y-10829696D01*
X2759303Y-10825581D01*
X2754426Y-10822533D01*
X2748940Y-10820603D01*
X2742641Y-10819892D01*
X2591358Y-10819892D01*
X2585059Y-10820603D01*
X2579573Y-10822533D01*
X2574696Y-10825581D01*
X2570581Y-10829696D01*
X2567533Y-10834573D01*
X2565603Y-10840059D01*
X2564892Y-10846358D01*
X2564892Y-10997641D01*
X2565603Y-11003940D01*
X2567533Y-11009426D01*
X2570581Y-11014303D01*
X2574696Y-11018418D01*
X2579573Y-11021466D01*
X2585059Y-11023396D01*
G37*
G36*
X2914192Y-11023854D02*
G01*
X2927807Y-11023854D01*
X2941320Y-11022025D01*
X2954477Y-11018418D01*
X2967024Y-11013135D01*
X2978759Y-11006175D01*
X2989478Y-10997692D01*
X2998978Y-10987887D01*
X3007055Y-10976914D01*
X3013608Y-10964976D01*
X3018485Y-10952226D01*
X3021685Y-10938967D01*
X3023006Y-10925403D01*
X3022549Y-10911789D01*
X3020314Y-10898327D01*
X3016250Y-10885322D01*
X3010509Y-10872927D01*
X3003194Y-10861446D01*
X2994406Y-10851032D01*
X2984246Y-10841888D01*
X2973019Y-10834166D01*
X2960878Y-10828020D01*
X2947974Y-10823549D01*
X2934614Y-10820806D01*
X2921000Y-10819892D01*
X2907385Y-10820806D01*
X2894025Y-10823549D01*
X2881122Y-10828020D01*
X2868980Y-10834166D01*
X2857754Y-10841888D01*
X2847594Y-10851032D01*
X2838805Y-10861446D01*
X2831490Y-10872927D01*
X2825750Y-10885322D01*
X2821686Y-10898327D01*
X2819450Y-10911789D01*
X2818993Y-10925403D01*
X2820314Y-10938967D01*
X2823514Y-10952226D01*
X2828391Y-10964976D01*
X2834944Y-10976914D01*
X2843022Y-10987887D01*
X2852521Y-10997692D01*
X2863240Y-11006175D01*
X2874975Y-11013135D01*
X2887522Y-11018418D01*
X2900680Y-11022025D01*
G37*
G36*
X2406192Y-11023854D02*
G01*
X2419807Y-11023854D01*
X2433320Y-11022025D01*
X2446477Y-11018418D01*
X2459024Y-11013135D01*
X2470759Y-11006175D01*
X2481478Y-10997692D01*
X2490978Y-10987887D01*
X2499055Y-10976914D01*
X2505608Y-10964976D01*
X2510485Y-10952226D01*
X2513685Y-10938967D01*
X2515006Y-10925403D01*
X2514549Y-10911789D01*
X2512314Y-10898327D01*
X2508250Y-10885322D01*
X2502509Y-10872927D01*
X2495194Y-10861446D01*
X2486406Y-10851032D01*
X2476246Y-10841888D01*
X2465019Y-10834166D01*
X2452878Y-10828020D01*
X2439974Y-10823549D01*
X2426614Y-10820806D01*
X2413000Y-10819892D01*
X2399385Y-10820806D01*
X2386025Y-10823549D01*
X2373122Y-10828020D01*
X2360980Y-10834166D01*
X2349754Y-10841888D01*
X2339594Y-10851032D01*
X2330805Y-10861446D01*
X2323490Y-10872927D01*
X2317750Y-10885322D01*
X2313686Y-10898327D01*
X2311450Y-10911789D01*
X2310993Y-10925403D01*
X2312314Y-10938967D01*
X2315514Y-10952226D01*
X2320391Y-10964976D01*
X2326944Y-10976914D01*
X2335022Y-10987887D01*
X2344521Y-10997692D01*
X2355240Y-11006175D01*
X2366975Y-11013135D01*
X2379522Y-11018418D01*
X2392680Y-11022025D01*
G37*
G36*
X4184192Y-11023854D02*
G01*
X4197807Y-11023854D01*
X4211320Y-11022025D01*
X4224477Y-11018418D01*
X4237024Y-11013135D01*
X4248759Y-11006175D01*
X4259478Y-10997692D01*
X4268978Y-10987887D01*
X4277055Y-10976914D01*
X4283608Y-10964976D01*
X4288485Y-10952226D01*
X4291685Y-10938967D01*
X4293006Y-10925403D01*
X4292549Y-10911789D01*
X4290314Y-10898327D01*
X4286250Y-10885322D01*
X4280509Y-10872927D01*
X4273194Y-10861446D01*
X4264406Y-10851032D01*
X4254246Y-10841888D01*
X4243019Y-10834166D01*
X4230878Y-10828020D01*
X4217974Y-10823549D01*
X4204614Y-10820806D01*
X4191000Y-10819892D01*
X4177385Y-10820806D01*
X4164025Y-10823549D01*
X4151122Y-10828020D01*
X4138980Y-10834166D01*
X4127754Y-10841888D01*
X4117594Y-10851032D01*
X4108805Y-10861446D01*
X4101490Y-10872927D01*
X4095750Y-10885322D01*
X4091686Y-10898327D01*
X4089450Y-10911789D01*
X4088993Y-10925403D01*
X4090314Y-10938967D01*
X4093514Y-10952226D01*
X4098391Y-10964976D01*
X4104944Y-10976914D01*
X4113022Y-10987887D01*
X4122521Y-10997692D01*
X4133240Y-11006175D01*
X4144975Y-11013135D01*
X4157522Y-11018418D01*
X4170679Y-11022025D01*
G37*
G36*
X4692192Y-11023854D02*
G01*
X4705807Y-11023854D01*
X4719320Y-11022025D01*
X4732477Y-11018418D01*
X4745024Y-11013135D01*
X4756759Y-11006175D01*
X4767478Y-10997692D01*
X4776978Y-10987887D01*
X4785055Y-10976914D01*
X4791608Y-10964976D01*
X4796485Y-10952226D01*
X4799685Y-10938967D01*
X4801006Y-10925403D01*
X4800549Y-10911789D01*
X4798314Y-10898327D01*
X4794250Y-10885322D01*
X4788509Y-10872927D01*
X4781194Y-10861446D01*
X4772406Y-10851032D01*
X4762246Y-10841888D01*
X4751019Y-10834166D01*
X4738878Y-10828020D01*
X4725974Y-10823549D01*
X4712614Y-10820806D01*
X4699000Y-10819892D01*
X4685385Y-10820806D01*
X4672025Y-10823549D01*
X4659122Y-10828020D01*
X4646980Y-10834166D01*
X4635754Y-10841888D01*
X4625594Y-10851032D01*
X4616805Y-10861446D01*
X4609490Y-10872927D01*
X4603750Y-10885322D01*
X4599686Y-10898327D01*
X4597450Y-10911789D01*
X4596993Y-10925403D01*
X4598314Y-10938967D01*
X4601514Y-10952226D01*
X4606391Y-10964976D01*
X4612944Y-10976914D01*
X4621022Y-10987887D01*
X4630521Y-10997692D01*
X4641240Y-11006175D01*
X4652975Y-11013135D01*
X4665522Y-11018418D01*
X4678680Y-11022025D01*
G37*
G36*
X3676192Y-11023854D02*
G01*
X3689807Y-11023854D01*
X3703320Y-11022025D01*
X3716477Y-11018418D01*
X3729024Y-11013135D01*
X3740759Y-11006175D01*
X3751478Y-10997692D01*
X3760978Y-10987887D01*
X3769055Y-10976914D01*
X3775608Y-10964976D01*
X3780485Y-10952226D01*
X3783685Y-10938967D01*
X3785006Y-10925403D01*
X3784549Y-10911789D01*
X3782314Y-10898327D01*
X3778250Y-10885322D01*
X3772509Y-10872927D01*
X3765194Y-10861446D01*
X3756406Y-10851032D01*
X3746246Y-10841888D01*
X3735019Y-10834166D01*
X3722878Y-10828020D01*
X3709974Y-10823549D01*
X3696614Y-10820806D01*
X3683000Y-10819892D01*
X3669385Y-10820806D01*
X3656025Y-10823549D01*
X3643122Y-10828020D01*
X3630980Y-10834166D01*
X3619754Y-10841888D01*
X3609594Y-10851032D01*
X3600805Y-10861446D01*
X3593490Y-10872927D01*
X3587750Y-10885322D01*
X3583686Y-10898327D01*
X3581450Y-10911789D01*
X3580993Y-10925403D01*
X3582314Y-10938967D01*
X3585514Y-10952226D01*
X3590391Y-10964976D01*
X3596944Y-10976914D01*
X3605022Y-10987887D01*
X3614521Y-10997692D01*
X3625240Y-11006175D01*
X3636975Y-11013135D01*
X3649522Y-11018418D01*
X3662679Y-11022025D01*
G37*
G36*
X4946192Y-11023854D02*
G01*
X4959807Y-11023854D01*
X4973320Y-11022025D01*
X4986477Y-11018418D01*
X4999024Y-11013135D01*
X5010759Y-11006175D01*
X5021478Y-10997692D01*
X5030978Y-10987887D01*
X5039055Y-10976914D01*
X5045608Y-10964976D01*
X5050485Y-10952226D01*
X5053685Y-10938967D01*
X5055006Y-10925403D01*
X5054549Y-10911789D01*
X5052314Y-10898327D01*
X5048250Y-10885322D01*
X5042509Y-10872927D01*
X5035194Y-10861446D01*
X5026406Y-10851032D01*
X5016246Y-10841888D01*
X5005019Y-10834166D01*
X4992878Y-10828020D01*
X4979974Y-10823549D01*
X4966614Y-10820806D01*
X4953000Y-10819892D01*
X4939385Y-10820806D01*
X4926025Y-10823549D01*
X4913122Y-10828020D01*
X4900980Y-10834166D01*
X4889754Y-10841888D01*
X4879594Y-10851032D01*
X4870805Y-10861446D01*
X4863490Y-10872927D01*
X4857750Y-10885322D01*
X4853686Y-10898327D01*
X4851450Y-10911789D01*
X4850993Y-10925403D01*
X4852314Y-10938967D01*
X4855514Y-10952226D01*
X4860391Y-10964976D01*
X4866944Y-10976914D01*
X4875022Y-10987887D01*
X4884521Y-10997692D01*
X4895240Y-11006175D01*
X4906975Y-11013135D01*
X4919522Y-11018418D01*
X4932680Y-11022025D01*
G37*
G36*
X2152192Y-11023854D02*
G01*
X2165807Y-11023854D01*
X2179320Y-11022025D01*
X2192477Y-11018418D01*
X2205024Y-11013135D01*
X2216759Y-11006175D01*
X2227478Y-10997692D01*
X2236978Y-10987887D01*
X2245055Y-10976914D01*
X2251608Y-10964976D01*
X2256485Y-10952226D01*
X2259685Y-10938967D01*
X2261006Y-10925403D01*
X2260549Y-10911789D01*
X2258314Y-10898327D01*
X2254250Y-10885322D01*
X2248509Y-10872927D01*
X2241194Y-10861446D01*
X2232406Y-10851032D01*
X2222246Y-10841888D01*
X2211019Y-10834166D01*
X2198878Y-10828020D01*
X2185974Y-10823549D01*
X2172614Y-10820806D01*
X2159000Y-10819892D01*
X2145385Y-10820806D01*
X2132025Y-10823549D01*
X2119122Y-10828020D01*
X2106980Y-10834166D01*
X2095754Y-10841888D01*
X2085593Y-10851032D01*
X2076805Y-10861446D01*
X2069490Y-10872927D01*
X2063750Y-10885322D01*
X2059686Y-10898327D01*
X2057450Y-10911789D01*
X2056993Y-10925403D01*
X2058314Y-10938967D01*
X2061514Y-10952226D01*
X2066391Y-10964976D01*
X2072944Y-10976914D01*
X2081022Y-10987887D01*
X2090521Y-10997692D01*
X2101240Y-11006175D01*
X2112975Y-11013135D01*
X2125522Y-11018418D01*
X2138680Y-11022025D01*
G37*
G36*
X3168192Y-11023854D02*
G01*
X3181807Y-11023854D01*
X3195320Y-11022025D01*
X3208477Y-11018418D01*
X3221024Y-11013135D01*
X3232759Y-11006175D01*
X3243478Y-10997692D01*
X3252978Y-10987887D01*
X3261055Y-10976914D01*
X3267608Y-10964976D01*
X3272485Y-10952226D01*
X3275685Y-10938967D01*
X3277006Y-10925403D01*
X3276549Y-10911789D01*
X3274314Y-10898327D01*
X3270250Y-10885322D01*
X3264509Y-10872927D01*
X3257194Y-10861446D01*
X3248406Y-10851032D01*
X3238246Y-10841888D01*
X3227019Y-10834166D01*
X3214878Y-10828020D01*
X3201974Y-10823549D01*
X3188614Y-10820806D01*
X3175000Y-10819892D01*
X3161385Y-10820806D01*
X3148025Y-10823549D01*
X3135122Y-10828020D01*
X3122980Y-10834166D01*
X3111754Y-10841888D01*
X3101594Y-10851032D01*
X3092805Y-10861446D01*
X3085490Y-10872927D01*
X3079750Y-10885322D01*
X3075686Y-10898327D01*
X3073450Y-10911789D01*
X3072993Y-10925403D01*
X3074314Y-10938967D01*
X3077514Y-10952226D01*
X3082391Y-10964976D01*
X3088944Y-10976914D01*
X3097022Y-10987887D01*
X3106521Y-10997692D01*
X3117240Y-11006175D01*
X3128975Y-11013135D01*
X3141522Y-11018418D01*
X3154680Y-11022025D01*
G37*
G36*
X4438192Y-11023854D02*
G01*
X4451807Y-11023854D01*
X4465320Y-11022025D01*
X4478477Y-11018418D01*
X4491024Y-11013135D01*
X4502759Y-11006175D01*
X4513478Y-10997692D01*
X4522978Y-10987887D01*
X4531055Y-10976914D01*
X4537608Y-10964976D01*
X4542485Y-10952226D01*
X4545685Y-10938967D01*
X4547006Y-10925403D01*
X4546549Y-10911789D01*
X4544314Y-10898327D01*
X4540250Y-10885322D01*
X4534509Y-10872927D01*
X4527194Y-10861446D01*
X4518406Y-10851032D01*
X4508246Y-10841888D01*
X4497019Y-10834166D01*
X4484878Y-10828020D01*
X4471974Y-10823549D01*
X4458614Y-10820806D01*
X4445000Y-10819892D01*
X4431385Y-10820806D01*
X4418025Y-10823549D01*
X4405122Y-10828020D01*
X4392980Y-10834166D01*
X4381754Y-10841888D01*
X4371594Y-10851032D01*
X4362805Y-10861446D01*
X4355490Y-10872927D01*
X4349750Y-10885322D01*
X4345686Y-10898327D01*
X4343450Y-10911789D01*
X4342993Y-10925403D01*
X4344314Y-10938967D01*
X4347514Y-10952226D01*
X4352391Y-10964976D01*
X4358944Y-10976914D01*
X4367022Y-10987887D01*
X4376521Y-10997692D01*
X4387240Y-11006175D01*
X4398975Y-11013135D01*
X4411522Y-11018418D01*
X4424680Y-11022025D01*
G37*
G36*
X3422192Y-11023854D02*
G01*
X3435807Y-11023854D01*
X3449320Y-11022025D01*
X3462477Y-11018418D01*
X3475024Y-11013135D01*
X3486759Y-11006175D01*
X3497478Y-10997692D01*
X3506978Y-10987887D01*
X3515055Y-10976914D01*
X3521608Y-10964976D01*
X3526485Y-10952226D01*
X3529685Y-10938967D01*
X3531006Y-10925403D01*
X3530549Y-10911789D01*
X3528314Y-10898327D01*
X3524250Y-10885322D01*
X3518509Y-10872927D01*
X3511194Y-10861446D01*
X3502406Y-10851032D01*
X3492246Y-10841888D01*
X3481019Y-10834166D01*
X3468878Y-10828020D01*
X3455974Y-10823549D01*
X3442614Y-10820806D01*
X3429000Y-10819892D01*
X3415385Y-10820806D01*
X3402025Y-10823549D01*
X3389122Y-10828020D01*
X3376980Y-10834166D01*
X3365754Y-10841888D01*
X3355594Y-10851032D01*
X3346805Y-10861446D01*
X3339490Y-10872927D01*
X3333750Y-10885322D01*
X3329686Y-10898327D01*
X3327450Y-10911789D01*
X3326993Y-10925403D01*
X3328314Y-10938967D01*
X3331514Y-10952226D01*
X3336391Y-10964976D01*
X3342944Y-10976914D01*
X3351022Y-10987887D01*
X3360521Y-10997692D01*
X3371240Y-11006175D01*
X3382975Y-11013135D01*
X3395522Y-11018418D01*
X3408679Y-11022025D01*
G37*
G36*
X5454192Y-11023854D02*
G01*
X5467807Y-11023854D01*
X5481320Y-11022025D01*
X5494477Y-11018418D01*
X5507024Y-11013135D01*
X5518759Y-11006175D01*
X5529478Y-10997692D01*
X5538978Y-10987887D01*
X5547055Y-10976914D01*
X5553608Y-10964976D01*
X5558485Y-10952226D01*
X5561685Y-10938967D01*
X5563006Y-10925403D01*
X5562549Y-10911789D01*
X5560314Y-10898327D01*
X5556250Y-10885322D01*
X5550509Y-10872927D01*
X5543194Y-10861446D01*
X5534406Y-10851032D01*
X5524246Y-10841888D01*
X5513019Y-10834166D01*
X5500878Y-10828020D01*
X5487974Y-10823549D01*
X5474614Y-10820806D01*
X5461000Y-10819892D01*
X5447385Y-10820806D01*
X5434025Y-10823549D01*
X5421122Y-10828020D01*
X5408980Y-10834166D01*
X5397754Y-10841888D01*
X5387594Y-10851032D01*
X5378805Y-10861446D01*
X5371490Y-10872927D01*
X5365750Y-10885322D01*
X5361686Y-10898327D01*
X5359450Y-10911789D01*
X5358993Y-10925403D01*
X5360314Y-10938967D01*
X5363514Y-10952226D01*
X5368391Y-10964976D01*
X5374944Y-10976914D01*
X5383022Y-10987887D01*
X5392521Y-10997692D01*
X5403240Y-11006175D01*
X5414975Y-11013135D01*
X5427522Y-11018418D01*
X5440680Y-11022025D01*
G37*
G36*
X1898192Y-11023854D02*
G01*
X1911807Y-11023854D01*
X1925320Y-11022025D01*
X1938477Y-11018418D01*
X1951024Y-11013135D01*
X1962759Y-11006175D01*
X1973478Y-10997692D01*
X1982978Y-10987887D01*
X1991055Y-10976914D01*
X1997608Y-10964976D01*
X2002485Y-10952226D01*
X2005685Y-10938967D01*
X2007006Y-10925403D01*
X2006549Y-10911789D01*
X2004314Y-10898327D01*
X2000250Y-10885322D01*
X1994509Y-10872927D01*
X1987194Y-10861446D01*
X1978406Y-10851032D01*
X1968246Y-10841888D01*
X1957019Y-10834166D01*
X1944878Y-10828020D01*
X1931974Y-10823549D01*
X1918614Y-10820806D01*
X1905000Y-10819892D01*
X1891385Y-10820806D01*
X1878025Y-10823549D01*
X1865122Y-10828020D01*
X1852980Y-10834166D01*
X1841754Y-10841888D01*
X1831593Y-10851032D01*
X1822805Y-10861446D01*
X1815490Y-10872927D01*
X1809750Y-10885322D01*
X1805686Y-10898327D01*
X1803450Y-10911789D01*
X1802993Y-10925403D01*
X1804314Y-10938967D01*
X1807514Y-10952226D01*
X1812391Y-10964976D01*
X1818944Y-10976914D01*
X1827022Y-10987887D01*
X1836521Y-10997692D01*
X1847240Y-11006175D01*
X1858975Y-11013135D01*
X1871522Y-11018418D01*
X1884680Y-11022025D01*
G37*
G36*
X882192Y-11023854D02*
G01*
X895807Y-11023854D01*
X909319Y-11022025D01*
X922477Y-11018418D01*
X935024Y-11013135D01*
X946759Y-11006175D01*
X957478Y-10997692D01*
X966978Y-10987887D01*
X975055Y-10976914D01*
X981608Y-10964976D01*
X986485Y-10952226D01*
X989685Y-10938967D01*
X991006Y-10925403D01*
X990549Y-10911789D01*
X988314Y-10898327D01*
X984250Y-10885322D01*
X978509Y-10872927D01*
X971194Y-10861446D01*
X962406Y-10851032D01*
X952246Y-10841888D01*
X941019Y-10834166D01*
X928878Y-10828020D01*
X915974Y-10823549D01*
X902614Y-10820806D01*
X889000Y-10819892D01*
X875385Y-10820806D01*
X862025Y-10823549D01*
X849121Y-10828020D01*
X836980Y-10834166D01*
X825753Y-10841888D01*
X815594Y-10851032D01*
X806805Y-10861446D01*
X799490Y-10872927D01*
X793750Y-10885322D01*
X789686Y-10898327D01*
X787450Y-10911789D01*
X786993Y-10925403D01*
X788314Y-10938967D01*
X791514Y-10952226D01*
X796391Y-10964976D01*
X802944Y-10976914D01*
X811022Y-10987887D01*
X820521Y-10997692D01*
X831240Y-11006175D01*
X842975Y-11013135D01*
X855522Y-11018418D01*
X868680Y-11022025D01*
G37*
G36*
X1644192Y-11023854D02*
G01*
X1657807Y-11023854D01*
X1671320Y-11022025D01*
X1684477Y-11018418D01*
X1697024Y-11013135D01*
X1708759Y-11006175D01*
X1719478Y-10997692D01*
X1728978Y-10987887D01*
X1737055Y-10976914D01*
X1743608Y-10964976D01*
X1748485Y-10952226D01*
X1751685Y-10938967D01*
X1753006Y-10925403D01*
X1752549Y-10911789D01*
X1750314Y-10898327D01*
X1746250Y-10885322D01*
X1740509Y-10872927D01*
X1733194Y-10861446D01*
X1724406Y-10851032D01*
X1714246Y-10841888D01*
X1703019Y-10834166D01*
X1690878Y-10828020D01*
X1677974Y-10823549D01*
X1664614Y-10820806D01*
X1651000Y-10819892D01*
X1637385Y-10820806D01*
X1624025Y-10823549D01*
X1611122Y-10828020D01*
X1598980Y-10834166D01*
X1587754Y-10841888D01*
X1577594Y-10851032D01*
X1568805Y-10861446D01*
X1561490Y-10872927D01*
X1555750Y-10885322D01*
X1551686Y-10898327D01*
X1549450Y-10911789D01*
X1548993Y-10925403D01*
X1550314Y-10938967D01*
X1553514Y-10952226D01*
X1558391Y-10964976D01*
X1564944Y-10976914D01*
X1573022Y-10987887D01*
X1582521Y-10997692D01*
X1593240Y-11006175D01*
X1604975Y-11013135D01*
X1617522Y-11018418D01*
X1630680Y-11022025D01*
G37*
G36*
X1136192Y-11023854D02*
G01*
X1149807Y-11023854D01*
X1163320Y-11022025D01*
X1176477Y-11018418D01*
X1189024Y-11013135D01*
X1200759Y-11006175D01*
X1211478Y-10997692D01*
X1220978Y-10987887D01*
X1229055Y-10976914D01*
X1235608Y-10964976D01*
X1240485Y-10952226D01*
X1243685Y-10938967D01*
X1245006Y-10925403D01*
X1244549Y-10911789D01*
X1242314Y-10898327D01*
X1238250Y-10885322D01*
X1232509Y-10872927D01*
X1225194Y-10861446D01*
X1216406Y-10851032D01*
X1206246Y-10841888D01*
X1195019Y-10834166D01*
X1182878Y-10828020D01*
X1169974Y-10823549D01*
X1156614Y-10820806D01*
X1143000Y-10819892D01*
X1129385Y-10820806D01*
X1116025Y-10823549D01*
X1103122Y-10828020D01*
X1090980Y-10834166D01*
X1079754Y-10841888D01*
X1069594Y-10851032D01*
X1060805Y-10861446D01*
X1053490Y-10872927D01*
X1047750Y-10885322D01*
X1043686Y-10898327D01*
X1041450Y-10911789D01*
X1040993Y-10925403D01*
X1042314Y-10938967D01*
X1045514Y-10952226D01*
X1050391Y-10964976D01*
X1056944Y-10976914D01*
X1065022Y-10987887D01*
X1074521Y-10997692D01*
X1085240Y-11006175D01*
X1096975Y-11013135D01*
X1109522Y-11018418D01*
X1122680Y-11022025D01*
G37*
G36*
X5708192Y-11023854D02*
G01*
X5721807Y-11023854D01*
X5735320Y-11022025D01*
X5748477Y-11018418D01*
X5761024Y-11013135D01*
X5772759Y-11006175D01*
X5783478Y-10997692D01*
X5792978Y-10987887D01*
X5801055Y-10976914D01*
X5807608Y-10964976D01*
X5812485Y-10952226D01*
X5815685Y-10938967D01*
X5817006Y-10925403D01*
X5816549Y-10911789D01*
X5814314Y-10898327D01*
X5810250Y-10885322D01*
X5804509Y-10872927D01*
X5802426Y-10869676D01*
X5800953Y-10865612D01*
X5801258Y-10861294D01*
X5803392Y-10857484D01*
X5806897Y-10854944D01*
X5811164Y-10854080D01*
X5815380Y-10855045D01*
X5818632Y-10856569D01*
X5828842Y-10859566D01*
X5839358Y-10860836D01*
X5849924Y-10860379D01*
X5860338Y-10858296D01*
X5870244Y-10854537D01*
X5879439Y-10849203D01*
X5887618Y-10842498D01*
X5894679Y-10834573D01*
X5900318Y-10825632D01*
X5904484Y-10815878D01*
X5907024Y-10805566D01*
X5907887Y-10795000D01*
X5907024Y-10784433D01*
X5904484Y-10774121D01*
X5900318Y-10764367D01*
X5894679Y-10755426D01*
X5887618Y-10747502D01*
X5879439Y-10740796D01*
X5870244Y-10735462D01*
X5860338Y-10731703D01*
X5849924Y-10729620D01*
X5839358Y-10729163D01*
X5828842Y-10730433D01*
X5818632Y-10733430D01*
X5809081Y-10737951D01*
X5800344Y-10743996D01*
X5797956Y-10746282D01*
X5794705Y-10748365D01*
X5790895Y-10749076D01*
X5738215Y-10749076D01*
X5734354Y-10748314D01*
X5731052Y-10746130D01*
X5509869Y-10524947D01*
X5507685Y-10521645D01*
X5506923Y-10517784D01*
X5506872Y-9967722D01*
X5505653Y-9958984D01*
X5502960Y-9950958D01*
X5498846Y-9943592D01*
X5493105Y-9936683D01*
X5402580Y-9846157D01*
X5400548Y-9843262D01*
X5399633Y-9839807D01*
X5399024Y-9831933D01*
X5396484Y-9821621D01*
X5392318Y-9811867D01*
X5386679Y-9802926D01*
X5379618Y-9795002D01*
X5371439Y-9788296D01*
X5362244Y-9782962D01*
X5352338Y-9779203D01*
X5341924Y-9777120D01*
X5331358Y-9776663D01*
X5320842Y-9777933D01*
X5310632Y-9780930D01*
X5301081Y-9785451D01*
X5292344Y-9791496D01*
X5284673Y-9798812D01*
X5278323Y-9807295D01*
X5273395Y-9816693D01*
X5270042Y-9826752D01*
X5268315Y-9837216D01*
X5268315Y-9847783D01*
X5270042Y-9858248D01*
X5273395Y-9868306D01*
X5278323Y-9877704D01*
X5284673Y-9886188D01*
X5292344Y-9893503D01*
X5301081Y-9899548D01*
X5310632Y-9904069D01*
X5320842Y-9907066D01*
X5331917Y-9908387D01*
X5335117Y-9909352D01*
X5337860Y-9911283D01*
X5412130Y-9985552D01*
X5414314Y-9988854D01*
X5415076Y-9992715D01*
X5415127Y-10542778D01*
X5416346Y-10551515D01*
X5419039Y-10559542D01*
X5423154Y-10566908D01*
X5428894Y-10573816D01*
X5670499Y-10815421D01*
X5672632Y-10818571D01*
X5673496Y-10822279D01*
X5672886Y-10826089D01*
X5670905Y-10829340D01*
X5667908Y-10831677D01*
X5662980Y-10834166D01*
X5651754Y-10841888D01*
X5641594Y-10851032D01*
X5632805Y-10861446D01*
X5625490Y-10872927D01*
X5619750Y-10885322D01*
X5615686Y-10898327D01*
X5613450Y-10911789D01*
X5612993Y-10925403D01*
X5614314Y-10938967D01*
X5617514Y-10952226D01*
X5622391Y-10964976D01*
X5628944Y-10976914D01*
X5637022Y-10987887D01*
X5646521Y-10997692D01*
X5657240Y-11006175D01*
X5668975Y-11013135D01*
X5681522Y-11018418D01*
X5694680Y-11022025D01*
G37*
G36*
X3834892Y-10877550D02*
G01*
X3892550Y-10877550D01*
X3892550Y-10819892D01*
X3861358Y-10819892D01*
X3855059Y-10820603D01*
X3849573Y-10822533D01*
X3844696Y-10825581D01*
X3840581Y-10829696D01*
X3837533Y-10834573D01*
X3835603Y-10840059D01*
X3834892Y-10846358D01*
G37*
G36*
X3981450Y-10877550D02*
G01*
X4039108Y-10877550D01*
X4039108Y-10846358D01*
X4038396Y-10840059D01*
X4036466Y-10834573D01*
X4033418Y-10829696D01*
X4029303Y-10825581D01*
X4024426Y-10822533D01*
X4018940Y-10820603D01*
X4012641Y-10819892D01*
X3981450Y-10819892D01*
G37*
G36*
X1294892Y-10877550D02*
G01*
X1352550Y-10877550D01*
X1352550Y-10819892D01*
X1321358Y-10819892D01*
X1315059Y-10820603D01*
X1309573Y-10822533D01*
X1304696Y-10825581D01*
X1300581Y-10829696D01*
X1297533Y-10834573D01*
X1295603Y-10840059D01*
X1294892Y-10846358D01*
G37*
G36*
X5251450Y-10877550D02*
G01*
X5309108Y-10877550D01*
X5309108Y-10846358D01*
X5308396Y-10840059D01*
X5306466Y-10834573D01*
X5303418Y-10829696D01*
X5299303Y-10825581D01*
X5294426Y-10822533D01*
X5288940Y-10820603D01*
X5282641Y-10819892D01*
X5251450Y-10819892D01*
G37*
G36*
X5104892Y-10877550D02*
G01*
X5162550Y-10877550D01*
X5162550Y-10819892D01*
X5131358Y-10819892D01*
X5125059Y-10820603D01*
X5119573Y-10822533D01*
X5114696Y-10825581D01*
X5110581Y-10829696D01*
X5107533Y-10834573D01*
X5105603Y-10840059D01*
X5104892Y-10846358D01*
G37*
G36*
X1441450Y-10877550D02*
G01*
X1499108Y-10877550D01*
X1499108Y-10846358D01*
X1498396Y-10840059D01*
X1496466Y-10834573D01*
X1493418Y-10829696D01*
X1489303Y-10825581D01*
X1484426Y-10822533D01*
X1478940Y-10820603D01*
X1472641Y-10819892D01*
X1441450Y-10819892D01*
G37*
G36*
X2842818Y-10582148D02*
G01*
X2999181Y-10582148D01*
X3005480Y-10581436D01*
X3010966Y-10579506D01*
X3015843Y-10576458D01*
X3019958Y-10572343D01*
X3023006Y-10567466D01*
X3024936Y-10561980D01*
X3025648Y-10555681D01*
X3025648Y-10399318D01*
X3024936Y-10393019D01*
X3023006Y-10387533D01*
X3019958Y-10382656D01*
X3015843Y-10378541D01*
X3010966Y-10375493D01*
X3005480Y-10373563D01*
X2999181Y-10372852D01*
X2842818Y-10372852D01*
X2836519Y-10373563D01*
X2831033Y-10375493D01*
X2826156Y-10378541D01*
X2822041Y-10382656D01*
X2818993Y-10387533D01*
X2817063Y-10393019D01*
X2816352Y-10399318D01*
X2816352Y-10555681D01*
X2817063Y-10561980D01*
X2818993Y-10567466D01*
X2822041Y-10572343D01*
X2826156Y-10576458D01*
X2831033Y-10579506D01*
X2836519Y-10581436D01*
G37*
G36*
X2156358Y-10162336D02*
G01*
X2166924Y-10161879D01*
X2177338Y-10159796D01*
X2187244Y-10156037D01*
X2196439Y-10150703D01*
X2203805Y-10144709D01*
X2206802Y-10142982D01*
X2210206Y-10142423D01*
X2361895Y-10142423D01*
X2365705Y-10143134D01*
X2368956Y-10145217D01*
X2371344Y-10147503D01*
X2380081Y-10153548D01*
X2389632Y-10158069D01*
X2399842Y-10161066D01*
X2410358Y-10162336D01*
X2420924Y-10161879D01*
X2431338Y-10159796D01*
X2441244Y-10156037D01*
X2450439Y-10150703D01*
X2458618Y-10143998D01*
X2465679Y-10136073D01*
X2471318Y-10127132D01*
X2475484Y-10117378D01*
X2478024Y-10107066D01*
X2478887Y-10096500D01*
X2478024Y-10085933D01*
X2475484Y-10075621D01*
X2471318Y-10065867D01*
X2465679Y-10056926D01*
X2458618Y-10049002D01*
X2450439Y-10042296D01*
X2441244Y-10036962D01*
X2431338Y-10033203D01*
X2420924Y-10031120D01*
X2410358Y-10030663D01*
X2399842Y-10031933D01*
X2389632Y-10034930D01*
X2380081Y-10039451D01*
X2371344Y-10045496D01*
X2368956Y-10047782D01*
X2365705Y-10049865D01*
X2361895Y-10050576D01*
X2210206Y-10050576D01*
X2206802Y-10050018D01*
X2203805Y-10048290D01*
X2196439Y-10042296D01*
X2187244Y-10036962D01*
X2177338Y-10033203D01*
X2166924Y-10031120D01*
X2156358Y-10030663D01*
X2145842Y-10031933D01*
X2135632Y-10034930D01*
X2126081Y-10039451D01*
X2117344Y-10045496D01*
X2109673Y-10052812D01*
X2103323Y-10061295D01*
X2098395Y-10070693D01*
X2095042Y-10080752D01*
X2093315Y-10091216D01*
X2093315Y-10101783D01*
X2095042Y-10112248D01*
X2098395Y-10122306D01*
X2103323Y-10131704D01*
X2109673Y-10140188D01*
X2117344Y-10147503D01*
X2126081Y-10153548D01*
X2135632Y-10158069D01*
X2145842Y-10161066D01*
G37*
G36*
X3108858Y-10162336D02*
G01*
X3119424Y-10161879D01*
X3129838Y-10159796D01*
X3139744Y-10156037D01*
X3148939Y-10150703D01*
X3157118Y-10143998D01*
X3164179Y-10136073D01*
X3169818Y-10127132D01*
X3173984Y-10117378D01*
X3176524Y-10107066D01*
X3177133Y-10099192D01*
X3178048Y-10095738D01*
X3180080Y-10092842D01*
X3508552Y-9764369D01*
X3511854Y-9762185D01*
X3515715Y-9761423D01*
X4520895Y-9761423D01*
X4524705Y-9762134D01*
X4527956Y-9764217D01*
X4530344Y-9766503D01*
X4539081Y-9772548D01*
X4548632Y-9777069D01*
X4558842Y-9780066D01*
X4569358Y-9781336D01*
X4579924Y-9780879D01*
X4590338Y-9778796D01*
X4600244Y-9775037D01*
X4609439Y-9769703D01*
X4617618Y-9762998D01*
X4624679Y-9755073D01*
X4630318Y-9746132D01*
X4634484Y-9736378D01*
X4637024Y-9726066D01*
X4637887Y-9715500D01*
X4637024Y-9704933D01*
X4634484Y-9694621D01*
X4630318Y-9684867D01*
X4624679Y-9675926D01*
X4617618Y-9668002D01*
X4609439Y-9661296D01*
X4600244Y-9655962D01*
X4590338Y-9652203D01*
X4579924Y-9650120D01*
X4569358Y-9649663D01*
X4558842Y-9650933D01*
X4548632Y-9653930D01*
X4539081Y-9658451D01*
X4530344Y-9664496D01*
X4527956Y-9666782D01*
X4524705Y-9668865D01*
X4520895Y-9669576D01*
X3490722Y-9669627D01*
X3481984Y-9670846D01*
X3473958Y-9673539D01*
X3466592Y-9677654D01*
X3459683Y-9683394D01*
X3115360Y-10027716D01*
X3112617Y-10029647D01*
X3109417Y-10030612D01*
X3098342Y-10031933D01*
X3088132Y-10034930D01*
X3078581Y-10039451D01*
X3069844Y-10045496D01*
X3062173Y-10052812D01*
X3055823Y-10061295D01*
X3050895Y-10070693D01*
X3047542Y-10080752D01*
X3045815Y-10091216D01*
X3045815Y-10101783D01*
X3047542Y-10112248D01*
X3050895Y-10122306D01*
X3055823Y-10131704D01*
X3062173Y-10140188D01*
X3069844Y-10147503D01*
X3078581Y-10153548D01*
X3088132Y-10158069D01*
X3098342Y-10161066D01*
G37*
G36*
X6081318Y-10010648D02*
G01*
X6237681Y-10010648D01*
X6243980Y-10009936D01*
X6249466Y-10008006D01*
X6254343Y-10004958D01*
X6258458Y-10000843D01*
X6261506Y-9995966D01*
X6263436Y-9990480D01*
X6264148Y-9984181D01*
X6264148Y-9827818D01*
X6263436Y-9821519D01*
X6261506Y-9816033D01*
X6258458Y-9811156D01*
X6254343Y-9807041D01*
X6249466Y-9803993D01*
X6243980Y-9802063D01*
X6237681Y-9801352D01*
X6081318Y-9801352D01*
X6075019Y-9802063D01*
X6069533Y-9803993D01*
X6064656Y-9807041D01*
X6060541Y-9811156D01*
X6057493Y-9816033D01*
X6055563Y-9821519D01*
X6054852Y-9827818D01*
X6054852Y-9984181D01*
X6055563Y-9990480D01*
X6057493Y-9995966D01*
X6060541Y-10000843D01*
X6064656Y-10004958D01*
X6069533Y-10008006D01*
X6075019Y-10009936D01*
G37*
G36*
X4366818Y-9439148D02*
G01*
X4523181Y-9439148D01*
X4529480Y-9438436D01*
X4534966Y-9436506D01*
X4539843Y-9433458D01*
X4543958Y-9429343D01*
X4547006Y-9424466D01*
X4548936Y-9418980D01*
X4549648Y-9412681D01*
X4549648Y-9256318D01*
X4548936Y-9250019D01*
X4547006Y-9244533D01*
X4543958Y-9239656D01*
X4539843Y-9235541D01*
X4534966Y-9232493D01*
X4529480Y-9230563D01*
X4523181Y-9229852D01*
X4366818Y-9229852D01*
X4360519Y-9230563D01*
X4355033Y-9232493D01*
X4350156Y-9235541D01*
X4346041Y-9239656D01*
X4342993Y-9244533D01*
X4341063Y-9250019D01*
X4340352Y-9256318D01*
X4340352Y-9412681D01*
X4341063Y-9418980D01*
X4342993Y-9424466D01*
X4346041Y-9429343D01*
X4350156Y-9433458D01*
X4355033Y-9436506D01*
X4360519Y-9438436D01*
G37*
G36*
X1020876Y-9408363D02*
G01*
X1040231Y-9406940D01*
X1059332Y-9403689D01*
X1078077Y-9398558D01*
X1096213Y-9391700D01*
X1113637Y-9383064D01*
X1130147Y-9372854D01*
X1145540Y-9361068D01*
X1159764Y-9347809D01*
X1172616Y-9333280D01*
X1184046Y-9317583D01*
X1193901Y-9300870D01*
X1202080Y-9283242D01*
X1208532Y-9264954D01*
X1213154Y-9246108D01*
X1215948Y-9226905D01*
X1216914Y-9207500D01*
X1215948Y-9188094D01*
X1213154Y-9168892D01*
X1208532Y-9150045D01*
X1202080Y-9131757D01*
X1193901Y-9114129D01*
X1184046Y-9097416D01*
X1172616Y-9081719D01*
X1159764Y-9067190D01*
X1145540Y-9053931D01*
X1130147Y-9042146D01*
X1113637Y-9031935D01*
X1096213Y-9023299D01*
X1078077Y-9016441D01*
X1059332Y-9011361D01*
X1040231Y-9008059D01*
X1020876Y-9006636D01*
X1001471Y-9007144D01*
X982167Y-9009481D01*
X963218Y-9013647D01*
X944778Y-9019641D01*
X926947Y-9027414D01*
X909980Y-9036862D01*
X894029Y-9047886D01*
X879195Y-9060383D01*
X865632Y-9074302D01*
X853490Y-9089440D01*
X842822Y-9105646D01*
X833831Y-9122867D01*
X826516Y-9140799D01*
X820928Y-9159443D01*
X817219Y-9178493D01*
X815340Y-9197797D01*
X815340Y-9217202D01*
X817219Y-9236506D01*
X820928Y-9255556D01*
X826516Y-9274200D01*
X833831Y-9292183D01*
X842822Y-9309354D01*
X853490Y-9325559D01*
X865632Y-9340697D01*
X879195Y-9354616D01*
X894029Y-9367113D01*
X909980Y-9378137D01*
X926947Y-9387586D01*
X944778Y-9395358D01*
X963218Y-9401352D01*
X982167Y-9405518D01*
X1001471Y-9407855D01*
G37*
G36*
X6545376Y-9408363D02*
G01*
X6564731Y-9406940D01*
X6583832Y-9403689D01*
X6602577Y-9398558D01*
X6620713Y-9391700D01*
X6638137Y-9383064D01*
X6654647Y-9372854D01*
X6670040Y-9361068D01*
X6684264Y-9347809D01*
X6697116Y-9333280D01*
X6708546Y-9317583D01*
X6718401Y-9300870D01*
X6726580Y-9283242D01*
X6733031Y-9264954D01*
X6737654Y-9246108D01*
X6740448Y-9226905D01*
X6741414Y-9207500D01*
X6740448Y-9188094D01*
X6737654Y-9168892D01*
X6733031Y-9150045D01*
X6726580Y-9131757D01*
X6718401Y-9114129D01*
X6708546Y-9097416D01*
X6697116Y-9081719D01*
X6684264Y-9067190D01*
X6670040Y-9053931D01*
X6654647Y-9042146D01*
X6638137Y-9031935D01*
X6620713Y-9023299D01*
X6602577Y-9016441D01*
X6583832Y-9011361D01*
X6564731Y-9008059D01*
X6545376Y-9006636D01*
X6525971Y-9007144D01*
X6506667Y-9009481D01*
X6487718Y-9013647D01*
X6469278Y-9019641D01*
X6451447Y-9027414D01*
X6434480Y-9036862D01*
X6418529Y-9047886D01*
X6403695Y-9060383D01*
X6390132Y-9074302D01*
X6377990Y-9089440D01*
X6367322Y-9105646D01*
X6358331Y-9122867D01*
X6351016Y-9140799D01*
X6345428Y-9159443D01*
X6341719Y-9178493D01*
X6339840Y-9197797D01*
X6339840Y-9217202D01*
X6341719Y-9236506D01*
X6345428Y-9255556D01*
X6351016Y-9274200D01*
X6358331Y-9292183D01*
X6367322Y-9309354D01*
X6377990Y-9325559D01*
X6390132Y-9340697D01*
X6403695Y-9354616D01*
X6418529Y-9367113D01*
X6434480Y-9378137D01*
X6451447Y-9387586D01*
X6469278Y-9395358D01*
X6487718Y-9401352D01*
X6506667Y-9405518D01*
X6525971Y-9407855D01*
G37*

%LPD*%
D11*
X4572000Y-9715500D02*
G01*
X3492500Y-9715500D01*
X3111500Y-10096500D01*
X2159000Y-10096500D02*
G01*
X2413000Y-10096500D01*
X5842000Y-10795000D02*
G01*
X5715000Y-10795000D01*
X5461000Y-10541000D01*
X5334000Y-9842500D02*
G01*
X5461000Y-9969500D01*
X5461000Y-10541000D01*
D10*
X2032000Y-11493500D02*
G01*
X2413000Y-11493500D01*
D31*
G01*
X4034790Y-13525500D03*
G01*
X4034790Y-13271500D03*
G01*
X4034790Y-13779500D03*
G01*
X889000Y-12700000D03*
G01*
X1143000Y-12700000D03*
D32*
G01*
X1397000Y-12700000D03*
G01*
X5207000Y-12700000D03*
D31*
G01*
X5461000Y-12700000D03*
G01*
X5715000Y-12700000D03*
G01*
X5715000Y-10922000D03*
G01*
X5461000Y-10922000D03*
D32*
G01*
X5207000Y-10922000D03*
D31*
G01*
X4953000Y-10922000D03*
G01*
X4699000Y-10922000D03*
G01*
X4445000Y-10922000D03*
G01*
X4191000Y-10922000D03*
D32*
G01*
X3937000Y-10922000D03*
D31*
G01*
X3683000Y-10922000D03*
G01*
X3429000Y-10922000D03*
G01*
X3175000Y-10922000D03*
G01*
X2921000Y-10922000D03*
D32*
G01*
X2667000Y-10922000D03*
D31*
G01*
X2413000Y-10922000D03*
G01*
X2159000Y-10922000D03*
G01*
X1905000Y-10922000D03*
G01*
X1651000Y-10922000D03*
D32*
G01*
X1397000Y-10922000D03*
D31*
G01*
X1143000Y-10922000D03*
G01*
X889000Y-10922000D03*
G01*
X5692013Y-12065000D03*
D32*
G01*
X5692013Y-11811000D03*
D31*
G01*
X5692013Y-11557000D03*
G01*
X1651000Y-12700000D03*
G01*
X1905000Y-12700000D03*
G01*
X2159000Y-12700000D03*
G01*
X2413000Y-12700000D03*
D32*
G01*
X2667000Y-12700000D03*
D31*
G01*
X2921000Y-12700000D03*
G01*
X3175000Y-12700000D03*
G01*
X3429000Y-12700000D03*
G01*
X3683000Y-12700000D03*
D32*
G01*
X3937000Y-12700000D03*
D31*
G01*
X4191000Y-12700000D03*
G01*
X4445000Y-12700000D03*
G01*
X4699000Y-12700000D03*
G01*
X4953000Y-12700000D03*
D33*
G01*
X6159500Y-9906000D03*
G01*
X4445000Y-9334500D03*
G01*
X5524500Y-13208000D03*
G36*
X4874259Y-13891260D02*
G01*
X5031740Y-13891260D01*
X5031740Y-14048739D01*
X4874259Y-14048739D01*
G37*
G36*
X2842259Y-10398760D02*
G01*
X2999740Y-10398760D01*
X2999740Y-10556239D01*
X2842259Y-10556239D01*
G37*
G01*
X6667500Y-12065000D03*
G01*
X6159500Y-11239500D03*
D34*
G01*
X6350000Y-12065000D03*
D35*
G01*
X6096000Y-12065000D03*
G01*
X6350000Y-11811000D03*
G01*
X6096000Y-11811000D03*
G01*
X6350000Y-11557000D03*
G01*
X6096000Y-11557000D03*
D15*
G01*
X2413000Y-10096500D03*
G01*
X2159000Y-10096500D03*
D16*
G01*
X2413000Y-11493500D03*
D15*
G01*
X2032000Y-11493500D03*
G01*
X4572000Y-9715500D03*
G01*
X5334000Y-9842500D03*
G01*
X5842000Y-10795000D03*
G01*
X3111500Y-10096500D03*
D16*
G01*
X2286000Y-13462000D03*
G01*
X4508500Y-13652500D03*
G01*
X2032000Y-13970000D03*
G01*
X5969000Y-10604500D03*
G01*
X3746500Y-9334500D03*
G01*
X2921000Y-9461500D03*
D17*
G01*
X818413Y-8997213D03*
G01*
X818413Y-9505213D03*
G01*
X818413Y-10013213D03*
G01*
X818413Y-11537213D03*
G01*
X818413Y-12045213D03*
G01*
X818413Y-12553213D03*
G01*
X818413Y-13061213D03*
G01*
X818413Y-13569213D03*
G01*
X818413Y-14077213D03*
G01*
X1326413Y-8997213D03*
G01*
X1326413Y-9505213D03*
G01*
X1326413Y-10013213D03*
G01*
X1326413Y-10521213D03*
G01*
X1326413Y-11537213D03*
G01*
X1326413Y-13061213D03*
G01*
X1326413Y-13569213D03*
G01*
X1326413Y-14077213D03*
G01*
X1326413Y-14585213D03*
G01*
X1834413Y-8997213D03*
G01*
X1834413Y-9505213D03*
G01*
X1834413Y-10013213D03*
G01*
X1834413Y-11537213D03*
G01*
X1834413Y-12045213D03*
G01*
X1834413Y-13061213D03*
G01*
X1834413Y-14585213D03*
G01*
X2342413Y-8997213D03*
G01*
X2342413Y-14585213D03*
G01*
X2850413Y-8997213D03*
G01*
X2850413Y-11537213D03*
G01*
X2850413Y-12045213D03*
G01*
X2850413Y-12553213D03*
G01*
X2850413Y-13061213D03*
G01*
X2850413Y-13569213D03*
G01*
X2850413Y-14585213D03*
G01*
X3358413Y-8997213D03*
G01*
X3358413Y-10521213D03*
G01*
X3358413Y-11537213D03*
G01*
X3358413Y-12045213D03*
G01*
X3358413Y-12553213D03*
G01*
X3358413Y-13061213D03*
G01*
X3358413Y-13569213D03*
G01*
X3358413Y-14585213D03*
G01*
X3866413Y-8997213D03*
G01*
X3866413Y-11537213D03*
G01*
X3866413Y-12045213D03*
G01*
X3866413Y-13061213D03*
G01*
X3866413Y-14585213D03*
G01*
X4374413Y-8997213D03*
G01*
X4374413Y-9505213D03*
G01*
X4374413Y-10013213D03*
G01*
X4374413Y-10521213D03*
G01*
X4374413Y-14585213D03*
G01*
X4882413Y-8997213D03*
G01*
X4882413Y-9505213D03*
G01*
X4882413Y-10013213D03*
G01*
X4882413Y-11537213D03*
G01*
X4882413Y-12045213D03*
G01*
X4882413Y-12553213D03*
G01*
X4882413Y-14585213D03*
G01*
X5390413Y-8997213D03*
G01*
X5390413Y-11537213D03*
G01*
X5390413Y-12045213D03*
G01*
X5390413Y-12553213D03*
G01*
X5390413Y-13061213D03*
G01*
X5390413Y-14585213D03*
G01*
X5898413Y-8997213D03*
G01*
X5898413Y-9505213D03*
G01*
X5898413Y-10013213D03*
G01*
X5898413Y-11537213D03*
G01*
X5898413Y-12045213D03*
G01*
X5898413Y-12553213D03*
G01*
X5898413Y-13061213D03*
G01*
X5898413Y-13569213D03*
G01*
X5898413Y-14077213D03*
G01*
X5898413Y-14585213D03*
G01*
X6406413Y-9505213D03*
G01*
X6406413Y-10013213D03*
G01*
X6406413Y-10521213D03*
G01*
X6406413Y-13061213D03*
G01*
X6406413Y-13569213D03*
G01*
X6406413Y-14077213D03*
M02*
