G04 Layer: TopSolderMaskLayer*
G04 EasyEDA v6.4.31, 2022-02-22 16:37:49*
G04 daaedd2a32134c9ca592902a83472a49,9a5be75d700b4a6385dc1106f27949ae,10*
G04 Gerber Generator version 0.2*
G04 Scale: 100 percent, Rotated: No, Reflected: No *
G04 Dimensions in millimeters *
G04 leading zeros omitted , absolute positions ,4 integer and 5 decimal *
%FSLAX45Y45*%
%MOMM*%

%ADD40C,0.6756*%
%ADD45C,1.6256*%
%ADD50C,1.7272*%
%ADD51R,1.7272X1.7272*%
%ADD60C,1.8016*%

%LPD*%
D40*
X5270500Y-10109710D02*
G01*
X5270500Y-10256111D01*
X5397500Y-10109710D02*
G01*
X5397500Y-10256111D01*
X5524500Y-10109710D02*
G01*
X5524500Y-10256111D01*
X5651500Y-10109710D02*
G01*
X5651500Y-10256111D01*
X5270500Y-9555888D02*
G01*
X5270500Y-9702289D01*
X5397500Y-9555888D02*
G01*
X5397500Y-9702289D01*
X5524500Y-9555888D02*
G01*
X5524500Y-9702289D01*
X5651500Y-9555888D02*
G01*
X5651500Y-9702289D01*
X3569210Y-9969500D02*
G01*
X3715611Y-9969500D01*
X3569210Y-9842500D02*
G01*
X3715611Y-9842500D01*
X3569210Y-9715500D02*
G01*
X3715611Y-9715500D01*
X3569210Y-9588500D02*
G01*
X3715611Y-9588500D01*
X3015388Y-9969500D02*
G01*
X3161789Y-9969500D01*
X3015388Y-9842500D02*
G01*
X3161789Y-9842500D01*
X3015388Y-9715500D02*
G01*
X3161789Y-9715500D01*
X3015388Y-9588500D02*
G01*
X3161789Y-9588500D01*
G36*
X4992370Y-10637774D02*
G01*
X4992370Y-10517378D01*
X5167629Y-10517378D01*
X5167629Y-10637774D01*
G37*
G36*
X4992370Y-10437621D02*
G01*
X4992370Y-10317226D01*
X5167629Y-10317226D01*
X5167629Y-10437621D01*
G37*
G36*
X5935725Y-11009629D02*
G01*
X5935725Y-10834370D01*
X6056122Y-10834370D01*
X6056122Y-11009629D01*
G37*
G36*
X6135877Y-11009629D02*
G01*
X6135877Y-10834370D01*
X6256274Y-10834370D01*
X6256274Y-11009629D01*
G37*
G36*
X4738370Y-10637774D02*
G01*
X4738370Y-10517378D01*
X4913629Y-10517378D01*
X4913629Y-10637774D01*
G37*
G36*
X4738370Y-10437621D02*
G01*
X4738370Y-10317226D01*
X4913629Y-10317226D01*
X4913629Y-10437621D01*
G37*
G36*
X4484370Y-10637774D02*
G01*
X4484370Y-10517378D01*
X4659629Y-10517378D01*
X4659629Y-10637774D01*
G37*
G36*
X4484370Y-10437621D02*
G01*
X4484370Y-10317226D01*
X4659629Y-10317226D01*
X4659629Y-10437621D01*
G37*
G36*
X3468370Y-13749274D02*
G01*
X3468370Y-13628878D01*
X3643629Y-13628878D01*
X3643629Y-13749274D01*
G37*
G36*
X3468370Y-13549121D02*
G01*
X3468370Y-13428726D01*
X3643629Y-13428726D01*
X3643629Y-13549121D01*
G37*
G36*
X5754877Y-10692129D02*
G01*
X5754877Y-10516870D01*
X5875274Y-10516870D01*
X5875274Y-10692129D01*
G37*
G36*
X5554725Y-10692129D02*
G01*
X5554725Y-10516870D01*
X5675122Y-10516870D01*
X5675122Y-10692129D01*
G37*
G36*
X5119370Y-9431274D02*
G01*
X5119370Y-9310878D01*
X5294629Y-9310878D01*
X5294629Y-9431274D01*
G37*
G36*
X5119370Y-9231121D02*
G01*
X5119370Y-9110726D01*
X5294629Y-9110726D01*
X5294629Y-9231121D01*
G37*
G36*
X5271515Y-13791184D02*
G01*
X5271515Y-13641070D01*
X5381752Y-13641070D01*
X5381752Y-13791184D01*
G37*
G36*
X5481574Y-13791184D02*
G01*
X5481574Y-13641070D01*
X5591809Y-13641070D01*
X5591809Y-13791184D01*
G37*
G36*
X1512570Y-13793216D02*
G01*
X1512570Y-13682979D01*
X1662684Y-13682979D01*
X1662684Y-13793216D01*
G37*
G36*
X1512570Y-14003274D02*
G01*
X1512570Y-13893037D01*
X1662684Y-13893037D01*
X1662684Y-14003274D01*
G37*
D45*
G01*
X4034790Y-13525500D03*
G01*
X4034790Y-13271500D03*
G01*
X4034790Y-13779500D03*
G36*
X2150872Y-13662152D02*
G01*
X2150872Y-13541755D01*
X2231136Y-13541755D01*
X2231136Y-13662152D01*
G37*
G36*
X2245868Y-13662152D02*
G01*
X2245868Y-13541755D01*
X2326131Y-13541755D01*
X2326131Y-13662152D01*
G37*
G36*
X2340863Y-13662152D02*
G01*
X2340863Y-13541755D01*
X2421127Y-13541755D01*
X2421127Y-13662152D01*
G37*
G36*
X2340863Y-13382244D02*
G01*
X2340863Y-13261847D01*
X2421127Y-13261847D01*
X2421127Y-13382244D01*
G37*
G36*
X2150872Y-13382244D02*
G01*
X2150872Y-13261847D01*
X2231136Y-13261847D01*
X2231136Y-13382244D01*
G37*
G36*
X2531872Y-9527031D02*
G01*
X2531872Y-9391904D01*
X2612136Y-9391904D01*
X2612136Y-9527031D01*
G37*
G36*
X2721863Y-9527031D02*
G01*
X2721863Y-9391904D01*
X2802127Y-9391904D01*
X2802127Y-9527031D01*
G37*
G36*
X2626868Y-9277095D02*
G01*
X2626868Y-9141968D01*
X2707131Y-9141968D01*
X2707131Y-9277095D01*
G37*
G36*
X1050797Y-10678413D02*
G01*
X1050797Y-10530586D01*
X1174242Y-10530586D01*
X1174242Y-10678413D01*
G37*
G36*
X857757Y-10678413D02*
G01*
X857757Y-10530586D01*
X981202Y-10530586D01*
X981202Y-10678413D01*
G37*
G36*
X2339086Y-11204702D02*
G01*
X2339086Y-11081258D01*
X2486913Y-11081258D01*
X2486913Y-11204702D01*
G37*
G36*
X2339086Y-11397742D02*
G01*
X2339086Y-11274297D01*
X2486913Y-11274297D01*
X2486913Y-11397742D01*
G37*
G36*
X2593086Y-11204702D02*
G01*
X2593086Y-11081258D01*
X2740913Y-11081258D01*
X2740913Y-11204702D01*
G37*
G36*
X2593086Y-11397742D02*
G01*
X2593086Y-11274297D01*
X2740913Y-11274297D01*
X2740913Y-11397742D01*
G37*
G36*
X3101086Y-11204702D02*
G01*
X3101086Y-11081258D01*
X3248913Y-11081258D01*
X3248913Y-11204702D01*
G37*
G36*
X3101086Y-11397742D02*
G01*
X3101086Y-11274297D01*
X3248913Y-11274297D01*
X3248913Y-11397742D01*
G37*
D50*
G01*
X889000Y-12700000D03*
G01*
X1143000Y-12700000D03*
D51*
G01*
X1397000Y-12700000D03*
G01*
X5207000Y-12700000D03*
D50*
G01*
X5461000Y-12700000D03*
G01*
X5715000Y-12700000D03*
G01*
X5715000Y-10922000D03*
G01*
X5461000Y-10922000D03*
D51*
G01*
X5207000Y-10922000D03*
D50*
G01*
X4953000Y-10922000D03*
G01*
X4699000Y-10922000D03*
G01*
X4445000Y-10922000D03*
G01*
X4191000Y-10922000D03*
D51*
G01*
X3937000Y-10922000D03*
D50*
G01*
X3683000Y-10922000D03*
G01*
X3429000Y-10922000D03*
G01*
X3175000Y-10922000D03*
G01*
X2921000Y-10922000D03*
D51*
G01*
X2667000Y-10922000D03*
D50*
G01*
X2413000Y-10922000D03*
G01*
X2159000Y-10922000D03*
G01*
X1905000Y-10922000D03*
G01*
X1651000Y-10922000D03*
D51*
G01*
X1397000Y-10922000D03*
D50*
G01*
X1143000Y-10922000D03*
G01*
X889000Y-10922000D03*
G01*
X5692013Y-12065000D03*
G36*
X5605525Y-11897360D02*
G01*
X5605525Y-11724639D01*
X5778245Y-11724639D01*
X5778245Y-11897360D01*
G37*
G01*
X5692013Y-11557000D03*
G01*
X1651000Y-12700000D03*
G01*
X1905000Y-12700000D03*
G01*
X2159000Y-12700000D03*
G01*
X2413000Y-12700000D03*
D51*
G01*
X2667000Y-12700000D03*
D50*
G01*
X2921000Y-12700000D03*
G01*
X3175000Y-12700000D03*
G01*
X3429000Y-12700000D03*
G01*
X3683000Y-12700000D03*
D51*
G01*
X3937000Y-12700000D03*
D50*
G01*
X4191000Y-12700000D03*
G01*
X4445000Y-12700000D03*
G01*
X4699000Y-12700000D03*
G01*
X4953000Y-12700000D03*
G36*
X4357624Y-13782547D02*
G01*
X4357624Y-13712444D01*
X4467859Y-13712444D01*
X4467859Y-13782547D01*
G37*
G36*
X4357624Y-13592555D02*
G01*
X4357624Y-13522452D01*
X4467859Y-13522452D01*
X4467859Y-13592555D01*
G37*
G36*
X4617720Y-13592555D02*
G01*
X4617720Y-13522452D01*
X4727956Y-13522452D01*
X4727956Y-13592555D01*
G37*
G36*
X4617720Y-13687552D02*
G01*
X4617720Y-13617447D01*
X4727956Y-13617447D01*
X4727956Y-13687552D01*
G37*
G36*
X4617720Y-13782547D02*
G01*
X4617720Y-13712444D01*
X4727956Y-13712444D01*
X4727956Y-13782547D01*
G37*
G36*
X6070600Y-9994900D02*
G01*
X6070600Y-9817100D01*
X6248400Y-9817100D01*
X6248400Y-9994900D01*
G37*
G36*
X4356100Y-9423400D02*
G01*
X4356100Y-9245600D01*
X4533900Y-9245600D01*
X4533900Y-9423400D01*
G37*
G36*
X5007356Y-9957562D02*
G01*
X5007356Y-9806431D01*
X5152643Y-9806431D01*
X5152643Y-9957562D01*
G37*
G36*
X5007356Y-9751568D02*
G01*
X5007356Y-9600437D01*
X5152643Y-9600437D01*
X5152643Y-9751568D01*
G37*
G36*
X6262877Y-12470129D02*
G01*
X6262877Y-12294870D01*
X6383274Y-12294870D01*
X6383274Y-12470129D01*
G37*
G36*
X6062725Y-12470129D02*
G01*
X6062725Y-12294870D01*
X6183122Y-12294870D01*
X6183122Y-12470129D01*
G37*
G36*
X2467356Y-10021062D02*
G01*
X2467356Y-9869931D01*
X2612643Y-9869931D01*
X2612643Y-10021062D01*
G37*
G36*
X2467356Y-9815068D02*
G01*
X2467356Y-9663937D01*
X2612643Y-9663937D01*
X2612643Y-9815068D01*
G37*
G36*
X1563370Y-10637774D02*
G01*
X1563370Y-10517378D01*
X1738629Y-10517378D01*
X1738629Y-10637774D01*
G37*
G36*
X1563370Y-10437621D02*
G01*
X1563370Y-10317226D01*
X1738629Y-10317226D01*
X1738629Y-10437621D01*
G37*
G36*
X3468370Y-13168121D02*
G01*
X3468370Y-13047726D01*
X3643629Y-13047726D01*
X3643629Y-13168121D01*
G37*
G36*
X3468370Y-13368274D02*
G01*
X3468370Y-13247878D01*
X3643629Y-13247878D01*
X3643629Y-13368274D01*
G37*
G36*
X4738370Y-9739121D02*
G01*
X4738370Y-9618726D01*
X4913629Y-9618726D01*
X4913629Y-9739121D01*
G37*
G36*
X4738370Y-9939274D02*
G01*
X4738370Y-9818878D01*
X4913629Y-9818878D01*
X4913629Y-9939274D01*
G37*
G36*
X4827015Y-13803629D02*
G01*
X4827015Y-13628370D01*
X4947411Y-13628370D01*
X4947411Y-13803629D01*
G37*
G36*
X5027168Y-13803629D02*
G01*
X5027168Y-13628370D01*
X5147309Y-13628370D01*
X5147309Y-13803629D01*
G37*
G36*
X3432302Y-10311129D02*
G01*
X3432302Y-10135870D01*
X3552697Y-10135870D01*
X3552697Y-10311129D01*
G37*
G36*
X3232404Y-10311129D02*
G01*
X3232404Y-10135870D01*
X3352545Y-10135870D01*
X3352545Y-10311129D01*
G37*
G36*
X6316725Y-11009629D02*
G01*
X6316725Y-10834370D01*
X6437122Y-10834370D01*
X6437122Y-11009629D01*
G37*
G36*
X6516877Y-11009629D02*
G01*
X6516877Y-10834370D01*
X6637274Y-10834370D01*
X6637274Y-11009629D01*
G37*
G36*
X5491225Y-9358629D02*
G01*
X5491225Y-9183370D01*
X5611622Y-9183370D01*
X5611622Y-9358629D01*
G37*
G36*
X5691377Y-9358629D02*
G01*
X5691377Y-9183370D01*
X5811774Y-9183370D01*
X5811774Y-9358629D01*
G37*
G36*
X6071870Y-10437621D02*
G01*
X6071870Y-10317226D01*
X6247129Y-10317226D01*
X6247129Y-10437621D01*
G37*
G36*
X6071870Y-10637774D02*
G01*
X6071870Y-10517378D01*
X6247129Y-10517378D01*
X6247129Y-10637774D01*
G37*
G36*
X1817370Y-10437621D02*
G01*
X1817370Y-10317226D01*
X1992629Y-10317226D01*
X1992629Y-10437621D01*
G37*
G36*
X1817370Y-10637774D02*
G01*
X1817370Y-10517378D01*
X1992629Y-10517378D01*
X1992629Y-10637774D01*
G37*
G36*
X3341370Y-9431274D02*
G01*
X3341370Y-9310878D01*
X3516629Y-9310878D01*
X3516629Y-9431274D01*
G37*
G36*
X3341370Y-9231121D02*
G01*
X3341370Y-9110726D01*
X3516629Y-9110726D01*
X3516629Y-9231121D01*
G37*
G36*
X6262877Y-12978129D02*
G01*
X6262877Y-12802870D01*
X6383274Y-12802870D01*
X6383274Y-12978129D01*
G37*
G36*
X6062725Y-12978129D02*
G01*
X6062725Y-12802870D01*
X6183122Y-12802870D01*
X6183122Y-12978129D01*
G37*
G36*
X4582668Y-14057629D02*
G01*
X4582668Y-13882370D01*
X4702809Y-13882370D01*
X4702809Y-14057629D01*
G37*
G36*
X4382515Y-14057629D02*
G01*
X4382515Y-13882370D01*
X4502911Y-13882370D01*
X4502911Y-14057629D01*
G37*
G36*
X2769870Y-14193774D02*
G01*
X2769870Y-14073378D01*
X2945129Y-14073378D01*
X2945129Y-14193774D01*
G37*
G36*
X2769870Y-13993621D02*
G01*
X2769870Y-13873226D01*
X2945129Y-13873226D01*
X2945129Y-13993621D01*
G37*
G36*
X2125725Y-13168629D02*
G01*
X2125725Y-12993370D01*
X2246122Y-12993370D01*
X2246122Y-13168629D01*
G37*
G36*
X2325877Y-13168629D02*
G01*
X2325877Y-12993370D01*
X2446274Y-12993370D01*
X2446274Y-13168629D01*
G37*
G36*
X2040890Y-14436089D02*
G01*
X2040890Y-14265910D01*
X2191258Y-14265910D01*
X2191258Y-14436089D01*
G37*
G36*
X2380741Y-14436089D02*
G01*
X2380741Y-14265910D01*
X2531109Y-14265910D01*
X2531109Y-14436089D01*
G37*
G36*
X4105909Y-10468610D02*
G01*
X4105909Y-10318242D01*
X4276090Y-10318242D01*
X4276090Y-10468610D01*
G37*
G36*
X4105909Y-10128758D02*
G01*
X4105909Y-9978389D01*
X4276090Y-9978389D01*
X4276090Y-10128758D01*
G37*
G36*
X3851909Y-10128758D02*
G01*
X3851909Y-9978389D01*
X4022090Y-9978389D01*
X4022090Y-10128758D01*
G37*
G36*
X3851909Y-10468610D02*
G01*
X3851909Y-10318242D01*
X4022090Y-10318242D01*
X4022090Y-10468610D01*
G37*
G36*
X5435600Y-13296900D02*
G01*
X5435600Y-13119100D01*
X5613400Y-13119100D01*
X5613400Y-13296900D01*
G37*
G36*
X4864100Y-14058900D02*
G01*
X4864100Y-13881100D01*
X5041900Y-13881100D01*
X5041900Y-14058900D01*
G37*
G36*
X1799844Y-13372084D02*
G01*
X1799844Y-13231876D01*
X2010156Y-13231876D01*
X2010156Y-13372084D01*
G37*
G36*
X1799844Y-13692124D02*
G01*
X1799844Y-13551916D01*
X2010156Y-13551916D01*
X2010156Y-13692124D01*
G37*
G36*
X2832100Y-10566400D02*
G01*
X2832100Y-10388600D01*
X3009900Y-10388600D01*
X3009900Y-10566400D01*
G37*
G36*
X6578600Y-12153900D02*
G01*
X6578600Y-11976100D01*
X6756400Y-11976100D01*
X6756400Y-12153900D01*
G37*
G36*
X3087370Y-9231121D02*
G01*
X3087370Y-9110726D01*
X3262629Y-9110726D01*
X3262629Y-9231121D01*
G37*
G36*
X3087370Y-9431274D02*
G01*
X3087370Y-9310878D01*
X3262629Y-9310878D01*
X3262629Y-9431274D01*
G37*
G36*
X2198370Y-9558274D02*
G01*
X2198370Y-9437878D01*
X2373629Y-9437878D01*
X2373629Y-9558274D01*
G37*
G36*
X2198370Y-9358121D02*
G01*
X2198370Y-9237726D01*
X2373629Y-9237726D01*
X2373629Y-9358121D01*
G37*
G36*
X2198370Y-9939274D02*
G01*
X2198370Y-9818878D01*
X2373629Y-9818878D01*
X2373629Y-9939274D01*
G37*
G36*
X2198370Y-9739121D02*
G01*
X2198370Y-9618726D01*
X2373629Y-9618726D01*
X2373629Y-9739121D01*
G37*
G36*
X2515870Y-14193774D02*
G01*
X2515870Y-14073378D01*
X2691129Y-14073378D01*
X2691129Y-14193774D01*
G37*
G36*
X2515870Y-13993621D02*
G01*
X2515870Y-13873226D01*
X2691129Y-13873226D01*
X2691129Y-13993621D01*
G37*
G36*
X2325877Y-13930629D02*
G01*
X2325877Y-13755370D01*
X2446274Y-13755370D01*
X2446274Y-13930629D01*
G37*
G36*
X2125725Y-13930629D02*
G01*
X2125725Y-13755370D01*
X2246122Y-13755370D01*
X2246122Y-13930629D01*
G37*
G36*
X1499870Y-13358621D02*
G01*
X1499870Y-13238226D01*
X1675129Y-13238226D01*
X1675129Y-13358621D01*
G37*
G36*
X1499870Y-13558774D02*
G01*
X1499870Y-13438378D01*
X1675129Y-13438378D01*
X1675129Y-13558774D01*
G37*
G36*
X2325877Y-14184629D02*
G01*
X2325877Y-14009370D01*
X2446274Y-14009370D01*
X2446274Y-14184629D01*
G37*
G36*
X2125725Y-14184629D02*
G01*
X2125725Y-14009370D01*
X2246122Y-14009370D01*
X2246122Y-14184629D01*
G37*
G36*
X3840225Y-9930129D02*
G01*
X3840225Y-9754870D01*
X3960622Y-9754870D01*
X3960622Y-9930129D01*
G37*
G36*
X4040377Y-9930129D02*
G01*
X4040377Y-9754870D01*
X4160774Y-9754870D01*
X4160774Y-9930129D01*
G37*
G36*
X6262877Y-12724129D02*
G01*
X6262877Y-12548870D01*
X6383274Y-12548870D01*
X6383274Y-12724129D01*
G37*
G36*
X6062725Y-12724129D02*
G01*
X6062725Y-12548870D01*
X6183122Y-12548870D01*
X6183122Y-12724129D01*
G37*
G36*
X6075679Y-11323320D02*
G01*
X6075679Y-11155679D01*
X6243320Y-11155679D01*
X6243320Y-11323320D01*
G37*
G36*
X2706370Y-10002774D02*
G01*
X2706370Y-9882378D01*
X2881629Y-9882378D01*
X2881629Y-10002774D01*
G37*
G36*
X2706370Y-9802621D02*
G01*
X2706370Y-9682226D01*
X2881629Y-9682226D01*
X2881629Y-9802621D01*
G37*
G36*
X6259829Y-12155170D02*
G01*
X6259829Y-11974829D01*
X6440170Y-11974829D01*
X6440170Y-12155170D01*
G37*
D60*
G01*
X6096000Y-12065000D03*
G01*
X6350000Y-11811000D03*
G01*
X6096000Y-11811000D03*
G01*
X6350000Y-11557000D03*
G01*
X6096000Y-11557000D03*
M02*
